G75*
%MOIN*%
%OFA0B0*%
%FSLAX25Y25*%
%IPPOS*%
%LPD*%
%AMOC8*
5,1,8,0,0,1.08239X$1,22.5*
%
%ADD10C,0.07800*%
%ADD11R,0.09750X0.09750*%
%ADD12OC8,0.05200*%
%ADD13C,0.06000*%
%ADD14C,0.04159*%
%ADD15C,0.05000*%
%ADD16C,0.03200*%
%ADD17C,0.10000*%
%ADD18C,0.02400*%
D10*
X0013200Y0084400D02*
X0013200Y0092200D01*
X0033200Y0092200D02*
X0033200Y0084400D01*
X0053200Y0084400D02*
X0053200Y0092200D01*
X0053200Y0114400D02*
X0053200Y0122200D01*
X0033200Y0122200D02*
X0033200Y0114400D01*
X0013200Y0114400D02*
X0013200Y0122200D01*
X0113200Y0122200D02*
X0113200Y0114400D01*
X0113200Y0092200D02*
X0113200Y0084400D01*
D11*
X0068200Y0032900D03*
X0098100Y0032900D03*
X0098200Y0173700D03*
X0068300Y0173700D03*
D12*
X0098200Y0141300D03*
X0138200Y0141300D03*
X0138200Y0168300D03*
X0148200Y0168300D03*
X0138200Y0064300D03*
X0098200Y0064300D03*
X0138200Y0038300D03*
X0148200Y0038300D03*
D13*
X0183200Y0027300D02*
X0183200Y0021300D01*
X0193200Y0021300D02*
X0193200Y0027300D01*
X0203200Y0027300D02*
X0203200Y0021300D01*
X0213200Y0021300D02*
X0213200Y0027300D01*
X0152200Y0098300D02*
X0146200Y0098300D01*
X0146200Y0108300D02*
X0152200Y0108300D01*
X0152200Y0118300D02*
X0146200Y0118300D01*
X0183200Y0179300D02*
X0183200Y0185300D01*
X0193200Y0185300D02*
X0193200Y0179300D01*
X0203200Y0179300D02*
X0203200Y0185300D01*
X0213200Y0185300D02*
X0213200Y0179300D01*
D14*
X0348200Y0114300D03*
X0181200Y0073300D03*
D15*
X0181200Y0099300D01*
X0151200Y0129300D01*
X0124200Y0129300D01*
X0113200Y0118300D01*
X0058200Y0123300D02*
X0058200Y0097300D01*
X0055200Y0094300D01*
X0053200Y0096300D01*
X0052200Y0096300D01*
X0050200Y0094300D01*
X0050200Y0079300D01*
X0056200Y0079300D01*
X0056200Y0092300D01*
X0057200Y0093300D01*
X0057200Y0092300D01*
X0053200Y0088300D01*
X0057200Y0093300D02*
X0057200Y0101300D01*
X0058200Y0110300D02*
X0050200Y0110300D01*
X0050200Y0125300D01*
X0052200Y0127300D01*
X0058200Y0127300D01*
X0058200Y0123300D01*
X0056200Y0125300D01*
X0056200Y0112300D01*
X0058200Y0110300D01*
X0053200Y0118300D02*
X0058200Y0123300D01*
X0056200Y0125300D02*
X0055200Y0126300D01*
X0187200Y0124300D02*
X0197200Y0114300D01*
X0348200Y0114300D01*
X0213200Y0169300D02*
X0187200Y0143300D01*
X0187200Y0124300D01*
X0197200Y0114300D02*
X0190200Y0107300D01*
X0190200Y0043300D01*
X0183200Y0036300D01*
X0183200Y0024300D01*
X0213200Y0169300D02*
X0213200Y0182300D01*
D16*
X0148200Y0168300D02*
X0124099Y0192401D01*
X0079200Y0192401D01*
X0079200Y0184600D01*
X0068300Y0173700D01*
X0148200Y0038300D02*
X0148200Y0030300D01*
X0132200Y0014300D01*
X0086800Y0014300D01*
X0068200Y0032900D01*
D17*
X0065200Y0168300D02*
X0063200Y0170300D01*
X0066600Y0173700D01*
X0068300Y0173700D01*
X0066800Y0173700D01*
X0064200Y0176300D01*
X0074200Y0176300D01*
X0072200Y0174300D01*
X0072200Y0168300D01*
X0065200Y0168300D01*
D18*
X0063135Y0166625D02*
X0062576Y0166775D01*
X0062074Y0167065D01*
X0061665Y0167474D01*
X0061375Y0167976D01*
X0061225Y0168535D01*
X0061225Y0173275D01*
X0067875Y0173275D01*
X0067875Y0174125D01*
X0067875Y0180775D01*
X0063135Y0180775D01*
X0062576Y0180625D01*
X0062074Y0180335D01*
X0061665Y0179926D01*
X0061375Y0179424D01*
X0061225Y0178865D01*
X0061225Y0174125D01*
X0067875Y0174125D01*
X0068725Y0174125D01*
X0068725Y0180775D01*
X0073465Y0180775D01*
X0074024Y0180625D01*
X0074526Y0180335D01*
X0074935Y0179926D01*
X0075225Y0179424D01*
X0075375Y0178865D01*
X0075375Y0174125D01*
X0068725Y0174125D01*
X0068725Y0173275D01*
X0075375Y0173275D01*
X0075375Y0168535D01*
X0075225Y0167976D01*
X0074935Y0167474D01*
X0074526Y0167065D01*
X0074024Y0166775D01*
X0073465Y0166625D01*
X0068725Y0166625D01*
X0068725Y0173275D01*
X0067875Y0173275D01*
X0067875Y0166625D01*
X0063135Y0166625D01*
X0061225Y0169000D02*
X0040714Y0169000D01*
X0040500Y0168205D02*
X0041400Y0171562D01*
X0041400Y0175038D01*
X0040500Y0178395D01*
X0038763Y0181405D01*
X0036305Y0183863D01*
X0033295Y0185600D01*
X0029938Y0186500D01*
X0026462Y0186500D01*
X0023105Y0185600D01*
X0020095Y0183863D01*
X0017637Y0181405D01*
X0015900Y0178395D01*
X0015000Y0175038D01*
X0015000Y0171562D01*
X0015900Y0168205D01*
X0017637Y0165195D01*
X0020095Y0162737D01*
X0023105Y0161000D01*
X0026462Y0160100D01*
X0029938Y0160100D01*
X0033295Y0161000D01*
X0036305Y0162737D01*
X0038763Y0165195D01*
X0040500Y0168205D01*
X0039575Y0166602D02*
X0082200Y0166602D01*
X0082200Y0169000D02*
X0075375Y0169000D01*
X0075375Y0171399D02*
X0082200Y0171399D01*
X0082200Y0173797D02*
X0068725Y0173797D01*
X0067875Y0173797D02*
X0041400Y0173797D01*
X0041090Y0176196D02*
X0061225Y0176196D01*
X0061225Y0178594D02*
X0040385Y0178594D01*
X0039001Y0180993D02*
X0082200Y0180993D01*
X0082200Y0183391D02*
X0036776Y0183391D01*
X0032588Y0185790D02*
X0082200Y0185790D01*
X0082200Y0188188D02*
X0008400Y0188188D01*
X0008400Y0190587D02*
X0082200Y0190587D01*
X0082200Y0192801D02*
X0082200Y0155300D01*
X0078200Y0155300D01*
X0066200Y0143300D01*
X0066200Y0074300D01*
X0008400Y0074300D01*
X0008400Y0080573D01*
X0009745Y0079229D01*
X0011987Y0078300D01*
X0014413Y0078300D01*
X0016655Y0079229D01*
X0018371Y0080945D01*
X0019300Y0083187D01*
X0019300Y0093413D01*
X0018371Y0095655D01*
X0016655Y0097371D01*
X0014413Y0098300D01*
X0011987Y0098300D01*
X0009745Y0097371D01*
X0008400Y0096027D01*
X0008400Y0110573D01*
X0009745Y0109229D01*
X0011987Y0108300D01*
X0014413Y0108300D01*
X0016655Y0109229D01*
X0018371Y0110945D01*
X0019300Y0113187D01*
X0019300Y0123413D01*
X0018371Y0125655D01*
X0016655Y0127371D01*
X0014413Y0128300D01*
X0011987Y0128300D01*
X0009745Y0127371D01*
X0008400Y0126027D01*
X0008400Y0192801D01*
X0082200Y0192801D01*
X0082200Y0178594D02*
X0075375Y0178594D01*
X0075375Y0176196D02*
X0082200Y0176196D01*
X0068725Y0176196D02*
X0067875Y0176196D01*
X0067875Y0178594D02*
X0068725Y0178594D01*
X0068725Y0171399D02*
X0067875Y0171399D01*
X0067875Y0169000D02*
X0068725Y0169000D01*
X0061225Y0171399D02*
X0041356Y0171399D01*
X0037771Y0164203D02*
X0082200Y0164203D01*
X0082200Y0161805D02*
X0034690Y0161805D01*
X0021710Y0161805D02*
X0008400Y0161805D01*
X0008400Y0164203D02*
X0018629Y0164203D01*
X0016825Y0166602D02*
X0008400Y0166602D01*
X0008400Y0169000D02*
X0015686Y0169000D01*
X0015044Y0171399D02*
X0008400Y0171399D01*
X0008400Y0173797D02*
X0015000Y0173797D01*
X0015310Y0176196D02*
X0008400Y0176196D01*
X0008400Y0178594D02*
X0016015Y0178594D01*
X0017399Y0180993D02*
X0008400Y0180993D01*
X0008400Y0183391D02*
X0019624Y0183391D01*
X0023812Y0185790D02*
X0008400Y0185790D01*
X0008400Y0159406D02*
X0082200Y0159406D01*
X0082200Y0157008D02*
X0008400Y0157008D01*
X0008400Y0154609D02*
X0077509Y0154609D01*
X0075111Y0152211D02*
X0008400Y0152211D01*
X0008400Y0149812D02*
X0072712Y0149812D01*
X0070314Y0147414D02*
X0008400Y0147414D01*
X0008400Y0145015D02*
X0067915Y0145015D01*
X0066200Y0142617D02*
X0008400Y0142617D01*
X0008400Y0140218D02*
X0066200Y0140218D01*
X0066200Y0137820D02*
X0008400Y0137820D01*
X0008400Y0135421D02*
X0066200Y0135421D01*
X0066200Y0133023D02*
X0008400Y0133023D01*
X0008400Y0130624D02*
X0066200Y0130624D01*
X0066200Y0128226D02*
X0054150Y0128226D01*
X0053680Y0128300D02*
X0053300Y0128300D01*
X0053300Y0118400D01*
X0053100Y0118400D01*
X0053100Y0128300D01*
X0052720Y0128300D01*
X0051772Y0128150D01*
X0050858Y0127853D01*
X0050003Y0127417D01*
X0049226Y0126853D01*
X0048547Y0126174D01*
X0047983Y0125397D01*
X0047547Y0124542D01*
X0047250Y0123628D01*
X0047100Y0122680D01*
X0047100Y0118400D01*
X0053100Y0118400D01*
X0053100Y0118200D01*
X0047100Y0118200D01*
X0047100Y0113920D01*
X0047250Y0112972D01*
X0047547Y0112058D01*
X0047983Y0111203D01*
X0048547Y0110426D01*
X0049226Y0109747D01*
X0050003Y0109183D01*
X0050858Y0108747D01*
X0051772Y0108450D01*
X0052720Y0108300D01*
X0053100Y0108300D01*
X0053100Y0118200D01*
X0053300Y0118200D01*
X0053300Y0118400D01*
X0059300Y0118400D01*
X0059300Y0122680D01*
X0059150Y0123628D01*
X0058853Y0124542D01*
X0058417Y0125397D01*
X0057853Y0126174D01*
X0057174Y0126853D01*
X0056397Y0127417D01*
X0055542Y0127853D01*
X0054628Y0128150D01*
X0053680Y0128300D01*
X0053300Y0128226D02*
X0053100Y0128226D01*
X0052250Y0128226D02*
X0034593Y0128226D01*
X0034413Y0128300D02*
X0031987Y0128300D01*
X0029745Y0127371D01*
X0028029Y0125655D01*
X0027100Y0123413D01*
X0027100Y0113187D01*
X0028029Y0110945D01*
X0029745Y0109229D01*
X0031987Y0108300D01*
X0034413Y0108300D01*
X0036655Y0109229D01*
X0038371Y0110945D01*
X0039300Y0113187D01*
X0039300Y0123413D01*
X0038371Y0125655D01*
X0036655Y0127371D01*
X0034413Y0128300D01*
X0031807Y0128226D02*
X0014593Y0128226D01*
X0011807Y0128226D02*
X0008400Y0128226D01*
X0018200Y0125827D02*
X0028200Y0125827D01*
X0027106Y0123429D02*
X0019294Y0123429D01*
X0019300Y0121030D02*
X0027100Y0121030D01*
X0027100Y0118632D02*
X0019300Y0118632D01*
X0019300Y0116233D02*
X0027100Y0116233D01*
X0027100Y0113834D02*
X0019300Y0113834D01*
X0018575Y0111436D02*
X0027825Y0111436D01*
X0030206Y0109037D02*
X0016194Y0109037D01*
X0010206Y0109037D02*
X0008400Y0109037D01*
X0008400Y0106639D02*
X0066200Y0106639D01*
X0066200Y0109037D02*
X0056112Y0109037D01*
X0056397Y0109183D02*
X0057174Y0109747D01*
X0057853Y0110426D01*
X0058417Y0111203D01*
X0058853Y0112058D01*
X0059150Y0112972D01*
X0059300Y0113920D01*
X0059300Y0118200D01*
X0053300Y0118200D01*
X0053300Y0108300D01*
X0053680Y0108300D01*
X0054628Y0108450D01*
X0055542Y0108747D01*
X0056397Y0109183D01*
X0053300Y0109037D02*
X0053100Y0109037D01*
X0053100Y0111436D02*
X0053300Y0111436D01*
X0050288Y0109037D02*
X0036194Y0109037D01*
X0038575Y0111436D02*
X0047864Y0111436D01*
X0047114Y0113834D02*
X0039300Y0113834D01*
X0039300Y0116233D02*
X0047100Y0116233D01*
X0047100Y0118632D02*
X0039300Y0118632D01*
X0039300Y0121030D02*
X0047100Y0121030D01*
X0047219Y0123429D02*
X0039294Y0123429D01*
X0038200Y0125827D02*
X0048295Y0125827D01*
X0053100Y0125827D02*
X0053300Y0125827D01*
X0053300Y0123429D02*
X0053100Y0123429D01*
X0053100Y0121030D02*
X0053300Y0121030D01*
X0053300Y0118632D02*
X0053100Y0118632D01*
X0053100Y0116233D02*
X0053300Y0116233D01*
X0053300Y0113834D02*
X0053100Y0113834D01*
X0058536Y0111436D02*
X0066200Y0111436D01*
X0066200Y0113834D02*
X0059286Y0113834D01*
X0059300Y0116233D02*
X0066200Y0116233D01*
X0066200Y0118632D02*
X0059300Y0118632D01*
X0059300Y0121030D02*
X0066200Y0121030D01*
X0066200Y0123429D02*
X0059181Y0123429D01*
X0058105Y0125827D02*
X0066200Y0125827D01*
X0066200Y0104240D02*
X0008400Y0104240D01*
X0008400Y0101842D02*
X0066200Y0101842D01*
X0066200Y0099443D02*
X0008400Y0099443D01*
X0008400Y0097045D02*
X0009418Y0097045D01*
X0016982Y0097045D02*
X0029418Y0097045D01*
X0029745Y0097371D02*
X0028029Y0095655D01*
X0027100Y0093413D01*
X0027100Y0083187D01*
X0028029Y0080945D01*
X0029745Y0079229D01*
X0031987Y0078300D01*
X0034413Y0078300D01*
X0036655Y0079229D01*
X0038371Y0080945D01*
X0039300Y0083187D01*
X0039300Y0093413D01*
X0038371Y0095655D01*
X0036655Y0097371D01*
X0034413Y0098300D01*
X0031987Y0098300D01*
X0029745Y0097371D01*
X0027611Y0094646D02*
X0018789Y0094646D01*
X0019300Y0092248D02*
X0027100Y0092248D01*
X0027100Y0089849D02*
X0019300Y0089849D01*
X0019300Y0087451D02*
X0027100Y0087451D01*
X0027100Y0085052D02*
X0019300Y0085052D01*
X0019079Y0082654D02*
X0027321Y0082654D01*
X0028718Y0080255D02*
X0017682Y0080255D01*
X0008718Y0080255D02*
X0008400Y0080255D01*
X0008400Y0077857D02*
X0066200Y0077857D01*
X0066200Y0080255D02*
X0057682Y0080255D01*
X0057853Y0080426D02*
X0058417Y0081203D01*
X0058853Y0082058D01*
X0059150Y0082972D01*
X0059300Y0083920D01*
X0059300Y0088200D01*
X0053300Y0088200D01*
X0053300Y0088400D01*
X0053100Y0088400D01*
X0053100Y0098300D01*
X0052720Y0098300D01*
X0051772Y0098150D01*
X0050858Y0097853D01*
X0050003Y0097417D01*
X0049226Y0096853D01*
X0048547Y0096174D01*
X0047983Y0095397D01*
X0047547Y0094542D01*
X0047250Y0093628D01*
X0047100Y0092680D01*
X0047100Y0088400D01*
X0053100Y0088400D01*
X0053100Y0088200D01*
X0047100Y0088200D01*
X0047100Y0083920D01*
X0047250Y0082972D01*
X0047547Y0082058D01*
X0047983Y0081203D01*
X0048547Y0080426D01*
X0049226Y0079747D01*
X0050003Y0079183D01*
X0050858Y0078747D01*
X0051772Y0078450D01*
X0052720Y0078300D01*
X0053100Y0078300D01*
X0053100Y0088200D01*
X0053300Y0088200D01*
X0053300Y0078300D01*
X0053680Y0078300D01*
X0054628Y0078450D01*
X0055542Y0078747D01*
X0056397Y0079183D01*
X0057174Y0079747D01*
X0057853Y0080426D01*
X0053300Y0080255D02*
X0053100Y0080255D01*
X0048718Y0080255D02*
X0037682Y0080255D01*
X0039079Y0082654D02*
X0047353Y0082654D01*
X0047100Y0085052D02*
X0039300Y0085052D01*
X0039300Y0087451D02*
X0047100Y0087451D01*
X0047100Y0089849D02*
X0039300Y0089849D01*
X0039300Y0092248D02*
X0047100Y0092248D01*
X0047600Y0094646D02*
X0038789Y0094646D01*
X0036982Y0097045D02*
X0049491Y0097045D01*
X0053100Y0097045D02*
X0053300Y0097045D01*
X0053300Y0098300D02*
X0053300Y0088400D01*
X0059300Y0088400D01*
X0059300Y0092680D01*
X0059150Y0093628D01*
X0058853Y0094542D01*
X0058417Y0095397D01*
X0057853Y0096174D01*
X0057174Y0096853D01*
X0056397Y0097417D01*
X0055542Y0097853D01*
X0054628Y0098150D01*
X0053680Y0098300D01*
X0053300Y0098300D01*
X0056909Y0097045D02*
X0066200Y0097045D01*
X0066200Y0094646D02*
X0058800Y0094646D01*
X0059300Y0092248D02*
X0066200Y0092248D01*
X0066200Y0089849D02*
X0059300Y0089849D01*
X0059300Y0087451D02*
X0066200Y0087451D01*
X0066200Y0085052D02*
X0059300Y0085052D01*
X0059047Y0082654D02*
X0066200Y0082654D01*
X0053300Y0082654D02*
X0053100Y0082654D01*
X0053100Y0085052D02*
X0053300Y0085052D01*
X0053300Y0087451D02*
X0053100Y0087451D01*
X0053100Y0089849D02*
X0053300Y0089849D01*
X0053300Y0092248D02*
X0053100Y0092248D01*
X0053100Y0094646D02*
X0053300Y0094646D01*
X0066200Y0075458D02*
X0008400Y0075458D01*
M02*
