G75*
%MOIN*%
%OFA0B0*%
%FSLAX25Y25*%
%IPPOS*%
%LPD*%
%AMOC8*
5,1,8,0,0,1.08239X$1,22.5*
%
%ADD10C,0.16800*%
%ADD11C,0.08600*%
%ADD12R,0.10550X0.10550*%
%ADD13OC8,0.06000*%
%ADD14C,0.06800*%
%ADD15C,0.04959*%
D10*
X0028200Y0033300D03*
X0278200Y0033300D03*
X0328200Y0058300D03*
X0378200Y0058300D03*
X0378200Y0148300D03*
X0328200Y0148300D03*
X0278200Y0173300D03*
X0028200Y0173300D03*
D11*
X0033200Y0122200D02*
X0033200Y0114400D01*
X0013200Y0114400D02*
X0013200Y0122200D01*
X0053200Y0122200D02*
X0053200Y0114400D01*
X0053200Y0092200D02*
X0053200Y0084400D01*
X0033200Y0084400D02*
X0033200Y0092200D01*
X0013200Y0092200D02*
X0013200Y0084400D01*
X0113200Y0084400D02*
X0113200Y0092200D01*
X0113200Y0114400D02*
X0113200Y0122200D01*
D12*
X0098200Y0173700D03*
X0068300Y0173700D03*
X0068200Y0032900D03*
X0098100Y0032900D03*
D13*
X0138200Y0038300D03*
X0148200Y0038300D03*
X0138200Y0064300D03*
X0098200Y0064300D03*
X0098200Y0141300D03*
X0138200Y0141300D03*
X0138200Y0168300D03*
X0148200Y0168300D03*
D14*
X0183200Y0179300D02*
X0183200Y0185300D01*
X0193200Y0185300D02*
X0193200Y0179300D01*
X0203200Y0179300D02*
X0203200Y0185300D01*
X0213200Y0185300D02*
X0213200Y0179300D01*
X0152200Y0118300D02*
X0146200Y0118300D01*
X0146200Y0108300D02*
X0152200Y0108300D01*
X0152200Y0098300D02*
X0146200Y0098300D01*
X0183200Y0027300D02*
X0183200Y0021300D01*
X0193200Y0021300D02*
X0193200Y0027300D01*
X0203200Y0027300D02*
X0203200Y0021300D01*
X0213200Y0021300D02*
X0213200Y0027300D01*
D15*
X0181200Y0073300D03*
X0348200Y0114300D03*
M02*
