G75*
%MOIN*%
%OFA0B0*%
%FSLAX25Y25*%
%IPPOS*%
%LPD*%
%AMOC8*
5,1,8,0,0,1.08239X$1,22.5*
%
%ADD10C,0.00000*%
%ADD11R,0.04724X0.07087*%
%ADD12R,0.05512X0.04724*%
%ADD13C,0.07800*%
%ADD14R,0.05118X0.05906*%
%ADD15R,0.09750X0.09750*%
%ADD16OC8,0.05200*%
%ADD17C,0.06000*%
%ADD18R,0.05118X0.06299*%
%ADD19R,0.05906X0.05118*%
%ADD20C,0.05000*%
%ADD21C,0.04159*%
%ADD22C,0.00600*%
%ADD23C,0.10000*%
%ADD24C,0.02000*%
%ADD25C,0.03200*%
D10*
X0003200Y0008300D02*
X0003200Y0198001D01*
X0393121Y0198001D01*
X0393121Y0008300D01*
X0003200Y0008300D01*
X0020200Y0033300D02*
X0020202Y0033496D01*
X0020210Y0033693D01*
X0020222Y0033889D01*
X0020239Y0034084D01*
X0020260Y0034279D01*
X0020287Y0034474D01*
X0020318Y0034668D01*
X0020354Y0034861D01*
X0020394Y0035053D01*
X0020440Y0035244D01*
X0020490Y0035434D01*
X0020544Y0035622D01*
X0020604Y0035809D01*
X0020668Y0035995D01*
X0020736Y0036179D01*
X0020809Y0036361D01*
X0020886Y0036542D01*
X0020968Y0036720D01*
X0021054Y0036897D01*
X0021145Y0037071D01*
X0021239Y0037243D01*
X0021338Y0037413D01*
X0021441Y0037580D01*
X0021548Y0037745D01*
X0021659Y0037906D01*
X0021774Y0038066D01*
X0021893Y0038222D01*
X0022016Y0038375D01*
X0022142Y0038525D01*
X0022272Y0038672D01*
X0022406Y0038816D01*
X0022543Y0038957D01*
X0022684Y0039094D01*
X0022828Y0039228D01*
X0022975Y0039358D01*
X0023125Y0039484D01*
X0023278Y0039607D01*
X0023434Y0039726D01*
X0023594Y0039841D01*
X0023755Y0039952D01*
X0023920Y0040059D01*
X0024087Y0040162D01*
X0024257Y0040261D01*
X0024429Y0040355D01*
X0024603Y0040446D01*
X0024780Y0040532D01*
X0024958Y0040614D01*
X0025139Y0040691D01*
X0025321Y0040764D01*
X0025505Y0040832D01*
X0025691Y0040896D01*
X0025878Y0040956D01*
X0026066Y0041010D01*
X0026256Y0041060D01*
X0026447Y0041106D01*
X0026639Y0041146D01*
X0026832Y0041182D01*
X0027026Y0041213D01*
X0027221Y0041240D01*
X0027416Y0041261D01*
X0027611Y0041278D01*
X0027807Y0041290D01*
X0028004Y0041298D01*
X0028200Y0041300D01*
X0028396Y0041298D01*
X0028593Y0041290D01*
X0028789Y0041278D01*
X0028984Y0041261D01*
X0029179Y0041240D01*
X0029374Y0041213D01*
X0029568Y0041182D01*
X0029761Y0041146D01*
X0029953Y0041106D01*
X0030144Y0041060D01*
X0030334Y0041010D01*
X0030522Y0040956D01*
X0030709Y0040896D01*
X0030895Y0040832D01*
X0031079Y0040764D01*
X0031261Y0040691D01*
X0031442Y0040614D01*
X0031620Y0040532D01*
X0031797Y0040446D01*
X0031971Y0040355D01*
X0032143Y0040261D01*
X0032313Y0040162D01*
X0032480Y0040059D01*
X0032645Y0039952D01*
X0032806Y0039841D01*
X0032966Y0039726D01*
X0033122Y0039607D01*
X0033275Y0039484D01*
X0033425Y0039358D01*
X0033572Y0039228D01*
X0033716Y0039094D01*
X0033857Y0038957D01*
X0033994Y0038816D01*
X0034128Y0038672D01*
X0034258Y0038525D01*
X0034384Y0038375D01*
X0034507Y0038222D01*
X0034626Y0038066D01*
X0034741Y0037906D01*
X0034852Y0037745D01*
X0034959Y0037580D01*
X0035062Y0037413D01*
X0035161Y0037243D01*
X0035255Y0037071D01*
X0035346Y0036897D01*
X0035432Y0036720D01*
X0035514Y0036542D01*
X0035591Y0036361D01*
X0035664Y0036179D01*
X0035732Y0035995D01*
X0035796Y0035809D01*
X0035856Y0035622D01*
X0035910Y0035434D01*
X0035960Y0035244D01*
X0036006Y0035053D01*
X0036046Y0034861D01*
X0036082Y0034668D01*
X0036113Y0034474D01*
X0036140Y0034279D01*
X0036161Y0034084D01*
X0036178Y0033889D01*
X0036190Y0033693D01*
X0036198Y0033496D01*
X0036200Y0033300D01*
X0036198Y0033104D01*
X0036190Y0032907D01*
X0036178Y0032711D01*
X0036161Y0032516D01*
X0036140Y0032321D01*
X0036113Y0032126D01*
X0036082Y0031932D01*
X0036046Y0031739D01*
X0036006Y0031547D01*
X0035960Y0031356D01*
X0035910Y0031166D01*
X0035856Y0030978D01*
X0035796Y0030791D01*
X0035732Y0030605D01*
X0035664Y0030421D01*
X0035591Y0030239D01*
X0035514Y0030058D01*
X0035432Y0029880D01*
X0035346Y0029703D01*
X0035255Y0029529D01*
X0035161Y0029357D01*
X0035062Y0029187D01*
X0034959Y0029020D01*
X0034852Y0028855D01*
X0034741Y0028694D01*
X0034626Y0028534D01*
X0034507Y0028378D01*
X0034384Y0028225D01*
X0034258Y0028075D01*
X0034128Y0027928D01*
X0033994Y0027784D01*
X0033857Y0027643D01*
X0033716Y0027506D01*
X0033572Y0027372D01*
X0033425Y0027242D01*
X0033275Y0027116D01*
X0033122Y0026993D01*
X0032966Y0026874D01*
X0032806Y0026759D01*
X0032645Y0026648D01*
X0032480Y0026541D01*
X0032313Y0026438D01*
X0032143Y0026339D01*
X0031971Y0026245D01*
X0031797Y0026154D01*
X0031620Y0026068D01*
X0031442Y0025986D01*
X0031261Y0025909D01*
X0031079Y0025836D01*
X0030895Y0025768D01*
X0030709Y0025704D01*
X0030522Y0025644D01*
X0030334Y0025590D01*
X0030144Y0025540D01*
X0029953Y0025494D01*
X0029761Y0025454D01*
X0029568Y0025418D01*
X0029374Y0025387D01*
X0029179Y0025360D01*
X0028984Y0025339D01*
X0028789Y0025322D01*
X0028593Y0025310D01*
X0028396Y0025302D01*
X0028200Y0025300D01*
X0028004Y0025302D01*
X0027807Y0025310D01*
X0027611Y0025322D01*
X0027416Y0025339D01*
X0027221Y0025360D01*
X0027026Y0025387D01*
X0026832Y0025418D01*
X0026639Y0025454D01*
X0026447Y0025494D01*
X0026256Y0025540D01*
X0026066Y0025590D01*
X0025878Y0025644D01*
X0025691Y0025704D01*
X0025505Y0025768D01*
X0025321Y0025836D01*
X0025139Y0025909D01*
X0024958Y0025986D01*
X0024780Y0026068D01*
X0024603Y0026154D01*
X0024429Y0026245D01*
X0024257Y0026339D01*
X0024087Y0026438D01*
X0023920Y0026541D01*
X0023755Y0026648D01*
X0023594Y0026759D01*
X0023434Y0026874D01*
X0023278Y0026993D01*
X0023125Y0027116D01*
X0022975Y0027242D01*
X0022828Y0027372D01*
X0022684Y0027506D01*
X0022543Y0027643D01*
X0022406Y0027784D01*
X0022272Y0027928D01*
X0022142Y0028075D01*
X0022016Y0028225D01*
X0021893Y0028378D01*
X0021774Y0028534D01*
X0021659Y0028694D01*
X0021548Y0028855D01*
X0021441Y0029020D01*
X0021338Y0029187D01*
X0021239Y0029357D01*
X0021145Y0029529D01*
X0021054Y0029703D01*
X0020968Y0029880D01*
X0020886Y0030058D01*
X0020809Y0030239D01*
X0020736Y0030421D01*
X0020668Y0030605D01*
X0020604Y0030791D01*
X0020544Y0030978D01*
X0020490Y0031166D01*
X0020440Y0031356D01*
X0020394Y0031547D01*
X0020354Y0031739D01*
X0020318Y0031932D01*
X0020287Y0032126D01*
X0020260Y0032321D01*
X0020239Y0032516D01*
X0020222Y0032711D01*
X0020210Y0032907D01*
X0020202Y0033104D01*
X0020200Y0033300D01*
X0270200Y0033300D02*
X0270202Y0033496D01*
X0270210Y0033693D01*
X0270222Y0033889D01*
X0270239Y0034084D01*
X0270260Y0034279D01*
X0270287Y0034474D01*
X0270318Y0034668D01*
X0270354Y0034861D01*
X0270394Y0035053D01*
X0270440Y0035244D01*
X0270490Y0035434D01*
X0270544Y0035622D01*
X0270604Y0035809D01*
X0270668Y0035995D01*
X0270736Y0036179D01*
X0270809Y0036361D01*
X0270886Y0036542D01*
X0270968Y0036720D01*
X0271054Y0036897D01*
X0271145Y0037071D01*
X0271239Y0037243D01*
X0271338Y0037413D01*
X0271441Y0037580D01*
X0271548Y0037745D01*
X0271659Y0037906D01*
X0271774Y0038066D01*
X0271893Y0038222D01*
X0272016Y0038375D01*
X0272142Y0038525D01*
X0272272Y0038672D01*
X0272406Y0038816D01*
X0272543Y0038957D01*
X0272684Y0039094D01*
X0272828Y0039228D01*
X0272975Y0039358D01*
X0273125Y0039484D01*
X0273278Y0039607D01*
X0273434Y0039726D01*
X0273594Y0039841D01*
X0273755Y0039952D01*
X0273920Y0040059D01*
X0274087Y0040162D01*
X0274257Y0040261D01*
X0274429Y0040355D01*
X0274603Y0040446D01*
X0274780Y0040532D01*
X0274958Y0040614D01*
X0275139Y0040691D01*
X0275321Y0040764D01*
X0275505Y0040832D01*
X0275691Y0040896D01*
X0275878Y0040956D01*
X0276066Y0041010D01*
X0276256Y0041060D01*
X0276447Y0041106D01*
X0276639Y0041146D01*
X0276832Y0041182D01*
X0277026Y0041213D01*
X0277221Y0041240D01*
X0277416Y0041261D01*
X0277611Y0041278D01*
X0277807Y0041290D01*
X0278004Y0041298D01*
X0278200Y0041300D01*
X0278396Y0041298D01*
X0278593Y0041290D01*
X0278789Y0041278D01*
X0278984Y0041261D01*
X0279179Y0041240D01*
X0279374Y0041213D01*
X0279568Y0041182D01*
X0279761Y0041146D01*
X0279953Y0041106D01*
X0280144Y0041060D01*
X0280334Y0041010D01*
X0280522Y0040956D01*
X0280709Y0040896D01*
X0280895Y0040832D01*
X0281079Y0040764D01*
X0281261Y0040691D01*
X0281442Y0040614D01*
X0281620Y0040532D01*
X0281797Y0040446D01*
X0281971Y0040355D01*
X0282143Y0040261D01*
X0282313Y0040162D01*
X0282480Y0040059D01*
X0282645Y0039952D01*
X0282806Y0039841D01*
X0282966Y0039726D01*
X0283122Y0039607D01*
X0283275Y0039484D01*
X0283425Y0039358D01*
X0283572Y0039228D01*
X0283716Y0039094D01*
X0283857Y0038957D01*
X0283994Y0038816D01*
X0284128Y0038672D01*
X0284258Y0038525D01*
X0284384Y0038375D01*
X0284507Y0038222D01*
X0284626Y0038066D01*
X0284741Y0037906D01*
X0284852Y0037745D01*
X0284959Y0037580D01*
X0285062Y0037413D01*
X0285161Y0037243D01*
X0285255Y0037071D01*
X0285346Y0036897D01*
X0285432Y0036720D01*
X0285514Y0036542D01*
X0285591Y0036361D01*
X0285664Y0036179D01*
X0285732Y0035995D01*
X0285796Y0035809D01*
X0285856Y0035622D01*
X0285910Y0035434D01*
X0285960Y0035244D01*
X0286006Y0035053D01*
X0286046Y0034861D01*
X0286082Y0034668D01*
X0286113Y0034474D01*
X0286140Y0034279D01*
X0286161Y0034084D01*
X0286178Y0033889D01*
X0286190Y0033693D01*
X0286198Y0033496D01*
X0286200Y0033300D01*
X0286198Y0033104D01*
X0286190Y0032907D01*
X0286178Y0032711D01*
X0286161Y0032516D01*
X0286140Y0032321D01*
X0286113Y0032126D01*
X0286082Y0031932D01*
X0286046Y0031739D01*
X0286006Y0031547D01*
X0285960Y0031356D01*
X0285910Y0031166D01*
X0285856Y0030978D01*
X0285796Y0030791D01*
X0285732Y0030605D01*
X0285664Y0030421D01*
X0285591Y0030239D01*
X0285514Y0030058D01*
X0285432Y0029880D01*
X0285346Y0029703D01*
X0285255Y0029529D01*
X0285161Y0029357D01*
X0285062Y0029187D01*
X0284959Y0029020D01*
X0284852Y0028855D01*
X0284741Y0028694D01*
X0284626Y0028534D01*
X0284507Y0028378D01*
X0284384Y0028225D01*
X0284258Y0028075D01*
X0284128Y0027928D01*
X0283994Y0027784D01*
X0283857Y0027643D01*
X0283716Y0027506D01*
X0283572Y0027372D01*
X0283425Y0027242D01*
X0283275Y0027116D01*
X0283122Y0026993D01*
X0282966Y0026874D01*
X0282806Y0026759D01*
X0282645Y0026648D01*
X0282480Y0026541D01*
X0282313Y0026438D01*
X0282143Y0026339D01*
X0281971Y0026245D01*
X0281797Y0026154D01*
X0281620Y0026068D01*
X0281442Y0025986D01*
X0281261Y0025909D01*
X0281079Y0025836D01*
X0280895Y0025768D01*
X0280709Y0025704D01*
X0280522Y0025644D01*
X0280334Y0025590D01*
X0280144Y0025540D01*
X0279953Y0025494D01*
X0279761Y0025454D01*
X0279568Y0025418D01*
X0279374Y0025387D01*
X0279179Y0025360D01*
X0278984Y0025339D01*
X0278789Y0025322D01*
X0278593Y0025310D01*
X0278396Y0025302D01*
X0278200Y0025300D01*
X0278004Y0025302D01*
X0277807Y0025310D01*
X0277611Y0025322D01*
X0277416Y0025339D01*
X0277221Y0025360D01*
X0277026Y0025387D01*
X0276832Y0025418D01*
X0276639Y0025454D01*
X0276447Y0025494D01*
X0276256Y0025540D01*
X0276066Y0025590D01*
X0275878Y0025644D01*
X0275691Y0025704D01*
X0275505Y0025768D01*
X0275321Y0025836D01*
X0275139Y0025909D01*
X0274958Y0025986D01*
X0274780Y0026068D01*
X0274603Y0026154D01*
X0274429Y0026245D01*
X0274257Y0026339D01*
X0274087Y0026438D01*
X0273920Y0026541D01*
X0273755Y0026648D01*
X0273594Y0026759D01*
X0273434Y0026874D01*
X0273278Y0026993D01*
X0273125Y0027116D01*
X0272975Y0027242D01*
X0272828Y0027372D01*
X0272684Y0027506D01*
X0272543Y0027643D01*
X0272406Y0027784D01*
X0272272Y0027928D01*
X0272142Y0028075D01*
X0272016Y0028225D01*
X0271893Y0028378D01*
X0271774Y0028534D01*
X0271659Y0028694D01*
X0271548Y0028855D01*
X0271441Y0029020D01*
X0271338Y0029187D01*
X0271239Y0029357D01*
X0271145Y0029529D01*
X0271054Y0029703D01*
X0270968Y0029880D01*
X0270886Y0030058D01*
X0270809Y0030239D01*
X0270736Y0030421D01*
X0270668Y0030605D01*
X0270604Y0030791D01*
X0270544Y0030978D01*
X0270490Y0031166D01*
X0270440Y0031356D01*
X0270394Y0031547D01*
X0270354Y0031739D01*
X0270318Y0031932D01*
X0270287Y0032126D01*
X0270260Y0032321D01*
X0270239Y0032516D01*
X0270222Y0032711D01*
X0270210Y0032907D01*
X0270202Y0033104D01*
X0270200Y0033300D01*
X0320200Y0058300D02*
X0320202Y0058496D01*
X0320210Y0058693D01*
X0320222Y0058889D01*
X0320239Y0059084D01*
X0320260Y0059279D01*
X0320287Y0059474D01*
X0320318Y0059668D01*
X0320354Y0059861D01*
X0320394Y0060053D01*
X0320440Y0060244D01*
X0320490Y0060434D01*
X0320544Y0060622D01*
X0320604Y0060809D01*
X0320668Y0060995D01*
X0320736Y0061179D01*
X0320809Y0061361D01*
X0320886Y0061542D01*
X0320968Y0061720D01*
X0321054Y0061897D01*
X0321145Y0062071D01*
X0321239Y0062243D01*
X0321338Y0062413D01*
X0321441Y0062580D01*
X0321548Y0062745D01*
X0321659Y0062906D01*
X0321774Y0063066D01*
X0321893Y0063222D01*
X0322016Y0063375D01*
X0322142Y0063525D01*
X0322272Y0063672D01*
X0322406Y0063816D01*
X0322543Y0063957D01*
X0322684Y0064094D01*
X0322828Y0064228D01*
X0322975Y0064358D01*
X0323125Y0064484D01*
X0323278Y0064607D01*
X0323434Y0064726D01*
X0323594Y0064841D01*
X0323755Y0064952D01*
X0323920Y0065059D01*
X0324087Y0065162D01*
X0324257Y0065261D01*
X0324429Y0065355D01*
X0324603Y0065446D01*
X0324780Y0065532D01*
X0324958Y0065614D01*
X0325139Y0065691D01*
X0325321Y0065764D01*
X0325505Y0065832D01*
X0325691Y0065896D01*
X0325878Y0065956D01*
X0326066Y0066010D01*
X0326256Y0066060D01*
X0326447Y0066106D01*
X0326639Y0066146D01*
X0326832Y0066182D01*
X0327026Y0066213D01*
X0327221Y0066240D01*
X0327416Y0066261D01*
X0327611Y0066278D01*
X0327807Y0066290D01*
X0328004Y0066298D01*
X0328200Y0066300D01*
X0328396Y0066298D01*
X0328593Y0066290D01*
X0328789Y0066278D01*
X0328984Y0066261D01*
X0329179Y0066240D01*
X0329374Y0066213D01*
X0329568Y0066182D01*
X0329761Y0066146D01*
X0329953Y0066106D01*
X0330144Y0066060D01*
X0330334Y0066010D01*
X0330522Y0065956D01*
X0330709Y0065896D01*
X0330895Y0065832D01*
X0331079Y0065764D01*
X0331261Y0065691D01*
X0331442Y0065614D01*
X0331620Y0065532D01*
X0331797Y0065446D01*
X0331971Y0065355D01*
X0332143Y0065261D01*
X0332313Y0065162D01*
X0332480Y0065059D01*
X0332645Y0064952D01*
X0332806Y0064841D01*
X0332966Y0064726D01*
X0333122Y0064607D01*
X0333275Y0064484D01*
X0333425Y0064358D01*
X0333572Y0064228D01*
X0333716Y0064094D01*
X0333857Y0063957D01*
X0333994Y0063816D01*
X0334128Y0063672D01*
X0334258Y0063525D01*
X0334384Y0063375D01*
X0334507Y0063222D01*
X0334626Y0063066D01*
X0334741Y0062906D01*
X0334852Y0062745D01*
X0334959Y0062580D01*
X0335062Y0062413D01*
X0335161Y0062243D01*
X0335255Y0062071D01*
X0335346Y0061897D01*
X0335432Y0061720D01*
X0335514Y0061542D01*
X0335591Y0061361D01*
X0335664Y0061179D01*
X0335732Y0060995D01*
X0335796Y0060809D01*
X0335856Y0060622D01*
X0335910Y0060434D01*
X0335960Y0060244D01*
X0336006Y0060053D01*
X0336046Y0059861D01*
X0336082Y0059668D01*
X0336113Y0059474D01*
X0336140Y0059279D01*
X0336161Y0059084D01*
X0336178Y0058889D01*
X0336190Y0058693D01*
X0336198Y0058496D01*
X0336200Y0058300D01*
X0336198Y0058104D01*
X0336190Y0057907D01*
X0336178Y0057711D01*
X0336161Y0057516D01*
X0336140Y0057321D01*
X0336113Y0057126D01*
X0336082Y0056932D01*
X0336046Y0056739D01*
X0336006Y0056547D01*
X0335960Y0056356D01*
X0335910Y0056166D01*
X0335856Y0055978D01*
X0335796Y0055791D01*
X0335732Y0055605D01*
X0335664Y0055421D01*
X0335591Y0055239D01*
X0335514Y0055058D01*
X0335432Y0054880D01*
X0335346Y0054703D01*
X0335255Y0054529D01*
X0335161Y0054357D01*
X0335062Y0054187D01*
X0334959Y0054020D01*
X0334852Y0053855D01*
X0334741Y0053694D01*
X0334626Y0053534D01*
X0334507Y0053378D01*
X0334384Y0053225D01*
X0334258Y0053075D01*
X0334128Y0052928D01*
X0333994Y0052784D01*
X0333857Y0052643D01*
X0333716Y0052506D01*
X0333572Y0052372D01*
X0333425Y0052242D01*
X0333275Y0052116D01*
X0333122Y0051993D01*
X0332966Y0051874D01*
X0332806Y0051759D01*
X0332645Y0051648D01*
X0332480Y0051541D01*
X0332313Y0051438D01*
X0332143Y0051339D01*
X0331971Y0051245D01*
X0331797Y0051154D01*
X0331620Y0051068D01*
X0331442Y0050986D01*
X0331261Y0050909D01*
X0331079Y0050836D01*
X0330895Y0050768D01*
X0330709Y0050704D01*
X0330522Y0050644D01*
X0330334Y0050590D01*
X0330144Y0050540D01*
X0329953Y0050494D01*
X0329761Y0050454D01*
X0329568Y0050418D01*
X0329374Y0050387D01*
X0329179Y0050360D01*
X0328984Y0050339D01*
X0328789Y0050322D01*
X0328593Y0050310D01*
X0328396Y0050302D01*
X0328200Y0050300D01*
X0328004Y0050302D01*
X0327807Y0050310D01*
X0327611Y0050322D01*
X0327416Y0050339D01*
X0327221Y0050360D01*
X0327026Y0050387D01*
X0326832Y0050418D01*
X0326639Y0050454D01*
X0326447Y0050494D01*
X0326256Y0050540D01*
X0326066Y0050590D01*
X0325878Y0050644D01*
X0325691Y0050704D01*
X0325505Y0050768D01*
X0325321Y0050836D01*
X0325139Y0050909D01*
X0324958Y0050986D01*
X0324780Y0051068D01*
X0324603Y0051154D01*
X0324429Y0051245D01*
X0324257Y0051339D01*
X0324087Y0051438D01*
X0323920Y0051541D01*
X0323755Y0051648D01*
X0323594Y0051759D01*
X0323434Y0051874D01*
X0323278Y0051993D01*
X0323125Y0052116D01*
X0322975Y0052242D01*
X0322828Y0052372D01*
X0322684Y0052506D01*
X0322543Y0052643D01*
X0322406Y0052784D01*
X0322272Y0052928D01*
X0322142Y0053075D01*
X0322016Y0053225D01*
X0321893Y0053378D01*
X0321774Y0053534D01*
X0321659Y0053694D01*
X0321548Y0053855D01*
X0321441Y0054020D01*
X0321338Y0054187D01*
X0321239Y0054357D01*
X0321145Y0054529D01*
X0321054Y0054703D01*
X0320968Y0054880D01*
X0320886Y0055058D01*
X0320809Y0055239D01*
X0320736Y0055421D01*
X0320668Y0055605D01*
X0320604Y0055791D01*
X0320544Y0055978D01*
X0320490Y0056166D01*
X0320440Y0056356D01*
X0320394Y0056547D01*
X0320354Y0056739D01*
X0320318Y0056932D01*
X0320287Y0057126D01*
X0320260Y0057321D01*
X0320239Y0057516D01*
X0320222Y0057711D01*
X0320210Y0057907D01*
X0320202Y0058104D01*
X0320200Y0058300D01*
X0370200Y0058300D02*
X0370202Y0058496D01*
X0370210Y0058693D01*
X0370222Y0058889D01*
X0370239Y0059084D01*
X0370260Y0059279D01*
X0370287Y0059474D01*
X0370318Y0059668D01*
X0370354Y0059861D01*
X0370394Y0060053D01*
X0370440Y0060244D01*
X0370490Y0060434D01*
X0370544Y0060622D01*
X0370604Y0060809D01*
X0370668Y0060995D01*
X0370736Y0061179D01*
X0370809Y0061361D01*
X0370886Y0061542D01*
X0370968Y0061720D01*
X0371054Y0061897D01*
X0371145Y0062071D01*
X0371239Y0062243D01*
X0371338Y0062413D01*
X0371441Y0062580D01*
X0371548Y0062745D01*
X0371659Y0062906D01*
X0371774Y0063066D01*
X0371893Y0063222D01*
X0372016Y0063375D01*
X0372142Y0063525D01*
X0372272Y0063672D01*
X0372406Y0063816D01*
X0372543Y0063957D01*
X0372684Y0064094D01*
X0372828Y0064228D01*
X0372975Y0064358D01*
X0373125Y0064484D01*
X0373278Y0064607D01*
X0373434Y0064726D01*
X0373594Y0064841D01*
X0373755Y0064952D01*
X0373920Y0065059D01*
X0374087Y0065162D01*
X0374257Y0065261D01*
X0374429Y0065355D01*
X0374603Y0065446D01*
X0374780Y0065532D01*
X0374958Y0065614D01*
X0375139Y0065691D01*
X0375321Y0065764D01*
X0375505Y0065832D01*
X0375691Y0065896D01*
X0375878Y0065956D01*
X0376066Y0066010D01*
X0376256Y0066060D01*
X0376447Y0066106D01*
X0376639Y0066146D01*
X0376832Y0066182D01*
X0377026Y0066213D01*
X0377221Y0066240D01*
X0377416Y0066261D01*
X0377611Y0066278D01*
X0377807Y0066290D01*
X0378004Y0066298D01*
X0378200Y0066300D01*
X0378396Y0066298D01*
X0378593Y0066290D01*
X0378789Y0066278D01*
X0378984Y0066261D01*
X0379179Y0066240D01*
X0379374Y0066213D01*
X0379568Y0066182D01*
X0379761Y0066146D01*
X0379953Y0066106D01*
X0380144Y0066060D01*
X0380334Y0066010D01*
X0380522Y0065956D01*
X0380709Y0065896D01*
X0380895Y0065832D01*
X0381079Y0065764D01*
X0381261Y0065691D01*
X0381442Y0065614D01*
X0381620Y0065532D01*
X0381797Y0065446D01*
X0381971Y0065355D01*
X0382143Y0065261D01*
X0382313Y0065162D01*
X0382480Y0065059D01*
X0382645Y0064952D01*
X0382806Y0064841D01*
X0382966Y0064726D01*
X0383122Y0064607D01*
X0383275Y0064484D01*
X0383425Y0064358D01*
X0383572Y0064228D01*
X0383716Y0064094D01*
X0383857Y0063957D01*
X0383994Y0063816D01*
X0384128Y0063672D01*
X0384258Y0063525D01*
X0384384Y0063375D01*
X0384507Y0063222D01*
X0384626Y0063066D01*
X0384741Y0062906D01*
X0384852Y0062745D01*
X0384959Y0062580D01*
X0385062Y0062413D01*
X0385161Y0062243D01*
X0385255Y0062071D01*
X0385346Y0061897D01*
X0385432Y0061720D01*
X0385514Y0061542D01*
X0385591Y0061361D01*
X0385664Y0061179D01*
X0385732Y0060995D01*
X0385796Y0060809D01*
X0385856Y0060622D01*
X0385910Y0060434D01*
X0385960Y0060244D01*
X0386006Y0060053D01*
X0386046Y0059861D01*
X0386082Y0059668D01*
X0386113Y0059474D01*
X0386140Y0059279D01*
X0386161Y0059084D01*
X0386178Y0058889D01*
X0386190Y0058693D01*
X0386198Y0058496D01*
X0386200Y0058300D01*
X0386198Y0058104D01*
X0386190Y0057907D01*
X0386178Y0057711D01*
X0386161Y0057516D01*
X0386140Y0057321D01*
X0386113Y0057126D01*
X0386082Y0056932D01*
X0386046Y0056739D01*
X0386006Y0056547D01*
X0385960Y0056356D01*
X0385910Y0056166D01*
X0385856Y0055978D01*
X0385796Y0055791D01*
X0385732Y0055605D01*
X0385664Y0055421D01*
X0385591Y0055239D01*
X0385514Y0055058D01*
X0385432Y0054880D01*
X0385346Y0054703D01*
X0385255Y0054529D01*
X0385161Y0054357D01*
X0385062Y0054187D01*
X0384959Y0054020D01*
X0384852Y0053855D01*
X0384741Y0053694D01*
X0384626Y0053534D01*
X0384507Y0053378D01*
X0384384Y0053225D01*
X0384258Y0053075D01*
X0384128Y0052928D01*
X0383994Y0052784D01*
X0383857Y0052643D01*
X0383716Y0052506D01*
X0383572Y0052372D01*
X0383425Y0052242D01*
X0383275Y0052116D01*
X0383122Y0051993D01*
X0382966Y0051874D01*
X0382806Y0051759D01*
X0382645Y0051648D01*
X0382480Y0051541D01*
X0382313Y0051438D01*
X0382143Y0051339D01*
X0381971Y0051245D01*
X0381797Y0051154D01*
X0381620Y0051068D01*
X0381442Y0050986D01*
X0381261Y0050909D01*
X0381079Y0050836D01*
X0380895Y0050768D01*
X0380709Y0050704D01*
X0380522Y0050644D01*
X0380334Y0050590D01*
X0380144Y0050540D01*
X0379953Y0050494D01*
X0379761Y0050454D01*
X0379568Y0050418D01*
X0379374Y0050387D01*
X0379179Y0050360D01*
X0378984Y0050339D01*
X0378789Y0050322D01*
X0378593Y0050310D01*
X0378396Y0050302D01*
X0378200Y0050300D01*
X0378004Y0050302D01*
X0377807Y0050310D01*
X0377611Y0050322D01*
X0377416Y0050339D01*
X0377221Y0050360D01*
X0377026Y0050387D01*
X0376832Y0050418D01*
X0376639Y0050454D01*
X0376447Y0050494D01*
X0376256Y0050540D01*
X0376066Y0050590D01*
X0375878Y0050644D01*
X0375691Y0050704D01*
X0375505Y0050768D01*
X0375321Y0050836D01*
X0375139Y0050909D01*
X0374958Y0050986D01*
X0374780Y0051068D01*
X0374603Y0051154D01*
X0374429Y0051245D01*
X0374257Y0051339D01*
X0374087Y0051438D01*
X0373920Y0051541D01*
X0373755Y0051648D01*
X0373594Y0051759D01*
X0373434Y0051874D01*
X0373278Y0051993D01*
X0373125Y0052116D01*
X0372975Y0052242D01*
X0372828Y0052372D01*
X0372684Y0052506D01*
X0372543Y0052643D01*
X0372406Y0052784D01*
X0372272Y0052928D01*
X0372142Y0053075D01*
X0372016Y0053225D01*
X0371893Y0053378D01*
X0371774Y0053534D01*
X0371659Y0053694D01*
X0371548Y0053855D01*
X0371441Y0054020D01*
X0371338Y0054187D01*
X0371239Y0054357D01*
X0371145Y0054529D01*
X0371054Y0054703D01*
X0370968Y0054880D01*
X0370886Y0055058D01*
X0370809Y0055239D01*
X0370736Y0055421D01*
X0370668Y0055605D01*
X0370604Y0055791D01*
X0370544Y0055978D01*
X0370490Y0056166D01*
X0370440Y0056356D01*
X0370394Y0056547D01*
X0370354Y0056739D01*
X0370318Y0056932D01*
X0370287Y0057126D01*
X0370260Y0057321D01*
X0370239Y0057516D01*
X0370222Y0057711D01*
X0370210Y0057907D01*
X0370202Y0058104D01*
X0370200Y0058300D01*
X0370200Y0148300D02*
X0370202Y0148496D01*
X0370210Y0148693D01*
X0370222Y0148889D01*
X0370239Y0149084D01*
X0370260Y0149279D01*
X0370287Y0149474D01*
X0370318Y0149668D01*
X0370354Y0149861D01*
X0370394Y0150053D01*
X0370440Y0150244D01*
X0370490Y0150434D01*
X0370544Y0150622D01*
X0370604Y0150809D01*
X0370668Y0150995D01*
X0370736Y0151179D01*
X0370809Y0151361D01*
X0370886Y0151542D01*
X0370968Y0151720D01*
X0371054Y0151897D01*
X0371145Y0152071D01*
X0371239Y0152243D01*
X0371338Y0152413D01*
X0371441Y0152580D01*
X0371548Y0152745D01*
X0371659Y0152906D01*
X0371774Y0153066D01*
X0371893Y0153222D01*
X0372016Y0153375D01*
X0372142Y0153525D01*
X0372272Y0153672D01*
X0372406Y0153816D01*
X0372543Y0153957D01*
X0372684Y0154094D01*
X0372828Y0154228D01*
X0372975Y0154358D01*
X0373125Y0154484D01*
X0373278Y0154607D01*
X0373434Y0154726D01*
X0373594Y0154841D01*
X0373755Y0154952D01*
X0373920Y0155059D01*
X0374087Y0155162D01*
X0374257Y0155261D01*
X0374429Y0155355D01*
X0374603Y0155446D01*
X0374780Y0155532D01*
X0374958Y0155614D01*
X0375139Y0155691D01*
X0375321Y0155764D01*
X0375505Y0155832D01*
X0375691Y0155896D01*
X0375878Y0155956D01*
X0376066Y0156010D01*
X0376256Y0156060D01*
X0376447Y0156106D01*
X0376639Y0156146D01*
X0376832Y0156182D01*
X0377026Y0156213D01*
X0377221Y0156240D01*
X0377416Y0156261D01*
X0377611Y0156278D01*
X0377807Y0156290D01*
X0378004Y0156298D01*
X0378200Y0156300D01*
X0378396Y0156298D01*
X0378593Y0156290D01*
X0378789Y0156278D01*
X0378984Y0156261D01*
X0379179Y0156240D01*
X0379374Y0156213D01*
X0379568Y0156182D01*
X0379761Y0156146D01*
X0379953Y0156106D01*
X0380144Y0156060D01*
X0380334Y0156010D01*
X0380522Y0155956D01*
X0380709Y0155896D01*
X0380895Y0155832D01*
X0381079Y0155764D01*
X0381261Y0155691D01*
X0381442Y0155614D01*
X0381620Y0155532D01*
X0381797Y0155446D01*
X0381971Y0155355D01*
X0382143Y0155261D01*
X0382313Y0155162D01*
X0382480Y0155059D01*
X0382645Y0154952D01*
X0382806Y0154841D01*
X0382966Y0154726D01*
X0383122Y0154607D01*
X0383275Y0154484D01*
X0383425Y0154358D01*
X0383572Y0154228D01*
X0383716Y0154094D01*
X0383857Y0153957D01*
X0383994Y0153816D01*
X0384128Y0153672D01*
X0384258Y0153525D01*
X0384384Y0153375D01*
X0384507Y0153222D01*
X0384626Y0153066D01*
X0384741Y0152906D01*
X0384852Y0152745D01*
X0384959Y0152580D01*
X0385062Y0152413D01*
X0385161Y0152243D01*
X0385255Y0152071D01*
X0385346Y0151897D01*
X0385432Y0151720D01*
X0385514Y0151542D01*
X0385591Y0151361D01*
X0385664Y0151179D01*
X0385732Y0150995D01*
X0385796Y0150809D01*
X0385856Y0150622D01*
X0385910Y0150434D01*
X0385960Y0150244D01*
X0386006Y0150053D01*
X0386046Y0149861D01*
X0386082Y0149668D01*
X0386113Y0149474D01*
X0386140Y0149279D01*
X0386161Y0149084D01*
X0386178Y0148889D01*
X0386190Y0148693D01*
X0386198Y0148496D01*
X0386200Y0148300D01*
X0386198Y0148104D01*
X0386190Y0147907D01*
X0386178Y0147711D01*
X0386161Y0147516D01*
X0386140Y0147321D01*
X0386113Y0147126D01*
X0386082Y0146932D01*
X0386046Y0146739D01*
X0386006Y0146547D01*
X0385960Y0146356D01*
X0385910Y0146166D01*
X0385856Y0145978D01*
X0385796Y0145791D01*
X0385732Y0145605D01*
X0385664Y0145421D01*
X0385591Y0145239D01*
X0385514Y0145058D01*
X0385432Y0144880D01*
X0385346Y0144703D01*
X0385255Y0144529D01*
X0385161Y0144357D01*
X0385062Y0144187D01*
X0384959Y0144020D01*
X0384852Y0143855D01*
X0384741Y0143694D01*
X0384626Y0143534D01*
X0384507Y0143378D01*
X0384384Y0143225D01*
X0384258Y0143075D01*
X0384128Y0142928D01*
X0383994Y0142784D01*
X0383857Y0142643D01*
X0383716Y0142506D01*
X0383572Y0142372D01*
X0383425Y0142242D01*
X0383275Y0142116D01*
X0383122Y0141993D01*
X0382966Y0141874D01*
X0382806Y0141759D01*
X0382645Y0141648D01*
X0382480Y0141541D01*
X0382313Y0141438D01*
X0382143Y0141339D01*
X0381971Y0141245D01*
X0381797Y0141154D01*
X0381620Y0141068D01*
X0381442Y0140986D01*
X0381261Y0140909D01*
X0381079Y0140836D01*
X0380895Y0140768D01*
X0380709Y0140704D01*
X0380522Y0140644D01*
X0380334Y0140590D01*
X0380144Y0140540D01*
X0379953Y0140494D01*
X0379761Y0140454D01*
X0379568Y0140418D01*
X0379374Y0140387D01*
X0379179Y0140360D01*
X0378984Y0140339D01*
X0378789Y0140322D01*
X0378593Y0140310D01*
X0378396Y0140302D01*
X0378200Y0140300D01*
X0378004Y0140302D01*
X0377807Y0140310D01*
X0377611Y0140322D01*
X0377416Y0140339D01*
X0377221Y0140360D01*
X0377026Y0140387D01*
X0376832Y0140418D01*
X0376639Y0140454D01*
X0376447Y0140494D01*
X0376256Y0140540D01*
X0376066Y0140590D01*
X0375878Y0140644D01*
X0375691Y0140704D01*
X0375505Y0140768D01*
X0375321Y0140836D01*
X0375139Y0140909D01*
X0374958Y0140986D01*
X0374780Y0141068D01*
X0374603Y0141154D01*
X0374429Y0141245D01*
X0374257Y0141339D01*
X0374087Y0141438D01*
X0373920Y0141541D01*
X0373755Y0141648D01*
X0373594Y0141759D01*
X0373434Y0141874D01*
X0373278Y0141993D01*
X0373125Y0142116D01*
X0372975Y0142242D01*
X0372828Y0142372D01*
X0372684Y0142506D01*
X0372543Y0142643D01*
X0372406Y0142784D01*
X0372272Y0142928D01*
X0372142Y0143075D01*
X0372016Y0143225D01*
X0371893Y0143378D01*
X0371774Y0143534D01*
X0371659Y0143694D01*
X0371548Y0143855D01*
X0371441Y0144020D01*
X0371338Y0144187D01*
X0371239Y0144357D01*
X0371145Y0144529D01*
X0371054Y0144703D01*
X0370968Y0144880D01*
X0370886Y0145058D01*
X0370809Y0145239D01*
X0370736Y0145421D01*
X0370668Y0145605D01*
X0370604Y0145791D01*
X0370544Y0145978D01*
X0370490Y0146166D01*
X0370440Y0146356D01*
X0370394Y0146547D01*
X0370354Y0146739D01*
X0370318Y0146932D01*
X0370287Y0147126D01*
X0370260Y0147321D01*
X0370239Y0147516D01*
X0370222Y0147711D01*
X0370210Y0147907D01*
X0370202Y0148104D01*
X0370200Y0148300D01*
X0320200Y0148300D02*
X0320202Y0148496D01*
X0320210Y0148693D01*
X0320222Y0148889D01*
X0320239Y0149084D01*
X0320260Y0149279D01*
X0320287Y0149474D01*
X0320318Y0149668D01*
X0320354Y0149861D01*
X0320394Y0150053D01*
X0320440Y0150244D01*
X0320490Y0150434D01*
X0320544Y0150622D01*
X0320604Y0150809D01*
X0320668Y0150995D01*
X0320736Y0151179D01*
X0320809Y0151361D01*
X0320886Y0151542D01*
X0320968Y0151720D01*
X0321054Y0151897D01*
X0321145Y0152071D01*
X0321239Y0152243D01*
X0321338Y0152413D01*
X0321441Y0152580D01*
X0321548Y0152745D01*
X0321659Y0152906D01*
X0321774Y0153066D01*
X0321893Y0153222D01*
X0322016Y0153375D01*
X0322142Y0153525D01*
X0322272Y0153672D01*
X0322406Y0153816D01*
X0322543Y0153957D01*
X0322684Y0154094D01*
X0322828Y0154228D01*
X0322975Y0154358D01*
X0323125Y0154484D01*
X0323278Y0154607D01*
X0323434Y0154726D01*
X0323594Y0154841D01*
X0323755Y0154952D01*
X0323920Y0155059D01*
X0324087Y0155162D01*
X0324257Y0155261D01*
X0324429Y0155355D01*
X0324603Y0155446D01*
X0324780Y0155532D01*
X0324958Y0155614D01*
X0325139Y0155691D01*
X0325321Y0155764D01*
X0325505Y0155832D01*
X0325691Y0155896D01*
X0325878Y0155956D01*
X0326066Y0156010D01*
X0326256Y0156060D01*
X0326447Y0156106D01*
X0326639Y0156146D01*
X0326832Y0156182D01*
X0327026Y0156213D01*
X0327221Y0156240D01*
X0327416Y0156261D01*
X0327611Y0156278D01*
X0327807Y0156290D01*
X0328004Y0156298D01*
X0328200Y0156300D01*
X0328396Y0156298D01*
X0328593Y0156290D01*
X0328789Y0156278D01*
X0328984Y0156261D01*
X0329179Y0156240D01*
X0329374Y0156213D01*
X0329568Y0156182D01*
X0329761Y0156146D01*
X0329953Y0156106D01*
X0330144Y0156060D01*
X0330334Y0156010D01*
X0330522Y0155956D01*
X0330709Y0155896D01*
X0330895Y0155832D01*
X0331079Y0155764D01*
X0331261Y0155691D01*
X0331442Y0155614D01*
X0331620Y0155532D01*
X0331797Y0155446D01*
X0331971Y0155355D01*
X0332143Y0155261D01*
X0332313Y0155162D01*
X0332480Y0155059D01*
X0332645Y0154952D01*
X0332806Y0154841D01*
X0332966Y0154726D01*
X0333122Y0154607D01*
X0333275Y0154484D01*
X0333425Y0154358D01*
X0333572Y0154228D01*
X0333716Y0154094D01*
X0333857Y0153957D01*
X0333994Y0153816D01*
X0334128Y0153672D01*
X0334258Y0153525D01*
X0334384Y0153375D01*
X0334507Y0153222D01*
X0334626Y0153066D01*
X0334741Y0152906D01*
X0334852Y0152745D01*
X0334959Y0152580D01*
X0335062Y0152413D01*
X0335161Y0152243D01*
X0335255Y0152071D01*
X0335346Y0151897D01*
X0335432Y0151720D01*
X0335514Y0151542D01*
X0335591Y0151361D01*
X0335664Y0151179D01*
X0335732Y0150995D01*
X0335796Y0150809D01*
X0335856Y0150622D01*
X0335910Y0150434D01*
X0335960Y0150244D01*
X0336006Y0150053D01*
X0336046Y0149861D01*
X0336082Y0149668D01*
X0336113Y0149474D01*
X0336140Y0149279D01*
X0336161Y0149084D01*
X0336178Y0148889D01*
X0336190Y0148693D01*
X0336198Y0148496D01*
X0336200Y0148300D01*
X0336198Y0148104D01*
X0336190Y0147907D01*
X0336178Y0147711D01*
X0336161Y0147516D01*
X0336140Y0147321D01*
X0336113Y0147126D01*
X0336082Y0146932D01*
X0336046Y0146739D01*
X0336006Y0146547D01*
X0335960Y0146356D01*
X0335910Y0146166D01*
X0335856Y0145978D01*
X0335796Y0145791D01*
X0335732Y0145605D01*
X0335664Y0145421D01*
X0335591Y0145239D01*
X0335514Y0145058D01*
X0335432Y0144880D01*
X0335346Y0144703D01*
X0335255Y0144529D01*
X0335161Y0144357D01*
X0335062Y0144187D01*
X0334959Y0144020D01*
X0334852Y0143855D01*
X0334741Y0143694D01*
X0334626Y0143534D01*
X0334507Y0143378D01*
X0334384Y0143225D01*
X0334258Y0143075D01*
X0334128Y0142928D01*
X0333994Y0142784D01*
X0333857Y0142643D01*
X0333716Y0142506D01*
X0333572Y0142372D01*
X0333425Y0142242D01*
X0333275Y0142116D01*
X0333122Y0141993D01*
X0332966Y0141874D01*
X0332806Y0141759D01*
X0332645Y0141648D01*
X0332480Y0141541D01*
X0332313Y0141438D01*
X0332143Y0141339D01*
X0331971Y0141245D01*
X0331797Y0141154D01*
X0331620Y0141068D01*
X0331442Y0140986D01*
X0331261Y0140909D01*
X0331079Y0140836D01*
X0330895Y0140768D01*
X0330709Y0140704D01*
X0330522Y0140644D01*
X0330334Y0140590D01*
X0330144Y0140540D01*
X0329953Y0140494D01*
X0329761Y0140454D01*
X0329568Y0140418D01*
X0329374Y0140387D01*
X0329179Y0140360D01*
X0328984Y0140339D01*
X0328789Y0140322D01*
X0328593Y0140310D01*
X0328396Y0140302D01*
X0328200Y0140300D01*
X0328004Y0140302D01*
X0327807Y0140310D01*
X0327611Y0140322D01*
X0327416Y0140339D01*
X0327221Y0140360D01*
X0327026Y0140387D01*
X0326832Y0140418D01*
X0326639Y0140454D01*
X0326447Y0140494D01*
X0326256Y0140540D01*
X0326066Y0140590D01*
X0325878Y0140644D01*
X0325691Y0140704D01*
X0325505Y0140768D01*
X0325321Y0140836D01*
X0325139Y0140909D01*
X0324958Y0140986D01*
X0324780Y0141068D01*
X0324603Y0141154D01*
X0324429Y0141245D01*
X0324257Y0141339D01*
X0324087Y0141438D01*
X0323920Y0141541D01*
X0323755Y0141648D01*
X0323594Y0141759D01*
X0323434Y0141874D01*
X0323278Y0141993D01*
X0323125Y0142116D01*
X0322975Y0142242D01*
X0322828Y0142372D01*
X0322684Y0142506D01*
X0322543Y0142643D01*
X0322406Y0142784D01*
X0322272Y0142928D01*
X0322142Y0143075D01*
X0322016Y0143225D01*
X0321893Y0143378D01*
X0321774Y0143534D01*
X0321659Y0143694D01*
X0321548Y0143855D01*
X0321441Y0144020D01*
X0321338Y0144187D01*
X0321239Y0144357D01*
X0321145Y0144529D01*
X0321054Y0144703D01*
X0320968Y0144880D01*
X0320886Y0145058D01*
X0320809Y0145239D01*
X0320736Y0145421D01*
X0320668Y0145605D01*
X0320604Y0145791D01*
X0320544Y0145978D01*
X0320490Y0146166D01*
X0320440Y0146356D01*
X0320394Y0146547D01*
X0320354Y0146739D01*
X0320318Y0146932D01*
X0320287Y0147126D01*
X0320260Y0147321D01*
X0320239Y0147516D01*
X0320222Y0147711D01*
X0320210Y0147907D01*
X0320202Y0148104D01*
X0320200Y0148300D01*
X0270200Y0173300D02*
X0270202Y0173496D01*
X0270210Y0173693D01*
X0270222Y0173889D01*
X0270239Y0174084D01*
X0270260Y0174279D01*
X0270287Y0174474D01*
X0270318Y0174668D01*
X0270354Y0174861D01*
X0270394Y0175053D01*
X0270440Y0175244D01*
X0270490Y0175434D01*
X0270544Y0175622D01*
X0270604Y0175809D01*
X0270668Y0175995D01*
X0270736Y0176179D01*
X0270809Y0176361D01*
X0270886Y0176542D01*
X0270968Y0176720D01*
X0271054Y0176897D01*
X0271145Y0177071D01*
X0271239Y0177243D01*
X0271338Y0177413D01*
X0271441Y0177580D01*
X0271548Y0177745D01*
X0271659Y0177906D01*
X0271774Y0178066D01*
X0271893Y0178222D01*
X0272016Y0178375D01*
X0272142Y0178525D01*
X0272272Y0178672D01*
X0272406Y0178816D01*
X0272543Y0178957D01*
X0272684Y0179094D01*
X0272828Y0179228D01*
X0272975Y0179358D01*
X0273125Y0179484D01*
X0273278Y0179607D01*
X0273434Y0179726D01*
X0273594Y0179841D01*
X0273755Y0179952D01*
X0273920Y0180059D01*
X0274087Y0180162D01*
X0274257Y0180261D01*
X0274429Y0180355D01*
X0274603Y0180446D01*
X0274780Y0180532D01*
X0274958Y0180614D01*
X0275139Y0180691D01*
X0275321Y0180764D01*
X0275505Y0180832D01*
X0275691Y0180896D01*
X0275878Y0180956D01*
X0276066Y0181010D01*
X0276256Y0181060D01*
X0276447Y0181106D01*
X0276639Y0181146D01*
X0276832Y0181182D01*
X0277026Y0181213D01*
X0277221Y0181240D01*
X0277416Y0181261D01*
X0277611Y0181278D01*
X0277807Y0181290D01*
X0278004Y0181298D01*
X0278200Y0181300D01*
X0278396Y0181298D01*
X0278593Y0181290D01*
X0278789Y0181278D01*
X0278984Y0181261D01*
X0279179Y0181240D01*
X0279374Y0181213D01*
X0279568Y0181182D01*
X0279761Y0181146D01*
X0279953Y0181106D01*
X0280144Y0181060D01*
X0280334Y0181010D01*
X0280522Y0180956D01*
X0280709Y0180896D01*
X0280895Y0180832D01*
X0281079Y0180764D01*
X0281261Y0180691D01*
X0281442Y0180614D01*
X0281620Y0180532D01*
X0281797Y0180446D01*
X0281971Y0180355D01*
X0282143Y0180261D01*
X0282313Y0180162D01*
X0282480Y0180059D01*
X0282645Y0179952D01*
X0282806Y0179841D01*
X0282966Y0179726D01*
X0283122Y0179607D01*
X0283275Y0179484D01*
X0283425Y0179358D01*
X0283572Y0179228D01*
X0283716Y0179094D01*
X0283857Y0178957D01*
X0283994Y0178816D01*
X0284128Y0178672D01*
X0284258Y0178525D01*
X0284384Y0178375D01*
X0284507Y0178222D01*
X0284626Y0178066D01*
X0284741Y0177906D01*
X0284852Y0177745D01*
X0284959Y0177580D01*
X0285062Y0177413D01*
X0285161Y0177243D01*
X0285255Y0177071D01*
X0285346Y0176897D01*
X0285432Y0176720D01*
X0285514Y0176542D01*
X0285591Y0176361D01*
X0285664Y0176179D01*
X0285732Y0175995D01*
X0285796Y0175809D01*
X0285856Y0175622D01*
X0285910Y0175434D01*
X0285960Y0175244D01*
X0286006Y0175053D01*
X0286046Y0174861D01*
X0286082Y0174668D01*
X0286113Y0174474D01*
X0286140Y0174279D01*
X0286161Y0174084D01*
X0286178Y0173889D01*
X0286190Y0173693D01*
X0286198Y0173496D01*
X0286200Y0173300D01*
X0286198Y0173104D01*
X0286190Y0172907D01*
X0286178Y0172711D01*
X0286161Y0172516D01*
X0286140Y0172321D01*
X0286113Y0172126D01*
X0286082Y0171932D01*
X0286046Y0171739D01*
X0286006Y0171547D01*
X0285960Y0171356D01*
X0285910Y0171166D01*
X0285856Y0170978D01*
X0285796Y0170791D01*
X0285732Y0170605D01*
X0285664Y0170421D01*
X0285591Y0170239D01*
X0285514Y0170058D01*
X0285432Y0169880D01*
X0285346Y0169703D01*
X0285255Y0169529D01*
X0285161Y0169357D01*
X0285062Y0169187D01*
X0284959Y0169020D01*
X0284852Y0168855D01*
X0284741Y0168694D01*
X0284626Y0168534D01*
X0284507Y0168378D01*
X0284384Y0168225D01*
X0284258Y0168075D01*
X0284128Y0167928D01*
X0283994Y0167784D01*
X0283857Y0167643D01*
X0283716Y0167506D01*
X0283572Y0167372D01*
X0283425Y0167242D01*
X0283275Y0167116D01*
X0283122Y0166993D01*
X0282966Y0166874D01*
X0282806Y0166759D01*
X0282645Y0166648D01*
X0282480Y0166541D01*
X0282313Y0166438D01*
X0282143Y0166339D01*
X0281971Y0166245D01*
X0281797Y0166154D01*
X0281620Y0166068D01*
X0281442Y0165986D01*
X0281261Y0165909D01*
X0281079Y0165836D01*
X0280895Y0165768D01*
X0280709Y0165704D01*
X0280522Y0165644D01*
X0280334Y0165590D01*
X0280144Y0165540D01*
X0279953Y0165494D01*
X0279761Y0165454D01*
X0279568Y0165418D01*
X0279374Y0165387D01*
X0279179Y0165360D01*
X0278984Y0165339D01*
X0278789Y0165322D01*
X0278593Y0165310D01*
X0278396Y0165302D01*
X0278200Y0165300D01*
X0278004Y0165302D01*
X0277807Y0165310D01*
X0277611Y0165322D01*
X0277416Y0165339D01*
X0277221Y0165360D01*
X0277026Y0165387D01*
X0276832Y0165418D01*
X0276639Y0165454D01*
X0276447Y0165494D01*
X0276256Y0165540D01*
X0276066Y0165590D01*
X0275878Y0165644D01*
X0275691Y0165704D01*
X0275505Y0165768D01*
X0275321Y0165836D01*
X0275139Y0165909D01*
X0274958Y0165986D01*
X0274780Y0166068D01*
X0274603Y0166154D01*
X0274429Y0166245D01*
X0274257Y0166339D01*
X0274087Y0166438D01*
X0273920Y0166541D01*
X0273755Y0166648D01*
X0273594Y0166759D01*
X0273434Y0166874D01*
X0273278Y0166993D01*
X0273125Y0167116D01*
X0272975Y0167242D01*
X0272828Y0167372D01*
X0272684Y0167506D01*
X0272543Y0167643D01*
X0272406Y0167784D01*
X0272272Y0167928D01*
X0272142Y0168075D01*
X0272016Y0168225D01*
X0271893Y0168378D01*
X0271774Y0168534D01*
X0271659Y0168694D01*
X0271548Y0168855D01*
X0271441Y0169020D01*
X0271338Y0169187D01*
X0271239Y0169357D01*
X0271145Y0169529D01*
X0271054Y0169703D01*
X0270968Y0169880D01*
X0270886Y0170058D01*
X0270809Y0170239D01*
X0270736Y0170421D01*
X0270668Y0170605D01*
X0270604Y0170791D01*
X0270544Y0170978D01*
X0270490Y0171166D01*
X0270440Y0171356D01*
X0270394Y0171547D01*
X0270354Y0171739D01*
X0270318Y0171932D01*
X0270287Y0172126D01*
X0270260Y0172321D01*
X0270239Y0172516D01*
X0270222Y0172711D01*
X0270210Y0172907D01*
X0270202Y0173104D01*
X0270200Y0173300D01*
X0020200Y0173300D02*
X0020202Y0173496D01*
X0020210Y0173693D01*
X0020222Y0173889D01*
X0020239Y0174084D01*
X0020260Y0174279D01*
X0020287Y0174474D01*
X0020318Y0174668D01*
X0020354Y0174861D01*
X0020394Y0175053D01*
X0020440Y0175244D01*
X0020490Y0175434D01*
X0020544Y0175622D01*
X0020604Y0175809D01*
X0020668Y0175995D01*
X0020736Y0176179D01*
X0020809Y0176361D01*
X0020886Y0176542D01*
X0020968Y0176720D01*
X0021054Y0176897D01*
X0021145Y0177071D01*
X0021239Y0177243D01*
X0021338Y0177413D01*
X0021441Y0177580D01*
X0021548Y0177745D01*
X0021659Y0177906D01*
X0021774Y0178066D01*
X0021893Y0178222D01*
X0022016Y0178375D01*
X0022142Y0178525D01*
X0022272Y0178672D01*
X0022406Y0178816D01*
X0022543Y0178957D01*
X0022684Y0179094D01*
X0022828Y0179228D01*
X0022975Y0179358D01*
X0023125Y0179484D01*
X0023278Y0179607D01*
X0023434Y0179726D01*
X0023594Y0179841D01*
X0023755Y0179952D01*
X0023920Y0180059D01*
X0024087Y0180162D01*
X0024257Y0180261D01*
X0024429Y0180355D01*
X0024603Y0180446D01*
X0024780Y0180532D01*
X0024958Y0180614D01*
X0025139Y0180691D01*
X0025321Y0180764D01*
X0025505Y0180832D01*
X0025691Y0180896D01*
X0025878Y0180956D01*
X0026066Y0181010D01*
X0026256Y0181060D01*
X0026447Y0181106D01*
X0026639Y0181146D01*
X0026832Y0181182D01*
X0027026Y0181213D01*
X0027221Y0181240D01*
X0027416Y0181261D01*
X0027611Y0181278D01*
X0027807Y0181290D01*
X0028004Y0181298D01*
X0028200Y0181300D01*
X0028396Y0181298D01*
X0028593Y0181290D01*
X0028789Y0181278D01*
X0028984Y0181261D01*
X0029179Y0181240D01*
X0029374Y0181213D01*
X0029568Y0181182D01*
X0029761Y0181146D01*
X0029953Y0181106D01*
X0030144Y0181060D01*
X0030334Y0181010D01*
X0030522Y0180956D01*
X0030709Y0180896D01*
X0030895Y0180832D01*
X0031079Y0180764D01*
X0031261Y0180691D01*
X0031442Y0180614D01*
X0031620Y0180532D01*
X0031797Y0180446D01*
X0031971Y0180355D01*
X0032143Y0180261D01*
X0032313Y0180162D01*
X0032480Y0180059D01*
X0032645Y0179952D01*
X0032806Y0179841D01*
X0032966Y0179726D01*
X0033122Y0179607D01*
X0033275Y0179484D01*
X0033425Y0179358D01*
X0033572Y0179228D01*
X0033716Y0179094D01*
X0033857Y0178957D01*
X0033994Y0178816D01*
X0034128Y0178672D01*
X0034258Y0178525D01*
X0034384Y0178375D01*
X0034507Y0178222D01*
X0034626Y0178066D01*
X0034741Y0177906D01*
X0034852Y0177745D01*
X0034959Y0177580D01*
X0035062Y0177413D01*
X0035161Y0177243D01*
X0035255Y0177071D01*
X0035346Y0176897D01*
X0035432Y0176720D01*
X0035514Y0176542D01*
X0035591Y0176361D01*
X0035664Y0176179D01*
X0035732Y0175995D01*
X0035796Y0175809D01*
X0035856Y0175622D01*
X0035910Y0175434D01*
X0035960Y0175244D01*
X0036006Y0175053D01*
X0036046Y0174861D01*
X0036082Y0174668D01*
X0036113Y0174474D01*
X0036140Y0174279D01*
X0036161Y0174084D01*
X0036178Y0173889D01*
X0036190Y0173693D01*
X0036198Y0173496D01*
X0036200Y0173300D01*
X0036198Y0173104D01*
X0036190Y0172907D01*
X0036178Y0172711D01*
X0036161Y0172516D01*
X0036140Y0172321D01*
X0036113Y0172126D01*
X0036082Y0171932D01*
X0036046Y0171739D01*
X0036006Y0171547D01*
X0035960Y0171356D01*
X0035910Y0171166D01*
X0035856Y0170978D01*
X0035796Y0170791D01*
X0035732Y0170605D01*
X0035664Y0170421D01*
X0035591Y0170239D01*
X0035514Y0170058D01*
X0035432Y0169880D01*
X0035346Y0169703D01*
X0035255Y0169529D01*
X0035161Y0169357D01*
X0035062Y0169187D01*
X0034959Y0169020D01*
X0034852Y0168855D01*
X0034741Y0168694D01*
X0034626Y0168534D01*
X0034507Y0168378D01*
X0034384Y0168225D01*
X0034258Y0168075D01*
X0034128Y0167928D01*
X0033994Y0167784D01*
X0033857Y0167643D01*
X0033716Y0167506D01*
X0033572Y0167372D01*
X0033425Y0167242D01*
X0033275Y0167116D01*
X0033122Y0166993D01*
X0032966Y0166874D01*
X0032806Y0166759D01*
X0032645Y0166648D01*
X0032480Y0166541D01*
X0032313Y0166438D01*
X0032143Y0166339D01*
X0031971Y0166245D01*
X0031797Y0166154D01*
X0031620Y0166068D01*
X0031442Y0165986D01*
X0031261Y0165909D01*
X0031079Y0165836D01*
X0030895Y0165768D01*
X0030709Y0165704D01*
X0030522Y0165644D01*
X0030334Y0165590D01*
X0030144Y0165540D01*
X0029953Y0165494D01*
X0029761Y0165454D01*
X0029568Y0165418D01*
X0029374Y0165387D01*
X0029179Y0165360D01*
X0028984Y0165339D01*
X0028789Y0165322D01*
X0028593Y0165310D01*
X0028396Y0165302D01*
X0028200Y0165300D01*
X0028004Y0165302D01*
X0027807Y0165310D01*
X0027611Y0165322D01*
X0027416Y0165339D01*
X0027221Y0165360D01*
X0027026Y0165387D01*
X0026832Y0165418D01*
X0026639Y0165454D01*
X0026447Y0165494D01*
X0026256Y0165540D01*
X0026066Y0165590D01*
X0025878Y0165644D01*
X0025691Y0165704D01*
X0025505Y0165768D01*
X0025321Y0165836D01*
X0025139Y0165909D01*
X0024958Y0165986D01*
X0024780Y0166068D01*
X0024603Y0166154D01*
X0024429Y0166245D01*
X0024257Y0166339D01*
X0024087Y0166438D01*
X0023920Y0166541D01*
X0023755Y0166648D01*
X0023594Y0166759D01*
X0023434Y0166874D01*
X0023278Y0166993D01*
X0023125Y0167116D01*
X0022975Y0167242D01*
X0022828Y0167372D01*
X0022684Y0167506D01*
X0022543Y0167643D01*
X0022406Y0167784D01*
X0022272Y0167928D01*
X0022142Y0168075D01*
X0022016Y0168225D01*
X0021893Y0168378D01*
X0021774Y0168534D01*
X0021659Y0168694D01*
X0021548Y0168855D01*
X0021441Y0169020D01*
X0021338Y0169187D01*
X0021239Y0169357D01*
X0021145Y0169529D01*
X0021054Y0169703D01*
X0020968Y0169880D01*
X0020886Y0170058D01*
X0020809Y0170239D01*
X0020736Y0170421D01*
X0020668Y0170605D01*
X0020604Y0170791D01*
X0020544Y0170978D01*
X0020490Y0171166D01*
X0020440Y0171356D01*
X0020394Y0171547D01*
X0020354Y0171739D01*
X0020318Y0171932D01*
X0020287Y0172126D01*
X0020260Y0172321D01*
X0020239Y0172516D01*
X0020222Y0172711D01*
X0020210Y0172907D01*
X0020202Y0173104D01*
X0020200Y0173300D01*
D11*
X0358318Y0103300D03*
D12*
X0348082Y0107631D03*
X0348082Y0098969D03*
D13*
X0113200Y0092200D02*
X0113200Y0084400D01*
X0113200Y0114400D02*
X0113200Y0122200D01*
X0053200Y0122200D02*
X0053200Y0114400D01*
X0033200Y0114400D02*
X0033200Y0122200D01*
X0013200Y0122200D02*
X0013200Y0114400D01*
X0013200Y0092200D02*
X0013200Y0084400D01*
X0033200Y0084400D02*
X0033200Y0092200D01*
X0053200Y0092200D02*
X0053200Y0084400D01*
D14*
X0162460Y0083300D03*
X0169940Y0083300D03*
D15*
X0098100Y0032900D03*
X0068200Y0032900D03*
X0068300Y0173700D03*
X0098200Y0173700D03*
D16*
X0138200Y0168300D03*
X0148200Y0168300D03*
X0138200Y0141300D03*
X0098200Y0141300D03*
X0098200Y0064300D03*
X0138200Y0064300D03*
X0138200Y0038300D03*
X0148200Y0038300D03*
D17*
X0183200Y0027300D02*
X0183200Y0021300D01*
X0193200Y0021300D02*
X0193200Y0027300D01*
X0203200Y0027300D02*
X0203200Y0021300D01*
X0213200Y0021300D02*
X0213200Y0027300D01*
X0152200Y0098300D02*
X0146200Y0098300D01*
X0146200Y0108300D02*
X0152200Y0108300D01*
X0152200Y0118300D02*
X0146200Y0118300D01*
X0183200Y0179300D02*
X0183200Y0185300D01*
X0193200Y0185300D02*
X0193200Y0179300D01*
X0203200Y0179300D02*
X0203200Y0185300D01*
X0213200Y0185300D02*
X0213200Y0179300D01*
D18*
X0349263Y0122300D03*
X0357137Y0122300D03*
D19*
X0134200Y0118560D03*
X0134200Y0126040D03*
D20*
X0139460Y0131300D01*
X0146200Y0131300D01*
X0183200Y0168300D01*
X0183200Y0182300D01*
X0193200Y0182300D02*
X0193200Y0164300D01*
X0164200Y0135300D01*
X0164200Y0112300D01*
X0168200Y0108300D01*
X0164200Y0108300D01*
X0164200Y0112300D01*
X0160200Y0108300D01*
X0149200Y0108300D01*
X0160200Y0108300D02*
X0164200Y0108300D01*
X0168200Y0108300D02*
X0176279Y0108300D01*
X0185609Y0098969D01*
X0348082Y0098969D01*
X0348082Y0107631D02*
X0348082Y0114300D01*
X0348200Y0114300D01*
X0349263Y0114300D01*
X0349263Y0122300D01*
X0213200Y0041300D02*
X0213200Y0024300D01*
X0203200Y0024300D02*
X0203200Y0030300D01*
X0169940Y0063560D01*
X0169940Y0083300D01*
X0185609Y0098969D01*
X0162460Y0085040D02*
X0162460Y0083300D01*
X0162460Y0085040D02*
X0149200Y0098300D01*
X0131200Y0088300D02*
X0113200Y0088300D01*
X0131200Y0088300D02*
X0150200Y0069300D01*
X0150200Y0057300D01*
X0183200Y0024300D01*
X0193200Y0024300D02*
X0193200Y0019800D01*
X0198200Y0014800D01*
X0213200Y0041300D02*
X0181200Y0073300D01*
X0149200Y0118300D02*
X0148940Y0118560D01*
X0134200Y0118560D01*
X0134200Y0126040D02*
X0133940Y0126300D01*
X0123200Y0126300D01*
X0115200Y0118300D01*
X0113200Y0118300D01*
D21*
X0181200Y0073300D03*
X0348200Y0114300D03*
D22*
X0345463Y0117055D02*
X0344860Y0116453D01*
X0344282Y0115056D01*
X0344282Y0110787D01*
X0344026Y0110531D01*
X0344026Y0104730D01*
X0344788Y0103969D01*
X0346993Y0103969D01*
X0347326Y0103831D01*
X0348838Y0103831D01*
X0349170Y0103969D01*
X0351376Y0103969D01*
X0352138Y0104730D01*
X0352138Y0110531D01*
X0351882Y0110787D01*
X0351882Y0111545D01*
X0352484Y0112147D01*
X0353063Y0113544D01*
X0353063Y0118553D01*
X0353122Y0118612D01*
X0353122Y0125988D01*
X0352361Y0126750D01*
X0346165Y0126750D01*
X0345404Y0125988D01*
X0345404Y0118612D01*
X0345463Y0118553D01*
X0345463Y0117055D01*
X0345463Y0117229D02*
X0168000Y0117229D01*
X0168000Y0116631D02*
X0345038Y0116631D01*
X0344686Y0116032D02*
X0168000Y0116032D01*
X0168000Y0115434D02*
X0344438Y0115434D01*
X0344282Y0114835D02*
X0168000Y0114835D01*
X0168000Y0114237D02*
X0344282Y0114237D01*
X0344282Y0113638D02*
X0168236Y0113638D01*
X0168000Y0113874D02*
X0168000Y0133726D01*
X0196421Y0162147D01*
X0197000Y0163544D01*
X0197000Y0177238D01*
X0197500Y0178445D01*
X0197500Y0186155D01*
X0196845Y0187736D01*
X0195636Y0188945D01*
X0194055Y0189600D01*
X0192345Y0189600D01*
X0190764Y0188945D01*
X0189555Y0187736D01*
X0188900Y0186155D01*
X0188900Y0178445D01*
X0189400Y0177238D01*
X0189400Y0165874D01*
X0160979Y0137453D01*
X0160400Y0136056D01*
X0160400Y0113874D01*
X0158626Y0112100D01*
X0154262Y0112100D01*
X0153055Y0112600D01*
X0145345Y0112600D01*
X0143764Y0111945D01*
X0142555Y0110736D01*
X0141900Y0109155D01*
X0141900Y0107445D01*
X0142555Y0105864D01*
X0143764Y0104655D01*
X0145345Y0104000D01*
X0153055Y0104000D01*
X0154262Y0104500D01*
X0174705Y0104500D01*
X0180235Y0098969D01*
X0168819Y0087553D01*
X0166843Y0087553D01*
X0166162Y0086872D01*
X0166059Y0087051D01*
X0165817Y0087293D01*
X0165521Y0087464D01*
X0165190Y0087553D01*
X0162760Y0087553D01*
X0162760Y0083600D01*
X0162160Y0083600D01*
X0162160Y0087553D01*
X0159730Y0087553D01*
X0159399Y0087464D01*
X0159103Y0087293D01*
X0158861Y0087051D01*
X0158689Y0086755D01*
X0158601Y0086424D01*
X0158601Y0083600D01*
X0162160Y0083600D01*
X0162160Y0083000D01*
X0162760Y0083000D01*
X0162760Y0079047D01*
X0165190Y0079047D01*
X0165521Y0079136D01*
X0165817Y0079307D01*
X0166059Y0079549D01*
X0166140Y0079689D01*
X0166140Y0062804D01*
X0166719Y0061407D01*
X0199214Y0028912D01*
X0198900Y0028155D01*
X0198900Y0020445D01*
X0199555Y0018864D01*
X0200764Y0017655D01*
X0202345Y0017000D01*
X0204055Y0017000D01*
X0205636Y0017655D01*
X0206845Y0018864D01*
X0207500Y0020445D01*
X0207500Y0028155D01*
X0207000Y0029362D01*
X0207000Y0031056D01*
X0206421Y0032453D01*
X0173740Y0065134D01*
X0173740Y0079750D01*
X0173799Y0079809D01*
X0173799Y0081785D01*
X0187183Y0095169D01*
X0348838Y0095169D01*
X0349170Y0095307D01*
X0351376Y0095307D01*
X0352138Y0096069D01*
X0352138Y0101870D01*
X0351376Y0102631D01*
X0349170Y0102631D01*
X0348838Y0102769D01*
X0187183Y0102769D01*
X0179500Y0110453D01*
X0178431Y0111521D01*
X0177035Y0112100D01*
X0169774Y0112100D01*
X0168000Y0113874D01*
X0168835Y0113039D02*
X0344282Y0113039D01*
X0344282Y0112441D02*
X0169433Y0112441D01*
X0160400Y0114237D02*
X0153626Y0114237D01*
X0153055Y0114000D02*
X0154636Y0114655D01*
X0155845Y0115864D01*
X0156500Y0117445D01*
X0156500Y0119155D01*
X0155845Y0120736D01*
X0154636Y0121945D01*
X0153055Y0122600D01*
X0145345Y0122600D01*
X0144765Y0122360D01*
X0137870Y0122360D01*
X0138453Y0122943D01*
X0138453Y0124919D01*
X0141034Y0127500D01*
X0146956Y0127500D01*
X0148353Y0128079D01*
X0149421Y0129147D01*
X0149421Y0129147D01*
X0185353Y0165079D01*
X0186421Y0166147D01*
X0187000Y0167544D01*
X0187000Y0177238D01*
X0187500Y0178445D01*
X0187500Y0186155D01*
X0186845Y0187736D01*
X0185636Y0188945D01*
X0184055Y0189600D01*
X0182345Y0189600D01*
X0180764Y0188945D01*
X0179555Y0187736D01*
X0178900Y0186155D01*
X0178900Y0178445D01*
X0179400Y0177238D01*
X0179400Y0169874D01*
X0144626Y0135100D01*
X0138704Y0135100D01*
X0137307Y0134521D01*
X0136238Y0133453D01*
X0136238Y0133453D01*
X0132886Y0130100D01*
X0122444Y0130100D01*
X0122200Y0129999D01*
X0122200Y0193701D01*
X0388821Y0193701D01*
X0388821Y0154503D01*
X0388042Y0155852D01*
X0385752Y0158142D01*
X0382948Y0159762D01*
X0379819Y0160600D01*
X0376581Y0160600D01*
X0373452Y0159762D01*
X0370648Y0158142D01*
X0368358Y0155852D01*
X0366738Y0153048D01*
X0365900Y0149919D01*
X0365900Y0146681D01*
X0366738Y0143552D01*
X0368358Y0140748D01*
X0370648Y0138458D01*
X0373452Y0136838D01*
X0376581Y0136000D01*
X0379819Y0136000D01*
X0382948Y0136838D01*
X0385752Y0138458D01*
X0388042Y0140748D01*
X0388821Y0142097D01*
X0388821Y0064503D01*
X0388042Y0065852D01*
X0385752Y0068142D01*
X0382948Y0069762D01*
X0379819Y0070600D01*
X0376581Y0070600D01*
X0373452Y0069762D01*
X0370648Y0068142D01*
X0368358Y0065852D01*
X0366738Y0063048D01*
X0365900Y0059919D01*
X0365900Y0056681D01*
X0366738Y0053552D01*
X0368358Y0050748D01*
X0370648Y0048458D01*
X0373452Y0046838D01*
X0376581Y0046000D01*
X0379819Y0046000D01*
X0382948Y0046838D01*
X0385752Y0048458D01*
X0388042Y0050748D01*
X0388821Y0052097D01*
X0388821Y0012600D01*
X0122200Y0012600D01*
X0122200Y0084500D01*
X0129626Y0084500D01*
X0146400Y0067726D01*
X0146400Y0056544D01*
X0146979Y0055147D01*
X0148047Y0054079D01*
X0178900Y0023226D01*
X0178900Y0020445D01*
X0179555Y0018864D01*
X0180764Y0017655D01*
X0182345Y0017000D01*
X0184055Y0017000D01*
X0185636Y0017655D01*
X0186845Y0018864D01*
X0187500Y0020445D01*
X0187500Y0028155D01*
X0186845Y0029736D01*
X0185636Y0030945D01*
X0184055Y0031600D01*
X0182345Y0031600D01*
X0181588Y0031286D01*
X0154000Y0058874D01*
X0154000Y0070056D01*
X0153421Y0071453D01*
X0134421Y0090453D01*
X0133353Y0091521D01*
X0131956Y0092100D01*
X0122200Y0092100D01*
X0122200Y0119926D01*
X0124774Y0122500D01*
X0130390Y0122500D01*
X0130590Y0122300D01*
X0129947Y0121657D01*
X0129947Y0115462D01*
X0130709Y0114701D01*
X0137691Y0114701D01*
X0137750Y0114760D01*
X0143659Y0114760D01*
X0143764Y0114655D01*
X0145345Y0114000D01*
X0153055Y0114000D01*
X0153439Y0112441D02*
X0158967Y0112441D01*
X0159565Y0113039D02*
X0122200Y0113039D01*
X0122200Y0112441D02*
X0144961Y0112441D01*
X0143661Y0111842D02*
X0122200Y0111842D01*
X0122200Y0111244D02*
X0143063Y0111244D01*
X0142517Y0110645D02*
X0122200Y0110645D01*
X0122200Y0110047D02*
X0142269Y0110047D01*
X0142021Y0109448D02*
X0122200Y0109448D01*
X0122200Y0108850D02*
X0141900Y0108850D01*
X0141900Y0108251D02*
X0122200Y0108251D01*
X0122200Y0107653D02*
X0141900Y0107653D01*
X0142062Y0107054D02*
X0122200Y0107054D01*
X0122200Y0106456D02*
X0142310Y0106456D01*
X0142562Y0105857D02*
X0122200Y0105857D01*
X0122200Y0105259D02*
X0143160Y0105259D01*
X0143759Y0104660D02*
X0122200Y0104660D01*
X0122200Y0104062D02*
X0145195Y0104062D01*
X0145193Y0102494D02*
X0144549Y0102285D01*
X0143946Y0101978D01*
X0143399Y0101580D01*
X0142920Y0101101D01*
X0142522Y0100554D01*
X0142215Y0099951D01*
X0142006Y0099307D01*
X0141900Y0098638D01*
X0141900Y0098600D01*
X0148900Y0098600D01*
X0148900Y0102600D01*
X0145862Y0102600D01*
X0145193Y0102494D01*
X0144513Y0102266D02*
X0122200Y0102266D01*
X0122200Y0101668D02*
X0143520Y0101668D01*
X0142897Y0101069D02*
X0122200Y0101069D01*
X0122200Y0100471D02*
X0142480Y0100471D01*
X0142190Y0099872D02*
X0122200Y0099872D01*
X0122200Y0099274D02*
X0142001Y0099274D01*
X0141906Y0098675D02*
X0122200Y0098675D01*
X0122200Y0098077D02*
X0148900Y0098077D01*
X0148900Y0098000D02*
X0141900Y0098000D01*
X0141900Y0097962D01*
X0142006Y0097293D01*
X0142215Y0096649D01*
X0142522Y0096046D01*
X0142920Y0095499D01*
X0143399Y0095020D01*
X0143946Y0094622D01*
X0144549Y0094315D01*
X0145193Y0094106D01*
X0145862Y0094000D01*
X0148900Y0094000D01*
X0148900Y0098000D01*
X0149500Y0098000D01*
X0149500Y0098600D01*
X0148900Y0098600D01*
X0148900Y0098000D01*
X0148900Y0097478D02*
X0149500Y0097478D01*
X0149500Y0098000D02*
X0149500Y0094000D01*
X0152538Y0094000D01*
X0153207Y0094106D01*
X0153851Y0094315D01*
X0154454Y0094622D01*
X0155001Y0095020D01*
X0155480Y0095499D01*
X0155878Y0096046D01*
X0156185Y0096649D01*
X0156394Y0097293D01*
X0156500Y0097962D01*
X0156500Y0098000D01*
X0149500Y0098000D01*
X0149500Y0098077D02*
X0179343Y0098077D01*
X0179941Y0098675D02*
X0156494Y0098675D01*
X0156500Y0098638D02*
X0156394Y0099307D01*
X0156185Y0099951D01*
X0155878Y0100554D01*
X0155480Y0101101D01*
X0155001Y0101580D01*
X0154454Y0101978D01*
X0153851Y0102285D01*
X0153207Y0102494D01*
X0152538Y0102600D01*
X0149500Y0102600D01*
X0149500Y0098600D01*
X0156500Y0098600D01*
X0156500Y0098638D01*
X0156399Y0099274D02*
X0179931Y0099274D01*
X0179332Y0099872D02*
X0156210Y0099872D01*
X0155920Y0100471D02*
X0178734Y0100471D01*
X0178135Y0101069D02*
X0155503Y0101069D01*
X0154880Y0101668D02*
X0177537Y0101668D01*
X0176938Y0102266D02*
X0153887Y0102266D01*
X0153205Y0104062D02*
X0175143Y0104062D01*
X0175741Y0103463D02*
X0122200Y0103463D01*
X0122200Y0102865D02*
X0176340Y0102865D01*
X0178744Y0097478D02*
X0156423Y0097478D01*
X0156260Y0096880D02*
X0178146Y0096880D01*
X0177547Y0096281D02*
X0155997Y0096281D01*
X0155613Y0095683D02*
X0176949Y0095683D01*
X0176350Y0095084D02*
X0155065Y0095084D01*
X0154185Y0094486D02*
X0175752Y0094486D01*
X0175153Y0093887D02*
X0122200Y0093887D01*
X0122200Y0093289D02*
X0174555Y0093289D01*
X0173956Y0092690D02*
X0122200Y0092690D01*
X0122200Y0094486D02*
X0144215Y0094486D01*
X0143335Y0095084D02*
X0122200Y0095084D01*
X0122200Y0095683D02*
X0142787Y0095683D01*
X0142403Y0096281D02*
X0122200Y0096281D01*
X0122200Y0096880D02*
X0142140Y0096880D01*
X0141977Y0097478D02*
X0122200Y0097478D01*
X0131976Y0092092D02*
X0173358Y0092092D01*
X0172759Y0091493D02*
X0133381Y0091493D01*
X0133979Y0090895D02*
X0172161Y0090895D01*
X0171562Y0090296D02*
X0134578Y0090296D01*
X0135176Y0089698D02*
X0170964Y0089698D01*
X0170365Y0089099D02*
X0135775Y0089099D01*
X0136373Y0088501D02*
X0169767Y0088501D01*
X0169168Y0087902D02*
X0136972Y0087902D01*
X0137570Y0087303D02*
X0159121Y0087303D01*
X0158676Y0086705D02*
X0138169Y0086705D01*
X0138768Y0086106D02*
X0158601Y0086106D01*
X0158601Y0085508D02*
X0139366Y0085508D01*
X0139965Y0084909D02*
X0158601Y0084909D01*
X0158601Y0084311D02*
X0140563Y0084311D01*
X0141162Y0083712D02*
X0158601Y0083712D01*
X0158601Y0083000D02*
X0158601Y0080176D01*
X0158689Y0079845D01*
X0158861Y0079549D01*
X0159103Y0079307D01*
X0159399Y0079136D01*
X0159730Y0079047D01*
X0162160Y0079047D01*
X0162160Y0083000D01*
X0158601Y0083000D01*
X0158601Y0082515D02*
X0142359Y0082515D01*
X0142957Y0081917D02*
X0158601Y0081917D01*
X0158601Y0081318D02*
X0143556Y0081318D01*
X0144154Y0080720D02*
X0158601Y0080720D01*
X0158615Y0080121D02*
X0144753Y0080121D01*
X0145351Y0079523D02*
X0158887Y0079523D01*
X0162160Y0079523D02*
X0162760Y0079523D01*
X0162760Y0080121D02*
X0162160Y0080121D01*
X0162160Y0080720D02*
X0162760Y0080720D01*
X0162760Y0081318D02*
X0162160Y0081318D01*
X0162160Y0081917D02*
X0162760Y0081917D01*
X0162760Y0082515D02*
X0162160Y0082515D01*
X0162160Y0083114D02*
X0141760Y0083114D01*
X0145950Y0078924D02*
X0166140Y0078924D01*
X0166140Y0078326D02*
X0146548Y0078326D01*
X0147147Y0077727D02*
X0166140Y0077727D01*
X0166140Y0077129D02*
X0147745Y0077129D01*
X0148344Y0076530D02*
X0166140Y0076530D01*
X0166140Y0075932D02*
X0148942Y0075932D01*
X0149541Y0075333D02*
X0166140Y0075333D01*
X0166140Y0074735D02*
X0150139Y0074735D01*
X0150738Y0074136D02*
X0166140Y0074136D01*
X0166140Y0073538D02*
X0151336Y0073538D01*
X0151935Y0072939D02*
X0166140Y0072939D01*
X0166140Y0072341D02*
X0152533Y0072341D01*
X0153132Y0071742D02*
X0166140Y0071742D01*
X0166140Y0071144D02*
X0153549Y0071144D01*
X0153797Y0070545D02*
X0166140Y0070545D01*
X0166140Y0069947D02*
X0154000Y0069947D01*
X0154000Y0069348D02*
X0166140Y0069348D01*
X0166140Y0068750D02*
X0154000Y0068750D01*
X0154000Y0068151D02*
X0166140Y0068151D01*
X0166140Y0067553D02*
X0154000Y0067553D01*
X0154000Y0066954D02*
X0166140Y0066954D01*
X0166140Y0066356D02*
X0154000Y0066356D01*
X0154000Y0065757D02*
X0166140Y0065757D01*
X0166140Y0065159D02*
X0154000Y0065159D01*
X0154000Y0064560D02*
X0166140Y0064560D01*
X0166140Y0063962D02*
X0154000Y0063962D01*
X0154000Y0063363D02*
X0166140Y0063363D01*
X0166156Y0062765D02*
X0154000Y0062765D01*
X0154000Y0062166D02*
X0166404Y0062166D01*
X0166652Y0061568D02*
X0154000Y0061568D01*
X0154000Y0060969D02*
X0167157Y0060969D01*
X0167755Y0060370D02*
X0154000Y0060370D01*
X0154000Y0059772D02*
X0168354Y0059772D01*
X0168953Y0059173D02*
X0154000Y0059173D01*
X0154299Y0058575D02*
X0169551Y0058575D01*
X0170150Y0057976D02*
X0154898Y0057976D01*
X0155496Y0057378D02*
X0170748Y0057378D01*
X0171347Y0056779D02*
X0156095Y0056779D01*
X0156693Y0056181D02*
X0171945Y0056181D01*
X0172544Y0055582D02*
X0157292Y0055582D01*
X0157890Y0054984D02*
X0173142Y0054984D01*
X0173741Y0054385D02*
X0158489Y0054385D01*
X0159087Y0053787D02*
X0174339Y0053787D01*
X0174938Y0053188D02*
X0159686Y0053188D01*
X0160284Y0052590D02*
X0175536Y0052590D01*
X0176135Y0051991D02*
X0160883Y0051991D01*
X0161481Y0051393D02*
X0176733Y0051393D01*
X0177332Y0050794D02*
X0162080Y0050794D01*
X0162678Y0050196D02*
X0177930Y0050196D01*
X0178529Y0049597D02*
X0163277Y0049597D01*
X0163875Y0048999D02*
X0179127Y0048999D01*
X0179726Y0048400D02*
X0164474Y0048400D01*
X0165072Y0047802D02*
X0180324Y0047802D01*
X0180923Y0047203D02*
X0165671Y0047203D01*
X0166269Y0046605D02*
X0181521Y0046605D01*
X0182120Y0046006D02*
X0166868Y0046006D01*
X0167466Y0045408D02*
X0182718Y0045408D01*
X0183317Y0044809D02*
X0168065Y0044809D01*
X0168663Y0044211D02*
X0183915Y0044211D01*
X0184514Y0043612D02*
X0169262Y0043612D01*
X0169860Y0043014D02*
X0185112Y0043014D01*
X0185711Y0042415D02*
X0170459Y0042415D01*
X0171057Y0041817D02*
X0186309Y0041817D01*
X0186908Y0041218D02*
X0171656Y0041218D01*
X0172254Y0040620D02*
X0187506Y0040620D01*
X0188105Y0040021D02*
X0172853Y0040021D01*
X0173451Y0039423D02*
X0188703Y0039423D01*
X0189302Y0038824D02*
X0174050Y0038824D01*
X0174648Y0038226D02*
X0189900Y0038226D01*
X0190499Y0037627D02*
X0175247Y0037627D01*
X0175845Y0037029D02*
X0191097Y0037029D01*
X0191696Y0036430D02*
X0176444Y0036430D01*
X0177042Y0035832D02*
X0192294Y0035832D01*
X0192893Y0035233D02*
X0177641Y0035233D01*
X0178239Y0034634D02*
X0193491Y0034634D01*
X0194090Y0034036D02*
X0178838Y0034036D01*
X0179437Y0033437D02*
X0194689Y0033437D01*
X0195287Y0032839D02*
X0180035Y0032839D01*
X0180634Y0032240D02*
X0195886Y0032240D01*
X0196484Y0031642D02*
X0181232Y0031642D01*
X0185399Y0031043D02*
X0191075Y0031043D01*
X0190946Y0030978D02*
X0191549Y0031285D01*
X0192193Y0031494D01*
X0192862Y0031600D01*
X0192900Y0031600D01*
X0192900Y0024600D01*
X0193500Y0024600D01*
X0193500Y0031600D01*
X0193538Y0031600D01*
X0194207Y0031494D01*
X0194851Y0031285D01*
X0195454Y0030978D01*
X0196001Y0030580D01*
X0196480Y0030101D01*
X0196878Y0029554D01*
X0197185Y0028951D01*
X0197394Y0028307D01*
X0197500Y0027638D01*
X0197500Y0024600D01*
X0193500Y0024600D01*
X0193500Y0024000D01*
X0197500Y0024000D01*
X0197500Y0020962D01*
X0197394Y0020293D01*
X0197185Y0019649D01*
X0196878Y0019046D01*
X0196480Y0018499D01*
X0196001Y0018020D01*
X0195454Y0017622D01*
X0194851Y0017315D01*
X0194207Y0017106D01*
X0193538Y0017000D01*
X0193500Y0017000D01*
X0193500Y0024000D01*
X0192900Y0024000D01*
X0188900Y0024000D01*
X0188900Y0020962D01*
X0189006Y0020293D01*
X0189215Y0019649D01*
X0189522Y0019046D01*
X0189920Y0018499D01*
X0190399Y0018020D01*
X0190946Y0017622D01*
X0191549Y0017315D01*
X0192193Y0017106D01*
X0192862Y0017000D01*
X0192900Y0017000D01*
X0192900Y0024000D01*
X0192900Y0024600D01*
X0188900Y0024600D01*
X0188900Y0027638D01*
X0189006Y0028307D01*
X0189215Y0028951D01*
X0189522Y0029554D01*
X0189920Y0030101D01*
X0190399Y0030580D01*
X0190946Y0030978D01*
X0190264Y0030445D02*
X0186136Y0030445D01*
X0186735Y0029846D02*
X0189735Y0029846D01*
X0189367Y0029248D02*
X0187047Y0029248D01*
X0187295Y0028649D02*
X0189117Y0028649D01*
X0188965Y0028051D02*
X0187500Y0028051D01*
X0187500Y0027452D02*
X0188900Y0027452D01*
X0188900Y0026854D02*
X0187500Y0026854D01*
X0187500Y0026255D02*
X0188900Y0026255D01*
X0188900Y0025657D02*
X0187500Y0025657D01*
X0187500Y0025058D02*
X0188900Y0025058D01*
X0188900Y0023861D02*
X0187500Y0023861D01*
X0187500Y0023263D02*
X0188900Y0023263D01*
X0188900Y0022664D02*
X0187500Y0022664D01*
X0187500Y0022066D02*
X0188900Y0022066D01*
X0188900Y0021467D02*
X0187500Y0021467D01*
X0187500Y0020869D02*
X0188915Y0020869D01*
X0189013Y0020270D02*
X0187428Y0020270D01*
X0187180Y0019672D02*
X0189208Y0019672D01*
X0189509Y0019073D02*
X0186932Y0019073D01*
X0186456Y0018475D02*
X0189944Y0018475D01*
X0190597Y0017876D02*
X0185857Y0017876D01*
X0184726Y0017278D02*
X0191664Y0017278D01*
X0192900Y0017278D02*
X0193500Y0017278D01*
X0193500Y0017876D02*
X0192900Y0017876D01*
X0192900Y0018475D02*
X0193500Y0018475D01*
X0193500Y0019073D02*
X0192900Y0019073D01*
X0192900Y0019672D02*
X0193500Y0019672D01*
X0193500Y0020270D02*
X0192900Y0020270D01*
X0192900Y0020869D02*
X0193500Y0020869D01*
X0193500Y0021467D02*
X0192900Y0021467D01*
X0192900Y0022066D02*
X0193500Y0022066D01*
X0193500Y0022664D02*
X0192900Y0022664D01*
X0192900Y0023263D02*
X0193500Y0023263D01*
X0193500Y0023861D02*
X0192900Y0023861D01*
X0192900Y0024460D02*
X0187500Y0024460D01*
X0192900Y0025058D02*
X0193500Y0025058D01*
X0193500Y0024460D02*
X0198900Y0024460D01*
X0198900Y0025058D02*
X0197500Y0025058D01*
X0197500Y0025657D02*
X0198900Y0025657D01*
X0198900Y0026255D02*
X0197500Y0026255D01*
X0197500Y0026854D02*
X0198900Y0026854D01*
X0198900Y0027452D02*
X0197500Y0027452D01*
X0197435Y0028051D02*
X0198900Y0028051D01*
X0199105Y0028649D02*
X0197283Y0028649D01*
X0197033Y0029248D02*
X0198878Y0029248D01*
X0198280Y0029846D02*
X0196665Y0029846D01*
X0196136Y0030445D02*
X0197681Y0030445D01*
X0197083Y0031043D02*
X0195325Y0031043D01*
X0193500Y0031043D02*
X0192900Y0031043D01*
X0192900Y0030445D02*
X0193500Y0030445D01*
X0193500Y0029846D02*
X0192900Y0029846D01*
X0192900Y0029248D02*
X0193500Y0029248D01*
X0193500Y0028649D02*
X0192900Y0028649D01*
X0192900Y0028051D02*
X0193500Y0028051D01*
X0193500Y0027452D02*
X0192900Y0027452D01*
X0192900Y0026854D02*
X0193500Y0026854D01*
X0193500Y0026255D02*
X0192900Y0026255D01*
X0192900Y0025657D02*
X0193500Y0025657D01*
X0197500Y0023861D02*
X0198900Y0023861D01*
X0198900Y0023263D02*
X0197500Y0023263D01*
X0197500Y0022664D02*
X0198900Y0022664D01*
X0198900Y0022066D02*
X0197500Y0022066D01*
X0197500Y0021467D02*
X0198900Y0021467D01*
X0198900Y0020869D02*
X0197485Y0020869D01*
X0197387Y0020270D02*
X0198972Y0020270D01*
X0199220Y0019672D02*
X0197192Y0019672D01*
X0196891Y0019073D02*
X0199468Y0019073D01*
X0199944Y0018475D02*
X0196456Y0018475D01*
X0195803Y0017876D02*
X0200543Y0017876D01*
X0201674Y0017278D02*
X0194736Y0017278D01*
X0204726Y0017278D02*
X0211674Y0017278D01*
X0212345Y0017000D02*
X0214055Y0017000D01*
X0215636Y0017655D01*
X0216845Y0018864D01*
X0217500Y0020445D01*
X0217500Y0028155D01*
X0217000Y0029362D01*
X0217000Y0042056D01*
X0216421Y0043453D01*
X0215353Y0044521D01*
X0183353Y0076521D01*
X0181956Y0077100D01*
X0180444Y0077100D01*
X0179047Y0076521D01*
X0177979Y0075453D01*
X0177400Y0074056D01*
X0177400Y0072544D01*
X0177979Y0071147D01*
X0209400Y0039726D01*
X0209400Y0029362D01*
X0208900Y0028155D01*
X0208900Y0020445D01*
X0209555Y0018864D01*
X0210764Y0017655D01*
X0212345Y0017000D01*
X0210543Y0017876D02*
X0205857Y0017876D01*
X0206456Y0018475D02*
X0209944Y0018475D01*
X0209468Y0019073D02*
X0206932Y0019073D01*
X0207180Y0019672D02*
X0209220Y0019672D01*
X0208972Y0020270D02*
X0207428Y0020270D01*
X0207500Y0020869D02*
X0208900Y0020869D01*
X0208900Y0021467D02*
X0207500Y0021467D01*
X0207500Y0022066D02*
X0208900Y0022066D01*
X0208900Y0022664D02*
X0207500Y0022664D01*
X0207500Y0023263D02*
X0208900Y0023263D01*
X0208900Y0023861D02*
X0207500Y0023861D01*
X0207500Y0024460D02*
X0208900Y0024460D01*
X0208900Y0025058D02*
X0207500Y0025058D01*
X0207500Y0025657D02*
X0208900Y0025657D01*
X0208900Y0026255D02*
X0207500Y0026255D01*
X0207500Y0026854D02*
X0208900Y0026854D01*
X0208900Y0027452D02*
X0207500Y0027452D01*
X0207500Y0028051D02*
X0208900Y0028051D01*
X0209105Y0028649D02*
X0207295Y0028649D01*
X0207047Y0029248D02*
X0209353Y0029248D01*
X0209400Y0029846D02*
X0207000Y0029846D01*
X0207000Y0030445D02*
X0209400Y0030445D01*
X0209400Y0031043D02*
X0207000Y0031043D01*
X0206757Y0031642D02*
X0209400Y0031642D01*
X0209400Y0032240D02*
X0206509Y0032240D01*
X0206035Y0032839D02*
X0209400Y0032839D01*
X0209400Y0033437D02*
X0205437Y0033437D01*
X0204838Y0034036D02*
X0209400Y0034036D01*
X0209400Y0034634D02*
X0204239Y0034634D01*
X0203641Y0035233D02*
X0209400Y0035233D01*
X0209400Y0035832D02*
X0203042Y0035832D01*
X0202444Y0036430D02*
X0209400Y0036430D01*
X0209400Y0037029D02*
X0201845Y0037029D01*
X0201247Y0037627D02*
X0209400Y0037627D01*
X0209400Y0038226D02*
X0200648Y0038226D01*
X0200050Y0038824D02*
X0209400Y0038824D01*
X0209400Y0039423D02*
X0199451Y0039423D01*
X0198853Y0040021D02*
X0209105Y0040021D01*
X0208506Y0040620D02*
X0198254Y0040620D01*
X0197656Y0041218D02*
X0207908Y0041218D01*
X0207309Y0041817D02*
X0197057Y0041817D01*
X0196459Y0042415D02*
X0206711Y0042415D01*
X0206112Y0043014D02*
X0195860Y0043014D01*
X0195262Y0043612D02*
X0205514Y0043612D01*
X0204915Y0044211D02*
X0194663Y0044211D01*
X0194065Y0044809D02*
X0204317Y0044809D01*
X0203718Y0045408D02*
X0193466Y0045408D01*
X0192868Y0046006D02*
X0203120Y0046006D01*
X0202521Y0046605D02*
X0192269Y0046605D01*
X0191671Y0047203D02*
X0201923Y0047203D01*
X0201324Y0047802D02*
X0191072Y0047802D01*
X0190474Y0048400D02*
X0200726Y0048400D01*
X0200127Y0048999D02*
X0189875Y0048999D01*
X0189277Y0049597D02*
X0199529Y0049597D01*
X0198930Y0050196D02*
X0188678Y0050196D01*
X0188080Y0050794D02*
X0198332Y0050794D01*
X0197733Y0051393D02*
X0187481Y0051393D01*
X0186883Y0051991D02*
X0197135Y0051991D01*
X0196536Y0052590D02*
X0186284Y0052590D01*
X0185686Y0053188D02*
X0195938Y0053188D01*
X0195339Y0053787D02*
X0185087Y0053787D01*
X0184489Y0054385D02*
X0194741Y0054385D01*
X0194142Y0054984D02*
X0183890Y0054984D01*
X0183292Y0055582D02*
X0193544Y0055582D01*
X0192945Y0056181D02*
X0182693Y0056181D01*
X0182095Y0056779D02*
X0192347Y0056779D01*
X0191748Y0057378D02*
X0181496Y0057378D01*
X0180898Y0057976D02*
X0191150Y0057976D01*
X0190551Y0058575D02*
X0180299Y0058575D01*
X0179701Y0059173D02*
X0189953Y0059173D01*
X0189354Y0059772D02*
X0179102Y0059772D01*
X0178504Y0060370D02*
X0188755Y0060370D01*
X0188157Y0060969D02*
X0177905Y0060969D01*
X0177306Y0061568D02*
X0187558Y0061568D01*
X0186960Y0062166D02*
X0176708Y0062166D01*
X0176109Y0062765D02*
X0186361Y0062765D01*
X0185763Y0063363D02*
X0175511Y0063363D01*
X0174912Y0063962D02*
X0185164Y0063962D01*
X0184566Y0064560D02*
X0174314Y0064560D01*
X0173740Y0065159D02*
X0183967Y0065159D01*
X0183369Y0065757D02*
X0173740Y0065757D01*
X0173740Y0066356D02*
X0182770Y0066356D01*
X0182172Y0066954D02*
X0173740Y0066954D01*
X0173740Y0067553D02*
X0181573Y0067553D01*
X0180975Y0068151D02*
X0173740Y0068151D01*
X0173740Y0068750D02*
X0180376Y0068750D01*
X0179778Y0069348D02*
X0173740Y0069348D01*
X0173740Y0069947D02*
X0179179Y0069947D01*
X0178581Y0070545D02*
X0173740Y0070545D01*
X0173740Y0071144D02*
X0177982Y0071144D01*
X0177732Y0071742D02*
X0173740Y0071742D01*
X0173740Y0072341D02*
X0177484Y0072341D01*
X0177400Y0072939D02*
X0173740Y0072939D01*
X0173740Y0073538D02*
X0177400Y0073538D01*
X0177433Y0074136D02*
X0173740Y0074136D01*
X0173740Y0074735D02*
X0177681Y0074735D01*
X0177929Y0075333D02*
X0173740Y0075333D01*
X0173740Y0075932D02*
X0178458Y0075932D01*
X0179069Y0076530D02*
X0173740Y0076530D01*
X0173740Y0077129D02*
X0388821Y0077129D01*
X0388821Y0077727D02*
X0173740Y0077727D01*
X0173740Y0078326D02*
X0388821Y0078326D01*
X0388821Y0078924D02*
X0173740Y0078924D01*
X0173740Y0079523D02*
X0388821Y0079523D01*
X0388821Y0080121D02*
X0173799Y0080121D01*
X0173799Y0080720D02*
X0388821Y0080720D01*
X0388821Y0081318D02*
X0173799Y0081318D01*
X0173931Y0081917D02*
X0388821Y0081917D01*
X0388821Y0082515D02*
X0174530Y0082515D01*
X0175128Y0083114D02*
X0388821Y0083114D01*
X0388821Y0083712D02*
X0175727Y0083712D01*
X0176325Y0084311D02*
X0388821Y0084311D01*
X0388821Y0084909D02*
X0176924Y0084909D01*
X0177522Y0085508D02*
X0388821Y0085508D01*
X0388821Y0086106D02*
X0178121Y0086106D01*
X0178719Y0086705D02*
X0388821Y0086705D01*
X0388821Y0087303D02*
X0179318Y0087303D01*
X0179916Y0087902D02*
X0388821Y0087902D01*
X0388821Y0088501D02*
X0180515Y0088501D01*
X0181113Y0089099D02*
X0388821Y0089099D01*
X0388821Y0089698D02*
X0181712Y0089698D01*
X0182310Y0090296D02*
X0388821Y0090296D01*
X0388821Y0090895D02*
X0182909Y0090895D01*
X0183507Y0091493D02*
X0388821Y0091493D01*
X0388821Y0092092D02*
X0184106Y0092092D01*
X0184704Y0092690D02*
X0388821Y0092690D01*
X0388821Y0093289D02*
X0185303Y0093289D01*
X0185901Y0093887D02*
X0388821Y0093887D01*
X0388821Y0094486D02*
X0186500Y0094486D01*
X0187098Y0095084D02*
X0388821Y0095084D01*
X0388821Y0095683D02*
X0351752Y0095683D01*
X0352138Y0096281D02*
X0388821Y0096281D01*
X0388821Y0096880D02*
X0352138Y0096880D01*
X0352138Y0097478D02*
X0388821Y0097478D01*
X0388821Y0098077D02*
X0352138Y0098077D01*
X0352138Y0098675D02*
X0355229Y0098675D01*
X0355158Y0098716D02*
X0355454Y0098545D01*
X0355785Y0098457D01*
X0358018Y0098457D01*
X0358018Y0103000D01*
X0354656Y0103000D01*
X0354656Y0099586D01*
X0354745Y0099255D01*
X0354916Y0098958D01*
X0355158Y0098716D01*
X0354739Y0099274D02*
X0352138Y0099274D01*
X0352138Y0099872D02*
X0354656Y0099872D01*
X0354656Y0100471D02*
X0352138Y0100471D01*
X0352138Y0101069D02*
X0354656Y0101069D01*
X0354656Y0101668D02*
X0352138Y0101668D01*
X0351741Y0102266D02*
X0354656Y0102266D01*
X0354656Y0102865D02*
X0187088Y0102865D01*
X0186489Y0103463D02*
X0358018Y0103463D01*
X0358018Y0103600D02*
X0358018Y0103000D01*
X0358618Y0103000D01*
X0358618Y0098457D01*
X0360851Y0098457D01*
X0361182Y0098545D01*
X0361479Y0098716D01*
X0361721Y0098958D01*
X0361892Y0099255D01*
X0361980Y0099586D01*
X0361980Y0103000D01*
X0358618Y0103000D01*
X0358618Y0103600D01*
X0358018Y0103600D01*
X0354656Y0103600D01*
X0354656Y0107014D01*
X0354745Y0107345D01*
X0354916Y0107642D01*
X0355158Y0107884D01*
X0355454Y0108055D01*
X0355785Y0108143D01*
X0358018Y0108143D01*
X0358018Y0103600D01*
X0358018Y0104062D02*
X0358618Y0104062D01*
X0358618Y0103600D02*
X0358618Y0108143D01*
X0360851Y0108143D01*
X0361182Y0108055D01*
X0361479Y0107884D01*
X0361721Y0107642D01*
X0361892Y0107345D01*
X0361980Y0107014D01*
X0361980Y0103600D01*
X0358618Y0103600D01*
X0358618Y0103463D02*
X0388821Y0103463D01*
X0388821Y0102865D02*
X0361980Y0102865D01*
X0361980Y0102266D02*
X0388821Y0102266D01*
X0388821Y0101668D02*
X0361980Y0101668D01*
X0361980Y0101069D02*
X0388821Y0101069D01*
X0388821Y0100471D02*
X0361980Y0100471D01*
X0361980Y0099872D02*
X0388821Y0099872D01*
X0388821Y0099274D02*
X0361897Y0099274D01*
X0361407Y0098675D02*
X0388821Y0098675D01*
X0388821Y0104062D02*
X0361980Y0104062D01*
X0361980Y0104660D02*
X0388821Y0104660D01*
X0388821Y0105259D02*
X0361980Y0105259D01*
X0361980Y0105857D02*
X0388821Y0105857D01*
X0388821Y0106456D02*
X0361980Y0106456D01*
X0361970Y0107054D02*
X0388821Y0107054D01*
X0388821Y0107653D02*
X0361709Y0107653D01*
X0358618Y0107653D02*
X0358018Y0107653D01*
X0358018Y0107054D02*
X0358618Y0107054D01*
X0358618Y0106456D02*
X0358018Y0106456D01*
X0358018Y0105857D02*
X0358618Y0105857D01*
X0358618Y0105259D02*
X0358018Y0105259D01*
X0358018Y0104660D02*
X0358618Y0104660D01*
X0358618Y0102865D02*
X0358018Y0102865D01*
X0358018Y0102266D02*
X0358618Y0102266D01*
X0358618Y0101668D02*
X0358018Y0101668D01*
X0358018Y0101069D02*
X0358618Y0101069D01*
X0358618Y0100471D02*
X0358018Y0100471D01*
X0358018Y0099872D02*
X0358618Y0099872D01*
X0358618Y0099274D02*
X0358018Y0099274D01*
X0358018Y0098675D02*
X0358618Y0098675D01*
X0354656Y0104062D02*
X0351470Y0104062D01*
X0352068Y0104660D02*
X0354656Y0104660D01*
X0354656Y0105259D02*
X0352138Y0105259D01*
X0352138Y0105857D02*
X0354656Y0105857D01*
X0354656Y0106456D02*
X0352138Y0106456D01*
X0352138Y0107054D02*
X0354667Y0107054D01*
X0354927Y0107653D02*
X0352138Y0107653D01*
X0352138Y0108251D02*
X0388821Y0108251D01*
X0388821Y0108850D02*
X0352138Y0108850D01*
X0352138Y0109448D02*
X0388821Y0109448D01*
X0388821Y0110047D02*
X0352138Y0110047D01*
X0352024Y0110645D02*
X0388821Y0110645D01*
X0388821Y0111244D02*
X0351882Y0111244D01*
X0352179Y0111842D02*
X0388821Y0111842D01*
X0388821Y0112441D02*
X0352606Y0112441D01*
X0352854Y0113039D02*
X0388821Y0113039D01*
X0388821Y0113638D02*
X0353063Y0113638D01*
X0353063Y0114237D02*
X0388821Y0114237D01*
X0388821Y0114835D02*
X0353063Y0114835D01*
X0353063Y0115434D02*
X0388821Y0115434D01*
X0388821Y0116032D02*
X0353063Y0116032D01*
X0353063Y0116631D02*
X0388821Y0116631D01*
X0388821Y0117229D02*
X0353063Y0117229D01*
X0353063Y0117828D02*
X0388821Y0117828D01*
X0388821Y0118426D02*
X0360779Y0118426D01*
X0360736Y0118352D02*
X0360907Y0118649D01*
X0360996Y0118979D01*
X0360996Y0122000D01*
X0357437Y0122000D01*
X0357437Y0122600D01*
X0356837Y0122600D01*
X0356837Y0126750D01*
X0354407Y0126750D01*
X0354076Y0126661D01*
X0353780Y0126490D01*
X0353538Y0126248D01*
X0353367Y0125951D01*
X0353278Y0125621D01*
X0353278Y0122600D01*
X0356837Y0122600D01*
X0356837Y0122000D01*
X0353278Y0122000D01*
X0353278Y0118979D01*
X0353367Y0118649D01*
X0353538Y0118352D01*
X0353780Y0118110D01*
X0354076Y0117939D01*
X0354407Y0117850D01*
X0356837Y0117850D01*
X0356837Y0122000D01*
X0357437Y0122000D01*
X0357437Y0117850D01*
X0359867Y0117850D01*
X0360198Y0117939D01*
X0360494Y0118110D01*
X0360736Y0118352D01*
X0360996Y0119025D02*
X0388821Y0119025D01*
X0388821Y0119623D02*
X0360996Y0119623D01*
X0360996Y0120222D02*
X0388821Y0120222D01*
X0388821Y0120820D02*
X0360996Y0120820D01*
X0360996Y0121419D02*
X0388821Y0121419D01*
X0388821Y0122017D02*
X0357437Y0122017D01*
X0357437Y0122600D02*
X0360996Y0122600D01*
X0360996Y0125621D01*
X0360907Y0125951D01*
X0360736Y0126248D01*
X0360494Y0126490D01*
X0360198Y0126661D01*
X0359867Y0126750D01*
X0357437Y0126750D01*
X0357437Y0122600D01*
X0357437Y0122616D02*
X0356837Y0122616D01*
X0356837Y0123214D02*
X0357437Y0123214D01*
X0357437Y0123813D02*
X0356837Y0123813D01*
X0356837Y0124411D02*
X0357437Y0124411D01*
X0357437Y0125010D02*
X0356837Y0125010D01*
X0356837Y0125608D02*
X0357437Y0125608D01*
X0357437Y0126207D02*
X0356837Y0126207D01*
X0353514Y0126207D02*
X0352903Y0126207D01*
X0353122Y0125608D02*
X0353278Y0125608D01*
X0353278Y0125010D02*
X0353122Y0125010D01*
X0353122Y0124411D02*
X0353278Y0124411D01*
X0353278Y0123813D02*
X0353122Y0123813D01*
X0353122Y0123214D02*
X0353278Y0123214D01*
X0353278Y0122616D02*
X0353122Y0122616D01*
X0353122Y0122017D02*
X0356837Y0122017D01*
X0356837Y0121419D02*
X0357437Y0121419D01*
X0357437Y0120820D02*
X0356837Y0120820D01*
X0356837Y0120222D02*
X0357437Y0120222D01*
X0357437Y0119623D02*
X0356837Y0119623D01*
X0356837Y0119025D02*
X0357437Y0119025D01*
X0357437Y0118426D02*
X0356837Y0118426D01*
X0353495Y0118426D02*
X0353063Y0118426D01*
X0353122Y0119025D02*
X0353278Y0119025D01*
X0353278Y0119623D02*
X0353122Y0119623D01*
X0353122Y0120222D02*
X0353278Y0120222D01*
X0353278Y0120820D02*
X0353122Y0120820D01*
X0353122Y0121419D02*
X0353278Y0121419D01*
X0360996Y0122616D02*
X0388821Y0122616D01*
X0388821Y0123214D02*
X0360996Y0123214D01*
X0360996Y0123813D02*
X0388821Y0123813D01*
X0388821Y0124411D02*
X0360996Y0124411D01*
X0360996Y0125010D02*
X0388821Y0125010D01*
X0388821Y0125608D02*
X0360996Y0125608D01*
X0360760Y0126207D02*
X0388821Y0126207D01*
X0388821Y0126805D02*
X0168000Y0126805D01*
X0168000Y0126207D02*
X0345623Y0126207D01*
X0345404Y0125608D02*
X0168000Y0125608D01*
X0168000Y0125010D02*
X0345404Y0125010D01*
X0345404Y0124411D02*
X0168000Y0124411D01*
X0168000Y0123813D02*
X0345404Y0123813D01*
X0345404Y0123214D02*
X0168000Y0123214D01*
X0168000Y0122616D02*
X0345404Y0122616D01*
X0345404Y0122017D02*
X0168000Y0122017D01*
X0168000Y0121419D02*
X0345404Y0121419D01*
X0345404Y0120820D02*
X0168000Y0120820D01*
X0168000Y0120222D02*
X0345404Y0120222D01*
X0345404Y0119623D02*
X0168000Y0119623D01*
X0168000Y0119025D02*
X0345404Y0119025D01*
X0345463Y0118426D02*
X0168000Y0118426D01*
X0168000Y0117828D02*
X0345463Y0117828D01*
X0344282Y0111842D02*
X0177656Y0111842D01*
X0178709Y0111244D02*
X0344282Y0111244D01*
X0344140Y0110645D02*
X0179307Y0110645D01*
X0179906Y0110047D02*
X0344026Y0110047D01*
X0344026Y0109448D02*
X0180504Y0109448D01*
X0181103Y0108850D02*
X0344026Y0108850D01*
X0344026Y0108251D02*
X0181701Y0108251D01*
X0182300Y0107653D02*
X0344026Y0107653D01*
X0344026Y0107054D02*
X0182898Y0107054D01*
X0183497Y0106456D02*
X0344026Y0106456D01*
X0344026Y0105857D02*
X0184095Y0105857D01*
X0184694Y0105259D02*
X0344026Y0105259D01*
X0344096Y0104660D02*
X0185292Y0104660D01*
X0185891Y0104062D02*
X0344694Y0104062D01*
X0388821Y0127404D02*
X0168000Y0127404D01*
X0168000Y0128002D02*
X0388821Y0128002D01*
X0388821Y0128601D02*
X0168000Y0128601D01*
X0168000Y0129199D02*
X0388821Y0129199D01*
X0388821Y0129798D02*
X0168000Y0129798D01*
X0168000Y0130396D02*
X0388821Y0130396D01*
X0388821Y0130995D02*
X0168000Y0130995D01*
X0168000Y0131593D02*
X0388821Y0131593D01*
X0388821Y0132192D02*
X0168000Y0132192D01*
X0168000Y0132790D02*
X0388821Y0132790D01*
X0388821Y0133389D02*
X0168000Y0133389D01*
X0168261Y0133987D02*
X0388821Y0133987D01*
X0388821Y0134586D02*
X0168860Y0134586D01*
X0169458Y0135184D02*
X0388821Y0135184D01*
X0388821Y0135783D02*
X0170057Y0135783D01*
X0170655Y0136381D02*
X0325157Y0136381D01*
X0326581Y0136000D02*
X0329819Y0136000D01*
X0332948Y0136838D01*
X0335752Y0138458D01*
X0338042Y0140748D01*
X0339662Y0143552D01*
X0340500Y0146681D01*
X0340500Y0149919D01*
X0339662Y0153048D01*
X0338042Y0155852D01*
X0335752Y0158142D01*
X0332948Y0159762D01*
X0329819Y0160600D01*
X0326581Y0160600D01*
X0323452Y0159762D01*
X0320648Y0158142D01*
X0318358Y0155852D01*
X0316738Y0153048D01*
X0315900Y0149919D01*
X0315900Y0146681D01*
X0316738Y0143552D01*
X0318358Y0140748D01*
X0320648Y0138458D01*
X0323452Y0136838D01*
X0326581Y0136000D01*
X0323207Y0136980D02*
X0171254Y0136980D01*
X0171852Y0137578D02*
X0322170Y0137578D01*
X0321134Y0138177D02*
X0172451Y0138177D01*
X0173049Y0138775D02*
X0320330Y0138775D01*
X0319731Y0139374D02*
X0173648Y0139374D01*
X0174246Y0139972D02*
X0319133Y0139972D01*
X0318534Y0140571D02*
X0174845Y0140571D01*
X0175444Y0141170D02*
X0318114Y0141170D01*
X0317768Y0141768D02*
X0176042Y0141768D01*
X0176641Y0142367D02*
X0317423Y0142367D01*
X0317077Y0142965D02*
X0177239Y0142965D01*
X0177838Y0143564D02*
X0316735Y0143564D01*
X0316575Y0144162D02*
X0178436Y0144162D01*
X0179035Y0144761D02*
X0316414Y0144761D01*
X0316254Y0145359D02*
X0179633Y0145359D01*
X0180232Y0145958D02*
X0316094Y0145958D01*
X0315933Y0146556D02*
X0180830Y0146556D01*
X0181429Y0147155D02*
X0315900Y0147155D01*
X0315900Y0147753D02*
X0182027Y0147753D01*
X0182626Y0148352D02*
X0315900Y0148352D01*
X0315900Y0148950D02*
X0183224Y0148950D01*
X0183823Y0149549D02*
X0315900Y0149549D01*
X0315961Y0150147D02*
X0184421Y0150147D01*
X0185020Y0150746D02*
X0316121Y0150746D01*
X0316282Y0151344D02*
X0185618Y0151344D01*
X0186217Y0151943D02*
X0316442Y0151943D01*
X0316603Y0152541D02*
X0186815Y0152541D01*
X0187414Y0153140D02*
X0316791Y0153140D01*
X0317137Y0153738D02*
X0188012Y0153738D01*
X0188611Y0154337D02*
X0317483Y0154337D01*
X0317828Y0154935D02*
X0189209Y0154935D01*
X0189808Y0155534D02*
X0318174Y0155534D01*
X0318637Y0156132D02*
X0190406Y0156132D01*
X0191005Y0156731D02*
X0319236Y0156731D01*
X0319834Y0157329D02*
X0191603Y0157329D01*
X0192202Y0157928D02*
X0320433Y0157928D01*
X0321313Y0158526D02*
X0192800Y0158526D01*
X0193399Y0159125D02*
X0322349Y0159125D01*
X0323386Y0159723D02*
X0193997Y0159723D01*
X0194596Y0160322D02*
X0325543Y0160322D01*
X0330857Y0160322D02*
X0375543Y0160322D01*
X0373386Y0159723D02*
X0333014Y0159723D01*
X0334051Y0159125D02*
X0372349Y0159125D01*
X0371313Y0158526D02*
X0335087Y0158526D01*
X0335967Y0157928D02*
X0370433Y0157928D01*
X0369834Y0157329D02*
X0336566Y0157329D01*
X0337164Y0156731D02*
X0369236Y0156731D01*
X0368637Y0156132D02*
X0337763Y0156132D01*
X0338226Y0155534D02*
X0368174Y0155534D01*
X0367828Y0154935D02*
X0338572Y0154935D01*
X0338917Y0154337D02*
X0367483Y0154337D01*
X0367137Y0153738D02*
X0339263Y0153738D01*
X0339609Y0153140D02*
X0366791Y0153140D01*
X0366603Y0152541D02*
X0339797Y0152541D01*
X0339958Y0151943D02*
X0366442Y0151943D01*
X0366282Y0151344D02*
X0340118Y0151344D01*
X0340279Y0150746D02*
X0366121Y0150746D01*
X0365961Y0150147D02*
X0340439Y0150147D01*
X0340500Y0149549D02*
X0365900Y0149549D01*
X0365900Y0148950D02*
X0340500Y0148950D01*
X0340500Y0148352D02*
X0365900Y0148352D01*
X0365900Y0147753D02*
X0340500Y0147753D01*
X0340500Y0147155D02*
X0365900Y0147155D01*
X0365933Y0146556D02*
X0340467Y0146556D01*
X0340306Y0145958D02*
X0366094Y0145958D01*
X0366254Y0145359D02*
X0340146Y0145359D01*
X0339985Y0144761D02*
X0366414Y0144761D01*
X0366575Y0144162D02*
X0339825Y0144162D01*
X0339665Y0143564D02*
X0366735Y0143564D01*
X0367077Y0142965D02*
X0339323Y0142965D01*
X0338977Y0142367D02*
X0367423Y0142367D01*
X0367768Y0141768D02*
X0338632Y0141768D01*
X0338286Y0141170D02*
X0368114Y0141170D01*
X0368534Y0140571D02*
X0337866Y0140571D01*
X0337267Y0139972D02*
X0369133Y0139972D01*
X0369731Y0139374D02*
X0336669Y0139374D01*
X0336070Y0138775D02*
X0370330Y0138775D01*
X0371134Y0138177D02*
X0335266Y0138177D01*
X0334230Y0137578D02*
X0372170Y0137578D01*
X0373207Y0136980D02*
X0333193Y0136980D01*
X0331243Y0136381D02*
X0375157Y0136381D01*
X0381243Y0136381D02*
X0388821Y0136381D01*
X0388821Y0136980D02*
X0383193Y0136980D01*
X0384230Y0137578D02*
X0388821Y0137578D01*
X0388821Y0138177D02*
X0385266Y0138177D01*
X0386070Y0138775D02*
X0388821Y0138775D01*
X0388821Y0139374D02*
X0386669Y0139374D01*
X0387267Y0139972D02*
X0388821Y0139972D01*
X0388821Y0140571D02*
X0387866Y0140571D01*
X0388286Y0141170D02*
X0388821Y0141170D01*
X0388821Y0141768D02*
X0388632Y0141768D01*
X0388572Y0154935D02*
X0388821Y0154935D01*
X0388821Y0155534D02*
X0388226Y0155534D01*
X0387763Y0156132D02*
X0388821Y0156132D01*
X0388821Y0156731D02*
X0387164Y0156731D01*
X0386566Y0157329D02*
X0388821Y0157329D01*
X0388821Y0157928D02*
X0385967Y0157928D01*
X0385087Y0158526D02*
X0388821Y0158526D01*
X0388821Y0159125D02*
X0384051Y0159125D01*
X0383014Y0159723D02*
X0388821Y0159723D01*
X0388821Y0160322D02*
X0380857Y0160322D01*
X0388821Y0160920D02*
X0195194Y0160920D01*
X0195793Y0161519D02*
X0274644Y0161519D01*
X0273452Y0161838D02*
X0276581Y0161000D01*
X0279819Y0161000D01*
X0282948Y0161838D01*
X0285752Y0163458D01*
X0288042Y0165748D01*
X0289662Y0168552D01*
X0290500Y0171681D01*
X0290500Y0174919D01*
X0289662Y0178048D01*
X0288042Y0180852D01*
X0285752Y0183142D01*
X0282948Y0184762D01*
X0279819Y0185600D01*
X0276581Y0185600D01*
X0273452Y0184762D01*
X0270648Y0183142D01*
X0268358Y0180852D01*
X0266738Y0178048D01*
X0265900Y0174919D01*
X0265900Y0171681D01*
X0266738Y0168552D01*
X0268358Y0165748D01*
X0270648Y0163458D01*
X0273452Y0161838D01*
X0272969Y0162117D02*
X0196391Y0162117D01*
X0196657Y0162716D02*
X0271932Y0162716D01*
X0270895Y0163314D02*
X0196905Y0163314D01*
X0197000Y0163913D02*
X0270192Y0163913D01*
X0269594Y0164511D02*
X0197000Y0164511D01*
X0197000Y0165110D02*
X0268995Y0165110D01*
X0268397Y0165708D02*
X0197000Y0165708D01*
X0197000Y0166307D02*
X0268035Y0166307D01*
X0267689Y0166905D02*
X0197000Y0166905D01*
X0197000Y0167504D02*
X0267343Y0167504D01*
X0266998Y0168103D02*
X0197000Y0168103D01*
X0197000Y0168701D02*
X0266698Y0168701D01*
X0266538Y0169300D02*
X0197000Y0169300D01*
X0197000Y0169898D02*
X0266378Y0169898D01*
X0266217Y0170497D02*
X0197000Y0170497D01*
X0197000Y0171095D02*
X0266057Y0171095D01*
X0265900Y0171694D02*
X0197000Y0171694D01*
X0197000Y0172292D02*
X0265900Y0172292D01*
X0265900Y0172891D02*
X0197000Y0172891D01*
X0197000Y0173489D02*
X0265900Y0173489D01*
X0265900Y0174088D02*
X0197000Y0174088D01*
X0197000Y0174686D02*
X0265900Y0174686D01*
X0265998Y0175285D02*
X0214743Y0175285D01*
X0214055Y0175000D02*
X0215636Y0175655D01*
X0216845Y0176864D01*
X0217500Y0178445D01*
X0217500Y0186155D01*
X0216845Y0187736D01*
X0215636Y0188945D01*
X0214055Y0189600D01*
X0212345Y0189600D01*
X0210764Y0188945D01*
X0209555Y0187736D01*
X0208900Y0186155D01*
X0208900Y0178445D01*
X0209555Y0176864D01*
X0210764Y0175655D01*
X0212345Y0175000D01*
X0214055Y0175000D01*
X0215864Y0175883D02*
X0266158Y0175883D01*
X0266319Y0176482D02*
X0216463Y0176482D01*
X0216935Y0177080D02*
X0266479Y0177080D01*
X0266639Y0177679D02*
X0217183Y0177679D01*
X0217431Y0178277D02*
X0266871Y0178277D01*
X0267216Y0178876D02*
X0217500Y0178876D01*
X0217500Y0179474D02*
X0267562Y0179474D01*
X0267907Y0180073D02*
X0217500Y0180073D01*
X0217500Y0180671D02*
X0268253Y0180671D01*
X0268775Y0181270D02*
X0217500Y0181270D01*
X0217500Y0181868D02*
X0269373Y0181868D01*
X0269972Y0182467D02*
X0217500Y0182467D01*
X0217500Y0183065D02*
X0270570Y0183065D01*
X0271551Y0183664D02*
X0217500Y0183664D01*
X0217500Y0184262D02*
X0272587Y0184262D01*
X0273822Y0184861D02*
X0217500Y0184861D01*
X0217500Y0185459D02*
X0276056Y0185459D01*
X0280344Y0185459D02*
X0388821Y0185459D01*
X0388821Y0184861D02*
X0282578Y0184861D01*
X0283813Y0184262D02*
X0388821Y0184262D01*
X0388821Y0183664D02*
X0284849Y0183664D01*
X0285830Y0183065D02*
X0388821Y0183065D01*
X0388821Y0182467D02*
X0286428Y0182467D01*
X0287027Y0181868D02*
X0388821Y0181868D01*
X0388821Y0181270D02*
X0287625Y0181270D01*
X0288147Y0180671D02*
X0388821Y0180671D01*
X0388821Y0180073D02*
X0288493Y0180073D01*
X0288838Y0179474D02*
X0388821Y0179474D01*
X0388821Y0178876D02*
X0289184Y0178876D01*
X0289529Y0178277D02*
X0388821Y0178277D01*
X0388821Y0177679D02*
X0289761Y0177679D01*
X0289921Y0177080D02*
X0388821Y0177080D01*
X0388821Y0176482D02*
X0290081Y0176482D01*
X0290242Y0175883D02*
X0388821Y0175883D01*
X0388821Y0175285D02*
X0290402Y0175285D01*
X0290500Y0174686D02*
X0388821Y0174686D01*
X0388821Y0174088D02*
X0290500Y0174088D01*
X0290500Y0173489D02*
X0388821Y0173489D01*
X0388821Y0172891D02*
X0290500Y0172891D01*
X0290500Y0172292D02*
X0388821Y0172292D01*
X0388821Y0171694D02*
X0290500Y0171694D01*
X0290343Y0171095D02*
X0388821Y0171095D01*
X0388821Y0170497D02*
X0290183Y0170497D01*
X0290022Y0169898D02*
X0388821Y0169898D01*
X0388821Y0169300D02*
X0289862Y0169300D01*
X0289702Y0168701D02*
X0388821Y0168701D01*
X0388821Y0168103D02*
X0289402Y0168103D01*
X0289056Y0167504D02*
X0388821Y0167504D01*
X0388821Y0166905D02*
X0288711Y0166905D01*
X0288365Y0166307D02*
X0388821Y0166307D01*
X0388821Y0165708D02*
X0288003Y0165708D01*
X0287405Y0165110D02*
X0388821Y0165110D01*
X0388821Y0164511D02*
X0286806Y0164511D01*
X0286208Y0163913D02*
X0388821Y0163913D01*
X0388821Y0163314D02*
X0285504Y0163314D01*
X0284468Y0162716D02*
X0388821Y0162716D01*
X0388821Y0162117D02*
X0283431Y0162117D01*
X0281756Y0161519D02*
X0388821Y0161519D01*
X0388821Y0186058D02*
X0217500Y0186058D01*
X0217292Y0186656D02*
X0388821Y0186656D01*
X0388821Y0187255D02*
X0217045Y0187255D01*
X0216728Y0187853D02*
X0388821Y0187853D01*
X0388821Y0188452D02*
X0216129Y0188452D01*
X0215382Y0189050D02*
X0388821Y0189050D01*
X0388821Y0189649D02*
X0122200Y0189649D01*
X0122200Y0190247D02*
X0388821Y0190247D01*
X0388821Y0190846D02*
X0122200Y0190846D01*
X0122200Y0191444D02*
X0388821Y0191444D01*
X0388821Y0192043D02*
X0122200Y0192043D01*
X0122200Y0192641D02*
X0388821Y0192641D01*
X0388821Y0193240D02*
X0122200Y0193240D01*
X0115200Y0193240D02*
X0085200Y0193240D01*
X0085200Y0193701D02*
X0115200Y0193701D01*
X0115200Y0134300D01*
X0106200Y0125300D01*
X0106200Y0081300D01*
X0115200Y0072300D01*
X0115200Y0012600D01*
X0085200Y0012600D01*
X0085200Y0193701D01*
X0085200Y0192641D02*
X0115200Y0192641D01*
X0115200Y0192043D02*
X0085200Y0192043D01*
X0085200Y0191444D02*
X0115200Y0191444D01*
X0115200Y0190846D02*
X0085200Y0190846D01*
X0085200Y0190247D02*
X0115200Y0190247D01*
X0115200Y0189649D02*
X0085200Y0189649D01*
X0085200Y0189050D02*
X0115200Y0189050D01*
X0115200Y0188452D02*
X0085200Y0188452D01*
X0085200Y0187853D02*
X0115200Y0187853D01*
X0115200Y0187255D02*
X0085200Y0187255D01*
X0085200Y0186656D02*
X0115200Y0186656D01*
X0115200Y0186058D02*
X0085200Y0186058D01*
X0085200Y0185459D02*
X0115200Y0185459D01*
X0115200Y0184861D02*
X0085200Y0184861D01*
X0085200Y0184262D02*
X0115200Y0184262D01*
X0115200Y0183664D02*
X0085200Y0183664D01*
X0085200Y0183065D02*
X0115200Y0183065D01*
X0115200Y0182467D02*
X0085200Y0182467D01*
X0085200Y0181868D02*
X0115200Y0181868D01*
X0115200Y0181270D02*
X0085200Y0181270D01*
X0085200Y0180671D02*
X0115200Y0180671D01*
X0115200Y0180073D02*
X0085200Y0180073D01*
X0085200Y0179474D02*
X0092386Y0179474D01*
X0092285Y0179373D02*
X0092114Y0179077D01*
X0092025Y0178746D01*
X0092025Y0174000D01*
X0097900Y0174000D01*
X0097900Y0179875D01*
X0093154Y0179875D01*
X0092823Y0179786D01*
X0092527Y0179615D01*
X0092285Y0179373D01*
X0092060Y0178876D02*
X0085200Y0178876D01*
X0085200Y0178277D02*
X0092025Y0178277D01*
X0092025Y0177679D02*
X0085200Y0177679D01*
X0085200Y0177080D02*
X0092025Y0177080D01*
X0092025Y0176482D02*
X0085200Y0176482D01*
X0085200Y0175883D02*
X0092025Y0175883D01*
X0092025Y0175285D02*
X0085200Y0175285D01*
X0085200Y0174686D02*
X0092025Y0174686D01*
X0092025Y0174088D02*
X0085200Y0174088D01*
X0085200Y0173489D02*
X0097900Y0173489D01*
X0097900Y0173400D02*
X0092025Y0173400D01*
X0092025Y0168654D01*
X0092114Y0168323D01*
X0092285Y0168027D01*
X0092527Y0167785D01*
X0092823Y0167614D01*
X0093154Y0167525D01*
X0097900Y0167525D01*
X0097900Y0173400D01*
X0097900Y0174000D01*
X0098500Y0174000D01*
X0098500Y0179875D01*
X0103246Y0179875D01*
X0103577Y0179786D01*
X0103873Y0179615D01*
X0104115Y0179373D01*
X0104286Y0179077D01*
X0104375Y0178746D01*
X0104375Y0174000D01*
X0098500Y0174000D01*
X0098500Y0173400D01*
X0104375Y0173400D01*
X0104375Y0168654D01*
X0104286Y0168323D01*
X0104115Y0168027D01*
X0103873Y0167785D01*
X0103577Y0167614D01*
X0103246Y0167525D01*
X0098500Y0167525D01*
X0098500Y0173400D01*
X0097900Y0173400D01*
X0097900Y0172891D02*
X0098500Y0172891D01*
X0098500Y0173489D02*
X0115200Y0173489D01*
X0115200Y0172891D02*
X0104375Y0172891D01*
X0104375Y0172292D02*
X0115200Y0172292D01*
X0115200Y0171694D02*
X0104375Y0171694D01*
X0104375Y0171095D02*
X0115200Y0171095D01*
X0115200Y0170497D02*
X0104375Y0170497D01*
X0104375Y0169898D02*
X0115200Y0169898D01*
X0115200Y0169300D02*
X0104375Y0169300D01*
X0104375Y0168701D02*
X0115200Y0168701D01*
X0115200Y0168103D02*
X0104159Y0168103D01*
X0098500Y0168103D02*
X0097900Y0168103D01*
X0097900Y0168701D02*
X0098500Y0168701D01*
X0098500Y0169300D02*
X0097900Y0169300D01*
X0097900Y0169898D02*
X0098500Y0169898D01*
X0098500Y0170497D02*
X0097900Y0170497D01*
X0097900Y0171095D02*
X0098500Y0171095D01*
X0098500Y0171694D02*
X0097900Y0171694D01*
X0097900Y0172292D02*
X0098500Y0172292D01*
X0098500Y0174088D02*
X0097900Y0174088D01*
X0097900Y0174686D02*
X0098500Y0174686D01*
X0098500Y0175285D02*
X0097900Y0175285D01*
X0097900Y0175883D02*
X0098500Y0175883D01*
X0098500Y0176482D02*
X0097900Y0176482D01*
X0097900Y0177080D02*
X0098500Y0177080D01*
X0098500Y0177679D02*
X0097900Y0177679D01*
X0097900Y0178277D02*
X0098500Y0178277D01*
X0098500Y0178876D02*
X0097900Y0178876D01*
X0097900Y0179474D02*
X0098500Y0179474D01*
X0104014Y0179474D02*
X0115200Y0179474D01*
X0115200Y0178876D02*
X0104340Y0178876D01*
X0104375Y0178277D02*
X0115200Y0178277D01*
X0115200Y0177679D02*
X0104375Y0177679D01*
X0104375Y0177080D02*
X0115200Y0177080D01*
X0115200Y0176482D02*
X0104375Y0176482D01*
X0104375Y0175883D02*
X0115200Y0175883D01*
X0115200Y0175285D02*
X0104375Y0175285D01*
X0104375Y0174686D02*
X0115200Y0174686D01*
X0115200Y0174088D02*
X0104375Y0174088D01*
X0092025Y0172891D02*
X0085200Y0172891D01*
X0085200Y0172292D02*
X0092025Y0172292D01*
X0092025Y0171694D02*
X0085200Y0171694D01*
X0085200Y0171095D02*
X0092025Y0171095D01*
X0092025Y0170497D02*
X0085200Y0170497D01*
X0085200Y0169898D02*
X0092025Y0169898D01*
X0092025Y0169300D02*
X0085200Y0169300D01*
X0085200Y0168701D02*
X0092025Y0168701D01*
X0092241Y0168103D02*
X0085200Y0168103D01*
X0085200Y0167504D02*
X0115200Y0167504D01*
X0115200Y0166905D02*
X0085200Y0166905D01*
X0085200Y0166307D02*
X0115200Y0166307D01*
X0115200Y0165708D02*
X0085200Y0165708D01*
X0085200Y0165110D02*
X0115200Y0165110D01*
X0115200Y0164511D02*
X0085200Y0164511D01*
X0085200Y0163913D02*
X0115200Y0163913D01*
X0115200Y0163314D02*
X0085200Y0163314D01*
X0085200Y0162716D02*
X0115200Y0162716D01*
X0115200Y0162117D02*
X0085200Y0162117D01*
X0085200Y0161519D02*
X0115200Y0161519D01*
X0115200Y0160920D02*
X0085200Y0160920D01*
X0085200Y0160322D02*
X0115200Y0160322D01*
X0115200Y0159723D02*
X0085200Y0159723D01*
X0085200Y0159125D02*
X0115200Y0159125D01*
X0115200Y0158526D02*
X0085200Y0158526D01*
X0085200Y0157928D02*
X0115200Y0157928D01*
X0115200Y0157329D02*
X0085200Y0157329D01*
X0085200Y0156731D02*
X0115200Y0156731D01*
X0115200Y0156132D02*
X0085200Y0156132D01*
X0085200Y0155534D02*
X0115200Y0155534D01*
X0115200Y0154935D02*
X0085200Y0154935D01*
X0085200Y0154337D02*
X0115200Y0154337D01*
X0115200Y0153738D02*
X0085200Y0153738D01*
X0085200Y0153140D02*
X0115200Y0153140D01*
X0115200Y0152541D02*
X0085200Y0152541D01*
X0085200Y0151943D02*
X0115200Y0151943D01*
X0115200Y0151344D02*
X0085200Y0151344D01*
X0085200Y0150746D02*
X0115200Y0150746D01*
X0115200Y0150147D02*
X0085200Y0150147D01*
X0085200Y0149549D02*
X0115200Y0149549D01*
X0115200Y0148950D02*
X0085200Y0148950D01*
X0085200Y0148352D02*
X0115200Y0148352D01*
X0115200Y0147753D02*
X0085200Y0147753D01*
X0085200Y0147155D02*
X0115200Y0147155D01*
X0115200Y0146556D02*
X0085200Y0146556D01*
X0085200Y0145958D02*
X0115200Y0145958D01*
X0115200Y0145359D02*
X0085200Y0145359D01*
X0085200Y0144761D02*
X0096145Y0144761D01*
X0096585Y0145200D02*
X0094300Y0142915D01*
X0094300Y0141600D01*
X0097900Y0141600D01*
X0097900Y0145200D01*
X0096585Y0145200D01*
X0097900Y0144761D02*
X0098500Y0144761D01*
X0098500Y0145200D02*
X0099815Y0145200D01*
X0102100Y0142915D01*
X0102100Y0141600D01*
X0098500Y0141600D01*
X0098500Y0141000D01*
X0102100Y0141000D01*
X0102100Y0139685D01*
X0099815Y0137400D01*
X0098500Y0137400D01*
X0098500Y0141000D01*
X0097900Y0141000D01*
X0097900Y0137400D01*
X0096585Y0137400D01*
X0094300Y0139685D01*
X0094300Y0141000D01*
X0097900Y0141000D01*
X0097900Y0141600D01*
X0098500Y0141600D01*
X0098500Y0145200D01*
X0098500Y0144162D02*
X0097900Y0144162D01*
X0097900Y0143564D02*
X0098500Y0143564D01*
X0098500Y0142965D02*
X0097900Y0142965D01*
X0097900Y0142367D02*
X0098500Y0142367D01*
X0098500Y0141768D02*
X0097900Y0141768D01*
X0097900Y0141170D02*
X0085200Y0141170D01*
X0085200Y0141768D02*
X0094300Y0141768D01*
X0094300Y0142367D02*
X0085200Y0142367D01*
X0085200Y0142965D02*
X0094350Y0142965D01*
X0094948Y0143564D02*
X0085200Y0143564D01*
X0085200Y0144162D02*
X0095547Y0144162D01*
X0094300Y0140571D02*
X0085200Y0140571D01*
X0085200Y0139972D02*
X0094300Y0139972D01*
X0094611Y0139374D02*
X0085200Y0139374D01*
X0085200Y0138775D02*
X0095209Y0138775D01*
X0095808Y0138177D02*
X0085200Y0138177D01*
X0085200Y0137578D02*
X0096406Y0137578D01*
X0097900Y0137578D02*
X0098500Y0137578D01*
X0098500Y0138177D02*
X0097900Y0138177D01*
X0097900Y0138775D02*
X0098500Y0138775D01*
X0098500Y0139374D02*
X0097900Y0139374D01*
X0097900Y0139972D02*
X0098500Y0139972D01*
X0098500Y0140571D02*
X0097900Y0140571D01*
X0098500Y0141170D02*
X0115200Y0141170D01*
X0115200Y0141768D02*
X0102100Y0141768D01*
X0102100Y0142367D02*
X0115200Y0142367D01*
X0115200Y0142965D02*
X0102050Y0142965D01*
X0101452Y0143564D02*
X0115200Y0143564D01*
X0115200Y0144162D02*
X0100853Y0144162D01*
X0100255Y0144761D02*
X0115200Y0144761D01*
X0122200Y0144761D02*
X0135300Y0144761D01*
X0135300Y0145359D02*
X0122200Y0145359D01*
X0122200Y0145958D02*
X0135300Y0145958D01*
X0135300Y0146556D02*
X0122200Y0146556D01*
X0122200Y0147155D02*
X0135300Y0147155D01*
X0135300Y0147753D02*
X0122200Y0147753D01*
X0122200Y0148352D02*
X0135300Y0148352D01*
X0135300Y0148950D02*
X0122200Y0148950D01*
X0122200Y0149549D02*
X0135300Y0149549D01*
X0135300Y0150147D02*
X0122200Y0150147D01*
X0122200Y0150746D02*
X0135300Y0150746D01*
X0135300Y0151344D02*
X0122200Y0151344D01*
X0122200Y0151943D02*
X0135300Y0151943D01*
X0135300Y0152541D02*
X0122200Y0152541D01*
X0122200Y0153140D02*
X0135300Y0153140D01*
X0135300Y0153738D02*
X0122200Y0153738D01*
X0122200Y0154337D02*
X0135300Y0154337D01*
X0135300Y0154935D02*
X0122200Y0154935D01*
X0122200Y0155534D02*
X0135300Y0155534D01*
X0135300Y0156132D02*
X0122200Y0156132D01*
X0122200Y0156731D02*
X0135300Y0156731D01*
X0135300Y0157329D02*
X0122200Y0157329D01*
X0122200Y0157928D02*
X0135300Y0157928D01*
X0135300Y0158526D02*
X0122200Y0158526D01*
X0122200Y0159125D02*
X0135300Y0159125D01*
X0135300Y0159723D02*
X0122200Y0159723D01*
X0122200Y0160322D02*
X0135300Y0160322D01*
X0135300Y0160920D02*
X0122200Y0160920D01*
X0122200Y0161519D02*
X0135300Y0161519D01*
X0135300Y0162117D02*
X0122200Y0162117D01*
X0122200Y0162716D02*
X0135300Y0162716D01*
X0135300Y0163314D02*
X0122200Y0163314D01*
X0122200Y0163913D02*
X0135300Y0163913D01*
X0135300Y0164511D02*
X0122200Y0164511D01*
X0122200Y0165110D02*
X0135300Y0165110D01*
X0135300Y0165685D02*
X0135300Y0143915D01*
X0134300Y0142915D01*
X0134300Y0139685D01*
X0136585Y0137400D01*
X0139815Y0137400D01*
X0142100Y0139685D01*
X0142100Y0142915D01*
X0141100Y0143915D01*
X0141100Y0165685D01*
X0142100Y0166685D01*
X0142100Y0169915D01*
X0139815Y0172200D01*
X0136585Y0172200D01*
X0134300Y0169915D01*
X0134300Y0166685D01*
X0135300Y0165685D01*
X0135276Y0165708D02*
X0122200Y0165708D01*
X0122200Y0166307D02*
X0134678Y0166307D01*
X0134300Y0166905D02*
X0122200Y0166905D01*
X0122200Y0167504D02*
X0134300Y0167504D01*
X0134300Y0168103D02*
X0122200Y0168103D01*
X0122200Y0168701D02*
X0134300Y0168701D01*
X0134300Y0169300D02*
X0122200Y0169300D01*
X0122200Y0169898D02*
X0134300Y0169898D01*
X0134881Y0170497D02*
X0122200Y0170497D01*
X0122200Y0171095D02*
X0135480Y0171095D01*
X0136078Y0171694D02*
X0122200Y0171694D01*
X0122200Y0172292D02*
X0179400Y0172292D01*
X0179400Y0171694D02*
X0150322Y0171694D01*
X0149815Y0172200D02*
X0152100Y0169915D01*
X0152100Y0166685D01*
X0149815Y0164400D01*
X0146585Y0164400D01*
X0144300Y0166685D01*
X0144300Y0169915D01*
X0146585Y0172200D01*
X0149815Y0172200D01*
X0150920Y0171095D02*
X0179400Y0171095D01*
X0179400Y0170497D02*
X0151519Y0170497D01*
X0152100Y0169898D02*
X0179400Y0169898D01*
X0178826Y0169300D02*
X0152100Y0169300D01*
X0152100Y0168701D02*
X0178227Y0168701D01*
X0177629Y0168103D02*
X0152100Y0168103D01*
X0152100Y0167504D02*
X0177030Y0167504D01*
X0176432Y0166905D02*
X0152100Y0166905D01*
X0151722Y0166307D02*
X0175833Y0166307D01*
X0175234Y0165708D02*
X0151124Y0165708D01*
X0150525Y0165110D02*
X0174636Y0165110D01*
X0174037Y0164511D02*
X0149927Y0164511D01*
X0146473Y0164511D02*
X0141100Y0164511D01*
X0141100Y0163913D02*
X0173439Y0163913D01*
X0172840Y0163314D02*
X0141100Y0163314D01*
X0141100Y0162716D02*
X0172242Y0162716D01*
X0171643Y0162117D02*
X0141100Y0162117D01*
X0141100Y0161519D02*
X0171045Y0161519D01*
X0170446Y0160920D02*
X0141100Y0160920D01*
X0141100Y0160322D02*
X0169848Y0160322D01*
X0169249Y0159723D02*
X0141100Y0159723D01*
X0141100Y0159125D02*
X0168651Y0159125D01*
X0168052Y0158526D02*
X0141100Y0158526D01*
X0141100Y0157928D02*
X0167454Y0157928D01*
X0166855Y0157329D02*
X0141100Y0157329D01*
X0141100Y0156731D02*
X0166257Y0156731D01*
X0165658Y0156132D02*
X0141100Y0156132D01*
X0141100Y0155534D02*
X0165060Y0155534D01*
X0164461Y0154935D02*
X0141100Y0154935D01*
X0141100Y0154337D02*
X0163863Y0154337D01*
X0163264Y0153738D02*
X0141100Y0153738D01*
X0141100Y0153140D02*
X0162666Y0153140D01*
X0162067Y0152541D02*
X0141100Y0152541D01*
X0141100Y0151943D02*
X0161469Y0151943D01*
X0160870Y0151344D02*
X0141100Y0151344D01*
X0141100Y0150746D02*
X0160272Y0150746D01*
X0159673Y0150147D02*
X0141100Y0150147D01*
X0141100Y0149549D02*
X0159075Y0149549D01*
X0158476Y0148950D02*
X0141100Y0148950D01*
X0141100Y0148352D02*
X0157878Y0148352D01*
X0157279Y0147753D02*
X0141100Y0147753D01*
X0141100Y0147155D02*
X0156681Y0147155D01*
X0156082Y0146556D02*
X0141100Y0146556D01*
X0141100Y0145958D02*
X0155484Y0145958D01*
X0154885Y0145359D02*
X0141100Y0145359D01*
X0141100Y0144761D02*
X0154287Y0144761D01*
X0153688Y0144162D02*
X0141100Y0144162D01*
X0141452Y0143564D02*
X0153090Y0143564D01*
X0152491Y0142965D02*
X0142050Y0142965D01*
X0142100Y0142367D02*
X0151893Y0142367D01*
X0151294Y0141768D02*
X0142100Y0141768D01*
X0142100Y0141170D02*
X0150696Y0141170D01*
X0150097Y0140571D02*
X0142100Y0140571D01*
X0142100Y0139972D02*
X0149498Y0139972D01*
X0148900Y0139374D02*
X0141789Y0139374D01*
X0141191Y0138775D02*
X0148301Y0138775D01*
X0147703Y0138177D02*
X0140592Y0138177D01*
X0139994Y0137578D02*
X0147104Y0137578D01*
X0146506Y0136980D02*
X0122200Y0136980D01*
X0122200Y0137578D02*
X0136406Y0137578D01*
X0135808Y0138177D02*
X0122200Y0138177D01*
X0122200Y0138775D02*
X0135209Y0138775D01*
X0134611Y0139374D02*
X0122200Y0139374D01*
X0122200Y0139972D02*
X0134300Y0139972D01*
X0134300Y0140571D02*
X0122200Y0140571D01*
X0122200Y0141170D02*
X0134300Y0141170D01*
X0134300Y0141768D02*
X0122200Y0141768D01*
X0122200Y0142367D02*
X0134300Y0142367D01*
X0134350Y0142965D02*
X0122200Y0142965D01*
X0122200Y0143564D02*
X0134948Y0143564D01*
X0135300Y0144162D02*
X0122200Y0144162D01*
X0115200Y0140571D02*
X0102100Y0140571D01*
X0102100Y0139972D02*
X0115200Y0139972D01*
X0115200Y0139374D02*
X0101789Y0139374D01*
X0101191Y0138775D02*
X0115200Y0138775D01*
X0115200Y0138177D02*
X0100592Y0138177D01*
X0099994Y0137578D02*
X0115200Y0137578D01*
X0115200Y0136980D02*
X0085200Y0136980D01*
X0085200Y0136381D02*
X0115200Y0136381D01*
X0115200Y0135783D02*
X0085200Y0135783D01*
X0085200Y0135184D02*
X0115200Y0135184D01*
X0115200Y0134586D02*
X0085200Y0134586D01*
X0085200Y0133987D02*
X0114887Y0133987D01*
X0114289Y0133389D02*
X0085200Y0133389D01*
X0085200Y0132790D02*
X0113690Y0132790D01*
X0113092Y0132192D02*
X0085200Y0132192D01*
X0085200Y0131593D02*
X0112493Y0131593D01*
X0111895Y0130995D02*
X0085200Y0130995D01*
X0085200Y0130396D02*
X0111296Y0130396D01*
X0110698Y0129798D02*
X0085200Y0129798D01*
X0085200Y0129199D02*
X0110099Y0129199D01*
X0109501Y0128601D02*
X0085200Y0128601D01*
X0085200Y0128002D02*
X0108902Y0128002D01*
X0108304Y0127404D02*
X0085200Y0127404D01*
X0085200Y0126805D02*
X0107705Y0126805D01*
X0107107Y0126207D02*
X0085200Y0126207D01*
X0085200Y0125608D02*
X0106508Y0125608D01*
X0106200Y0125010D02*
X0085200Y0125010D01*
X0085200Y0124411D02*
X0106200Y0124411D01*
X0106200Y0123813D02*
X0085200Y0123813D01*
X0085200Y0123214D02*
X0106200Y0123214D01*
X0106200Y0122616D02*
X0085200Y0122616D01*
X0085200Y0122017D02*
X0106200Y0122017D01*
X0106200Y0121419D02*
X0085200Y0121419D01*
X0085200Y0120820D02*
X0106200Y0120820D01*
X0106200Y0120222D02*
X0085200Y0120222D01*
X0085200Y0119623D02*
X0106200Y0119623D01*
X0106200Y0119025D02*
X0085200Y0119025D01*
X0085200Y0118426D02*
X0106200Y0118426D01*
X0106200Y0117828D02*
X0085200Y0117828D01*
X0085200Y0117229D02*
X0106200Y0117229D01*
X0106200Y0116631D02*
X0085200Y0116631D01*
X0085200Y0116032D02*
X0106200Y0116032D01*
X0106200Y0115434D02*
X0085200Y0115434D01*
X0085200Y0114835D02*
X0106200Y0114835D01*
X0106200Y0114237D02*
X0085200Y0114237D01*
X0085200Y0113638D02*
X0106200Y0113638D01*
X0106200Y0113039D02*
X0085200Y0113039D01*
X0085200Y0112441D02*
X0106200Y0112441D01*
X0106200Y0111842D02*
X0085200Y0111842D01*
X0085200Y0111244D02*
X0106200Y0111244D01*
X0106200Y0110645D02*
X0085200Y0110645D01*
X0085200Y0110047D02*
X0106200Y0110047D01*
X0106200Y0109448D02*
X0085200Y0109448D01*
X0085200Y0108850D02*
X0106200Y0108850D01*
X0106200Y0108251D02*
X0085200Y0108251D01*
X0085200Y0107653D02*
X0106200Y0107653D01*
X0106200Y0107054D02*
X0085200Y0107054D01*
X0085200Y0106456D02*
X0106200Y0106456D01*
X0106200Y0105857D02*
X0085200Y0105857D01*
X0085200Y0105259D02*
X0106200Y0105259D01*
X0106200Y0104660D02*
X0085200Y0104660D01*
X0085200Y0104062D02*
X0106200Y0104062D01*
X0106200Y0103463D02*
X0085200Y0103463D01*
X0085200Y0102865D02*
X0106200Y0102865D01*
X0106200Y0102266D02*
X0085200Y0102266D01*
X0085200Y0101668D02*
X0106200Y0101668D01*
X0106200Y0101069D02*
X0085200Y0101069D01*
X0085200Y0100471D02*
X0106200Y0100471D01*
X0106200Y0099872D02*
X0085200Y0099872D01*
X0085200Y0099274D02*
X0106200Y0099274D01*
X0106200Y0098675D02*
X0085200Y0098675D01*
X0085200Y0098077D02*
X0106200Y0098077D01*
X0106200Y0097478D02*
X0085200Y0097478D01*
X0085200Y0096880D02*
X0106200Y0096880D01*
X0106200Y0096281D02*
X0085200Y0096281D01*
X0085200Y0095683D02*
X0106200Y0095683D01*
X0106200Y0095084D02*
X0085200Y0095084D01*
X0085200Y0094486D02*
X0106200Y0094486D01*
X0106200Y0093887D02*
X0085200Y0093887D01*
X0085200Y0093289D02*
X0106200Y0093289D01*
X0106200Y0092690D02*
X0085200Y0092690D01*
X0085200Y0092092D02*
X0106200Y0092092D01*
X0106200Y0091493D02*
X0085200Y0091493D01*
X0085200Y0090895D02*
X0106200Y0090895D01*
X0106200Y0090296D02*
X0085200Y0090296D01*
X0085200Y0089698D02*
X0106200Y0089698D01*
X0106200Y0089099D02*
X0085200Y0089099D01*
X0085200Y0088501D02*
X0106200Y0088501D01*
X0106200Y0087902D02*
X0085200Y0087902D01*
X0085200Y0087303D02*
X0106200Y0087303D01*
X0106200Y0086705D02*
X0085200Y0086705D01*
X0085200Y0086106D02*
X0106200Y0086106D01*
X0106200Y0085508D02*
X0085200Y0085508D01*
X0085200Y0084909D02*
X0106200Y0084909D01*
X0106200Y0084311D02*
X0085200Y0084311D01*
X0085200Y0083712D02*
X0106200Y0083712D01*
X0106200Y0083114D02*
X0085200Y0083114D01*
X0085200Y0082515D02*
X0106200Y0082515D01*
X0106200Y0081917D02*
X0085200Y0081917D01*
X0085200Y0081318D02*
X0106200Y0081318D01*
X0106780Y0080720D02*
X0085200Y0080720D01*
X0085200Y0080121D02*
X0107379Y0080121D01*
X0107977Y0079523D02*
X0085200Y0079523D01*
X0085200Y0078924D02*
X0108576Y0078924D01*
X0109174Y0078326D02*
X0085200Y0078326D01*
X0085200Y0077727D02*
X0109773Y0077727D01*
X0110371Y0077129D02*
X0085200Y0077129D01*
X0085200Y0076530D02*
X0110970Y0076530D01*
X0111568Y0075932D02*
X0085200Y0075932D01*
X0085200Y0075333D02*
X0112167Y0075333D01*
X0112765Y0074735D02*
X0085200Y0074735D01*
X0085200Y0074136D02*
X0113364Y0074136D01*
X0113962Y0073538D02*
X0085200Y0073538D01*
X0085200Y0072939D02*
X0114561Y0072939D01*
X0115159Y0072341D02*
X0085200Y0072341D01*
X0085200Y0071742D02*
X0115200Y0071742D01*
X0115200Y0071144D02*
X0085200Y0071144D01*
X0085200Y0070545D02*
X0115200Y0070545D01*
X0115200Y0069947D02*
X0085200Y0069947D01*
X0085200Y0069348D02*
X0115200Y0069348D01*
X0115200Y0068750D02*
X0085200Y0068750D01*
X0085200Y0068151D02*
X0096536Y0068151D01*
X0096585Y0068200D02*
X0094300Y0065915D01*
X0094300Y0064600D01*
X0097900Y0064600D01*
X0097900Y0068200D01*
X0096585Y0068200D01*
X0095937Y0067553D02*
X0085200Y0067553D01*
X0085200Y0066954D02*
X0095339Y0066954D01*
X0094740Y0066356D02*
X0085200Y0066356D01*
X0085200Y0065757D02*
X0094300Y0065757D01*
X0094300Y0065159D02*
X0085200Y0065159D01*
X0085200Y0064560D02*
X0097900Y0064560D01*
X0097900Y0064600D02*
X0097900Y0064000D01*
X0098500Y0064000D01*
X0098500Y0064600D01*
X0102100Y0064600D01*
X0102100Y0065915D01*
X0099815Y0068200D01*
X0098500Y0068200D01*
X0098500Y0064600D01*
X0097900Y0064600D01*
X0097900Y0065159D02*
X0098500Y0065159D01*
X0098500Y0065757D02*
X0097900Y0065757D01*
X0097900Y0066356D02*
X0098500Y0066356D01*
X0098500Y0066954D02*
X0097900Y0066954D01*
X0097900Y0067553D02*
X0098500Y0067553D01*
X0098500Y0068151D02*
X0097900Y0068151D01*
X0099864Y0068151D02*
X0115200Y0068151D01*
X0115200Y0067553D02*
X0100463Y0067553D01*
X0101061Y0066954D02*
X0115200Y0066954D01*
X0115200Y0066356D02*
X0101660Y0066356D01*
X0102100Y0065757D02*
X0115200Y0065757D01*
X0115200Y0065159D02*
X0102100Y0065159D01*
X0102100Y0064000D02*
X0098500Y0064000D01*
X0098500Y0060400D01*
X0099815Y0060400D01*
X0102100Y0062685D01*
X0102100Y0064000D01*
X0102100Y0063962D02*
X0115200Y0063962D01*
X0115200Y0064560D02*
X0098500Y0064560D01*
X0098500Y0063962D02*
X0097900Y0063962D01*
X0097900Y0064000D02*
X0097900Y0060400D01*
X0096585Y0060400D01*
X0094300Y0062685D01*
X0094300Y0064000D01*
X0097900Y0064000D01*
X0097900Y0063363D02*
X0098500Y0063363D01*
X0098500Y0062765D02*
X0097900Y0062765D01*
X0097900Y0062166D02*
X0098500Y0062166D01*
X0098500Y0061568D02*
X0097900Y0061568D01*
X0097900Y0060969D02*
X0098500Y0060969D01*
X0100384Y0060969D02*
X0115200Y0060969D01*
X0115200Y0061568D02*
X0100983Y0061568D01*
X0101581Y0062166D02*
X0115200Y0062166D01*
X0115200Y0062765D02*
X0102100Y0062765D01*
X0102100Y0063363D02*
X0115200Y0063363D01*
X0115200Y0060370D02*
X0085200Y0060370D01*
X0085200Y0059772D02*
X0115200Y0059772D01*
X0115200Y0059173D02*
X0085200Y0059173D01*
X0085200Y0058575D02*
X0115200Y0058575D01*
X0115200Y0057976D02*
X0085200Y0057976D01*
X0085200Y0057378D02*
X0115200Y0057378D01*
X0115200Y0056779D02*
X0085200Y0056779D01*
X0085200Y0056181D02*
X0115200Y0056181D01*
X0115200Y0055582D02*
X0085200Y0055582D01*
X0085200Y0054984D02*
X0115200Y0054984D01*
X0115200Y0054385D02*
X0085200Y0054385D01*
X0085200Y0053787D02*
X0115200Y0053787D01*
X0115200Y0053188D02*
X0085200Y0053188D01*
X0085200Y0052590D02*
X0115200Y0052590D01*
X0115200Y0051991D02*
X0085200Y0051991D01*
X0085200Y0051393D02*
X0115200Y0051393D01*
X0115200Y0050794D02*
X0085200Y0050794D01*
X0085200Y0050196D02*
X0115200Y0050196D01*
X0115200Y0049597D02*
X0085200Y0049597D01*
X0085200Y0048999D02*
X0115200Y0048999D01*
X0115200Y0048400D02*
X0085200Y0048400D01*
X0085200Y0047802D02*
X0115200Y0047802D01*
X0115200Y0047203D02*
X0085200Y0047203D01*
X0085200Y0046605D02*
X0115200Y0046605D01*
X0115200Y0046006D02*
X0085200Y0046006D01*
X0085200Y0045408D02*
X0115200Y0045408D01*
X0115200Y0044809D02*
X0085200Y0044809D01*
X0085200Y0044211D02*
X0115200Y0044211D01*
X0115200Y0043612D02*
X0085200Y0043612D01*
X0085200Y0043014D02*
X0115200Y0043014D01*
X0115200Y0042415D02*
X0085200Y0042415D01*
X0085200Y0041817D02*
X0115200Y0041817D01*
X0115200Y0041218D02*
X0085200Y0041218D01*
X0085200Y0040620D02*
X0115200Y0040620D01*
X0115200Y0040021D02*
X0085200Y0040021D01*
X0085200Y0039423D02*
X0115200Y0039423D01*
X0115200Y0038824D02*
X0103758Y0038824D01*
X0103773Y0038815D02*
X0103477Y0038986D01*
X0103146Y0039075D01*
X0098400Y0039075D01*
X0098400Y0033200D01*
X0104275Y0033200D01*
X0104275Y0037946D01*
X0104186Y0038277D01*
X0104015Y0038573D01*
X0103773Y0038815D01*
X0104200Y0038226D02*
X0115200Y0038226D01*
X0115200Y0037627D02*
X0104275Y0037627D01*
X0104275Y0037029D02*
X0115200Y0037029D01*
X0115200Y0036430D02*
X0104275Y0036430D01*
X0104275Y0035832D02*
X0115200Y0035832D01*
X0115200Y0035233D02*
X0104275Y0035233D01*
X0104275Y0034634D02*
X0115200Y0034634D01*
X0115200Y0034036D02*
X0104275Y0034036D01*
X0104275Y0033437D02*
X0115200Y0033437D01*
X0115200Y0032839D02*
X0098400Y0032839D01*
X0098400Y0032600D02*
X0098400Y0033200D01*
X0097800Y0033200D01*
X0097800Y0039075D01*
X0093054Y0039075D01*
X0092723Y0038986D01*
X0092427Y0038815D01*
X0092185Y0038573D01*
X0092014Y0038277D01*
X0091925Y0037946D01*
X0091925Y0033200D01*
X0097800Y0033200D01*
X0097800Y0032600D01*
X0098400Y0032600D01*
X0104275Y0032600D01*
X0104275Y0027854D01*
X0104186Y0027523D01*
X0104015Y0027227D01*
X0103773Y0026985D01*
X0103477Y0026814D01*
X0103146Y0026725D01*
X0098400Y0026725D01*
X0098400Y0032600D01*
X0098400Y0032240D02*
X0097800Y0032240D01*
X0097800Y0032600D02*
X0097800Y0026725D01*
X0093054Y0026725D01*
X0092723Y0026814D01*
X0092427Y0026985D01*
X0092185Y0027227D01*
X0092014Y0027523D01*
X0091925Y0027854D01*
X0091925Y0032600D01*
X0097800Y0032600D01*
X0097800Y0032839D02*
X0085200Y0032839D01*
X0085200Y0033437D02*
X0091925Y0033437D01*
X0091925Y0034036D02*
X0085200Y0034036D01*
X0085200Y0034634D02*
X0091925Y0034634D01*
X0091925Y0035233D02*
X0085200Y0035233D01*
X0085200Y0035832D02*
X0091925Y0035832D01*
X0091925Y0036430D02*
X0085200Y0036430D01*
X0085200Y0037029D02*
X0091925Y0037029D01*
X0091925Y0037627D02*
X0085200Y0037627D01*
X0085200Y0038226D02*
X0092000Y0038226D01*
X0092442Y0038824D02*
X0085200Y0038824D01*
X0082200Y0038824D02*
X0073858Y0038824D01*
X0073873Y0038815D02*
X0073577Y0038986D01*
X0073246Y0039075D01*
X0068500Y0039075D01*
X0068500Y0033200D01*
X0074375Y0033200D01*
X0074375Y0037946D01*
X0074286Y0038277D01*
X0074115Y0038573D01*
X0073873Y0038815D01*
X0074300Y0038226D02*
X0082200Y0038226D01*
X0082200Y0037627D02*
X0074375Y0037627D01*
X0074375Y0037029D02*
X0082200Y0037029D01*
X0082200Y0036430D02*
X0074375Y0036430D01*
X0074375Y0035832D02*
X0082200Y0035832D01*
X0082200Y0035233D02*
X0074375Y0035233D01*
X0074375Y0034634D02*
X0082200Y0034634D01*
X0082200Y0034036D02*
X0074375Y0034036D01*
X0074375Y0033437D02*
X0082200Y0033437D01*
X0082200Y0032839D02*
X0068500Y0032839D01*
X0068500Y0032600D02*
X0068500Y0033200D01*
X0067900Y0033200D01*
X0067900Y0039075D01*
X0063154Y0039075D01*
X0062823Y0038986D01*
X0062527Y0038815D01*
X0062285Y0038573D01*
X0062114Y0038277D01*
X0062025Y0037946D01*
X0062025Y0033200D01*
X0067900Y0033200D01*
X0067900Y0032600D01*
X0068500Y0032600D01*
X0074375Y0032600D01*
X0074375Y0027854D01*
X0074286Y0027523D01*
X0074115Y0027227D01*
X0073873Y0026985D01*
X0073577Y0026814D01*
X0073246Y0026725D01*
X0068500Y0026725D01*
X0068500Y0032600D01*
X0068500Y0032240D02*
X0067900Y0032240D01*
X0067900Y0032600D02*
X0067900Y0026725D01*
X0063154Y0026725D01*
X0062823Y0026814D01*
X0062527Y0026985D01*
X0062285Y0027227D01*
X0062114Y0027523D01*
X0062025Y0027854D01*
X0062025Y0032600D01*
X0067900Y0032600D01*
X0067900Y0032839D02*
X0040500Y0032839D01*
X0044200Y0032839D01*
X0044200Y0033437D02*
X0040500Y0033437D01*
X0062025Y0033437D01*
X0062025Y0034036D02*
X0040500Y0034036D01*
X0044200Y0034036D01*
X0044200Y0034634D02*
X0040500Y0034634D01*
X0062025Y0034634D01*
X0062025Y0035233D02*
X0040416Y0035233D01*
X0044200Y0035233D01*
X0044200Y0035832D02*
X0040256Y0035832D01*
X0062025Y0035832D01*
X0062025Y0036430D02*
X0040095Y0036430D01*
X0044200Y0036430D01*
X0044200Y0037029D02*
X0039935Y0037029D01*
X0062025Y0037029D01*
X0062025Y0037627D02*
X0039774Y0037627D01*
X0044200Y0037627D01*
X0044200Y0038226D02*
X0039559Y0038226D01*
X0062100Y0038226D01*
X0062542Y0038824D02*
X0039213Y0038824D01*
X0044200Y0038824D01*
X0044200Y0039423D02*
X0038868Y0039423D01*
X0082200Y0039423D01*
X0082200Y0040021D02*
X0038522Y0040021D01*
X0044200Y0040021D01*
X0044200Y0040620D02*
X0038177Y0040620D01*
X0082200Y0040620D01*
X0082200Y0041218D02*
X0037677Y0041218D01*
X0044200Y0041218D01*
X0044200Y0041817D02*
X0037078Y0041817D01*
X0081683Y0041817D01*
X0082200Y0041300D02*
X0044200Y0079300D01*
X0044200Y0128300D01*
X0007500Y0128300D01*
X0007500Y0012600D01*
X0044200Y0012600D01*
X0044200Y0128300D01*
X0024200Y0128300D01*
X0024200Y0044962D01*
X0026581Y0045600D01*
X0023452Y0044762D01*
X0020648Y0043142D01*
X0018358Y0040852D01*
X0016738Y0038048D01*
X0015900Y0034919D01*
X0015900Y0031681D01*
X0016738Y0028552D01*
X0018358Y0025748D01*
X0020648Y0023458D01*
X0023452Y0021838D01*
X0026581Y0021000D01*
X0029819Y0021000D01*
X0032948Y0021838D01*
X0035752Y0023458D01*
X0038042Y0025748D01*
X0039662Y0028552D01*
X0040500Y0031681D01*
X0040500Y0034919D01*
X0039662Y0038048D01*
X0038042Y0040852D01*
X0035752Y0043142D01*
X0032948Y0044762D01*
X0029819Y0045600D01*
X0026581Y0045600D01*
X0029819Y0045600D01*
X0032948Y0044762D01*
X0035752Y0043142D01*
X0038042Y0040852D01*
X0039662Y0038048D01*
X0040500Y0034919D01*
X0040500Y0031681D01*
X0039662Y0028552D01*
X0038042Y0025748D01*
X0035752Y0023458D01*
X0032948Y0021838D01*
X0029819Y0021000D01*
X0026581Y0021000D01*
X0024200Y0021638D01*
X0024200Y0012600D01*
X0082200Y0012600D01*
X0082200Y0041300D01*
X0081085Y0042415D02*
X0036480Y0042415D01*
X0044200Y0042415D01*
X0044200Y0043014D02*
X0035881Y0043014D01*
X0080486Y0043014D01*
X0079888Y0043612D02*
X0034939Y0043612D01*
X0044200Y0043612D01*
X0044200Y0044211D02*
X0033902Y0044211D01*
X0079289Y0044211D01*
X0078691Y0044809D02*
X0032771Y0044809D01*
X0044200Y0044809D01*
X0044200Y0045408D02*
X0030537Y0045408D01*
X0078092Y0045408D01*
X0077494Y0046006D02*
X0024200Y0046006D01*
X0024200Y0045408D02*
X0025863Y0045408D01*
X0007500Y0045408D01*
X0007500Y0046006D02*
X0044200Y0046006D01*
X0044200Y0046605D02*
X0007500Y0046605D01*
X0007500Y0047203D02*
X0044200Y0047203D01*
X0044200Y0047802D02*
X0007500Y0047802D01*
X0007500Y0048400D02*
X0044200Y0048400D01*
X0044200Y0048999D02*
X0007500Y0048999D01*
X0007500Y0049597D02*
X0044200Y0049597D01*
X0044200Y0050196D02*
X0007500Y0050196D01*
X0007500Y0050794D02*
X0044200Y0050794D01*
X0044200Y0051393D02*
X0007500Y0051393D01*
X0007500Y0051991D02*
X0044200Y0051991D01*
X0044200Y0052590D02*
X0007500Y0052590D01*
X0007500Y0053188D02*
X0044200Y0053188D01*
X0044200Y0053787D02*
X0007500Y0053787D01*
X0007500Y0054385D02*
X0044200Y0054385D01*
X0044200Y0054984D02*
X0007500Y0054984D01*
X0007500Y0055582D02*
X0044200Y0055582D01*
X0044200Y0056181D02*
X0007500Y0056181D01*
X0007500Y0056779D02*
X0044200Y0056779D01*
X0044200Y0057378D02*
X0007500Y0057378D01*
X0007500Y0057976D02*
X0044200Y0057976D01*
X0044200Y0058575D02*
X0007500Y0058575D01*
X0007500Y0059173D02*
X0044200Y0059173D01*
X0044200Y0059772D02*
X0007500Y0059772D01*
X0007500Y0060370D02*
X0044200Y0060370D01*
X0044200Y0060969D02*
X0007500Y0060969D01*
X0007500Y0061568D02*
X0044200Y0061568D01*
X0044200Y0062166D02*
X0007500Y0062166D01*
X0007500Y0062765D02*
X0044200Y0062765D01*
X0044200Y0063363D02*
X0007500Y0063363D01*
X0007500Y0063962D02*
X0044200Y0063962D01*
X0044200Y0064560D02*
X0007500Y0064560D01*
X0007500Y0065159D02*
X0044200Y0065159D01*
X0044200Y0065757D02*
X0007500Y0065757D01*
X0007500Y0066356D02*
X0044200Y0066356D01*
X0044200Y0066954D02*
X0007500Y0066954D01*
X0007500Y0067553D02*
X0044200Y0067553D01*
X0044200Y0068151D02*
X0007500Y0068151D01*
X0007500Y0068750D02*
X0044200Y0068750D01*
X0044200Y0069348D02*
X0007500Y0069348D01*
X0007500Y0069947D02*
X0044200Y0069947D01*
X0044200Y0070545D02*
X0007500Y0070545D01*
X0007500Y0071144D02*
X0044200Y0071144D01*
X0044200Y0071742D02*
X0007500Y0071742D01*
X0007500Y0072341D02*
X0044200Y0072341D01*
X0044200Y0072939D02*
X0007500Y0072939D01*
X0007500Y0073538D02*
X0044200Y0073538D01*
X0044200Y0074136D02*
X0007500Y0074136D01*
X0007500Y0074735D02*
X0044200Y0074735D01*
X0044200Y0075333D02*
X0007500Y0075333D01*
X0007500Y0075932D02*
X0044200Y0075932D01*
X0044200Y0076530D02*
X0007500Y0076530D01*
X0007500Y0077129D02*
X0044200Y0077129D01*
X0044200Y0077727D02*
X0007500Y0077727D01*
X0007500Y0078326D02*
X0044200Y0078326D01*
X0044200Y0078924D02*
X0007500Y0078924D01*
X0007500Y0079523D02*
X0011386Y0079523D01*
X0012166Y0079200D02*
X0010254Y0079992D01*
X0008792Y0081454D01*
X0008000Y0083366D01*
X0008000Y0093234D01*
X0008792Y0095146D01*
X0010254Y0096608D01*
X0012166Y0097400D01*
X0014234Y0097400D01*
X0016146Y0096608D01*
X0017608Y0095146D01*
X0018400Y0093234D01*
X0018400Y0083366D01*
X0017608Y0081454D01*
X0016146Y0079992D01*
X0014234Y0079200D01*
X0012166Y0079200D01*
X0010125Y0080121D02*
X0007500Y0080121D01*
X0007500Y0080720D02*
X0009526Y0080720D01*
X0008928Y0081318D02*
X0007500Y0081318D01*
X0007500Y0081917D02*
X0008600Y0081917D01*
X0008352Y0082515D02*
X0007500Y0082515D01*
X0007500Y0083114D02*
X0008104Y0083114D01*
X0008000Y0083712D02*
X0007500Y0083712D01*
X0007500Y0084311D02*
X0008000Y0084311D01*
X0008000Y0084909D02*
X0007500Y0084909D01*
X0007500Y0085508D02*
X0008000Y0085508D01*
X0008000Y0086106D02*
X0007500Y0086106D01*
X0007500Y0086705D02*
X0008000Y0086705D01*
X0008000Y0087303D02*
X0007500Y0087303D01*
X0007500Y0087902D02*
X0008000Y0087902D01*
X0008000Y0088501D02*
X0007500Y0088501D01*
X0007500Y0089099D02*
X0008000Y0089099D01*
X0008000Y0089698D02*
X0007500Y0089698D01*
X0007500Y0090296D02*
X0008000Y0090296D01*
X0008000Y0090895D02*
X0007500Y0090895D01*
X0007500Y0091493D02*
X0008000Y0091493D01*
X0008000Y0092092D02*
X0007500Y0092092D01*
X0007500Y0092690D02*
X0008000Y0092690D01*
X0008022Y0093289D02*
X0007500Y0093289D01*
X0007500Y0093887D02*
X0008270Y0093887D01*
X0008518Y0094486D02*
X0007500Y0094486D01*
X0007500Y0095084D02*
X0008766Y0095084D01*
X0009329Y0095683D02*
X0007500Y0095683D01*
X0007500Y0096281D02*
X0009927Y0096281D01*
X0010909Y0096880D02*
X0007500Y0096880D01*
X0007500Y0097478D02*
X0044200Y0097478D01*
X0024200Y0097478D01*
X0024200Y0096880D02*
X0030930Y0096880D01*
X0015491Y0096880D01*
X0016473Y0096281D02*
X0029970Y0096281D01*
X0024200Y0096281D01*
X0024200Y0095683D02*
X0029329Y0095683D01*
X0017071Y0095683D01*
X0017634Y0095084D02*
X0028868Y0095084D01*
X0024200Y0095084D01*
X0024200Y0094486D02*
X0028528Y0094486D01*
X0017882Y0094486D01*
X0018130Y0093887D02*
X0028281Y0093887D01*
X0024200Y0093887D01*
X0024200Y0093289D02*
X0028108Y0093289D01*
X0018378Y0093289D01*
X0018400Y0092690D02*
X0028013Y0092690D01*
X0024200Y0092690D01*
X0024200Y0092092D02*
X0028000Y0092092D01*
X0018400Y0092092D01*
X0018400Y0091493D02*
X0028000Y0091493D01*
X0024200Y0091493D01*
X0024200Y0090895D02*
X0028000Y0090895D01*
X0018400Y0090895D01*
X0018400Y0090296D02*
X0028000Y0090296D01*
X0024200Y0090296D01*
X0024200Y0089698D02*
X0028000Y0089698D01*
X0018400Y0089698D01*
X0018400Y0089099D02*
X0028000Y0089099D01*
X0024200Y0089099D01*
X0024200Y0088501D02*
X0032900Y0088501D01*
X0018400Y0088501D01*
X0018400Y0087902D02*
X0028000Y0087902D01*
X0024200Y0087902D01*
X0024200Y0087303D02*
X0028000Y0087303D01*
X0018400Y0087303D01*
X0018400Y0086705D02*
X0028000Y0086705D01*
X0024200Y0086705D01*
X0024200Y0086106D02*
X0028000Y0086106D01*
X0018400Y0086106D01*
X0018400Y0085508D02*
X0028000Y0085508D01*
X0024200Y0085508D01*
X0024200Y0084909D02*
X0028000Y0084909D01*
X0018400Y0084909D01*
X0018400Y0084311D02*
X0028000Y0084311D01*
X0024200Y0084311D01*
X0024200Y0083712D02*
X0028044Y0083712D01*
X0018400Y0083712D01*
X0018296Y0083114D02*
X0028150Y0083114D01*
X0024200Y0083114D01*
X0024200Y0082515D02*
X0028345Y0082515D01*
X0018048Y0082515D01*
X0017800Y0081917D02*
X0028629Y0081917D01*
X0024200Y0081917D01*
X0024200Y0081318D02*
X0029011Y0081318D01*
X0017472Y0081318D01*
X0016874Y0080720D02*
X0029526Y0080720D01*
X0024200Y0080720D01*
X0024200Y0080121D02*
X0030242Y0080121D01*
X0016275Y0080121D01*
X0015014Y0079523D02*
X0031383Y0079523D01*
X0024200Y0079523D01*
X0024200Y0078924D02*
X0044576Y0078924D01*
X0044200Y0079523D02*
X0035017Y0079523D01*
X0044200Y0079523D01*
X0044200Y0080121D02*
X0036158Y0080121D01*
X0044200Y0080121D01*
X0044200Y0080720D02*
X0036874Y0080720D01*
X0044200Y0080720D01*
X0044200Y0081318D02*
X0037389Y0081318D01*
X0044200Y0081318D01*
X0044200Y0081917D02*
X0037771Y0081917D01*
X0044200Y0081917D01*
X0044200Y0082515D02*
X0038055Y0082515D01*
X0044200Y0082515D01*
X0044200Y0083114D02*
X0038250Y0083114D01*
X0044200Y0083114D01*
X0044200Y0083712D02*
X0038356Y0083712D01*
X0044200Y0083712D01*
X0044200Y0084311D02*
X0038400Y0084311D01*
X0044200Y0084311D01*
X0044200Y0084909D02*
X0038400Y0084909D01*
X0044200Y0084909D01*
X0044200Y0085508D02*
X0038400Y0085508D01*
X0044200Y0085508D01*
X0044200Y0086106D02*
X0038400Y0086106D01*
X0044200Y0086106D01*
X0044200Y0086705D02*
X0038400Y0086705D01*
X0044200Y0086705D01*
X0044200Y0087303D02*
X0038400Y0087303D01*
X0044200Y0087303D01*
X0044200Y0087902D02*
X0038400Y0087902D01*
X0044200Y0087902D01*
X0044200Y0088501D02*
X0033500Y0088501D01*
X0044200Y0088501D01*
X0044200Y0089099D02*
X0038400Y0089099D01*
X0044200Y0089099D01*
X0044200Y0089698D02*
X0038400Y0089698D01*
X0044200Y0089698D01*
X0044200Y0090296D02*
X0038400Y0090296D01*
X0044200Y0090296D01*
X0044200Y0090895D02*
X0038400Y0090895D01*
X0044200Y0090895D01*
X0044200Y0091493D02*
X0038400Y0091493D01*
X0044200Y0091493D01*
X0044200Y0092092D02*
X0038400Y0092092D01*
X0044200Y0092092D01*
X0044200Y0092690D02*
X0038387Y0092690D01*
X0044200Y0092690D01*
X0044200Y0093289D02*
X0038292Y0093289D01*
X0044200Y0093289D01*
X0044200Y0093887D02*
X0038119Y0093887D01*
X0044200Y0093887D01*
X0044200Y0094486D02*
X0037872Y0094486D01*
X0044200Y0094486D01*
X0044200Y0095084D02*
X0037532Y0095084D01*
X0044200Y0095084D01*
X0044200Y0095683D02*
X0037071Y0095683D01*
X0044200Y0095683D01*
X0044200Y0096281D02*
X0036430Y0096281D01*
X0044200Y0096281D01*
X0044200Y0096880D02*
X0035470Y0096880D01*
X0044200Y0096880D01*
X0044200Y0098077D02*
X0007500Y0098077D01*
X0007500Y0098675D02*
X0044200Y0098675D01*
X0024200Y0098675D01*
X0024200Y0098077D02*
X0044200Y0098077D01*
X0044200Y0099274D02*
X0007500Y0099274D01*
X0007500Y0099872D02*
X0044200Y0099872D01*
X0024200Y0099872D01*
X0024200Y0099274D02*
X0044200Y0099274D01*
X0044200Y0100471D02*
X0007500Y0100471D01*
X0007500Y0101069D02*
X0044200Y0101069D01*
X0024200Y0101069D01*
X0024200Y0100471D02*
X0044200Y0100471D01*
X0044200Y0101668D02*
X0007500Y0101668D01*
X0007500Y0102266D02*
X0044200Y0102266D01*
X0024200Y0102266D01*
X0024200Y0101668D02*
X0044200Y0101668D01*
X0044200Y0102865D02*
X0007500Y0102865D01*
X0007500Y0103463D02*
X0044200Y0103463D01*
X0024200Y0103463D01*
X0024200Y0102865D02*
X0044200Y0102865D01*
X0044200Y0104062D02*
X0007500Y0104062D01*
X0007500Y0104660D02*
X0044200Y0104660D01*
X0024200Y0104660D01*
X0024200Y0104062D02*
X0044200Y0104062D01*
X0044200Y0105259D02*
X0007500Y0105259D01*
X0007500Y0105857D02*
X0044200Y0105857D01*
X0024200Y0105857D01*
X0024200Y0105259D02*
X0044200Y0105259D01*
X0044200Y0106456D02*
X0007500Y0106456D01*
X0007500Y0107054D02*
X0044200Y0107054D01*
X0024200Y0107054D01*
X0024200Y0106456D02*
X0044200Y0106456D01*
X0044200Y0107653D02*
X0007500Y0107653D01*
X0007500Y0108251D02*
X0044200Y0108251D01*
X0024200Y0108251D01*
X0024200Y0107653D02*
X0044200Y0107653D01*
X0044200Y0108850D02*
X0007500Y0108850D01*
X0007500Y0109448D02*
X0011566Y0109448D01*
X0012166Y0109200D02*
X0010254Y0109992D01*
X0008792Y0111454D01*
X0008000Y0113366D01*
X0008000Y0123234D01*
X0008792Y0125146D01*
X0010254Y0126608D01*
X0012166Y0127400D01*
X0014234Y0127400D01*
X0016146Y0126608D01*
X0017608Y0125146D01*
X0018400Y0123234D01*
X0018400Y0113366D01*
X0017608Y0111454D01*
X0016146Y0109992D01*
X0014234Y0109200D01*
X0012166Y0109200D01*
X0010199Y0110047D02*
X0007500Y0110047D01*
X0007500Y0110645D02*
X0009601Y0110645D01*
X0009002Y0111244D02*
X0007500Y0111244D01*
X0007500Y0111842D02*
X0008631Y0111842D01*
X0008383Y0112441D02*
X0007500Y0112441D01*
X0007500Y0113039D02*
X0008135Y0113039D01*
X0008000Y0113638D02*
X0007500Y0113638D01*
X0007500Y0114237D02*
X0008000Y0114237D01*
X0008000Y0114835D02*
X0007500Y0114835D01*
X0007500Y0115434D02*
X0008000Y0115434D01*
X0008000Y0116032D02*
X0007500Y0116032D01*
X0007500Y0116631D02*
X0008000Y0116631D01*
X0008000Y0117229D02*
X0007500Y0117229D01*
X0007500Y0117828D02*
X0008000Y0117828D01*
X0008000Y0118426D02*
X0007500Y0118426D01*
X0007500Y0119025D02*
X0008000Y0119025D01*
X0008000Y0119623D02*
X0007500Y0119623D01*
X0007500Y0120222D02*
X0008000Y0120222D01*
X0008000Y0120820D02*
X0007500Y0120820D01*
X0007500Y0121419D02*
X0008000Y0121419D01*
X0008000Y0122017D02*
X0007500Y0122017D01*
X0007500Y0122616D02*
X0008000Y0122616D01*
X0008000Y0123214D02*
X0007500Y0123214D01*
X0007500Y0123813D02*
X0008240Y0123813D01*
X0008487Y0124411D02*
X0007500Y0124411D01*
X0007500Y0125010D02*
X0008735Y0125010D01*
X0009254Y0125608D02*
X0007500Y0125608D01*
X0007500Y0126207D02*
X0009853Y0126207D01*
X0010730Y0126805D02*
X0007500Y0126805D01*
X0007500Y0127404D02*
X0044200Y0127404D01*
X0024200Y0127404D01*
X0024200Y0128002D02*
X0044200Y0128002D01*
X0007500Y0128002D01*
X0015670Y0126805D02*
X0030784Y0126805D01*
X0024200Y0126805D01*
X0024200Y0126207D02*
X0029868Y0126207D01*
X0016547Y0126207D01*
X0017146Y0125608D02*
X0029254Y0125608D01*
X0024200Y0125608D01*
X0024200Y0125010D02*
X0028814Y0125010D01*
X0017665Y0125010D01*
X0017913Y0124411D02*
X0028491Y0124411D01*
X0024200Y0124411D01*
X0024200Y0123813D02*
X0028256Y0123813D01*
X0018160Y0123813D01*
X0018400Y0123214D02*
X0028096Y0123214D01*
X0024200Y0123214D01*
X0024200Y0122616D02*
X0028001Y0122616D01*
X0018400Y0122616D01*
X0018400Y0122017D02*
X0028000Y0122017D01*
X0024200Y0122017D01*
X0024200Y0121419D02*
X0028000Y0121419D01*
X0018400Y0121419D01*
X0018400Y0120820D02*
X0028000Y0120820D01*
X0024200Y0120820D01*
X0024200Y0120222D02*
X0028000Y0120222D01*
X0018400Y0120222D01*
X0018400Y0119623D02*
X0028000Y0119623D01*
X0024200Y0119623D01*
X0024200Y0119025D02*
X0028000Y0119025D01*
X0018400Y0119025D01*
X0018400Y0118426D02*
X0032900Y0118426D01*
X0024200Y0118426D01*
X0024200Y0117828D02*
X0028000Y0117828D01*
X0018400Y0117828D01*
X0018400Y0117229D02*
X0028000Y0117229D01*
X0024200Y0117229D01*
X0024200Y0116631D02*
X0028000Y0116631D01*
X0018400Y0116631D01*
X0018400Y0116032D02*
X0028000Y0116032D01*
X0024200Y0116032D01*
X0024200Y0115434D02*
X0028000Y0115434D01*
X0018400Y0115434D01*
X0018400Y0114835D02*
X0028000Y0114835D01*
X0024200Y0114835D01*
X0024200Y0114237D02*
X0028000Y0114237D01*
X0018400Y0114237D01*
X0018400Y0113638D02*
X0028056Y0113638D01*
X0024200Y0113638D01*
X0024200Y0113039D02*
X0028174Y0113039D01*
X0018265Y0113039D01*
X0018017Y0112441D02*
X0028369Y0112441D01*
X0024200Y0112441D01*
X0024200Y0111842D02*
X0028667Y0111842D01*
X0017769Y0111842D01*
X0017398Y0111244D02*
X0029065Y0111244D01*
X0024200Y0111244D01*
X0024200Y0110645D02*
X0029601Y0110645D01*
X0016799Y0110645D01*
X0016201Y0110047D02*
X0030345Y0110047D01*
X0024200Y0110047D01*
X0024200Y0109448D02*
X0031612Y0109448D01*
X0014834Y0109448D01*
X0024200Y0108850D02*
X0044200Y0108850D01*
X0044200Y0109448D02*
X0034788Y0109448D01*
X0044200Y0109448D01*
X0044200Y0110047D02*
X0036055Y0110047D01*
X0044200Y0110047D01*
X0044200Y0110645D02*
X0036799Y0110645D01*
X0044200Y0110645D01*
X0044200Y0111244D02*
X0037335Y0111244D01*
X0044200Y0111244D01*
X0044200Y0111842D02*
X0037733Y0111842D01*
X0044200Y0111842D01*
X0044200Y0112441D02*
X0038031Y0112441D01*
X0044200Y0112441D01*
X0044200Y0113039D02*
X0038226Y0113039D01*
X0044200Y0113039D01*
X0044200Y0113638D02*
X0038344Y0113638D01*
X0044200Y0113638D01*
X0044200Y0114237D02*
X0038400Y0114237D01*
X0044200Y0114237D01*
X0044200Y0114835D02*
X0038400Y0114835D01*
X0044200Y0114835D01*
X0044200Y0115434D02*
X0038400Y0115434D01*
X0044200Y0115434D01*
X0044200Y0116032D02*
X0038400Y0116032D01*
X0044200Y0116032D01*
X0044200Y0116631D02*
X0038400Y0116631D01*
X0044200Y0116631D01*
X0044200Y0117229D02*
X0038400Y0117229D01*
X0044200Y0117229D01*
X0044200Y0117828D02*
X0038400Y0117828D01*
X0044200Y0117828D01*
X0044200Y0118426D02*
X0033500Y0118426D01*
X0044200Y0118426D01*
X0044200Y0119025D02*
X0038400Y0119025D01*
X0044200Y0119025D01*
X0044200Y0119623D02*
X0038400Y0119623D01*
X0044200Y0119623D01*
X0044200Y0120222D02*
X0038400Y0120222D01*
X0044200Y0120222D01*
X0044200Y0120820D02*
X0038400Y0120820D01*
X0044200Y0120820D01*
X0044200Y0121419D02*
X0038400Y0121419D01*
X0044200Y0121419D01*
X0044200Y0122017D02*
X0038400Y0122017D01*
X0044200Y0122017D01*
X0044200Y0122616D02*
X0038399Y0122616D01*
X0044200Y0122616D01*
X0044200Y0123214D02*
X0038304Y0123214D01*
X0044200Y0123214D01*
X0044200Y0123813D02*
X0038144Y0123813D01*
X0044200Y0123813D01*
X0044200Y0124411D02*
X0037909Y0124411D01*
X0044200Y0124411D01*
X0044200Y0125010D02*
X0037586Y0125010D01*
X0044200Y0125010D01*
X0044200Y0125608D02*
X0037146Y0125608D01*
X0044200Y0125608D01*
X0044200Y0126207D02*
X0036532Y0126207D01*
X0044200Y0126207D01*
X0044200Y0126805D02*
X0035616Y0126805D01*
X0044200Y0126805D01*
X0038019Y0124196D02*
X0038272Y0123418D01*
X0038400Y0122609D01*
X0038400Y0118600D01*
X0033500Y0118600D01*
X0032900Y0118600D01*
X0032900Y0127400D01*
X0032791Y0127400D01*
X0031982Y0127272D01*
X0031204Y0127019D01*
X0030475Y0126647D01*
X0029812Y0126166D01*
X0029234Y0125588D01*
X0028753Y0124925D01*
X0028381Y0124196D01*
X0028128Y0123418D01*
X0028000Y0122609D01*
X0028000Y0118600D01*
X0032900Y0118600D01*
X0032900Y0127400D01*
X0032791Y0127400D01*
X0031982Y0127272D01*
X0031204Y0127019D01*
X0030475Y0126647D01*
X0029812Y0126166D01*
X0029234Y0125588D01*
X0028753Y0124925D01*
X0028381Y0124196D01*
X0028128Y0123418D01*
X0028000Y0122609D01*
X0028000Y0118600D01*
X0032900Y0118600D01*
X0033500Y0118600D01*
X0033500Y0127400D01*
X0033609Y0127400D01*
X0034418Y0127272D01*
X0035196Y0127019D01*
X0035925Y0126647D01*
X0036588Y0126166D01*
X0037166Y0125588D01*
X0037647Y0124925D01*
X0038019Y0124196D01*
X0037647Y0124925D01*
X0037166Y0125588D01*
X0036588Y0126166D01*
X0035925Y0126647D01*
X0035196Y0127019D01*
X0034418Y0127272D01*
X0033609Y0127400D01*
X0033500Y0127400D01*
X0033500Y0118600D01*
X0033500Y0118000D01*
X0038400Y0118000D01*
X0038400Y0113991D01*
X0038272Y0113182D01*
X0038019Y0112404D01*
X0037647Y0111675D01*
X0037166Y0111012D01*
X0036588Y0110434D01*
X0035925Y0109953D01*
X0035196Y0109581D01*
X0034418Y0109328D01*
X0033609Y0109200D01*
X0033500Y0109200D01*
X0033500Y0118000D01*
X0033500Y0118600D01*
X0038400Y0118600D01*
X0038400Y0122609D01*
X0038272Y0123418D01*
X0038019Y0124196D01*
X0033500Y0124411D02*
X0032900Y0124411D01*
X0033500Y0124411D01*
X0033500Y0123813D02*
X0032900Y0123813D01*
X0033500Y0123813D01*
X0033500Y0123214D02*
X0032900Y0123214D01*
X0033500Y0123214D01*
X0033500Y0122616D02*
X0032900Y0122616D01*
X0033500Y0122616D01*
X0033500Y0122017D02*
X0032900Y0122017D01*
X0033500Y0122017D01*
X0033500Y0121419D02*
X0032900Y0121419D01*
X0033500Y0121419D01*
X0033500Y0120820D02*
X0032900Y0120820D01*
X0033500Y0120820D01*
X0033500Y0120222D02*
X0032900Y0120222D01*
X0033500Y0120222D01*
X0033500Y0119623D02*
X0032900Y0119623D01*
X0033500Y0119623D01*
X0033500Y0119025D02*
X0032900Y0119025D01*
X0033500Y0119025D01*
X0032900Y0118600D02*
X0032900Y0118000D01*
X0028000Y0118000D01*
X0028000Y0113991D01*
X0028128Y0113182D01*
X0028381Y0112404D01*
X0028753Y0111675D01*
X0029234Y0111012D01*
X0029812Y0110434D01*
X0030475Y0109953D01*
X0031204Y0109581D01*
X0031982Y0109328D01*
X0032791Y0109200D01*
X0032900Y0109200D01*
X0032900Y0118000D01*
X0033500Y0118000D01*
X0038400Y0118000D01*
X0038400Y0113991D01*
X0038272Y0113182D01*
X0038019Y0112404D01*
X0037647Y0111675D01*
X0037166Y0111012D01*
X0036588Y0110434D01*
X0035925Y0109953D01*
X0035196Y0109581D01*
X0034418Y0109328D01*
X0033609Y0109200D01*
X0033500Y0109200D01*
X0033500Y0118000D01*
X0032900Y0118000D01*
X0028000Y0118000D01*
X0028000Y0113991D01*
X0028128Y0113182D01*
X0028381Y0112404D01*
X0028753Y0111675D01*
X0029234Y0111012D01*
X0029812Y0110434D01*
X0030475Y0109953D01*
X0031204Y0109581D01*
X0031982Y0109328D01*
X0032791Y0109200D01*
X0032900Y0109200D01*
X0032900Y0118000D01*
X0032900Y0118600D01*
X0032900Y0117828D02*
X0033500Y0117828D01*
X0032900Y0117828D01*
X0032900Y0117229D02*
X0033500Y0117229D01*
X0032900Y0117229D01*
X0032900Y0116631D02*
X0033500Y0116631D01*
X0032900Y0116631D01*
X0032900Y0116032D02*
X0033500Y0116032D01*
X0032900Y0116032D01*
X0032900Y0115434D02*
X0033500Y0115434D01*
X0032900Y0115434D01*
X0032900Y0114835D02*
X0033500Y0114835D01*
X0032900Y0114835D01*
X0032900Y0114237D02*
X0033500Y0114237D01*
X0032900Y0114237D01*
X0032900Y0113638D02*
X0033500Y0113638D01*
X0032900Y0113638D01*
X0032900Y0113039D02*
X0033500Y0113039D01*
X0032900Y0113039D01*
X0032900Y0112441D02*
X0033500Y0112441D01*
X0032900Y0112441D01*
X0032900Y0111842D02*
X0033500Y0111842D01*
X0032900Y0111842D01*
X0032900Y0111244D02*
X0033500Y0111244D01*
X0032900Y0111244D01*
X0032900Y0110645D02*
X0033500Y0110645D01*
X0032900Y0110645D01*
X0032900Y0110047D02*
X0033500Y0110047D01*
X0032900Y0110047D01*
X0032900Y0109448D02*
X0033500Y0109448D01*
X0032900Y0109448D01*
X0032900Y0097400D02*
X0032791Y0097400D01*
X0031982Y0097272D01*
X0031204Y0097019D01*
X0030475Y0096647D01*
X0029812Y0096166D01*
X0029234Y0095588D01*
X0028753Y0094925D01*
X0028381Y0094196D01*
X0028128Y0093418D01*
X0028000Y0092609D01*
X0028000Y0088600D01*
X0032900Y0088600D01*
X0032900Y0097400D01*
X0032791Y0097400D01*
X0031982Y0097272D01*
X0031204Y0097019D01*
X0030475Y0096647D01*
X0029812Y0096166D01*
X0029234Y0095588D01*
X0028753Y0094925D01*
X0028381Y0094196D01*
X0028128Y0093418D01*
X0028000Y0092609D01*
X0028000Y0088600D01*
X0032900Y0088600D01*
X0033500Y0088600D01*
X0033500Y0097400D01*
X0033609Y0097400D01*
X0034418Y0097272D01*
X0035196Y0097019D01*
X0035925Y0096647D01*
X0036588Y0096166D01*
X0037166Y0095588D01*
X0037647Y0094925D01*
X0038019Y0094196D01*
X0038272Y0093418D01*
X0038400Y0092609D01*
X0038400Y0088600D01*
X0033500Y0088600D01*
X0033500Y0088000D01*
X0038400Y0088000D01*
X0038400Y0083991D01*
X0038272Y0083182D01*
X0038019Y0082404D01*
X0037647Y0081675D01*
X0037166Y0081012D01*
X0036588Y0080434D01*
X0035925Y0079953D01*
X0035196Y0079581D01*
X0034418Y0079328D01*
X0033609Y0079200D01*
X0033500Y0079200D01*
X0033500Y0088000D01*
X0033500Y0088600D01*
X0032900Y0088600D01*
X0032900Y0097400D01*
X0032900Y0096880D02*
X0033500Y0096880D01*
X0032900Y0096880D01*
X0032900Y0096281D02*
X0033500Y0096281D01*
X0032900Y0096281D01*
X0032900Y0095683D02*
X0033500Y0095683D01*
X0032900Y0095683D01*
X0032900Y0095084D02*
X0033500Y0095084D01*
X0032900Y0095084D01*
X0032900Y0094486D02*
X0033500Y0094486D01*
X0032900Y0094486D01*
X0032900Y0093887D02*
X0033500Y0093887D01*
X0032900Y0093887D01*
X0032900Y0093289D02*
X0033500Y0093289D01*
X0032900Y0093289D01*
X0032900Y0092690D02*
X0033500Y0092690D01*
X0032900Y0092690D01*
X0032900Y0092092D02*
X0033500Y0092092D01*
X0032900Y0092092D01*
X0032900Y0091493D02*
X0033500Y0091493D01*
X0032900Y0091493D01*
X0032900Y0090895D02*
X0033500Y0090895D01*
X0032900Y0090895D01*
X0032900Y0090296D02*
X0033500Y0090296D01*
X0032900Y0090296D01*
X0032900Y0089698D02*
X0033500Y0089698D01*
X0032900Y0089698D01*
X0032900Y0089099D02*
X0033500Y0089099D01*
X0032900Y0089099D01*
X0032900Y0088600D02*
X0032900Y0088000D01*
X0028000Y0088000D01*
X0028000Y0083991D01*
X0028128Y0083182D01*
X0028381Y0082404D01*
X0028753Y0081675D01*
X0029234Y0081012D01*
X0029812Y0080434D01*
X0030475Y0079953D01*
X0031204Y0079581D01*
X0031982Y0079328D01*
X0032791Y0079200D01*
X0032900Y0079200D01*
X0032900Y0088000D01*
X0033500Y0088000D01*
X0038400Y0088000D01*
X0038400Y0083991D01*
X0038272Y0083182D01*
X0038019Y0082404D01*
X0037647Y0081675D01*
X0037166Y0081012D01*
X0036588Y0080434D01*
X0035925Y0079953D01*
X0035196Y0079581D01*
X0034418Y0079328D01*
X0033609Y0079200D01*
X0033500Y0079200D01*
X0033500Y0088000D01*
X0032900Y0088000D01*
X0028000Y0088000D01*
X0028000Y0083991D01*
X0028128Y0083182D01*
X0028381Y0082404D01*
X0028753Y0081675D01*
X0029234Y0081012D01*
X0029812Y0080434D01*
X0030475Y0079953D01*
X0031204Y0079581D01*
X0031982Y0079328D01*
X0032791Y0079200D01*
X0032900Y0079200D01*
X0032900Y0088000D01*
X0032900Y0088600D01*
X0033500Y0088600D02*
X0033500Y0097400D01*
X0033609Y0097400D01*
X0034418Y0097272D01*
X0035196Y0097019D01*
X0035925Y0096647D01*
X0036588Y0096166D01*
X0037166Y0095588D01*
X0037647Y0094925D01*
X0038019Y0094196D01*
X0038272Y0093418D01*
X0038400Y0092609D01*
X0038400Y0088600D01*
X0033500Y0088600D01*
X0033500Y0087902D02*
X0032900Y0087902D01*
X0033500Y0087902D01*
X0033500Y0087303D02*
X0032900Y0087303D01*
X0033500Y0087303D01*
X0033500Y0086705D02*
X0032900Y0086705D01*
X0033500Y0086705D01*
X0033500Y0086106D02*
X0032900Y0086106D01*
X0033500Y0086106D01*
X0033500Y0085508D02*
X0032900Y0085508D01*
X0033500Y0085508D01*
X0033500Y0084909D02*
X0032900Y0084909D01*
X0033500Y0084909D01*
X0033500Y0084311D02*
X0032900Y0084311D01*
X0033500Y0084311D01*
X0033500Y0083712D02*
X0032900Y0083712D01*
X0033500Y0083712D01*
X0033500Y0083114D02*
X0032900Y0083114D01*
X0033500Y0083114D01*
X0033500Y0082515D02*
X0032900Y0082515D01*
X0033500Y0082515D01*
X0033500Y0081917D02*
X0032900Y0081917D01*
X0033500Y0081917D01*
X0033500Y0081318D02*
X0032900Y0081318D01*
X0033500Y0081318D01*
X0033500Y0080720D02*
X0032900Y0080720D01*
X0033500Y0080720D01*
X0033500Y0080121D02*
X0032900Y0080121D01*
X0033500Y0080121D01*
X0033500Y0079523D02*
X0032900Y0079523D01*
X0033500Y0079523D01*
X0024200Y0078326D02*
X0045174Y0078326D01*
X0045773Y0077727D02*
X0024200Y0077727D01*
X0024200Y0077129D02*
X0046371Y0077129D01*
X0046970Y0076530D02*
X0024200Y0076530D01*
X0024200Y0075932D02*
X0047568Y0075932D01*
X0048167Y0075333D02*
X0024200Y0075333D01*
X0024200Y0074735D02*
X0048765Y0074735D01*
X0049364Y0074136D02*
X0024200Y0074136D01*
X0024200Y0073538D02*
X0049962Y0073538D01*
X0050561Y0072939D02*
X0024200Y0072939D01*
X0024200Y0072341D02*
X0051159Y0072341D01*
X0051758Y0071742D02*
X0024200Y0071742D01*
X0024200Y0071144D02*
X0052356Y0071144D01*
X0052955Y0070545D02*
X0024200Y0070545D01*
X0024200Y0069947D02*
X0053553Y0069947D01*
X0054152Y0069348D02*
X0024200Y0069348D01*
X0024200Y0068750D02*
X0054750Y0068750D01*
X0055349Y0068151D02*
X0024200Y0068151D01*
X0024200Y0067553D02*
X0055947Y0067553D01*
X0056546Y0066954D02*
X0024200Y0066954D01*
X0024200Y0066356D02*
X0057144Y0066356D01*
X0057743Y0065757D02*
X0024200Y0065757D01*
X0024200Y0065159D02*
X0058341Y0065159D01*
X0058940Y0064560D02*
X0024200Y0064560D01*
X0024200Y0063962D02*
X0059538Y0063962D01*
X0060137Y0063363D02*
X0024200Y0063363D01*
X0024200Y0062765D02*
X0060735Y0062765D01*
X0061334Y0062166D02*
X0024200Y0062166D01*
X0024200Y0061568D02*
X0061932Y0061568D01*
X0062531Y0060969D02*
X0024200Y0060969D01*
X0024200Y0060370D02*
X0063130Y0060370D01*
X0063728Y0059772D02*
X0024200Y0059772D01*
X0024200Y0059173D02*
X0064327Y0059173D01*
X0064925Y0058575D02*
X0024200Y0058575D01*
X0024200Y0057976D02*
X0065524Y0057976D01*
X0066122Y0057378D02*
X0024200Y0057378D01*
X0024200Y0056779D02*
X0066721Y0056779D01*
X0067319Y0056181D02*
X0024200Y0056181D01*
X0024200Y0055582D02*
X0067918Y0055582D01*
X0068516Y0054984D02*
X0024200Y0054984D01*
X0024200Y0054385D02*
X0069115Y0054385D01*
X0069713Y0053787D02*
X0024200Y0053787D01*
X0024200Y0053188D02*
X0070312Y0053188D01*
X0070910Y0052590D02*
X0024200Y0052590D01*
X0024200Y0051991D02*
X0071509Y0051991D01*
X0072107Y0051393D02*
X0024200Y0051393D01*
X0024200Y0050794D02*
X0072706Y0050794D01*
X0073304Y0050196D02*
X0024200Y0050196D01*
X0024200Y0049597D02*
X0073903Y0049597D01*
X0074501Y0048999D02*
X0024200Y0048999D01*
X0024200Y0048400D02*
X0075100Y0048400D01*
X0075698Y0047802D02*
X0024200Y0047802D01*
X0024200Y0047203D02*
X0076297Y0047203D01*
X0076895Y0046605D02*
X0024200Y0046605D01*
X0023629Y0044809D02*
X0007500Y0044809D01*
X0007500Y0044211D02*
X0022498Y0044211D01*
X0021461Y0043612D02*
X0007500Y0043612D01*
X0007500Y0043014D02*
X0020519Y0043014D01*
X0019920Y0042415D02*
X0007500Y0042415D01*
X0007500Y0041817D02*
X0019322Y0041817D01*
X0018723Y0041218D02*
X0007500Y0041218D01*
X0007500Y0040620D02*
X0018223Y0040620D01*
X0017878Y0040021D02*
X0007500Y0040021D01*
X0007500Y0039423D02*
X0017532Y0039423D01*
X0017187Y0038824D02*
X0007500Y0038824D01*
X0007500Y0038226D02*
X0016841Y0038226D01*
X0016626Y0037627D02*
X0007500Y0037627D01*
X0007500Y0037029D02*
X0016465Y0037029D01*
X0016305Y0036430D02*
X0007500Y0036430D01*
X0007500Y0035832D02*
X0016144Y0035832D01*
X0015984Y0035233D02*
X0007500Y0035233D01*
X0007500Y0034634D02*
X0015900Y0034634D01*
X0015900Y0034036D02*
X0007500Y0034036D01*
X0007500Y0033437D02*
X0015900Y0033437D01*
X0015900Y0032839D02*
X0007500Y0032839D01*
X0007500Y0032240D02*
X0015900Y0032240D01*
X0015910Y0031642D02*
X0007500Y0031642D01*
X0007500Y0031043D02*
X0016071Y0031043D01*
X0016231Y0030445D02*
X0007500Y0030445D01*
X0007500Y0029846D02*
X0016391Y0029846D01*
X0016552Y0029248D02*
X0007500Y0029248D01*
X0007500Y0028649D02*
X0016712Y0028649D01*
X0017028Y0028051D02*
X0007500Y0028051D01*
X0007500Y0027452D02*
X0017373Y0027452D01*
X0017719Y0026854D02*
X0007500Y0026854D01*
X0007500Y0026255D02*
X0018064Y0026255D01*
X0018448Y0025657D02*
X0007500Y0025657D01*
X0007500Y0025058D02*
X0019047Y0025058D01*
X0019645Y0024460D02*
X0007500Y0024460D01*
X0007500Y0023861D02*
X0020244Y0023861D01*
X0020985Y0023263D02*
X0007500Y0023263D01*
X0007500Y0022664D02*
X0022022Y0022664D01*
X0023058Y0022066D02*
X0007500Y0022066D01*
X0007500Y0021467D02*
X0024837Y0021467D01*
X0024200Y0021467D01*
X0024200Y0020869D02*
X0082200Y0020869D01*
X0082200Y0021467D02*
X0031563Y0021467D01*
X0044200Y0021467D01*
X0044200Y0020869D02*
X0007500Y0020869D01*
X0007500Y0020270D02*
X0044200Y0020270D01*
X0044200Y0019672D02*
X0007500Y0019672D01*
X0007500Y0019073D02*
X0044200Y0019073D01*
X0044200Y0018475D02*
X0007500Y0018475D01*
X0007500Y0017876D02*
X0044200Y0017876D01*
X0044200Y0017278D02*
X0007500Y0017278D01*
X0007500Y0016679D02*
X0044200Y0016679D01*
X0044200Y0016081D02*
X0007500Y0016081D01*
X0007500Y0015482D02*
X0044200Y0015482D01*
X0044200Y0014884D02*
X0007500Y0014884D01*
X0007500Y0014285D02*
X0044200Y0014285D01*
X0044200Y0013687D02*
X0007500Y0013687D01*
X0007500Y0013088D02*
X0044200Y0013088D01*
X0044200Y0022066D02*
X0033342Y0022066D01*
X0082200Y0022066D01*
X0082200Y0022664D02*
X0034378Y0022664D01*
X0044200Y0022664D01*
X0044200Y0023263D02*
X0035415Y0023263D01*
X0082200Y0023263D01*
X0082200Y0023861D02*
X0036156Y0023861D01*
X0044200Y0023861D01*
X0044200Y0024460D02*
X0036755Y0024460D01*
X0082200Y0024460D01*
X0082200Y0025058D02*
X0037353Y0025058D01*
X0044200Y0025058D01*
X0044200Y0025657D02*
X0037952Y0025657D01*
X0082200Y0025657D01*
X0082200Y0026255D02*
X0038336Y0026255D01*
X0044200Y0026255D01*
X0044200Y0026854D02*
X0038681Y0026854D01*
X0062753Y0026854D01*
X0062154Y0027452D02*
X0039027Y0027452D01*
X0044200Y0027452D01*
X0044200Y0028051D02*
X0039372Y0028051D01*
X0062025Y0028051D01*
X0062025Y0028649D02*
X0039688Y0028649D01*
X0044200Y0028649D01*
X0044200Y0029248D02*
X0039848Y0029248D01*
X0062025Y0029248D01*
X0062025Y0029846D02*
X0040008Y0029846D01*
X0044200Y0029846D01*
X0044200Y0030445D02*
X0040169Y0030445D01*
X0062025Y0030445D01*
X0062025Y0031043D02*
X0040329Y0031043D01*
X0044200Y0031043D01*
X0044200Y0031642D02*
X0040490Y0031642D01*
X0062025Y0031642D01*
X0062025Y0032240D02*
X0040500Y0032240D01*
X0044200Y0032240D01*
X0024200Y0020270D02*
X0082200Y0020270D01*
X0082200Y0019672D02*
X0024200Y0019672D01*
X0024200Y0019073D02*
X0082200Y0019073D01*
X0082200Y0018475D02*
X0024200Y0018475D01*
X0024200Y0017876D02*
X0082200Y0017876D01*
X0082200Y0017278D02*
X0024200Y0017278D01*
X0024200Y0016679D02*
X0082200Y0016679D01*
X0082200Y0016081D02*
X0024200Y0016081D01*
X0024200Y0015482D02*
X0082200Y0015482D01*
X0082200Y0014884D02*
X0024200Y0014884D01*
X0024200Y0014285D02*
X0082200Y0014285D01*
X0082200Y0013687D02*
X0024200Y0013687D01*
X0024200Y0013088D02*
X0082200Y0013088D01*
X0085200Y0013088D02*
X0115200Y0013088D01*
X0115200Y0013687D02*
X0085200Y0013687D01*
X0085200Y0014285D02*
X0115200Y0014285D01*
X0115200Y0014884D02*
X0085200Y0014884D01*
X0085200Y0015482D02*
X0115200Y0015482D01*
X0115200Y0016081D02*
X0085200Y0016081D01*
X0085200Y0016679D02*
X0115200Y0016679D01*
X0115200Y0017278D02*
X0085200Y0017278D01*
X0085200Y0017876D02*
X0115200Y0017876D01*
X0115200Y0018475D02*
X0085200Y0018475D01*
X0085200Y0019073D02*
X0115200Y0019073D01*
X0115200Y0019672D02*
X0085200Y0019672D01*
X0085200Y0020270D02*
X0115200Y0020270D01*
X0115200Y0020869D02*
X0085200Y0020869D01*
X0085200Y0021467D02*
X0115200Y0021467D01*
X0115200Y0022066D02*
X0085200Y0022066D01*
X0085200Y0022664D02*
X0115200Y0022664D01*
X0115200Y0023263D02*
X0085200Y0023263D01*
X0085200Y0023861D02*
X0115200Y0023861D01*
X0115200Y0024460D02*
X0085200Y0024460D01*
X0085200Y0025058D02*
X0115200Y0025058D01*
X0115200Y0025657D02*
X0085200Y0025657D01*
X0085200Y0026255D02*
X0115200Y0026255D01*
X0115200Y0026854D02*
X0103546Y0026854D01*
X0104145Y0027452D02*
X0115200Y0027452D01*
X0115200Y0028051D02*
X0104275Y0028051D01*
X0104275Y0028649D02*
X0115200Y0028649D01*
X0115200Y0029248D02*
X0104275Y0029248D01*
X0104275Y0029846D02*
X0115200Y0029846D01*
X0115200Y0030445D02*
X0104275Y0030445D01*
X0104275Y0031043D02*
X0115200Y0031043D01*
X0115200Y0031642D02*
X0104275Y0031642D01*
X0104275Y0032240D02*
X0115200Y0032240D01*
X0122200Y0032240D02*
X0169886Y0032240D01*
X0170484Y0031642D02*
X0122200Y0031642D01*
X0122200Y0031043D02*
X0171083Y0031043D01*
X0171681Y0030445D02*
X0122200Y0030445D01*
X0122200Y0029846D02*
X0172280Y0029846D01*
X0172878Y0029248D02*
X0122200Y0029248D01*
X0122200Y0028649D02*
X0173477Y0028649D01*
X0174075Y0028051D02*
X0122200Y0028051D01*
X0122200Y0027452D02*
X0174674Y0027452D01*
X0175272Y0026854D02*
X0122200Y0026854D01*
X0122200Y0026255D02*
X0175871Y0026255D01*
X0176469Y0025657D02*
X0122200Y0025657D01*
X0122200Y0025058D02*
X0177068Y0025058D01*
X0177666Y0024460D02*
X0122200Y0024460D01*
X0122200Y0023861D02*
X0178265Y0023861D01*
X0178863Y0023263D02*
X0122200Y0023263D01*
X0122200Y0022664D02*
X0178900Y0022664D01*
X0178900Y0022066D02*
X0122200Y0022066D01*
X0122200Y0021467D02*
X0178900Y0021467D01*
X0178900Y0020869D02*
X0122200Y0020869D01*
X0122200Y0020270D02*
X0178972Y0020270D01*
X0179220Y0019672D02*
X0122200Y0019672D01*
X0122200Y0019073D02*
X0179468Y0019073D01*
X0179944Y0018475D02*
X0122200Y0018475D01*
X0122200Y0017876D02*
X0180543Y0017876D01*
X0181674Y0017278D02*
X0122200Y0017278D01*
X0122200Y0016679D02*
X0388821Y0016679D01*
X0388821Y0016081D02*
X0122200Y0016081D01*
X0122200Y0015482D02*
X0388821Y0015482D01*
X0388821Y0014884D02*
X0122200Y0014884D01*
X0122200Y0014285D02*
X0388821Y0014285D01*
X0388821Y0013687D02*
X0122200Y0013687D01*
X0122200Y0013088D02*
X0388821Y0013088D01*
X0388821Y0017278D02*
X0214726Y0017278D01*
X0215857Y0017876D02*
X0388821Y0017876D01*
X0388821Y0018475D02*
X0216456Y0018475D01*
X0216932Y0019073D02*
X0388821Y0019073D01*
X0388821Y0019672D02*
X0217180Y0019672D01*
X0217428Y0020270D02*
X0388821Y0020270D01*
X0388821Y0020869D02*
X0217500Y0020869D01*
X0217500Y0021467D02*
X0274837Y0021467D01*
X0273452Y0021838D02*
X0276581Y0021000D01*
X0279819Y0021000D01*
X0282948Y0021838D01*
X0285752Y0023458D01*
X0288042Y0025748D01*
X0289662Y0028552D01*
X0290500Y0031681D01*
X0290500Y0034919D01*
X0289662Y0038048D01*
X0288042Y0040852D01*
X0285752Y0043142D01*
X0282948Y0044762D01*
X0279819Y0045600D01*
X0276581Y0045600D01*
X0273452Y0044762D01*
X0270648Y0043142D01*
X0268358Y0040852D01*
X0266738Y0038048D01*
X0265900Y0034919D01*
X0265900Y0031681D01*
X0266738Y0028552D01*
X0268358Y0025748D01*
X0270648Y0023458D01*
X0273452Y0021838D01*
X0273058Y0022066D02*
X0217500Y0022066D01*
X0217500Y0022664D02*
X0272022Y0022664D01*
X0270985Y0023263D02*
X0217500Y0023263D01*
X0217500Y0023861D02*
X0270244Y0023861D01*
X0269645Y0024460D02*
X0217500Y0024460D01*
X0217500Y0025058D02*
X0269047Y0025058D01*
X0268448Y0025657D02*
X0217500Y0025657D01*
X0217500Y0026255D02*
X0268064Y0026255D01*
X0267719Y0026854D02*
X0217500Y0026854D01*
X0217500Y0027452D02*
X0267373Y0027452D01*
X0267028Y0028051D02*
X0217500Y0028051D01*
X0217295Y0028649D02*
X0266712Y0028649D01*
X0266552Y0029248D02*
X0217047Y0029248D01*
X0217000Y0029846D02*
X0266391Y0029846D01*
X0266231Y0030445D02*
X0217000Y0030445D01*
X0217000Y0031043D02*
X0266071Y0031043D01*
X0265910Y0031642D02*
X0217000Y0031642D01*
X0217000Y0032240D02*
X0265900Y0032240D01*
X0265900Y0032839D02*
X0217000Y0032839D01*
X0217000Y0033437D02*
X0265900Y0033437D01*
X0265900Y0034036D02*
X0217000Y0034036D01*
X0217000Y0034634D02*
X0265900Y0034634D01*
X0265984Y0035233D02*
X0217000Y0035233D01*
X0217000Y0035832D02*
X0266144Y0035832D01*
X0266305Y0036430D02*
X0217000Y0036430D01*
X0217000Y0037029D02*
X0266465Y0037029D01*
X0266626Y0037627D02*
X0217000Y0037627D01*
X0217000Y0038226D02*
X0266841Y0038226D01*
X0267187Y0038824D02*
X0217000Y0038824D01*
X0217000Y0039423D02*
X0267532Y0039423D01*
X0267878Y0040021D02*
X0217000Y0040021D01*
X0217000Y0040620D02*
X0268223Y0040620D01*
X0268723Y0041218D02*
X0217000Y0041218D01*
X0217000Y0041817D02*
X0269322Y0041817D01*
X0269920Y0042415D02*
X0216851Y0042415D01*
X0216603Y0043014D02*
X0270519Y0043014D01*
X0271461Y0043612D02*
X0216262Y0043612D01*
X0215663Y0044211D02*
X0272498Y0044211D01*
X0273629Y0044809D02*
X0215065Y0044809D01*
X0214466Y0045408D02*
X0275863Y0045408D01*
X0280537Y0045408D02*
X0388821Y0045408D01*
X0388821Y0046006D02*
X0379843Y0046006D01*
X0382076Y0046605D02*
X0388821Y0046605D01*
X0388821Y0047203D02*
X0383580Y0047203D01*
X0384616Y0047802D02*
X0388821Y0047802D01*
X0388821Y0048400D02*
X0385653Y0048400D01*
X0386294Y0048999D02*
X0388821Y0048999D01*
X0388821Y0049597D02*
X0386892Y0049597D01*
X0387491Y0050196D02*
X0388821Y0050196D01*
X0388821Y0050794D02*
X0388069Y0050794D01*
X0388415Y0051393D02*
X0388821Y0051393D01*
X0388821Y0051991D02*
X0388760Y0051991D01*
X0376557Y0046006D02*
X0329843Y0046006D01*
X0329819Y0046000D02*
X0332948Y0046838D01*
X0335752Y0048458D01*
X0338042Y0050748D01*
X0339662Y0053552D01*
X0340500Y0056681D01*
X0340500Y0059919D01*
X0339662Y0063048D01*
X0338042Y0065852D01*
X0335752Y0068142D01*
X0332948Y0069762D01*
X0329819Y0070600D01*
X0326581Y0070600D01*
X0323452Y0069762D01*
X0320648Y0068142D01*
X0318358Y0065852D01*
X0316738Y0063048D01*
X0315900Y0059919D01*
X0315900Y0056681D01*
X0316738Y0053552D01*
X0318358Y0050748D01*
X0320648Y0048458D01*
X0323452Y0046838D01*
X0326581Y0046000D01*
X0329819Y0046000D01*
X0332076Y0046605D02*
X0374324Y0046605D01*
X0372820Y0047203D02*
X0333580Y0047203D01*
X0334616Y0047802D02*
X0371783Y0047802D01*
X0370747Y0048400D02*
X0335653Y0048400D01*
X0336294Y0048999D02*
X0370106Y0048999D01*
X0369508Y0049597D02*
X0336892Y0049597D01*
X0337491Y0050196D02*
X0368909Y0050196D01*
X0368331Y0050794D02*
X0338069Y0050794D01*
X0338415Y0051393D02*
X0367985Y0051393D01*
X0367639Y0051991D02*
X0338760Y0051991D01*
X0339106Y0052590D02*
X0367294Y0052590D01*
X0366948Y0053188D02*
X0339452Y0053188D01*
X0339725Y0053787D02*
X0366675Y0053787D01*
X0366515Y0054385D02*
X0339885Y0054385D01*
X0340045Y0054984D02*
X0366355Y0054984D01*
X0366194Y0055582D02*
X0340206Y0055582D01*
X0340366Y0056181D02*
X0366034Y0056181D01*
X0365900Y0056779D02*
X0340500Y0056779D01*
X0340500Y0057378D02*
X0365900Y0057378D01*
X0365900Y0057976D02*
X0340500Y0057976D01*
X0340500Y0058575D02*
X0365900Y0058575D01*
X0365900Y0059173D02*
X0340500Y0059173D01*
X0340500Y0059772D02*
X0365900Y0059772D01*
X0366021Y0060370D02*
X0340379Y0060370D01*
X0340219Y0060969D02*
X0366181Y0060969D01*
X0366342Y0061568D02*
X0340058Y0061568D01*
X0339898Y0062166D02*
X0366502Y0062166D01*
X0366662Y0062765D02*
X0339738Y0062765D01*
X0339480Y0063363D02*
X0366920Y0063363D01*
X0367266Y0063962D02*
X0339134Y0063962D01*
X0338789Y0064560D02*
X0367611Y0064560D01*
X0367957Y0065159D02*
X0338443Y0065159D01*
X0338097Y0065757D02*
X0368303Y0065757D01*
X0368861Y0066356D02*
X0337539Y0066356D01*
X0336941Y0066954D02*
X0369459Y0066954D01*
X0370058Y0067553D02*
X0336342Y0067553D01*
X0335737Y0068151D02*
X0370663Y0068151D01*
X0371699Y0068750D02*
X0334701Y0068750D01*
X0333664Y0069348D02*
X0372736Y0069348D01*
X0374142Y0069947D02*
X0332258Y0069947D01*
X0330024Y0070545D02*
X0376376Y0070545D01*
X0380024Y0070545D02*
X0388821Y0070545D01*
X0388821Y0069947D02*
X0382258Y0069947D01*
X0383664Y0069348D02*
X0388821Y0069348D01*
X0388821Y0068750D02*
X0384701Y0068750D01*
X0385737Y0068151D02*
X0388821Y0068151D01*
X0388821Y0067553D02*
X0386342Y0067553D01*
X0386941Y0066954D02*
X0388821Y0066954D01*
X0388821Y0066356D02*
X0387539Y0066356D01*
X0388097Y0065757D02*
X0388821Y0065757D01*
X0388821Y0065159D02*
X0388443Y0065159D01*
X0388789Y0064560D02*
X0388821Y0064560D01*
X0388821Y0071144D02*
X0188730Y0071144D01*
X0188132Y0071742D02*
X0388821Y0071742D01*
X0388821Y0072341D02*
X0187533Y0072341D01*
X0186935Y0072939D02*
X0388821Y0072939D01*
X0388821Y0073538D02*
X0186336Y0073538D01*
X0185738Y0074136D02*
X0388821Y0074136D01*
X0388821Y0074735D02*
X0185139Y0074735D01*
X0184541Y0075333D02*
X0388821Y0075333D01*
X0388821Y0075932D02*
X0183942Y0075932D01*
X0183331Y0076530D02*
X0388821Y0076530D01*
X0388821Y0044809D02*
X0282771Y0044809D01*
X0283902Y0044211D02*
X0388821Y0044211D01*
X0388821Y0043612D02*
X0284939Y0043612D01*
X0285881Y0043014D02*
X0388821Y0043014D01*
X0388821Y0042415D02*
X0286480Y0042415D01*
X0287078Y0041817D02*
X0388821Y0041817D01*
X0388821Y0041218D02*
X0287677Y0041218D01*
X0288177Y0040620D02*
X0388821Y0040620D01*
X0388821Y0040021D02*
X0288522Y0040021D01*
X0288868Y0039423D02*
X0388821Y0039423D01*
X0388821Y0038824D02*
X0289213Y0038824D01*
X0289559Y0038226D02*
X0388821Y0038226D01*
X0388821Y0037627D02*
X0289774Y0037627D01*
X0289935Y0037029D02*
X0388821Y0037029D01*
X0388821Y0036430D02*
X0290095Y0036430D01*
X0290256Y0035832D02*
X0388821Y0035832D01*
X0388821Y0035233D02*
X0290416Y0035233D01*
X0290500Y0034634D02*
X0388821Y0034634D01*
X0388821Y0034036D02*
X0290500Y0034036D01*
X0290500Y0033437D02*
X0388821Y0033437D01*
X0388821Y0032839D02*
X0290500Y0032839D01*
X0290500Y0032240D02*
X0388821Y0032240D01*
X0388821Y0031642D02*
X0290490Y0031642D01*
X0290329Y0031043D02*
X0388821Y0031043D01*
X0388821Y0030445D02*
X0290169Y0030445D01*
X0290008Y0029846D02*
X0388821Y0029846D01*
X0388821Y0029248D02*
X0289848Y0029248D01*
X0289688Y0028649D02*
X0388821Y0028649D01*
X0388821Y0028051D02*
X0289372Y0028051D01*
X0289027Y0027452D02*
X0388821Y0027452D01*
X0388821Y0026854D02*
X0288681Y0026854D01*
X0288336Y0026255D02*
X0388821Y0026255D01*
X0388821Y0025657D02*
X0287952Y0025657D01*
X0287353Y0025058D02*
X0388821Y0025058D01*
X0388821Y0024460D02*
X0286755Y0024460D01*
X0286156Y0023861D02*
X0388821Y0023861D01*
X0388821Y0023263D02*
X0285415Y0023263D01*
X0284378Y0022664D02*
X0388821Y0022664D01*
X0388821Y0022066D02*
X0283342Y0022066D01*
X0281563Y0021467D02*
X0388821Y0021467D01*
X0326557Y0046006D02*
X0213868Y0046006D01*
X0213269Y0046605D02*
X0324324Y0046605D01*
X0322820Y0047203D02*
X0212671Y0047203D01*
X0212072Y0047802D02*
X0321783Y0047802D01*
X0320747Y0048400D02*
X0211474Y0048400D01*
X0210875Y0048999D02*
X0320106Y0048999D01*
X0319508Y0049597D02*
X0210277Y0049597D01*
X0209678Y0050196D02*
X0318909Y0050196D01*
X0318331Y0050794D02*
X0209080Y0050794D01*
X0208481Y0051393D02*
X0317985Y0051393D01*
X0317639Y0051991D02*
X0207883Y0051991D01*
X0207284Y0052590D02*
X0317294Y0052590D01*
X0316948Y0053188D02*
X0206686Y0053188D01*
X0206087Y0053787D02*
X0316675Y0053787D01*
X0316515Y0054385D02*
X0205489Y0054385D01*
X0204890Y0054984D02*
X0316355Y0054984D01*
X0316194Y0055582D02*
X0204292Y0055582D01*
X0203693Y0056181D02*
X0316034Y0056181D01*
X0315900Y0056779D02*
X0203095Y0056779D01*
X0202496Y0057378D02*
X0315900Y0057378D01*
X0315900Y0057976D02*
X0201898Y0057976D01*
X0201299Y0058575D02*
X0315900Y0058575D01*
X0315900Y0059173D02*
X0200701Y0059173D01*
X0200102Y0059772D02*
X0315900Y0059772D01*
X0316021Y0060370D02*
X0199504Y0060370D01*
X0198905Y0060969D02*
X0316181Y0060969D01*
X0316342Y0061568D02*
X0198306Y0061568D01*
X0197708Y0062166D02*
X0316502Y0062166D01*
X0316662Y0062765D02*
X0197109Y0062765D01*
X0196511Y0063363D02*
X0316920Y0063363D01*
X0317266Y0063962D02*
X0195912Y0063962D01*
X0195314Y0064560D02*
X0317611Y0064560D01*
X0317957Y0065159D02*
X0194715Y0065159D01*
X0194117Y0065757D02*
X0318303Y0065757D01*
X0318861Y0066356D02*
X0193518Y0066356D01*
X0192920Y0066954D02*
X0319459Y0066954D01*
X0320058Y0067553D02*
X0192321Y0067553D01*
X0191723Y0068151D02*
X0320663Y0068151D01*
X0321699Y0068750D02*
X0191124Y0068750D01*
X0190526Y0069348D02*
X0322736Y0069348D01*
X0324142Y0069947D02*
X0189927Y0069947D01*
X0189329Y0070545D02*
X0326376Y0070545D01*
X0174272Y0150746D02*
X0171020Y0150746D01*
X0171618Y0151344D02*
X0174870Y0151344D01*
X0175469Y0151943D02*
X0172217Y0151943D01*
X0172815Y0152541D02*
X0176067Y0152541D01*
X0176666Y0153140D02*
X0173414Y0153140D01*
X0174012Y0153738D02*
X0177264Y0153738D01*
X0177863Y0154337D02*
X0174611Y0154337D01*
X0175209Y0154935D02*
X0178461Y0154935D01*
X0179060Y0155534D02*
X0175808Y0155534D01*
X0176406Y0156132D02*
X0179658Y0156132D01*
X0180257Y0156731D02*
X0177005Y0156731D01*
X0177603Y0157329D02*
X0180855Y0157329D01*
X0181454Y0157928D02*
X0178202Y0157928D01*
X0178800Y0158526D02*
X0182052Y0158526D01*
X0182651Y0159125D02*
X0179399Y0159125D01*
X0179997Y0159723D02*
X0183249Y0159723D01*
X0183848Y0160322D02*
X0180596Y0160322D01*
X0181194Y0160920D02*
X0184446Y0160920D01*
X0185045Y0161519D02*
X0181793Y0161519D01*
X0182391Y0162117D02*
X0185643Y0162117D01*
X0186242Y0162716D02*
X0182990Y0162716D01*
X0183588Y0163314D02*
X0186840Y0163314D01*
X0187439Y0163913D02*
X0184187Y0163913D01*
X0184785Y0164511D02*
X0188037Y0164511D01*
X0188636Y0165110D02*
X0185384Y0165110D01*
X0185353Y0165079D02*
X0185353Y0165079D01*
X0185982Y0165708D02*
X0189234Y0165708D01*
X0189400Y0166307D02*
X0186488Y0166307D01*
X0186735Y0166905D02*
X0189400Y0166905D01*
X0189400Y0167504D02*
X0186983Y0167504D01*
X0187000Y0168103D02*
X0189400Y0168103D01*
X0189400Y0168701D02*
X0187000Y0168701D01*
X0187000Y0169300D02*
X0189400Y0169300D01*
X0189400Y0169898D02*
X0187000Y0169898D01*
X0187000Y0170497D02*
X0189400Y0170497D01*
X0189400Y0171095D02*
X0187000Y0171095D01*
X0187000Y0171694D02*
X0189400Y0171694D01*
X0189400Y0172292D02*
X0187000Y0172292D01*
X0187000Y0172891D02*
X0189400Y0172891D01*
X0189400Y0173489D02*
X0187000Y0173489D01*
X0187000Y0174088D02*
X0189400Y0174088D01*
X0189400Y0174686D02*
X0187000Y0174686D01*
X0187000Y0175285D02*
X0189400Y0175285D01*
X0189400Y0175883D02*
X0187000Y0175883D01*
X0187000Y0176482D02*
X0189400Y0176482D01*
X0189400Y0177080D02*
X0187000Y0177080D01*
X0187183Y0177679D02*
X0189217Y0177679D01*
X0188969Y0178277D02*
X0187431Y0178277D01*
X0187500Y0178876D02*
X0188900Y0178876D01*
X0188900Y0179474D02*
X0187500Y0179474D01*
X0187500Y0180073D02*
X0188900Y0180073D01*
X0188900Y0180671D02*
X0187500Y0180671D01*
X0187500Y0181270D02*
X0188900Y0181270D01*
X0188900Y0181868D02*
X0187500Y0181868D01*
X0187500Y0182467D02*
X0188900Y0182467D01*
X0188900Y0183065D02*
X0187500Y0183065D01*
X0187500Y0183664D02*
X0188900Y0183664D01*
X0188900Y0184262D02*
X0187500Y0184262D01*
X0187500Y0184861D02*
X0188900Y0184861D01*
X0188900Y0185459D02*
X0187500Y0185459D01*
X0187500Y0186058D02*
X0188900Y0186058D01*
X0189108Y0186656D02*
X0187292Y0186656D01*
X0187045Y0187255D02*
X0189355Y0187255D01*
X0189672Y0187853D02*
X0186728Y0187853D01*
X0186129Y0188452D02*
X0190271Y0188452D01*
X0191018Y0189050D02*
X0185382Y0189050D01*
X0181018Y0189050D02*
X0122200Y0189050D01*
X0122200Y0188452D02*
X0180271Y0188452D01*
X0179672Y0187853D02*
X0122200Y0187853D01*
X0122200Y0187255D02*
X0179355Y0187255D01*
X0179108Y0186656D02*
X0122200Y0186656D01*
X0122200Y0186058D02*
X0178900Y0186058D01*
X0178900Y0185459D02*
X0122200Y0185459D01*
X0122200Y0184861D02*
X0178900Y0184861D01*
X0178900Y0184262D02*
X0122200Y0184262D01*
X0122200Y0183664D02*
X0178900Y0183664D01*
X0178900Y0183065D02*
X0122200Y0183065D01*
X0122200Y0182467D02*
X0178900Y0182467D01*
X0178900Y0181868D02*
X0122200Y0181868D01*
X0122200Y0181270D02*
X0178900Y0181270D01*
X0178900Y0180671D02*
X0122200Y0180671D01*
X0122200Y0180073D02*
X0178900Y0180073D01*
X0178900Y0179474D02*
X0122200Y0179474D01*
X0122200Y0178876D02*
X0178900Y0178876D01*
X0178969Y0178277D02*
X0122200Y0178277D01*
X0122200Y0177679D02*
X0179217Y0177679D01*
X0179400Y0177080D02*
X0122200Y0177080D01*
X0122200Y0176482D02*
X0179400Y0176482D01*
X0179400Y0175883D02*
X0122200Y0175883D01*
X0122200Y0175285D02*
X0179400Y0175285D01*
X0179400Y0174686D02*
X0122200Y0174686D01*
X0122200Y0174088D02*
X0179400Y0174088D01*
X0179400Y0173489D02*
X0122200Y0173489D01*
X0122200Y0172891D02*
X0179400Y0172891D01*
X0197000Y0175285D02*
X0201643Y0175285D01*
X0201549Y0175315D02*
X0202193Y0175106D01*
X0202862Y0175000D01*
X0202900Y0175000D01*
X0202900Y0182000D01*
X0203500Y0182000D01*
X0203500Y0182600D01*
X0207500Y0182600D01*
X0207500Y0185638D01*
X0207394Y0186307D01*
X0207185Y0186951D01*
X0206878Y0187554D01*
X0206480Y0188101D01*
X0206001Y0188580D01*
X0205454Y0188978D01*
X0204851Y0189285D01*
X0204207Y0189494D01*
X0203538Y0189600D01*
X0203500Y0189600D01*
X0203500Y0182600D01*
X0202900Y0182600D01*
X0202900Y0189600D01*
X0202862Y0189600D01*
X0202193Y0189494D01*
X0201549Y0189285D01*
X0200946Y0188978D01*
X0200399Y0188580D01*
X0199920Y0188101D01*
X0199522Y0187554D01*
X0199215Y0186951D01*
X0199006Y0186307D01*
X0198900Y0185638D01*
X0198900Y0182600D01*
X0202900Y0182600D01*
X0202900Y0182000D01*
X0198900Y0182000D01*
X0198900Y0178962D01*
X0199006Y0178293D01*
X0199215Y0177649D01*
X0199522Y0177046D01*
X0199920Y0176499D01*
X0200399Y0176020D01*
X0200946Y0175622D01*
X0201549Y0175315D01*
X0200587Y0175883D02*
X0197000Y0175883D01*
X0197000Y0176482D02*
X0199937Y0176482D01*
X0199505Y0177080D02*
X0197000Y0177080D01*
X0197183Y0177679D02*
X0199205Y0177679D01*
X0199011Y0178277D02*
X0197431Y0178277D01*
X0197500Y0178876D02*
X0198914Y0178876D01*
X0198900Y0179474D02*
X0197500Y0179474D01*
X0197500Y0180073D02*
X0198900Y0180073D01*
X0198900Y0180671D02*
X0197500Y0180671D01*
X0197500Y0181270D02*
X0198900Y0181270D01*
X0198900Y0181868D02*
X0197500Y0181868D01*
X0197500Y0182467D02*
X0202900Y0182467D01*
X0202900Y0183065D02*
X0203500Y0183065D01*
X0203500Y0182467D02*
X0208900Y0182467D01*
X0208900Y0183065D02*
X0207500Y0183065D01*
X0207500Y0183664D02*
X0208900Y0183664D01*
X0208900Y0184262D02*
X0207500Y0184262D01*
X0207500Y0184861D02*
X0208900Y0184861D01*
X0208900Y0185459D02*
X0207500Y0185459D01*
X0207434Y0186058D02*
X0208900Y0186058D01*
X0209108Y0186656D02*
X0207281Y0186656D01*
X0207030Y0187255D02*
X0209355Y0187255D01*
X0209672Y0187853D02*
X0206660Y0187853D01*
X0206129Y0188452D02*
X0210271Y0188452D01*
X0211018Y0189050D02*
X0205311Y0189050D01*
X0203500Y0189050D02*
X0202900Y0189050D01*
X0202900Y0188452D02*
X0203500Y0188452D01*
X0203500Y0187853D02*
X0202900Y0187853D01*
X0202900Y0187255D02*
X0203500Y0187255D01*
X0203500Y0186656D02*
X0202900Y0186656D01*
X0202900Y0186058D02*
X0203500Y0186058D01*
X0203500Y0185459D02*
X0202900Y0185459D01*
X0202900Y0184861D02*
X0203500Y0184861D01*
X0203500Y0184262D02*
X0202900Y0184262D01*
X0202900Y0183664D02*
X0203500Y0183664D01*
X0203500Y0182000D02*
X0207500Y0182000D01*
X0207500Y0178962D01*
X0207394Y0178293D01*
X0207185Y0177649D01*
X0206878Y0177046D01*
X0206480Y0176499D01*
X0206001Y0176020D01*
X0205454Y0175622D01*
X0204851Y0175315D01*
X0204207Y0175106D01*
X0203538Y0175000D01*
X0203500Y0175000D01*
X0203500Y0182000D01*
X0203500Y0181868D02*
X0202900Y0181868D01*
X0202900Y0181270D02*
X0203500Y0181270D01*
X0203500Y0180671D02*
X0202900Y0180671D01*
X0202900Y0180073D02*
X0203500Y0180073D01*
X0203500Y0179474D02*
X0202900Y0179474D01*
X0202900Y0178876D02*
X0203500Y0178876D01*
X0203500Y0178277D02*
X0202900Y0178277D01*
X0202900Y0177679D02*
X0203500Y0177679D01*
X0203500Y0177080D02*
X0202900Y0177080D01*
X0202900Y0176482D02*
X0203500Y0176482D01*
X0203500Y0175883D02*
X0202900Y0175883D01*
X0202900Y0175285D02*
X0203500Y0175285D01*
X0204757Y0175285D02*
X0211657Y0175285D01*
X0210536Y0175883D02*
X0205813Y0175883D01*
X0206463Y0176482D02*
X0209937Y0176482D01*
X0209465Y0177080D02*
X0206895Y0177080D01*
X0207194Y0177679D02*
X0209217Y0177679D01*
X0208969Y0178277D02*
X0207389Y0178277D01*
X0207486Y0178876D02*
X0208900Y0178876D01*
X0208900Y0179474D02*
X0207500Y0179474D01*
X0207500Y0180073D02*
X0208900Y0180073D01*
X0208900Y0180671D02*
X0207500Y0180671D01*
X0207500Y0181270D02*
X0208900Y0181270D01*
X0208900Y0181868D02*
X0207500Y0181868D01*
X0198900Y0183065D02*
X0197500Y0183065D01*
X0197500Y0183664D02*
X0198900Y0183664D01*
X0198900Y0184262D02*
X0197500Y0184262D01*
X0197500Y0184861D02*
X0198900Y0184861D01*
X0198900Y0185459D02*
X0197500Y0185459D01*
X0197500Y0186058D02*
X0198966Y0186058D01*
X0199119Y0186656D02*
X0197292Y0186656D01*
X0197045Y0187255D02*
X0199370Y0187255D01*
X0199740Y0187853D02*
X0196728Y0187853D01*
X0196129Y0188452D02*
X0200271Y0188452D01*
X0201089Y0189050D02*
X0195382Y0189050D01*
X0146078Y0171694D02*
X0140322Y0171694D01*
X0140920Y0171095D02*
X0145480Y0171095D01*
X0144881Y0170497D02*
X0141519Y0170497D01*
X0142100Y0169898D02*
X0144300Y0169898D01*
X0144300Y0169300D02*
X0142100Y0169300D01*
X0142100Y0168701D02*
X0144300Y0168701D01*
X0144300Y0168103D02*
X0142100Y0168103D01*
X0142100Y0167504D02*
X0144300Y0167504D01*
X0144300Y0166905D02*
X0142100Y0166905D01*
X0141722Y0166307D02*
X0144678Y0166307D01*
X0145276Y0165708D02*
X0141124Y0165708D01*
X0141100Y0165110D02*
X0145875Y0165110D01*
X0169224Y0148950D02*
X0172476Y0148950D01*
X0171878Y0148352D02*
X0168626Y0148352D01*
X0168027Y0147753D02*
X0171279Y0147753D01*
X0170681Y0147155D02*
X0167429Y0147155D01*
X0166830Y0146556D02*
X0170082Y0146556D01*
X0169484Y0145958D02*
X0166232Y0145958D01*
X0165633Y0145359D02*
X0168885Y0145359D01*
X0168287Y0144761D02*
X0165035Y0144761D01*
X0164436Y0144162D02*
X0167688Y0144162D01*
X0167090Y0143564D02*
X0163838Y0143564D01*
X0163239Y0142965D02*
X0166491Y0142965D01*
X0165893Y0142367D02*
X0162641Y0142367D01*
X0162042Y0141768D02*
X0165294Y0141768D01*
X0164696Y0141170D02*
X0161444Y0141170D01*
X0160845Y0140571D02*
X0164097Y0140571D01*
X0163498Y0139972D02*
X0160246Y0139972D01*
X0159648Y0139374D02*
X0162900Y0139374D01*
X0162301Y0138775D02*
X0159049Y0138775D01*
X0158451Y0138177D02*
X0161703Y0138177D01*
X0161104Y0137578D02*
X0157852Y0137578D01*
X0157254Y0136980D02*
X0160783Y0136980D01*
X0160535Y0136381D02*
X0156655Y0136381D01*
X0156057Y0135783D02*
X0160400Y0135783D01*
X0160400Y0135184D02*
X0155458Y0135184D01*
X0154860Y0134586D02*
X0160400Y0134586D01*
X0160400Y0133987D02*
X0154261Y0133987D01*
X0153663Y0133389D02*
X0160400Y0133389D01*
X0160400Y0132790D02*
X0153064Y0132790D01*
X0152466Y0132192D02*
X0160400Y0132192D01*
X0160400Y0131593D02*
X0151867Y0131593D01*
X0151269Y0130995D02*
X0160400Y0130995D01*
X0160400Y0130396D02*
X0150670Y0130396D01*
X0150072Y0129798D02*
X0160400Y0129798D01*
X0160400Y0129199D02*
X0149473Y0129199D01*
X0148875Y0128601D02*
X0160400Y0128601D01*
X0160400Y0128002D02*
X0148168Y0128002D01*
X0140938Y0127404D02*
X0160400Y0127404D01*
X0160400Y0126805D02*
X0140339Y0126805D01*
X0139741Y0126207D02*
X0160400Y0126207D01*
X0160400Y0125608D02*
X0139142Y0125608D01*
X0138544Y0125010D02*
X0160400Y0125010D01*
X0160400Y0124411D02*
X0138453Y0124411D01*
X0138453Y0123813D02*
X0160400Y0123813D01*
X0160400Y0123214D02*
X0138453Y0123214D01*
X0138126Y0122616D02*
X0160400Y0122616D01*
X0160400Y0122017D02*
X0154462Y0122017D01*
X0155162Y0121419D02*
X0160400Y0121419D01*
X0160400Y0120820D02*
X0155761Y0120820D01*
X0156058Y0120222D02*
X0160400Y0120222D01*
X0160400Y0119623D02*
X0156306Y0119623D01*
X0156500Y0119025D02*
X0160400Y0119025D01*
X0160400Y0118426D02*
X0156500Y0118426D01*
X0156500Y0117828D02*
X0160400Y0117828D01*
X0160400Y0117229D02*
X0156411Y0117229D01*
X0156163Y0116631D02*
X0160400Y0116631D01*
X0160400Y0116032D02*
X0155915Y0116032D01*
X0155415Y0115434D02*
X0160400Y0115434D01*
X0160400Y0114835D02*
X0154816Y0114835D01*
X0160164Y0113638D02*
X0122200Y0113638D01*
X0122200Y0114237D02*
X0144774Y0114237D01*
X0130575Y0114835D02*
X0122200Y0114835D01*
X0122200Y0115434D02*
X0129976Y0115434D01*
X0129947Y0116032D02*
X0122200Y0116032D01*
X0122200Y0116631D02*
X0129947Y0116631D01*
X0129947Y0117229D02*
X0122200Y0117229D01*
X0122200Y0117828D02*
X0129947Y0117828D01*
X0129947Y0118426D02*
X0122200Y0118426D01*
X0122200Y0119025D02*
X0129947Y0119025D01*
X0129947Y0119623D02*
X0122200Y0119623D01*
X0122496Y0120222D02*
X0129947Y0120222D01*
X0129947Y0120820D02*
X0123094Y0120820D01*
X0123693Y0121419D02*
X0129947Y0121419D01*
X0130307Y0122017D02*
X0124291Y0122017D01*
X0122200Y0130396D02*
X0133182Y0130396D01*
X0133781Y0130995D02*
X0122200Y0130995D01*
X0122200Y0131593D02*
X0134379Y0131593D01*
X0134978Y0132192D02*
X0122200Y0132192D01*
X0122200Y0132790D02*
X0135576Y0132790D01*
X0136175Y0133389D02*
X0122200Y0133389D01*
X0122200Y0133987D02*
X0136773Y0133987D01*
X0137463Y0134586D02*
X0122200Y0134586D01*
X0122200Y0135184D02*
X0144710Y0135184D01*
X0145309Y0135783D02*
X0122200Y0135783D01*
X0122200Y0136381D02*
X0145907Y0136381D01*
X0169823Y0149549D02*
X0173075Y0149549D01*
X0173673Y0150147D02*
X0170421Y0150147D01*
X0149500Y0102266D02*
X0148900Y0102266D01*
X0148900Y0101668D02*
X0149500Y0101668D01*
X0149500Y0101069D02*
X0148900Y0101069D01*
X0148900Y0100471D02*
X0149500Y0100471D01*
X0149500Y0099872D02*
X0148900Y0099872D01*
X0148900Y0099274D02*
X0149500Y0099274D01*
X0149500Y0098675D02*
X0148900Y0098675D01*
X0148900Y0096880D02*
X0149500Y0096880D01*
X0149500Y0096281D02*
X0148900Y0096281D01*
X0148900Y0095683D02*
X0149500Y0095683D01*
X0149500Y0095084D02*
X0148900Y0095084D01*
X0148900Y0094486D02*
X0149500Y0094486D01*
X0162160Y0087303D02*
X0162760Y0087303D01*
X0162760Y0086705D02*
X0162160Y0086705D01*
X0162160Y0086106D02*
X0162760Y0086106D01*
X0162760Y0085508D02*
X0162160Y0085508D01*
X0162160Y0084909D02*
X0162760Y0084909D01*
X0162760Y0084311D02*
X0162160Y0084311D01*
X0162160Y0083712D02*
X0162760Y0083712D01*
X0165799Y0087303D02*
X0166593Y0087303D01*
X0166140Y0079523D02*
X0166033Y0079523D01*
X0146400Y0067553D02*
X0140463Y0067553D01*
X0139864Y0068151D02*
X0145975Y0068151D01*
X0145376Y0068750D02*
X0122200Y0068750D01*
X0122200Y0069348D02*
X0144778Y0069348D01*
X0144179Y0069947D02*
X0122200Y0069947D01*
X0122200Y0070545D02*
X0143581Y0070545D01*
X0142982Y0071144D02*
X0122200Y0071144D01*
X0122200Y0071742D02*
X0142384Y0071742D01*
X0141785Y0072341D02*
X0122200Y0072341D01*
X0122200Y0072939D02*
X0141187Y0072939D01*
X0140588Y0073538D02*
X0122200Y0073538D01*
X0122200Y0074136D02*
X0139990Y0074136D01*
X0139391Y0074735D02*
X0122200Y0074735D01*
X0122200Y0075333D02*
X0138793Y0075333D01*
X0138194Y0075932D02*
X0122200Y0075932D01*
X0122200Y0076530D02*
X0137596Y0076530D01*
X0136997Y0077129D02*
X0122200Y0077129D01*
X0122200Y0077727D02*
X0136399Y0077727D01*
X0135800Y0078326D02*
X0122200Y0078326D01*
X0122200Y0078924D02*
X0135202Y0078924D01*
X0134603Y0079523D02*
X0122200Y0079523D01*
X0122200Y0080121D02*
X0134005Y0080121D01*
X0133406Y0080720D02*
X0122200Y0080720D01*
X0122200Y0081318D02*
X0132808Y0081318D01*
X0132209Y0081917D02*
X0122200Y0081917D01*
X0122200Y0082515D02*
X0131611Y0082515D01*
X0131012Y0083114D02*
X0122200Y0083114D01*
X0122200Y0083712D02*
X0130414Y0083712D01*
X0129815Y0084311D02*
X0122200Y0084311D01*
X0136585Y0068200D02*
X0134300Y0065915D01*
X0134300Y0062685D01*
X0135300Y0061685D01*
X0135300Y0040915D01*
X0134300Y0039915D01*
X0134300Y0036685D01*
X0136585Y0034400D01*
X0139815Y0034400D01*
X0142100Y0036685D01*
X0142100Y0039915D01*
X0141100Y0040915D01*
X0141100Y0061685D01*
X0142100Y0062685D01*
X0142100Y0065915D01*
X0139815Y0068200D01*
X0136585Y0068200D01*
X0136536Y0068151D02*
X0122200Y0068151D01*
X0122200Y0067553D02*
X0135937Y0067553D01*
X0135339Y0066954D02*
X0122200Y0066954D01*
X0122200Y0066356D02*
X0134740Y0066356D01*
X0134300Y0065757D02*
X0122200Y0065757D01*
X0122200Y0065159D02*
X0134300Y0065159D01*
X0134300Y0064560D02*
X0122200Y0064560D01*
X0122200Y0063962D02*
X0134300Y0063962D01*
X0134300Y0063363D02*
X0122200Y0063363D01*
X0122200Y0062765D02*
X0134300Y0062765D01*
X0134819Y0062166D02*
X0122200Y0062166D01*
X0122200Y0061568D02*
X0135300Y0061568D01*
X0135300Y0060969D02*
X0122200Y0060969D01*
X0122200Y0060370D02*
X0135300Y0060370D01*
X0135300Y0059772D02*
X0122200Y0059772D01*
X0122200Y0059173D02*
X0135300Y0059173D01*
X0135300Y0058575D02*
X0122200Y0058575D01*
X0122200Y0057976D02*
X0135300Y0057976D01*
X0135300Y0057378D02*
X0122200Y0057378D01*
X0122200Y0056779D02*
X0135300Y0056779D01*
X0135300Y0056181D02*
X0122200Y0056181D01*
X0122200Y0055582D02*
X0135300Y0055582D01*
X0135300Y0054984D02*
X0122200Y0054984D01*
X0122200Y0054385D02*
X0135300Y0054385D01*
X0135300Y0053787D02*
X0122200Y0053787D01*
X0122200Y0053188D02*
X0135300Y0053188D01*
X0135300Y0052590D02*
X0122200Y0052590D01*
X0122200Y0051991D02*
X0135300Y0051991D01*
X0135300Y0051393D02*
X0122200Y0051393D01*
X0122200Y0050794D02*
X0135300Y0050794D01*
X0135300Y0050196D02*
X0122200Y0050196D01*
X0122200Y0049597D02*
X0135300Y0049597D01*
X0135300Y0048999D02*
X0122200Y0048999D01*
X0122200Y0048400D02*
X0135300Y0048400D01*
X0135300Y0047802D02*
X0122200Y0047802D01*
X0122200Y0047203D02*
X0135300Y0047203D01*
X0135300Y0046605D02*
X0122200Y0046605D01*
X0122200Y0046006D02*
X0135300Y0046006D01*
X0135300Y0045408D02*
X0122200Y0045408D01*
X0122200Y0044809D02*
X0135300Y0044809D01*
X0135300Y0044211D02*
X0122200Y0044211D01*
X0122200Y0043612D02*
X0135300Y0043612D01*
X0135300Y0043014D02*
X0122200Y0043014D01*
X0122200Y0042415D02*
X0135300Y0042415D01*
X0135300Y0041817D02*
X0122200Y0041817D01*
X0122200Y0041218D02*
X0135300Y0041218D01*
X0135004Y0040620D02*
X0122200Y0040620D01*
X0122200Y0040021D02*
X0134406Y0040021D01*
X0134300Y0039423D02*
X0122200Y0039423D01*
X0122200Y0038824D02*
X0134300Y0038824D01*
X0134300Y0038226D02*
X0122200Y0038226D01*
X0122200Y0037627D02*
X0134300Y0037627D01*
X0134300Y0037029D02*
X0122200Y0037029D01*
X0122200Y0036430D02*
X0134555Y0036430D01*
X0135153Y0035832D02*
X0122200Y0035832D01*
X0122200Y0035233D02*
X0135752Y0035233D01*
X0136350Y0034634D02*
X0122200Y0034634D01*
X0122200Y0034036D02*
X0168090Y0034036D01*
X0167491Y0034634D02*
X0150050Y0034634D01*
X0149815Y0034400D02*
X0152100Y0036685D01*
X0152100Y0039915D01*
X0149815Y0042200D01*
X0146585Y0042200D01*
X0144300Y0039915D01*
X0144300Y0036685D01*
X0146585Y0034400D01*
X0149815Y0034400D01*
X0150648Y0035233D02*
X0166893Y0035233D01*
X0166294Y0035832D02*
X0151247Y0035832D01*
X0151845Y0036430D02*
X0165696Y0036430D01*
X0165097Y0037029D02*
X0152100Y0037029D01*
X0152100Y0037627D02*
X0164499Y0037627D01*
X0163900Y0038226D02*
X0152100Y0038226D01*
X0152100Y0038824D02*
X0163302Y0038824D01*
X0162703Y0039423D02*
X0152100Y0039423D01*
X0151994Y0040021D02*
X0162105Y0040021D01*
X0161506Y0040620D02*
X0151396Y0040620D01*
X0150797Y0041218D02*
X0160908Y0041218D01*
X0160309Y0041817D02*
X0150199Y0041817D01*
X0146201Y0041817D02*
X0141100Y0041817D01*
X0141100Y0042415D02*
X0159711Y0042415D01*
X0159112Y0043014D02*
X0141100Y0043014D01*
X0141100Y0043612D02*
X0158514Y0043612D01*
X0157915Y0044211D02*
X0141100Y0044211D01*
X0141100Y0044809D02*
X0157317Y0044809D01*
X0156718Y0045408D02*
X0141100Y0045408D01*
X0141100Y0046006D02*
X0156120Y0046006D01*
X0155521Y0046605D02*
X0141100Y0046605D01*
X0141100Y0047203D02*
X0154923Y0047203D01*
X0154324Y0047802D02*
X0141100Y0047802D01*
X0141100Y0048400D02*
X0153726Y0048400D01*
X0153127Y0048999D02*
X0141100Y0048999D01*
X0141100Y0049597D02*
X0152529Y0049597D01*
X0151930Y0050196D02*
X0141100Y0050196D01*
X0141100Y0050794D02*
X0151332Y0050794D01*
X0150733Y0051393D02*
X0141100Y0051393D01*
X0141100Y0051991D02*
X0150135Y0051991D01*
X0149536Y0052590D02*
X0141100Y0052590D01*
X0141100Y0053188D02*
X0148938Y0053188D01*
X0148339Y0053787D02*
X0141100Y0053787D01*
X0141100Y0054385D02*
X0147741Y0054385D01*
X0147142Y0054984D02*
X0141100Y0054984D01*
X0141100Y0055582D02*
X0146798Y0055582D01*
X0146550Y0056181D02*
X0141100Y0056181D01*
X0141100Y0056779D02*
X0146400Y0056779D01*
X0146400Y0057378D02*
X0141100Y0057378D01*
X0141100Y0057976D02*
X0146400Y0057976D01*
X0146400Y0058575D02*
X0141100Y0058575D01*
X0141100Y0059173D02*
X0146400Y0059173D01*
X0146400Y0059772D02*
X0141100Y0059772D01*
X0141100Y0060370D02*
X0146400Y0060370D01*
X0146400Y0060969D02*
X0141100Y0060969D01*
X0141100Y0061568D02*
X0146400Y0061568D01*
X0146400Y0062166D02*
X0141581Y0062166D01*
X0142100Y0062765D02*
X0146400Y0062765D01*
X0146400Y0063363D02*
X0142100Y0063363D01*
X0142100Y0063962D02*
X0146400Y0063962D01*
X0146400Y0064560D02*
X0142100Y0064560D01*
X0142100Y0065159D02*
X0146400Y0065159D01*
X0146400Y0065757D02*
X0142100Y0065757D01*
X0141660Y0066356D02*
X0146400Y0066356D01*
X0146400Y0066954D02*
X0141061Y0066954D01*
X0096016Y0060969D02*
X0085200Y0060969D01*
X0085200Y0061568D02*
X0095417Y0061568D01*
X0094819Y0062166D02*
X0085200Y0062166D01*
X0085200Y0062765D02*
X0094300Y0062765D01*
X0094300Y0063363D02*
X0085200Y0063363D01*
X0085200Y0063962D02*
X0094300Y0063962D01*
X0097800Y0038824D02*
X0098400Y0038824D01*
X0098400Y0038226D02*
X0097800Y0038226D01*
X0097800Y0037627D02*
X0098400Y0037627D01*
X0098400Y0037029D02*
X0097800Y0037029D01*
X0097800Y0036430D02*
X0098400Y0036430D01*
X0098400Y0035832D02*
X0097800Y0035832D01*
X0097800Y0035233D02*
X0098400Y0035233D01*
X0098400Y0034634D02*
X0097800Y0034634D01*
X0097800Y0034036D02*
X0098400Y0034036D01*
X0098400Y0033437D02*
X0097800Y0033437D01*
X0097800Y0031642D02*
X0098400Y0031642D01*
X0098400Y0031043D02*
X0097800Y0031043D01*
X0097800Y0030445D02*
X0098400Y0030445D01*
X0098400Y0029846D02*
X0097800Y0029846D01*
X0097800Y0029248D02*
X0098400Y0029248D01*
X0098400Y0028649D02*
X0097800Y0028649D01*
X0097800Y0028051D02*
X0098400Y0028051D01*
X0098400Y0027452D02*
X0097800Y0027452D01*
X0097800Y0026854D02*
X0098400Y0026854D01*
X0092653Y0026854D02*
X0085200Y0026854D01*
X0085200Y0027452D02*
X0092054Y0027452D01*
X0091925Y0028051D02*
X0085200Y0028051D01*
X0085200Y0028649D02*
X0091925Y0028649D01*
X0091925Y0029248D02*
X0085200Y0029248D01*
X0085200Y0029846D02*
X0091925Y0029846D01*
X0091925Y0030445D02*
X0085200Y0030445D01*
X0085200Y0031043D02*
X0091925Y0031043D01*
X0091925Y0031642D02*
X0085200Y0031642D01*
X0085200Y0032240D02*
X0091925Y0032240D01*
X0082200Y0032240D02*
X0074375Y0032240D01*
X0074375Y0031642D02*
X0082200Y0031642D01*
X0082200Y0031043D02*
X0074375Y0031043D01*
X0074375Y0030445D02*
X0082200Y0030445D01*
X0082200Y0029846D02*
X0074375Y0029846D01*
X0074375Y0029248D02*
X0082200Y0029248D01*
X0082200Y0028649D02*
X0074375Y0028649D01*
X0074375Y0028051D02*
X0082200Y0028051D01*
X0082200Y0027452D02*
X0074245Y0027452D01*
X0073646Y0026854D02*
X0082200Y0026854D01*
X0068500Y0026854D02*
X0067900Y0026854D01*
X0067900Y0027452D02*
X0068500Y0027452D01*
X0068500Y0028051D02*
X0067900Y0028051D01*
X0067900Y0028649D02*
X0068500Y0028649D01*
X0068500Y0029248D02*
X0067900Y0029248D01*
X0067900Y0029846D02*
X0068500Y0029846D01*
X0068500Y0030445D02*
X0067900Y0030445D01*
X0067900Y0031043D02*
X0068500Y0031043D01*
X0068500Y0031642D02*
X0067900Y0031642D01*
X0067900Y0033437D02*
X0068500Y0033437D01*
X0068500Y0034036D02*
X0067900Y0034036D01*
X0067900Y0034634D02*
X0068500Y0034634D01*
X0068500Y0035233D02*
X0067900Y0035233D01*
X0067900Y0035832D02*
X0068500Y0035832D01*
X0068500Y0036430D02*
X0067900Y0036430D01*
X0067900Y0037029D02*
X0068500Y0037029D01*
X0068500Y0037627D02*
X0067900Y0037627D01*
X0067900Y0038226D02*
X0068500Y0038226D01*
X0068500Y0038824D02*
X0067900Y0038824D01*
X0122200Y0033437D02*
X0168689Y0033437D01*
X0169287Y0032839D02*
X0122200Y0032839D01*
X0140050Y0034634D02*
X0146350Y0034634D01*
X0145752Y0035233D02*
X0140648Y0035233D01*
X0141247Y0035832D02*
X0145153Y0035832D01*
X0144555Y0036430D02*
X0141845Y0036430D01*
X0142100Y0037029D02*
X0144300Y0037029D01*
X0144300Y0037627D02*
X0142100Y0037627D01*
X0142100Y0038226D02*
X0144300Y0038226D01*
X0144300Y0038824D02*
X0142100Y0038824D01*
X0142100Y0039423D02*
X0144300Y0039423D01*
X0144406Y0040021D02*
X0141994Y0040021D01*
X0141396Y0040620D02*
X0145004Y0040620D01*
X0145603Y0041218D02*
X0141100Y0041218D01*
X0033500Y0125010D02*
X0032900Y0125010D01*
X0033500Y0125010D01*
X0033500Y0125608D02*
X0032900Y0125608D01*
X0033500Y0125608D01*
X0033500Y0126207D02*
X0032900Y0126207D01*
X0033500Y0126207D01*
X0033500Y0126805D02*
X0032900Y0126805D01*
X0033500Y0126805D01*
D23*
X0033200Y0122300D02*
X0035200Y0122300D01*
X0033200Y0122300D02*
X0033200Y0118300D01*
X0033200Y0108300D01*
X0034200Y0108300D01*
X0034200Y0088300D01*
X0033200Y0088300D01*
X0033200Y0079300D01*
X0034200Y0079300D01*
X0033200Y0088300D02*
X0028200Y0088300D01*
X0028200Y0092300D01*
X0063200Y0038300D02*
X0065200Y0036300D01*
X0073200Y0036300D01*
X0073200Y0027300D01*
X0071200Y0025300D01*
X0065200Y0031300D01*
X0066600Y0031300D01*
X0068200Y0032900D01*
X0063200Y0037900D01*
X0063200Y0038300D01*
X0065200Y0031300D02*
X0060200Y0031300D01*
X0091200Y0028300D02*
X0093200Y0026300D01*
X0101200Y0026300D01*
X0101200Y0035300D01*
X0103200Y0037300D01*
X0102200Y0038300D01*
X0092700Y0038300D01*
X0092200Y0038300D01*
X0092700Y0038300D02*
X0098100Y0032900D01*
X0095800Y0032900D01*
X0091200Y0028300D01*
X0095200Y0167300D02*
X0092200Y0170300D01*
X0095600Y0173700D01*
X0098200Y0173700D01*
X0094200Y0177700D01*
X0094200Y0178300D01*
X0103200Y0178300D01*
X0104200Y0177300D01*
X0101200Y0174300D01*
X0101200Y0167300D01*
X0095200Y0167300D01*
D24*
X0093062Y0166825D02*
X0097575Y0166825D01*
X0097575Y0173075D01*
X0091325Y0173075D01*
X0091325Y0168562D01*
X0091461Y0168053D01*
X0091725Y0167597D01*
X0092097Y0167225D01*
X0092553Y0166961D01*
X0093062Y0166825D01*
X0091427Y0168181D02*
X0081200Y0168181D01*
X0081200Y0170179D02*
X0091325Y0170179D01*
X0091325Y0172178D02*
X0081200Y0172178D01*
X0081200Y0174176D02*
X0097575Y0174176D01*
X0097575Y0174325D02*
X0097575Y0173075D01*
X0098825Y0173075D01*
X0098825Y0174325D01*
X0104200Y0174325D01*
X0104200Y0173075D01*
X0098825Y0173075D01*
X0098825Y0166825D01*
X0103338Y0166825D01*
X0103847Y0166961D01*
X0104200Y0167165D01*
X0104200Y0039377D01*
X0103747Y0039639D01*
X0103238Y0039775D01*
X0098725Y0039775D01*
X0098725Y0033525D01*
X0097475Y0033525D01*
X0097475Y0039775D01*
X0092962Y0039775D01*
X0092453Y0039639D01*
X0091997Y0039375D01*
X0091625Y0039003D01*
X0091361Y0038547D01*
X0091225Y0038038D01*
X0091225Y0033525D01*
X0097475Y0033525D01*
X0097475Y0032275D01*
X0098725Y0032275D01*
X0098725Y0026025D01*
X0103238Y0026025D01*
X0103747Y0026161D01*
X0104200Y0026423D01*
X0104200Y0013300D01*
X0086200Y0013300D01*
X0086200Y0042300D01*
X0063200Y0065300D01*
X0063200Y0144300D01*
X0081200Y0162300D01*
X0081200Y0193001D01*
X0104200Y0193001D01*
X0104200Y0180235D01*
X0103847Y0180439D01*
X0103338Y0180575D01*
X0098825Y0180575D01*
X0098825Y0174325D01*
X0097575Y0174325D01*
X0097575Y0180575D01*
X0093062Y0180575D01*
X0092553Y0180439D01*
X0092097Y0180175D01*
X0091725Y0179803D01*
X0091461Y0179347D01*
X0091325Y0178838D01*
X0091325Y0174325D01*
X0097575Y0174325D01*
X0098825Y0174176D02*
X0104200Y0174176D01*
X0098825Y0172178D02*
X0097575Y0172178D01*
X0097575Y0170179D02*
X0098825Y0170179D01*
X0098825Y0168181D02*
X0097575Y0168181D01*
X0104200Y0166182D02*
X0081200Y0166182D01*
X0081200Y0164184D02*
X0104200Y0164184D01*
X0104200Y0162185D02*
X0081085Y0162185D01*
X0079087Y0160187D02*
X0104200Y0160187D01*
X0104200Y0158188D02*
X0077088Y0158188D01*
X0075090Y0156190D02*
X0104200Y0156190D01*
X0104200Y0154191D02*
X0073091Y0154191D01*
X0071093Y0152193D02*
X0104200Y0152193D01*
X0104200Y0150194D02*
X0069094Y0150194D01*
X0067096Y0148196D02*
X0104200Y0148196D01*
X0104200Y0146197D02*
X0065097Y0146197D01*
X0063200Y0144199D02*
X0094593Y0144199D01*
X0093600Y0143205D02*
X0093600Y0141300D01*
X0098200Y0141300D01*
X0102800Y0141300D01*
X0102800Y0143205D01*
X0100105Y0145900D01*
X0098200Y0145900D01*
X0098200Y0141300D01*
X0098200Y0141300D01*
X0098200Y0141300D01*
X0102800Y0141300D01*
X0102800Y0139395D01*
X0100105Y0136700D01*
X0098200Y0136700D01*
X0098200Y0141300D01*
X0098200Y0141300D01*
X0098200Y0141300D01*
X0098200Y0145900D01*
X0096295Y0145900D01*
X0093600Y0143205D01*
X0093600Y0142200D02*
X0063200Y0142200D01*
X0063200Y0140202D02*
X0093600Y0140202D01*
X0093600Y0139395D02*
X0096295Y0136700D01*
X0098200Y0136700D01*
X0098200Y0141300D01*
X0093600Y0141300D01*
X0093600Y0139395D01*
X0094791Y0138203D02*
X0063200Y0138203D01*
X0063200Y0136205D02*
X0104200Y0136205D01*
X0104200Y0138203D02*
X0101609Y0138203D01*
X0102800Y0140202D02*
X0104200Y0140202D01*
X0104200Y0142200D02*
X0102800Y0142200D01*
X0101807Y0144199D02*
X0104200Y0144199D01*
X0098200Y0144199D02*
X0098200Y0144199D01*
X0098200Y0142200D02*
X0098200Y0142200D01*
X0098200Y0140202D02*
X0098200Y0140202D01*
X0098200Y0138203D02*
X0098200Y0138203D01*
X0104200Y0134206D02*
X0063200Y0134206D01*
X0063200Y0132208D02*
X0104200Y0132208D01*
X0104200Y0130209D02*
X0063200Y0130209D01*
X0063200Y0128211D02*
X0104200Y0128211D01*
X0104200Y0126212D02*
X0063200Y0126212D01*
X0063200Y0124214D02*
X0104200Y0124214D01*
X0104200Y0122215D02*
X0063200Y0122215D01*
X0063200Y0120217D02*
X0104200Y0120217D01*
X0104200Y0118218D02*
X0063200Y0118218D01*
X0063200Y0116220D02*
X0104200Y0116220D01*
X0104200Y0114221D02*
X0063200Y0114221D01*
X0063200Y0112223D02*
X0104200Y0112223D01*
X0104200Y0110224D02*
X0063200Y0110224D01*
X0063200Y0108226D02*
X0104200Y0108226D01*
X0104200Y0106227D02*
X0063200Y0106227D01*
X0063200Y0104229D02*
X0104200Y0104229D01*
X0104200Y0102230D02*
X0063200Y0102230D01*
X0063200Y0100232D02*
X0104200Y0100232D01*
X0104200Y0098233D02*
X0063200Y0098233D01*
X0063200Y0096234D02*
X0104200Y0096234D01*
X0104200Y0094236D02*
X0063200Y0094236D01*
X0063200Y0092237D02*
X0104200Y0092237D01*
X0104200Y0090239D02*
X0063200Y0090239D01*
X0063200Y0088240D02*
X0104200Y0088240D01*
X0104200Y0086242D02*
X0063200Y0086242D01*
X0063200Y0084243D02*
X0104200Y0084243D01*
X0104200Y0082245D02*
X0063200Y0082245D01*
X0063200Y0080246D02*
X0104200Y0080246D01*
X0104200Y0078248D02*
X0063200Y0078248D01*
X0063200Y0076249D02*
X0104200Y0076249D01*
X0104200Y0074251D02*
X0063200Y0074251D01*
X0063200Y0072252D02*
X0104200Y0072252D01*
X0104200Y0070254D02*
X0063200Y0070254D01*
X0063200Y0068255D02*
X0095650Y0068255D01*
X0096295Y0068900D02*
X0093600Y0066205D01*
X0093600Y0064300D01*
X0098200Y0064300D01*
X0102800Y0064300D01*
X0102800Y0066205D01*
X0100105Y0068900D01*
X0098200Y0068900D01*
X0098200Y0064300D01*
X0098200Y0064300D01*
X0098200Y0064300D01*
X0102800Y0064300D01*
X0102800Y0062395D01*
X0100105Y0059700D01*
X0098200Y0059700D01*
X0098200Y0064300D01*
X0098200Y0064300D01*
X0098200Y0064300D01*
X0098200Y0068900D01*
X0096295Y0068900D01*
X0098200Y0068255D02*
X0098200Y0068255D01*
X0098200Y0066257D02*
X0098200Y0066257D01*
X0098200Y0064300D02*
X0093600Y0064300D01*
X0093600Y0062395D01*
X0096295Y0059700D01*
X0098200Y0059700D01*
X0098200Y0064300D01*
X0098200Y0064258D02*
X0098200Y0064258D01*
X0098200Y0062260D02*
X0098200Y0062260D01*
X0098200Y0060261D02*
X0098200Y0060261D01*
X0100667Y0060261D02*
X0104200Y0060261D01*
X0104200Y0058263D02*
X0070237Y0058263D01*
X0068239Y0060261D02*
X0095733Y0060261D01*
X0093735Y0062260D02*
X0066240Y0062260D01*
X0064242Y0064258D02*
X0093600Y0064258D01*
X0093651Y0066257D02*
X0063200Y0066257D01*
X0072236Y0056264D02*
X0104200Y0056264D01*
X0104200Y0054266D02*
X0074234Y0054266D01*
X0076233Y0052267D02*
X0104200Y0052267D01*
X0104200Y0050269D02*
X0078231Y0050269D01*
X0080230Y0048270D02*
X0104200Y0048270D01*
X0104200Y0046272D02*
X0082228Y0046272D01*
X0084227Y0044273D02*
X0104200Y0044273D01*
X0104200Y0042275D02*
X0086200Y0042275D01*
X0086200Y0040276D02*
X0104200Y0040276D01*
X0098725Y0038278D02*
X0097475Y0038278D01*
X0097475Y0036279D02*
X0098725Y0036279D01*
X0098725Y0034281D02*
X0097475Y0034281D01*
X0097475Y0032282D02*
X0086200Y0032282D01*
X0086200Y0030284D02*
X0091225Y0030284D01*
X0091225Y0032275D02*
X0091225Y0027762D01*
X0091361Y0027253D01*
X0091625Y0026797D01*
X0091997Y0026425D01*
X0092453Y0026161D01*
X0092962Y0026025D01*
X0097475Y0026025D01*
X0097475Y0032275D01*
X0091225Y0032275D01*
X0091225Y0034281D02*
X0086200Y0034281D01*
X0086200Y0036279D02*
X0091225Y0036279D01*
X0091289Y0038278D02*
X0086200Y0038278D01*
X0097475Y0030284D02*
X0098725Y0030284D01*
X0098725Y0028285D02*
X0097475Y0028285D01*
X0097475Y0026287D02*
X0098725Y0026287D01*
X0103964Y0026287D02*
X0104200Y0026287D01*
X0104200Y0024288D02*
X0086200Y0024288D01*
X0086200Y0022290D02*
X0104200Y0022290D01*
X0104200Y0020291D02*
X0086200Y0020291D01*
X0086200Y0018293D02*
X0104200Y0018293D01*
X0104200Y0016294D02*
X0086200Y0016294D01*
X0086200Y0014296D02*
X0104200Y0014296D01*
X0092236Y0026287D02*
X0086200Y0026287D01*
X0086200Y0028285D02*
X0091225Y0028285D01*
X0102665Y0062260D02*
X0104200Y0062260D01*
X0104200Y0064258D02*
X0102800Y0064258D01*
X0102749Y0066257D02*
X0104200Y0066257D01*
X0104200Y0068255D02*
X0100750Y0068255D01*
X0098825Y0176175D02*
X0097575Y0176175D01*
X0097575Y0178173D02*
X0098825Y0178173D01*
X0098825Y0180172D02*
X0097575Y0180172D01*
X0092094Y0180172D02*
X0081200Y0180172D01*
X0081200Y0182170D02*
X0104200Y0182170D01*
X0104200Y0184169D02*
X0081200Y0184169D01*
X0081200Y0186168D02*
X0104200Y0186168D01*
X0104200Y0188166D02*
X0081200Y0188166D01*
X0081200Y0190165D02*
X0104200Y0190165D01*
X0104200Y0192163D02*
X0081200Y0192163D01*
X0081200Y0178173D02*
X0091325Y0178173D01*
X0091325Y0176175D02*
X0081200Y0176175D01*
D25*
X0138200Y0168300D02*
X0138200Y0141300D01*
X0138200Y0064300D02*
X0138200Y0038300D01*
M02*
