%
M48
M72
T01C0.02559
T02C0.03200
T03C0.04000
T04C0.05200
T05C0.06500
T06C0.16000
%
T01
X181200Y73300
X348200Y114300
T02
X148200Y168300
X138200Y168300
X138200Y141300
X98200Y141300
X98200Y64300
X138200Y64300
X138200Y38300
X148200Y38300
T03
X183200Y24300
X193200Y24300
X203200Y24300
X213200Y24300
X149200Y98300
X149200Y108300
X149200Y118300
X183200Y182300
X193200Y182300
X203200Y182300
X213200Y182300
T04
X113200Y118300
X113200Y88300
X53200Y88300
X33200Y88300
X13200Y88300
X13200Y118300
X33200Y118300
X53200Y118300
T05
X68300Y173700
X98200Y173700
X98100Y32900
X68200Y32900
T06
X28200Y33300
X278200Y33300
X328200Y58300
X378200Y58300
X378200Y148300
X328200Y148300
X278200Y173300
X28200Y173300
M30
