%
M48
M72
T01C0.02559
T02C0.03200
T03C0.04000
T04C0.05200
T05C0.06500
T06C0.16000
%
T01
X179300Y73300
X346300Y114300
T02
X146300Y168300
X136300Y168300
X136300Y141300
X96300Y141300
X96300Y64300
X136300Y64300
X136300Y38300
X146300Y38300
T03
X181300Y24300
X191300Y24300
X201300Y24300
X211300Y24300
X147300Y98300
X147300Y108300
X147300Y118300
X181300Y182300
X191300Y182300
X201300Y182300
X211300Y182300
T04
X111300Y118300
X111300Y88300
X51300Y88300
X31300Y88300
X11300Y88300
X11300Y118300
X31300Y118300
X51300Y118300
T05
X66400Y173700
X96300Y173700
X96200Y32900
X66300Y32900
T06
X26300Y33300
X276300Y33300
X326300Y58300
X376300Y58300
X376300Y148300
X326300Y148300
X276300Y173300
X26300Y173300
M30
