G75*
%MOIN*%
%OFA0B0*%
%FSLAX25Y25*%
%IPPOS*%
%LPD*%
%AMOC8*
5,1,8,0,0,1.08239X$1,22.5*
%
%ADD10C,0.00000*%
%ADD11R,0.04724X0.07087*%
%ADD12R,0.05512X0.04724*%
%ADD13C,0.07800*%
%ADD14R,0.05118X0.05906*%
%ADD15R,0.09750X0.09750*%
%ADD16OC8,0.05200*%
%ADD17C,0.06000*%
%ADD18R,0.05118X0.06299*%
%ADD19R,0.05906X0.05118*%
%ADD20C,0.05000*%
%ADD21C,0.04159*%
%ADD22C,0.00600*%
%ADD23C,0.10000*%
%ADD24C,0.02000*%
%ADD25C,0.03200*%
D10*
X0001300Y0008300D02*
X0001300Y0198001D01*
X0391221Y0198001D01*
X0391221Y0008300D01*
X0001300Y0008300D01*
X0018300Y0033300D02*
X0018302Y0033496D01*
X0018310Y0033693D01*
X0018322Y0033889D01*
X0018339Y0034084D01*
X0018360Y0034279D01*
X0018387Y0034474D01*
X0018418Y0034668D01*
X0018454Y0034861D01*
X0018494Y0035053D01*
X0018540Y0035244D01*
X0018590Y0035434D01*
X0018644Y0035622D01*
X0018704Y0035809D01*
X0018768Y0035995D01*
X0018836Y0036179D01*
X0018909Y0036361D01*
X0018986Y0036542D01*
X0019068Y0036720D01*
X0019154Y0036897D01*
X0019245Y0037071D01*
X0019339Y0037243D01*
X0019438Y0037413D01*
X0019541Y0037580D01*
X0019648Y0037745D01*
X0019759Y0037906D01*
X0019874Y0038066D01*
X0019993Y0038222D01*
X0020116Y0038375D01*
X0020242Y0038525D01*
X0020372Y0038672D01*
X0020506Y0038816D01*
X0020643Y0038957D01*
X0020784Y0039094D01*
X0020928Y0039228D01*
X0021075Y0039358D01*
X0021225Y0039484D01*
X0021378Y0039607D01*
X0021534Y0039726D01*
X0021694Y0039841D01*
X0021855Y0039952D01*
X0022020Y0040059D01*
X0022187Y0040162D01*
X0022357Y0040261D01*
X0022529Y0040355D01*
X0022703Y0040446D01*
X0022880Y0040532D01*
X0023058Y0040614D01*
X0023239Y0040691D01*
X0023421Y0040764D01*
X0023605Y0040832D01*
X0023791Y0040896D01*
X0023978Y0040956D01*
X0024166Y0041010D01*
X0024356Y0041060D01*
X0024547Y0041106D01*
X0024739Y0041146D01*
X0024932Y0041182D01*
X0025126Y0041213D01*
X0025321Y0041240D01*
X0025516Y0041261D01*
X0025711Y0041278D01*
X0025907Y0041290D01*
X0026104Y0041298D01*
X0026300Y0041300D01*
X0026496Y0041298D01*
X0026693Y0041290D01*
X0026889Y0041278D01*
X0027084Y0041261D01*
X0027279Y0041240D01*
X0027474Y0041213D01*
X0027668Y0041182D01*
X0027861Y0041146D01*
X0028053Y0041106D01*
X0028244Y0041060D01*
X0028434Y0041010D01*
X0028622Y0040956D01*
X0028809Y0040896D01*
X0028995Y0040832D01*
X0029179Y0040764D01*
X0029361Y0040691D01*
X0029542Y0040614D01*
X0029720Y0040532D01*
X0029897Y0040446D01*
X0030071Y0040355D01*
X0030243Y0040261D01*
X0030413Y0040162D01*
X0030580Y0040059D01*
X0030745Y0039952D01*
X0030906Y0039841D01*
X0031066Y0039726D01*
X0031222Y0039607D01*
X0031375Y0039484D01*
X0031525Y0039358D01*
X0031672Y0039228D01*
X0031816Y0039094D01*
X0031957Y0038957D01*
X0032094Y0038816D01*
X0032228Y0038672D01*
X0032358Y0038525D01*
X0032484Y0038375D01*
X0032607Y0038222D01*
X0032726Y0038066D01*
X0032841Y0037906D01*
X0032952Y0037745D01*
X0033059Y0037580D01*
X0033162Y0037413D01*
X0033261Y0037243D01*
X0033355Y0037071D01*
X0033446Y0036897D01*
X0033532Y0036720D01*
X0033614Y0036542D01*
X0033691Y0036361D01*
X0033764Y0036179D01*
X0033832Y0035995D01*
X0033896Y0035809D01*
X0033956Y0035622D01*
X0034010Y0035434D01*
X0034060Y0035244D01*
X0034106Y0035053D01*
X0034146Y0034861D01*
X0034182Y0034668D01*
X0034213Y0034474D01*
X0034240Y0034279D01*
X0034261Y0034084D01*
X0034278Y0033889D01*
X0034290Y0033693D01*
X0034298Y0033496D01*
X0034300Y0033300D01*
X0034298Y0033104D01*
X0034290Y0032907D01*
X0034278Y0032711D01*
X0034261Y0032516D01*
X0034240Y0032321D01*
X0034213Y0032126D01*
X0034182Y0031932D01*
X0034146Y0031739D01*
X0034106Y0031547D01*
X0034060Y0031356D01*
X0034010Y0031166D01*
X0033956Y0030978D01*
X0033896Y0030791D01*
X0033832Y0030605D01*
X0033764Y0030421D01*
X0033691Y0030239D01*
X0033614Y0030058D01*
X0033532Y0029880D01*
X0033446Y0029703D01*
X0033355Y0029529D01*
X0033261Y0029357D01*
X0033162Y0029187D01*
X0033059Y0029020D01*
X0032952Y0028855D01*
X0032841Y0028694D01*
X0032726Y0028534D01*
X0032607Y0028378D01*
X0032484Y0028225D01*
X0032358Y0028075D01*
X0032228Y0027928D01*
X0032094Y0027784D01*
X0031957Y0027643D01*
X0031816Y0027506D01*
X0031672Y0027372D01*
X0031525Y0027242D01*
X0031375Y0027116D01*
X0031222Y0026993D01*
X0031066Y0026874D01*
X0030906Y0026759D01*
X0030745Y0026648D01*
X0030580Y0026541D01*
X0030413Y0026438D01*
X0030243Y0026339D01*
X0030071Y0026245D01*
X0029897Y0026154D01*
X0029720Y0026068D01*
X0029542Y0025986D01*
X0029361Y0025909D01*
X0029179Y0025836D01*
X0028995Y0025768D01*
X0028809Y0025704D01*
X0028622Y0025644D01*
X0028434Y0025590D01*
X0028244Y0025540D01*
X0028053Y0025494D01*
X0027861Y0025454D01*
X0027668Y0025418D01*
X0027474Y0025387D01*
X0027279Y0025360D01*
X0027084Y0025339D01*
X0026889Y0025322D01*
X0026693Y0025310D01*
X0026496Y0025302D01*
X0026300Y0025300D01*
X0026104Y0025302D01*
X0025907Y0025310D01*
X0025711Y0025322D01*
X0025516Y0025339D01*
X0025321Y0025360D01*
X0025126Y0025387D01*
X0024932Y0025418D01*
X0024739Y0025454D01*
X0024547Y0025494D01*
X0024356Y0025540D01*
X0024166Y0025590D01*
X0023978Y0025644D01*
X0023791Y0025704D01*
X0023605Y0025768D01*
X0023421Y0025836D01*
X0023239Y0025909D01*
X0023058Y0025986D01*
X0022880Y0026068D01*
X0022703Y0026154D01*
X0022529Y0026245D01*
X0022357Y0026339D01*
X0022187Y0026438D01*
X0022020Y0026541D01*
X0021855Y0026648D01*
X0021694Y0026759D01*
X0021534Y0026874D01*
X0021378Y0026993D01*
X0021225Y0027116D01*
X0021075Y0027242D01*
X0020928Y0027372D01*
X0020784Y0027506D01*
X0020643Y0027643D01*
X0020506Y0027784D01*
X0020372Y0027928D01*
X0020242Y0028075D01*
X0020116Y0028225D01*
X0019993Y0028378D01*
X0019874Y0028534D01*
X0019759Y0028694D01*
X0019648Y0028855D01*
X0019541Y0029020D01*
X0019438Y0029187D01*
X0019339Y0029357D01*
X0019245Y0029529D01*
X0019154Y0029703D01*
X0019068Y0029880D01*
X0018986Y0030058D01*
X0018909Y0030239D01*
X0018836Y0030421D01*
X0018768Y0030605D01*
X0018704Y0030791D01*
X0018644Y0030978D01*
X0018590Y0031166D01*
X0018540Y0031356D01*
X0018494Y0031547D01*
X0018454Y0031739D01*
X0018418Y0031932D01*
X0018387Y0032126D01*
X0018360Y0032321D01*
X0018339Y0032516D01*
X0018322Y0032711D01*
X0018310Y0032907D01*
X0018302Y0033104D01*
X0018300Y0033300D01*
X0268300Y0033300D02*
X0268302Y0033496D01*
X0268310Y0033693D01*
X0268322Y0033889D01*
X0268339Y0034084D01*
X0268360Y0034279D01*
X0268387Y0034474D01*
X0268418Y0034668D01*
X0268454Y0034861D01*
X0268494Y0035053D01*
X0268540Y0035244D01*
X0268590Y0035434D01*
X0268644Y0035622D01*
X0268704Y0035809D01*
X0268768Y0035995D01*
X0268836Y0036179D01*
X0268909Y0036361D01*
X0268986Y0036542D01*
X0269068Y0036720D01*
X0269154Y0036897D01*
X0269245Y0037071D01*
X0269339Y0037243D01*
X0269438Y0037413D01*
X0269541Y0037580D01*
X0269648Y0037745D01*
X0269759Y0037906D01*
X0269874Y0038066D01*
X0269993Y0038222D01*
X0270116Y0038375D01*
X0270242Y0038525D01*
X0270372Y0038672D01*
X0270506Y0038816D01*
X0270643Y0038957D01*
X0270784Y0039094D01*
X0270928Y0039228D01*
X0271075Y0039358D01*
X0271225Y0039484D01*
X0271378Y0039607D01*
X0271534Y0039726D01*
X0271694Y0039841D01*
X0271855Y0039952D01*
X0272020Y0040059D01*
X0272187Y0040162D01*
X0272357Y0040261D01*
X0272529Y0040355D01*
X0272703Y0040446D01*
X0272880Y0040532D01*
X0273058Y0040614D01*
X0273239Y0040691D01*
X0273421Y0040764D01*
X0273605Y0040832D01*
X0273791Y0040896D01*
X0273978Y0040956D01*
X0274166Y0041010D01*
X0274356Y0041060D01*
X0274547Y0041106D01*
X0274739Y0041146D01*
X0274932Y0041182D01*
X0275126Y0041213D01*
X0275321Y0041240D01*
X0275516Y0041261D01*
X0275711Y0041278D01*
X0275907Y0041290D01*
X0276104Y0041298D01*
X0276300Y0041300D01*
X0276496Y0041298D01*
X0276693Y0041290D01*
X0276889Y0041278D01*
X0277084Y0041261D01*
X0277279Y0041240D01*
X0277474Y0041213D01*
X0277668Y0041182D01*
X0277861Y0041146D01*
X0278053Y0041106D01*
X0278244Y0041060D01*
X0278434Y0041010D01*
X0278622Y0040956D01*
X0278809Y0040896D01*
X0278995Y0040832D01*
X0279179Y0040764D01*
X0279361Y0040691D01*
X0279542Y0040614D01*
X0279720Y0040532D01*
X0279897Y0040446D01*
X0280071Y0040355D01*
X0280243Y0040261D01*
X0280413Y0040162D01*
X0280580Y0040059D01*
X0280745Y0039952D01*
X0280906Y0039841D01*
X0281066Y0039726D01*
X0281222Y0039607D01*
X0281375Y0039484D01*
X0281525Y0039358D01*
X0281672Y0039228D01*
X0281816Y0039094D01*
X0281957Y0038957D01*
X0282094Y0038816D01*
X0282228Y0038672D01*
X0282358Y0038525D01*
X0282484Y0038375D01*
X0282607Y0038222D01*
X0282726Y0038066D01*
X0282841Y0037906D01*
X0282952Y0037745D01*
X0283059Y0037580D01*
X0283162Y0037413D01*
X0283261Y0037243D01*
X0283355Y0037071D01*
X0283446Y0036897D01*
X0283532Y0036720D01*
X0283614Y0036542D01*
X0283691Y0036361D01*
X0283764Y0036179D01*
X0283832Y0035995D01*
X0283896Y0035809D01*
X0283956Y0035622D01*
X0284010Y0035434D01*
X0284060Y0035244D01*
X0284106Y0035053D01*
X0284146Y0034861D01*
X0284182Y0034668D01*
X0284213Y0034474D01*
X0284240Y0034279D01*
X0284261Y0034084D01*
X0284278Y0033889D01*
X0284290Y0033693D01*
X0284298Y0033496D01*
X0284300Y0033300D01*
X0284298Y0033104D01*
X0284290Y0032907D01*
X0284278Y0032711D01*
X0284261Y0032516D01*
X0284240Y0032321D01*
X0284213Y0032126D01*
X0284182Y0031932D01*
X0284146Y0031739D01*
X0284106Y0031547D01*
X0284060Y0031356D01*
X0284010Y0031166D01*
X0283956Y0030978D01*
X0283896Y0030791D01*
X0283832Y0030605D01*
X0283764Y0030421D01*
X0283691Y0030239D01*
X0283614Y0030058D01*
X0283532Y0029880D01*
X0283446Y0029703D01*
X0283355Y0029529D01*
X0283261Y0029357D01*
X0283162Y0029187D01*
X0283059Y0029020D01*
X0282952Y0028855D01*
X0282841Y0028694D01*
X0282726Y0028534D01*
X0282607Y0028378D01*
X0282484Y0028225D01*
X0282358Y0028075D01*
X0282228Y0027928D01*
X0282094Y0027784D01*
X0281957Y0027643D01*
X0281816Y0027506D01*
X0281672Y0027372D01*
X0281525Y0027242D01*
X0281375Y0027116D01*
X0281222Y0026993D01*
X0281066Y0026874D01*
X0280906Y0026759D01*
X0280745Y0026648D01*
X0280580Y0026541D01*
X0280413Y0026438D01*
X0280243Y0026339D01*
X0280071Y0026245D01*
X0279897Y0026154D01*
X0279720Y0026068D01*
X0279542Y0025986D01*
X0279361Y0025909D01*
X0279179Y0025836D01*
X0278995Y0025768D01*
X0278809Y0025704D01*
X0278622Y0025644D01*
X0278434Y0025590D01*
X0278244Y0025540D01*
X0278053Y0025494D01*
X0277861Y0025454D01*
X0277668Y0025418D01*
X0277474Y0025387D01*
X0277279Y0025360D01*
X0277084Y0025339D01*
X0276889Y0025322D01*
X0276693Y0025310D01*
X0276496Y0025302D01*
X0276300Y0025300D01*
X0276104Y0025302D01*
X0275907Y0025310D01*
X0275711Y0025322D01*
X0275516Y0025339D01*
X0275321Y0025360D01*
X0275126Y0025387D01*
X0274932Y0025418D01*
X0274739Y0025454D01*
X0274547Y0025494D01*
X0274356Y0025540D01*
X0274166Y0025590D01*
X0273978Y0025644D01*
X0273791Y0025704D01*
X0273605Y0025768D01*
X0273421Y0025836D01*
X0273239Y0025909D01*
X0273058Y0025986D01*
X0272880Y0026068D01*
X0272703Y0026154D01*
X0272529Y0026245D01*
X0272357Y0026339D01*
X0272187Y0026438D01*
X0272020Y0026541D01*
X0271855Y0026648D01*
X0271694Y0026759D01*
X0271534Y0026874D01*
X0271378Y0026993D01*
X0271225Y0027116D01*
X0271075Y0027242D01*
X0270928Y0027372D01*
X0270784Y0027506D01*
X0270643Y0027643D01*
X0270506Y0027784D01*
X0270372Y0027928D01*
X0270242Y0028075D01*
X0270116Y0028225D01*
X0269993Y0028378D01*
X0269874Y0028534D01*
X0269759Y0028694D01*
X0269648Y0028855D01*
X0269541Y0029020D01*
X0269438Y0029187D01*
X0269339Y0029357D01*
X0269245Y0029529D01*
X0269154Y0029703D01*
X0269068Y0029880D01*
X0268986Y0030058D01*
X0268909Y0030239D01*
X0268836Y0030421D01*
X0268768Y0030605D01*
X0268704Y0030791D01*
X0268644Y0030978D01*
X0268590Y0031166D01*
X0268540Y0031356D01*
X0268494Y0031547D01*
X0268454Y0031739D01*
X0268418Y0031932D01*
X0268387Y0032126D01*
X0268360Y0032321D01*
X0268339Y0032516D01*
X0268322Y0032711D01*
X0268310Y0032907D01*
X0268302Y0033104D01*
X0268300Y0033300D01*
X0318300Y0058300D02*
X0318302Y0058496D01*
X0318310Y0058693D01*
X0318322Y0058889D01*
X0318339Y0059084D01*
X0318360Y0059279D01*
X0318387Y0059474D01*
X0318418Y0059668D01*
X0318454Y0059861D01*
X0318494Y0060053D01*
X0318540Y0060244D01*
X0318590Y0060434D01*
X0318644Y0060622D01*
X0318704Y0060809D01*
X0318768Y0060995D01*
X0318836Y0061179D01*
X0318909Y0061361D01*
X0318986Y0061542D01*
X0319068Y0061720D01*
X0319154Y0061897D01*
X0319245Y0062071D01*
X0319339Y0062243D01*
X0319438Y0062413D01*
X0319541Y0062580D01*
X0319648Y0062745D01*
X0319759Y0062906D01*
X0319874Y0063066D01*
X0319993Y0063222D01*
X0320116Y0063375D01*
X0320242Y0063525D01*
X0320372Y0063672D01*
X0320506Y0063816D01*
X0320643Y0063957D01*
X0320784Y0064094D01*
X0320928Y0064228D01*
X0321075Y0064358D01*
X0321225Y0064484D01*
X0321378Y0064607D01*
X0321534Y0064726D01*
X0321694Y0064841D01*
X0321855Y0064952D01*
X0322020Y0065059D01*
X0322187Y0065162D01*
X0322357Y0065261D01*
X0322529Y0065355D01*
X0322703Y0065446D01*
X0322880Y0065532D01*
X0323058Y0065614D01*
X0323239Y0065691D01*
X0323421Y0065764D01*
X0323605Y0065832D01*
X0323791Y0065896D01*
X0323978Y0065956D01*
X0324166Y0066010D01*
X0324356Y0066060D01*
X0324547Y0066106D01*
X0324739Y0066146D01*
X0324932Y0066182D01*
X0325126Y0066213D01*
X0325321Y0066240D01*
X0325516Y0066261D01*
X0325711Y0066278D01*
X0325907Y0066290D01*
X0326104Y0066298D01*
X0326300Y0066300D01*
X0326496Y0066298D01*
X0326693Y0066290D01*
X0326889Y0066278D01*
X0327084Y0066261D01*
X0327279Y0066240D01*
X0327474Y0066213D01*
X0327668Y0066182D01*
X0327861Y0066146D01*
X0328053Y0066106D01*
X0328244Y0066060D01*
X0328434Y0066010D01*
X0328622Y0065956D01*
X0328809Y0065896D01*
X0328995Y0065832D01*
X0329179Y0065764D01*
X0329361Y0065691D01*
X0329542Y0065614D01*
X0329720Y0065532D01*
X0329897Y0065446D01*
X0330071Y0065355D01*
X0330243Y0065261D01*
X0330413Y0065162D01*
X0330580Y0065059D01*
X0330745Y0064952D01*
X0330906Y0064841D01*
X0331066Y0064726D01*
X0331222Y0064607D01*
X0331375Y0064484D01*
X0331525Y0064358D01*
X0331672Y0064228D01*
X0331816Y0064094D01*
X0331957Y0063957D01*
X0332094Y0063816D01*
X0332228Y0063672D01*
X0332358Y0063525D01*
X0332484Y0063375D01*
X0332607Y0063222D01*
X0332726Y0063066D01*
X0332841Y0062906D01*
X0332952Y0062745D01*
X0333059Y0062580D01*
X0333162Y0062413D01*
X0333261Y0062243D01*
X0333355Y0062071D01*
X0333446Y0061897D01*
X0333532Y0061720D01*
X0333614Y0061542D01*
X0333691Y0061361D01*
X0333764Y0061179D01*
X0333832Y0060995D01*
X0333896Y0060809D01*
X0333956Y0060622D01*
X0334010Y0060434D01*
X0334060Y0060244D01*
X0334106Y0060053D01*
X0334146Y0059861D01*
X0334182Y0059668D01*
X0334213Y0059474D01*
X0334240Y0059279D01*
X0334261Y0059084D01*
X0334278Y0058889D01*
X0334290Y0058693D01*
X0334298Y0058496D01*
X0334300Y0058300D01*
X0334298Y0058104D01*
X0334290Y0057907D01*
X0334278Y0057711D01*
X0334261Y0057516D01*
X0334240Y0057321D01*
X0334213Y0057126D01*
X0334182Y0056932D01*
X0334146Y0056739D01*
X0334106Y0056547D01*
X0334060Y0056356D01*
X0334010Y0056166D01*
X0333956Y0055978D01*
X0333896Y0055791D01*
X0333832Y0055605D01*
X0333764Y0055421D01*
X0333691Y0055239D01*
X0333614Y0055058D01*
X0333532Y0054880D01*
X0333446Y0054703D01*
X0333355Y0054529D01*
X0333261Y0054357D01*
X0333162Y0054187D01*
X0333059Y0054020D01*
X0332952Y0053855D01*
X0332841Y0053694D01*
X0332726Y0053534D01*
X0332607Y0053378D01*
X0332484Y0053225D01*
X0332358Y0053075D01*
X0332228Y0052928D01*
X0332094Y0052784D01*
X0331957Y0052643D01*
X0331816Y0052506D01*
X0331672Y0052372D01*
X0331525Y0052242D01*
X0331375Y0052116D01*
X0331222Y0051993D01*
X0331066Y0051874D01*
X0330906Y0051759D01*
X0330745Y0051648D01*
X0330580Y0051541D01*
X0330413Y0051438D01*
X0330243Y0051339D01*
X0330071Y0051245D01*
X0329897Y0051154D01*
X0329720Y0051068D01*
X0329542Y0050986D01*
X0329361Y0050909D01*
X0329179Y0050836D01*
X0328995Y0050768D01*
X0328809Y0050704D01*
X0328622Y0050644D01*
X0328434Y0050590D01*
X0328244Y0050540D01*
X0328053Y0050494D01*
X0327861Y0050454D01*
X0327668Y0050418D01*
X0327474Y0050387D01*
X0327279Y0050360D01*
X0327084Y0050339D01*
X0326889Y0050322D01*
X0326693Y0050310D01*
X0326496Y0050302D01*
X0326300Y0050300D01*
X0326104Y0050302D01*
X0325907Y0050310D01*
X0325711Y0050322D01*
X0325516Y0050339D01*
X0325321Y0050360D01*
X0325126Y0050387D01*
X0324932Y0050418D01*
X0324739Y0050454D01*
X0324547Y0050494D01*
X0324356Y0050540D01*
X0324166Y0050590D01*
X0323978Y0050644D01*
X0323791Y0050704D01*
X0323605Y0050768D01*
X0323421Y0050836D01*
X0323239Y0050909D01*
X0323058Y0050986D01*
X0322880Y0051068D01*
X0322703Y0051154D01*
X0322529Y0051245D01*
X0322357Y0051339D01*
X0322187Y0051438D01*
X0322020Y0051541D01*
X0321855Y0051648D01*
X0321694Y0051759D01*
X0321534Y0051874D01*
X0321378Y0051993D01*
X0321225Y0052116D01*
X0321075Y0052242D01*
X0320928Y0052372D01*
X0320784Y0052506D01*
X0320643Y0052643D01*
X0320506Y0052784D01*
X0320372Y0052928D01*
X0320242Y0053075D01*
X0320116Y0053225D01*
X0319993Y0053378D01*
X0319874Y0053534D01*
X0319759Y0053694D01*
X0319648Y0053855D01*
X0319541Y0054020D01*
X0319438Y0054187D01*
X0319339Y0054357D01*
X0319245Y0054529D01*
X0319154Y0054703D01*
X0319068Y0054880D01*
X0318986Y0055058D01*
X0318909Y0055239D01*
X0318836Y0055421D01*
X0318768Y0055605D01*
X0318704Y0055791D01*
X0318644Y0055978D01*
X0318590Y0056166D01*
X0318540Y0056356D01*
X0318494Y0056547D01*
X0318454Y0056739D01*
X0318418Y0056932D01*
X0318387Y0057126D01*
X0318360Y0057321D01*
X0318339Y0057516D01*
X0318322Y0057711D01*
X0318310Y0057907D01*
X0318302Y0058104D01*
X0318300Y0058300D01*
X0368300Y0058300D02*
X0368302Y0058496D01*
X0368310Y0058693D01*
X0368322Y0058889D01*
X0368339Y0059084D01*
X0368360Y0059279D01*
X0368387Y0059474D01*
X0368418Y0059668D01*
X0368454Y0059861D01*
X0368494Y0060053D01*
X0368540Y0060244D01*
X0368590Y0060434D01*
X0368644Y0060622D01*
X0368704Y0060809D01*
X0368768Y0060995D01*
X0368836Y0061179D01*
X0368909Y0061361D01*
X0368986Y0061542D01*
X0369068Y0061720D01*
X0369154Y0061897D01*
X0369245Y0062071D01*
X0369339Y0062243D01*
X0369438Y0062413D01*
X0369541Y0062580D01*
X0369648Y0062745D01*
X0369759Y0062906D01*
X0369874Y0063066D01*
X0369993Y0063222D01*
X0370116Y0063375D01*
X0370242Y0063525D01*
X0370372Y0063672D01*
X0370506Y0063816D01*
X0370643Y0063957D01*
X0370784Y0064094D01*
X0370928Y0064228D01*
X0371075Y0064358D01*
X0371225Y0064484D01*
X0371378Y0064607D01*
X0371534Y0064726D01*
X0371694Y0064841D01*
X0371855Y0064952D01*
X0372020Y0065059D01*
X0372187Y0065162D01*
X0372357Y0065261D01*
X0372529Y0065355D01*
X0372703Y0065446D01*
X0372880Y0065532D01*
X0373058Y0065614D01*
X0373239Y0065691D01*
X0373421Y0065764D01*
X0373605Y0065832D01*
X0373791Y0065896D01*
X0373978Y0065956D01*
X0374166Y0066010D01*
X0374356Y0066060D01*
X0374547Y0066106D01*
X0374739Y0066146D01*
X0374932Y0066182D01*
X0375126Y0066213D01*
X0375321Y0066240D01*
X0375516Y0066261D01*
X0375711Y0066278D01*
X0375907Y0066290D01*
X0376104Y0066298D01*
X0376300Y0066300D01*
X0376496Y0066298D01*
X0376693Y0066290D01*
X0376889Y0066278D01*
X0377084Y0066261D01*
X0377279Y0066240D01*
X0377474Y0066213D01*
X0377668Y0066182D01*
X0377861Y0066146D01*
X0378053Y0066106D01*
X0378244Y0066060D01*
X0378434Y0066010D01*
X0378622Y0065956D01*
X0378809Y0065896D01*
X0378995Y0065832D01*
X0379179Y0065764D01*
X0379361Y0065691D01*
X0379542Y0065614D01*
X0379720Y0065532D01*
X0379897Y0065446D01*
X0380071Y0065355D01*
X0380243Y0065261D01*
X0380413Y0065162D01*
X0380580Y0065059D01*
X0380745Y0064952D01*
X0380906Y0064841D01*
X0381066Y0064726D01*
X0381222Y0064607D01*
X0381375Y0064484D01*
X0381525Y0064358D01*
X0381672Y0064228D01*
X0381816Y0064094D01*
X0381957Y0063957D01*
X0382094Y0063816D01*
X0382228Y0063672D01*
X0382358Y0063525D01*
X0382484Y0063375D01*
X0382607Y0063222D01*
X0382726Y0063066D01*
X0382841Y0062906D01*
X0382952Y0062745D01*
X0383059Y0062580D01*
X0383162Y0062413D01*
X0383261Y0062243D01*
X0383355Y0062071D01*
X0383446Y0061897D01*
X0383532Y0061720D01*
X0383614Y0061542D01*
X0383691Y0061361D01*
X0383764Y0061179D01*
X0383832Y0060995D01*
X0383896Y0060809D01*
X0383956Y0060622D01*
X0384010Y0060434D01*
X0384060Y0060244D01*
X0384106Y0060053D01*
X0384146Y0059861D01*
X0384182Y0059668D01*
X0384213Y0059474D01*
X0384240Y0059279D01*
X0384261Y0059084D01*
X0384278Y0058889D01*
X0384290Y0058693D01*
X0384298Y0058496D01*
X0384300Y0058300D01*
X0384298Y0058104D01*
X0384290Y0057907D01*
X0384278Y0057711D01*
X0384261Y0057516D01*
X0384240Y0057321D01*
X0384213Y0057126D01*
X0384182Y0056932D01*
X0384146Y0056739D01*
X0384106Y0056547D01*
X0384060Y0056356D01*
X0384010Y0056166D01*
X0383956Y0055978D01*
X0383896Y0055791D01*
X0383832Y0055605D01*
X0383764Y0055421D01*
X0383691Y0055239D01*
X0383614Y0055058D01*
X0383532Y0054880D01*
X0383446Y0054703D01*
X0383355Y0054529D01*
X0383261Y0054357D01*
X0383162Y0054187D01*
X0383059Y0054020D01*
X0382952Y0053855D01*
X0382841Y0053694D01*
X0382726Y0053534D01*
X0382607Y0053378D01*
X0382484Y0053225D01*
X0382358Y0053075D01*
X0382228Y0052928D01*
X0382094Y0052784D01*
X0381957Y0052643D01*
X0381816Y0052506D01*
X0381672Y0052372D01*
X0381525Y0052242D01*
X0381375Y0052116D01*
X0381222Y0051993D01*
X0381066Y0051874D01*
X0380906Y0051759D01*
X0380745Y0051648D01*
X0380580Y0051541D01*
X0380413Y0051438D01*
X0380243Y0051339D01*
X0380071Y0051245D01*
X0379897Y0051154D01*
X0379720Y0051068D01*
X0379542Y0050986D01*
X0379361Y0050909D01*
X0379179Y0050836D01*
X0378995Y0050768D01*
X0378809Y0050704D01*
X0378622Y0050644D01*
X0378434Y0050590D01*
X0378244Y0050540D01*
X0378053Y0050494D01*
X0377861Y0050454D01*
X0377668Y0050418D01*
X0377474Y0050387D01*
X0377279Y0050360D01*
X0377084Y0050339D01*
X0376889Y0050322D01*
X0376693Y0050310D01*
X0376496Y0050302D01*
X0376300Y0050300D01*
X0376104Y0050302D01*
X0375907Y0050310D01*
X0375711Y0050322D01*
X0375516Y0050339D01*
X0375321Y0050360D01*
X0375126Y0050387D01*
X0374932Y0050418D01*
X0374739Y0050454D01*
X0374547Y0050494D01*
X0374356Y0050540D01*
X0374166Y0050590D01*
X0373978Y0050644D01*
X0373791Y0050704D01*
X0373605Y0050768D01*
X0373421Y0050836D01*
X0373239Y0050909D01*
X0373058Y0050986D01*
X0372880Y0051068D01*
X0372703Y0051154D01*
X0372529Y0051245D01*
X0372357Y0051339D01*
X0372187Y0051438D01*
X0372020Y0051541D01*
X0371855Y0051648D01*
X0371694Y0051759D01*
X0371534Y0051874D01*
X0371378Y0051993D01*
X0371225Y0052116D01*
X0371075Y0052242D01*
X0370928Y0052372D01*
X0370784Y0052506D01*
X0370643Y0052643D01*
X0370506Y0052784D01*
X0370372Y0052928D01*
X0370242Y0053075D01*
X0370116Y0053225D01*
X0369993Y0053378D01*
X0369874Y0053534D01*
X0369759Y0053694D01*
X0369648Y0053855D01*
X0369541Y0054020D01*
X0369438Y0054187D01*
X0369339Y0054357D01*
X0369245Y0054529D01*
X0369154Y0054703D01*
X0369068Y0054880D01*
X0368986Y0055058D01*
X0368909Y0055239D01*
X0368836Y0055421D01*
X0368768Y0055605D01*
X0368704Y0055791D01*
X0368644Y0055978D01*
X0368590Y0056166D01*
X0368540Y0056356D01*
X0368494Y0056547D01*
X0368454Y0056739D01*
X0368418Y0056932D01*
X0368387Y0057126D01*
X0368360Y0057321D01*
X0368339Y0057516D01*
X0368322Y0057711D01*
X0368310Y0057907D01*
X0368302Y0058104D01*
X0368300Y0058300D01*
X0368300Y0148300D02*
X0368302Y0148496D01*
X0368310Y0148693D01*
X0368322Y0148889D01*
X0368339Y0149084D01*
X0368360Y0149279D01*
X0368387Y0149474D01*
X0368418Y0149668D01*
X0368454Y0149861D01*
X0368494Y0150053D01*
X0368540Y0150244D01*
X0368590Y0150434D01*
X0368644Y0150622D01*
X0368704Y0150809D01*
X0368768Y0150995D01*
X0368836Y0151179D01*
X0368909Y0151361D01*
X0368986Y0151542D01*
X0369068Y0151720D01*
X0369154Y0151897D01*
X0369245Y0152071D01*
X0369339Y0152243D01*
X0369438Y0152413D01*
X0369541Y0152580D01*
X0369648Y0152745D01*
X0369759Y0152906D01*
X0369874Y0153066D01*
X0369993Y0153222D01*
X0370116Y0153375D01*
X0370242Y0153525D01*
X0370372Y0153672D01*
X0370506Y0153816D01*
X0370643Y0153957D01*
X0370784Y0154094D01*
X0370928Y0154228D01*
X0371075Y0154358D01*
X0371225Y0154484D01*
X0371378Y0154607D01*
X0371534Y0154726D01*
X0371694Y0154841D01*
X0371855Y0154952D01*
X0372020Y0155059D01*
X0372187Y0155162D01*
X0372357Y0155261D01*
X0372529Y0155355D01*
X0372703Y0155446D01*
X0372880Y0155532D01*
X0373058Y0155614D01*
X0373239Y0155691D01*
X0373421Y0155764D01*
X0373605Y0155832D01*
X0373791Y0155896D01*
X0373978Y0155956D01*
X0374166Y0156010D01*
X0374356Y0156060D01*
X0374547Y0156106D01*
X0374739Y0156146D01*
X0374932Y0156182D01*
X0375126Y0156213D01*
X0375321Y0156240D01*
X0375516Y0156261D01*
X0375711Y0156278D01*
X0375907Y0156290D01*
X0376104Y0156298D01*
X0376300Y0156300D01*
X0376496Y0156298D01*
X0376693Y0156290D01*
X0376889Y0156278D01*
X0377084Y0156261D01*
X0377279Y0156240D01*
X0377474Y0156213D01*
X0377668Y0156182D01*
X0377861Y0156146D01*
X0378053Y0156106D01*
X0378244Y0156060D01*
X0378434Y0156010D01*
X0378622Y0155956D01*
X0378809Y0155896D01*
X0378995Y0155832D01*
X0379179Y0155764D01*
X0379361Y0155691D01*
X0379542Y0155614D01*
X0379720Y0155532D01*
X0379897Y0155446D01*
X0380071Y0155355D01*
X0380243Y0155261D01*
X0380413Y0155162D01*
X0380580Y0155059D01*
X0380745Y0154952D01*
X0380906Y0154841D01*
X0381066Y0154726D01*
X0381222Y0154607D01*
X0381375Y0154484D01*
X0381525Y0154358D01*
X0381672Y0154228D01*
X0381816Y0154094D01*
X0381957Y0153957D01*
X0382094Y0153816D01*
X0382228Y0153672D01*
X0382358Y0153525D01*
X0382484Y0153375D01*
X0382607Y0153222D01*
X0382726Y0153066D01*
X0382841Y0152906D01*
X0382952Y0152745D01*
X0383059Y0152580D01*
X0383162Y0152413D01*
X0383261Y0152243D01*
X0383355Y0152071D01*
X0383446Y0151897D01*
X0383532Y0151720D01*
X0383614Y0151542D01*
X0383691Y0151361D01*
X0383764Y0151179D01*
X0383832Y0150995D01*
X0383896Y0150809D01*
X0383956Y0150622D01*
X0384010Y0150434D01*
X0384060Y0150244D01*
X0384106Y0150053D01*
X0384146Y0149861D01*
X0384182Y0149668D01*
X0384213Y0149474D01*
X0384240Y0149279D01*
X0384261Y0149084D01*
X0384278Y0148889D01*
X0384290Y0148693D01*
X0384298Y0148496D01*
X0384300Y0148300D01*
X0384298Y0148104D01*
X0384290Y0147907D01*
X0384278Y0147711D01*
X0384261Y0147516D01*
X0384240Y0147321D01*
X0384213Y0147126D01*
X0384182Y0146932D01*
X0384146Y0146739D01*
X0384106Y0146547D01*
X0384060Y0146356D01*
X0384010Y0146166D01*
X0383956Y0145978D01*
X0383896Y0145791D01*
X0383832Y0145605D01*
X0383764Y0145421D01*
X0383691Y0145239D01*
X0383614Y0145058D01*
X0383532Y0144880D01*
X0383446Y0144703D01*
X0383355Y0144529D01*
X0383261Y0144357D01*
X0383162Y0144187D01*
X0383059Y0144020D01*
X0382952Y0143855D01*
X0382841Y0143694D01*
X0382726Y0143534D01*
X0382607Y0143378D01*
X0382484Y0143225D01*
X0382358Y0143075D01*
X0382228Y0142928D01*
X0382094Y0142784D01*
X0381957Y0142643D01*
X0381816Y0142506D01*
X0381672Y0142372D01*
X0381525Y0142242D01*
X0381375Y0142116D01*
X0381222Y0141993D01*
X0381066Y0141874D01*
X0380906Y0141759D01*
X0380745Y0141648D01*
X0380580Y0141541D01*
X0380413Y0141438D01*
X0380243Y0141339D01*
X0380071Y0141245D01*
X0379897Y0141154D01*
X0379720Y0141068D01*
X0379542Y0140986D01*
X0379361Y0140909D01*
X0379179Y0140836D01*
X0378995Y0140768D01*
X0378809Y0140704D01*
X0378622Y0140644D01*
X0378434Y0140590D01*
X0378244Y0140540D01*
X0378053Y0140494D01*
X0377861Y0140454D01*
X0377668Y0140418D01*
X0377474Y0140387D01*
X0377279Y0140360D01*
X0377084Y0140339D01*
X0376889Y0140322D01*
X0376693Y0140310D01*
X0376496Y0140302D01*
X0376300Y0140300D01*
X0376104Y0140302D01*
X0375907Y0140310D01*
X0375711Y0140322D01*
X0375516Y0140339D01*
X0375321Y0140360D01*
X0375126Y0140387D01*
X0374932Y0140418D01*
X0374739Y0140454D01*
X0374547Y0140494D01*
X0374356Y0140540D01*
X0374166Y0140590D01*
X0373978Y0140644D01*
X0373791Y0140704D01*
X0373605Y0140768D01*
X0373421Y0140836D01*
X0373239Y0140909D01*
X0373058Y0140986D01*
X0372880Y0141068D01*
X0372703Y0141154D01*
X0372529Y0141245D01*
X0372357Y0141339D01*
X0372187Y0141438D01*
X0372020Y0141541D01*
X0371855Y0141648D01*
X0371694Y0141759D01*
X0371534Y0141874D01*
X0371378Y0141993D01*
X0371225Y0142116D01*
X0371075Y0142242D01*
X0370928Y0142372D01*
X0370784Y0142506D01*
X0370643Y0142643D01*
X0370506Y0142784D01*
X0370372Y0142928D01*
X0370242Y0143075D01*
X0370116Y0143225D01*
X0369993Y0143378D01*
X0369874Y0143534D01*
X0369759Y0143694D01*
X0369648Y0143855D01*
X0369541Y0144020D01*
X0369438Y0144187D01*
X0369339Y0144357D01*
X0369245Y0144529D01*
X0369154Y0144703D01*
X0369068Y0144880D01*
X0368986Y0145058D01*
X0368909Y0145239D01*
X0368836Y0145421D01*
X0368768Y0145605D01*
X0368704Y0145791D01*
X0368644Y0145978D01*
X0368590Y0146166D01*
X0368540Y0146356D01*
X0368494Y0146547D01*
X0368454Y0146739D01*
X0368418Y0146932D01*
X0368387Y0147126D01*
X0368360Y0147321D01*
X0368339Y0147516D01*
X0368322Y0147711D01*
X0368310Y0147907D01*
X0368302Y0148104D01*
X0368300Y0148300D01*
X0318300Y0148300D02*
X0318302Y0148496D01*
X0318310Y0148693D01*
X0318322Y0148889D01*
X0318339Y0149084D01*
X0318360Y0149279D01*
X0318387Y0149474D01*
X0318418Y0149668D01*
X0318454Y0149861D01*
X0318494Y0150053D01*
X0318540Y0150244D01*
X0318590Y0150434D01*
X0318644Y0150622D01*
X0318704Y0150809D01*
X0318768Y0150995D01*
X0318836Y0151179D01*
X0318909Y0151361D01*
X0318986Y0151542D01*
X0319068Y0151720D01*
X0319154Y0151897D01*
X0319245Y0152071D01*
X0319339Y0152243D01*
X0319438Y0152413D01*
X0319541Y0152580D01*
X0319648Y0152745D01*
X0319759Y0152906D01*
X0319874Y0153066D01*
X0319993Y0153222D01*
X0320116Y0153375D01*
X0320242Y0153525D01*
X0320372Y0153672D01*
X0320506Y0153816D01*
X0320643Y0153957D01*
X0320784Y0154094D01*
X0320928Y0154228D01*
X0321075Y0154358D01*
X0321225Y0154484D01*
X0321378Y0154607D01*
X0321534Y0154726D01*
X0321694Y0154841D01*
X0321855Y0154952D01*
X0322020Y0155059D01*
X0322187Y0155162D01*
X0322357Y0155261D01*
X0322529Y0155355D01*
X0322703Y0155446D01*
X0322880Y0155532D01*
X0323058Y0155614D01*
X0323239Y0155691D01*
X0323421Y0155764D01*
X0323605Y0155832D01*
X0323791Y0155896D01*
X0323978Y0155956D01*
X0324166Y0156010D01*
X0324356Y0156060D01*
X0324547Y0156106D01*
X0324739Y0156146D01*
X0324932Y0156182D01*
X0325126Y0156213D01*
X0325321Y0156240D01*
X0325516Y0156261D01*
X0325711Y0156278D01*
X0325907Y0156290D01*
X0326104Y0156298D01*
X0326300Y0156300D01*
X0326496Y0156298D01*
X0326693Y0156290D01*
X0326889Y0156278D01*
X0327084Y0156261D01*
X0327279Y0156240D01*
X0327474Y0156213D01*
X0327668Y0156182D01*
X0327861Y0156146D01*
X0328053Y0156106D01*
X0328244Y0156060D01*
X0328434Y0156010D01*
X0328622Y0155956D01*
X0328809Y0155896D01*
X0328995Y0155832D01*
X0329179Y0155764D01*
X0329361Y0155691D01*
X0329542Y0155614D01*
X0329720Y0155532D01*
X0329897Y0155446D01*
X0330071Y0155355D01*
X0330243Y0155261D01*
X0330413Y0155162D01*
X0330580Y0155059D01*
X0330745Y0154952D01*
X0330906Y0154841D01*
X0331066Y0154726D01*
X0331222Y0154607D01*
X0331375Y0154484D01*
X0331525Y0154358D01*
X0331672Y0154228D01*
X0331816Y0154094D01*
X0331957Y0153957D01*
X0332094Y0153816D01*
X0332228Y0153672D01*
X0332358Y0153525D01*
X0332484Y0153375D01*
X0332607Y0153222D01*
X0332726Y0153066D01*
X0332841Y0152906D01*
X0332952Y0152745D01*
X0333059Y0152580D01*
X0333162Y0152413D01*
X0333261Y0152243D01*
X0333355Y0152071D01*
X0333446Y0151897D01*
X0333532Y0151720D01*
X0333614Y0151542D01*
X0333691Y0151361D01*
X0333764Y0151179D01*
X0333832Y0150995D01*
X0333896Y0150809D01*
X0333956Y0150622D01*
X0334010Y0150434D01*
X0334060Y0150244D01*
X0334106Y0150053D01*
X0334146Y0149861D01*
X0334182Y0149668D01*
X0334213Y0149474D01*
X0334240Y0149279D01*
X0334261Y0149084D01*
X0334278Y0148889D01*
X0334290Y0148693D01*
X0334298Y0148496D01*
X0334300Y0148300D01*
X0334298Y0148104D01*
X0334290Y0147907D01*
X0334278Y0147711D01*
X0334261Y0147516D01*
X0334240Y0147321D01*
X0334213Y0147126D01*
X0334182Y0146932D01*
X0334146Y0146739D01*
X0334106Y0146547D01*
X0334060Y0146356D01*
X0334010Y0146166D01*
X0333956Y0145978D01*
X0333896Y0145791D01*
X0333832Y0145605D01*
X0333764Y0145421D01*
X0333691Y0145239D01*
X0333614Y0145058D01*
X0333532Y0144880D01*
X0333446Y0144703D01*
X0333355Y0144529D01*
X0333261Y0144357D01*
X0333162Y0144187D01*
X0333059Y0144020D01*
X0332952Y0143855D01*
X0332841Y0143694D01*
X0332726Y0143534D01*
X0332607Y0143378D01*
X0332484Y0143225D01*
X0332358Y0143075D01*
X0332228Y0142928D01*
X0332094Y0142784D01*
X0331957Y0142643D01*
X0331816Y0142506D01*
X0331672Y0142372D01*
X0331525Y0142242D01*
X0331375Y0142116D01*
X0331222Y0141993D01*
X0331066Y0141874D01*
X0330906Y0141759D01*
X0330745Y0141648D01*
X0330580Y0141541D01*
X0330413Y0141438D01*
X0330243Y0141339D01*
X0330071Y0141245D01*
X0329897Y0141154D01*
X0329720Y0141068D01*
X0329542Y0140986D01*
X0329361Y0140909D01*
X0329179Y0140836D01*
X0328995Y0140768D01*
X0328809Y0140704D01*
X0328622Y0140644D01*
X0328434Y0140590D01*
X0328244Y0140540D01*
X0328053Y0140494D01*
X0327861Y0140454D01*
X0327668Y0140418D01*
X0327474Y0140387D01*
X0327279Y0140360D01*
X0327084Y0140339D01*
X0326889Y0140322D01*
X0326693Y0140310D01*
X0326496Y0140302D01*
X0326300Y0140300D01*
X0326104Y0140302D01*
X0325907Y0140310D01*
X0325711Y0140322D01*
X0325516Y0140339D01*
X0325321Y0140360D01*
X0325126Y0140387D01*
X0324932Y0140418D01*
X0324739Y0140454D01*
X0324547Y0140494D01*
X0324356Y0140540D01*
X0324166Y0140590D01*
X0323978Y0140644D01*
X0323791Y0140704D01*
X0323605Y0140768D01*
X0323421Y0140836D01*
X0323239Y0140909D01*
X0323058Y0140986D01*
X0322880Y0141068D01*
X0322703Y0141154D01*
X0322529Y0141245D01*
X0322357Y0141339D01*
X0322187Y0141438D01*
X0322020Y0141541D01*
X0321855Y0141648D01*
X0321694Y0141759D01*
X0321534Y0141874D01*
X0321378Y0141993D01*
X0321225Y0142116D01*
X0321075Y0142242D01*
X0320928Y0142372D01*
X0320784Y0142506D01*
X0320643Y0142643D01*
X0320506Y0142784D01*
X0320372Y0142928D01*
X0320242Y0143075D01*
X0320116Y0143225D01*
X0319993Y0143378D01*
X0319874Y0143534D01*
X0319759Y0143694D01*
X0319648Y0143855D01*
X0319541Y0144020D01*
X0319438Y0144187D01*
X0319339Y0144357D01*
X0319245Y0144529D01*
X0319154Y0144703D01*
X0319068Y0144880D01*
X0318986Y0145058D01*
X0318909Y0145239D01*
X0318836Y0145421D01*
X0318768Y0145605D01*
X0318704Y0145791D01*
X0318644Y0145978D01*
X0318590Y0146166D01*
X0318540Y0146356D01*
X0318494Y0146547D01*
X0318454Y0146739D01*
X0318418Y0146932D01*
X0318387Y0147126D01*
X0318360Y0147321D01*
X0318339Y0147516D01*
X0318322Y0147711D01*
X0318310Y0147907D01*
X0318302Y0148104D01*
X0318300Y0148300D01*
X0268300Y0173300D02*
X0268302Y0173496D01*
X0268310Y0173693D01*
X0268322Y0173889D01*
X0268339Y0174084D01*
X0268360Y0174279D01*
X0268387Y0174474D01*
X0268418Y0174668D01*
X0268454Y0174861D01*
X0268494Y0175053D01*
X0268540Y0175244D01*
X0268590Y0175434D01*
X0268644Y0175622D01*
X0268704Y0175809D01*
X0268768Y0175995D01*
X0268836Y0176179D01*
X0268909Y0176361D01*
X0268986Y0176542D01*
X0269068Y0176720D01*
X0269154Y0176897D01*
X0269245Y0177071D01*
X0269339Y0177243D01*
X0269438Y0177413D01*
X0269541Y0177580D01*
X0269648Y0177745D01*
X0269759Y0177906D01*
X0269874Y0178066D01*
X0269993Y0178222D01*
X0270116Y0178375D01*
X0270242Y0178525D01*
X0270372Y0178672D01*
X0270506Y0178816D01*
X0270643Y0178957D01*
X0270784Y0179094D01*
X0270928Y0179228D01*
X0271075Y0179358D01*
X0271225Y0179484D01*
X0271378Y0179607D01*
X0271534Y0179726D01*
X0271694Y0179841D01*
X0271855Y0179952D01*
X0272020Y0180059D01*
X0272187Y0180162D01*
X0272357Y0180261D01*
X0272529Y0180355D01*
X0272703Y0180446D01*
X0272880Y0180532D01*
X0273058Y0180614D01*
X0273239Y0180691D01*
X0273421Y0180764D01*
X0273605Y0180832D01*
X0273791Y0180896D01*
X0273978Y0180956D01*
X0274166Y0181010D01*
X0274356Y0181060D01*
X0274547Y0181106D01*
X0274739Y0181146D01*
X0274932Y0181182D01*
X0275126Y0181213D01*
X0275321Y0181240D01*
X0275516Y0181261D01*
X0275711Y0181278D01*
X0275907Y0181290D01*
X0276104Y0181298D01*
X0276300Y0181300D01*
X0276496Y0181298D01*
X0276693Y0181290D01*
X0276889Y0181278D01*
X0277084Y0181261D01*
X0277279Y0181240D01*
X0277474Y0181213D01*
X0277668Y0181182D01*
X0277861Y0181146D01*
X0278053Y0181106D01*
X0278244Y0181060D01*
X0278434Y0181010D01*
X0278622Y0180956D01*
X0278809Y0180896D01*
X0278995Y0180832D01*
X0279179Y0180764D01*
X0279361Y0180691D01*
X0279542Y0180614D01*
X0279720Y0180532D01*
X0279897Y0180446D01*
X0280071Y0180355D01*
X0280243Y0180261D01*
X0280413Y0180162D01*
X0280580Y0180059D01*
X0280745Y0179952D01*
X0280906Y0179841D01*
X0281066Y0179726D01*
X0281222Y0179607D01*
X0281375Y0179484D01*
X0281525Y0179358D01*
X0281672Y0179228D01*
X0281816Y0179094D01*
X0281957Y0178957D01*
X0282094Y0178816D01*
X0282228Y0178672D01*
X0282358Y0178525D01*
X0282484Y0178375D01*
X0282607Y0178222D01*
X0282726Y0178066D01*
X0282841Y0177906D01*
X0282952Y0177745D01*
X0283059Y0177580D01*
X0283162Y0177413D01*
X0283261Y0177243D01*
X0283355Y0177071D01*
X0283446Y0176897D01*
X0283532Y0176720D01*
X0283614Y0176542D01*
X0283691Y0176361D01*
X0283764Y0176179D01*
X0283832Y0175995D01*
X0283896Y0175809D01*
X0283956Y0175622D01*
X0284010Y0175434D01*
X0284060Y0175244D01*
X0284106Y0175053D01*
X0284146Y0174861D01*
X0284182Y0174668D01*
X0284213Y0174474D01*
X0284240Y0174279D01*
X0284261Y0174084D01*
X0284278Y0173889D01*
X0284290Y0173693D01*
X0284298Y0173496D01*
X0284300Y0173300D01*
X0284298Y0173104D01*
X0284290Y0172907D01*
X0284278Y0172711D01*
X0284261Y0172516D01*
X0284240Y0172321D01*
X0284213Y0172126D01*
X0284182Y0171932D01*
X0284146Y0171739D01*
X0284106Y0171547D01*
X0284060Y0171356D01*
X0284010Y0171166D01*
X0283956Y0170978D01*
X0283896Y0170791D01*
X0283832Y0170605D01*
X0283764Y0170421D01*
X0283691Y0170239D01*
X0283614Y0170058D01*
X0283532Y0169880D01*
X0283446Y0169703D01*
X0283355Y0169529D01*
X0283261Y0169357D01*
X0283162Y0169187D01*
X0283059Y0169020D01*
X0282952Y0168855D01*
X0282841Y0168694D01*
X0282726Y0168534D01*
X0282607Y0168378D01*
X0282484Y0168225D01*
X0282358Y0168075D01*
X0282228Y0167928D01*
X0282094Y0167784D01*
X0281957Y0167643D01*
X0281816Y0167506D01*
X0281672Y0167372D01*
X0281525Y0167242D01*
X0281375Y0167116D01*
X0281222Y0166993D01*
X0281066Y0166874D01*
X0280906Y0166759D01*
X0280745Y0166648D01*
X0280580Y0166541D01*
X0280413Y0166438D01*
X0280243Y0166339D01*
X0280071Y0166245D01*
X0279897Y0166154D01*
X0279720Y0166068D01*
X0279542Y0165986D01*
X0279361Y0165909D01*
X0279179Y0165836D01*
X0278995Y0165768D01*
X0278809Y0165704D01*
X0278622Y0165644D01*
X0278434Y0165590D01*
X0278244Y0165540D01*
X0278053Y0165494D01*
X0277861Y0165454D01*
X0277668Y0165418D01*
X0277474Y0165387D01*
X0277279Y0165360D01*
X0277084Y0165339D01*
X0276889Y0165322D01*
X0276693Y0165310D01*
X0276496Y0165302D01*
X0276300Y0165300D01*
X0276104Y0165302D01*
X0275907Y0165310D01*
X0275711Y0165322D01*
X0275516Y0165339D01*
X0275321Y0165360D01*
X0275126Y0165387D01*
X0274932Y0165418D01*
X0274739Y0165454D01*
X0274547Y0165494D01*
X0274356Y0165540D01*
X0274166Y0165590D01*
X0273978Y0165644D01*
X0273791Y0165704D01*
X0273605Y0165768D01*
X0273421Y0165836D01*
X0273239Y0165909D01*
X0273058Y0165986D01*
X0272880Y0166068D01*
X0272703Y0166154D01*
X0272529Y0166245D01*
X0272357Y0166339D01*
X0272187Y0166438D01*
X0272020Y0166541D01*
X0271855Y0166648D01*
X0271694Y0166759D01*
X0271534Y0166874D01*
X0271378Y0166993D01*
X0271225Y0167116D01*
X0271075Y0167242D01*
X0270928Y0167372D01*
X0270784Y0167506D01*
X0270643Y0167643D01*
X0270506Y0167784D01*
X0270372Y0167928D01*
X0270242Y0168075D01*
X0270116Y0168225D01*
X0269993Y0168378D01*
X0269874Y0168534D01*
X0269759Y0168694D01*
X0269648Y0168855D01*
X0269541Y0169020D01*
X0269438Y0169187D01*
X0269339Y0169357D01*
X0269245Y0169529D01*
X0269154Y0169703D01*
X0269068Y0169880D01*
X0268986Y0170058D01*
X0268909Y0170239D01*
X0268836Y0170421D01*
X0268768Y0170605D01*
X0268704Y0170791D01*
X0268644Y0170978D01*
X0268590Y0171166D01*
X0268540Y0171356D01*
X0268494Y0171547D01*
X0268454Y0171739D01*
X0268418Y0171932D01*
X0268387Y0172126D01*
X0268360Y0172321D01*
X0268339Y0172516D01*
X0268322Y0172711D01*
X0268310Y0172907D01*
X0268302Y0173104D01*
X0268300Y0173300D01*
X0018300Y0173300D02*
X0018302Y0173496D01*
X0018310Y0173693D01*
X0018322Y0173889D01*
X0018339Y0174084D01*
X0018360Y0174279D01*
X0018387Y0174474D01*
X0018418Y0174668D01*
X0018454Y0174861D01*
X0018494Y0175053D01*
X0018540Y0175244D01*
X0018590Y0175434D01*
X0018644Y0175622D01*
X0018704Y0175809D01*
X0018768Y0175995D01*
X0018836Y0176179D01*
X0018909Y0176361D01*
X0018986Y0176542D01*
X0019068Y0176720D01*
X0019154Y0176897D01*
X0019245Y0177071D01*
X0019339Y0177243D01*
X0019438Y0177413D01*
X0019541Y0177580D01*
X0019648Y0177745D01*
X0019759Y0177906D01*
X0019874Y0178066D01*
X0019993Y0178222D01*
X0020116Y0178375D01*
X0020242Y0178525D01*
X0020372Y0178672D01*
X0020506Y0178816D01*
X0020643Y0178957D01*
X0020784Y0179094D01*
X0020928Y0179228D01*
X0021075Y0179358D01*
X0021225Y0179484D01*
X0021378Y0179607D01*
X0021534Y0179726D01*
X0021694Y0179841D01*
X0021855Y0179952D01*
X0022020Y0180059D01*
X0022187Y0180162D01*
X0022357Y0180261D01*
X0022529Y0180355D01*
X0022703Y0180446D01*
X0022880Y0180532D01*
X0023058Y0180614D01*
X0023239Y0180691D01*
X0023421Y0180764D01*
X0023605Y0180832D01*
X0023791Y0180896D01*
X0023978Y0180956D01*
X0024166Y0181010D01*
X0024356Y0181060D01*
X0024547Y0181106D01*
X0024739Y0181146D01*
X0024932Y0181182D01*
X0025126Y0181213D01*
X0025321Y0181240D01*
X0025516Y0181261D01*
X0025711Y0181278D01*
X0025907Y0181290D01*
X0026104Y0181298D01*
X0026300Y0181300D01*
X0026496Y0181298D01*
X0026693Y0181290D01*
X0026889Y0181278D01*
X0027084Y0181261D01*
X0027279Y0181240D01*
X0027474Y0181213D01*
X0027668Y0181182D01*
X0027861Y0181146D01*
X0028053Y0181106D01*
X0028244Y0181060D01*
X0028434Y0181010D01*
X0028622Y0180956D01*
X0028809Y0180896D01*
X0028995Y0180832D01*
X0029179Y0180764D01*
X0029361Y0180691D01*
X0029542Y0180614D01*
X0029720Y0180532D01*
X0029897Y0180446D01*
X0030071Y0180355D01*
X0030243Y0180261D01*
X0030413Y0180162D01*
X0030580Y0180059D01*
X0030745Y0179952D01*
X0030906Y0179841D01*
X0031066Y0179726D01*
X0031222Y0179607D01*
X0031375Y0179484D01*
X0031525Y0179358D01*
X0031672Y0179228D01*
X0031816Y0179094D01*
X0031957Y0178957D01*
X0032094Y0178816D01*
X0032228Y0178672D01*
X0032358Y0178525D01*
X0032484Y0178375D01*
X0032607Y0178222D01*
X0032726Y0178066D01*
X0032841Y0177906D01*
X0032952Y0177745D01*
X0033059Y0177580D01*
X0033162Y0177413D01*
X0033261Y0177243D01*
X0033355Y0177071D01*
X0033446Y0176897D01*
X0033532Y0176720D01*
X0033614Y0176542D01*
X0033691Y0176361D01*
X0033764Y0176179D01*
X0033832Y0175995D01*
X0033896Y0175809D01*
X0033956Y0175622D01*
X0034010Y0175434D01*
X0034060Y0175244D01*
X0034106Y0175053D01*
X0034146Y0174861D01*
X0034182Y0174668D01*
X0034213Y0174474D01*
X0034240Y0174279D01*
X0034261Y0174084D01*
X0034278Y0173889D01*
X0034290Y0173693D01*
X0034298Y0173496D01*
X0034300Y0173300D01*
X0034298Y0173104D01*
X0034290Y0172907D01*
X0034278Y0172711D01*
X0034261Y0172516D01*
X0034240Y0172321D01*
X0034213Y0172126D01*
X0034182Y0171932D01*
X0034146Y0171739D01*
X0034106Y0171547D01*
X0034060Y0171356D01*
X0034010Y0171166D01*
X0033956Y0170978D01*
X0033896Y0170791D01*
X0033832Y0170605D01*
X0033764Y0170421D01*
X0033691Y0170239D01*
X0033614Y0170058D01*
X0033532Y0169880D01*
X0033446Y0169703D01*
X0033355Y0169529D01*
X0033261Y0169357D01*
X0033162Y0169187D01*
X0033059Y0169020D01*
X0032952Y0168855D01*
X0032841Y0168694D01*
X0032726Y0168534D01*
X0032607Y0168378D01*
X0032484Y0168225D01*
X0032358Y0168075D01*
X0032228Y0167928D01*
X0032094Y0167784D01*
X0031957Y0167643D01*
X0031816Y0167506D01*
X0031672Y0167372D01*
X0031525Y0167242D01*
X0031375Y0167116D01*
X0031222Y0166993D01*
X0031066Y0166874D01*
X0030906Y0166759D01*
X0030745Y0166648D01*
X0030580Y0166541D01*
X0030413Y0166438D01*
X0030243Y0166339D01*
X0030071Y0166245D01*
X0029897Y0166154D01*
X0029720Y0166068D01*
X0029542Y0165986D01*
X0029361Y0165909D01*
X0029179Y0165836D01*
X0028995Y0165768D01*
X0028809Y0165704D01*
X0028622Y0165644D01*
X0028434Y0165590D01*
X0028244Y0165540D01*
X0028053Y0165494D01*
X0027861Y0165454D01*
X0027668Y0165418D01*
X0027474Y0165387D01*
X0027279Y0165360D01*
X0027084Y0165339D01*
X0026889Y0165322D01*
X0026693Y0165310D01*
X0026496Y0165302D01*
X0026300Y0165300D01*
X0026104Y0165302D01*
X0025907Y0165310D01*
X0025711Y0165322D01*
X0025516Y0165339D01*
X0025321Y0165360D01*
X0025126Y0165387D01*
X0024932Y0165418D01*
X0024739Y0165454D01*
X0024547Y0165494D01*
X0024356Y0165540D01*
X0024166Y0165590D01*
X0023978Y0165644D01*
X0023791Y0165704D01*
X0023605Y0165768D01*
X0023421Y0165836D01*
X0023239Y0165909D01*
X0023058Y0165986D01*
X0022880Y0166068D01*
X0022703Y0166154D01*
X0022529Y0166245D01*
X0022357Y0166339D01*
X0022187Y0166438D01*
X0022020Y0166541D01*
X0021855Y0166648D01*
X0021694Y0166759D01*
X0021534Y0166874D01*
X0021378Y0166993D01*
X0021225Y0167116D01*
X0021075Y0167242D01*
X0020928Y0167372D01*
X0020784Y0167506D01*
X0020643Y0167643D01*
X0020506Y0167784D01*
X0020372Y0167928D01*
X0020242Y0168075D01*
X0020116Y0168225D01*
X0019993Y0168378D01*
X0019874Y0168534D01*
X0019759Y0168694D01*
X0019648Y0168855D01*
X0019541Y0169020D01*
X0019438Y0169187D01*
X0019339Y0169357D01*
X0019245Y0169529D01*
X0019154Y0169703D01*
X0019068Y0169880D01*
X0018986Y0170058D01*
X0018909Y0170239D01*
X0018836Y0170421D01*
X0018768Y0170605D01*
X0018704Y0170791D01*
X0018644Y0170978D01*
X0018590Y0171166D01*
X0018540Y0171356D01*
X0018494Y0171547D01*
X0018454Y0171739D01*
X0018418Y0171932D01*
X0018387Y0172126D01*
X0018360Y0172321D01*
X0018339Y0172516D01*
X0018322Y0172711D01*
X0018310Y0172907D01*
X0018302Y0173104D01*
X0018300Y0173300D01*
D11*
X0356418Y0103300D03*
D12*
X0346182Y0107631D03*
X0346182Y0098969D03*
D13*
X0111300Y0092200D02*
X0111300Y0084400D01*
X0111300Y0114400D02*
X0111300Y0122200D01*
X0051300Y0122200D02*
X0051300Y0114400D01*
X0031300Y0114400D02*
X0031300Y0122200D01*
X0011300Y0122200D02*
X0011300Y0114400D01*
X0011300Y0092200D02*
X0011300Y0084400D01*
X0031300Y0084400D02*
X0031300Y0092200D01*
X0051300Y0092200D02*
X0051300Y0084400D01*
D14*
X0160560Y0083300D03*
X0168040Y0083300D03*
D15*
X0096200Y0032900D03*
X0066300Y0032900D03*
X0066400Y0173700D03*
X0096300Y0173700D03*
D16*
X0136300Y0168300D03*
X0146300Y0168300D03*
X0136300Y0141300D03*
X0096300Y0141300D03*
X0096300Y0064300D03*
X0136300Y0064300D03*
X0136300Y0038300D03*
X0146300Y0038300D03*
D17*
X0181300Y0027300D02*
X0181300Y0021300D01*
X0191300Y0021300D02*
X0191300Y0027300D01*
X0201300Y0027300D02*
X0201300Y0021300D01*
X0211300Y0021300D02*
X0211300Y0027300D01*
X0150300Y0098300D02*
X0144300Y0098300D01*
X0144300Y0108300D02*
X0150300Y0108300D01*
X0150300Y0118300D02*
X0144300Y0118300D01*
X0181300Y0179300D02*
X0181300Y0185300D01*
X0191300Y0185300D02*
X0191300Y0179300D01*
X0201300Y0179300D02*
X0201300Y0185300D01*
X0211300Y0185300D02*
X0211300Y0179300D01*
D18*
X0347363Y0122300D03*
X0355237Y0122300D03*
D19*
X0132300Y0118560D03*
X0132300Y0126040D03*
D20*
X0137560Y0131300D01*
X0144300Y0131300D01*
X0181300Y0168300D01*
X0181300Y0182300D01*
X0191300Y0182300D02*
X0191300Y0164300D01*
X0162300Y0135300D01*
X0162300Y0112300D01*
X0166300Y0108300D01*
X0162300Y0108300D01*
X0162300Y0112300D01*
X0158300Y0108300D01*
X0147300Y0108300D01*
X0158300Y0108300D02*
X0162300Y0108300D01*
X0166300Y0108300D02*
X0174379Y0108300D01*
X0183709Y0098969D01*
X0346182Y0098969D01*
X0346182Y0107631D02*
X0346182Y0114300D01*
X0346300Y0114300D01*
X0347363Y0114300D01*
X0347363Y0122300D01*
X0211300Y0041300D02*
X0211300Y0024300D01*
X0201300Y0024300D02*
X0201300Y0030300D01*
X0168040Y0063560D01*
X0168040Y0083300D01*
X0183709Y0098969D01*
X0160560Y0085040D02*
X0160560Y0083300D01*
X0160560Y0085040D02*
X0147300Y0098300D01*
X0129300Y0088300D02*
X0111300Y0088300D01*
X0129300Y0088300D02*
X0148300Y0069300D01*
X0148300Y0057300D01*
X0181300Y0024300D01*
X0191300Y0024300D02*
X0191300Y0019800D01*
X0196300Y0014800D01*
X0211300Y0041300D02*
X0179300Y0073300D01*
X0147300Y0118300D02*
X0147040Y0118560D01*
X0132300Y0118560D01*
X0132300Y0126040D02*
X0132040Y0126300D01*
X0121300Y0126300D01*
X0113300Y0118300D01*
X0111300Y0118300D01*
D21*
X0179300Y0073300D03*
X0346300Y0114300D03*
D22*
X0343563Y0117055D02*
X0342960Y0116453D01*
X0342382Y0115056D01*
X0342382Y0110787D01*
X0342126Y0110531D01*
X0342126Y0104730D01*
X0342888Y0103969D01*
X0345093Y0103969D01*
X0345426Y0103831D01*
X0346938Y0103831D01*
X0347270Y0103969D01*
X0349476Y0103969D01*
X0350238Y0104730D01*
X0350238Y0110531D01*
X0349982Y0110787D01*
X0349982Y0111545D01*
X0350584Y0112147D01*
X0351163Y0113544D01*
X0351163Y0118553D01*
X0351222Y0118612D01*
X0351222Y0125988D01*
X0350461Y0126750D01*
X0344265Y0126750D01*
X0343504Y0125988D01*
X0343504Y0118612D01*
X0343563Y0118553D01*
X0343563Y0117055D01*
X0343563Y0117229D02*
X0166100Y0117229D01*
X0166100Y0116631D02*
X0343138Y0116631D01*
X0342786Y0116032D02*
X0166100Y0116032D01*
X0166100Y0115434D02*
X0342538Y0115434D01*
X0342382Y0114835D02*
X0166100Y0114835D01*
X0166100Y0114237D02*
X0342382Y0114237D01*
X0342382Y0113638D02*
X0166336Y0113638D01*
X0166100Y0113874D02*
X0166100Y0133726D01*
X0194521Y0162147D01*
X0195100Y0163544D01*
X0195100Y0177238D01*
X0195600Y0178445D01*
X0195600Y0186155D01*
X0194945Y0187736D01*
X0193736Y0188945D01*
X0192155Y0189600D01*
X0190445Y0189600D01*
X0188864Y0188945D01*
X0187655Y0187736D01*
X0187000Y0186155D01*
X0187000Y0178445D01*
X0187500Y0177238D01*
X0187500Y0165874D01*
X0159079Y0137453D01*
X0158500Y0136056D01*
X0158500Y0113874D01*
X0156726Y0112100D01*
X0152362Y0112100D01*
X0151155Y0112600D01*
X0143445Y0112600D01*
X0141864Y0111945D01*
X0140655Y0110736D01*
X0140000Y0109155D01*
X0140000Y0107445D01*
X0140655Y0105864D01*
X0141864Y0104655D01*
X0143445Y0104000D01*
X0151155Y0104000D01*
X0152362Y0104500D01*
X0172805Y0104500D01*
X0178335Y0098969D01*
X0166919Y0087553D01*
X0164943Y0087553D01*
X0164262Y0086872D01*
X0164159Y0087051D01*
X0163917Y0087293D01*
X0163621Y0087464D01*
X0163290Y0087553D01*
X0160860Y0087553D01*
X0160860Y0083600D01*
X0160260Y0083600D01*
X0160260Y0087553D01*
X0157830Y0087553D01*
X0157499Y0087464D01*
X0157203Y0087293D01*
X0156961Y0087051D01*
X0156789Y0086755D01*
X0156701Y0086424D01*
X0156701Y0083600D01*
X0160260Y0083600D01*
X0160260Y0083000D01*
X0160860Y0083000D01*
X0160860Y0079047D01*
X0163290Y0079047D01*
X0163621Y0079136D01*
X0163917Y0079307D01*
X0164159Y0079549D01*
X0164240Y0079689D01*
X0164240Y0062804D01*
X0164819Y0061407D01*
X0197314Y0028912D01*
X0197000Y0028155D01*
X0197000Y0020445D01*
X0197655Y0018864D01*
X0198864Y0017655D01*
X0200445Y0017000D01*
X0202155Y0017000D01*
X0203736Y0017655D01*
X0204945Y0018864D01*
X0205600Y0020445D01*
X0205600Y0028155D01*
X0205100Y0029362D01*
X0205100Y0031056D01*
X0204521Y0032453D01*
X0171840Y0065134D01*
X0171840Y0079750D01*
X0171899Y0079809D01*
X0171899Y0081785D01*
X0185283Y0095169D01*
X0346938Y0095169D01*
X0347270Y0095307D01*
X0349476Y0095307D01*
X0350238Y0096069D01*
X0350238Y0101870D01*
X0349476Y0102631D01*
X0347270Y0102631D01*
X0346938Y0102769D01*
X0185283Y0102769D01*
X0177600Y0110453D01*
X0176531Y0111521D01*
X0175135Y0112100D01*
X0167874Y0112100D01*
X0166100Y0113874D01*
X0166935Y0113039D02*
X0342382Y0113039D01*
X0342382Y0112441D02*
X0167533Y0112441D01*
X0175756Y0111842D02*
X0342382Y0111842D01*
X0342382Y0111244D02*
X0176809Y0111244D01*
X0177407Y0110645D02*
X0342240Y0110645D01*
X0342126Y0110047D02*
X0178006Y0110047D01*
X0178604Y0109448D02*
X0342126Y0109448D01*
X0342126Y0108850D02*
X0179203Y0108850D01*
X0179801Y0108251D02*
X0342126Y0108251D01*
X0342126Y0107653D02*
X0180400Y0107653D01*
X0180998Y0107054D02*
X0342126Y0107054D01*
X0342126Y0106456D02*
X0181597Y0106456D01*
X0182195Y0105857D02*
X0342126Y0105857D01*
X0342126Y0105259D02*
X0182794Y0105259D01*
X0183392Y0104660D02*
X0342196Y0104660D01*
X0342794Y0104062D02*
X0183991Y0104062D01*
X0184589Y0103463D02*
X0356118Y0103463D01*
X0356118Y0103600D02*
X0356118Y0103000D01*
X0352756Y0103000D01*
X0352756Y0099586D01*
X0352845Y0099255D01*
X0353016Y0098958D01*
X0353258Y0098716D01*
X0353554Y0098545D01*
X0353885Y0098457D01*
X0356118Y0098457D01*
X0356118Y0103000D01*
X0356718Y0103000D01*
X0356718Y0098457D01*
X0358951Y0098457D01*
X0359282Y0098545D01*
X0359579Y0098716D01*
X0359821Y0098958D01*
X0359992Y0099255D01*
X0360080Y0099586D01*
X0360080Y0103000D01*
X0356718Y0103000D01*
X0356718Y0103600D01*
X0356118Y0103600D01*
X0352756Y0103600D01*
X0352756Y0107014D01*
X0352845Y0107345D01*
X0353016Y0107642D01*
X0353258Y0107884D01*
X0353554Y0108055D01*
X0353885Y0108143D01*
X0356118Y0108143D01*
X0356118Y0103600D01*
X0356118Y0104062D02*
X0356718Y0104062D01*
X0356718Y0103600D02*
X0356718Y0108143D01*
X0358951Y0108143D01*
X0359282Y0108055D01*
X0359579Y0107884D01*
X0359821Y0107642D01*
X0359992Y0107345D01*
X0360080Y0107014D01*
X0360080Y0103600D01*
X0356718Y0103600D01*
X0356718Y0103463D02*
X0386921Y0103463D01*
X0386921Y0102865D02*
X0360080Y0102865D01*
X0360080Y0102266D02*
X0386921Y0102266D01*
X0386921Y0101668D02*
X0360080Y0101668D01*
X0360080Y0101069D02*
X0386921Y0101069D01*
X0386921Y0100471D02*
X0360080Y0100471D01*
X0360080Y0099872D02*
X0386921Y0099872D01*
X0386921Y0099274D02*
X0359997Y0099274D01*
X0359507Y0098675D02*
X0386921Y0098675D01*
X0386921Y0098077D02*
X0350238Y0098077D01*
X0350238Y0098675D02*
X0353329Y0098675D01*
X0352839Y0099274D02*
X0350238Y0099274D01*
X0350238Y0099872D02*
X0352756Y0099872D01*
X0352756Y0100471D02*
X0350238Y0100471D01*
X0350238Y0101069D02*
X0352756Y0101069D01*
X0352756Y0101668D02*
X0350238Y0101668D01*
X0349841Y0102266D02*
X0352756Y0102266D01*
X0352756Y0102865D02*
X0185188Y0102865D01*
X0178031Y0099274D02*
X0154499Y0099274D01*
X0154494Y0099307D02*
X0154285Y0099951D01*
X0153978Y0100554D01*
X0153580Y0101101D01*
X0153101Y0101580D01*
X0152554Y0101978D01*
X0151951Y0102285D01*
X0151307Y0102494D01*
X0150638Y0102600D01*
X0147600Y0102600D01*
X0147600Y0098600D01*
X0147000Y0098600D01*
X0147000Y0102600D01*
X0143962Y0102600D01*
X0143293Y0102494D01*
X0142649Y0102285D01*
X0142046Y0101978D01*
X0141499Y0101580D01*
X0141020Y0101101D01*
X0140622Y0100554D01*
X0140315Y0099951D01*
X0140106Y0099307D01*
X0140000Y0098638D01*
X0140000Y0098600D01*
X0147000Y0098600D01*
X0147000Y0098000D01*
X0147600Y0098000D01*
X0147600Y0098600D01*
X0154600Y0098600D01*
X0154600Y0098638D01*
X0154494Y0099307D01*
X0154310Y0099872D02*
X0177432Y0099872D01*
X0176834Y0100471D02*
X0154020Y0100471D01*
X0153603Y0101069D02*
X0176235Y0101069D01*
X0175637Y0101668D02*
X0152980Y0101668D01*
X0151987Y0102266D02*
X0175038Y0102266D01*
X0174440Y0102865D02*
X0120300Y0102865D01*
X0120300Y0103463D02*
X0173841Y0103463D01*
X0173243Y0104062D02*
X0151305Y0104062D01*
X0147600Y0102266D02*
X0147000Y0102266D01*
X0147000Y0101668D02*
X0147600Y0101668D01*
X0147600Y0101069D02*
X0147000Y0101069D01*
X0147000Y0100471D02*
X0147600Y0100471D01*
X0147600Y0099872D02*
X0147000Y0099872D01*
X0147000Y0099274D02*
X0147600Y0099274D01*
X0147600Y0098675D02*
X0147000Y0098675D01*
X0147000Y0098077D02*
X0120300Y0098077D01*
X0120300Y0098675D02*
X0140006Y0098675D01*
X0140101Y0099274D02*
X0120300Y0099274D01*
X0120300Y0099872D02*
X0140290Y0099872D01*
X0140580Y0100471D02*
X0120300Y0100471D01*
X0120300Y0101069D02*
X0140997Y0101069D01*
X0141620Y0101668D02*
X0120300Y0101668D01*
X0120300Y0102266D02*
X0142613Y0102266D01*
X0143295Y0104062D02*
X0120300Y0104062D01*
X0120300Y0104660D02*
X0141859Y0104660D01*
X0141260Y0105259D02*
X0120300Y0105259D01*
X0120300Y0105857D02*
X0140662Y0105857D01*
X0140410Y0106456D02*
X0120300Y0106456D01*
X0120300Y0107054D02*
X0140162Y0107054D01*
X0140000Y0107653D02*
X0120300Y0107653D01*
X0120300Y0108251D02*
X0140000Y0108251D01*
X0140000Y0108850D02*
X0120300Y0108850D01*
X0120300Y0109448D02*
X0140121Y0109448D01*
X0140369Y0110047D02*
X0120300Y0110047D01*
X0120300Y0110645D02*
X0140617Y0110645D01*
X0141163Y0111244D02*
X0120300Y0111244D01*
X0120300Y0111842D02*
X0141761Y0111842D01*
X0143061Y0112441D02*
X0120300Y0112441D01*
X0120300Y0113039D02*
X0157665Y0113039D01*
X0157067Y0112441D02*
X0151539Y0112441D01*
X0151155Y0114000D02*
X0152736Y0114655D01*
X0153945Y0115864D01*
X0154600Y0117445D01*
X0154600Y0119155D01*
X0153945Y0120736D01*
X0152736Y0121945D01*
X0151155Y0122600D01*
X0143445Y0122600D01*
X0142865Y0122360D01*
X0135970Y0122360D01*
X0136553Y0122943D01*
X0136553Y0124919D01*
X0139134Y0127500D01*
X0145056Y0127500D01*
X0146453Y0128079D01*
X0147521Y0129147D01*
X0147521Y0129147D01*
X0183453Y0165079D01*
X0184521Y0166147D01*
X0185100Y0167544D01*
X0185100Y0177238D01*
X0185600Y0178445D01*
X0185600Y0186155D01*
X0184945Y0187736D01*
X0183736Y0188945D01*
X0182155Y0189600D01*
X0180445Y0189600D01*
X0178864Y0188945D01*
X0177655Y0187736D01*
X0177000Y0186155D01*
X0177000Y0178445D01*
X0177500Y0177238D01*
X0177500Y0169874D01*
X0142726Y0135100D01*
X0136804Y0135100D01*
X0135407Y0134521D01*
X0134338Y0133453D01*
X0134338Y0133453D01*
X0130986Y0130100D01*
X0120544Y0130100D01*
X0120300Y0129999D01*
X0120300Y0193701D01*
X0386921Y0193701D01*
X0386921Y0154503D01*
X0386142Y0155852D01*
X0383852Y0158142D01*
X0381048Y0159762D01*
X0377919Y0160600D01*
X0374681Y0160600D01*
X0371552Y0159762D01*
X0368748Y0158142D01*
X0366458Y0155852D01*
X0364838Y0153048D01*
X0364000Y0149919D01*
X0364000Y0146681D01*
X0364838Y0143552D01*
X0366458Y0140748D01*
X0368748Y0138458D01*
X0371552Y0136838D01*
X0374681Y0136000D01*
X0377919Y0136000D01*
X0381048Y0136838D01*
X0383852Y0138458D01*
X0386142Y0140748D01*
X0386921Y0142097D01*
X0386921Y0064503D01*
X0386142Y0065852D01*
X0383852Y0068142D01*
X0381048Y0069762D01*
X0377919Y0070600D01*
X0374681Y0070600D01*
X0371552Y0069762D01*
X0368748Y0068142D01*
X0366458Y0065852D01*
X0364838Y0063048D01*
X0364000Y0059919D01*
X0364000Y0056681D01*
X0364838Y0053552D01*
X0366458Y0050748D01*
X0368748Y0048458D01*
X0371552Y0046838D01*
X0374681Y0046000D01*
X0377919Y0046000D01*
X0381048Y0046838D01*
X0383852Y0048458D01*
X0386142Y0050748D01*
X0386921Y0052097D01*
X0386921Y0012600D01*
X0120300Y0012600D01*
X0120300Y0084500D01*
X0127726Y0084500D01*
X0144500Y0067726D01*
X0144500Y0056544D01*
X0145079Y0055147D01*
X0146147Y0054079D01*
X0177000Y0023226D01*
X0177000Y0020445D01*
X0177655Y0018864D01*
X0178864Y0017655D01*
X0180445Y0017000D01*
X0182155Y0017000D01*
X0183736Y0017655D01*
X0184945Y0018864D01*
X0185600Y0020445D01*
X0185600Y0028155D01*
X0184945Y0029736D01*
X0183736Y0030945D01*
X0182155Y0031600D01*
X0180445Y0031600D01*
X0179688Y0031286D01*
X0152100Y0058874D01*
X0152100Y0070056D01*
X0151521Y0071453D01*
X0132521Y0090453D01*
X0131453Y0091521D01*
X0130056Y0092100D01*
X0120300Y0092100D01*
X0120300Y0119926D01*
X0122874Y0122500D01*
X0128490Y0122500D01*
X0128690Y0122300D01*
X0128047Y0121657D01*
X0128047Y0115462D01*
X0128809Y0114701D01*
X0135791Y0114701D01*
X0135850Y0114760D01*
X0141759Y0114760D01*
X0141864Y0114655D01*
X0143445Y0114000D01*
X0151155Y0114000D01*
X0151726Y0114237D02*
X0158500Y0114237D01*
X0158500Y0114835D02*
X0152916Y0114835D01*
X0153515Y0115434D02*
X0158500Y0115434D01*
X0158500Y0116032D02*
X0154015Y0116032D01*
X0154263Y0116631D02*
X0158500Y0116631D01*
X0158500Y0117229D02*
X0154511Y0117229D01*
X0154600Y0117828D02*
X0158500Y0117828D01*
X0158500Y0118426D02*
X0154600Y0118426D01*
X0154600Y0119025D02*
X0158500Y0119025D01*
X0158500Y0119623D02*
X0154406Y0119623D01*
X0154158Y0120222D02*
X0158500Y0120222D01*
X0158500Y0120820D02*
X0153861Y0120820D01*
X0153262Y0121419D02*
X0158500Y0121419D01*
X0158500Y0122017D02*
X0152562Y0122017D01*
X0158500Y0122616D02*
X0136226Y0122616D01*
X0136553Y0123214D02*
X0158500Y0123214D01*
X0158500Y0123813D02*
X0136553Y0123813D01*
X0136553Y0124411D02*
X0158500Y0124411D01*
X0158500Y0125010D02*
X0136644Y0125010D01*
X0137242Y0125608D02*
X0158500Y0125608D01*
X0158500Y0126207D02*
X0137841Y0126207D01*
X0138439Y0126805D02*
X0158500Y0126805D01*
X0158500Y0127404D02*
X0139038Y0127404D01*
X0146268Y0128002D02*
X0158500Y0128002D01*
X0158500Y0128601D02*
X0146975Y0128601D01*
X0147573Y0129199D02*
X0158500Y0129199D01*
X0158500Y0129798D02*
X0148172Y0129798D01*
X0148770Y0130396D02*
X0158500Y0130396D01*
X0158500Y0130995D02*
X0149369Y0130995D01*
X0149967Y0131593D02*
X0158500Y0131593D01*
X0158500Y0132192D02*
X0150566Y0132192D01*
X0151164Y0132790D02*
X0158500Y0132790D01*
X0158500Y0133389D02*
X0151763Y0133389D01*
X0152361Y0133987D02*
X0158500Y0133987D01*
X0158500Y0134586D02*
X0152960Y0134586D01*
X0153558Y0135184D02*
X0158500Y0135184D01*
X0158500Y0135783D02*
X0154157Y0135783D01*
X0154755Y0136381D02*
X0158635Y0136381D01*
X0158883Y0136980D02*
X0155354Y0136980D01*
X0155952Y0137578D02*
X0159204Y0137578D01*
X0159803Y0138177D02*
X0156551Y0138177D01*
X0157149Y0138775D02*
X0160401Y0138775D01*
X0161000Y0139374D02*
X0157748Y0139374D01*
X0158346Y0139972D02*
X0161598Y0139972D01*
X0162197Y0140571D02*
X0158945Y0140571D01*
X0159544Y0141170D02*
X0162796Y0141170D01*
X0163394Y0141768D02*
X0160142Y0141768D01*
X0160741Y0142367D02*
X0163993Y0142367D01*
X0164591Y0142965D02*
X0161339Y0142965D01*
X0161938Y0143564D02*
X0165190Y0143564D01*
X0165788Y0144162D02*
X0162536Y0144162D01*
X0163135Y0144761D02*
X0166387Y0144761D01*
X0166985Y0145359D02*
X0163733Y0145359D01*
X0164332Y0145958D02*
X0167584Y0145958D01*
X0168182Y0146556D02*
X0164930Y0146556D01*
X0165529Y0147155D02*
X0168781Y0147155D01*
X0169379Y0147753D02*
X0166127Y0147753D01*
X0166726Y0148352D02*
X0169978Y0148352D01*
X0170576Y0148950D02*
X0167324Y0148950D01*
X0167923Y0149549D02*
X0171175Y0149549D01*
X0171773Y0150147D02*
X0168521Y0150147D01*
X0169120Y0150746D02*
X0172372Y0150746D01*
X0172970Y0151344D02*
X0169718Y0151344D01*
X0170317Y0151943D02*
X0173569Y0151943D01*
X0174167Y0152541D02*
X0170915Y0152541D01*
X0171514Y0153140D02*
X0174766Y0153140D01*
X0175364Y0153738D02*
X0172112Y0153738D01*
X0172711Y0154337D02*
X0175963Y0154337D01*
X0176561Y0154935D02*
X0173309Y0154935D01*
X0173908Y0155534D02*
X0177160Y0155534D01*
X0177758Y0156132D02*
X0174506Y0156132D01*
X0175105Y0156731D02*
X0178357Y0156731D01*
X0178955Y0157329D02*
X0175703Y0157329D01*
X0176302Y0157928D02*
X0179554Y0157928D01*
X0180152Y0158526D02*
X0176900Y0158526D01*
X0177499Y0159125D02*
X0180751Y0159125D01*
X0181349Y0159723D02*
X0178097Y0159723D01*
X0178696Y0160322D02*
X0181948Y0160322D01*
X0182546Y0160920D02*
X0179294Y0160920D01*
X0179893Y0161519D02*
X0183145Y0161519D01*
X0183743Y0162117D02*
X0180491Y0162117D01*
X0181090Y0162716D02*
X0184342Y0162716D01*
X0184940Y0163314D02*
X0181688Y0163314D01*
X0182287Y0163913D02*
X0185539Y0163913D01*
X0186137Y0164511D02*
X0182885Y0164511D01*
X0183453Y0165079D02*
X0183453Y0165079D01*
X0183484Y0165110D02*
X0186736Y0165110D01*
X0187334Y0165708D02*
X0184082Y0165708D01*
X0184588Y0166307D02*
X0187500Y0166307D01*
X0187500Y0166905D02*
X0184835Y0166905D01*
X0185083Y0167504D02*
X0187500Y0167504D01*
X0187500Y0168103D02*
X0185100Y0168103D01*
X0185100Y0168701D02*
X0187500Y0168701D01*
X0187500Y0169300D02*
X0185100Y0169300D01*
X0185100Y0169898D02*
X0187500Y0169898D01*
X0187500Y0170497D02*
X0185100Y0170497D01*
X0185100Y0171095D02*
X0187500Y0171095D01*
X0187500Y0171694D02*
X0185100Y0171694D01*
X0185100Y0172292D02*
X0187500Y0172292D01*
X0187500Y0172891D02*
X0185100Y0172891D01*
X0185100Y0173489D02*
X0187500Y0173489D01*
X0187500Y0174088D02*
X0185100Y0174088D01*
X0185100Y0174686D02*
X0187500Y0174686D01*
X0187500Y0175285D02*
X0185100Y0175285D01*
X0185100Y0175883D02*
X0187500Y0175883D01*
X0187500Y0176482D02*
X0185100Y0176482D01*
X0185100Y0177080D02*
X0187500Y0177080D01*
X0187317Y0177679D02*
X0185283Y0177679D01*
X0185531Y0178277D02*
X0187069Y0178277D01*
X0187000Y0178876D02*
X0185600Y0178876D01*
X0185600Y0179474D02*
X0187000Y0179474D01*
X0187000Y0180073D02*
X0185600Y0180073D01*
X0185600Y0180671D02*
X0187000Y0180671D01*
X0187000Y0181270D02*
X0185600Y0181270D01*
X0185600Y0181868D02*
X0187000Y0181868D01*
X0187000Y0182467D02*
X0185600Y0182467D01*
X0185600Y0183065D02*
X0187000Y0183065D01*
X0187000Y0183664D02*
X0185600Y0183664D01*
X0185600Y0184262D02*
X0187000Y0184262D01*
X0187000Y0184861D02*
X0185600Y0184861D01*
X0185600Y0185459D02*
X0187000Y0185459D01*
X0187000Y0186058D02*
X0185600Y0186058D01*
X0185392Y0186656D02*
X0187208Y0186656D01*
X0187455Y0187255D02*
X0185145Y0187255D01*
X0184828Y0187853D02*
X0187772Y0187853D01*
X0188371Y0188452D02*
X0184229Y0188452D01*
X0183482Y0189050D02*
X0189118Y0189050D01*
X0193482Y0189050D02*
X0199189Y0189050D01*
X0199046Y0188978D02*
X0198499Y0188580D01*
X0198020Y0188101D01*
X0197622Y0187554D01*
X0197315Y0186951D01*
X0197106Y0186307D01*
X0197000Y0185638D01*
X0197000Y0182600D01*
X0201000Y0182600D01*
X0201000Y0189600D01*
X0200962Y0189600D01*
X0200293Y0189494D01*
X0199649Y0189285D01*
X0199046Y0188978D01*
X0198371Y0188452D02*
X0194229Y0188452D01*
X0194828Y0187853D02*
X0197840Y0187853D01*
X0197470Y0187255D02*
X0195145Y0187255D01*
X0195392Y0186656D02*
X0197219Y0186656D01*
X0197066Y0186058D02*
X0195600Y0186058D01*
X0195600Y0185459D02*
X0197000Y0185459D01*
X0197000Y0184861D02*
X0195600Y0184861D01*
X0195600Y0184262D02*
X0197000Y0184262D01*
X0197000Y0183664D02*
X0195600Y0183664D01*
X0195600Y0183065D02*
X0197000Y0183065D01*
X0197000Y0182000D02*
X0197000Y0178962D01*
X0197106Y0178293D01*
X0197315Y0177649D01*
X0197622Y0177046D01*
X0198020Y0176499D01*
X0198499Y0176020D01*
X0199046Y0175622D01*
X0199649Y0175315D01*
X0200293Y0175106D01*
X0200962Y0175000D01*
X0201000Y0175000D01*
X0201000Y0182000D01*
X0201600Y0182000D01*
X0201600Y0182600D01*
X0205600Y0182600D01*
X0205600Y0185638D01*
X0205494Y0186307D01*
X0205285Y0186951D01*
X0204978Y0187554D01*
X0204580Y0188101D01*
X0204101Y0188580D01*
X0203554Y0188978D01*
X0202951Y0189285D01*
X0202307Y0189494D01*
X0201638Y0189600D01*
X0201600Y0189600D01*
X0201600Y0182600D01*
X0201000Y0182600D01*
X0201000Y0182000D01*
X0197000Y0182000D01*
X0197000Y0181868D02*
X0195600Y0181868D01*
X0195600Y0181270D02*
X0197000Y0181270D01*
X0197000Y0180671D02*
X0195600Y0180671D01*
X0195600Y0180073D02*
X0197000Y0180073D01*
X0197000Y0179474D02*
X0195600Y0179474D01*
X0195600Y0178876D02*
X0197014Y0178876D01*
X0197111Y0178277D02*
X0195531Y0178277D01*
X0195283Y0177679D02*
X0197305Y0177679D01*
X0197605Y0177080D02*
X0195100Y0177080D01*
X0195100Y0176482D02*
X0198037Y0176482D01*
X0198687Y0175883D02*
X0195100Y0175883D01*
X0195100Y0175285D02*
X0199743Y0175285D01*
X0201000Y0175285D02*
X0201600Y0175285D01*
X0201600Y0175000D02*
X0201638Y0175000D01*
X0202307Y0175106D01*
X0202951Y0175315D01*
X0203554Y0175622D01*
X0204101Y0176020D01*
X0204580Y0176499D01*
X0204978Y0177046D01*
X0205285Y0177649D01*
X0205494Y0178293D01*
X0205600Y0178962D01*
X0205600Y0182000D01*
X0201600Y0182000D01*
X0201600Y0175000D01*
X0201600Y0175883D02*
X0201000Y0175883D01*
X0201000Y0176482D02*
X0201600Y0176482D01*
X0201600Y0177080D02*
X0201000Y0177080D01*
X0201000Y0177679D02*
X0201600Y0177679D01*
X0201600Y0178277D02*
X0201000Y0178277D01*
X0201000Y0178876D02*
X0201600Y0178876D01*
X0201600Y0179474D02*
X0201000Y0179474D01*
X0201000Y0180073D02*
X0201600Y0180073D01*
X0201600Y0180671D02*
X0201000Y0180671D01*
X0201000Y0181270D02*
X0201600Y0181270D01*
X0201600Y0181868D02*
X0201000Y0181868D01*
X0201000Y0182467D02*
X0195600Y0182467D01*
X0201000Y0183065D02*
X0201600Y0183065D01*
X0201600Y0182467D02*
X0207000Y0182467D01*
X0207000Y0183065D02*
X0205600Y0183065D01*
X0205600Y0183664D02*
X0207000Y0183664D01*
X0207000Y0184262D02*
X0205600Y0184262D01*
X0205600Y0184861D02*
X0207000Y0184861D01*
X0207000Y0185459D02*
X0205600Y0185459D01*
X0205534Y0186058D02*
X0207000Y0186058D01*
X0207000Y0186155D02*
X0207655Y0187736D01*
X0208864Y0188945D01*
X0210445Y0189600D01*
X0212155Y0189600D01*
X0213736Y0188945D01*
X0214945Y0187736D01*
X0215600Y0186155D01*
X0215600Y0178445D01*
X0214945Y0176864D01*
X0213736Y0175655D01*
X0212155Y0175000D01*
X0210445Y0175000D01*
X0208864Y0175655D01*
X0207655Y0176864D01*
X0207000Y0178445D01*
X0207000Y0186155D01*
X0207208Y0186656D02*
X0205381Y0186656D01*
X0205130Y0187255D02*
X0207455Y0187255D01*
X0207772Y0187853D02*
X0204760Y0187853D01*
X0204229Y0188452D02*
X0208371Y0188452D01*
X0209118Y0189050D02*
X0203411Y0189050D01*
X0201600Y0189050D02*
X0201000Y0189050D01*
X0201000Y0188452D02*
X0201600Y0188452D01*
X0201600Y0187853D02*
X0201000Y0187853D01*
X0201000Y0187255D02*
X0201600Y0187255D01*
X0201600Y0186656D02*
X0201000Y0186656D01*
X0201000Y0186058D02*
X0201600Y0186058D01*
X0201600Y0185459D02*
X0201000Y0185459D01*
X0201000Y0184861D02*
X0201600Y0184861D01*
X0201600Y0184262D02*
X0201000Y0184262D01*
X0201000Y0183664D02*
X0201600Y0183664D01*
X0205600Y0181868D02*
X0207000Y0181868D01*
X0207000Y0181270D02*
X0205600Y0181270D01*
X0205600Y0180671D02*
X0207000Y0180671D01*
X0207000Y0180073D02*
X0205600Y0180073D01*
X0205600Y0179474D02*
X0207000Y0179474D01*
X0207000Y0178876D02*
X0205586Y0178876D01*
X0205489Y0178277D02*
X0207069Y0178277D01*
X0207317Y0177679D02*
X0205294Y0177679D01*
X0204995Y0177080D02*
X0207565Y0177080D01*
X0208037Y0176482D02*
X0204563Y0176482D01*
X0203913Y0175883D02*
X0208636Y0175883D01*
X0209757Y0175285D02*
X0202857Y0175285D01*
X0195100Y0174686D02*
X0264000Y0174686D01*
X0264000Y0174919D02*
X0264000Y0171681D01*
X0264838Y0168552D01*
X0266458Y0165748D01*
X0268748Y0163458D01*
X0271552Y0161838D01*
X0274681Y0161000D01*
X0277919Y0161000D01*
X0281048Y0161838D01*
X0283852Y0163458D01*
X0286142Y0165748D01*
X0287762Y0168552D01*
X0288600Y0171681D01*
X0288600Y0174919D01*
X0287762Y0178048D01*
X0286142Y0180852D01*
X0283852Y0183142D01*
X0281048Y0184762D01*
X0277919Y0185600D01*
X0274681Y0185600D01*
X0271552Y0184762D01*
X0268748Y0183142D01*
X0266458Y0180852D01*
X0264838Y0178048D01*
X0264000Y0174919D01*
X0264098Y0175285D02*
X0212843Y0175285D01*
X0213964Y0175883D02*
X0264258Y0175883D01*
X0264419Y0176482D02*
X0214563Y0176482D01*
X0215035Y0177080D02*
X0264579Y0177080D01*
X0264739Y0177679D02*
X0215283Y0177679D01*
X0215531Y0178277D02*
X0264971Y0178277D01*
X0265316Y0178876D02*
X0215600Y0178876D01*
X0215600Y0179474D02*
X0265662Y0179474D01*
X0266007Y0180073D02*
X0215600Y0180073D01*
X0215600Y0180671D02*
X0266353Y0180671D01*
X0266875Y0181270D02*
X0215600Y0181270D01*
X0215600Y0181868D02*
X0267473Y0181868D01*
X0268072Y0182467D02*
X0215600Y0182467D01*
X0215600Y0183065D02*
X0268670Y0183065D01*
X0269651Y0183664D02*
X0215600Y0183664D01*
X0215600Y0184262D02*
X0270687Y0184262D01*
X0271922Y0184861D02*
X0215600Y0184861D01*
X0215600Y0185459D02*
X0274156Y0185459D01*
X0278444Y0185459D02*
X0386921Y0185459D01*
X0386921Y0184861D02*
X0280678Y0184861D01*
X0281913Y0184262D02*
X0386921Y0184262D01*
X0386921Y0183664D02*
X0282949Y0183664D01*
X0283930Y0183065D02*
X0386921Y0183065D01*
X0386921Y0182467D02*
X0284528Y0182467D01*
X0285127Y0181868D02*
X0386921Y0181868D01*
X0386921Y0181270D02*
X0285725Y0181270D01*
X0286247Y0180671D02*
X0386921Y0180671D01*
X0386921Y0180073D02*
X0286593Y0180073D01*
X0286938Y0179474D02*
X0386921Y0179474D01*
X0386921Y0178876D02*
X0287284Y0178876D01*
X0287629Y0178277D02*
X0386921Y0178277D01*
X0386921Y0177679D02*
X0287861Y0177679D01*
X0288021Y0177080D02*
X0386921Y0177080D01*
X0386921Y0176482D02*
X0288181Y0176482D01*
X0288342Y0175883D02*
X0386921Y0175883D01*
X0386921Y0175285D02*
X0288502Y0175285D01*
X0288600Y0174686D02*
X0386921Y0174686D01*
X0386921Y0174088D02*
X0288600Y0174088D01*
X0288600Y0173489D02*
X0386921Y0173489D01*
X0386921Y0172891D02*
X0288600Y0172891D01*
X0288600Y0172292D02*
X0386921Y0172292D01*
X0386921Y0171694D02*
X0288600Y0171694D01*
X0288443Y0171095D02*
X0386921Y0171095D01*
X0386921Y0170497D02*
X0288283Y0170497D01*
X0288122Y0169898D02*
X0386921Y0169898D01*
X0386921Y0169300D02*
X0287962Y0169300D01*
X0287802Y0168701D02*
X0386921Y0168701D01*
X0386921Y0168103D02*
X0287502Y0168103D01*
X0287156Y0167504D02*
X0386921Y0167504D01*
X0386921Y0166905D02*
X0286811Y0166905D01*
X0286465Y0166307D02*
X0386921Y0166307D01*
X0386921Y0165708D02*
X0286103Y0165708D01*
X0285505Y0165110D02*
X0386921Y0165110D01*
X0386921Y0164511D02*
X0284906Y0164511D01*
X0284308Y0163913D02*
X0386921Y0163913D01*
X0386921Y0163314D02*
X0283604Y0163314D01*
X0282568Y0162716D02*
X0386921Y0162716D01*
X0386921Y0162117D02*
X0281531Y0162117D01*
X0279856Y0161519D02*
X0386921Y0161519D01*
X0386921Y0160920D02*
X0193294Y0160920D01*
X0192696Y0160322D02*
X0323643Y0160322D01*
X0324681Y0160600D02*
X0321552Y0159762D01*
X0318748Y0158142D01*
X0316458Y0155852D01*
X0314838Y0153048D01*
X0314000Y0149919D01*
X0314000Y0146681D01*
X0314838Y0143552D01*
X0316458Y0140748D01*
X0318748Y0138458D01*
X0321552Y0136838D01*
X0324681Y0136000D01*
X0327919Y0136000D01*
X0331048Y0136838D01*
X0333852Y0138458D01*
X0336142Y0140748D01*
X0337762Y0143552D01*
X0338600Y0146681D01*
X0338600Y0149919D01*
X0337762Y0153048D01*
X0336142Y0155852D01*
X0333852Y0158142D01*
X0331048Y0159762D01*
X0327919Y0160600D01*
X0324681Y0160600D01*
X0321486Y0159723D02*
X0192097Y0159723D01*
X0191499Y0159125D02*
X0320449Y0159125D01*
X0319413Y0158526D02*
X0190900Y0158526D01*
X0190302Y0157928D02*
X0318533Y0157928D01*
X0317934Y0157329D02*
X0189703Y0157329D01*
X0189105Y0156731D02*
X0317336Y0156731D01*
X0316737Y0156132D02*
X0188506Y0156132D01*
X0187908Y0155534D02*
X0316274Y0155534D01*
X0315928Y0154935D02*
X0187309Y0154935D01*
X0186711Y0154337D02*
X0315583Y0154337D01*
X0315237Y0153738D02*
X0186112Y0153738D01*
X0185514Y0153140D02*
X0314891Y0153140D01*
X0314703Y0152541D02*
X0184915Y0152541D01*
X0184317Y0151943D02*
X0314542Y0151943D01*
X0314382Y0151344D02*
X0183718Y0151344D01*
X0183120Y0150746D02*
X0314221Y0150746D01*
X0314061Y0150147D02*
X0182521Y0150147D01*
X0181923Y0149549D02*
X0314000Y0149549D01*
X0314000Y0148950D02*
X0181324Y0148950D01*
X0180726Y0148352D02*
X0314000Y0148352D01*
X0314000Y0147753D02*
X0180127Y0147753D01*
X0179529Y0147155D02*
X0314000Y0147155D01*
X0314033Y0146556D02*
X0178930Y0146556D01*
X0178332Y0145958D02*
X0314194Y0145958D01*
X0314354Y0145359D02*
X0177733Y0145359D01*
X0177135Y0144761D02*
X0314514Y0144761D01*
X0314675Y0144162D02*
X0176536Y0144162D01*
X0175938Y0143564D02*
X0314835Y0143564D01*
X0315177Y0142965D02*
X0175339Y0142965D01*
X0174741Y0142367D02*
X0315523Y0142367D01*
X0315868Y0141768D02*
X0174142Y0141768D01*
X0173544Y0141170D02*
X0316214Y0141170D01*
X0316634Y0140571D02*
X0172945Y0140571D01*
X0172346Y0139972D02*
X0317233Y0139972D01*
X0317831Y0139374D02*
X0171748Y0139374D01*
X0171149Y0138775D02*
X0318430Y0138775D01*
X0319234Y0138177D02*
X0170551Y0138177D01*
X0169952Y0137578D02*
X0320270Y0137578D01*
X0321307Y0136980D02*
X0169354Y0136980D01*
X0168755Y0136381D02*
X0323257Y0136381D01*
X0329343Y0136381D02*
X0373257Y0136381D01*
X0371307Y0136980D02*
X0331293Y0136980D01*
X0332330Y0137578D02*
X0370270Y0137578D01*
X0369234Y0138177D02*
X0333366Y0138177D01*
X0334170Y0138775D02*
X0368430Y0138775D01*
X0367831Y0139374D02*
X0334769Y0139374D01*
X0335367Y0139972D02*
X0367233Y0139972D01*
X0366634Y0140571D02*
X0335966Y0140571D01*
X0336386Y0141170D02*
X0366214Y0141170D01*
X0365868Y0141768D02*
X0336732Y0141768D01*
X0337077Y0142367D02*
X0365523Y0142367D01*
X0365177Y0142965D02*
X0337423Y0142965D01*
X0337765Y0143564D02*
X0364835Y0143564D01*
X0364675Y0144162D02*
X0337925Y0144162D01*
X0338085Y0144761D02*
X0364514Y0144761D01*
X0364354Y0145359D02*
X0338246Y0145359D01*
X0338406Y0145958D02*
X0364194Y0145958D01*
X0364033Y0146556D02*
X0338567Y0146556D01*
X0338600Y0147155D02*
X0364000Y0147155D01*
X0364000Y0147753D02*
X0338600Y0147753D01*
X0338600Y0148352D02*
X0364000Y0148352D01*
X0364000Y0148950D02*
X0338600Y0148950D01*
X0338600Y0149549D02*
X0364000Y0149549D01*
X0364061Y0150147D02*
X0338539Y0150147D01*
X0338379Y0150746D02*
X0364221Y0150746D01*
X0364382Y0151344D02*
X0338218Y0151344D01*
X0338058Y0151943D02*
X0364542Y0151943D01*
X0364703Y0152541D02*
X0337897Y0152541D01*
X0337709Y0153140D02*
X0364891Y0153140D01*
X0365237Y0153738D02*
X0337363Y0153738D01*
X0337017Y0154337D02*
X0365583Y0154337D01*
X0365928Y0154935D02*
X0336672Y0154935D01*
X0336326Y0155534D02*
X0366274Y0155534D01*
X0366737Y0156132D02*
X0335863Y0156132D01*
X0335264Y0156731D02*
X0367336Y0156731D01*
X0367934Y0157329D02*
X0334666Y0157329D01*
X0334067Y0157928D02*
X0368533Y0157928D01*
X0369413Y0158526D02*
X0333187Y0158526D01*
X0332151Y0159125D02*
X0370449Y0159125D01*
X0371486Y0159723D02*
X0331114Y0159723D01*
X0328957Y0160322D02*
X0373643Y0160322D01*
X0378957Y0160322D02*
X0386921Y0160322D01*
X0386921Y0159723D02*
X0381114Y0159723D01*
X0382151Y0159125D02*
X0386921Y0159125D01*
X0386921Y0158526D02*
X0383187Y0158526D01*
X0384067Y0157928D02*
X0386921Y0157928D01*
X0386921Y0157329D02*
X0384666Y0157329D01*
X0385264Y0156731D02*
X0386921Y0156731D01*
X0386921Y0156132D02*
X0385863Y0156132D01*
X0386326Y0155534D02*
X0386921Y0155534D01*
X0386921Y0154935D02*
X0386672Y0154935D01*
X0386732Y0141768D02*
X0386921Y0141768D01*
X0386921Y0141170D02*
X0386386Y0141170D01*
X0385966Y0140571D02*
X0386921Y0140571D01*
X0386921Y0139972D02*
X0385367Y0139972D01*
X0384769Y0139374D02*
X0386921Y0139374D01*
X0386921Y0138775D02*
X0384170Y0138775D01*
X0383366Y0138177D02*
X0386921Y0138177D01*
X0386921Y0137578D02*
X0382330Y0137578D01*
X0381293Y0136980D02*
X0386921Y0136980D01*
X0386921Y0136381D02*
X0379343Y0136381D01*
X0386921Y0135783D02*
X0168157Y0135783D01*
X0167558Y0135184D02*
X0386921Y0135184D01*
X0386921Y0134586D02*
X0166960Y0134586D01*
X0166361Y0133987D02*
X0386921Y0133987D01*
X0386921Y0133389D02*
X0166100Y0133389D01*
X0166100Y0132790D02*
X0386921Y0132790D01*
X0386921Y0132192D02*
X0166100Y0132192D01*
X0166100Y0131593D02*
X0386921Y0131593D01*
X0386921Y0130995D02*
X0166100Y0130995D01*
X0166100Y0130396D02*
X0386921Y0130396D01*
X0386921Y0129798D02*
X0166100Y0129798D01*
X0166100Y0129199D02*
X0386921Y0129199D01*
X0386921Y0128601D02*
X0166100Y0128601D01*
X0166100Y0128002D02*
X0386921Y0128002D01*
X0386921Y0127404D02*
X0166100Y0127404D01*
X0166100Y0126805D02*
X0386921Y0126805D01*
X0386921Y0126207D02*
X0358860Y0126207D01*
X0358836Y0126248D02*
X0358594Y0126490D01*
X0358298Y0126661D01*
X0357967Y0126750D01*
X0355537Y0126750D01*
X0355537Y0122600D01*
X0354937Y0122600D01*
X0354937Y0126750D01*
X0352507Y0126750D01*
X0352176Y0126661D01*
X0351880Y0126490D01*
X0351638Y0126248D01*
X0351467Y0125951D01*
X0351378Y0125621D01*
X0351378Y0122600D01*
X0354937Y0122600D01*
X0354937Y0122000D01*
X0351378Y0122000D01*
X0351378Y0118979D01*
X0351467Y0118649D01*
X0351638Y0118352D01*
X0351880Y0118110D01*
X0352176Y0117939D01*
X0352507Y0117850D01*
X0354937Y0117850D01*
X0354937Y0122000D01*
X0355537Y0122000D01*
X0355537Y0122600D01*
X0359096Y0122600D01*
X0359096Y0125621D01*
X0359007Y0125951D01*
X0358836Y0126248D01*
X0359096Y0125608D02*
X0386921Y0125608D01*
X0386921Y0125010D02*
X0359096Y0125010D01*
X0359096Y0124411D02*
X0386921Y0124411D01*
X0386921Y0123813D02*
X0359096Y0123813D01*
X0359096Y0123214D02*
X0386921Y0123214D01*
X0386921Y0122616D02*
X0359096Y0122616D01*
X0359096Y0122000D02*
X0355537Y0122000D01*
X0355537Y0117850D01*
X0357967Y0117850D01*
X0358298Y0117939D01*
X0358594Y0118110D01*
X0358836Y0118352D01*
X0359007Y0118649D01*
X0359096Y0118979D01*
X0359096Y0122000D01*
X0359096Y0121419D02*
X0386921Y0121419D01*
X0386921Y0122017D02*
X0355537Y0122017D01*
X0355537Y0121419D02*
X0354937Y0121419D01*
X0354937Y0122017D02*
X0351222Y0122017D01*
X0351222Y0121419D02*
X0351378Y0121419D01*
X0351378Y0120820D02*
X0351222Y0120820D01*
X0351222Y0120222D02*
X0351378Y0120222D01*
X0351378Y0119623D02*
X0351222Y0119623D01*
X0351222Y0119025D02*
X0351378Y0119025D01*
X0351163Y0118426D02*
X0351595Y0118426D01*
X0351163Y0117828D02*
X0386921Y0117828D01*
X0386921Y0118426D02*
X0358879Y0118426D01*
X0359096Y0119025D02*
X0386921Y0119025D01*
X0386921Y0119623D02*
X0359096Y0119623D01*
X0359096Y0120222D02*
X0386921Y0120222D01*
X0386921Y0120820D02*
X0359096Y0120820D01*
X0355537Y0120820D02*
X0354937Y0120820D01*
X0354937Y0120222D02*
X0355537Y0120222D01*
X0355537Y0119623D02*
X0354937Y0119623D01*
X0354937Y0119025D02*
X0355537Y0119025D01*
X0355537Y0118426D02*
X0354937Y0118426D01*
X0351163Y0117229D02*
X0386921Y0117229D01*
X0386921Y0116631D02*
X0351163Y0116631D01*
X0351163Y0116032D02*
X0386921Y0116032D01*
X0386921Y0115434D02*
X0351163Y0115434D01*
X0351163Y0114835D02*
X0386921Y0114835D01*
X0386921Y0114237D02*
X0351163Y0114237D01*
X0351163Y0113638D02*
X0386921Y0113638D01*
X0386921Y0113039D02*
X0350954Y0113039D01*
X0350706Y0112441D02*
X0386921Y0112441D01*
X0386921Y0111842D02*
X0350279Y0111842D01*
X0349982Y0111244D02*
X0386921Y0111244D01*
X0386921Y0110645D02*
X0350124Y0110645D01*
X0350238Y0110047D02*
X0386921Y0110047D01*
X0386921Y0109448D02*
X0350238Y0109448D01*
X0350238Y0108850D02*
X0386921Y0108850D01*
X0386921Y0108251D02*
X0350238Y0108251D01*
X0350238Y0107653D02*
X0353027Y0107653D01*
X0352767Y0107054D02*
X0350238Y0107054D01*
X0350238Y0106456D02*
X0352756Y0106456D01*
X0352756Y0105857D02*
X0350238Y0105857D01*
X0350238Y0105259D02*
X0352756Y0105259D01*
X0352756Y0104660D02*
X0350168Y0104660D01*
X0349570Y0104062D02*
X0352756Y0104062D01*
X0356118Y0104660D02*
X0356718Y0104660D01*
X0356718Y0105259D02*
X0356118Y0105259D01*
X0356118Y0105857D02*
X0356718Y0105857D01*
X0356718Y0106456D02*
X0356118Y0106456D01*
X0356118Y0107054D02*
X0356718Y0107054D01*
X0356718Y0107653D02*
X0356118Y0107653D01*
X0359809Y0107653D02*
X0386921Y0107653D01*
X0386921Y0107054D02*
X0360070Y0107054D01*
X0360080Y0106456D02*
X0386921Y0106456D01*
X0386921Y0105857D02*
X0360080Y0105857D01*
X0360080Y0105259D02*
X0386921Y0105259D01*
X0386921Y0104660D02*
X0360080Y0104660D01*
X0360080Y0104062D02*
X0386921Y0104062D01*
X0386921Y0097478D02*
X0350238Y0097478D01*
X0350238Y0096880D02*
X0386921Y0096880D01*
X0386921Y0096281D02*
X0350238Y0096281D01*
X0349852Y0095683D02*
X0386921Y0095683D01*
X0386921Y0095084D02*
X0185198Y0095084D01*
X0184600Y0094486D02*
X0386921Y0094486D01*
X0386921Y0093887D02*
X0184001Y0093887D01*
X0183403Y0093289D02*
X0386921Y0093289D01*
X0386921Y0092690D02*
X0182804Y0092690D01*
X0182206Y0092092D02*
X0386921Y0092092D01*
X0386921Y0091493D02*
X0181607Y0091493D01*
X0181009Y0090895D02*
X0386921Y0090895D01*
X0386921Y0090296D02*
X0180410Y0090296D01*
X0179812Y0089698D02*
X0386921Y0089698D01*
X0386921Y0089099D02*
X0179213Y0089099D01*
X0178615Y0088501D02*
X0386921Y0088501D01*
X0386921Y0087902D02*
X0178016Y0087902D01*
X0177418Y0087303D02*
X0386921Y0087303D01*
X0386921Y0086705D02*
X0176819Y0086705D01*
X0176221Y0086106D02*
X0386921Y0086106D01*
X0386921Y0085508D02*
X0175622Y0085508D01*
X0175024Y0084909D02*
X0386921Y0084909D01*
X0386921Y0084311D02*
X0174425Y0084311D01*
X0173827Y0083712D02*
X0386921Y0083712D01*
X0386921Y0083114D02*
X0173228Y0083114D01*
X0172630Y0082515D02*
X0386921Y0082515D01*
X0386921Y0081917D02*
X0172031Y0081917D01*
X0171899Y0081318D02*
X0386921Y0081318D01*
X0386921Y0080720D02*
X0171899Y0080720D01*
X0171899Y0080121D02*
X0386921Y0080121D01*
X0386921Y0079523D02*
X0171840Y0079523D01*
X0171840Y0078924D02*
X0386921Y0078924D01*
X0386921Y0078326D02*
X0171840Y0078326D01*
X0171840Y0077727D02*
X0386921Y0077727D01*
X0386921Y0077129D02*
X0171840Y0077129D01*
X0171840Y0076530D02*
X0177169Y0076530D01*
X0177147Y0076521D02*
X0176079Y0075453D01*
X0175500Y0074056D01*
X0175500Y0072544D01*
X0176079Y0071147D01*
X0207500Y0039726D01*
X0207500Y0029362D01*
X0207000Y0028155D01*
X0207000Y0020445D01*
X0207655Y0018864D01*
X0208864Y0017655D01*
X0210445Y0017000D01*
X0212155Y0017000D01*
X0213736Y0017655D01*
X0214945Y0018864D01*
X0215600Y0020445D01*
X0215600Y0028155D01*
X0215100Y0029362D01*
X0215100Y0042056D01*
X0214521Y0043453D01*
X0213453Y0044521D01*
X0181453Y0076521D01*
X0180056Y0077100D01*
X0178544Y0077100D01*
X0177147Y0076521D01*
X0176558Y0075932D02*
X0171840Y0075932D01*
X0171840Y0075333D02*
X0176029Y0075333D01*
X0175781Y0074735D02*
X0171840Y0074735D01*
X0171840Y0074136D02*
X0175533Y0074136D01*
X0175500Y0073538D02*
X0171840Y0073538D01*
X0171840Y0072939D02*
X0175500Y0072939D01*
X0175584Y0072341D02*
X0171840Y0072341D01*
X0171840Y0071742D02*
X0175832Y0071742D01*
X0176082Y0071144D02*
X0171840Y0071144D01*
X0171840Y0070545D02*
X0176681Y0070545D01*
X0177279Y0069947D02*
X0171840Y0069947D01*
X0171840Y0069348D02*
X0177878Y0069348D01*
X0178476Y0068750D02*
X0171840Y0068750D01*
X0171840Y0068151D02*
X0179075Y0068151D01*
X0179673Y0067553D02*
X0171840Y0067553D01*
X0171840Y0066954D02*
X0180272Y0066954D01*
X0180870Y0066356D02*
X0171840Y0066356D01*
X0171840Y0065757D02*
X0181469Y0065757D01*
X0182067Y0065159D02*
X0171840Y0065159D01*
X0172414Y0064560D02*
X0182666Y0064560D01*
X0183264Y0063962D02*
X0173012Y0063962D01*
X0173611Y0063363D02*
X0183863Y0063363D01*
X0184461Y0062765D02*
X0174209Y0062765D01*
X0174808Y0062166D02*
X0185060Y0062166D01*
X0185658Y0061568D02*
X0175406Y0061568D01*
X0176005Y0060969D02*
X0186257Y0060969D01*
X0186855Y0060370D02*
X0176604Y0060370D01*
X0177202Y0059772D02*
X0187454Y0059772D01*
X0188053Y0059173D02*
X0177801Y0059173D01*
X0178399Y0058575D02*
X0188651Y0058575D01*
X0189250Y0057976D02*
X0178998Y0057976D01*
X0179596Y0057378D02*
X0189848Y0057378D01*
X0190447Y0056779D02*
X0180195Y0056779D01*
X0180793Y0056181D02*
X0191045Y0056181D01*
X0191644Y0055582D02*
X0181392Y0055582D01*
X0181990Y0054984D02*
X0192242Y0054984D01*
X0192841Y0054385D02*
X0182589Y0054385D01*
X0183187Y0053787D02*
X0193439Y0053787D01*
X0194038Y0053188D02*
X0183786Y0053188D01*
X0184384Y0052590D02*
X0194636Y0052590D01*
X0195235Y0051991D02*
X0184983Y0051991D01*
X0185581Y0051393D02*
X0195833Y0051393D01*
X0196432Y0050794D02*
X0186180Y0050794D01*
X0186778Y0050196D02*
X0197030Y0050196D01*
X0197629Y0049597D02*
X0187377Y0049597D01*
X0187975Y0048999D02*
X0198227Y0048999D01*
X0198826Y0048400D02*
X0188574Y0048400D01*
X0189172Y0047802D02*
X0199424Y0047802D01*
X0200023Y0047203D02*
X0189771Y0047203D01*
X0190369Y0046605D02*
X0200621Y0046605D01*
X0201220Y0046006D02*
X0190968Y0046006D01*
X0191566Y0045408D02*
X0201818Y0045408D01*
X0202417Y0044809D02*
X0192165Y0044809D01*
X0192763Y0044211D02*
X0203015Y0044211D01*
X0203614Y0043612D02*
X0193362Y0043612D01*
X0193960Y0043014D02*
X0204212Y0043014D01*
X0204811Y0042415D02*
X0194559Y0042415D01*
X0195157Y0041817D02*
X0205409Y0041817D01*
X0206008Y0041218D02*
X0195756Y0041218D01*
X0196354Y0040620D02*
X0206606Y0040620D01*
X0207205Y0040021D02*
X0196953Y0040021D01*
X0197551Y0039423D02*
X0207500Y0039423D01*
X0207500Y0038824D02*
X0198150Y0038824D01*
X0198748Y0038226D02*
X0207500Y0038226D01*
X0207500Y0037627D02*
X0199347Y0037627D01*
X0199945Y0037029D02*
X0207500Y0037029D01*
X0207500Y0036430D02*
X0200544Y0036430D01*
X0201142Y0035832D02*
X0207500Y0035832D01*
X0207500Y0035233D02*
X0201741Y0035233D01*
X0202339Y0034634D02*
X0207500Y0034634D01*
X0207500Y0034036D02*
X0202938Y0034036D01*
X0203537Y0033437D02*
X0207500Y0033437D01*
X0207500Y0032839D02*
X0204135Y0032839D01*
X0204609Y0032240D02*
X0207500Y0032240D01*
X0207500Y0031642D02*
X0204857Y0031642D01*
X0205100Y0031043D02*
X0207500Y0031043D01*
X0207500Y0030445D02*
X0205100Y0030445D01*
X0205100Y0029846D02*
X0207500Y0029846D01*
X0207453Y0029248D02*
X0205147Y0029248D01*
X0205395Y0028649D02*
X0207205Y0028649D01*
X0207000Y0028051D02*
X0205600Y0028051D01*
X0205600Y0027452D02*
X0207000Y0027452D01*
X0207000Y0026854D02*
X0205600Y0026854D01*
X0205600Y0026255D02*
X0207000Y0026255D01*
X0207000Y0025657D02*
X0205600Y0025657D01*
X0205600Y0025058D02*
X0207000Y0025058D01*
X0207000Y0024460D02*
X0205600Y0024460D01*
X0205600Y0023861D02*
X0207000Y0023861D01*
X0207000Y0023263D02*
X0205600Y0023263D01*
X0205600Y0022664D02*
X0207000Y0022664D01*
X0207000Y0022066D02*
X0205600Y0022066D01*
X0205600Y0021467D02*
X0207000Y0021467D01*
X0207000Y0020869D02*
X0205600Y0020869D01*
X0205528Y0020270D02*
X0207072Y0020270D01*
X0207320Y0019672D02*
X0205280Y0019672D01*
X0205032Y0019073D02*
X0207568Y0019073D01*
X0208044Y0018475D02*
X0204556Y0018475D01*
X0203957Y0017876D02*
X0208643Y0017876D01*
X0209774Y0017278D02*
X0202826Y0017278D01*
X0199774Y0017278D02*
X0192836Y0017278D01*
X0192951Y0017315D02*
X0193554Y0017622D01*
X0194101Y0018020D01*
X0194580Y0018499D01*
X0194978Y0019046D01*
X0195285Y0019649D01*
X0195494Y0020293D01*
X0195600Y0020962D01*
X0195600Y0024000D01*
X0191600Y0024000D01*
X0191600Y0024600D01*
X0191000Y0024600D01*
X0191000Y0031600D01*
X0190962Y0031600D01*
X0190293Y0031494D01*
X0189649Y0031285D01*
X0189046Y0030978D01*
X0188499Y0030580D01*
X0188020Y0030101D01*
X0187622Y0029554D01*
X0187315Y0028951D01*
X0187106Y0028307D01*
X0187000Y0027638D01*
X0187000Y0024600D01*
X0191000Y0024600D01*
X0191000Y0024000D01*
X0187000Y0024000D01*
X0187000Y0020962D01*
X0187106Y0020293D01*
X0187315Y0019649D01*
X0187622Y0019046D01*
X0188020Y0018499D01*
X0188499Y0018020D01*
X0189046Y0017622D01*
X0189649Y0017315D01*
X0190293Y0017106D01*
X0190962Y0017000D01*
X0191000Y0017000D01*
X0191000Y0024000D01*
X0191600Y0024000D01*
X0191600Y0017000D01*
X0191638Y0017000D01*
X0192307Y0017106D01*
X0192951Y0017315D01*
X0193903Y0017876D02*
X0198643Y0017876D01*
X0198044Y0018475D02*
X0194556Y0018475D01*
X0194991Y0019073D02*
X0197568Y0019073D01*
X0197320Y0019672D02*
X0195292Y0019672D01*
X0195487Y0020270D02*
X0197072Y0020270D01*
X0197000Y0020869D02*
X0195585Y0020869D01*
X0195600Y0021467D02*
X0197000Y0021467D01*
X0197000Y0022066D02*
X0195600Y0022066D01*
X0195600Y0022664D02*
X0197000Y0022664D01*
X0197000Y0023263D02*
X0195600Y0023263D01*
X0195600Y0023861D02*
X0197000Y0023861D01*
X0197000Y0024460D02*
X0191600Y0024460D01*
X0191600Y0024600D02*
X0195600Y0024600D01*
X0195600Y0027638D01*
X0195494Y0028307D01*
X0195285Y0028951D01*
X0194978Y0029554D01*
X0194580Y0030101D01*
X0194101Y0030580D01*
X0193554Y0030978D01*
X0192951Y0031285D01*
X0192307Y0031494D01*
X0191638Y0031600D01*
X0191600Y0031600D01*
X0191600Y0024600D01*
X0191600Y0025058D02*
X0191000Y0025058D01*
X0191000Y0024460D02*
X0185600Y0024460D01*
X0185600Y0025058D02*
X0187000Y0025058D01*
X0187000Y0025657D02*
X0185600Y0025657D01*
X0185600Y0026255D02*
X0187000Y0026255D01*
X0187000Y0026854D02*
X0185600Y0026854D01*
X0185600Y0027452D02*
X0187000Y0027452D01*
X0187065Y0028051D02*
X0185600Y0028051D01*
X0185395Y0028649D02*
X0187217Y0028649D01*
X0187467Y0029248D02*
X0185147Y0029248D01*
X0184835Y0029846D02*
X0187835Y0029846D01*
X0188364Y0030445D02*
X0184236Y0030445D01*
X0183499Y0031043D02*
X0189175Y0031043D01*
X0191000Y0031043D02*
X0191600Y0031043D01*
X0191600Y0030445D02*
X0191000Y0030445D01*
X0191000Y0029846D02*
X0191600Y0029846D01*
X0191600Y0029248D02*
X0191000Y0029248D01*
X0191000Y0028649D02*
X0191600Y0028649D01*
X0191600Y0028051D02*
X0191000Y0028051D01*
X0191000Y0027452D02*
X0191600Y0027452D01*
X0191600Y0026854D02*
X0191000Y0026854D01*
X0191000Y0026255D02*
X0191600Y0026255D01*
X0191600Y0025657D02*
X0191000Y0025657D01*
X0191000Y0023861D02*
X0191600Y0023861D01*
X0191600Y0023263D02*
X0191000Y0023263D01*
X0191000Y0022664D02*
X0191600Y0022664D01*
X0191600Y0022066D02*
X0191000Y0022066D01*
X0191000Y0021467D02*
X0191600Y0021467D01*
X0191600Y0020869D02*
X0191000Y0020869D01*
X0191000Y0020270D02*
X0191600Y0020270D01*
X0191600Y0019672D02*
X0191000Y0019672D01*
X0191000Y0019073D02*
X0191600Y0019073D01*
X0191600Y0018475D02*
X0191000Y0018475D01*
X0191000Y0017876D02*
X0191600Y0017876D01*
X0191600Y0017278D02*
X0191000Y0017278D01*
X0189764Y0017278D02*
X0182826Y0017278D01*
X0183957Y0017876D02*
X0188697Y0017876D01*
X0188044Y0018475D02*
X0184556Y0018475D01*
X0185032Y0019073D02*
X0187609Y0019073D01*
X0187308Y0019672D02*
X0185280Y0019672D01*
X0185528Y0020270D02*
X0187113Y0020270D01*
X0187015Y0020869D02*
X0185600Y0020869D01*
X0185600Y0021467D02*
X0187000Y0021467D01*
X0187000Y0022066D02*
X0185600Y0022066D01*
X0185600Y0022664D02*
X0187000Y0022664D01*
X0187000Y0023263D02*
X0185600Y0023263D01*
X0185600Y0023861D02*
X0187000Y0023861D01*
X0195600Y0025058D02*
X0197000Y0025058D01*
X0197000Y0025657D02*
X0195600Y0025657D01*
X0195600Y0026255D02*
X0197000Y0026255D01*
X0197000Y0026854D02*
X0195600Y0026854D01*
X0195600Y0027452D02*
X0197000Y0027452D01*
X0197000Y0028051D02*
X0195535Y0028051D01*
X0195383Y0028649D02*
X0197205Y0028649D01*
X0196978Y0029248D02*
X0195133Y0029248D01*
X0194765Y0029846D02*
X0196380Y0029846D01*
X0195781Y0030445D02*
X0194236Y0030445D01*
X0193425Y0031043D02*
X0195183Y0031043D01*
X0194584Y0031642D02*
X0179332Y0031642D01*
X0178734Y0032240D02*
X0193986Y0032240D01*
X0193387Y0032839D02*
X0178135Y0032839D01*
X0177537Y0033437D02*
X0192789Y0033437D01*
X0192190Y0034036D02*
X0176938Y0034036D01*
X0176339Y0034634D02*
X0191591Y0034634D01*
X0190993Y0035233D02*
X0175741Y0035233D01*
X0175142Y0035832D02*
X0190394Y0035832D01*
X0189796Y0036430D02*
X0174544Y0036430D01*
X0173945Y0037029D02*
X0189197Y0037029D01*
X0188599Y0037627D02*
X0173347Y0037627D01*
X0172748Y0038226D02*
X0188000Y0038226D01*
X0187402Y0038824D02*
X0172150Y0038824D01*
X0171551Y0039423D02*
X0186803Y0039423D01*
X0186205Y0040021D02*
X0170953Y0040021D01*
X0170354Y0040620D02*
X0185606Y0040620D01*
X0185008Y0041218D02*
X0169756Y0041218D01*
X0169157Y0041817D02*
X0184409Y0041817D01*
X0183811Y0042415D02*
X0168559Y0042415D01*
X0167960Y0043014D02*
X0183212Y0043014D01*
X0182614Y0043612D02*
X0167362Y0043612D01*
X0166763Y0044211D02*
X0182015Y0044211D01*
X0181417Y0044809D02*
X0166165Y0044809D01*
X0165566Y0045408D02*
X0180818Y0045408D01*
X0180220Y0046006D02*
X0164968Y0046006D01*
X0164369Y0046605D02*
X0179621Y0046605D01*
X0179023Y0047203D02*
X0163771Y0047203D01*
X0163172Y0047802D02*
X0178424Y0047802D01*
X0177826Y0048400D02*
X0162574Y0048400D01*
X0161975Y0048999D02*
X0177227Y0048999D01*
X0176629Y0049597D02*
X0161377Y0049597D01*
X0160778Y0050196D02*
X0176030Y0050196D01*
X0175432Y0050794D02*
X0160180Y0050794D01*
X0159581Y0051393D02*
X0174833Y0051393D01*
X0174235Y0051991D02*
X0158983Y0051991D01*
X0158384Y0052590D02*
X0173636Y0052590D01*
X0173038Y0053188D02*
X0157786Y0053188D01*
X0157187Y0053787D02*
X0172439Y0053787D01*
X0171841Y0054385D02*
X0156589Y0054385D01*
X0155990Y0054984D02*
X0171242Y0054984D01*
X0170644Y0055582D02*
X0155392Y0055582D01*
X0154793Y0056181D02*
X0170045Y0056181D01*
X0169447Y0056779D02*
X0154195Y0056779D01*
X0153596Y0057378D02*
X0168848Y0057378D01*
X0168250Y0057976D02*
X0152998Y0057976D01*
X0152399Y0058575D02*
X0167651Y0058575D01*
X0167053Y0059173D02*
X0152100Y0059173D01*
X0152100Y0059772D02*
X0166454Y0059772D01*
X0165855Y0060370D02*
X0152100Y0060370D01*
X0152100Y0060969D02*
X0165257Y0060969D01*
X0164752Y0061568D02*
X0152100Y0061568D01*
X0152100Y0062166D02*
X0164504Y0062166D01*
X0164256Y0062765D02*
X0152100Y0062765D01*
X0152100Y0063363D02*
X0164240Y0063363D01*
X0164240Y0063962D02*
X0152100Y0063962D01*
X0152100Y0064560D02*
X0164240Y0064560D01*
X0164240Y0065159D02*
X0152100Y0065159D01*
X0152100Y0065757D02*
X0164240Y0065757D01*
X0164240Y0066356D02*
X0152100Y0066356D01*
X0152100Y0066954D02*
X0164240Y0066954D01*
X0164240Y0067553D02*
X0152100Y0067553D01*
X0152100Y0068151D02*
X0164240Y0068151D01*
X0164240Y0068750D02*
X0152100Y0068750D01*
X0152100Y0069348D02*
X0164240Y0069348D01*
X0164240Y0069947D02*
X0152100Y0069947D01*
X0151897Y0070545D02*
X0164240Y0070545D01*
X0164240Y0071144D02*
X0151649Y0071144D01*
X0151232Y0071742D02*
X0164240Y0071742D01*
X0164240Y0072341D02*
X0150633Y0072341D01*
X0150035Y0072939D02*
X0164240Y0072939D01*
X0164240Y0073538D02*
X0149436Y0073538D01*
X0148838Y0074136D02*
X0164240Y0074136D01*
X0164240Y0074735D02*
X0148239Y0074735D01*
X0147641Y0075333D02*
X0164240Y0075333D01*
X0164240Y0075932D02*
X0147042Y0075932D01*
X0146444Y0076530D02*
X0164240Y0076530D01*
X0164240Y0077129D02*
X0145845Y0077129D01*
X0145247Y0077727D02*
X0164240Y0077727D01*
X0164240Y0078326D02*
X0144648Y0078326D01*
X0144050Y0078924D02*
X0164240Y0078924D01*
X0164240Y0079523D02*
X0164133Y0079523D01*
X0160860Y0079523D02*
X0160260Y0079523D01*
X0160260Y0079047D02*
X0160260Y0083000D01*
X0156701Y0083000D01*
X0156701Y0080176D01*
X0156789Y0079845D01*
X0156961Y0079549D01*
X0157203Y0079307D01*
X0157499Y0079136D01*
X0157830Y0079047D01*
X0160260Y0079047D01*
X0160260Y0080121D02*
X0160860Y0080121D01*
X0160860Y0080720D02*
X0160260Y0080720D01*
X0160260Y0081318D02*
X0160860Y0081318D01*
X0160860Y0081917D02*
X0160260Y0081917D01*
X0160260Y0082515D02*
X0160860Y0082515D01*
X0160260Y0083114D02*
X0139860Y0083114D01*
X0139262Y0083712D02*
X0156701Y0083712D01*
X0156701Y0084311D02*
X0138663Y0084311D01*
X0138065Y0084909D02*
X0156701Y0084909D01*
X0156701Y0085508D02*
X0137466Y0085508D01*
X0136868Y0086106D02*
X0156701Y0086106D01*
X0156776Y0086705D02*
X0136269Y0086705D01*
X0135670Y0087303D02*
X0157221Y0087303D01*
X0160260Y0087303D02*
X0160860Y0087303D01*
X0160860Y0086705D02*
X0160260Y0086705D01*
X0160260Y0086106D02*
X0160860Y0086106D01*
X0160860Y0085508D02*
X0160260Y0085508D01*
X0160260Y0084909D02*
X0160860Y0084909D01*
X0160860Y0084311D02*
X0160260Y0084311D01*
X0160260Y0083712D02*
X0160860Y0083712D01*
X0156701Y0082515D02*
X0140459Y0082515D01*
X0141057Y0081917D02*
X0156701Y0081917D01*
X0156701Y0081318D02*
X0141656Y0081318D01*
X0142254Y0080720D02*
X0156701Y0080720D01*
X0156715Y0080121D02*
X0142853Y0080121D01*
X0143451Y0079523D02*
X0156987Y0079523D01*
X0163899Y0087303D02*
X0164693Y0087303D01*
X0167268Y0087902D02*
X0135072Y0087902D01*
X0134473Y0088501D02*
X0167867Y0088501D01*
X0168465Y0089099D02*
X0133875Y0089099D01*
X0133276Y0089698D02*
X0169064Y0089698D01*
X0169662Y0090296D02*
X0132678Y0090296D01*
X0132079Y0090895D02*
X0170261Y0090895D01*
X0170859Y0091493D02*
X0131481Y0091493D01*
X0130076Y0092092D02*
X0171458Y0092092D01*
X0172056Y0092690D02*
X0120300Y0092690D01*
X0120300Y0093289D02*
X0172655Y0093289D01*
X0173253Y0093887D02*
X0120300Y0093887D01*
X0120300Y0094486D02*
X0142315Y0094486D01*
X0142046Y0094622D02*
X0142649Y0094315D01*
X0143293Y0094106D01*
X0143962Y0094000D01*
X0147000Y0094000D01*
X0147000Y0098000D01*
X0140000Y0098000D01*
X0140000Y0097962D01*
X0140106Y0097293D01*
X0140315Y0096649D01*
X0140622Y0096046D01*
X0141020Y0095499D01*
X0141499Y0095020D01*
X0142046Y0094622D01*
X0141435Y0095084D02*
X0120300Y0095084D01*
X0120300Y0095683D02*
X0140887Y0095683D01*
X0140503Y0096281D02*
X0120300Y0096281D01*
X0120300Y0096880D02*
X0140240Y0096880D01*
X0140077Y0097478D02*
X0120300Y0097478D01*
X0104300Y0097478D02*
X0083300Y0097478D01*
X0083300Y0096880D02*
X0104300Y0096880D01*
X0104300Y0096281D02*
X0083300Y0096281D01*
X0083300Y0095683D02*
X0104300Y0095683D01*
X0104300Y0095084D02*
X0083300Y0095084D01*
X0083300Y0094486D02*
X0104300Y0094486D01*
X0104300Y0093887D02*
X0083300Y0093887D01*
X0083300Y0093289D02*
X0104300Y0093289D01*
X0104300Y0092690D02*
X0083300Y0092690D01*
X0083300Y0092092D02*
X0104300Y0092092D01*
X0104300Y0091493D02*
X0083300Y0091493D01*
X0083300Y0090895D02*
X0104300Y0090895D01*
X0104300Y0090296D02*
X0083300Y0090296D01*
X0083300Y0089698D02*
X0104300Y0089698D01*
X0104300Y0089099D02*
X0083300Y0089099D01*
X0083300Y0088501D02*
X0104300Y0088501D01*
X0104300Y0087902D02*
X0083300Y0087902D01*
X0083300Y0087303D02*
X0104300Y0087303D01*
X0104300Y0086705D02*
X0083300Y0086705D01*
X0083300Y0086106D02*
X0104300Y0086106D01*
X0104300Y0085508D02*
X0083300Y0085508D01*
X0083300Y0084909D02*
X0104300Y0084909D01*
X0104300Y0084311D02*
X0083300Y0084311D01*
X0083300Y0083712D02*
X0104300Y0083712D01*
X0104300Y0083114D02*
X0083300Y0083114D01*
X0083300Y0082515D02*
X0104300Y0082515D01*
X0104300Y0081917D02*
X0083300Y0081917D01*
X0083300Y0081318D02*
X0104300Y0081318D01*
X0104300Y0081300D02*
X0113300Y0072300D01*
X0113300Y0012600D01*
X0083300Y0012600D01*
X0083300Y0193701D01*
X0113300Y0193701D01*
X0113300Y0134300D01*
X0104300Y0125300D01*
X0104300Y0081300D01*
X0104880Y0080720D02*
X0083300Y0080720D01*
X0083300Y0080121D02*
X0105479Y0080121D01*
X0106077Y0079523D02*
X0083300Y0079523D01*
X0083300Y0078924D02*
X0106676Y0078924D01*
X0107274Y0078326D02*
X0083300Y0078326D01*
X0083300Y0077727D02*
X0107873Y0077727D01*
X0108471Y0077129D02*
X0083300Y0077129D01*
X0083300Y0076530D02*
X0109070Y0076530D01*
X0109668Y0075932D02*
X0083300Y0075932D01*
X0083300Y0075333D02*
X0110267Y0075333D01*
X0110865Y0074735D02*
X0083300Y0074735D01*
X0083300Y0074136D02*
X0111464Y0074136D01*
X0112062Y0073538D02*
X0083300Y0073538D01*
X0083300Y0072939D02*
X0112661Y0072939D01*
X0113259Y0072341D02*
X0083300Y0072341D01*
X0083300Y0071742D02*
X0113300Y0071742D01*
X0113300Y0071144D02*
X0083300Y0071144D01*
X0083300Y0070545D02*
X0113300Y0070545D01*
X0113300Y0069947D02*
X0083300Y0069947D01*
X0083300Y0069348D02*
X0113300Y0069348D01*
X0113300Y0068750D02*
X0083300Y0068750D01*
X0083300Y0068151D02*
X0094636Y0068151D01*
X0094685Y0068200D02*
X0092400Y0065915D01*
X0092400Y0064600D01*
X0096000Y0064600D01*
X0096000Y0068200D01*
X0094685Y0068200D01*
X0094037Y0067553D02*
X0083300Y0067553D01*
X0083300Y0066954D02*
X0093439Y0066954D01*
X0092840Y0066356D02*
X0083300Y0066356D01*
X0083300Y0065757D02*
X0092400Y0065757D01*
X0092400Y0065159D02*
X0083300Y0065159D01*
X0083300Y0064560D02*
X0096000Y0064560D01*
X0096000Y0064600D02*
X0096000Y0064000D01*
X0096600Y0064000D01*
X0096600Y0064600D01*
X0100200Y0064600D01*
X0100200Y0065915D01*
X0097915Y0068200D01*
X0096600Y0068200D01*
X0096600Y0064600D01*
X0096000Y0064600D01*
X0096000Y0065159D02*
X0096600Y0065159D01*
X0096600Y0065757D02*
X0096000Y0065757D01*
X0096000Y0066356D02*
X0096600Y0066356D01*
X0096600Y0066954D02*
X0096000Y0066954D01*
X0096000Y0067553D02*
X0096600Y0067553D01*
X0096600Y0068151D02*
X0096000Y0068151D01*
X0097964Y0068151D02*
X0113300Y0068151D01*
X0113300Y0067553D02*
X0098563Y0067553D01*
X0099161Y0066954D02*
X0113300Y0066954D01*
X0113300Y0066356D02*
X0099760Y0066356D01*
X0100200Y0065757D02*
X0113300Y0065757D01*
X0113300Y0065159D02*
X0100200Y0065159D01*
X0100200Y0064000D02*
X0096600Y0064000D01*
X0096600Y0060400D01*
X0097915Y0060400D01*
X0100200Y0062685D01*
X0100200Y0064000D01*
X0100200Y0063962D02*
X0113300Y0063962D01*
X0113300Y0064560D02*
X0096600Y0064560D01*
X0096600Y0063962D02*
X0096000Y0063962D01*
X0096000Y0064000D02*
X0096000Y0060400D01*
X0094685Y0060400D01*
X0092400Y0062685D01*
X0092400Y0064000D01*
X0096000Y0064000D01*
X0096000Y0063363D02*
X0096600Y0063363D01*
X0096600Y0062765D02*
X0096000Y0062765D01*
X0096000Y0062166D02*
X0096600Y0062166D01*
X0096600Y0061568D02*
X0096000Y0061568D01*
X0096000Y0060969D02*
X0096600Y0060969D01*
X0098484Y0060969D02*
X0113300Y0060969D01*
X0113300Y0061568D02*
X0099083Y0061568D01*
X0099681Y0062166D02*
X0113300Y0062166D01*
X0113300Y0062765D02*
X0100200Y0062765D01*
X0100200Y0063363D02*
X0113300Y0063363D01*
X0113300Y0060370D02*
X0083300Y0060370D01*
X0083300Y0059772D02*
X0113300Y0059772D01*
X0113300Y0059173D02*
X0083300Y0059173D01*
X0083300Y0058575D02*
X0113300Y0058575D01*
X0113300Y0057976D02*
X0083300Y0057976D01*
X0083300Y0057378D02*
X0113300Y0057378D01*
X0113300Y0056779D02*
X0083300Y0056779D01*
X0083300Y0056181D02*
X0113300Y0056181D01*
X0113300Y0055582D02*
X0083300Y0055582D01*
X0083300Y0054984D02*
X0113300Y0054984D01*
X0113300Y0054385D02*
X0083300Y0054385D01*
X0083300Y0053787D02*
X0113300Y0053787D01*
X0113300Y0053188D02*
X0083300Y0053188D01*
X0083300Y0052590D02*
X0113300Y0052590D01*
X0113300Y0051991D02*
X0083300Y0051991D01*
X0083300Y0051393D02*
X0113300Y0051393D01*
X0113300Y0050794D02*
X0083300Y0050794D01*
X0083300Y0050196D02*
X0113300Y0050196D01*
X0113300Y0049597D02*
X0083300Y0049597D01*
X0083300Y0048999D02*
X0113300Y0048999D01*
X0113300Y0048400D02*
X0083300Y0048400D01*
X0083300Y0047802D02*
X0113300Y0047802D01*
X0113300Y0047203D02*
X0083300Y0047203D01*
X0083300Y0046605D02*
X0113300Y0046605D01*
X0113300Y0046006D02*
X0083300Y0046006D01*
X0083300Y0045408D02*
X0113300Y0045408D01*
X0113300Y0044809D02*
X0083300Y0044809D01*
X0083300Y0044211D02*
X0113300Y0044211D01*
X0113300Y0043612D02*
X0083300Y0043612D01*
X0083300Y0043014D02*
X0113300Y0043014D01*
X0113300Y0042415D02*
X0083300Y0042415D01*
X0083300Y0041817D02*
X0113300Y0041817D01*
X0113300Y0041218D02*
X0083300Y0041218D01*
X0083300Y0040620D02*
X0113300Y0040620D01*
X0113300Y0040021D02*
X0083300Y0040021D01*
X0083300Y0039423D02*
X0113300Y0039423D01*
X0113300Y0038824D02*
X0101858Y0038824D01*
X0101873Y0038815D02*
X0101577Y0038986D01*
X0101246Y0039075D01*
X0096500Y0039075D01*
X0096500Y0033200D01*
X0102375Y0033200D01*
X0102375Y0037946D01*
X0102286Y0038277D01*
X0102115Y0038573D01*
X0101873Y0038815D01*
X0102300Y0038226D02*
X0113300Y0038226D01*
X0113300Y0037627D02*
X0102375Y0037627D01*
X0102375Y0037029D02*
X0113300Y0037029D01*
X0113300Y0036430D02*
X0102375Y0036430D01*
X0102375Y0035832D02*
X0113300Y0035832D01*
X0113300Y0035233D02*
X0102375Y0035233D01*
X0102375Y0034634D02*
X0113300Y0034634D01*
X0113300Y0034036D02*
X0102375Y0034036D01*
X0102375Y0033437D02*
X0113300Y0033437D01*
X0113300Y0032839D02*
X0096500Y0032839D01*
X0096500Y0032600D02*
X0096500Y0033200D01*
X0095900Y0033200D01*
X0095900Y0039075D01*
X0091154Y0039075D01*
X0090823Y0038986D01*
X0090527Y0038815D01*
X0090285Y0038573D01*
X0090114Y0038277D01*
X0090025Y0037946D01*
X0090025Y0033200D01*
X0095900Y0033200D01*
X0095900Y0032600D01*
X0096500Y0032600D01*
X0102375Y0032600D01*
X0102375Y0027854D01*
X0102286Y0027523D01*
X0102115Y0027227D01*
X0101873Y0026985D01*
X0101577Y0026814D01*
X0101246Y0026725D01*
X0096500Y0026725D01*
X0096500Y0032600D01*
X0096500Y0032240D02*
X0095900Y0032240D01*
X0095900Y0032600D02*
X0095900Y0026725D01*
X0091154Y0026725D01*
X0090823Y0026814D01*
X0090527Y0026985D01*
X0090285Y0027227D01*
X0090114Y0027523D01*
X0090025Y0027854D01*
X0090025Y0032600D01*
X0095900Y0032600D01*
X0095900Y0032839D02*
X0083300Y0032839D01*
X0083300Y0033437D02*
X0090025Y0033437D01*
X0090025Y0034036D02*
X0083300Y0034036D01*
X0083300Y0034634D02*
X0090025Y0034634D01*
X0090025Y0035233D02*
X0083300Y0035233D01*
X0083300Y0035832D02*
X0090025Y0035832D01*
X0090025Y0036430D02*
X0083300Y0036430D01*
X0083300Y0037029D02*
X0090025Y0037029D01*
X0090025Y0037627D02*
X0083300Y0037627D01*
X0083300Y0038226D02*
X0090100Y0038226D01*
X0090542Y0038824D02*
X0083300Y0038824D01*
X0080300Y0038824D02*
X0071958Y0038824D01*
X0071973Y0038815D02*
X0071677Y0038986D01*
X0071346Y0039075D01*
X0066600Y0039075D01*
X0066600Y0033200D01*
X0072475Y0033200D01*
X0072475Y0037946D01*
X0072386Y0038277D01*
X0072215Y0038573D01*
X0071973Y0038815D01*
X0072400Y0038226D02*
X0080300Y0038226D01*
X0080300Y0037627D02*
X0072475Y0037627D01*
X0072475Y0037029D02*
X0080300Y0037029D01*
X0080300Y0036430D02*
X0072475Y0036430D01*
X0072475Y0035832D02*
X0080300Y0035832D01*
X0080300Y0035233D02*
X0072475Y0035233D01*
X0072475Y0034634D02*
X0080300Y0034634D01*
X0080300Y0034036D02*
X0072475Y0034036D01*
X0072475Y0033437D02*
X0080300Y0033437D01*
X0080300Y0032839D02*
X0066600Y0032839D01*
X0066600Y0032600D02*
X0066600Y0033200D01*
X0066000Y0033200D01*
X0066000Y0039075D01*
X0061254Y0039075D01*
X0060923Y0038986D01*
X0060627Y0038815D01*
X0060385Y0038573D01*
X0060214Y0038277D01*
X0060125Y0037946D01*
X0060125Y0033200D01*
X0066000Y0033200D01*
X0066000Y0032600D01*
X0066600Y0032600D01*
X0072475Y0032600D01*
X0072475Y0027854D01*
X0072386Y0027523D01*
X0072215Y0027227D01*
X0071973Y0026985D01*
X0071677Y0026814D01*
X0071346Y0026725D01*
X0066600Y0026725D01*
X0066600Y0032600D01*
X0066600Y0032240D02*
X0066000Y0032240D01*
X0066000Y0032600D02*
X0066000Y0026725D01*
X0061254Y0026725D01*
X0060923Y0026814D01*
X0060627Y0026985D01*
X0060385Y0027227D01*
X0060214Y0027523D01*
X0060125Y0027854D01*
X0060125Y0032600D01*
X0066000Y0032600D01*
X0066000Y0032839D02*
X0038600Y0032839D01*
X0042300Y0032839D01*
X0042300Y0033437D02*
X0038600Y0033437D01*
X0060125Y0033437D01*
X0060125Y0034036D02*
X0038600Y0034036D01*
X0042300Y0034036D01*
X0042300Y0034634D02*
X0038600Y0034634D01*
X0060125Y0034634D01*
X0060125Y0035233D02*
X0038516Y0035233D01*
X0042300Y0035233D01*
X0042300Y0035832D02*
X0038356Y0035832D01*
X0060125Y0035832D01*
X0060125Y0036430D02*
X0038195Y0036430D01*
X0042300Y0036430D01*
X0042300Y0037029D02*
X0038035Y0037029D01*
X0060125Y0037029D01*
X0060125Y0037627D02*
X0037874Y0037627D01*
X0042300Y0037627D01*
X0042300Y0038226D02*
X0037659Y0038226D01*
X0060200Y0038226D01*
X0060642Y0038824D02*
X0037313Y0038824D01*
X0042300Y0038824D01*
X0042300Y0039423D02*
X0036968Y0039423D01*
X0080300Y0039423D01*
X0080300Y0040021D02*
X0036622Y0040021D01*
X0042300Y0040021D01*
X0042300Y0040620D02*
X0036277Y0040620D01*
X0080300Y0040620D01*
X0080300Y0041218D02*
X0035777Y0041218D01*
X0042300Y0041218D01*
X0042300Y0041817D02*
X0035178Y0041817D01*
X0079783Y0041817D01*
X0080300Y0041300D02*
X0042300Y0079300D01*
X0042300Y0128300D01*
X0005600Y0128300D01*
X0005600Y0012600D01*
X0042300Y0012600D01*
X0042300Y0128300D01*
X0022300Y0128300D01*
X0022300Y0044962D01*
X0024681Y0045600D01*
X0021552Y0044762D01*
X0018748Y0043142D01*
X0016458Y0040852D01*
X0014838Y0038048D01*
X0014000Y0034919D01*
X0014000Y0031681D01*
X0014838Y0028552D01*
X0016458Y0025748D01*
X0018748Y0023458D01*
X0021552Y0021838D01*
X0024681Y0021000D01*
X0027919Y0021000D01*
X0031048Y0021838D01*
X0033852Y0023458D01*
X0036142Y0025748D01*
X0037762Y0028552D01*
X0038600Y0031681D01*
X0038600Y0034919D01*
X0037762Y0038048D01*
X0036142Y0040852D01*
X0033852Y0043142D01*
X0031048Y0044762D01*
X0027919Y0045600D01*
X0024681Y0045600D01*
X0027919Y0045600D01*
X0031048Y0044762D01*
X0033852Y0043142D01*
X0036142Y0040852D01*
X0037762Y0038048D01*
X0038600Y0034919D01*
X0038600Y0031681D01*
X0037762Y0028552D01*
X0036142Y0025748D01*
X0033852Y0023458D01*
X0031048Y0021838D01*
X0027919Y0021000D01*
X0024681Y0021000D01*
X0022300Y0021638D01*
X0022300Y0012600D01*
X0080300Y0012600D01*
X0080300Y0041300D01*
X0079185Y0042415D02*
X0034580Y0042415D01*
X0042300Y0042415D01*
X0042300Y0043014D02*
X0033981Y0043014D01*
X0078586Y0043014D01*
X0077988Y0043612D02*
X0033039Y0043612D01*
X0042300Y0043612D01*
X0042300Y0044211D02*
X0032002Y0044211D01*
X0077389Y0044211D01*
X0076791Y0044809D02*
X0030871Y0044809D01*
X0042300Y0044809D01*
X0042300Y0045408D02*
X0028637Y0045408D01*
X0076192Y0045408D01*
X0075594Y0046006D02*
X0022300Y0046006D01*
X0022300Y0045408D02*
X0023963Y0045408D01*
X0005600Y0045408D01*
X0005600Y0046006D02*
X0042300Y0046006D01*
X0042300Y0046605D02*
X0005600Y0046605D01*
X0005600Y0047203D02*
X0042300Y0047203D01*
X0042300Y0047802D02*
X0005600Y0047802D01*
X0005600Y0048400D02*
X0042300Y0048400D01*
X0042300Y0048999D02*
X0005600Y0048999D01*
X0005600Y0049597D02*
X0042300Y0049597D01*
X0042300Y0050196D02*
X0005600Y0050196D01*
X0005600Y0050794D02*
X0042300Y0050794D01*
X0042300Y0051393D02*
X0005600Y0051393D01*
X0005600Y0051991D02*
X0042300Y0051991D01*
X0042300Y0052590D02*
X0005600Y0052590D01*
X0005600Y0053188D02*
X0042300Y0053188D01*
X0042300Y0053787D02*
X0005600Y0053787D01*
X0005600Y0054385D02*
X0042300Y0054385D01*
X0042300Y0054984D02*
X0005600Y0054984D01*
X0005600Y0055582D02*
X0042300Y0055582D01*
X0042300Y0056181D02*
X0005600Y0056181D01*
X0005600Y0056779D02*
X0042300Y0056779D01*
X0042300Y0057378D02*
X0005600Y0057378D01*
X0005600Y0057976D02*
X0042300Y0057976D01*
X0042300Y0058575D02*
X0005600Y0058575D01*
X0005600Y0059173D02*
X0042300Y0059173D01*
X0042300Y0059772D02*
X0005600Y0059772D01*
X0005600Y0060370D02*
X0042300Y0060370D01*
X0042300Y0060969D02*
X0005600Y0060969D01*
X0005600Y0061568D02*
X0042300Y0061568D01*
X0042300Y0062166D02*
X0005600Y0062166D01*
X0005600Y0062765D02*
X0042300Y0062765D01*
X0042300Y0063363D02*
X0005600Y0063363D01*
X0005600Y0063962D02*
X0042300Y0063962D01*
X0042300Y0064560D02*
X0005600Y0064560D01*
X0005600Y0065159D02*
X0042300Y0065159D01*
X0042300Y0065757D02*
X0005600Y0065757D01*
X0005600Y0066356D02*
X0042300Y0066356D01*
X0042300Y0066954D02*
X0005600Y0066954D01*
X0005600Y0067553D02*
X0042300Y0067553D01*
X0042300Y0068151D02*
X0005600Y0068151D01*
X0005600Y0068750D02*
X0042300Y0068750D01*
X0042300Y0069348D02*
X0005600Y0069348D01*
X0005600Y0069947D02*
X0042300Y0069947D01*
X0042300Y0070545D02*
X0005600Y0070545D01*
X0005600Y0071144D02*
X0042300Y0071144D01*
X0042300Y0071742D02*
X0005600Y0071742D01*
X0005600Y0072341D02*
X0042300Y0072341D01*
X0042300Y0072939D02*
X0005600Y0072939D01*
X0005600Y0073538D02*
X0042300Y0073538D01*
X0042300Y0074136D02*
X0005600Y0074136D01*
X0005600Y0074735D02*
X0042300Y0074735D01*
X0042300Y0075333D02*
X0005600Y0075333D01*
X0005600Y0075932D02*
X0042300Y0075932D01*
X0042300Y0076530D02*
X0005600Y0076530D01*
X0005600Y0077129D02*
X0042300Y0077129D01*
X0042300Y0077727D02*
X0005600Y0077727D01*
X0005600Y0078326D02*
X0042300Y0078326D01*
X0042300Y0078924D02*
X0005600Y0078924D01*
X0005600Y0079523D02*
X0009486Y0079523D01*
X0010266Y0079200D02*
X0012334Y0079200D01*
X0014246Y0079992D01*
X0015708Y0081454D01*
X0016500Y0083366D01*
X0016500Y0093234D01*
X0015708Y0095146D01*
X0014246Y0096608D01*
X0012334Y0097400D01*
X0010266Y0097400D01*
X0008354Y0096608D01*
X0006892Y0095146D01*
X0006100Y0093234D01*
X0006100Y0083366D01*
X0006892Y0081454D01*
X0008354Y0079992D01*
X0010266Y0079200D01*
X0008225Y0080121D02*
X0005600Y0080121D01*
X0005600Y0080720D02*
X0007626Y0080720D01*
X0007028Y0081318D02*
X0005600Y0081318D01*
X0005600Y0081917D02*
X0006700Y0081917D01*
X0006452Y0082515D02*
X0005600Y0082515D01*
X0005600Y0083114D02*
X0006204Y0083114D01*
X0006100Y0083712D02*
X0005600Y0083712D01*
X0005600Y0084311D02*
X0006100Y0084311D01*
X0006100Y0084909D02*
X0005600Y0084909D01*
X0005600Y0085508D02*
X0006100Y0085508D01*
X0006100Y0086106D02*
X0005600Y0086106D01*
X0005600Y0086705D02*
X0006100Y0086705D01*
X0006100Y0087303D02*
X0005600Y0087303D01*
X0005600Y0087902D02*
X0006100Y0087902D01*
X0006100Y0088501D02*
X0005600Y0088501D01*
X0005600Y0089099D02*
X0006100Y0089099D01*
X0006100Y0089698D02*
X0005600Y0089698D01*
X0005600Y0090296D02*
X0006100Y0090296D01*
X0006100Y0090895D02*
X0005600Y0090895D01*
X0005600Y0091493D02*
X0006100Y0091493D01*
X0006100Y0092092D02*
X0005600Y0092092D01*
X0005600Y0092690D02*
X0006100Y0092690D01*
X0006122Y0093289D02*
X0005600Y0093289D01*
X0005600Y0093887D02*
X0006370Y0093887D01*
X0006618Y0094486D02*
X0005600Y0094486D01*
X0005600Y0095084D02*
X0006866Y0095084D01*
X0007429Y0095683D02*
X0005600Y0095683D01*
X0005600Y0096281D02*
X0008027Y0096281D01*
X0009009Y0096880D02*
X0005600Y0096880D01*
X0005600Y0097478D02*
X0042300Y0097478D01*
X0022300Y0097478D01*
X0022300Y0096880D02*
X0029030Y0096880D01*
X0013591Y0096880D01*
X0014573Y0096281D02*
X0028070Y0096281D01*
X0022300Y0096281D01*
X0022300Y0095683D02*
X0027429Y0095683D01*
X0015171Y0095683D01*
X0015734Y0095084D02*
X0026968Y0095084D01*
X0022300Y0095084D01*
X0022300Y0094486D02*
X0026628Y0094486D01*
X0015982Y0094486D01*
X0016230Y0093887D02*
X0026381Y0093887D01*
X0022300Y0093887D01*
X0022300Y0093289D02*
X0026208Y0093289D01*
X0016478Y0093289D01*
X0016500Y0092690D02*
X0026113Y0092690D01*
X0022300Y0092690D01*
X0022300Y0092092D02*
X0026100Y0092092D01*
X0016500Y0092092D01*
X0016500Y0091493D02*
X0026100Y0091493D01*
X0022300Y0091493D01*
X0022300Y0090895D02*
X0026100Y0090895D01*
X0016500Y0090895D01*
X0016500Y0090296D02*
X0026100Y0090296D01*
X0022300Y0090296D01*
X0022300Y0089698D02*
X0026100Y0089698D01*
X0016500Y0089698D01*
X0016500Y0089099D02*
X0026100Y0089099D01*
X0022300Y0089099D01*
X0022300Y0088501D02*
X0031000Y0088501D01*
X0016500Y0088501D01*
X0016500Y0087902D02*
X0026100Y0087902D01*
X0022300Y0087902D01*
X0022300Y0087303D02*
X0026100Y0087303D01*
X0016500Y0087303D01*
X0016500Y0086705D02*
X0026100Y0086705D01*
X0022300Y0086705D01*
X0022300Y0086106D02*
X0026100Y0086106D01*
X0016500Y0086106D01*
X0016500Y0085508D02*
X0026100Y0085508D01*
X0022300Y0085508D01*
X0022300Y0084909D02*
X0026100Y0084909D01*
X0016500Y0084909D01*
X0016500Y0084311D02*
X0026100Y0084311D01*
X0022300Y0084311D01*
X0022300Y0083712D02*
X0026144Y0083712D01*
X0016500Y0083712D01*
X0016396Y0083114D02*
X0026250Y0083114D01*
X0022300Y0083114D01*
X0022300Y0082515D02*
X0026445Y0082515D01*
X0016148Y0082515D01*
X0015900Y0081917D02*
X0026729Y0081917D01*
X0022300Y0081917D01*
X0022300Y0081318D02*
X0027111Y0081318D01*
X0015572Y0081318D01*
X0014974Y0080720D02*
X0027626Y0080720D01*
X0022300Y0080720D01*
X0022300Y0080121D02*
X0028342Y0080121D01*
X0014375Y0080121D01*
X0013114Y0079523D02*
X0029483Y0079523D01*
X0022300Y0079523D01*
X0022300Y0078924D02*
X0042676Y0078924D01*
X0042300Y0079523D02*
X0033117Y0079523D01*
X0042300Y0079523D01*
X0042300Y0080121D02*
X0034258Y0080121D01*
X0042300Y0080121D01*
X0042300Y0080720D02*
X0034974Y0080720D01*
X0042300Y0080720D01*
X0042300Y0081318D02*
X0035489Y0081318D01*
X0042300Y0081318D01*
X0042300Y0081917D02*
X0035871Y0081917D01*
X0042300Y0081917D01*
X0042300Y0082515D02*
X0036155Y0082515D01*
X0042300Y0082515D01*
X0042300Y0083114D02*
X0036350Y0083114D01*
X0042300Y0083114D01*
X0042300Y0083712D02*
X0036456Y0083712D01*
X0042300Y0083712D01*
X0042300Y0084311D02*
X0036500Y0084311D01*
X0042300Y0084311D01*
X0042300Y0084909D02*
X0036500Y0084909D01*
X0042300Y0084909D01*
X0042300Y0085508D02*
X0036500Y0085508D01*
X0042300Y0085508D01*
X0042300Y0086106D02*
X0036500Y0086106D01*
X0042300Y0086106D01*
X0042300Y0086705D02*
X0036500Y0086705D01*
X0042300Y0086705D01*
X0042300Y0087303D02*
X0036500Y0087303D01*
X0042300Y0087303D01*
X0042300Y0087902D02*
X0036500Y0087902D01*
X0042300Y0087902D01*
X0042300Y0088501D02*
X0031600Y0088501D01*
X0042300Y0088501D01*
X0042300Y0089099D02*
X0036500Y0089099D01*
X0042300Y0089099D01*
X0042300Y0089698D02*
X0036500Y0089698D01*
X0042300Y0089698D01*
X0042300Y0090296D02*
X0036500Y0090296D01*
X0042300Y0090296D01*
X0042300Y0090895D02*
X0036500Y0090895D01*
X0042300Y0090895D01*
X0042300Y0091493D02*
X0036500Y0091493D01*
X0042300Y0091493D01*
X0042300Y0092092D02*
X0036500Y0092092D01*
X0042300Y0092092D01*
X0042300Y0092690D02*
X0036487Y0092690D01*
X0042300Y0092690D01*
X0042300Y0093289D02*
X0036392Y0093289D01*
X0042300Y0093289D01*
X0042300Y0093887D02*
X0036219Y0093887D01*
X0042300Y0093887D01*
X0042300Y0094486D02*
X0035972Y0094486D01*
X0042300Y0094486D01*
X0042300Y0095084D02*
X0035632Y0095084D01*
X0042300Y0095084D01*
X0042300Y0095683D02*
X0035171Y0095683D01*
X0042300Y0095683D01*
X0042300Y0096281D02*
X0034530Y0096281D01*
X0042300Y0096281D01*
X0042300Y0096880D02*
X0033570Y0096880D01*
X0042300Y0096880D01*
X0042300Y0098077D02*
X0005600Y0098077D01*
X0005600Y0098675D02*
X0042300Y0098675D01*
X0022300Y0098675D01*
X0022300Y0098077D02*
X0042300Y0098077D01*
X0042300Y0099274D02*
X0005600Y0099274D01*
X0005600Y0099872D02*
X0042300Y0099872D01*
X0022300Y0099872D01*
X0022300Y0099274D02*
X0042300Y0099274D01*
X0042300Y0100471D02*
X0005600Y0100471D01*
X0005600Y0101069D02*
X0042300Y0101069D01*
X0022300Y0101069D01*
X0022300Y0100471D02*
X0042300Y0100471D01*
X0042300Y0101668D02*
X0005600Y0101668D01*
X0005600Y0102266D02*
X0042300Y0102266D01*
X0022300Y0102266D01*
X0022300Y0101668D02*
X0042300Y0101668D01*
X0042300Y0102865D02*
X0005600Y0102865D01*
X0005600Y0103463D02*
X0042300Y0103463D01*
X0022300Y0103463D01*
X0022300Y0102865D02*
X0042300Y0102865D01*
X0042300Y0104062D02*
X0005600Y0104062D01*
X0005600Y0104660D02*
X0042300Y0104660D01*
X0022300Y0104660D01*
X0022300Y0104062D02*
X0042300Y0104062D01*
X0042300Y0105259D02*
X0005600Y0105259D01*
X0005600Y0105857D02*
X0042300Y0105857D01*
X0022300Y0105857D01*
X0022300Y0105259D02*
X0042300Y0105259D01*
X0042300Y0106456D02*
X0005600Y0106456D01*
X0005600Y0107054D02*
X0042300Y0107054D01*
X0022300Y0107054D01*
X0022300Y0106456D02*
X0042300Y0106456D01*
X0042300Y0107653D02*
X0005600Y0107653D01*
X0005600Y0108251D02*
X0042300Y0108251D01*
X0022300Y0108251D01*
X0022300Y0107653D02*
X0042300Y0107653D01*
X0042300Y0108850D02*
X0005600Y0108850D01*
X0005600Y0109448D02*
X0009666Y0109448D01*
X0010266Y0109200D02*
X0012334Y0109200D01*
X0014246Y0109992D01*
X0015708Y0111454D01*
X0016500Y0113366D01*
X0016500Y0123234D01*
X0015708Y0125146D01*
X0014246Y0126608D01*
X0012334Y0127400D01*
X0010266Y0127400D01*
X0008354Y0126608D01*
X0006892Y0125146D01*
X0006100Y0123234D01*
X0006100Y0113366D01*
X0006892Y0111454D01*
X0008354Y0109992D01*
X0010266Y0109200D01*
X0008299Y0110047D02*
X0005600Y0110047D01*
X0005600Y0110645D02*
X0007701Y0110645D01*
X0007102Y0111244D02*
X0005600Y0111244D01*
X0005600Y0111842D02*
X0006731Y0111842D01*
X0006483Y0112441D02*
X0005600Y0112441D01*
X0005600Y0113039D02*
X0006235Y0113039D01*
X0006100Y0113638D02*
X0005600Y0113638D01*
X0005600Y0114237D02*
X0006100Y0114237D01*
X0006100Y0114835D02*
X0005600Y0114835D01*
X0005600Y0115434D02*
X0006100Y0115434D01*
X0006100Y0116032D02*
X0005600Y0116032D01*
X0005600Y0116631D02*
X0006100Y0116631D01*
X0006100Y0117229D02*
X0005600Y0117229D01*
X0005600Y0117828D02*
X0006100Y0117828D01*
X0006100Y0118426D02*
X0005600Y0118426D01*
X0005600Y0119025D02*
X0006100Y0119025D01*
X0006100Y0119623D02*
X0005600Y0119623D01*
X0005600Y0120222D02*
X0006100Y0120222D01*
X0006100Y0120820D02*
X0005600Y0120820D01*
X0005600Y0121419D02*
X0006100Y0121419D01*
X0006100Y0122017D02*
X0005600Y0122017D01*
X0005600Y0122616D02*
X0006100Y0122616D01*
X0006100Y0123214D02*
X0005600Y0123214D01*
X0005600Y0123813D02*
X0006340Y0123813D01*
X0006587Y0124411D02*
X0005600Y0124411D01*
X0005600Y0125010D02*
X0006835Y0125010D01*
X0007354Y0125608D02*
X0005600Y0125608D01*
X0005600Y0126207D02*
X0007953Y0126207D01*
X0008830Y0126805D02*
X0005600Y0126805D01*
X0005600Y0127404D02*
X0042300Y0127404D01*
X0022300Y0127404D01*
X0022300Y0128002D02*
X0042300Y0128002D01*
X0005600Y0128002D01*
X0013770Y0126805D02*
X0028884Y0126805D01*
X0022300Y0126805D01*
X0022300Y0126207D02*
X0027968Y0126207D01*
X0014647Y0126207D01*
X0015246Y0125608D02*
X0027354Y0125608D01*
X0022300Y0125608D01*
X0022300Y0125010D02*
X0026914Y0125010D01*
X0015765Y0125010D01*
X0016013Y0124411D02*
X0026591Y0124411D01*
X0022300Y0124411D01*
X0022300Y0123813D02*
X0026356Y0123813D01*
X0016260Y0123813D01*
X0016500Y0123214D02*
X0026196Y0123214D01*
X0022300Y0123214D01*
X0022300Y0122616D02*
X0026101Y0122616D01*
X0016500Y0122616D01*
X0016500Y0122017D02*
X0026100Y0122017D01*
X0022300Y0122017D01*
X0022300Y0121419D02*
X0026100Y0121419D01*
X0016500Y0121419D01*
X0016500Y0120820D02*
X0026100Y0120820D01*
X0022300Y0120820D01*
X0022300Y0120222D02*
X0026100Y0120222D01*
X0016500Y0120222D01*
X0016500Y0119623D02*
X0026100Y0119623D01*
X0022300Y0119623D01*
X0022300Y0119025D02*
X0026100Y0119025D01*
X0016500Y0119025D01*
X0016500Y0118426D02*
X0031000Y0118426D01*
X0022300Y0118426D01*
X0022300Y0117828D02*
X0026100Y0117828D01*
X0016500Y0117828D01*
X0016500Y0117229D02*
X0026100Y0117229D01*
X0022300Y0117229D01*
X0022300Y0116631D02*
X0026100Y0116631D01*
X0016500Y0116631D01*
X0016500Y0116032D02*
X0026100Y0116032D01*
X0022300Y0116032D01*
X0022300Y0115434D02*
X0026100Y0115434D01*
X0016500Y0115434D01*
X0016500Y0114835D02*
X0026100Y0114835D01*
X0022300Y0114835D01*
X0022300Y0114237D02*
X0026100Y0114237D01*
X0016500Y0114237D01*
X0016500Y0113638D02*
X0026156Y0113638D01*
X0022300Y0113638D01*
X0022300Y0113039D02*
X0026274Y0113039D01*
X0016365Y0113039D01*
X0016117Y0112441D02*
X0026469Y0112441D01*
X0022300Y0112441D01*
X0022300Y0111842D02*
X0026767Y0111842D01*
X0015869Y0111842D01*
X0015498Y0111244D02*
X0027165Y0111244D01*
X0022300Y0111244D01*
X0022300Y0110645D02*
X0027701Y0110645D01*
X0014899Y0110645D01*
X0014301Y0110047D02*
X0028445Y0110047D01*
X0022300Y0110047D01*
X0022300Y0109448D02*
X0029712Y0109448D01*
X0012934Y0109448D01*
X0022300Y0108850D02*
X0042300Y0108850D01*
X0042300Y0109448D02*
X0032888Y0109448D01*
X0042300Y0109448D01*
X0042300Y0110047D02*
X0034155Y0110047D01*
X0042300Y0110047D01*
X0042300Y0110645D02*
X0034899Y0110645D01*
X0042300Y0110645D01*
X0042300Y0111244D02*
X0035435Y0111244D01*
X0042300Y0111244D01*
X0042300Y0111842D02*
X0035833Y0111842D01*
X0042300Y0111842D01*
X0042300Y0112441D02*
X0036131Y0112441D01*
X0042300Y0112441D01*
X0042300Y0113039D02*
X0036326Y0113039D01*
X0042300Y0113039D01*
X0042300Y0113638D02*
X0036444Y0113638D01*
X0042300Y0113638D01*
X0042300Y0114237D02*
X0036500Y0114237D01*
X0042300Y0114237D01*
X0042300Y0114835D02*
X0036500Y0114835D01*
X0042300Y0114835D01*
X0042300Y0115434D02*
X0036500Y0115434D01*
X0042300Y0115434D01*
X0042300Y0116032D02*
X0036500Y0116032D01*
X0042300Y0116032D01*
X0042300Y0116631D02*
X0036500Y0116631D01*
X0042300Y0116631D01*
X0042300Y0117229D02*
X0036500Y0117229D01*
X0042300Y0117229D01*
X0042300Y0117828D02*
X0036500Y0117828D01*
X0042300Y0117828D01*
X0042300Y0118426D02*
X0031600Y0118426D01*
X0042300Y0118426D01*
X0042300Y0119025D02*
X0036500Y0119025D01*
X0042300Y0119025D01*
X0042300Y0119623D02*
X0036500Y0119623D01*
X0042300Y0119623D01*
X0042300Y0120222D02*
X0036500Y0120222D01*
X0042300Y0120222D01*
X0042300Y0120820D02*
X0036500Y0120820D01*
X0042300Y0120820D01*
X0042300Y0121419D02*
X0036500Y0121419D01*
X0042300Y0121419D01*
X0042300Y0122017D02*
X0036500Y0122017D01*
X0042300Y0122017D01*
X0042300Y0122616D02*
X0036499Y0122616D01*
X0042300Y0122616D01*
X0042300Y0123214D02*
X0036404Y0123214D01*
X0042300Y0123214D01*
X0042300Y0123813D02*
X0036244Y0123813D01*
X0042300Y0123813D01*
X0042300Y0124411D02*
X0036009Y0124411D01*
X0042300Y0124411D01*
X0042300Y0125010D02*
X0035686Y0125010D01*
X0042300Y0125010D01*
X0042300Y0125608D02*
X0035246Y0125608D01*
X0042300Y0125608D01*
X0042300Y0126207D02*
X0034632Y0126207D01*
X0042300Y0126207D01*
X0042300Y0126805D02*
X0033716Y0126805D01*
X0042300Y0126805D01*
X0036119Y0124196D02*
X0035747Y0124925D01*
X0035266Y0125588D01*
X0034688Y0126166D01*
X0034025Y0126647D01*
X0033296Y0127019D01*
X0032518Y0127272D01*
X0031709Y0127400D01*
X0031600Y0127400D01*
X0031600Y0118600D01*
X0031000Y0118600D01*
X0031000Y0127400D01*
X0030891Y0127400D01*
X0030082Y0127272D01*
X0029304Y0127019D01*
X0028575Y0126647D01*
X0027912Y0126166D01*
X0027334Y0125588D01*
X0026853Y0124925D01*
X0026481Y0124196D01*
X0026228Y0123418D01*
X0026100Y0122609D01*
X0026100Y0118600D01*
X0031000Y0118600D01*
X0031000Y0127400D01*
X0030891Y0127400D01*
X0030082Y0127272D01*
X0029304Y0127019D01*
X0028575Y0126647D01*
X0027912Y0126166D01*
X0027334Y0125588D01*
X0026853Y0124925D01*
X0026481Y0124196D01*
X0026228Y0123418D01*
X0026100Y0122609D01*
X0026100Y0118600D01*
X0031000Y0118600D01*
X0031600Y0118600D01*
X0036500Y0118600D01*
X0036500Y0122609D01*
X0036372Y0123418D01*
X0036119Y0124196D01*
X0035747Y0124925D01*
X0035266Y0125588D01*
X0034688Y0126166D01*
X0034025Y0126647D01*
X0033296Y0127019D01*
X0032518Y0127272D01*
X0031709Y0127400D01*
X0031600Y0127400D01*
X0031600Y0118600D01*
X0031600Y0118000D01*
X0036500Y0118000D01*
X0036500Y0113991D01*
X0036372Y0113182D01*
X0036119Y0112404D01*
X0035747Y0111675D01*
X0035266Y0111012D01*
X0034688Y0110434D01*
X0034025Y0109953D01*
X0033296Y0109581D01*
X0032518Y0109328D01*
X0031709Y0109200D01*
X0031600Y0109200D01*
X0031600Y0118000D01*
X0031600Y0118600D01*
X0036500Y0118600D01*
X0036500Y0122609D01*
X0036372Y0123418D01*
X0036119Y0124196D01*
X0031600Y0124411D02*
X0031000Y0124411D01*
X0031600Y0124411D01*
X0031600Y0123813D02*
X0031000Y0123813D01*
X0031600Y0123813D01*
X0031600Y0123214D02*
X0031000Y0123214D01*
X0031600Y0123214D01*
X0031600Y0122616D02*
X0031000Y0122616D01*
X0031600Y0122616D01*
X0031600Y0122017D02*
X0031000Y0122017D01*
X0031600Y0122017D01*
X0031600Y0121419D02*
X0031000Y0121419D01*
X0031600Y0121419D01*
X0031600Y0120820D02*
X0031000Y0120820D01*
X0031600Y0120820D01*
X0031600Y0120222D02*
X0031000Y0120222D01*
X0031600Y0120222D01*
X0031600Y0119623D02*
X0031000Y0119623D01*
X0031600Y0119623D01*
X0031600Y0119025D02*
X0031000Y0119025D01*
X0031600Y0119025D01*
X0031000Y0118600D02*
X0031000Y0118000D01*
X0026100Y0118000D01*
X0026100Y0113991D01*
X0026228Y0113182D01*
X0026481Y0112404D01*
X0026853Y0111675D01*
X0027334Y0111012D01*
X0027912Y0110434D01*
X0028575Y0109953D01*
X0029304Y0109581D01*
X0030082Y0109328D01*
X0030891Y0109200D01*
X0031000Y0109200D01*
X0031000Y0118000D01*
X0031600Y0118000D01*
X0036500Y0118000D01*
X0036500Y0113991D01*
X0036372Y0113182D01*
X0036119Y0112404D01*
X0035747Y0111675D01*
X0035266Y0111012D01*
X0034688Y0110434D01*
X0034025Y0109953D01*
X0033296Y0109581D01*
X0032518Y0109328D01*
X0031709Y0109200D01*
X0031600Y0109200D01*
X0031600Y0118000D01*
X0031000Y0118000D01*
X0026100Y0118000D01*
X0026100Y0113991D01*
X0026228Y0113182D01*
X0026481Y0112404D01*
X0026853Y0111675D01*
X0027334Y0111012D01*
X0027912Y0110434D01*
X0028575Y0109953D01*
X0029304Y0109581D01*
X0030082Y0109328D01*
X0030891Y0109200D01*
X0031000Y0109200D01*
X0031000Y0118000D01*
X0031000Y0118600D01*
X0031000Y0117828D02*
X0031600Y0117828D01*
X0031000Y0117828D01*
X0031000Y0117229D02*
X0031600Y0117229D01*
X0031000Y0117229D01*
X0031000Y0116631D02*
X0031600Y0116631D01*
X0031000Y0116631D01*
X0031000Y0116032D02*
X0031600Y0116032D01*
X0031000Y0116032D01*
X0031000Y0115434D02*
X0031600Y0115434D01*
X0031000Y0115434D01*
X0031000Y0114835D02*
X0031600Y0114835D01*
X0031000Y0114835D01*
X0031000Y0114237D02*
X0031600Y0114237D01*
X0031000Y0114237D01*
X0031000Y0113638D02*
X0031600Y0113638D01*
X0031000Y0113638D01*
X0031000Y0113039D02*
X0031600Y0113039D01*
X0031000Y0113039D01*
X0031000Y0112441D02*
X0031600Y0112441D01*
X0031000Y0112441D01*
X0031000Y0111842D02*
X0031600Y0111842D01*
X0031000Y0111842D01*
X0031000Y0111244D02*
X0031600Y0111244D01*
X0031000Y0111244D01*
X0031000Y0110645D02*
X0031600Y0110645D01*
X0031000Y0110645D01*
X0031000Y0110047D02*
X0031600Y0110047D01*
X0031000Y0110047D01*
X0031000Y0109448D02*
X0031600Y0109448D01*
X0031000Y0109448D01*
X0031000Y0097400D02*
X0030891Y0097400D01*
X0030082Y0097272D01*
X0029304Y0097019D01*
X0028575Y0096647D01*
X0027912Y0096166D01*
X0027334Y0095588D01*
X0026853Y0094925D01*
X0026481Y0094196D01*
X0026228Y0093418D01*
X0026100Y0092609D01*
X0026100Y0088600D01*
X0031000Y0088600D01*
X0031000Y0097400D01*
X0030891Y0097400D01*
X0030082Y0097272D01*
X0029304Y0097019D01*
X0028575Y0096647D01*
X0027912Y0096166D01*
X0027334Y0095588D01*
X0026853Y0094925D01*
X0026481Y0094196D01*
X0026228Y0093418D01*
X0026100Y0092609D01*
X0026100Y0088600D01*
X0031000Y0088600D01*
X0031600Y0088600D01*
X0031600Y0097400D01*
X0031709Y0097400D01*
X0032518Y0097272D01*
X0033296Y0097019D01*
X0034025Y0096647D01*
X0034688Y0096166D01*
X0035266Y0095588D01*
X0035747Y0094925D01*
X0036119Y0094196D01*
X0036372Y0093418D01*
X0036500Y0092609D01*
X0036500Y0088600D01*
X0031600Y0088600D01*
X0031600Y0088000D01*
X0036500Y0088000D01*
X0036500Y0083991D01*
X0036372Y0083182D01*
X0036119Y0082404D01*
X0035747Y0081675D01*
X0035266Y0081012D01*
X0034688Y0080434D01*
X0034025Y0079953D01*
X0033296Y0079581D01*
X0032518Y0079328D01*
X0031709Y0079200D01*
X0031600Y0079200D01*
X0031600Y0088000D01*
X0031600Y0088600D01*
X0031000Y0088600D01*
X0031000Y0097400D01*
X0031000Y0096880D02*
X0031600Y0096880D01*
X0031000Y0096880D01*
X0031000Y0096281D02*
X0031600Y0096281D01*
X0031000Y0096281D01*
X0031000Y0095683D02*
X0031600Y0095683D01*
X0031000Y0095683D01*
X0031000Y0095084D02*
X0031600Y0095084D01*
X0031000Y0095084D01*
X0031000Y0094486D02*
X0031600Y0094486D01*
X0031000Y0094486D01*
X0031000Y0093887D02*
X0031600Y0093887D01*
X0031000Y0093887D01*
X0031000Y0093289D02*
X0031600Y0093289D01*
X0031000Y0093289D01*
X0031000Y0092690D02*
X0031600Y0092690D01*
X0031000Y0092690D01*
X0031000Y0092092D02*
X0031600Y0092092D01*
X0031000Y0092092D01*
X0031000Y0091493D02*
X0031600Y0091493D01*
X0031000Y0091493D01*
X0031000Y0090895D02*
X0031600Y0090895D01*
X0031000Y0090895D01*
X0031000Y0090296D02*
X0031600Y0090296D01*
X0031000Y0090296D01*
X0031000Y0089698D02*
X0031600Y0089698D01*
X0031000Y0089698D01*
X0031000Y0089099D02*
X0031600Y0089099D01*
X0031000Y0089099D01*
X0031000Y0088600D02*
X0031000Y0088000D01*
X0026100Y0088000D01*
X0026100Y0083991D01*
X0026228Y0083182D01*
X0026481Y0082404D01*
X0026853Y0081675D01*
X0027334Y0081012D01*
X0027912Y0080434D01*
X0028575Y0079953D01*
X0029304Y0079581D01*
X0030082Y0079328D01*
X0030891Y0079200D01*
X0031000Y0079200D01*
X0031000Y0088000D01*
X0031600Y0088000D01*
X0036500Y0088000D01*
X0036500Y0083991D01*
X0036372Y0083182D01*
X0036119Y0082404D01*
X0035747Y0081675D01*
X0035266Y0081012D01*
X0034688Y0080434D01*
X0034025Y0079953D01*
X0033296Y0079581D01*
X0032518Y0079328D01*
X0031709Y0079200D01*
X0031600Y0079200D01*
X0031600Y0088000D01*
X0031000Y0088000D01*
X0026100Y0088000D01*
X0026100Y0083991D01*
X0026228Y0083182D01*
X0026481Y0082404D01*
X0026853Y0081675D01*
X0027334Y0081012D01*
X0027912Y0080434D01*
X0028575Y0079953D01*
X0029304Y0079581D01*
X0030082Y0079328D01*
X0030891Y0079200D01*
X0031000Y0079200D01*
X0031000Y0088000D01*
X0031000Y0088600D01*
X0031600Y0088600D02*
X0031600Y0097400D01*
X0031709Y0097400D01*
X0032518Y0097272D01*
X0033296Y0097019D01*
X0034025Y0096647D01*
X0034688Y0096166D01*
X0035266Y0095588D01*
X0035747Y0094925D01*
X0036119Y0094196D01*
X0036372Y0093418D01*
X0036500Y0092609D01*
X0036500Y0088600D01*
X0031600Y0088600D01*
X0031600Y0087902D02*
X0031000Y0087902D01*
X0031600Y0087902D01*
X0031600Y0087303D02*
X0031000Y0087303D01*
X0031600Y0087303D01*
X0031600Y0086705D02*
X0031000Y0086705D01*
X0031600Y0086705D01*
X0031600Y0086106D02*
X0031000Y0086106D01*
X0031600Y0086106D01*
X0031600Y0085508D02*
X0031000Y0085508D01*
X0031600Y0085508D01*
X0031600Y0084909D02*
X0031000Y0084909D01*
X0031600Y0084909D01*
X0031600Y0084311D02*
X0031000Y0084311D01*
X0031600Y0084311D01*
X0031600Y0083712D02*
X0031000Y0083712D01*
X0031600Y0083712D01*
X0031600Y0083114D02*
X0031000Y0083114D01*
X0031600Y0083114D01*
X0031600Y0082515D02*
X0031000Y0082515D01*
X0031600Y0082515D01*
X0031600Y0081917D02*
X0031000Y0081917D01*
X0031600Y0081917D01*
X0031600Y0081318D02*
X0031000Y0081318D01*
X0031600Y0081318D01*
X0031600Y0080720D02*
X0031000Y0080720D01*
X0031600Y0080720D01*
X0031600Y0080121D02*
X0031000Y0080121D01*
X0031600Y0080121D01*
X0031600Y0079523D02*
X0031000Y0079523D01*
X0031600Y0079523D01*
X0022300Y0078326D02*
X0043274Y0078326D01*
X0043873Y0077727D02*
X0022300Y0077727D01*
X0022300Y0077129D02*
X0044471Y0077129D01*
X0045070Y0076530D02*
X0022300Y0076530D01*
X0022300Y0075932D02*
X0045668Y0075932D01*
X0046267Y0075333D02*
X0022300Y0075333D01*
X0022300Y0074735D02*
X0046865Y0074735D01*
X0047464Y0074136D02*
X0022300Y0074136D01*
X0022300Y0073538D02*
X0048062Y0073538D01*
X0048661Y0072939D02*
X0022300Y0072939D01*
X0022300Y0072341D02*
X0049259Y0072341D01*
X0049858Y0071742D02*
X0022300Y0071742D01*
X0022300Y0071144D02*
X0050456Y0071144D01*
X0051055Y0070545D02*
X0022300Y0070545D01*
X0022300Y0069947D02*
X0051653Y0069947D01*
X0052252Y0069348D02*
X0022300Y0069348D01*
X0022300Y0068750D02*
X0052850Y0068750D01*
X0053449Y0068151D02*
X0022300Y0068151D01*
X0022300Y0067553D02*
X0054047Y0067553D01*
X0054646Y0066954D02*
X0022300Y0066954D01*
X0022300Y0066356D02*
X0055244Y0066356D01*
X0055843Y0065757D02*
X0022300Y0065757D01*
X0022300Y0065159D02*
X0056441Y0065159D01*
X0057040Y0064560D02*
X0022300Y0064560D01*
X0022300Y0063962D02*
X0057638Y0063962D01*
X0058237Y0063363D02*
X0022300Y0063363D01*
X0022300Y0062765D02*
X0058835Y0062765D01*
X0059434Y0062166D02*
X0022300Y0062166D01*
X0022300Y0061568D02*
X0060032Y0061568D01*
X0060631Y0060969D02*
X0022300Y0060969D01*
X0022300Y0060370D02*
X0061230Y0060370D01*
X0061828Y0059772D02*
X0022300Y0059772D01*
X0022300Y0059173D02*
X0062427Y0059173D01*
X0063025Y0058575D02*
X0022300Y0058575D01*
X0022300Y0057976D02*
X0063624Y0057976D01*
X0064222Y0057378D02*
X0022300Y0057378D01*
X0022300Y0056779D02*
X0064821Y0056779D01*
X0065419Y0056181D02*
X0022300Y0056181D01*
X0022300Y0055582D02*
X0066018Y0055582D01*
X0066616Y0054984D02*
X0022300Y0054984D01*
X0022300Y0054385D02*
X0067215Y0054385D01*
X0067813Y0053787D02*
X0022300Y0053787D01*
X0022300Y0053188D02*
X0068412Y0053188D01*
X0069010Y0052590D02*
X0022300Y0052590D01*
X0022300Y0051991D02*
X0069609Y0051991D01*
X0070207Y0051393D02*
X0022300Y0051393D01*
X0022300Y0050794D02*
X0070806Y0050794D01*
X0071404Y0050196D02*
X0022300Y0050196D01*
X0022300Y0049597D02*
X0072003Y0049597D01*
X0072601Y0048999D02*
X0022300Y0048999D01*
X0022300Y0048400D02*
X0073200Y0048400D01*
X0073798Y0047802D02*
X0022300Y0047802D01*
X0022300Y0047203D02*
X0074397Y0047203D01*
X0074995Y0046605D02*
X0022300Y0046605D01*
X0021729Y0044809D02*
X0005600Y0044809D01*
X0005600Y0044211D02*
X0020598Y0044211D01*
X0019561Y0043612D02*
X0005600Y0043612D01*
X0005600Y0043014D02*
X0018619Y0043014D01*
X0018020Y0042415D02*
X0005600Y0042415D01*
X0005600Y0041817D02*
X0017422Y0041817D01*
X0016823Y0041218D02*
X0005600Y0041218D01*
X0005600Y0040620D02*
X0016323Y0040620D01*
X0015978Y0040021D02*
X0005600Y0040021D01*
X0005600Y0039423D02*
X0015632Y0039423D01*
X0015287Y0038824D02*
X0005600Y0038824D01*
X0005600Y0038226D02*
X0014941Y0038226D01*
X0014726Y0037627D02*
X0005600Y0037627D01*
X0005600Y0037029D02*
X0014565Y0037029D01*
X0014405Y0036430D02*
X0005600Y0036430D01*
X0005600Y0035832D02*
X0014244Y0035832D01*
X0014084Y0035233D02*
X0005600Y0035233D01*
X0005600Y0034634D02*
X0014000Y0034634D01*
X0014000Y0034036D02*
X0005600Y0034036D01*
X0005600Y0033437D02*
X0014000Y0033437D01*
X0014000Y0032839D02*
X0005600Y0032839D01*
X0005600Y0032240D02*
X0014000Y0032240D01*
X0014010Y0031642D02*
X0005600Y0031642D01*
X0005600Y0031043D02*
X0014171Y0031043D01*
X0014331Y0030445D02*
X0005600Y0030445D01*
X0005600Y0029846D02*
X0014491Y0029846D01*
X0014652Y0029248D02*
X0005600Y0029248D01*
X0005600Y0028649D02*
X0014812Y0028649D01*
X0015128Y0028051D02*
X0005600Y0028051D01*
X0005600Y0027452D02*
X0015473Y0027452D01*
X0015819Y0026854D02*
X0005600Y0026854D01*
X0005600Y0026255D02*
X0016164Y0026255D01*
X0016548Y0025657D02*
X0005600Y0025657D01*
X0005600Y0025058D02*
X0017147Y0025058D01*
X0017745Y0024460D02*
X0005600Y0024460D01*
X0005600Y0023861D02*
X0018344Y0023861D01*
X0019085Y0023263D02*
X0005600Y0023263D01*
X0005600Y0022664D02*
X0020122Y0022664D01*
X0021158Y0022066D02*
X0005600Y0022066D01*
X0005600Y0021467D02*
X0022937Y0021467D01*
X0022300Y0021467D01*
X0022300Y0020869D02*
X0080300Y0020869D01*
X0080300Y0021467D02*
X0029663Y0021467D01*
X0042300Y0021467D01*
X0042300Y0020869D02*
X0005600Y0020869D01*
X0005600Y0020270D02*
X0042300Y0020270D01*
X0042300Y0019672D02*
X0005600Y0019672D01*
X0005600Y0019073D02*
X0042300Y0019073D01*
X0042300Y0018475D02*
X0005600Y0018475D01*
X0005600Y0017876D02*
X0042300Y0017876D01*
X0042300Y0017278D02*
X0005600Y0017278D01*
X0005600Y0016679D02*
X0042300Y0016679D01*
X0042300Y0016081D02*
X0005600Y0016081D01*
X0005600Y0015482D02*
X0042300Y0015482D01*
X0042300Y0014884D02*
X0005600Y0014884D01*
X0005600Y0014285D02*
X0042300Y0014285D01*
X0042300Y0013687D02*
X0005600Y0013687D01*
X0005600Y0013088D02*
X0042300Y0013088D01*
X0042300Y0022066D02*
X0031442Y0022066D01*
X0080300Y0022066D01*
X0080300Y0022664D02*
X0032478Y0022664D01*
X0042300Y0022664D01*
X0042300Y0023263D02*
X0033515Y0023263D01*
X0080300Y0023263D01*
X0080300Y0023861D02*
X0034256Y0023861D01*
X0042300Y0023861D01*
X0042300Y0024460D02*
X0034855Y0024460D01*
X0080300Y0024460D01*
X0080300Y0025058D02*
X0035453Y0025058D01*
X0042300Y0025058D01*
X0042300Y0025657D02*
X0036052Y0025657D01*
X0080300Y0025657D01*
X0080300Y0026255D02*
X0036436Y0026255D01*
X0042300Y0026255D01*
X0042300Y0026854D02*
X0036781Y0026854D01*
X0060853Y0026854D01*
X0060254Y0027452D02*
X0037127Y0027452D01*
X0042300Y0027452D01*
X0042300Y0028051D02*
X0037472Y0028051D01*
X0060125Y0028051D01*
X0060125Y0028649D02*
X0037788Y0028649D01*
X0042300Y0028649D01*
X0042300Y0029248D02*
X0037948Y0029248D01*
X0060125Y0029248D01*
X0060125Y0029846D02*
X0038108Y0029846D01*
X0042300Y0029846D01*
X0042300Y0030445D02*
X0038269Y0030445D01*
X0060125Y0030445D01*
X0060125Y0031043D02*
X0038429Y0031043D01*
X0042300Y0031043D01*
X0042300Y0031642D02*
X0038590Y0031642D01*
X0060125Y0031642D01*
X0060125Y0032240D02*
X0038600Y0032240D01*
X0042300Y0032240D01*
X0022300Y0020270D02*
X0080300Y0020270D01*
X0080300Y0019672D02*
X0022300Y0019672D01*
X0022300Y0019073D02*
X0080300Y0019073D01*
X0080300Y0018475D02*
X0022300Y0018475D01*
X0022300Y0017876D02*
X0080300Y0017876D01*
X0080300Y0017278D02*
X0022300Y0017278D01*
X0022300Y0016679D02*
X0080300Y0016679D01*
X0080300Y0016081D02*
X0022300Y0016081D01*
X0022300Y0015482D02*
X0080300Y0015482D01*
X0080300Y0014884D02*
X0022300Y0014884D01*
X0022300Y0014285D02*
X0080300Y0014285D01*
X0080300Y0013687D02*
X0022300Y0013687D01*
X0022300Y0013088D02*
X0080300Y0013088D01*
X0083300Y0013088D02*
X0113300Y0013088D01*
X0113300Y0013687D02*
X0083300Y0013687D01*
X0083300Y0014285D02*
X0113300Y0014285D01*
X0113300Y0014884D02*
X0083300Y0014884D01*
X0083300Y0015482D02*
X0113300Y0015482D01*
X0113300Y0016081D02*
X0083300Y0016081D01*
X0083300Y0016679D02*
X0113300Y0016679D01*
X0113300Y0017278D02*
X0083300Y0017278D01*
X0083300Y0017876D02*
X0113300Y0017876D01*
X0113300Y0018475D02*
X0083300Y0018475D01*
X0083300Y0019073D02*
X0113300Y0019073D01*
X0113300Y0019672D02*
X0083300Y0019672D01*
X0083300Y0020270D02*
X0113300Y0020270D01*
X0113300Y0020869D02*
X0083300Y0020869D01*
X0083300Y0021467D02*
X0113300Y0021467D01*
X0113300Y0022066D02*
X0083300Y0022066D01*
X0083300Y0022664D02*
X0113300Y0022664D01*
X0113300Y0023263D02*
X0083300Y0023263D01*
X0083300Y0023861D02*
X0113300Y0023861D01*
X0113300Y0024460D02*
X0083300Y0024460D01*
X0083300Y0025058D02*
X0113300Y0025058D01*
X0113300Y0025657D02*
X0083300Y0025657D01*
X0083300Y0026255D02*
X0113300Y0026255D01*
X0113300Y0026854D02*
X0101646Y0026854D01*
X0102245Y0027452D02*
X0113300Y0027452D01*
X0113300Y0028051D02*
X0102375Y0028051D01*
X0102375Y0028649D02*
X0113300Y0028649D01*
X0113300Y0029248D02*
X0102375Y0029248D01*
X0102375Y0029846D02*
X0113300Y0029846D01*
X0113300Y0030445D02*
X0102375Y0030445D01*
X0102375Y0031043D02*
X0113300Y0031043D01*
X0113300Y0031642D02*
X0102375Y0031642D01*
X0102375Y0032240D02*
X0113300Y0032240D01*
X0120300Y0032240D02*
X0167986Y0032240D01*
X0168584Y0031642D02*
X0120300Y0031642D01*
X0120300Y0031043D02*
X0169183Y0031043D01*
X0169781Y0030445D02*
X0120300Y0030445D01*
X0120300Y0029846D02*
X0170380Y0029846D01*
X0170978Y0029248D02*
X0120300Y0029248D01*
X0120300Y0028649D02*
X0171577Y0028649D01*
X0172175Y0028051D02*
X0120300Y0028051D01*
X0120300Y0027452D02*
X0172774Y0027452D01*
X0173372Y0026854D02*
X0120300Y0026854D01*
X0120300Y0026255D02*
X0173971Y0026255D01*
X0174569Y0025657D02*
X0120300Y0025657D01*
X0120300Y0025058D02*
X0175168Y0025058D01*
X0175766Y0024460D02*
X0120300Y0024460D01*
X0120300Y0023861D02*
X0176365Y0023861D01*
X0176963Y0023263D02*
X0120300Y0023263D01*
X0120300Y0022664D02*
X0177000Y0022664D01*
X0177000Y0022066D02*
X0120300Y0022066D01*
X0120300Y0021467D02*
X0177000Y0021467D01*
X0177000Y0020869D02*
X0120300Y0020869D01*
X0120300Y0020270D02*
X0177072Y0020270D01*
X0177320Y0019672D02*
X0120300Y0019672D01*
X0120300Y0019073D02*
X0177568Y0019073D01*
X0178044Y0018475D02*
X0120300Y0018475D01*
X0120300Y0017876D02*
X0178643Y0017876D01*
X0179774Y0017278D02*
X0120300Y0017278D01*
X0120300Y0016679D02*
X0386921Y0016679D01*
X0386921Y0016081D02*
X0120300Y0016081D01*
X0120300Y0015482D02*
X0386921Y0015482D01*
X0386921Y0014884D02*
X0120300Y0014884D01*
X0120300Y0014285D02*
X0386921Y0014285D01*
X0386921Y0013687D02*
X0120300Y0013687D01*
X0120300Y0013088D02*
X0386921Y0013088D01*
X0386921Y0017278D02*
X0212826Y0017278D01*
X0213957Y0017876D02*
X0386921Y0017876D01*
X0386921Y0018475D02*
X0214556Y0018475D01*
X0215032Y0019073D02*
X0386921Y0019073D01*
X0386921Y0019672D02*
X0215280Y0019672D01*
X0215528Y0020270D02*
X0386921Y0020270D01*
X0386921Y0020869D02*
X0215600Y0020869D01*
X0215600Y0021467D02*
X0272937Y0021467D01*
X0271552Y0021838D02*
X0274681Y0021000D01*
X0277919Y0021000D01*
X0281048Y0021838D01*
X0283852Y0023458D01*
X0286142Y0025748D01*
X0287762Y0028552D01*
X0288600Y0031681D01*
X0288600Y0034919D01*
X0287762Y0038048D01*
X0286142Y0040852D01*
X0283852Y0043142D01*
X0281048Y0044762D01*
X0277919Y0045600D01*
X0274681Y0045600D01*
X0271552Y0044762D01*
X0268748Y0043142D01*
X0266458Y0040852D01*
X0264838Y0038048D01*
X0264000Y0034919D01*
X0264000Y0031681D01*
X0264838Y0028552D01*
X0266458Y0025748D01*
X0268748Y0023458D01*
X0271552Y0021838D01*
X0271158Y0022066D02*
X0215600Y0022066D01*
X0215600Y0022664D02*
X0270122Y0022664D01*
X0269085Y0023263D02*
X0215600Y0023263D01*
X0215600Y0023861D02*
X0268344Y0023861D01*
X0267745Y0024460D02*
X0215600Y0024460D01*
X0215600Y0025058D02*
X0267147Y0025058D01*
X0266548Y0025657D02*
X0215600Y0025657D01*
X0215600Y0026255D02*
X0266164Y0026255D01*
X0265819Y0026854D02*
X0215600Y0026854D01*
X0215600Y0027452D02*
X0265473Y0027452D01*
X0265128Y0028051D02*
X0215600Y0028051D01*
X0215395Y0028649D02*
X0264812Y0028649D01*
X0264652Y0029248D02*
X0215147Y0029248D01*
X0215100Y0029846D02*
X0264491Y0029846D01*
X0264331Y0030445D02*
X0215100Y0030445D01*
X0215100Y0031043D02*
X0264171Y0031043D01*
X0264010Y0031642D02*
X0215100Y0031642D01*
X0215100Y0032240D02*
X0264000Y0032240D01*
X0264000Y0032839D02*
X0215100Y0032839D01*
X0215100Y0033437D02*
X0264000Y0033437D01*
X0264000Y0034036D02*
X0215100Y0034036D01*
X0215100Y0034634D02*
X0264000Y0034634D01*
X0264084Y0035233D02*
X0215100Y0035233D01*
X0215100Y0035832D02*
X0264244Y0035832D01*
X0264405Y0036430D02*
X0215100Y0036430D01*
X0215100Y0037029D02*
X0264565Y0037029D01*
X0264726Y0037627D02*
X0215100Y0037627D01*
X0215100Y0038226D02*
X0264941Y0038226D01*
X0265287Y0038824D02*
X0215100Y0038824D01*
X0215100Y0039423D02*
X0265632Y0039423D01*
X0265978Y0040021D02*
X0215100Y0040021D01*
X0215100Y0040620D02*
X0266323Y0040620D01*
X0266823Y0041218D02*
X0215100Y0041218D01*
X0215100Y0041817D02*
X0267422Y0041817D01*
X0268020Y0042415D02*
X0214951Y0042415D01*
X0214703Y0043014D02*
X0268619Y0043014D01*
X0269561Y0043612D02*
X0214362Y0043612D01*
X0213763Y0044211D02*
X0270598Y0044211D01*
X0271729Y0044809D02*
X0213165Y0044809D01*
X0212566Y0045408D02*
X0273963Y0045408D01*
X0278637Y0045408D02*
X0386921Y0045408D01*
X0386921Y0046006D02*
X0377943Y0046006D01*
X0380176Y0046605D02*
X0386921Y0046605D01*
X0386921Y0047203D02*
X0381680Y0047203D01*
X0382716Y0047802D02*
X0386921Y0047802D01*
X0386921Y0048400D02*
X0383753Y0048400D01*
X0384394Y0048999D02*
X0386921Y0048999D01*
X0386921Y0049597D02*
X0384992Y0049597D01*
X0385591Y0050196D02*
X0386921Y0050196D01*
X0386921Y0050794D02*
X0386169Y0050794D01*
X0386515Y0051393D02*
X0386921Y0051393D01*
X0386921Y0051991D02*
X0386860Y0051991D01*
X0374657Y0046006D02*
X0327943Y0046006D01*
X0327919Y0046000D02*
X0331048Y0046838D01*
X0333852Y0048458D01*
X0336142Y0050748D01*
X0337762Y0053552D01*
X0338600Y0056681D01*
X0338600Y0059919D01*
X0337762Y0063048D01*
X0336142Y0065852D01*
X0333852Y0068142D01*
X0331048Y0069762D01*
X0327919Y0070600D01*
X0324681Y0070600D01*
X0321552Y0069762D01*
X0318748Y0068142D01*
X0316458Y0065852D01*
X0314838Y0063048D01*
X0314000Y0059919D01*
X0314000Y0056681D01*
X0314838Y0053552D01*
X0316458Y0050748D01*
X0318748Y0048458D01*
X0321552Y0046838D01*
X0324681Y0046000D01*
X0327919Y0046000D01*
X0330176Y0046605D02*
X0372424Y0046605D01*
X0370920Y0047203D02*
X0331680Y0047203D01*
X0332716Y0047802D02*
X0369883Y0047802D01*
X0368847Y0048400D02*
X0333753Y0048400D01*
X0334394Y0048999D02*
X0368206Y0048999D01*
X0367608Y0049597D02*
X0334992Y0049597D01*
X0335591Y0050196D02*
X0367009Y0050196D01*
X0366431Y0050794D02*
X0336169Y0050794D01*
X0336515Y0051393D02*
X0366085Y0051393D01*
X0365739Y0051991D02*
X0336860Y0051991D01*
X0337206Y0052590D02*
X0365394Y0052590D01*
X0365048Y0053188D02*
X0337552Y0053188D01*
X0337825Y0053787D02*
X0364775Y0053787D01*
X0364615Y0054385D02*
X0337985Y0054385D01*
X0338145Y0054984D02*
X0364455Y0054984D01*
X0364294Y0055582D02*
X0338306Y0055582D01*
X0338466Y0056181D02*
X0364134Y0056181D01*
X0364000Y0056779D02*
X0338600Y0056779D01*
X0338600Y0057378D02*
X0364000Y0057378D01*
X0364000Y0057976D02*
X0338600Y0057976D01*
X0338600Y0058575D02*
X0364000Y0058575D01*
X0364000Y0059173D02*
X0338600Y0059173D01*
X0338600Y0059772D02*
X0364000Y0059772D01*
X0364121Y0060370D02*
X0338479Y0060370D01*
X0338319Y0060969D02*
X0364281Y0060969D01*
X0364442Y0061568D02*
X0338158Y0061568D01*
X0337998Y0062166D02*
X0364602Y0062166D01*
X0364762Y0062765D02*
X0337838Y0062765D01*
X0337580Y0063363D02*
X0365020Y0063363D01*
X0365366Y0063962D02*
X0337234Y0063962D01*
X0336889Y0064560D02*
X0365711Y0064560D01*
X0366057Y0065159D02*
X0336543Y0065159D01*
X0336197Y0065757D02*
X0366403Y0065757D01*
X0366961Y0066356D02*
X0335639Y0066356D01*
X0335041Y0066954D02*
X0367559Y0066954D01*
X0368158Y0067553D02*
X0334442Y0067553D01*
X0333837Y0068151D02*
X0368763Y0068151D01*
X0369799Y0068750D02*
X0332801Y0068750D01*
X0331764Y0069348D02*
X0370836Y0069348D01*
X0372242Y0069947D02*
X0330358Y0069947D01*
X0328124Y0070545D02*
X0374476Y0070545D01*
X0378124Y0070545D02*
X0386921Y0070545D01*
X0386921Y0069947D02*
X0380358Y0069947D01*
X0381764Y0069348D02*
X0386921Y0069348D01*
X0386921Y0068750D02*
X0382801Y0068750D01*
X0383837Y0068151D02*
X0386921Y0068151D01*
X0386921Y0067553D02*
X0384442Y0067553D01*
X0385041Y0066954D02*
X0386921Y0066954D01*
X0386921Y0066356D02*
X0385639Y0066356D01*
X0386197Y0065757D02*
X0386921Y0065757D01*
X0386921Y0065159D02*
X0386543Y0065159D01*
X0386889Y0064560D02*
X0386921Y0064560D01*
X0386921Y0071144D02*
X0186830Y0071144D01*
X0186232Y0071742D02*
X0386921Y0071742D01*
X0386921Y0072341D02*
X0185633Y0072341D01*
X0185035Y0072939D02*
X0386921Y0072939D01*
X0386921Y0073538D02*
X0184436Y0073538D01*
X0183838Y0074136D02*
X0386921Y0074136D01*
X0386921Y0074735D02*
X0183239Y0074735D01*
X0182641Y0075333D02*
X0386921Y0075333D01*
X0386921Y0075932D02*
X0182042Y0075932D01*
X0181431Y0076530D02*
X0386921Y0076530D01*
X0356718Y0098675D02*
X0356118Y0098675D01*
X0356118Y0099274D02*
X0356718Y0099274D01*
X0356718Y0099872D02*
X0356118Y0099872D01*
X0356118Y0100471D02*
X0356718Y0100471D01*
X0356718Y0101069D02*
X0356118Y0101069D01*
X0356118Y0101668D02*
X0356718Y0101668D01*
X0356718Y0102266D02*
X0356118Y0102266D01*
X0356118Y0102865D02*
X0356718Y0102865D01*
X0343563Y0117828D02*
X0166100Y0117828D01*
X0166100Y0118426D02*
X0343563Y0118426D01*
X0343504Y0119025D02*
X0166100Y0119025D01*
X0166100Y0119623D02*
X0343504Y0119623D01*
X0343504Y0120222D02*
X0166100Y0120222D01*
X0166100Y0120820D02*
X0343504Y0120820D01*
X0343504Y0121419D02*
X0166100Y0121419D01*
X0166100Y0122017D02*
X0343504Y0122017D01*
X0343504Y0122616D02*
X0166100Y0122616D01*
X0166100Y0123214D02*
X0343504Y0123214D01*
X0343504Y0123813D02*
X0166100Y0123813D01*
X0166100Y0124411D02*
X0343504Y0124411D01*
X0343504Y0125010D02*
X0166100Y0125010D01*
X0166100Y0125608D02*
X0343504Y0125608D01*
X0343723Y0126207D02*
X0166100Y0126207D01*
X0145803Y0138177D02*
X0138692Y0138177D01*
X0138094Y0137578D02*
X0145204Y0137578D01*
X0144606Y0136980D02*
X0120300Y0136980D01*
X0120300Y0137578D02*
X0134506Y0137578D01*
X0134685Y0137400D02*
X0137915Y0137400D01*
X0140200Y0139685D01*
X0140200Y0142915D01*
X0139200Y0143915D01*
X0139200Y0165685D01*
X0140200Y0166685D01*
X0140200Y0169915D01*
X0137915Y0172200D01*
X0134685Y0172200D01*
X0132400Y0169915D01*
X0132400Y0166685D01*
X0133400Y0165685D01*
X0133400Y0143915D01*
X0132400Y0142915D01*
X0132400Y0139685D01*
X0134685Y0137400D01*
X0133908Y0138177D02*
X0120300Y0138177D01*
X0120300Y0138775D02*
X0133309Y0138775D01*
X0132711Y0139374D02*
X0120300Y0139374D01*
X0120300Y0139972D02*
X0132400Y0139972D01*
X0132400Y0140571D02*
X0120300Y0140571D01*
X0120300Y0141170D02*
X0132400Y0141170D01*
X0132400Y0141768D02*
X0120300Y0141768D01*
X0120300Y0142367D02*
X0132400Y0142367D01*
X0132450Y0142965D02*
X0120300Y0142965D01*
X0120300Y0143564D02*
X0133048Y0143564D01*
X0133400Y0144162D02*
X0120300Y0144162D01*
X0120300Y0144761D02*
X0133400Y0144761D01*
X0133400Y0145359D02*
X0120300Y0145359D01*
X0120300Y0145958D02*
X0133400Y0145958D01*
X0133400Y0146556D02*
X0120300Y0146556D01*
X0120300Y0147155D02*
X0133400Y0147155D01*
X0133400Y0147753D02*
X0120300Y0147753D01*
X0120300Y0148352D02*
X0133400Y0148352D01*
X0133400Y0148950D02*
X0120300Y0148950D01*
X0120300Y0149549D02*
X0133400Y0149549D01*
X0133400Y0150147D02*
X0120300Y0150147D01*
X0120300Y0150746D02*
X0133400Y0150746D01*
X0133400Y0151344D02*
X0120300Y0151344D01*
X0120300Y0151943D02*
X0133400Y0151943D01*
X0133400Y0152541D02*
X0120300Y0152541D01*
X0120300Y0153140D02*
X0133400Y0153140D01*
X0133400Y0153738D02*
X0120300Y0153738D01*
X0120300Y0154337D02*
X0133400Y0154337D01*
X0133400Y0154935D02*
X0120300Y0154935D01*
X0120300Y0155534D02*
X0133400Y0155534D01*
X0133400Y0156132D02*
X0120300Y0156132D01*
X0120300Y0156731D02*
X0133400Y0156731D01*
X0133400Y0157329D02*
X0120300Y0157329D01*
X0120300Y0157928D02*
X0133400Y0157928D01*
X0133400Y0158526D02*
X0120300Y0158526D01*
X0120300Y0159125D02*
X0133400Y0159125D01*
X0133400Y0159723D02*
X0120300Y0159723D01*
X0120300Y0160322D02*
X0133400Y0160322D01*
X0133400Y0160920D02*
X0120300Y0160920D01*
X0120300Y0161519D02*
X0133400Y0161519D01*
X0133400Y0162117D02*
X0120300Y0162117D01*
X0120300Y0162716D02*
X0133400Y0162716D01*
X0133400Y0163314D02*
X0120300Y0163314D01*
X0120300Y0163913D02*
X0133400Y0163913D01*
X0133400Y0164511D02*
X0120300Y0164511D01*
X0120300Y0165110D02*
X0133400Y0165110D01*
X0133376Y0165708D02*
X0120300Y0165708D01*
X0120300Y0166307D02*
X0132778Y0166307D01*
X0132400Y0166905D02*
X0120300Y0166905D01*
X0120300Y0167504D02*
X0132400Y0167504D01*
X0132400Y0168103D02*
X0120300Y0168103D01*
X0120300Y0168701D02*
X0132400Y0168701D01*
X0132400Y0169300D02*
X0120300Y0169300D01*
X0120300Y0169898D02*
X0132400Y0169898D01*
X0132981Y0170497D02*
X0120300Y0170497D01*
X0120300Y0171095D02*
X0133580Y0171095D01*
X0134178Y0171694D02*
X0120300Y0171694D01*
X0120300Y0172292D02*
X0177500Y0172292D01*
X0177500Y0171694D02*
X0148422Y0171694D01*
X0147915Y0172200D02*
X0144685Y0172200D01*
X0142400Y0169915D01*
X0142400Y0166685D01*
X0144685Y0164400D01*
X0147915Y0164400D01*
X0150200Y0166685D01*
X0150200Y0169915D01*
X0147915Y0172200D01*
X0149020Y0171095D02*
X0177500Y0171095D01*
X0177500Y0170497D02*
X0149619Y0170497D01*
X0150200Y0169898D02*
X0177500Y0169898D01*
X0176926Y0169300D02*
X0150200Y0169300D01*
X0150200Y0168701D02*
X0176327Y0168701D01*
X0175729Y0168103D02*
X0150200Y0168103D01*
X0150200Y0167504D02*
X0175130Y0167504D01*
X0174532Y0166905D02*
X0150200Y0166905D01*
X0149822Y0166307D02*
X0173933Y0166307D01*
X0173334Y0165708D02*
X0149224Y0165708D01*
X0148625Y0165110D02*
X0172736Y0165110D01*
X0172137Y0164511D02*
X0148027Y0164511D01*
X0144573Y0164511D02*
X0139200Y0164511D01*
X0139200Y0163913D02*
X0171539Y0163913D01*
X0170940Y0163314D02*
X0139200Y0163314D01*
X0139200Y0162716D02*
X0170342Y0162716D01*
X0169743Y0162117D02*
X0139200Y0162117D01*
X0139200Y0161519D02*
X0169145Y0161519D01*
X0168546Y0160920D02*
X0139200Y0160920D01*
X0139200Y0160322D02*
X0167948Y0160322D01*
X0167349Y0159723D02*
X0139200Y0159723D01*
X0139200Y0159125D02*
X0166751Y0159125D01*
X0166152Y0158526D02*
X0139200Y0158526D01*
X0139200Y0157928D02*
X0165554Y0157928D01*
X0164955Y0157329D02*
X0139200Y0157329D01*
X0139200Y0156731D02*
X0164357Y0156731D01*
X0163758Y0156132D02*
X0139200Y0156132D01*
X0139200Y0155534D02*
X0163160Y0155534D01*
X0162561Y0154935D02*
X0139200Y0154935D01*
X0139200Y0154337D02*
X0161963Y0154337D01*
X0161364Y0153738D02*
X0139200Y0153738D01*
X0139200Y0153140D02*
X0160766Y0153140D01*
X0160167Y0152541D02*
X0139200Y0152541D01*
X0139200Y0151943D02*
X0159569Y0151943D01*
X0158970Y0151344D02*
X0139200Y0151344D01*
X0139200Y0150746D02*
X0158372Y0150746D01*
X0157773Y0150147D02*
X0139200Y0150147D01*
X0139200Y0149549D02*
X0157175Y0149549D01*
X0156576Y0148950D02*
X0139200Y0148950D01*
X0139200Y0148352D02*
X0155978Y0148352D01*
X0155379Y0147753D02*
X0139200Y0147753D01*
X0139200Y0147155D02*
X0154781Y0147155D01*
X0154182Y0146556D02*
X0139200Y0146556D01*
X0139200Y0145958D02*
X0153584Y0145958D01*
X0152985Y0145359D02*
X0139200Y0145359D01*
X0139200Y0144761D02*
X0152387Y0144761D01*
X0151788Y0144162D02*
X0139200Y0144162D01*
X0139552Y0143564D02*
X0151190Y0143564D01*
X0150591Y0142965D02*
X0140150Y0142965D01*
X0140200Y0142367D02*
X0149993Y0142367D01*
X0149394Y0141768D02*
X0140200Y0141768D01*
X0140200Y0141170D02*
X0148796Y0141170D01*
X0148197Y0140571D02*
X0140200Y0140571D01*
X0140200Y0139972D02*
X0147598Y0139972D01*
X0147000Y0139374D02*
X0139889Y0139374D01*
X0139291Y0138775D02*
X0146401Y0138775D01*
X0144007Y0136381D02*
X0120300Y0136381D01*
X0120300Y0135783D02*
X0143409Y0135783D01*
X0142810Y0135184D02*
X0120300Y0135184D01*
X0120300Y0134586D02*
X0135563Y0134586D01*
X0134873Y0133987D02*
X0120300Y0133987D01*
X0120300Y0133389D02*
X0134275Y0133389D01*
X0133676Y0132790D02*
X0120300Y0132790D01*
X0120300Y0132192D02*
X0133078Y0132192D01*
X0132479Y0131593D02*
X0120300Y0131593D01*
X0120300Y0130995D02*
X0131881Y0130995D01*
X0131282Y0130396D02*
X0120300Y0130396D01*
X0112987Y0133987D02*
X0083300Y0133987D01*
X0083300Y0133389D02*
X0112389Y0133389D01*
X0111790Y0132790D02*
X0083300Y0132790D01*
X0083300Y0132192D02*
X0111192Y0132192D01*
X0110593Y0131593D02*
X0083300Y0131593D01*
X0083300Y0130995D02*
X0109995Y0130995D01*
X0109396Y0130396D02*
X0083300Y0130396D01*
X0083300Y0129798D02*
X0108798Y0129798D01*
X0108199Y0129199D02*
X0083300Y0129199D01*
X0083300Y0128601D02*
X0107601Y0128601D01*
X0107002Y0128002D02*
X0083300Y0128002D01*
X0083300Y0127404D02*
X0106404Y0127404D01*
X0105805Y0126805D02*
X0083300Y0126805D01*
X0083300Y0126207D02*
X0105207Y0126207D01*
X0104608Y0125608D02*
X0083300Y0125608D01*
X0083300Y0125010D02*
X0104300Y0125010D01*
X0104300Y0124411D02*
X0083300Y0124411D01*
X0083300Y0123813D02*
X0104300Y0123813D01*
X0104300Y0123214D02*
X0083300Y0123214D01*
X0083300Y0122616D02*
X0104300Y0122616D01*
X0104300Y0122017D02*
X0083300Y0122017D01*
X0083300Y0121419D02*
X0104300Y0121419D01*
X0104300Y0120820D02*
X0083300Y0120820D01*
X0083300Y0120222D02*
X0104300Y0120222D01*
X0104300Y0119623D02*
X0083300Y0119623D01*
X0083300Y0119025D02*
X0104300Y0119025D01*
X0104300Y0118426D02*
X0083300Y0118426D01*
X0083300Y0117828D02*
X0104300Y0117828D01*
X0104300Y0117229D02*
X0083300Y0117229D01*
X0083300Y0116631D02*
X0104300Y0116631D01*
X0104300Y0116032D02*
X0083300Y0116032D01*
X0083300Y0115434D02*
X0104300Y0115434D01*
X0104300Y0114835D02*
X0083300Y0114835D01*
X0083300Y0114237D02*
X0104300Y0114237D01*
X0104300Y0113638D02*
X0083300Y0113638D01*
X0083300Y0113039D02*
X0104300Y0113039D01*
X0104300Y0112441D02*
X0083300Y0112441D01*
X0083300Y0111842D02*
X0104300Y0111842D01*
X0104300Y0111244D02*
X0083300Y0111244D01*
X0083300Y0110645D02*
X0104300Y0110645D01*
X0104300Y0110047D02*
X0083300Y0110047D01*
X0083300Y0109448D02*
X0104300Y0109448D01*
X0104300Y0108850D02*
X0083300Y0108850D01*
X0083300Y0108251D02*
X0104300Y0108251D01*
X0104300Y0107653D02*
X0083300Y0107653D01*
X0083300Y0107054D02*
X0104300Y0107054D01*
X0104300Y0106456D02*
X0083300Y0106456D01*
X0083300Y0105857D02*
X0104300Y0105857D01*
X0104300Y0105259D02*
X0083300Y0105259D01*
X0083300Y0104660D02*
X0104300Y0104660D01*
X0104300Y0104062D02*
X0083300Y0104062D01*
X0083300Y0103463D02*
X0104300Y0103463D01*
X0104300Y0102865D02*
X0083300Y0102865D01*
X0083300Y0102266D02*
X0104300Y0102266D01*
X0104300Y0101668D02*
X0083300Y0101668D01*
X0083300Y0101069D02*
X0104300Y0101069D01*
X0104300Y0100471D02*
X0083300Y0100471D01*
X0083300Y0099872D02*
X0104300Y0099872D01*
X0104300Y0099274D02*
X0083300Y0099274D01*
X0083300Y0098675D02*
X0104300Y0098675D01*
X0104300Y0098077D02*
X0083300Y0098077D01*
X0120300Y0084311D02*
X0127915Y0084311D01*
X0128514Y0083712D02*
X0120300Y0083712D01*
X0120300Y0083114D02*
X0129112Y0083114D01*
X0129711Y0082515D02*
X0120300Y0082515D01*
X0120300Y0081917D02*
X0130309Y0081917D01*
X0130908Y0081318D02*
X0120300Y0081318D01*
X0120300Y0080720D02*
X0131506Y0080720D01*
X0132105Y0080121D02*
X0120300Y0080121D01*
X0120300Y0079523D02*
X0132703Y0079523D01*
X0133302Y0078924D02*
X0120300Y0078924D01*
X0120300Y0078326D02*
X0133900Y0078326D01*
X0134499Y0077727D02*
X0120300Y0077727D01*
X0120300Y0077129D02*
X0135097Y0077129D01*
X0135696Y0076530D02*
X0120300Y0076530D01*
X0120300Y0075932D02*
X0136294Y0075932D01*
X0136893Y0075333D02*
X0120300Y0075333D01*
X0120300Y0074735D02*
X0137491Y0074735D01*
X0138090Y0074136D02*
X0120300Y0074136D01*
X0120300Y0073538D02*
X0138688Y0073538D01*
X0139287Y0072939D02*
X0120300Y0072939D01*
X0120300Y0072341D02*
X0139885Y0072341D01*
X0140484Y0071742D02*
X0120300Y0071742D01*
X0120300Y0071144D02*
X0141082Y0071144D01*
X0141681Y0070545D02*
X0120300Y0070545D01*
X0120300Y0069947D02*
X0142279Y0069947D01*
X0142878Y0069348D02*
X0120300Y0069348D01*
X0120300Y0068750D02*
X0143476Y0068750D01*
X0144075Y0068151D02*
X0137964Y0068151D01*
X0137915Y0068200D02*
X0134685Y0068200D01*
X0132400Y0065915D01*
X0132400Y0062685D01*
X0133400Y0061685D01*
X0133400Y0040915D01*
X0132400Y0039915D01*
X0132400Y0036685D01*
X0134685Y0034400D01*
X0137915Y0034400D01*
X0140200Y0036685D01*
X0140200Y0039915D01*
X0139200Y0040915D01*
X0139200Y0061685D01*
X0140200Y0062685D01*
X0140200Y0065915D01*
X0137915Y0068200D01*
X0138563Y0067553D02*
X0144500Y0067553D01*
X0144500Y0066954D02*
X0139161Y0066954D01*
X0139760Y0066356D02*
X0144500Y0066356D01*
X0144500Y0065757D02*
X0140200Y0065757D01*
X0140200Y0065159D02*
X0144500Y0065159D01*
X0144500Y0064560D02*
X0140200Y0064560D01*
X0140200Y0063962D02*
X0144500Y0063962D01*
X0144500Y0063363D02*
X0140200Y0063363D01*
X0140200Y0062765D02*
X0144500Y0062765D01*
X0144500Y0062166D02*
X0139681Y0062166D01*
X0139200Y0061568D02*
X0144500Y0061568D01*
X0144500Y0060969D02*
X0139200Y0060969D01*
X0139200Y0060370D02*
X0144500Y0060370D01*
X0144500Y0059772D02*
X0139200Y0059772D01*
X0139200Y0059173D02*
X0144500Y0059173D01*
X0144500Y0058575D02*
X0139200Y0058575D01*
X0139200Y0057976D02*
X0144500Y0057976D01*
X0144500Y0057378D02*
X0139200Y0057378D01*
X0139200Y0056779D02*
X0144500Y0056779D01*
X0144650Y0056181D02*
X0139200Y0056181D01*
X0139200Y0055582D02*
X0144898Y0055582D01*
X0145242Y0054984D02*
X0139200Y0054984D01*
X0139200Y0054385D02*
X0145841Y0054385D01*
X0146439Y0053787D02*
X0139200Y0053787D01*
X0139200Y0053188D02*
X0147038Y0053188D01*
X0147636Y0052590D02*
X0139200Y0052590D01*
X0139200Y0051991D02*
X0148235Y0051991D01*
X0148833Y0051393D02*
X0139200Y0051393D01*
X0139200Y0050794D02*
X0149432Y0050794D01*
X0150030Y0050196D02*
X0139200Y0050196D01*
X0139200Y0049597D02*
X0150629Y0049597D01*
X0151227Y0048999D02*
X0139200Y0048999D01*
X0139200Y0048400D02*
X0151826Y0048400D01*
X0152424Y0047802D02*
X0139200Y0047802D01*
X0139200Y0047203D02*
X0153023Y0047203D01*
X0153621Y0046605D02*
X0139200Y0046605D01*
X0139200Y0046006D02*
X0154220Y0046006D01*
X0154818Y0045408D02*
X0139200Y0045408D01*
X0139200Y0044809D02*
X0155417Y0044809D01*
X0156015Y0044211D02*
X0139200Y0044211D01*
X0139200Y0043612D02*
X0156614Y0043612D01*
X0157212Y0043014D02*
X0139200Y0043014D01*
X0139200Y0042415D02*
X0157811Y0042415D01*
X0158409Y0041817D02*
X0148299Y0041817D01*
X0147915Y0042200D02*
X0144685Y0042200D01*
X0142400Y0039915D01*
X0142400Y0036685D01*
X0144685Y0034400D01*
X0147915Y0034400D01*
X0150200Y0036685D01*
X0150200Y0039915D01*
X0147915Y0042200D01*
X0148897Y0041218D02*
X0159008Y0041218D01*
X0159606Y0040620D02*
X0149496Y0040620D01*
X0150094Y0040021D02*
X0160205Y0040021D01*
X0160803Y0039423D02*
X0150200Y0039423D01*
X0150200Y0038824D02*
X0161402Y0038824D01*
X0162000Y0038226D02*
X0150200Y0038226D01*
X0150200Y0037627D02*
X0162599Y0037627D01*
X0163197Y0037029D02*
X0150200Y0037029D01*
X0149945Y0036430D02*
X0163796Y0036430D01*
X0164394Y0035832D02*
X0149347Y0035832D01*
X0148748Y0035233D02*
X0164993Y0035233D01*
X0165591Y0034634D02*
X0148150Y0034634D01*
X0144450Y0034634D02*
X0138150Y0034634D01*
X0138748Y0035233D02*
X0143852Y0035233D01*
X0143253Y0035832D02*
X0139347Y0035832D01*
X0139945Y0036430D02*
X0142655Y0036430D01*
X0142400Y0037029D02*
X0140200Y0037029D01*
X0140200Y0037627D02*
X0142400Y0037627D01*
X0142400Y0038226D02*
X0140200Y0038226D01*
X0140200Y0038824D02*
X0142400Y0038824D01*
X0142400Y0039423D02*
X0140200Y0039423D01*
X0140094Y0040021D02*
X0142506Y0040021D01*
X0143104Y0040620D02*
X0139496Y0040620D01*
X0139200Y0041218D02*
X0143703Y0041218D01*
X0144301Y0041817D02*
X0139200Y0041817D01*
X0133400Y0041817D02*
X0120300Y0041817D01*
X0120300Y0042415D02*
X0133400Y0042415D01*
X0133400Y0043014D02*
X0120300Y0043014D01*
X0120300Y0043612D02*
X0133400Y0043612D01*
X0133400Y0044211D02*
X0120300Y0044211D01*
X0120300Y0044809D02*
X0133400Y0044809D01*
X0133400Y0045408D02*
X0120300Y0045408D01*
X0120300Y0046006D02*
X0133400Y0046006D01*
X0133400Y0046605D02*
X0120300Y0046605D01*
X0120300Y0047203D02*
X0133400Y0047203D01*
X0133400Y0047802D02*
X0120300Y0047802D01*
X0120300Y0048400D02*
X0133400Y0048400D01*
X0133400Y0048999D02*
X0120300Y0048999D01*
X0120300Y0049597D02*
X0133400Y0049597D01*
X0133400Y0050196D02*
X0120300Y0050196D01*
X0120300Y0050794D02*
X0133400Y0050794D01*
X0133400Y0051393D02*
X0120300Y0051393D01*
X0120300Y0051991D02*
X0133400Y0051991D01*
X0133400Y0052590D02*
X0120300Y0052590D01*
X0120300Y0053188D02*
X0133400Y0053188D01*
X0133400Y0053787D02*
X0120300Y0053787D01*
X0120300Y0054385D02*
X0133400Y0054385D01*
X0133400Y0054984D02*
X0120300Y0054984D01*
X0120300Y0055582D02*
X0133400Y0055582D01*
X0133400Y0056181D02*
X0120300Y0056181D01*
X0120300Y0056779D02*
X0133400Y0056779D01*
X0133400Y0057378D02*
X0120300Y0057378D01*
X0120300Y0057976D02*
X0133400Y0057976D01*
X0133400Y0058575D02*
X0120300Y0058575D01*
X0120300Y0059173D02*
X0133400Y0059173D01*
X0133400Y0059772D02*
X0120300Y0059772D01*
X0120300Y0060370D02*
X0133400Y0060370D01*
X0133400Y0060969D02*
X0120300Y0060969D01*
X0120300Y0061568D02*
X0133400Y0061568D01*
X0132919Y0062166D02*
X0120300Y0062166D01*
X0120300Y0062765D02*
X0132400Y0062765D01*
X0132400Y0063363D02*
X0120300Y0063363D01*
X0120300Y0063962D02*
X0132400Y0063962D01*
X0132400Y0064560D02*
X0120300Y0064560D01*
X0120300Y0065159D02*
X0132400Y0065159D01*
X0132400Y0065757D02*
X0120300Y0065757D01*
X0120300Y0066356D02*
X0132840Y0066356D01*
X0133439Y0066954D02*
X0120300Y0066954D01*
X0120300Y0067553D02*
X0134037Y0067553D01*
X0134636Y0068151D02*
X0120300Y0068151D01*
X0094116Y0060969D02*
X0083300Y0060969D01*
X0083300Y0061568D02*
X0093517Y0061568D01*
X0092919Y0062166D02*
X0083300Y0062166D01*
X0083300Y0062765D02*
X0092400Y0062765D01*
X0092400Y0063363D02*
X0083300Y0063363D01*
X0083300Y0063962D02*
X0092400Y0063962D01*
X0120300Y0041218D02*
X0133400Y0041218D01*
X0133104Y0040620D02*
X0120300Y0040620D01*
X0120300Y0040021D02*
X0132506Y0040021D01*
X0132400Y0039423D02*
X0120300Y0039423D01*
X0120300Y0038824D02*
X0132400Y0038824D01*
X0132400Y0038226D02*
X0120300Y0038226D01*
X0120300Y0037627D02*
X0132400Y0037627D01*
X0132400Y0037029D02*
X0120300Y0037029D01*
X0120300Y0036430D02*
X0132655Y0036430D01*
X0133253Y0035832D02*
X0120300Y0035832D01*
X0120300Y0035233D02*
X0133852Y0035233D01*
X0134450Y0034634D02*
X0120300Y0034634D01*
X0120300Y0034036D02*
X0166190Y0034036D01*
X0166789Y0033437D02*
X0120300Y0033437D01*
X0120300Y0032839D02*
X0167387Y0032839D01*
X0204786Y0053188D02*
X0315048Y0053188D01*
X0314775Y0053787D02*
X0204187Y0053787D01*
X0203589Y0054385D02*
X0314615Y0054385D01*
X0314455Y0054984D02*
X0202990Y0054984D01*
X0202392Y0055582D02*
X0314294Y0055582D01*
X0314134Y0056181D02*
X0201793Y0056181D01*
X0201195Y0056779D02*
X0314000Y0056779D01*
X0314000Y0057378D02*
X0200596Y0057378D01*
X0199998Y0057976D02*
X0314000Y0057976D01*
X0314000Y0058575D02*
X0199399Y0058575D01*
X0198801Y0059173D02*
X0314000Y0059173D01*
X0314000Y0059772D02*
X0198202Y0059772D01*
X0197604Y0060370D02*
X0314121Y0060370D01*
X0314281Y0060969D02*
X0197005Y0060969D01*
X0196406Y0061568D02*
X0314442Y0061568D01*
X0314602Y0062166D02*
X0195808Y0062166D01*
X0195209Y0062765D02*
X0314762Y0062765D01*
X0315020Y0063363D02*
X0194611Y0063363D01*
X0194012Y0063962D02*
X0315366Y0063962D01*
X0315711Y0064560D02*
X0193414Y0064560D01*
X0192815Y0065159D02*
X0316057Y0065159D01*
X0316403Y0065757D02*
X0192217Y0065757D01*
X0191618Y0066356D02*
X0316961Y0066356D01*
X0317559Y0066954D02*
X0191020Y0066954D01*
X0190421Y0067553D02*
X0318158Y0067553D01*
X0318763Y0068151D02*
X0189823Y0068151D01*
X0189224Y0068750D02*
X0319799Y0068750D01*
X0320836Y0069348D02*
X0188626Y0069348D01*
X0188027Y0069947D02*
X0322242Y0069947D01*
X0324476Y0070545D02*
X0187429Y0070545D01*
X0205384Y0052590D02*
X0315394Y0052590D01*
X0315739Y0051991D02*
X0205983Y0051991D01*
X0206581Y0051393D02*
X0316085Y0051393D01*
X0316431Y0050794D02*
X0207180Y0050794D01*
X0207778Y0050196D02*
X0317009Y0050196D01*
X0317608Y0049597D02*
X0208377Y0049597D01*
X0208975Y0048999D02*
X0318206Y0048999D01*
X0318847Y0048400D02*
X0209574Y0048400D01*
X0210172Y0047802D02*
X0319883Y0047802D01*
X0320920Y0047203D02*
X0210771Y0047203D01*
X0211369Y0046605D02*
X0322424Y0046605D01*
X0324657Y0046006D02*
X0211968Y0046006D01*
X0280871Y0044809D02*
X0386921Y0044809D01*
X0386921Y0044211D02*
X0282002Y0044211D01*
X0283039Y0043612D02*
X0386921Y0043612D01*
X0386921Y0043014D02*
X0283981Y0043014D01*
X0284580Y0042415D02*
X0386921Y0042415D01*
X0386921Y0041817D02*
X0285178Y0041817D01*
X0285777Y0041218D02*
X0386921Y0041218D01*
X0386921Y0040620D02*
X0286277Y0040620D01*
X0286622Y0040021D02*
X0386921Y0040021D01*
X0386921Y0039423D02*
X0286968Y0039423D01*
X0287313Y0038824D02*
X0386921Y0038824D01*
X0386921Y0038226D02*
X0287659Y0038226D01*
X0287874Y0037627D02*
X0386921Y0037627D01*
X0386921Y0037029D02*
X0288035Y0037029D01*
X0288195Y0036430D02*
X0386921Y0036430D01*
X0386921Y0035832D02*
X0288356Y0035832D01*
X0288516Y0035233D02*
X0386921Y0035233D01*
X0386921Y0034634D02*
X0288600Y0034634D01*
X0288600Y0034036D02*
X0386921Y0034036D01*
X0386921Y0033437D02*
X0288600Y0033437D01*
X0288600Y0032839D02*
X0386921Y0032839D01*
X0386921Y0032240D02*
X0288600Y0032240D01*
X0288590Y0031642D02*
X0386921Y0031642D01*
X0386921Y0031043D02*
X0288429Y0031043D01*
X0288269Y0030445D02*
X0386921Y0030445D01*
X0386921Y0029846D02*
X0288108Y0029846D01*
X0287948Y0029248D02*
X0386921Y0029248D01*
X0386921Y0028649D02*
X0287788Y0028649D01*
X0287472Y0028051D02*
X0386921Y0028051D01*
X0386921Y0027452D02*
X0287127Y0027452D01*
X0286781Y0026854D02*
X0386921Y0026854D01*
X0386921Y0026255D02*
X0286436Y0026255D01*
X0286052Y0025657D02*
X0386921Y0025657D01*
X0386921Y0025058D02*
X0285453Y0025058D01*
X0284855Y0024460D02*
X0386921Y0024460D01*
X0386921Y0023861D02*
X0284256Y0023861D01*
X0283515Y0023263D02*
X0386921Y0023263D01*
X0386921Y0022664D02*
X0282478Y0022664D01*
X0281442Y0022066D02*
X0386921Y0022066D01*
X0386921Y0021467D02*
X0279663Y0021467D01*
X0173852Y0094486D02*
X0152285Y0094486D01*
X0152554Y0094622D02*
X0153101Y0095020D01*
X0153580Y0095499D01*
X0153978Y0096046D01*
X0154285Y0096649D01*
X0154494Y0097293D01*
X0154600Y0097962D01*
X0154600Y0098000D01*
X0147600Y0098000D01*
X0147600Y0094000D01*
X0150638Y0094000D01*
X0151307Y0094106D01*
X0151951Y0094315D01*
X0152554Y0094622D01*
X0153165Y0095084D02*
X0174450Y0095084D01*
X0175049Y0095683D02*
X0153713Y0095683D01*
X0154097Y0096281D02*
X0175647Y0096281D01*
X0176246Y0096880D02*
X0154360Y0096880D01*
X0154523Y0097478D02*
X0176844Y0097478D01*
X0177443Y0098077D02*
X0147600Y0098077D01*
X0147600Y0097478D02*
X0147000Y0097478D01*
X0147000Y0096880D02*
X0147600Y0096880D01*
X0147600Y0096281D02*
X0147000Y0096281D01*
X0147000Y0095683D02*
X0147600Y0095683D01*
X0147600Y0095084D02*
X0147000Y0095084D01*
X0147000Y0094486D02*
X0147600Y0094486D01*
X0154594Y0098675D02*
X0178041Y0098675D01*
X0158264Y0113638D02*
X0120300Y0113638D01*
X0120300Y0114237D02*
X0142874Y0114237D01*
X0128675Y0114835D02*
X0120300Y0114835D01*
X0120300Y0115434D02*
X0128076Y0115434D01*
X0128047Y0116032D02*
X0120300Y0116032D01*
X0120300Y0116631D02*
X0128047Y0116631D01*
X0128047Y0117229D02*
X0120300Y0117229D01*
X0120300Y0117828D02*
X0128047Y0117828D01*
X0128047Y0118426D02*
X0120300Y0118426D01*
X0120300Y0119025D02*
X0128047Y0119025D01*
X0128047Y0119623D02*
X0120300Y0119623D01*
X0120596Y0120222D02*
X0128047Y0120222D01*
X0128047Y0120820D02*
X0121194Y0120820D01*
X0121793Y0121419D02*
X0128047Y0121419D01*
X0128407Y0122017D02*
X0122391Y0122017D01*
X0113300Y0134586D02*
X0083300Y0134586D01*
X0083300Y0135184D02*
X0113300Y0135184D01*
X0113300Y0135783D02*
X0083300Y0135783D01*
X0083300Y0136381D02*
X0113300Y0136381D01*
X0113300Y0136980D02*
X0083300Y0136980D01*
X0083300Y0137578D02*
X0094506Y0137578D01*
X0094685Y0137400D02*
X0096000Y0137400D01*
X0096000Y0141000D01*
X0096600Y0141000D01*
X0096600Y0141600D01*
X0100200Y0141600D01*
X0100200Y0142915D01*
X0097915Y0145200D01*
X0096600Y0145200D01*
X0096600Y0141600D01*
X0096000Y0141600D01*
X0096000Y0145200D01*
X0094685Y0145200D01*
X0092400Y0142915D01*
X0092400Y0141600D01*
X0096000Y0141600D01*
X0096000Y0141000D01*
X0092400Y0141000D01*
X0092400Y0139685D01*
X0094685Y0137400D01*
X0093908Y0138177D02*
X0083300Y0138177D01*
X0083300Y0138775D02*
X0093309Y0138775D01*
X0092711Y0139374D02*
X0083300Y0139374D01*
X0083300Y0139972D02*
X0092400Y0139972D01*
X0092400Y0140571D02*
X0083300Y0140571D01*
X0083300Y0141170D02*
X0096000Y0141170D01*
X0096000Y0141768D02*
X0096600Y0141768D01*
X0096600Y0141170D02*
X0113300Y0141170D01*
X0113300Y0141768D02*
X0100200Y0141768D01*
X0100200Y0142367D02*
X0113300Y0142367D01*
X0113300Y0142965D02*
X0100150Y0142965D01*
X0099552Y0143564D02*
X0113300Y0143564D01*
X0113300Y0144162D02*
X0098953Y0144162D01*
X0098355Y0144761D02*
X0113300Y0144761D01*
X0113300Y0145359D02*
X0083300Y0145359D01*
X0083300Y0144761D02*
X0094245Y0144761D01*
X0093647Y0144162D02*
X0083300Y0144162D01*
X0083300Y0143564D02*
X0093048Y0143564D01*
X0092450Y0142965D02*
X0083300Y0142965D01*
X0083300Y0142367D02*
X0092400Y0142367D01*
X0092400Y0141768D02*
X0083300Y0141768D01*
X0083300Y0145958D02*
X0113300Y0145958D01*
X0113300Y0146556D02*
X0083300Y0146556D01*
X0083300Y0147155D02*
X0113300Y0147155D01*
X0113300Y0147753D02*
X0083300Y0147753D01*
X0083300Y0148352D02*
X0113300Y0148352D01*
X0113300Y0148950D02*
X0083300Y0148950D01*
X0083300Y0149549D02*
X0113300Y0149549D01*
X0113300Y0150147D02*
X0083300Y0150147D01*
X0083300Y0150746D02*
X0113300Y0150746D01*
X0113300Y0151344D02*
X0083300Y0151344D01*
X0083300Y0151943D02*
X0113300Y0151943D01*
X0113300Y0152541D02*
X0083300Y0152541D01*
X0083300Y0153140D02*
X0113300Y0153140D01*
X0113300Y0153738D02*
X0083300Y0153738D01*
X0083300Y0154337D02*
X0113300Y0154337D01*
X0113300Y0154935D02*
X0083300Y0154935D01*
X0083300Y0155534D02*
X0113300Y0155534D01*
X0113300Y0156132D02*
X0083300Y0156132D01*
X0083300Y0156731D02*
X0113300Y0156731D01*
X0113300Y0157329D02*
X0083300Y0157329D01*
X0083300Y0157928D02*
X0113300Y0157928D01*
X0113300Y0158526D02*
X0083300Y0158526D01*
X0083300Y0159125D02*
X0113300Y0159125D01*
X0113300Y0159723D02*
X0083300Y0159723D01*
X0083300Y0160322D02*
X0113300Y0160322D01*
X0113300Y0160920D02*
X0083300Y0160920D01*
X0083300Y0161519D02*
X0113300Y0161519D01*
X0113300Y0162117D02*
X0083300Y0162117D01*
X0083300Y0162716D02*
X0113300Y0162716D01*
X0113300Y0163314D02*
X0083300Y0163314D01*
X0083300Y0163913D02*
X0113300Y0163913D01*
X0113300Y0164511D02*
X0083300Y0164511D01*
X0083300Y0165110D02*
X0113300Y0165110D01*
X0113300Y0165708D02*
X0083300Y0165708D01*
X0083300Y0166307D02*
X0113300Y0166307D01*
X0113300Y0166905D02*
X0083300Y0166905D01*
X0083300Y0167504D02*
X0113300Y0167504D01*
X0113300Y0168103D02*
X0102259Y0168103D01*
X0102215Y0168027D02*
X0102386Y0168323D01*
X0102475Y0168654D01*
X0102475Y0173400D01*
X0096600Y0173400D01*
X0096600Y0174000D01*
X0096000Y0174000D01*
X0096000Y0179875D01*
X0091254Y0179875D01*
X0090923Y0179786D01*
X0090627Y0179615D01*
X0090385Y0179373D01*
X0090214Y0179077D01*
X0090125Y0178746D01*
X0090125Y0174000D01*
X0096000Y0174000D01*
X0096000Y0173400D01*
X0090125Y0173400D01*
X0090125Y0168654D01*
X0090214Y0168323D01*
X0090385Y0168027D01*
X0090627Y0167785D01*
X0090923Y0167614D01*
X0091254Y0167525D01*
X0096000Y0167525D01*
X0096000Y0173400D01*
X0096600Y0173400D01*
X0096600Y0167525D01*
X0101346Y0167525D01*
X0101677Y0167614D01*
X0101973Y0167785D01*
X0102215Y0168027D01*
X0102475Y0168701D02*
X0113300Y0168701D01*
X0113300Y0169300D02*
X0102475Y0169300D01*
X0102475Y0169898D02*
X0113300Y0169898D01*
X0113300Y0170497D02*
X0102475Y0170497D01*
X0102475Y0171095D02*
X0113300Y0171095D01*
X0113300Y0171694D02*
X0102475Y0171694D01*
X0102475Y0172292D02*
X0113300Y0172292D01*
X0113300Y0172891D02*
X0102475Y0172891D01*
X0102475Y0174000D02*
X0102475Y0178746D01*
X0102386Y0179077D01*
X0102215Y0179373D01*
X0101973Y0179615D01*
X0101677Y0179786D01*
X0101346Y0179875D01*
X0096600Y0179875D01*
X0096600Y0174000D01*
X0102475Y0174000D01*
X0102475Y0174088D02*
X0113300Y0174088D01*
X0113300Y0174686D02*
X0102475Y0174686D01*
X0102475Y0175285D02*
X0113300Y0175285D01*
X0113300Y0175883D02*
X0102475Y0175883D01*
X0102475Y0176482D02*
X0113300Y0176482D01*
X0113300Y0177080D02*
X0102475Y0177080D01*
X0102475Y0177679D02*
X0113300Y0177679D01*
X0113300Y0178277D02*
X0102475Y0178277D01*
X0102440Y0178876D02*
X0113300Y0178876D01*
X0113300Y0179474D02*
X0102114Y0179474D01*
X0096600Y0179474D02*
X0096000Y0179474D01*
X0096000Y0178876D02*
X0096600Y0178876D01*
X0096600Y0178277D02*
X0096000Y0178277D01*
X0096000Y0177679D02*
X0096600Y0177679D01*
X0096600Y0177080D02*
X0096000Y0177080D01*
X0096000Y0176482D02*
X0096600Y0176482D01*
X0096600Y0175883D02*
X0096000Y0175883D01*
X0096000Y0175285D02*
X0096600Y0175285D01*
X0096600Y0174686D02*
X0096000Y0174686D01*
X0096000Y0174088D02*
X0096600Y0174088D01*
X0096600Y0173489D02*
X0113300Y0173489D01*
X0120300Y0173489D02*
X0177500Y0173489D01*
X0177500Y0172891D02*
X0120300Y0172891D01*
X0120300Y0174088D02*
X0177500Y0174088D01*
X0177500Y0174686D02*
X0120300Y0174686D01*
X0120300Y0175285D02*
X0177500Y0175285D01*
X0177500Y0175883D02*
X0120300Y0175883D01*
X0120300Y0176482D02*
X0177500Y0176482D01*
X0177500Y0177080D02*
X0120300Y0177080D01*
X0120300Y0177679D02*
X0177317Y0177679D01*
X0177069Y0178277D02*
X0120300Y0178277D01*
X0120300Y0178876D02*
X0177000Y0178876D01*
X0177000Y0179474D02*
X0120300Y0179474D01*
X0120300Y0180073D02*
X0177000Y0180073D01*
X0177000Y0180671D02*
X0120300Y0180671D01*
X0120300Y0181270D02*
X0177000Y0181270D01*
X0177000Y0181868D02*
X0120300Y0181868D01*
X0120300Y0182467D02*
X0177000Y0182467D01*
X0177000Y0183065D02*
X0120300Y0183065D01*
X0120300Y0183664D02*
X0177000Y0183664D01*
X0177000Y0184262D02*
X0120300Y0184262D01*
X0120300Y0184861D02*
X0177000Y0184861D01*
X0177000Y0185459D02*
X0120300Y0185459D01*
X0120300Y0186058D02*
X0177000Y0186058D01*
X0177208Y0186656D02*
X0120300Y0186656D01*
X0120300Y0187255D02*
X0177455Y0187255D01*
X0177772Y0187853D02*
X0120300Y0187853D01*
X0120300Y0188452D02*
X0178371Y0188452D01*
X0179118Y0189050D02*
X0120300Y0189050D01*
X0120300Y0189649D02*
X0386921Y0189649D01*
X0386921Y0190247D02*
X0120300Y0190247D01*
X0120300Y0190846D02*
X0386921Y0190846D01*
X0386921Y0191444D02*
X0120300Y0191444D01*
X0120300Y0192043D02*
X0386921Y0192043D01*
X0386921Y0192641D02*
X0120300Y0192641D01*
X0120300Y0193240D02*
X0386921Y0193240D01*
X0386921Y0189050D02*
X0213482Y0189050D01*
X0214229Y0188452D02*
X0386921Y0188452D01*
X0386921Y0187853D02*
X0214828Y0187853D01*
X0215145Y0187255D02*
X0386921Y0187255D01*
X0386921Y0186656D02*
X0215392Y0186656D01*
X0215600Y0186058D02*
X0386921Y0186058D01*
X0355537Y0126207D02*
X0354937Y0126207D01*
X0354937Y0125608D02*
X0355537Y0125608D01*
X0355537Y0125010D02*
X0354937Y0125010D01*
X0354937Y0124411D02*
X0355537Y0124411D01*
X0355537Y0123813D02*
X0354937Y0123813D01*
X0354937Y0123214D02*
X0355537Y0123214D01*
X0355537Y0122616D02*
X0354937Y0122616D01*
X0351378Y0122616D02*
X0351222Y0122616D01*
X0351222Y0123214D02*
X0351378Y0123214D01*
X0351378Y0123813D02*
X0351222Y0123813D01*
X0351222Y0124411D02*
X0351378Y0124411D01*
X0351378Y0125010D02*
X0351222Y0125010D01*
X0351222Y0125608D02*
X0351378Y0125608D01*
X0351614Y0126207D02*
X0351003Y0126207D01*
X0272744Y0161519D02*
X0193893Y0161519D01*
X0194491Y0162117D02*
X0271069Y0162117D01*
X0270032Y0162716D02*
X0194757Y0162716D01*
X0195005Y0163314D02*
X0268995Y0163314D01*
X0268292Y0163913D02*
X0195100Y0163913D01*
X0195100Y0164511D02*
X0267694Y0164511D01*
X0267095Y0165110D02*
X0195100Y0165110D01*
X0195100Y0165708D02*
X0266497Y0165708D01*
X0266135Y0166307D02*
X0195100Y0166307D01*
X0195100Y0166905D02*
X0265789Y0166905D01*
X0265443Y0167504D02*
X0195100Y0167504D01*
X0195100Y0168103D02*
X0265098Y0168103D01*
X0264798Y0168701D02*
X0195100Y0168701D01*
X0195100Y0169300D02*
X0264638Y0169300D01*
X0264478Y0169898D02*
X0195100Y0169898D01*
X0195100Y0170497D02*
X0264317Y0170497D01*
X0264157Y0171095D02*
X0195100Y0171095D01*
X0195100Y0171694D02*
X0264000Y0171694D01*
X0264000Y0172292D02*
X0195100Y0172292D01*
X0195100Y0172891D02*
X0264000Y0172891D01*
X0264000Y0173489D02*
X0195100Y0173489D01*
X0195100Y0174088D02*
X0264000Y0174088D01*
X0144178Y0171694D02*
X0138422Y0171694D01*
X0139020Y0171095D02*
X0143580Y0171095D01*
X0142981Y0170497D02*
X0139619Y0170497D01*
X0140200Y0169898D02*
X0142400Y0169898D01*
X0142400Y0169300D02*
X0140200Y0169300D01*
X0140200Y0168701D02*
X0142400Y0168701D01*
X0142400Y0168103D02*
X0140200Y0168103D01*
X0140200Y0167504D02*
X0142400Y0167504D01*
X0142400Y0166905D02*
X0140200Y0166905D01*
X0139822Y0166307D02*
X0142778Y0166307D01*
X0143376Y0165708D02*
X0139224Y0165708D01*
X0139200Y0165110D02*
X0143975Y0165110D01*
X0113300Y0180073D02*
X0083300Y0180073D01*
X0083300Y0180671D02*
X0113300Y0180671D01*
X0113300Y0181270D02*
X0083300Y0181270D01*
X0083300Y0181868D02*
X0113300Y0181868D01*
X0113300Y0182467D02*
X0083300Y0182467D01*
X0083300Y0183065D02*
X0113300Y0183065D01*
X0113300Y0183664D02*
X0083300Y0183664D01*
X0083300Y0184262D02*
X0113300Y0184262D01*
X0113300Y0184861D02*
X0083300Y0184861D01*
X0083300Y0185459D02*
X0113300Y0185459D01*
X0113300Y0186058D02*
X0083300Y0186058D01*
X0083300Y0186656D02*
X0113300Y0186656D01*
X0113300Y0187255D02*
X0083300Y0187255D01*
X0083300Y0187853D02*
X0113300Y0187853D01*
X0113300Y0188452D02*
X0083300Y0188452D01*
X0083300Y0189050D02*
X0113300Y0189050D01*
X0113300Y0189649D02*
X0083300Y0189649D01*
X0083300Y0190247D02*
X0113300Y0190247D01*
X0113300Y0190846D02*
X0083300Y0190846D01*
X0083300Y0191444D02*
X0113300Y0191444D01*
X0113300Y0192043D02*
X0083300Y0192043D01*
X0083300Y0192641D02*
X0113300Y0192641D01*
X0113300Y0193240D02*
X0083300Y0193240D01*
X0083300Y0179474D02*
X0090486Y0179474D01*
X0090160Y0178876D02*
X0083300Y0178876D01*
X0083300Y0178277D02*
X0090125Y0178277D01*
X0090125Y0177679D02*
X0083300Y0177679D01*
X0083300Y0177080D02*
X0090125Y0177080D01*
X0090125Y0176482D02*
X0083300Y0176482D01*
X0083300Y0175883D02*
X0090125Y0175883D01*
X0090125Y0175285D02*
X0083300Y0175285D01*
X0083300Y0174686D02*
X0090125Y0174686D01*
X0090125Y0174088D02*
X0083300Y0174088D01*
X0083300Y0173489D02*
X0096000Y0173489D01*
X0096000Y0172891D02*
X0096600Y0172891D01*
X0096600Y0172292D02*
X0096000Y0172292D01*
X0096000Y0171694D02*
X0096600Y0171694D01*
X0096600Y0171095D02*
X0096000Y0171095D01*
X0096000Y0170497D02*
X0096600Y0170497D01*
X0096600Y0169898D02*
X0096000Y0169898D01*
X0096000Y0169300D02*
X0096600Y0169300D01*
X0096600Y0168701D02*
X0096000Y0168701D01*
X0096000Y0168103D02*
X0096600Y0168103D01*
X0090341Y0168103D02*
X0083300Y0168103D01*
X0083300Y0168701D02*
X0090125Y0168701D01*
X0090125Y0169300D02*
X0083300Y0169300D01*
X0083300Y0169898D02*
X0090125Y0169898D01*
X0090125Y0170497D02*
X0083300Y0170497D01*
X0083300Y0171095D02*
X0090125Y0171095D01*
X0090125Y0171694D02*
X0083300Y0171694D01*
X0083300Y0172292D02*
X0090125Y0172292D01*
X0090125Y0172891D02*
X0083300Y0172891D01*
X0096000Y0144761D02*
X0096600Y0144761D01*
X0096600Y0144162D02*
X0096000Y0144162D01*
X0096000Y0143564D02*
X0096600Y0143564D01*
X0096600Y0142965D02*
X0096000Y0142965D01*
X0096000Y0142367D02*
X0096600Y0142367D01*
X0096600Y0141000D02*
X0100200Y0141000D01*
X0100200Y0139685D01*
X0097915Y0137400D01*
X0096600Y0137400D01*
X0096600Y0141000D01*
X0096600Y0140571D02*
X0096000Y0140571D01*
X0096000Y0139972D02*
X0096600Y0139972D01*
X0096600Y0139374D02*
X0096000Y0139374D01*
X0096000Y0138775D02*
X0096600Y0138775D01*
X0096600Y0138177D02*
X0096000Y0138177D01*
X0096000Y0137578D02*
X0096600Y0137578D01*
X0098094Y0137578D02*
X0113300Y0137578D01*
X0113300Y0138177D02*
X0098692Y0138177D01*
X0099291Y0138775D02*
X0113300Y0138775D01*
X0113300Y0139374D02*
X0099889Y0139374D01*
X0100200Y0139972D02*
X0113300Y0139972D01*
X0113300Y0140571D02*
X0100200Y0140571D01*
X0031600Y0126805D02*
X0031000Y0126805D01*
X0031600Y0126805D01*
X0031600Y0126207D02*
X0031000Y0126207D01*
X0031600Y0126207D01*
X0031600Y0125608D02*
X0031000Y0125608D01*
X0031600Y0125608D01*
X0031600Y0125010D02*
X0031000Y0125010D01*
X0031600Y0125010D01*
X0066000Y0038824D02*
X0066600Y0038824D01*
X0066600Y0038226D02*
X0066000Y0038226D01*
X0066000Y0037627D02*
X0066600Y0037627D01*
X0066600Y0037029D02*
X0066000Y0037029D01*
X0066000Y0036430D02*
X0066600Y0036430D01*
X0066600Y0035832D02*
X0066000Y0035832D01*
X0066000Y0035233D02*
X0066600Y0035233D01*
X0066600Y0034634D02*
X0066000Y0034634D01*
X0066000Y0034036D02*
X0066600Y0034036D01*
X0066600Y0033437D02*
X0066000Y0033437D01*
X0066000Y0031642D02*
X0066600Y0031642D01*
X0066600Y0031043D02*
X0066000Y0031043D01*
X0066000Y0030445D02*
X0066600Y0030445D01*
X0066600Y0029846D02*
X0066000Y0029846D01*
X0066000Y0029248D02*
X0066600Y0029248D01*
X0066600Y0028649D02*
X0066000Y0028649D01*
X0066000Y0028051D02*
X0066600Y0028051D01*
X0066600Y0027452D02*
X0066000Y0027452D01*
X0066000Y0026854D02*
X0066600Y0026854D01*
X0071746Y0026854D02*
X0080300Y0026854D01*
X0080300Y0027452D02*
X0072345Y0027452D01*
X0072475Y0028051D02*
X0080300Y0028051D01*
X0080300Y0028649D02*
X0072475Y0028649D01*
X0072475Y0029248D02*
X0080300Y0029248D01*
X0080300Y0029846D02*
X0072475Y0029846D01*
X0072475Y0030445D02*
X0080300Y0030445D01*
X0080300Y0031043D02*
X0072475Y0031043D01*
X0072475Y0031642D02*
X0080300Y0031642D01*
X0080300Y0032240D02*
X0072475Y0032240D01*
X0083300Y0032240D02*
X0090025Y0032240D01*
X0090025Y0031642D02*
X0083300Y0031642D01*
X0083300Y0031043D02*
X0090025Y0031043D01*
X0090025Y0030445D02*
X0083300Y0030445D01*
X0083300Y0029846D02*
X0090025Y0029846D01*
X0090025Y0029248D02*
X0083300Y0029248D01*
X0083300Y0028649D02*
X0090025Y0028649D01*
X0090025Y0028051D02*
X0083300Y0028051D01*
X0083300Y0027452D02*
X0090154Y0027452D01*
X0090753Y0026854D02*
X0083300Y0026854D01*
X0095900Y0026854D02*
X0096500Y0026854D01*
X0096500Y0027452D02*
X0095900Y0027452D01*
X0095900Y0028051D02*
X0096500Y0028051D01*
X0096500Y0028649D02*
X0095900Y0028649D01*
X0095900Y0029248D02*
X0096500Y0029248D01*
X0096500Y0029846D02*
X0095900Y0029846D01*
X0095900Y0030445D02*
X0096500Y0030445D01*
X0096500Y0031043D02*
X0095900Y0031043D01*
X0095900Y0031642D02*
X0096500Y0031642D01*
X0096500Y0033437D02*
X0095900Y0033437D01*
X0095900Y0034036D02*
X0096500Y0034036D01*
X0096500Y0034634D02*
X0095900Y0034634D01*
X0095900Y0035233D02*
X0096500Y0035233D01*
X0096500Y0035832D02*
X0095900Y0035832D01*
X0095900Y0036430D02*
X0096500Y0036430D01*
X0096500Y0037029D02*
X0095900Y0037029D01*
X0095900Y0037627D02*
X0096500Y0037627D01*
X0096500Y0038226D02*
X0095900Y0038226D01*
X0095900Y0038824D02*
X0096500Y0038824D01*
D23*
X0100300Y0038300D02*
X0090800Y0038300D01*
X0090300Y0038300D01*
X0090800Y0038300D02*
X0096200Y0032900D01*
X0093900Y0032900D01*
X0089300Y0028300D01*
X0091300Y0026300D01*
X0099300Y0026300D01*
X0099300Y0035300D01*
X0101300Y0037300D01*
X0100300Y0038300D01*
X0071300Y0036300D02*
X0071300Y0027300D01*
X0069300Y0025300D01*
X0063300Y0031300D01*
X0064700Y0031300D01*
X0066300Y0032900D01*
X0061300Y0037900D01*
X0061300Y0038300D01*
X0063300Y0036300D01*
X0071300Y0036300D01*
X0063300Y0031300D02*
X0058300Y0031300D01*
X0032300Y0079300D02*
X0031300Y0079300D01*
X0031300Y0088300D01*
X0032300Y0088300D01*
X0032300Y0108300D01*
X0031300Y0108300D01*
X0031300Y0118300D01*
X0031300Y0122300D01*
X0033300Y0122300D01*
X0026300Y0092300D02*
X0026300Y0088300D01*
X0031300Y0088300D01*
X0093300Y0167300D02*
X0090300Y0170300D01*
X0093700Y0173700D01*
X0096300Y0173700D01*
X0092300Y0177700D01*
X0092300Y0178300D01*
X0101300Y0178300D01*
X0102300Y0177300D01*
X0099300Y0174300D01*
X0099300Y0167300D01*
X0093300Y0167300D01*
D24*
X0091162Y0166825D02*
X0095675Y0166825D01*
X0095675Y0173075D01*
X0089425Y0173075D01*
X0089425Y0168562D01*
X0089561Y0168053D01*
X0089825Y0167597D01*
X0090197Y0167225D01*
X0090653Y0166961D01*
X0091162Y0166825D01*
X0089527Y0168181D02*
X0079300Y0168181D01*
X0079300Y0170179D02*
X0089425Y0170179D01*
X0089425Y0172178D02*
X0079300Y0172178D01*
X0079300Y0174176D02*
X0095675Y0174176D01*
X0095675Y0174325D02*
X0095675Y0173075D01*
X0096925Y0173075D01*
X0096925Y0174325D01*
X0102300Y0174325D01*
X0102300Y0173075D01*
X0096925Y0173075D01*
X0096925Y0166825D01*
X0101438Y0166825D01*
X0101947Y0166961D01*
X0102300Y0167165D01*
X0102300Y0039377D01*
X0101847Y0039639D01*
X0101338Y0039775D01*
X0096825Y0039775D01*
X0096825Y0033525D01*
X0095575Y0033525D01*
X0095575Y0039775D01*
X0091062Y0039775D01*
X0090553Y0039639D01*
X0090097Y0039375D01*
X0089725Y0039003D01*
X0089461Y0038547D01*
X0089325Y0038038D01*
X0089325Y0033525D01*
X0095575Y0033525D01*
X0095575Y0032275D01*
X0096825Y0032275D01*
X0096825Y0026025D01*
X0101338Y0026025D01*
X0101847Y0026161D01*
X0102300Y0026423D01*
X0102300Y0013300D01*
X0084300Y0013300D01*
X0084300Y0042300D01*
X0061300Y0065300D01*
X0061300Y0144300D01*
X0079300Y0162300D01*
X0079300Y0193001D01*
X0102300Y0193001D01*
X0102300Y0180235D01*
X0101947Y0180439D01*
X0101438Y0180575D01*
X0096925Y0180575D01*
X0096925Y0174325D01*
X0095675Y0174325D01*
X0095675Y0180575D01*
X0091162Y0180575D01*
X0090653Y0180439D01*
X0090197Y0180175D01*
X0089825Y0179803D01*
X0089561Y0179347D01*
X0089425Y0178838D01*
X0089425Y0174325D01*
X0095675Y0174325D01*
X0096925Y0174176D02*
X0102300Y0174176D01*
X0096925Y0172178D02*
X0095675Y0172178D01*
X0095675Y0170179D02*
X0096925Y0170179D01*
X0096925Y0168181D02*
X0095675Y0168181D01*
X0102300Y0166182D02*
X0079300Y0166182D01*
X0079300Y0164184D02*
X0102300Y0164184D01*
X0102300Y0162185D02*
X0079185Y0162185D01*
X0077187Y0160187D02*
X0102300Y0160187D01*
X0102300Y0158188D02*
X0075188Y0158188D01*
X0073190Y0156190D02*
X0102300Y0156190D01*
X0102300Y0154191D02*
X0071191Y0154191D01*
X0069193Y0152193D02*
X0102300Y0152193D01*
X0102300Y0150194D02*
X0067194Y0150194D01*
X0065196Y0148196D02*
X0102300Y0148196D01*
X0102300Y0146197D02*
X0063197Y0146197D01*
X0061300Y0144199D02*
X0092693Y0144199D01*
X0091700Y0143205D02*
X0091700Y0141300D01*
X0096300Y0141300D01*
X0100900Y0141300D01*
X0100900Y0143205D01*
X0098205Y0145900D01*
X0096300Y0145900D01*
X0096300Y0141300D01*
X0096300Y0141300D01*
X0096300Y0141300D01*
X0100900Y0141300D01*
X0100900Y0139395D01*
X0098205Y0136700D01*
X0096300Y0136700D01*
X0096300Y0141300D01*
X0096300Y0141300D01*
X0096300Y0141300D01*
X0096300Y0145900D01*
X0094395Y0145900D01*
X0091700Y0143205D01*
X0091700Y0142200D02*
X0061300Y0142200D01*
X0061300Y0140202D02*
X0091700Y0140202D01*
X0091700Y0139395D02*
X0094395Y0136700D01*
X0096300Y0136700D01*
X0096300Y0141300D01*
X0091700Y0141300D01*
X0091700Y0139395D01*
X0092891Y0138203D02*
X0061300Y0138203D01*
X0061300Y0136205D02*
X0102300Y0136205D01*
X0102300Y0138203D02*
X0099709Y0138203D01*
X0100900Y0140202D02*
X0102300Y0140202D01*
X0102300Y0142200D02*
X0100900Y0142200D01*
X0099907Y0144199D02*
X0102300Y0144199D01*
X0096300Y0144199D02*
X0096300Y0144199D01*
X0096300Y0142200D02*
X0096300Y0142200D01*
X0096300Y0140202D02*
X0096300Y0140202D01*
X0096300Y0138203D02*
X0096300Y0138203D01*
X0102300Y0134206D02*
X0061300Y0134206D01*
X0061300Y0132208D02*
X0102300Y0132208D01*
X0102300Y0130209D02*
X0061300Y0130209D01*
X0061300Y0128211D02*
X0102300Y0128211D01*
X0102300Y0126212D02*
X0061300Y0126212D01*
X0061300Y0124214D02*
X0102300Y0124214D01*
X0102300Y0122215D02*
X0061300Y0122215D01*
X0061300Y0120217D02*
X0102300Y0120217D01*
X0102300Y0118218D02*
X0061300Y0118218D01*
X0061300Y0116220D02*
X0102300Y0116220D01*
X0102300Y0114221D02*
X0061300Y0114221D01*
X0061300Y0112223D02*
X0102300Y0112223D01*
X0102300Y0110224D02*
X0061300Y0110224D01*
X0061300Y0108226D02*
X0102300Y0108226D01*
X0102300Y0106227D02*
X0061300Y0106227D01*
X0061300Y0104229D02*
X0102300Y0104229D01*
X0102300Y0102230D02*
X0061300Y0102230D01*
X0061300Y0100232D02*
X0102300Y0100232D01*
X0102300Y0098233D02*
X0061300Y0098233D01*
X0061300Y0096234D02*
X0102300Y0096234D01*
X0102300Y0094236D02*
X0061300Y0094236D01*
X0061300Y0092237D02*
X0102300Y0092237D01*
X0102300Y0090239D02*
X0061300Y0090239D01*
X0061300Y0088240D02*
X0102300Y0088240D01*
X0102300Y0086242D02*
X0061300Y0086242D01*
X0061300Y0084243D02*
X0102300Y0084243D01*
X0102300Y0082245D02*
X0061300Y0082245D01*
X0061300Y0080246D02*
X0102300Y0080246D01*
X0102300Y0078248D02*
X0061300Y0078248D01*
X0061300Y0076249D02*
X0102300Y0076249D01*
X0102300Y0074251D02*
X0061300Y0074251D01*
X0061300Y0072252D02*
X0102300Y0072252D01*
X0102300Y0070254D02*
X0061300Y0070254D01*
X0061300Y0068255D02*
X0093750Y0068255D01*
X0094395Y0068900D02*
X0091700Y0066205D01*
X0091700Y0064300D01*
X0096300Y0064300D01*
X0100900Y0064300D01*
X0100900Y0066205D01*
X0098205Y0068900D01*
X0096300Y0068900D01*
X0096300Y0064300D01*
X0096300Y0064300D01*
X0096300Y0064300D01*
X0100900Y0064300D01*
X0100900Y0062395D01*
X0098205Y0059700D01*
X0096300Y0059700D01*
X0096300Y0064300D01*
X0096300Y0064300D01*
X0096300Y0064300D01*
X0096300Y0068900D01*
X0094395Y0068900D01*
X0096300Y0068255D02*
X0096300Y0068255D01*
X0096300Y0066257D02*
X0096300Y0066257D01*
X0096300Y0064300D02*
X0091700Y0064300D01*
X0091700Y0062395D01*
X0094395Y0059700D01*
X0096300Y0059700D01*
X0096300Y0064300D01*
X0096300Y0064258D02*
X0096300Y0064258D01*
X0096300Y0062260D02*
X0096300Y0062260D01*
X0096300Y0060261D02*
X0096300Y0060261D01*
X0098767Y0060261D02*
X0102300Y0060261D01*
X0102300Y0058263D02*
X0068337Y0058263D01*
X0066339Y0060261D02*
X0093833Y0060261D01*
X0091835Y0062260D02*
X0064340Y0062260D01*
X0062342Y0064258D02*
X0091700Y0064258D01*
X0091751Y0066257D02*
X0061300Y0066257D01*
X0070336Y0056264D02*
X0102300Y0056264D01*
X0102300Y0054266D02*
X0072334Y0054266D01*
X0074333Y0052267D02*
X0102300Y0052267D01*
X0102300Y0050269D02*
X0076331Y0050269D01*
X0078330Y0048270D02*
X0102300Y0048270D01*
X0102300Y0046272D02*
X0080328Y0046272D01*
X0082327Y0044273D02*
X0102300Y0044273D01*
X0102300Y0042275D02*
X0084300Y0042275D01*
X0084300Y0040276D02*
X0102300Y0040276D01*
X0096825Y0038278D02*
X0095575Y0038278D01*
X0095575Y0036279D02*
X0096825Y0036279D01*
X0096825Y0034281D02*
X0095575Y0034281D01*
X0095575Y0032282D02*
X0084300Y0032282D01*
X0084300Y0030284D02*
X0089325Y0030284D01*
X0089325Y0032275D02*
X0089325Y0027762D01*
X0089461Y0027253D01*
X0089725Y0026797D01*
X0090097Y0026425D01*
X0090553Y0026161D01*
X0091062Y0026025D01*
X0095575Y0026025D01*
X0095575Y0032275D01*
X0089325Y0032275D01*
X0089325Y0034281D02*
X0084300Y0034281D01*
X0084300Y0036279D02*
X0089325Y0036279D01*
X0089389Y0038278D02*
X0084300Y0038278D01*
X0095575Y0030284D02*
X0096825Y0030284D01*
X0096825Y0028285D02*
X0095575Y0028285D01*
X0095575Y0026287D02*
X0096825Y0026287D01*
X0102064Y0026287D02*
X0102300Y0026287D01*
X0102300Y0024288D02*
X0084300Y0024288D01*
X0084300Y0022290D02*
X0102300Y0022290D01*
X0102300Y0020291D02*
X0084300Y0020291D01*
X0084300Y0018293D02*
X0102300Y0018293D01*
X0102300Y0016294D02*
X0084300Y0016294D01*
X0084300Y0014296D02*
X0102300Y0014296D01*
X0090336Y0026287D02*
X0084300Y0026287D01*
X0084300Y0028285D02*
X0089325Y0028285D01*
X0100765Y0062260D02*
X0102300Y0062260D01*
X0102300Y0064258D02*
X0100900Y0064258D01*
X0100849Y0066257D02*
X0102300Y0066257D01*
X0102300Y0068255D02*
X0098850Y0068255D01*
X0096925Y0176175D02*
X0095675Y0176175D01*
X0095675Y0178173D02*
X0096925Y0178173D01*
X0096925Y0180172D02*
X0095675Y0180172D01*
X0090194Y0180172D02*
X0079300Y0180172D01*
X0079300Y0182170D02*
X0102300Y0182170D01*
X0102300Y0184169D02*
X0079300Y0184169D01*
X0079300Y0186168D02*
X0102300Y0186168D01*
X0102300Y0188166D02*
X0079300Y0188166D01*
X0079300Y0190165D02*
X0102300Y0190165D01*
X0102300Y0192163D02*
X0079300Y0192163D01*
X0079300Y0178173D02*
X0089425Y0178173D01*
X0089425Y0176175D02*
X0079300Y0176175D01*
D25*
X0136300Y0168300D02*
X0136300Y0141300D01*
X0136300Y0064300D02*
X0136300Y0038300D01*
M02*
