G75*
%MOIN*%
%OFA0B0*%
%FSLAX25Y25*%
%IPPOS*%
%LPD*%
%AMOC8*
5,1,8,0,0,1.08239X$1,22.5*
%
%ADD10C,0.16800*%
%ADD11C,0.08600*%
%ADD12R,0.10550X0.10550*%
%ADD13OC8,0.06000*%
%ADD14C,0.06800*%
%ADD15C,0.04959*%
D10*
X0026300Y0033300D03*
X0276300Y0033300D03*
X0326300Y0058300D03*
X0376300Y0058300D03*
X0376300Y0148300D03*
X0326300Y0148300D03*
X0276300Y0173300D03*
X0026300Y0173300D03*
D11*
X0031300Y0122200D02*
X0031300Y0114400D01*
X0011300Y0114400D02*
X0011300Y0122200D01*
X0051300Y0122200D02*
X0051300Y0114400D01*
X0051300Y0092200D02*
X0051300Y0084400D01*
X0031300Y0084400D02*
X0031300Y0092200D01*
X0011300Y0092200D02*
X0011300Y0084400D01*
X0111300Y0084400D02*
X0111300Y0092200D01*
X0111300Y0114400D02*
X0111300Y0122200D01*
D12*
X0096300Y0173700D03*
X0066400Y0173700D03*
X0066300Y0032900D03*
X0096200Y0032900D03*
D13*
X0136300Y0038300D03*
X0146300Y0038300D03*
X0136300Y0064300D03*
X0096300Y0064300D03*
X0096300Y0141300D03*
X0136300Y0141300D03*
X0136300Y0168300D03*
X0146300Y0168300D03*
D14*
X0181300Y0179300D02*
X0181300Y0185300D01*
X0191300Y0185300D02*
X0191300Y0179300D01*
X0201300Y0179300D02*
X0201300Y0185300D01*
X0211300Y0185300D02*
X0211300Y0179300D01*
X0150300Y0118300D02*
X0144300Y0118300D01*
X0144300Y0108300D02*
X0150300Y0108300D01*
X0150300Y0098300D02*
X0144300Y0098300D01*
X0181300Y0027300D02*
X0181300Y0021300D01*
X0191300Y0021300D02*
X0191300Y0027300D01*
X0201300Y0027300D02*
X0201300Y0021300D01*
X0211300Y0021300D02*
X0211300Y0027300D01*
D15*
X0179300Y0073300D03*
X0346300Y0114300D03*
M02*
