G75*
%MOIN*%
%OFA0B0*%
%FSLAX25Y25*%
%IPPOS*%
%LPD*%
%AMOC8*
5,1,8,0,0,1.08239X$1,22.5*
%
%ADD10C,0.07800*%
%ADD11R,0.09750X0.09750*%
%ADD12OC8,0.05200*%
%ADD13C,0.06000*%
%ADD14C,0.04159*%
%ADD15C,0.05000*%
%ADD16C,0.03200*%
%ADD17C,0.00600*%
%ADD18C,0.10000*%
D10*
X0011300Y0084400D02*
X0011300Y0092200D01*
X0031300Y0092200D02*
X0031300Y0084400D01*
X0051300Y0084400D02*
X0051300Y0092200D01*
X0051300Y0114400D02*
X0051300Y0122200D01*
X0031300Y0122200D02*
X0031300Y0114400D01*
X0011300Y0114400D02*
X0011300Y0122200D01*
X0111300Y0122200D02*
X0111300Y0114400D01*
X0111300Y0092200D02*
X0111300Y0084400D01*
D11*
X0096200Y0032900D03*
X0066300Y0032900D03*
X0066400Y0173700D03*
X0096300Y0173700D03*
D12*
X0136300Y0168300D03*
X0146300Y0168300D03*
X0136300Y0141300D03*
X0096300Y0141300D03*
X0096300Y0064300D03*
X0136300Y0064300D03*
X0136300Y0038300D03*
X0146300Y0038300D03*
D13*
X0181300Y0027300D02*
X0181300Y0021300D01*
X0191300Y0021300D02*
X0191300Y0027300D01*
X0201300Y0027300D02*
X0201300Y0021300D01*
X0211300Y0021300D02*
X0211300Y0027300D01*
X0150300Y0098300D02*
X0144300Y0098300D01*
X0144300Y0108300D02*
X0150300Y0108300D01*
X0150300Y0118300D02*
X0144300Y0118300D01*
X0181300Y0179300D02*
X0181300Y0185300D01*
X0191300Y0185300D02*
X0191300Y0179300D01*
X0201300Y0179300D02*
X0201300Y0185300D01*
X0211300Y0185300D02*
X0211300Y0179300D01*
D14*
X0346300Y0114300D03*
X0179300Y0073300D03*
D15*
X0179300Y0099300D01*
X0149300Y0129300D01*
X0122300Y0129300D01*
X0111300Y0118300D01*
X0185300Y0124300D02*
X0195300Y0114300D01*
X0346300Y0114300D01*
X0211300Y0169300D02*
X0185300Y0143300D01*
X0185300Y0124300D01*
X0195300Y0114300D02*
X0188300Y0107300D01*
X0188300Y0043300D01*
X0181300Y0036300D01*
X0181300Y0024300D01*
X0211300Y0169300D02*
X0211300Y0182300D01*
D16*
X0146300Y0168300D02*
X0122199Y0192401D01*
X0077300Y0192401D01*
X0077300Y0184600D01*
X0066400Y0173700D01*
X0146300Y0038300D02*
X0146300Y0030300D01*
X0130300Y0014300D01*
X0084900Y0014300D01*
X0066300Y0032900D01*
D17*
X0005600Y0012600D02*
X0005600Y0193701D01*
X0080300Y0193701D01*
X0080300Y0155300D01*
X0069300Y0155300D01*
X0042300Y0128300D01*
X0042300Y0012600D01*
X0005600Y0012600D01*
X0005600Y0013088D02*
X0042300Y0013088D01*
X0042300Y0013687D02*
X0005600Y0013687D01*
X0005600Y0014285D02*
X0042300Y0014285D01*
X0042300Y0014884D02*
X0005600Y0014884D01*
X0005600Y0015482D02*
X0042300Y0015482D01*
X0042300Y0016081D02*
X0005600Y0016081D01*
X0005600Y0016679D02*
X0042300Y0016679D01*
X0042300Y0017278D02*
X0005600Y0017278D01*
X0005600Y0017876D02*
X0042300Y0017876D01*
X0042300Y0018475D02*
X0005600Y0018475D01*
X0005600Y0019073D02*
X0042300Y0019073D01*
X0042300Y0019672D02*
X0005600Y0019672D01*
X0005600Y0020270D02*
X0042300Y0020270D01*
X0042300Y0020869D02*
X0005600Y0020869D01*
X0005600Y0021467D02*
X0022937Y0021467D01*
X0021552Y0021838D02*
X0024681Y0021000D01*
X0027919Y0021000D01*
X0031048Y0021838D01*
X0033852Y0023458D01*
X0036142Y0025748D01*
X0037762Y0028552D01*
X0038600Y0031681D01*
X0038600Y0034919D01*
X0037762Y0038048D01*
X0036142Y0040852D01*
X0033852Y0043142D01*
X0031048Y0044762D01*
X0027919Y0045600D01*
X0024681Y0045600D01*
X0021552Y0044762D01*
X0018748Y0043142D01*
X0016458Y0040852D01*
X0014838Y0038048D01*
X0014000Y0034919D01*
X0014000Y0031681D01*
X0014838Y0028552D01*
X0016458Y0025748D01*
X0018748Y0023458D01*
X0021552Y0021838D01*
X0021158Y0022066D02*
X0005600Y0022066D01*
X0005600Y0022664D02*
X0020122Y0022664D01*
X0019085Y0023263D02*
X0005600Y0023263D01*
X0005600Y0023861D02*
X0018344Y0023861D01*
X0017745Y0024460D02*
X0005600Y0024460D01*
X0005600Y0025058D02*
X0017147Y0025058D01*
X0016548Y0025657D02*
X0005600Y0025657D01*
X0005600Y0026255D02*
X0016164Y0026255D01*
X0015819Y0026854D02*
X0005600Y0026854D01*
X0005600Y0027452D02*
X0015473Y0027452D01*
X0015128Y0028051D02*
X0005600Y0028051D01*
X0005600Y0028649D02*
X0014812Y0028649D01*
X0014652Y0029248D02*
X0005600Y0029248D01*
X0005600Y0029846D02*
X0014491Y0029846D01*
X0014331Y0030445D02*
X0005600Y0030445D01*
X0005600Y0031043D02*
X0014171Y0031043D01*
X0014010Y0031642D02*
X0005600Y0031642D01*
X0005600Y0032240D02*
X0014000Y0032240D01*
X0014000Y0032839D02*
X0005600Y0032839D01*
X0005600Y0033437D02*
X0014000Y0033437D01*
X0014000Y0034036D02*
X0005600Y0034036D01*
X0005600Y0034634D02*
X0014000Y0034634D01*
X0014084Y0035233D02*
X0005600Y0035233D01*
X0005600Y0035832D02*
X0014244Y0035832D01*
X0014405Y0036430D02*
X0005600Y0036430D01*
X0005600Y0037029D02*
X0014565Y0037029D01*
X0014726Y0037627D02*
X0005600Y0037627D01*
X0005600Y0038226D02*
X0014941Y0038226D01*
X0015287Y0038824D02*
X0005600Y0038824D01*
X0005600Y0039423D02*
X0015632Y0039423D01*
X0015978Y0040021D02*
X0005600Y0040021D01*
X0005600Y0040620D02*
X0016323Y0040620D01*
X0016823Y0041218D02*
X0005600Y0041218D01*
X0005600Y0041817D02*
X0017422Y0041817D01*
X0018020Y0042415D02*
X0005600Y0042415D01*
X0005600Y0043014D02*
X0018619Y0043014D01*
X0019561Y0043612D02*
X0005600Y0043612D01*
X0005600Y0044211D02*
X0020598Y0044211D01*
X0021729Y0044809D02*
X0005600Y0044809D01*
X0005600Y0045408D02*
X0023963Y0045408D01*
X0028637Y0045408D02*
X0042300Y0045408D01*
X0042300Y0046006D02*
X0005600Y0046006D01*
X0005600Y0046605D02*
X0042300Y0046605D01*
X0042300Y0047203D02*
X0005600Y0047203D01*
X0005600Y0047802D02*
X0042300Y0047802D01*
X0042300Y0048400D02*
X0005600Y0048400D01*
X0005600Y0048999D02*
X0042300Y0048999D01*
X0042300Y0049597D02*
X0005600Y0049597D01*
X0005600Y0050196D02*
X0042300Y0050196D01*
X0042300Y0050794D02*
X0005600Y0050794D01*
X0005600Y0051393D02*
X0042300Y0051393D01*
X0042300Y0051991D02*
X0005600Y0051991D01*
X0005600Y0052590D02*
X0042300Y0052590D01*
X0042300Y0053188D02*
X0005600Y0053188D01*
X0005600Y0053787D02*
X0042300Y0053787D01*
X0042300Y0054385D02*
X0005600Y0054385D01*
X0005600Y0054984D02*
X0042300Y0054984D01*
X0042300Y0055582D02*
X0005600Y0055582D01*
X0005600Y0056181D02*
X0042300Y0056181D01*
X0042300Y0056779D02*
X0005600Y0056779D01*
X0005600Y0057378D02*
X0042300Y0057378D01*
X0042300Y0057976D02*
X0005600Y0057976D01*
X0005600Y0058575D02*
X0042300Y0058575D01*
X0042300Y0059173D02*
X0005600Y0059173D01*
X0005600Y0059772D02*
X0042300Y0059772D01*
X0042300Y0060370D02*
X0005600Y0060370D01*
X0005600Y0060969D02*
X0042300Y0060969D01*
X0042300Y0061568D02*
X0005600Y0061568D01*
X0005600Y0062166D02*
X0042300Y0062166D01*
X0042300Y0062765D02*
X0005600Y0062765D01*
X0005600Y0063363D02*
X0042300Y0063363D01*
X0042300Y0063962D02*
X0005600Y0063962D01*
X0005600Y0064560D02*
X0042300Y0064560D01*
X0042300Y0065159D02*
X0005600Y0065159D01*
X0005600Y0065757D02*
X0042300Y0065757D01*
X0042300Y0066356D02*
X0005600Y0066356D01*
X0005600Y0066954D02*
X0042300Y0066954D01*
X0042300Y0067553D02*
X0005600Y0067553D01*
X0005600Y0068151D02*
X0042300Y0068151D01*
X0042300Y0068750D02*
X0005600Y0068750D01*
X0005600Y0069348D02*
X0042300Y0069348D01*
X0042300Y0069947D02*
X0005600Y0069947D01*
X0005600Y0070545D02*
X0042300Y0070545D01*
X0042300Y0071144D02*
X0005600Y0071144D01*
X0005600Y0071742D02*
X0042300Y0071742D01*
X0042300Y0072341D02*
X0005600Y0072341D01*
X0005600Y0072939D02*
X0042300Y0072939D01*
X0042300Y0073538D02*
X0005600Y0073538D01*
X0005600Y0074136D02*
X0042300Y0074136D01*
X0042300Y0074735D02*
X0005600Y0074735D01*
X0005600Y0075333D02*
X0042300Y0075333D01*
X0042300Y0075932D02*
X0005600Y0075932D01*
X0005600Y0076530D02*
X0042300Y0076530D01*
X0042300Y0077129D02*
X0005600Y0077129D01*
X0005600Y0077727D02*
X0042300Y0077727D01*
X0042300Y0078326D02*
X0005600Y0078326D01*
X0005600Y0078924D02*
X0042300Y0078924D01*
X0042300Y0079523D02*
X0033114Y0079523D01*
X0032334Y0079200D02*
X0034246Y0079992D01*
X0035708Y0081454D01*
X0036500Y0083366D01*
X0036500Y0093234D01*
X0035708Y0095146D01*
X0034246Y0096608D01*
X0032334Y0097400D01*
X0030266Y0097400D01*
X0028354Y0096608D01*
X0026892Y0095146D01*
X0026100Y0093234D01*
X0026100Y0083366D01*
X0026892Y0081454D01*
X0028354Y0079992D01*
X0030266Y0079200D01*
X0032334Y0079200D01*
X0034375Y0080121D02*
X0042300Y0080121D01*
X0042300Y0080720D02*
X0034974Y0080720D01*
X0035572Y0081318D02*
X0042300Y0081318D01*
X0042300Y0081917D02*
X0035900Y0081917D01*
X0036148Y0082515D02*
X0042300Y0082515D01*
X0042300Y0083114D02*
X0036396Y0083114D01*
X0036500Y0083712D02*
X0042300Y0083712D01*
X0042300Y0084311D02*
X0036500Y0084311D01*
X0036500Y0084909D02*
X0042300Y0084909D01*
X0042300Y0085508D02*
X0036500Y0085508D01*
X0036500Y0086106D02*
X0042300Y0086106D01*
X0042300Y0086705D02*
X0036500Y0086705D01*
X0036500Y0087303D02*
X0042300Y0087303D01*
X0042300Y0087902D02*
X0036500Y0087902D01*
X0036500Y0088501D02*
X0042300Y0088501D01*
X0042300Y0089099D02*
X0036500Y0089099D01*
X0036500Y0089698D02*
X0042300Y0089698D01*
X0042300Y0090296D02*
X0036500Y0090296D01*
X0036500Y0090895D02*
X0042300Y0090895D01*
X0042300Y0091493D02*
X0036500Y0091493D01*
X0036500Y0092092D02*
X0042300Y0092092D01*
X0042300Y0092690D02*
X0036500Y0092690D01*
X0036478Y0093289D02*
X0042300Y0093289D01*
X0042300Y0093887D02*
X0036230Y0093887D01*
X0035982Y0094486D02*
X0042300Y0094486D01*
X0042300Y0095084D02*
X0035734Y0095084D01*
X0035171Y0095683D02*
X0042300Y0095683D01*
X0042300Y0096281D02*
X0034573Y0096281D01*
X0033591Y0096880D02*
X0042300Y0096880D01*
X0042300Y0097478D02*
X0005600Y0097478D01*
X0005600Y0096880D02*
X0009030Y0096880D01*
X0009304Y0097019D02*
X0008575Y0096647D01*
X0007912Y0096166D01*
X0007334Y0095588D01*
X0006853Y0094925D01*
X0006481Y0094196D01*
X0006228Y0093418D01*
X0006100Y0092609D01*
X0006100Y0088600D01*
X0011000Y0088600D01*
X0011000Y0097400D01*
X0010891Y0097400D01*
X0010082Y0097272D01*
X0009304Y0097019D01*
X0008070Y0096281D02*
X0005600Y0096281D01*
X0005600Y0095683D02*
X0007429Y0095683D01*
X0006968Y0095084D02*
X0005600Y0095084D01*
X0005600Y0094486D02*
X0006628Y0094486D01*
X0006381Y0093887D02*
X0005600Y0093887D01*
X0005600Y0093289D02*
X0006208Y0093289D01*
X0006113Y0092690D02*
X0005600Y0092690D01*
X0005600Y0092092D02*
X0006100Y0092092D01*
X0006100Y0091493D02*
X0005600Y0091493D01*
X0005600Y0090895D02*
X0006100Y0090895D01*
X0006100Y0090296D02*
X0005600Y0090296D01*
X0005600Y0089698D02*
X0006100Y0089698D01*
X0006100Y0089099D02*
X0005600Y0089099D01*
X0005600Y0088501D02*
X0011000Y0088501D01*
X0011000Y0088600D02*
X0011000Y0088000D01*
X0006100Y0088000D01*
X0006100Y0083991D01*
X0006228Y0083182D01*
X0006481Y0082404D01*
X0006853Y0081675D01*
X0007334Y0081012D01*
X0007912Y0080434D01*
X0008575Y0079953D01*
X0009304Y0079581D01*
X0010082Y0079328D01*
X0010891Y0079200D01*
X0011000Y0079200D01*
X0011000Y0088000D01*
X0011600Y0088000D01*
X0011600Y0088600D01*
X0011000Y0088600D01*
X0011000Y0089099D02*
X0011600Y0089099D01*
X0011600Y0088600D02*
X0011600Y0097400D01*
X0011709Y0097400D01*
X0012518Y0097272D01*
X0013296Y0097019D01*
X0014025Y0096647D01*
X0014688Y0096166D01*
X0015266Y0095588D01*
X0015747Y0094925D01*
X0016119Y0094196D01*
X0016372Y0093418D01*
X0016500Y0092609D01*
X0016500Y0088600D01*
X0011600Y0088600D01*
X0011600Y0088501D02*
X0026100Y0088501D01*
X0026100Y0089099D02*
X0016500Y0089099D01*
X0016500Y0089698D02*
X0026100Y0089698D01*
X0026100Y0090296D02*
X0016500Y0090296D01*
X0016500Y0090895D02*
X0026100Y0090895D01*
X0026100Y0091493D02*
X0016500Y0091493D01*
X0016500Y0092092D02*
X0026100Y0092092D01*
X0026100Y0092690D02*
X0016487Y0092690D01*
X0016392Y0093289D02*
X0026122Y0093289D01*
X0026370Y0093887D02*
X0016219Y0093887D01*
X0015972Y0094486D02*
X0026618Y0094486D01*
X0026866Y0095084D02*
X0015632Y0095084D01*
X0015171Y0095683D02*
X0027429Y0095683D01*
X0028027Y0096281D02*
X0014530Y0096281D01*
X0013570Y0096880D02*
X0029009Y0096880D01*
X0042300Y0098077D02*
X0005600Y0098077D01*
X0005600Y0098675D02*
X0042300Y0098675D01*
X0042300Y0099274D02*
X0005600Y0099274D01*
X0005600Y0099872D02*
X0042300Y0099872D01*
X0042300Y0100471D02*
X0005600Y0100471D01*
X0005600Y0101069D02*
X0042300Y0101069D01*
X0042300Y0101668D02*
X0005600Y0101668D01*
X0005600Y0102266D02*
X0042300Y0102266D01*
X0042300Y0102865D02*
X0005600Y0102865D01*
X0005600Y0103463D02*
X0042300Y0103463D01*
X0042300Y0104062D02*
X0005600Y0104062D01*
X0005600Y0104660D02*
X0042300Y0104660D01*
X0042300Y0105259D02*
X0005600Y0105259D01*
X0005600Y0105857D02*
X0042300Y0105857D01*
X0042300Y0106456D02*
X0005600Y0106456D01*
X0005600Y0107054D02*
X0042300Y0107054D01*
X0042300Y0107653D02*
X0005600Y0107653D01*
X0005600Y0108251D02*
X0042300Y0108251D01*
X0042300Y0108850D02*
X0005600Y0108850D01*
X0005600Y0109448D02*
X0009712Y0109448D01*
X0010082Y0109328D02*
X0010891Y0109200D01*
X0011000Y0109200D01*
X0011000Y0118000D01*
X0006100Y0118000D01*
X0006100Y0113991D01*
X0006228Y0113182D01*
X0006481Y0112404D01*
X0006853Y0111675D01*
X0007334Y0111012D01*
X0007912Y0110434D01*
X0008575Y0109953D01*
X0009304Y0109581D01*
X0010082Y0109328D01*
X0011000Y0109448D02*
X0011600Y0109448D01*
X0011600Y0109200D02*
X0011709Y0109200D01*
X0012518Y0109328D01*
X0013296Y0109581D01*
X0014025Y0109953D01*
X0014688Y0110434D01*
X0015266Y0111012D01*
X0015747Y0111675D01*
X0016119Y0112404D01*
X0016372Y0113182D01*
X0016500Y0113991D01*
X0016500Y0118000D01*
X0011600Y0118000D01*
X0011600Y0118600D01*
X0011000Y0118600D01*
X0011000Y0127400D01*
X0010891Y0127400D01*
X0010082Y0127272D01*
X0009304Y0127019D01*
X0008575Y0126647D01*
X0007912Y0126166D01*
X0007334Y0125588D01*
X0006853Y0124925D01*
X0006481Y0124196D01*
X0006228Y0123418D01*
X0006100Y0122609D01*
X0006100Y0118600D01*
X0011000Y0118600D01*
X0011000Y0118000D01*
X0011600Y0118000D01*
X0011600Y0109200D01*
X0011600Y0110047D02*
X0011000Y0110047D01*
X0011000Y0110645D02*
X0011600Y0110645D01*
X0011600Y0111244D02*
X0011000Y0111244D01*
X0011000Y0111842D02*
X0011600Y0111842D01*
X0011600Y0112441D02*
X0011000Y0112441D01*
X0011000Y0113039D02*
X0011600Y0113039D01*
X0011600Y0113638D02*
X0011000Y0113638D01*
X0011000Y0114237D02*
X0011600Y0114237D01*
X0011600Y0114835D02*
X0011000Y0114835D01*
X0011000Y0115434D02*
X0011600Y0115434D01*
X0011600Y0116032D02*
X0011000Y0116032D01*
X0011000Y0116631D02*
X0011600Y0116631D01*
X0011600Y0117229D02*
X0011000Y0117229D01*
X0011000Y0117828D02*
X0011600Y0117828D01*
X0011600Y0118426D02*
X0026100Y0118426D01*
X0026100Y0117828D02*
X0016500Y0117828D01*
X0016500Y0117229D02*
X0026100Y0117229D01*
X0026100Y0116631D02*
X0016500Y0116631D01*
X0016500Y0116032D02*
X0026100Y0116032D01*
X0026100Y0115434D02*
X0016500Y0115434D01*
X0016500Y0114835D02*
X0026100Y0114835D01*
X0026100Y0114237D02*
X0016500Y0114237D01*
X0016444Y0113638D02*
X0026100Y0113638D01*
X0026100Y0113366D02*
X0026892Y0111454D01*
X0028354Y0109992D01*
X0030266Y0109200D01*
X0032334Y0109200D01*
X0034246Y0109992D01*
X0035708Y0111454D01*
X0036500Y0113366D01*
X0036500Y0123234D01*
X0035708Y0125146D01*
X0034246Y0126608D01*
X0032334Y0127400D01*
X0030266Y0127400D01*
X0028354Y0126608D01*
X0026892Y0125146D01*
X0026100Y0123234D01*
X0026100Y0113366D01*
X0026235Y0113039D02*
X0016326Y0113039D01*
X0016131Y0112441D02*
X0026483Y0112441D01*
X0026731Y0111842D02*
X0015833Y0111842D01*
X0015435Y0111244D02*
X0027102Y0111244D01*
X0027701Y0110645D02*
X0014899Y0110645D01*
X0014155Y0110047D02*
X0028299Y0110047D01*
X0029666Y0109448D02*
X0012888Y0109448D01*
X0008445Y0110047D02*
X0005600Y0110047D01*
X0005600Y0110645D02*
X0007701Y0110645D01*
X0007165Y0111244D02*
X0005600Y0111244D01*
X0005600Y0111842D02*
X0006767Y0111842D01*
X0006469Y0112441D02*
X0005600Y0112441D01*
X0005600Y0113039D02*
X0006274Y0113039D01*
X0006156Y0113638D02*
X0005600Y0113638D01*
X0005600Y0114237D02*
X0006100Y0114237D01*
X0006100Y0114835D02*
X0005600Y0114835D01*
X0005600Y0115434D02*
X0006100Y0115434D01*
X0006100Y0116032D02*
X0005600Y0116032D01*
X0005600Y0116631D02*
X0006100Y0116631D01*
X0006100Y0117229D02*
X0005600Y0117229D01*
X0005600Y0117828D02*
X0006100Y0117828D01*
X0005600Y0118426D02*
X0011000Y0118426D01*
X0011000Y0119025D02*
X0011600Y0119025D01*
X0011600Y0118600D02*
X0011600Y0127400D01*
X0011709Y0127400D01*
X0012518Y0127272D01*
X0013296Y0127019D01*
X0014025Y0126647D01*
X0014688Y0126166D01*
X0015266Y0125588D01*
X0015747Y0124925D01*
X0016119Y0124196D01*
X0016372Y0123418D01*
X0016500Y0122609D01*
X0016500Y0118600D01*
X0011600Y0118600D01*
X0011600Y0119623D02*
X0011000Y0119623D01*
X0011000Y0120222D02*
X0011600Y0120222D01*
X0011600Y0120820D02*
X0011000Y0120820D01*
X0011000Y0121419D02*
X0011600Y0121419D01*
X0011600Y0122017D02*
X0011000Y0122017D01*
X0011000Y0122616D02*
X0011600Y0122616D01*
X0011600Y0123214D02*
X0011000Y0123214D01*
X0011000Y0123813D02*
X0011600Y0123813D01*
X0011600Y0124411D02*
X0011000Y0124411D01*
X0011000Y0125010D02*
X0011600Y0125010D01*
X0011600Y0125608D02*
X0011000Y0125608D01*
X0011000Y0126207D02*
X0011600Y0126207D01*
X0011600Y0126805D02*
X0011000Y0126805D01*
X0008884Y0126805D02*
X0005600Y0126805D01*
X0005600Y0126207D02*
X0007968Y0126207D01*
X0007354Y0125608D02*
X0005600Y0125608D01*
X0005600Y0125010D02*
X0006914Y0125010D01*
X0006591Y0124411D02*
X0005600Y0124411D01*
X0005600Y0123813D02*
X0006356Y0123813D01*
X0006196Y0123214D02*
X0005600Y0123214D01*
X0005600Y0122616D02*
X0006101Y0122616D01*
X0006100Y0122017D02*
X0005600Y0122017D01*
X0005600Y0121419D02*
X0006100Y0121419D01*
X0006100Y0120820D02*
X0005600Y0120820D01*
X0005600Y0120222D02*
X0006100Y0120222D01*
X0006100Y0119623D02*
X0005600Y0119623D01*
X0005600Y0119025D02*
X0006100Y0119025D01*
X0016500Y0119025D02*
X0026100Y0119025D01*
X0026100Y0119623D02*
X0016500Y0119623D01*
X0016500Y0120222D02*
X0026100Y0120222D01*
X0026100Y0120820D02*
X0016500Y0120820D01*
X0016500Y0121419D02*
X0026100Y0121419D01*
X0026100Y0122017D02*
X0016500Y0122017D01*
X0016499Y0122616D02*
X0026100Y0122616D01*
X0026100Y0123214D02*
X0016404Y0123214D01*
X0016244Y0123813D02*
X0026340Y0123813D01*
X0026587Y0124411D02*
X0016009Y0124411D01*
X0015686Y0125010D02*
X0026835Y0125010D01*
X0027354Y0125608D02*
X0015246Y0125608D01*
X0014632Y0126207D02*
X0027953Y0126207D01*
X0028830Y0126805D02*
X0013716Y0126805D01*
X0005600Y0127404D02*
X0042300Y0127404D01*
X0042300Y0128002D02*
X0005600Y0128002D01*
X0005600Y0128601D02*
X0042601Y0128601D01*
X0043199Y0129199D02*
X0005600Y0129199D01*
X0005600Y0129798D02*
X0043798Y0129798D01*
X0044396Y0130396D02*
X0005600Y0130396D01*
X0005600Y0130995D02*
X0044995Y0130995D01*
X0045593Y0131593D02*
X0005600Y0131593D01*
X0005600Y0132192D02*
X0046192Y0132192D01*
X0046790Y0132790D02*
X0005600Y0132790D01*
X0005600Y0133389D02*
X0047389Y0133389D01*
X0047987Y0133987D02*
X0005600Y0133987D01*
X0005600Y0134586D02*
X0048586Y0134586D01*
X0049184Y0135184D02*
X0005600Y0135184D01*
X0005600Y0135783D02*
X0049783Y0135783D01*
X0050381Y0136381D02*
X0005600Y0136381D01*
X0005600Y0136980D02*
X0050980Y0136980D01*
X0051578Y0137578D02*
X0005600Y0137578D01*
X0005600Y0138177D02*
X0052177Y0138177D01*
X0052775Y0138775D02*
X0005600Y0138775D01*
X0005600Y0139374D02*
X0053374Y0139374D01*
X0053972Y0139972D02*
X0005600Y0139972D01*
X0005600Y0140571D02*
X0054571Y0140571D01*
X0055170Y0141170D02*
X0005600Y0141170D01*
X0005600Y0141768D02*
X0055768Y0141768D01*
X0056367Y0142367D02*
X0005600Y0142367D01*
X0005600Y0142965D02*
X0056965Y0142965D01*
X0057564Y0143564D02*
X0005600Y0143564D01*
X0005600Y0144162D02*
X0058162Y0144162D01*
X0058761Y0144761D02*
X0005600Y0144761D01*
X0005600Y0145359D02*
X0059359Y0145359D01*
X0059958Y0145958D02*
X0005600Y0145958D01*
X0005600Y0146556D02*
X0060556Y0146556D01*
X0061155Y0147155D02*
X0005600Y0147155D01*
X0005600Y0147753D02*
X0061753Y0147753D01*
X0062352Y0148352D02*
X0005600Y0148352D01*
X0005600Y0148950D02*
X0062950Y0148950D01*
X0063549Y0149549D02*
X0005600Y0149549D01*
X0005600Y0150147D02*
X0064147Y0150147D01*
X0064746Y0150746D02*
X0005600Y0150746D01*
X0005600Y0151344D02*
X0065344Y0151344D01*
X0065943Y0151943D02*
X0005600Y0151943D01*
X0005600Y0152541D02*
X0066541Y0152541D01*
X0067140Y0153140D02*
X0005600Y0153140D01*
X0005600Y0153738D02*
X0067738Y0153738D01*
X0068337Y0154337D02*
X0005600Y0154337D01*
X0005600Y0154935D02*
X0068935Y0154935D01*
X0080300Y0155534D02*
X0005600Y0155534D01*
X0005600Y0156132D02*
X0080300Y0156132D01*
X0080300Y0156731D02*
X0005600Y0156731D01*
X0005600Y0157329D02*
X0080300Y0157329D01*
X0080300Y0157928D02*
X0005600Y0157928D01*
X0005600Y0158526D02*
X0080300Y0158526D01*
X0080300Y0159125D02*
X0005600Y0159125D01*
X0005600Y0159723D02*
X0080300Y0159723D01*
X0080300Y0160322D02*
X0005600Y0160322D01*
X0005600Y0160920D02*
X0080300Y0160920D01*
X0080300Y0161519D02*
X0029856Y0161519D01*
X0031048Y0161838D02*
X0033852Y0163458D01*
X0036142Y0165748D01*
X0037762Y0168552D01*
X0038600Y0171681D01*
X0038600Y0174919D01*
X0037762Y0178048D01*
X0036142Y0180852D01*
X0033852Y0183142D01*
X0031048Y0184762D01*
X0027919Y0185600D01*
X0024681Y0185600D01*
X0021552Y0184762D01*
X0018748Y0183142D01*
X0016458Y0180852D01*
X0014838Y0178048D01*
X0014000Y0174919D01*
X0014000Y0171681D01*
X0014838Y0168552D01*
X0016458Y0165748D01*
X0018748Y0163458D01*
X0021552Y0161838D01*
X0024681Y0161000D01*
X0027919Y0161000D01*
X0031048Y0161838D01*
X0031531Y0162117D02*
X0080300Y0162117D01*
X0080300Y0162716D02*
X0032568Y0162716D01*
X0033604Y0163314D02*
X0080300Y0163314D01*
X0080300Y0163913D02*
X0034308Y0163913D01*
X0034906Y0164511D02*
X0080300Y0164511D01*
X0080300Y0165110D02*
X0035505Y0165110D01*
X0036103Y0165708D02*
X0080300Y0165708D01*
X0080300Y0166307D02*
X0036465Y0166307D01*
X0036811Y0166905D02*
X0080300Y0166905D01*
X0080300Y0167504D02*
X0037156Y0167504D01*
X0037502Y0168103D02*
X0060441Y0168103D01*
X0060485Y0168027D02*
X0060727Y0167785D01*
X0061023Y0167614D01*
X0061354Y0167525D01*
X0066100Y0167525D01*
X0066100Y0173400D01*
X0060225Y0173400D01*
X0060225Y0168654D01*
X0060314Y0168323D01*
X0060485Y0168027D01*
X0060225Y0168701D02*
X0037802Y0168701D01*
X0037962Y0169300D02*
X0060225Y0169300D01*
X0060225Y0169898D02*
X0038122Y0169898D01*
X0038283Y0170497D02*
X0060225Y0170497D01*
X0060225Y0171095D02*
X0038443Y0171095D01*
X0038600Y0171694D02*
X0060225Y0171694D01*
X0060225Y0172292D02*
X0038600Y0172292D01*
X0038600Y0172891D02*
X0060225Y0172891D01*
X0060225Y0174000D02*
X0066100Y0174000D01*
X0066100Y0179875D01*
X0061354Y0179875D01*
X0061023Y0179786D01*
X0060727Y0179615D01*
X0060485Y0179373D01*
X0060314Y0179077D01*
X0060225Y0178746D01*
X0060225Y0174000D01*
X0060225Y0174088D02*
X0038600Y0174088D01*
X0038600Y0174686D02*
X0060225Y0174686D01*
X0060225Y0175285D02*
X0038502Y0175285D01*
X0038342Y0175883D02*
X0060225Y0175883D01*
X0060225Y0176482D02*
X0038181Y0176482D01*
X0038021Y0177080D02*
X0060225Y0177080D01*
X0060225Y0177679D02*
X0037861Y0177679D01*
X0037629Y0178277D02*
X0060225Y0178277D01*
X0060260Y0178876D02*
X0037284Y0178876D01*
X0036938Y0179474D02*
X0060586Y0179474D01*
X0066100Y0179474D02*
X0066700Y0179474D01*
X0066700Y0179875D02*
X0066700Y0174000D01*
X0066100Y0174000D01*
X0066100Y0173400D01*
X0066700Y0173400D01*
X0066700Y0174000D01*
X0072575Y0174000D01*
X0072575Y0178746D01*
X0072486Y0179077D01*
X0072315Y0179373D01*
X0072073Y0179615D01*
X0071777Y0179786D01*
X0071446Y0179875D01*
X0066700Y0179875D01*
X0066700Y0178876D02*
X0066100Y0178876D01*
X0066100Y0178277D02*
X0066700Y0178277D01*
X0066700Y0177679D02*
X0066100Y0177679D01*
X0066100Y0177080D02*
X0066700Y0177080D01*
X0066700Y0176482D02*
X0066100Y0176482D01*
X0066100Y0175883D02*
X0066700Y0175883D01*
X0066700Y0175285D02*
X0066100Y0175285D01*
X0066100Y0174686D02*
X0066700Y0174686D01*
X0066700Y0174088D02*
X0066100Y0174088D01*
X0066100Y0173489D02*
X0038600Y0173489D01*
X0036593Y0180073D02*
X0080300Y0180073D01*
X0080300Y0180671D02*
X0036247Y0180671D01*
X0035725Y0181270D02*
X0080300Y0181270D01*
X0080300Y0181868D02*
X0035127Y0181868D01*
X0034528Y0182467D02*
X0080300Y0182467D01*
X0080300Y0183065D02*
X0033930Y0183065D01*
X0032949Y0183664D02*
X0080300Y0183664D01*
X0080300Y0184262D02*
X0031913Y0184262D01*
X0030678Y0184861D02*
X0080300Y0184861D01*
X0080300Y0185459D02*
X0028444Y0185459D01*
X0024156Y0185459D02*
X0005600Y0185459D01*
X0005600Y0184861D02*
X0021922Y0184861D01*
X0020687Y0184262D02*
X0005600Y0184262D01*
X0005600Y0183664D02*
X0019651Y0183664D01*
X0018670Y0183065D02*
X0005600Y0183065D01*
X0005600Y0182467D02*
X0018072Y0182467D01*
X0017473Y0181868D02*
X0005600Y0181868D01*
X0005600Y0181270D02*
X0016875Y0181270D01*
X0016353Y0180671D02*
X0005600Y0180671D01*
X0005600Y0180073D02*
X0016007Y0180073D01*
X0015662Y0179474D02*
X0005600Y0179474D01*
X0005600Y0178876D02*
X0015316Y0178876D01*
X0014971Y0178277D02*
X0005600Y0178277D01*
X0005600Y0177679D02*
X0014739Y0177679D01*
X0014579Y0177080D02*
X0005600Y0177080D01*
X0005600Y0176482D02*
X0014419Y0176482D01*
X0014258Y0175883D02*
X0005600Y0175883D01*
X0005600Y0175285D02*
X0014098Y0175285D01*
X0014000Y0174686D02*
X0005600Y0174686D01*
X0005600Y0174088D02*
X0014000Y0174088D01*
X0014000Y0173489D02*
X0005600Y0173489D01*
X0005600Y0172891D02*
X0014000Y0172891D01*
X0014000Y0172292D02*
X0005600Y0172292D01*
X0005600Y0171694D02*
X0014000Y0171694D01*
X0014157Y0171095D02*
X0005600Y0171095D01*
X0005600Y0170497D02*
X0014317Y0170497D01*
X0014478Y0169898D02*
X0005600Y0169898D01*
X0005600Y0169300D02*
X0014638Y0169300D01*
X0014798Y0168701D02*
X0005600Y0168701D01*
X0005600Y0168103D02*
X0015098Y0168103D01*
X0015443Y0167504D02*
X0005600Y0167504D01*
X0005600Y0166905D02*
X0015789Y0166905D01*
X0016135Y0166307D02*
X0005600Y0166307D01*
X0005600Y0165708D02*
X0016497Y0165708D01*
X0017095Y0165110D02*
X0005600Y0165110D01*
X0005600Y0164511D02*
X0017694Y0164511D01*
X0018292Y0163913D02*
X0005600Y0163913D01*
X0005600Y0163314D02*
X0018995Y0163314D01*
X0020032Y0162716D02*
X0005600Y0162716D01*
X0005600Y0162117D02*
X0021069Y0162117D01*
X0022744Y0161519D02*
X0005600Y0161519D01*
X0005600Y0186058D02*
X0080300Y0186058D01*
X0080300Y0186656D02*
X0005600Y0186656D01*
X0005600Y0187255D02*
X0080300Y0187255D01*
X0080300Y0187853D02*
X0005600Y0187853D01*
X0005600Y0188452D02*
X0080300Y0188452D01*
X0080300Y0189050D02*
X0005600Y0189050D01*
X0005600Y0189649D02*
X0080300Y0189649D01*
X0080300Y0190247D02*
X0005600Y0190247D01*
X0005600Y0190846D02*
X0080300Y0190846D01*
X0080300Y0191444D02*
X0005600Y0191444D01*
X0005600Y0192043D02*
X0080300Y0192043D01*
X0080300Y0192641D02*
X0005600Y0192641D01*
X0005600Y0193240D02*
X0080300Y0193240D01*
X0080300Y0179474D02*
X0072214Y0179474D01*
X0072540Y0178876D02*
X0080300Y0178876D01*
X0080300Y0178277D02*
X0072575Y0178277D01*
X0072575Y0177679D02*
X0080300Y0177679D01*
X0080300Y0177080D02*
X0072575Y0177080D01*
X0072575Y0176482D02*
X0080300Y0176482D01*
X0080300Y0175883D02*
X0072575Y0175883D01*
X0072575Y0175285D02*
X0080300Y0175285D01*
X0080300Y0174686D02*
X0072575Y0174686D01*
X0072575Y0174088D02*
X0080300Y0174088D01*
X0080300Y0173489D02*
X0066700Y0173489D01*
X0066700Y0173400D02*
X0072575Y0173400D01*
X0072575Y0168654D01*
X0072486Y0168323D01*
X0072315Y0168027D01*
X0072073Y0167785D01*
X0071777Y0167614D01*
X0071446Y0167525D01*
X0066700Y0167525D01*
X0066700Y0173400D01*
X0066700Y0172891D02*
X0066100Y0172891D01*
X0066100Y0172292D02*
X0066700Y0172292D01*
X0066700Y0171694D02*
X0066100Y0171694D01*
X0066100Y0171095D02*
X0066700Y0171095D01*
X0066700Y0170497D02*
X0066100Y0170497D01*
X0066100Y0169898D02*
X0066700Y0169898D01*
X0066700Y0169300D02*
X0066100Y0169300D01*
X0066100Y0168701D02*
X0066700Y0168701D01*
X0066700Y0168103D02*
X0066100Y0168103D01*
X0072359Y0168103D02*
X0080300Y0168103D01*
X0080300Y0168701D02*
X0072575Y0168701D01*
X0072575Y0169300D02*
X0080300Y0169300D01*
X0080300Y0169898D02*
X0072575Y0169898D01*
X0072575Y0170497D02*
X0080300Y0170497D01*
X0080300Y0171095D02*
X0072575Y0171095D01*
X0072575Y0171694D02*
X0080300Y0171694D01*
X0080300Y0172292D02*
X0072575Y0172292D01*
X0072575Y0172891D02*
X0080300Y0172891D01*
X0042300Y0126805D02*
X0033770Y0126805D01*
X0034647Y0126207D02*
X0042300Y0126207D01*
X0042300Y0125608D02*
X0035246Y0125608D01*
X0035765Y0125010D02*
X0042300Y0125010D01*
X0042300Y0124411D02*
X0036013Y0124411D01*
X0036260Y0123813D02*
X0042300Y0123813D01*
X0042300Y0123214D02*
X0036500Y0123214D01*
X0036500Y0122616D02*
X0042300Y0122616D01*
X0042300Y0122017D02*
X0036500Y0122017D01*
X0036500Y0121419D02*
X0042300Y0121419D01*
X0042300Y0120820D02*
X0036500Y0120820D01*
X0036500Y0120222D02*
X0042300Y0120222D01*
X0042300Y0119623D02*
X0036500Y0119623D01*
X0036500Y0119025D02*
X0042300Y0119025D01*
X0042300Y0118426D02*
X0036500Y0118426D01*
X0036500Y0117828D02*
X0042300Y0117828D01*
X0042300Y0117229D02*
X0036500Y0117229D01*
X0036500Y0116631D02*
X0042300Y0116631D01*
X0042300Y0116032D02*
X0036500Y0116032D01*
X0036500Y0115434D02*
X0042300Y0115434D01*
X0042300Y0114835D02*
X0036500Y0114835D01*
X0036500Y0114237D02*
X0042300Y0114237D01*
X0042300Y0113638D02*
X0036500Y0113638D01*
X0036365Y0113039D02*
X0042300Y0113039D01*
X0042300Y0112441D02*
X0036117Y0112441D01*
X0035869Y0111842D02*
X0042300Y0111842D01*
X0042300Y0111244D02*
X0035498Y0111244D01*
X0034899Y0110645D02*
X0042300Y0110645D01*
X0042300Y0110047D02*
X0034301Y0110047D01*
X0032934Y0109448D02*
X0042300Y0109448D01*
X0011600Y0096880D02*
X0011000Y0096880D01*
X0011000Y0096281D02*
X0011600Y0096281D01*
X0011600Y0095683D02*
X0011000Y0095683D01*
X0011000Y0095084D02*
X0011600Y0095084D01*
X0011600Y0094486D02*
X0011000Y0094486D01*
X0011000Y0093887D02*
X0011600Y0093887D01*
X0011600Y0093289D02*
X0011000Y0093289D01*
X0011000Y0092690D02*
X0011600Y0092690D01*
X0011600Y0092092D02*
X0011000Y0092092D01*
X0011000Y0091493D02*
X0011600Y0091493D01*
X0011600Y0090895D02*
X0011000Y0090895D01*
X0011000Y0090296D02*
X0011600Y0090296D01*
X0011600Y0089698D02*
X0011000Y0089698D01*
X0011000Y0087902D02*
X0011600Y0087902D01*
X0011600Y0088000D02*
X0011600Y0079200D01*
X0011709Y0079200D01*
X0012518Y0079328D01*
X0013296Y0079581D01*
X0014025Y0079953D01*
X0014688Y0080434D01*
X0015266Y0081012D01*
X0015747Y0081675D01*
X0016119Y0082404D01*
X0016372Y0083182D01*
X0016500Y0083991D01*
X0016500Y0088000D01*
X0011600Y0088000D01*
X0011600Y0087303D02*
X0011000Y0087303D01*
X0011000Y0086705D02*
X0011600Y0086705D01*
X0011600Y0086106D02*
X0011000Y0086106D01*
X0011000Y0085508D02*
X0011600Y0085508D01*
X0011600Y0084909D02*
X0011000Y0084909D01*
X0011000Y0084311D02*
X0011600Y0084311D01*
X0011600Y0083712D02*
X0011000Y0083712D01*
X0011000Y0083114D02*
X0011600Y0083114D01*
X0011600Y0082515D02*
X0011000Y0082515D01*
X0011000Y0081917D02*
X0011600Y0081917D01*
X0011600Y0081318D02*
X0011000Y0081318D01*
X0011000Y0080720D02*
X0011600Y0080720D01*
X0011600Y0080121D02*
X0011000Y0080121D01*
X0011000Y0079523D02*
X0011600Y0079523D01*
X0013117Y0079523D02*
X0029486Y0079523D01*
X0028225Y0080121D02*
X0014258Y0080121D01*
X0014974Y0080720D02*
X0027626Y0080720D01*
X0027028Y0081318D02*
X0015489Y0081318D01*
X0015871Y0081917D02*
X0026700Y0081917D01*
X0026452Y0082515D02*
X0016155Y0082515D01*
X0016350Y0083114D02*
X0026204Y0083114D01*
X0026100Y0083712D02*
X0016456Y0083712D01*
X0016500Y0084311D02*
X0026100Y0084311D01*
X0026100Y0084909D02*
X0016500Y0084909D01*
X0016500Y0085508D02*
X0026100Y0085508D01*
X0026100Y0086106D02*
X0016500Y0086106D01*
X0016500Y0086705D02*
X0026100Y0086705D01*
X0026100Y0087303D02*
X0016500Y0087303D01*
X0016500Y0087902D02*
X0026100Y0087902D01*
X0009483Y0079523D02*
X0005600Y0079523D01*
X0005600Y0080121D02*
X0008342Y0080121D01*
X0007626Y0080720D02*
X0005600Y0080720D01*
X0005600Y0081318D02*
X0007111Y0081318D01*
X0006729Y0081917D02*
X0005600Y0081917D01*
X0005600Y0082515D02*
X0006445Y0082515D01*
X0006250Y0083114D02*
X0005600Y0083114D01*
X0005600Y0083712D02*
X0006144Y0083712D01*
X0006100Y0084311D02*
X0005600Y0084311D01*
X0005600Y0084909D02*
X0006100Y0084909D01*
X0006100Y0085508D02*
X0005600Y0085508D01*
X0005600Y0086106D02*
X0006100Y0086106D01*
X0006100Y0086705D02*
X0005600Y0086705D01*
X0005600Y0087303D02*
X0006100Y0087303D01*
X0006100Y0087902D02*
X0005600Y0087902D01*
X0030871Y0044809D02*
X0042300Y0044809D01*
X0042300Y0044211D02*
X0032002Y0044211D01*
X0033039Y0043612D02*
X0042300Y0043612D01*
X0042300Y0043014D02*
X0033981Y0043014D01*
X0034580Y0042415D02*
X0042300Y0042415D01*
X0042300Y0041817D02*
X0035178Y0041817D01*
X0035777Y0041218D02*
X0042300Y0041218D01*
X0042300Y0040620D02*
X0036277Y0040620D01*
X0036622Y0040021D02*
X0042300Y0040021D01*
X0042300Y0039423D02*
X0036968Y0039423D01*
X0037313Y0038824D02*
X0042300Y0038824D01*
X0042300Y0038226D02*
X0037659Y0038226D01*
X0037874Y0037627D02*
X0042300Y0037627D01*
X0042300Y0037029D02*
X0038035Y0037029D01*
X0038195Y0036430D02*
X0042300Y0036430D01*
X0042300Y0035832D02*
X0038356Y0035832D01*
X0038516Y0035233D02*
X0042300Y0035233D01*
X0042300Y0034634D02*
X0038600Y0034634D01*
X0038600Y0034036D02*
X0042300Y0034036D01*
X0042300Y0033437D02*
X0038600Y0033437D01*
X0038600Y0032839D02*
X0042300Y0032839D01*
X0042300Y0032240D02*
X0038600Y0032240D01*
X0038590Y0031642D02*
X0042300Y0031642D01*
X0042300Y0031043D02*
X0038429Y0031043D01*
X0038269Y0030445D02*
X0042300Y0030445D01*
X0042300Y0029846D02*
X0038108Y0029846D01*
X0037948Y0029248D02*
X0042300Y0029248D01*
X0042300Y0028649D02*
X0037788Y0028649D01*
X0037472Y0028051D02*
X0042300Y0028051D01*
X0042300Y0027452D02*
X0037127Y0027452D01*
X0036781Y0026854D02*
X0042300Y0026854D01*
X0042300Y0026255D02*
X0036436Y0026255D01*
X0036052Y0025657D02*
X0042300Y0025657D01*
X0042300Y0025058D02*
X0035453Y0025058D01*
X0034855Y0024460D02*
X0042300Y0024460D01*
X0042300Y0023861D02*
X0034256Y0023861D01*
X0033515Y0023263D02*
X0042300Y0023263D01*
X0042300Y0022664D02*
X0032478Y0022664D01*
X0031442Y0022066D02*
X0042300Y0022066D01*
X0042300Y0021467D02*
X0029663Y0021467D01*
D18*
X0014300Y0079300D02*
X0013300Y0080300D01*
X0010300Y0080300D01*
X0010300Y0089300D01*
X0011300Y0088300D01*
X0012300Y0089300D01*
X0012300Y0081300D01*
X0013300Y0080300D01*
X0012300Y0089300D02*
X0012300Y0096300D01*
X0010300Y0096300D02*
X0010300Y0089300D01*
X0010300Y0111300D02*
X0014300Y0111300D01*
X0014300Y0122300D01*
X0010300Y0122300D01*
X0010300Y0129300D01*
X0010300Y0122300D02*
X0010300Y0118300D01*
X0011300Y0118300D01*
X0011300Y0112300D01*
X0010300Y0111300D01*
X0063300Y0168300D02*
X0061300Y0170300D01*
X0064700Y0173700D01*
X0066400Y0173700D01*
X0064900Y0173700D01*
X0062300Y0176300D01*
X0072300Y0176300D01*
X0070300Y0174300D01*
X0070300Y0168300D01*
X0063300Y0168300D01*
M02*
