G75*
%MOIN*%
%OFA0B0*%
%FSLAX25Y25*%
%IPPOS*%
%LPD*%
%AMOC8*
5,1,8,0,0,1.08239X$1,22.5*
%
%ADD10C,0.16800*%
%ADD11R,0.05524X0.07887*%
%ADD12R,0.06312X0.05524*%
%ADD13C,0.08600*%
%ADD14R,0.05918X0.06706*%
%ADD15R,0.10550X0.10550*%
%ADD16OC8,0.06000*%
%ADD17C,0.06800*%
%ADD18R,0.05918X0.07099*%
%ADD19R,0.06706X0.05918*%
%ADD20C,0.04959*%
D10*
X0026300Y0033300D03*
X0276300Y0033300D03*
X0326300Y0058300D03*
X0376300Y0058300D03*
X0376300Y0148300D03*
X0326300Y0148300D03*
X0276300Y0173300D03*
X0026300Y0173300D03*
D11*
X0356418Y0103300D03*
D12*
X0346182Y0107631D03*
X0346182Y0098969D03*
D13*
X0111300Y0092200D02*
X0111300Y0084400D01*
X0111300Y0114400D02*
X0111300Y0122200D01*
X0051300Y0122200D02*
X0051300Y0114400D01*
X0031300Y0114400D02*
X0031300Y0122200D01*
X0011300Y0122200D02*
X0011300Y0114400D01*
X0011300Y0092200D02*
X0011300Y0084400D01*
X0031300Y0084400D02*
X0031300Y0092200D01*
X0051300Y0092200D02*
X0051300Y0084400D01*
D14*
X0160560Y0083300D03*
X0168040Y0083300D03*
D15*
X0096200Y0032900D03*
X0066300Y0032900D03*
X0066400Y0173700D03*
X0096300Y0173700D03*
D16*
X0136300Y0168300D03*
X0146300Y0168300D03*
X0136300Y0141300D03*
X0096300Y0141300D03*
X0096300Y0064300D03*
X0136300Y0064300D03*
X0136300Y0038300D03*
X0146300Y0038300D03*
D17*
X0181300Y0027300D02*
X0181300Y0021300D01*
X0191300Y0021300D02*
X0191300Y0027300D01*
X0201300Y0027300D02*
X0201300Y0021300D01*
X0211300Y0021300D02*
X0211300Y0027300D01*
X0150300Y0098300D02*
X0144300Y0098300D01*
X0144300Y0108300D02*
X0150300Y0108300D01*
X0150300Y0118300D02*
X0144300Y0118300D01*
X0181300Y0179300D02*
X0181300Y0185300D01*
X0191300Y0185300D02*
X0191300Y0179300D01*
X0201300Y0179300D02*
X0201300Y0185300D01*
X0211300Y0185300D02*
X0211300Y0179300D01*
D18*
X0347363Y0122300D03*
X0355237Y0122300D03*
D19*
X0132300Y0118560D03*
X0132300Y0126040D03*
D20*
X0179300Y0073300D03*
X0346300Y0114300D03*
M02*
