%
M48
M72
T01C0.01378
T02C0.03200
T03C0.04000
%
T01
X77250Y71200
X130250Y121200
X130250Y142200
X130250Y167200
X146250Y191700
X223750Y186700
X228750Y196700
X226250Y174200
X234250Y154200
X333750Y186700
X351250Y149200
X258750Y89200
X224250Y89200
X208250Y89200
X189250Y89200
X298250Y63200
T02
X71250Y54200
X81250Y54200
X91250Y54200
X101250Y54200
X111250Y54200
X111250Y86200
X101250Y86200
X91250Y86200
X81250Y86200
X71250Y86200
X306250Y94200
X316250Y94200
X326250Y94200
X336250Y94200
X346250Y94200
X356250Y94200
X356250Y69200
X346250Y69200
X336250Y69200
X326250Y69200
X316250Y69200
X306250Y69200
X306250Y119200
X316250Y119200
X326250Y119200
X336250Y119200
X346250Y119200
X356250Y119200
X356250Y144200
X346250Y144200
X336250Y144200
X326250Y144200
X316250Y144200
X306250Y144200
T03
X251250Y139200
X251250Y149200
X251250Y159200
X251250Y169200
X216250Y169200
X216250Y159200
X216250Y149200
X216250Y139200
X181250Y139200
X181250Y149200
X181250Y159200
X181250Y169200
X156250Y179200
X146250Y179200
X136250Y179200
X111250Y179200
X101250Y179200
X91250Y179200
X81250Y179200
X81250Y154200
X91250Y154200
X101250Y154200
X111250Y154200
X136250Y154200
X146250Y154200
X156250Y154200
X156250Y129200
X146250Y129200
X136250Y129200
X111250Y129200
X101250Y129200
X91250Y129200
X81250Y129200
X81250Y104200
X91250Y104200
X101250Y104200
X111250Y104200
X136250Y104200
X146250Y104200
X156250Y104200
X181250Y94200
X181250Y84200
X181250Y74200
X181250Y64200
X156250Y54200
X146250Y54200
X136250Y54200
X136250Y79200
X146250Y79200
X156250Y79200
X216250Y74200
X216250Y64200
X216250Y84200
X216250Y94200
X251250Y94200
X251250Y84200
X251250Y74200
X251250Y64200
X246250Y19200
X236250Y19200
X226250Y19200
X206250Y19200
X196250Y19200
X186250Y19200
X176250Y19200
X166250Y19200
X156250Y19200
X146250Y19200
X136250Y19200
X256250Y19200
X266250Y19200
X276250Y19200
X286250Y19200
X296250Y19200
X316250Y19200
X326250Y19200
X336250Y19200
X346250Y19200
X356250Y19200
X366250Y19200
X376250Y19200
X386250Y19200
X396250Y39200
X406250Y39200
X406250Y49200
X396250Y49200
X396250Y59200
X406250Y59200
X406250Y69200
X396250Y69200
X396250Y79200
X406250Y79200
X406250Y89200
X396250Y89200
X396250Y99200
X406250Y99200
X406250Y109200
X396250Y109200
X396250Y119200
X406250Y119200
X406250Y129200
X396250Y129200
X396250Y139200
X406250Y139200
X406250Y149200
X396250Y149200
X396250Y159200
X406250Y159200
X406250Y169200
X396250Y169200
X396250Y179200
X406250Y179200
X406250Y189200
X396250Y189200
X396250Y199200
X406250Y199200
X406250Y209200
X396250Y209200
X366250Y209200
X356250Y209200
X346250Y209200
X336250Y209200
X326250Y209200
X316250Y209200
X306250Y209200
X296250Y209200
X276250Y209200
X266250Y209200
X256250Y209200
X246250Y209200
X236250Y209200
X226250Y209200
X216250Y209200
X206250Y209200
X191250Y209200
X181250Y209200
X171250Y209200
X161250Y209200
X151250Y209200
X141250Y209200
X131250Y209200
X121250Y209200
X111250Y209200
X101250Y209200
M30
