G75*
%MOIN*%
%OFA0B0*%
%FSLAX25Y25*%
%IPPOS*%
%LPD*%
%AMOC8*
5,1,8,0,0,1.08239X$1,22.5*
%
%ADD10C,0.00000*%
%ADD11C,0.07400*%
%ADD12OC8,0.07400*%
%ADD13C,0.06000*%
%ADD14C,0.05200*%
%ADD15C,0.05000*%
%ADD16C,0.01600*%
%ADD17C,0.02978*%
D10*
X0026250Y0009200D02*
X0026250Y0219161D01*
X0419951Y0219161D01*
X0419951Y0009200D01*
X0026250Y0009200D01*
D11*
X0136250Y0019200D03*
X0146250Y0019200D03*
X0156250Y0019200D03*
X0166250Y0019200D03*
X0176250Y0019200D03*
X0186250Y0019200D03*
X0196250Y0019200D03*
X0206250Y0019200D03*
X0226250Y0019200D03*
X0236250Y0019200D03*
X0246250Y0019200D03*
X0256250Y0019200D03*
X0266250Y0019200D03*
X0276250Y0019200D03*
X0286250Y0019200D03*
X0296250Y0019200D03*
X0316250Y0019200D03*
X0326250Y0019200D03*
X0336250Y0019200D03*
X0346250Y0019200D03*
X0356250Y0019200D03*
X0366250Y0019200D03*
X0376250Y0019200D03*
X0386250Y0019200D03*
X0396250Y0039200D03*
X0406250Y0039200D03*
X0406250Y0209200D03*
X0396250Y0209200D03*
X0366250Y0209200D03*
X0356250Y0209200D03*
X0346250Y0209200D03*
X0336250Y0209200D03*
X0326250Y0209200D03*
X0316250Y0209200D03*
X0306250Y0209200D03*
X0296250Y0209200D03*
X0276250Y0209200D03*
X0266250Y0209200D03*
X0256250Y0209200D03*
X0246250Y0209200D03*
X0236250Y0209200D03*
X0226250Y0209200D03*
X0216250Y0209200D03*
X0206250Y0209200D03*
X0191250Y0209200D03*
X0181250Y0209200D03*
X0171250Y0209200D03*
X0161250Y0209200D03*
X0151250Y0209200D03*
X0141250Y0209200D03*
X0131250Y0209200D03*
X0121250Y0209200D03*
X0111250Y0209200D03*
X0101250Y0209200D03*
D12*
X0396250Y0199200D03*
X0406250Y0199200D03*
X0406250Y0189200D03*
X0396250Y0189200D03*
X0396250Y0179200D03*
X0406250Y0179200D03*
X0406250Y0169200D03*
X0396250Y0169200D03*
X0396250Y0159200D03*
X0406250Y0159200D03*
X0406250Y0149200D03*
X0396250Y0149200D03*
X0396250Y0139200D03*
X0406250Y0139200D03*
X0406250Y0129200D03*
X0396250Y0129200D03*
X0396250Y0119200D03*
X0406250Y0119200D03*
X0406250Y0109200D03*
X0396250Y0109200D03*
X0396250Y0099200D03*
X0406250Y0099200D03*
X0406250Y0089200D03*
X0396250Y0089200D03*
X0396250Y0079200D03*
X0406250Y0079200D03*
X0406250Y0069200D03*
X0396250Y0069200D03*
X0396250Y0059200D03*
X0406250Y0059200D03*
X0406250Y0049200D03*
X0396250Y0049200D03*
D13*
X0254250Y0064200D02*
X0248250Y0064200D01*
X0248250Y0074200D02*
X0254250Y0074200D01*
X0254250Y0084200D02*
X0248250Y0084200D01*
X0248250Y0094200D02*
X0254250Y0094200D01*
X0219250Y0094200D02*
X0213250Y0094200D01*
X0213250Y0084200D02*
X0219250Y0084200D01*
X0219250Y0074200D02*
X0213250Y0074200D01*
X0213250Y0064200D02*
X0219250Y0064200D01*
X0184250Y0064200D02*
X0178250Y0064200D01*
X0178250Y0074200D02*
X0184250Y0074200D01*
X0184250Y0084200D02*
X0178250Y0084200D01*
X0178250Y0094200D02*
X0184250Y0094200D01*
X0156250Y0101200D02*
X0156250Y0107200D01*
X0146250Y0107200D02*
X0146250Y0101200D01*
X0136250Y0101200D02*
X0136250Y0107200D01*
X0111250Y0107200D02*
X0111250Y0101200D01*
X0101250Y0101200D02*
X0101250Y0107200D01*
X0091250Y0107200D02*
X0091250Y0101200D01*
X0081250Y0101200D02*
X0081250Y0107200D01*
X0081250Y0126200D02*
X0081250Y0132200D01*
X0091250Y0132200D02*
X0091250Y0126200D01*
X0101250Y0126200D02*
X0101250Y0132200D01*
X0111250Y0132200D02*
X0111250Y0126200D01*
X0136250Y0126200D02*
X0136250Y0132200D01*
X0146250Y0132200D02*
X0146250Y0126200D01*
X0156250Y0126200D02*
X0156250Y0132200D01*
X0178250Y0139200D02*
X0184250Y0139200D01*
X0184250Y0149200D02*
X0178250Y0149200D01*
X0178250Y0159200D02*
X0184250Y0159200D01*
X0184250Y0169200D02*
X0178250Y0169200D01*
X0156250Y0176200D02*
X0156250Y0182200D01*
X0146250Y0182200D02*
X0146250Y0176200D01*
X0136250Y0176200D02*
X0136250Y0182200D01*
X0111250Y0182200D02*
X0111250Y0176200D01*
X0101250Y0176200D02*
X0101250Y0182200D01*
X0091250Y0182200D02*
X0091250Y0176200D01*
X0081250Y0176200D02*
X0081250Y0182200D01*
X0081250Y0157200D02*
X0081250Y0151200D01*
X0091250Y0151200D02*
X0091250Y0157200D01*
X0101250Y0157200D02*
X0101250Y0151200D01*
X0111250Y0151200D02*
X0111250Y0157200D01*
X0136250Y0157200D02*
X0136250Y0151200D01*
X0146250Y0151200D02*
X0146250Y0157200D01*
X0156250Y0157200D02*
X0156250Y0151200D01*
X0213250Y0149200D02*
X0219250Y0149200D01*
X0219250Y0159200D02*
X0213250Y0159200D01*
X0213250Y0169200D02*
X0219250Y0169200D01*
X0248250Y0169200D02*
X0254250Y0169200D01*
X0254250Y0159200D02*
X0248250Y0159200D01*
X0248250Y0149200D02*
X0254250Y0149200D01*
X0254250Y0139200D02*
X0248250Y0139200D01*
X0219250Y0139200D02*
X0213250Y0139200D01*
X0156250Y0082200D02*
X0156250Y0076200D01*
X0146250Y0076200D02*
X0146250Y0082200D01*
X0136250Y0082200D02*
X0136250Y0076200D01*
X0136250Y0057200D02*
X0136250Y0051200D01*
X0146250Y0051200D02*
X0146250Y0057200D01*
X0156250Y0057200D02*
X0156250Y0051200D01*
D14*
X0111250Y0051600D02*
X0111250Y0056800D01*
X0101250Y0056800D02*
X0101250Y0051600D01*
X0091250Y0051600D02*
X0091250Y0056800D01*
X0081250Y0056800D02*
X0081250Y0051600D01*
X0071250Y0051600D02*
X0071250Y0056800D01*
X0071250Y0083600D02*
X0071250Y0088800D01*
X0081250Y0088800D02*
X0081250Y0083600D01*
X0091250Y0083600D02*
X0091250Y0088800D01*
X0101250Y0088800D02*
X0101250Y0083600D01*
X0111250Y0083600D02*
X0111250Y0088800D01*
X0306250Y0091600D02*
X0306250Y0096800D01*
X0316250Y0096800D02*
X0316250Y0091600D01*
X0326250Y0091600D02*
X0326250Y0096800D01*
X0336250Y0096800D02*
X0336250Y0091600D01*
X0346250Y0091600D02*
X0346250Y0096800D01*
X0356250Y0096800D02*
X0356250Y0091600D01*
X0356250Y0071800D02*
X0356250Y0066600D01*
X0346250Y0066600D02*
X0346250Y0071800D01*
X0336250Y0071800D02*
X0336250Y0066600D01*
X0326250Y0066600D02*
X0326250Y0071800D01*
X0316250Y0071800D02*
X0316250Y0066600D01*
X0306250Y0066600D02*
X0306250Y0071800D01*
X0306250Y0116600D02*
X0306250Y0121800D01*
X0316250Y0121800D02*
X0316250Y0116600D01*
X0326250Y0116600D02*
X0326250Y0121800D01*
X0336250Y0121800D02*
X0336250Y0116600D01*
X0346250Y0116600D02*
X0346250Y0121800D01*
X0356250Y0121800D02*
X0356250Y0116600D01*
X0356250Y0141600D02*
X0356250Y0146800D01*
X0346250Y0146800D02*
X0346250Y0141600D01*
X0336250Y0141600D02*
X0336250Y0146800D01*
X0326250Y0146800D02*
X0326250Y0141600D01*
X0316250Y0141600D02*
X0316250Y0146800D01*
X0306250Y0146800D02*
X0306250Y0141600D01*
D15*
X0306250Y0144200D02*
X0306250Y0119200D01*
X0306250Y0100200D01*
X0300250Y0094200D01*
X0306250Y0088200D01*
X0306250Y0069200D01*
X0300150Y0069182D02*
X0258460Y0069182D01*
X0258442Y0069200D02*
X0259760Y0070518D01*
X0260750Y0072907D01*
X0260750Y0075493D01*
X0259760Y0077882D01*
X0258429Y0079213D01*
X0258545Y0079303D01*
X0259147Y0079905D01*
X0259666Y0080581D01*
X0260092Y0081319D01*
X0260418Y0082106D01*
X0260639Y0082929D01*
X0260750Y0083774D01*
X0260750Y0084200D01*
X0260750Y0084626D01*
X0260750Y0084628D01*
X0261576Y0084971D01*
X0262979Y0086374D01*
X0263736Y0088200D01*
X0297765Y0088200D01*
X0300250Y0085715D01*
X0300250Y0073255D01*
X0300150Y0073013D01*
X0300150Y0065387D01*
X0300931Y0063500D01*
X0260750Y0063500D01*
X0260750Y0065493D01*
X0259760Y0067882D01*
X0258442Y0069200D01*
X0260750Y0074181D02*
X0300250Y0074181D01*
X0300250Y0079179D02*
X0258463Y0079179D01*
X0260750Y0084178D02*
X0300250Y0084178D01*
X0306250Y0088200D02*
X0306250Y0094200D01*
X0300250Y0094200D01*
X0251250Y0094200D01*
X0216250Y0094200D01*
X0181250Y0094200D01*
X0176250Y0094200D01*
X0171250Y0089200D01*
X0171250Y0044200D01*
X0166250Y0039200D01*
X0151250Y0039200D01*
X0146250Y0044200D01*
X0141250Y0039200D01*
X0076250Y0039200D01*
X0071250Y0044200D01*
X0071250Y0054200D01*
X0071250Y0086200D01*
X0071250Y0094200D01*
X0081250Y0104200D01*
X0081250Y0129200D01*
X0081250Y0154200D01*
X0081250Y0179200D01*
X0074750Y0179149D02*
X0032750Y0179149D01*
X0032750Y0174151D02*
X0075063Y0174151D01*
X0075250Y0173700D02*
X0074750Y0174907D01*
X0074750Y0183493D01*
X0075740Y0185882D01*
X0077568Y0187710D01*
X0079957Y0188700D01*
X0082543Y0188700D01*
X0084932Y0187710D01*
X0086263Y0186379D01*
X0086353Y0186495D01*
X0086955Y0187097D01*
X0087631Y0187616D01*
X0088369Y0188042D01*
X0089156Y0188368D01*
X0089979Y0188589D01*
X0090824Y0188700D01*
X0091250Y0188700D01*
X0091250Y0179200D01*
X0091250Y0179200D01*
X0091250Y0188700D01*
X0091676Y0188700D01*
X0092521Y0188589D01*
X0093344Y0188368D01*
X0094131Y0188042D01*
X0094869Y0187616D01*
X0095250Y0187324D01*
X0095250Y0205018D01*
X0095146Y0205122D01*
X0094050Y0207768D01*
X0094050Y0210632D01*
X0094890Y0212661D01*
X0032750Y0212661D01*
X0032750Y0015700D01*
X0129907Y0015700D01*
X0129050Y0017768D01*
X0129050Y0020632D01*
X0130146Y0023278D01*
X0132172Y0025304D01*
X0134818Y0026400D01*
X0137682Y0026400D01*
X0140328Y0025304D01*
X0141250Y0024382D01*
X0142172Y0025304D01*
X0144818Y0026400D01*
X0147682Y0026400D01*
X0150328Y0025304D01*
X0151250Y0024382D01*
X0152172Y0025304D01*
X0154818Y0026400D01*
X0157682Y0026400D01*
X0160328Y0025304D01*
X0161250Y0024382D01*
X0162172Y0025304D01*
X0164818Y0026400D01*
X0167682Y0026400D01*
X0170250Y0025336D01*
X0170250Y0026715D01*
X0163765Y0033200D01*
X0075057Y0033200D01*
X0072851Y0034113D01*
X0071163Y0035801D01*
X0067851Y0039113D01*
X0066163Y0040801D01*
X0065250Y0043007D01*
X0065250Y0050145D01*
X0065150Y0050387D01*
X0065150Y0058013D01*
X0065250Y0058255D01*
X0065250Y0082145D01*
X0065150Y0082387D01*
X0065150Y0090013D01*
X0065250Y0090255D01*
X0065250Y0095393D01*
X0066163Y0097599D01*
X0067851Y0099287D01*
X0074750Y0106185D01*
X0074750Y0108493D01*
X0075250Y0109700D01*
X0075250Y0123700D01*
X0074750Y0124907D01*
X0074750Y0133493D01*
X0075250Y0134700D01*
X0075250Y0148700D01*
X0074750Y0149907D01*
X0074750Y0158493D01*
X0075250Y0159700D01*
X0075250Y0173700D01*
X0075250Y0169152D02*
X0032750Y0169152D01*
X0032750Y0164154D02*
X0075250Y0164154D01*
X0075024Y0159155D02*
X0032750Y0159155D01*
X0032750Y0154157D02*
X0074750Y0154157D01*
X0075060Y0149158D02*
X0032750Y0149158D01*
X0032750Y0144160D02*
X0075250Y0144160D01*
X0075250Y0139161D02*
X0032750Y0139161D01*
X0032750Y0134163D02*
X0075027Y0134163D01*
X0074750Y0129164D02*
X0032750Y0129164D01*
X0032750Y0124166D02*
X0075057Y0124166D01*
X0075250Y0119167D02*
X0032750Y0119167D01*
X0032750Y0114169D02*
X0075250Y0114169D01*
X0075031Y0109170D02*
X0032750Y0109170D01*
X0032750Y0104172D02*
X0072736Y0104172D01*
X0067738Y0099173D02*
X0032750Y0099173D01*
X0032750Y0094175D02*
X0065250Y0094175D01*
X0065150Y0089176D02*
X0032750Y0089176D01*
X0032750Y0084178D02*
X0065150Y0084178D01*
X0065250Y0079179D02*
X0032750Y0079179D01*
X0032750Y0074181D02*
X0065250Y0074181D01*
X0065250Y0069182D02*
X0032750Y0069182D01*
X0032750Y0064184D02*
X0065250Y0064184D01*
X0065250Y0059185D02*
X0032750Y0059185D01*
X0032750Y0054187D02*
X0065150Y0054187D01*
X0065250Y0049188D02*
X0032750Y0049188D01*
X0032750Y0044190D02*
X0065250Y0044190D01*
X0067774Y0039191D02*
X0032750Y0039191D01*
X0032750Y0034193D02*
X0072772Y0034193D01*
X0078735Y0045200D02*
X0077250Y0046685D01*
X0077250Y0046973D01*
X0077276Y0046947D01*
X0078053Y0046383D01*
X0078908Y0045947D01*
X0079822Y0045650D01*
X0080770Y0045500D01*
X0081250Y0045500D01*
X0081730Y0045500D01*
X0082678Y0045650D01*
X0083592Y0045947D01*
X0084447Y0046383D01*
X0085224Y0046947D01*
X0085903Y0047626D01*
X0086195Y0048028D01*
X0087795Y0046429D01*
X0090037Y0045500D01*
X0092463Y0045500D01*
X0094705Y0046429D01*
X0096250Y0047973D01*
X0097795Y0046429D01*
X0100037Y0045500D01*
X0102463Y0045500D01*
X0104705Y0046429D01*
X0106250Y0047973D01*
X0107795Y0046429D01*
X0110037Y0045500D01*
X0112463Y0045500D01*
X0114705Y0046429D01*
X0116421Y0048145D01*
X0117350Y0050387D01*
X0117350Y0058013D01*
X0116421Y0060255D01*
X0114705Y0061971D01*
X0112463Y0062900D01*
X0110037Y0062900D01*
X0107795Y0061971D01*
X0106250Y0060427D01*
X0104705Y0061971D01*
X0102463Y0062900D01*
X0101031Y0062900D01*
X0109895Y0071764D01*
X0110550Y0073345D01*
X0110550Y0077500D01*
X0112463Y0077500D01*
X0114705Y0078429D01*
X0116421Y0080145D01*
X0117350Y0082387D01*
X0117350Y0090013D01*
X0116983Y0090900D01*
X0118105Y0090900D01*
X0119686Y0091555D01*
X0120895Y0092764D01*
X0129750Y0101619D01*
X0129750Y0100774D01*
X0129861Y0099929D01*
X0130082Y0099106D01*
X0130408Y0098319D01*
X0130834Y0097581D01*
X0131353Y0096905D01*
X0131955Y0096303D01*
X0132631Y0095784D01*
X0133369Y0095358D01*
X0134156Y0095032D01*
X0134979Y0094811D01*
X0135824Y0094700D01*
X0136250Y0094700D01*
X0136676Y0094700D01*
X0137521Y0094811D01*
X0138344Y0095032D01*
X0139131Y0095358D01*
X0139869Y0095784D01*
X0140250Y0096076D01*
X0140250Y0087324D01*
X0139869Y0087616D01*
X0139131Y0088042D01*
X0138344Y0088368D01*
X0137521Y0088589D01*
X0136676Y0088700D01*
X0136250Y0088700D01*
X0136250Y0079200D01*
X0136250Y0079200D01*
X0136250Y0069700D01*
X0136676Y0069700D01*
X0137521Y0069811D01*
X0138344Y0070032D01*
X0139131Y0070358D01*
X0139869Y0070784D01*
X0140250Y0071076D01*
X0140250Y0062324D01*
X0139869Y0062616D01*
X0139131Y0063042D01*
X0138344Y0063368D01*
X0137521Y0063589D01*
X0136676Y0063700D01*
X0136250Y0063700D01*
X0136250Y0054200D01*
X0136250Y0054200D01*
X0136250Y0054200D01*
X0129750Y0054200D01*
X0129750Y0057626D01*
X0129861Y0058471D01*
X0130082Y0059294D01*
X0130408Y0060081D01*
X0130834Y0060819D01*
X0131353Y0061495D01*
X0131955Y0062097D01*
X0132631Y0062616D01*
X0133369Y0063042D01*
X0134156Y0063368D01*
X0134979Y0063589D01*
X0135824Y0063700D01*
X0136250Y0063700D01*
X0136250Y0054200D01*
X0129750Y0054200D01*
X0129750Y0050774D01*
X0129861Y0049929D01*
X0130082Y0049106D01*
X0130408Y0048319D01*
X0130834Y0047581D01*
X0131353Y0046905D01*
X0131955Y0046303D01*
X0132631Y0045784D01*
X0133369Y0045358D01*
X0133750Y0045200D01*
X0078735Y0045200D01*
X0081250Y0045500D02*
X0081250Y0054200D01*
X0081250Y0054200D01*
X0081250Y0062900D01*
X0081730Y0062900D01*
X0082678Y0062750D01*
X0083592Y0062453D01*
X0084447Y0062017D01*
X0085224Y0061453D01*
X0085903Y0060774D01*
X0086195Y0060372D01*
X0087795Y0061971D01*
X0088043Y0062074D01*
X0101950Y0075981D01*
X0101950Y0077500D01*
X0100037Y0077500D01*
X0097795Y0078429D01*
X0096250Y0079973D01*
X0094705Y0078429D01*
X0092463Y0077500D01*
X0090037Y0077500D01*
X0087795Y0078429D01*
X0086195Y0080028D01*
X0085903Y0079626D01*
X0085224Y0078947D01*
X0084447Y0078383D01*
X0083592Y0077947D01*
X0082678Y0077650D01*
X0081730Y0077500D01*
X0081250Y0077500D01*
X0081250Y0086200D01*
X0081250Y0086200D01*
X0081250Y0077500D01*
X0080770Y0077500D01*
X0079822Y0077650D01*
X0078908Y0077947D01*
X0078053Y0078383D01*
X0077276Y0078947D01*
X0077250Y0078973D01*
X0077250Y0061427D01*
X0077276Y0061453D01*
X0078053Y0062017D01*
X0078908Y0062453D01*
X0079822Y0062750D01*
X0080770Y0062900D01*
X0081250Y0062900D01*
X0081250Y0054200D01*
X0081250Y0045500D01*
X0081250Y0049188D02*
X0081250Y0049188D01*
X0081250Y0054187D02*
X0081250Y0054187D01*
X0081250Y0054200D02*
X0081250Y0054200D01*
X0081250Y0059185D02*
X0081250Y0059185D01*
X0077250Y0064184D02*
X0090153Y0064184D01*
X0095151Y0069182D02*
X0077250Y0069182D01*
X0077250Y0074181D02*
X0100150Y0074181D01*
X0097044Y0079179D02*
X0095456Y0079179D01*
X0087044Y0079179D02*
X0085456Y0079179D01*
X0081250Y0079179D02*
X0081250Y0079179D01*
X0081250Y0084178D02*
X0081250Y0084178D01*
X0091250Y0094900D02*
X0091250Y0104200D01*
X0091250Y0104200D01*
X0091250Y0113700D01*
X0091676Y0113700D01*
X0092521Y0113589D01*
X0093344Y0113368D01*
X0094131Y0113042D01*
X0094869Y0112616D01*
X0095250Y0112324D01*
X0095250Y0121076D01*
X0094869Y0120784D01*
X0094131Y0120358D01*
X0093344Y0120032D01*
X0092521Y0119811D01*
X0091676Y0119700D01*
X0091250Y0119700D01*
X0091250Y0129200D01*
X0091250Y0129200D01*
X0091250Y0138700D01*
X0091676Y0138700D01*
X0092521Y0138589D01*
X0093344Y0138368D01*
X0094131Y0138042D01*
X0094869Y0137616D01*
X0095250Y0137324D01*
X0095250Y0146076D01*
X0094869Y0145784D01*
X0094131Y0145358D01*
X0093344Y0145032D01*
X0092521Y0144811D01*
X0091676Y0144700D01*
X0091250Y0144700D01*
X0091250Y0154200D01*
X0091250Y0154200D01*
X0091250Y0163700D01*
X0091676Y0163700D01*
X0092521Y0163589D01*
X0093344Y0163368D01*
X0094131Y0163042D01*
X0094869Y0162616D01*
X0095250Y0162324D01*
X0095250Y0171076D01*
X0094869Y0170784D01*
X0094131Y0170358D01*
X0093344Y0170032D01*
X0092521Y0169811D01*
X0091676Y0169700D01*
X0091250Y0169700D01*
X0091250Y0179200D01*
X0091250Y0179200D01*
X0091250Y0169700D01*
X0090824Y0169700D01*
X0089979Y0169811D01*
X0089156Y0170032D01*
X0088369Y0170358D01*
X0087631Y0170784D01*
X0087250Y0171076D01*
X0087250Y0162324D01*
X0087631Y0162616D01*
X0088369Y0163042D01*
X0089156Y0163368D01*
X0089979Y0163589D01*
X0090824Y0163700D01*
X0091250Y0163700D01*
X0091250Y0154200D01*
X0091250Y0154200D01*
X0091250Y0144700D01*
X0090824Y0144700D01*
X0089979Y0144811D01*
X0089156Y0145032D01*
X0088369Y0145358D01*
X0087631Y0145784D01*
X0087250Y0146076D01*
X0087250Y0137324D01*
X0087631Y0137616D01*
X0088369Y0138042D01*
X0089156Y0138368D01*
X0089979Y0138589D01*
X0090824Y0138700D01*
X0091250Y0138700D01*
X0091250Y0129200D01*
X0091250Y0129200D01*
X0091250Y0119700D01*
X0090824Y0119700D01*
X0089979Y0119811D01*
X0089156Y0120032D01*
X0088369Y0120358D01*
X0087631Y0120784D01*
X0087250Y0121076D01*
X0087250Y0112324D01*
X0087631Y0112616D01*
X0088369Y0113042D01*
X0089156Y0113368D01*
X0089979Y0113589D01*
X0090824Y0113700D01*
X0091250Y0113700D01*
X0091250Y0104200D01*
X0091250Y0094900D01*
X0091250Y0094900D01*
X0091250Y0099173D02*
X0091250Y0099173D01*
X0091250Y0104172D02*
X0091250Y0104172D01*
X0091250Y0104200D02*
X0091250Y0104200D01*
X0091250Y0109170D02*
X0091250Y0109170D01*
X0087250Y0114169D02*
X0095250Y0114169D01*
X0095250Y0119167D02*
X0087250Y0119167D01*
X0091250Y0124166D02*
X0091250Y0124166D01*
X0091250Y0129164D02*
X0091250Y0129164D01*
X0091250Y0134163D02*
X0091250Y0134163D01*
X0087250Y0139161D02*
X0095250Y0139161D01*
X0095250Y0144160D02*
X0087250Y0144160D01*
X0091250Y0149158D02*
X0091250Y0149158D01*
X0091250Y0154157D02*
X0091250Y0154157D01*
X0091250Y0159155D02*
X0091250Y0159155D01*
X0087250Y0164154D02*
X0095250Y0164154D01*
X0095250Y0169152D02*
X0087250Y0169152D01*
X0091250Y0174151D02*
X0091250Y0174151D01*
X0091250Y0179149D02*
X0091250Y0179149D01*
X0091250Y0184148D02*
X0091250Y0184148D01*
X0095250Y0189146D02*
X0032750Y0189146D01*
X0032750Y0184148D02*
X0075021Y0184148D01*
X0095250Y0194145D02*
X0032750Y0194145D01*
X0032750Y0199143D02*
X0095250Y0199143D01*
X0095250Y0204142D02*
X0032750Y0204142D01*
X0032750Y0209140D02*
X0094050Y0209140D01*
X0101250Y0209200D02*
X0101250Y0179200D01*
X0101250Y0154200D01*
X0101250Y0129200D01*
X0101250Y0104200D01*
X0111250Y0104200D02*
X0111250Y0129200D01*
X0111250Y0154200D01*
X0111250Y0179200D01*
X0111250Y0209200D01*
X0117250Y0203064D02*
X0119818Y0202000D01*
X0122682Y0202000D01*
X0125328Y0203096D01*
X0126250Y0204018D01*
X0126493Y0203775D01*
X0127241Y0203201D01*
X0128059Y0202729D01*
X0128931Y0202367D01*
X0129842Y0202123D01*
X0130778Y0202000D01*
X0131250Y0202000D01*
X0131722Y0202000D01*
X0132658Y0202123D01*
X0133569Y0202367D01*
X0134441Y0202729D01*
X0135259Y0203201D01*
X0136007Y0203775D01*
X0136250Y0204018D01*
X0137172Y0203096D01*
X0138510Y0202542D01*
X0137605Y0201636D01*
X0136950Y0200055D01*
X0136950Y0188664D01*
X0136676Y0188700D01*
X0136250Y0188700D01*
X0136250Y0179200D01*
X0136250Y0179200D01*
X0136250Y0169700D01*
X0136676Y0169700D01*
X0136950Y0169736D01*
X0136950Y0163664D01*
X0136676Y0163700D01*
X0136250Y0163700D01*
X0136250Y0154200D01*
X0136250Y0154200D01*
X0136250Y0144700D01*
X0136676Y0144700D01*
X0136950Y0144736D01*
X0136950Y0138664D01*
X0136676Y0138700D01*
X0136250Y0138700D01*
X0136250Y0129200D01*
X0136250Y0129200D01*
X0136250Y0129200D01*
X0129750Y0129200D01*
X0129750Y0132626D01*
X0129861Y0133471D01*
X0130082Y0134294D01*
X0130408Y0135081D01*
X0130834Y0135819D01*
X0131353Y0136495D01*
X0131955Y0137097D01*
X0132631Y0137616D01*
X0133369Y0138042D01*
X0134156Y0138368D01*
X0134979Y0138589D01*
X0135824Y0138700D01*
X0136250Y0138700D01*
X0136250Y0129200D01*
X0129750Y0129200D01*
X0129750Y0125774D01*
X0129861Y0124929D01*
X0130082Y0124106D01*
X0130408Y0123319D01*
X0130834Y0122581D01*
X0131353Y0121905D01*
X0131955Y0121303D01*
X0132631Y0120784D01*
X0133369Y0120358D01*
X0134156Y0120032D01*
X0134979Y0119811D01*
X0135687Y0119718D01*
X0117750Y0101781D01*
X0117750Y0108493D01*
X0117250Y0109700D01*
X0117250Y0123700D01*
X0117750Y0124907D01*
X0117750Y0133493D01*
X0117250Y0134700D01*
X0117250Y0148700D01*
X0117750Y0149907D01*
X0117750Y0158493D01*
X0117250Y0159700D01*
X0117250Y0173700D01*
X0117750Y0174907D01*
X0117750Y0183493D01*
X0117250Y0184700D01*
X0117250Y0203064D01*
X0117250Y0199143D02*
X0136950Y0199143D01*
X0131250Y0202000D02*
X0131250Y0209200D01*
X0131250Y0209200D01*
X0131250Y0202000D01*
X0131250Y0204142D02*
X0131250Y0204142D01*
X0131250Y0209140D02*
X0131250Y0209140D01*
X0136950Y0194145D02*
X0117250Y0194145D01*
X0117250Y0189146D02*
X0136950Y0189146D01*
X0136250Y0188700D02*
X0135824Y0188700D01*
X0134979Y0188589D01*
X0134156Y0188368D01*
X0133369Y0188042D01*
X0132631Y0187616D01*
X0131955Y0187097D01*
X0131353Y0186495D01*
X0130834Y0185819D01*
X0130408Y0185081D01*
X0130082Y0184294D01*
X0129861Y0183471D01*
X0129750Y0182626D01*
X0129750Y0179200D01*
X0136250Y0179200D01*
X0136250Y0179200D01*
X0136250Y0179200D01*
X0136250Y0188700D01*
X0136250Y0184148D02*
X0136250Y0184148D01*
X0130043Y0184148D02*
X0117479Y0184148D01*
X0117750Y0179149D02*
X0129750Y0179149D01*
X0129750Y0179200D02*
X0129750Y0175774D01*
X0129861Y0174929D01*
X0130082Y0174106D01*
X0130408Y0173319D01*
X0130834Y0172581D01*
X0131353Y0171905D01*
X0131955Y0171303D01*
X0132631Y0170784D01*
X0133369Y0170358D01*
X0134156Y0170032D01*
X0134979Y0169811D01*
X0135824Y0169700D01*
X0136250Y0169700D01*
X0136250Y0179200D01*
X0129750Y0179200D01*
X0136250Y0179149D02*
X0136250Y0179149D01*
X0136250Y0174151D02*
X0136250Y0174151D01*
X0130070Y0174151D02*
X0117437Y0174151D01*
X0117250Y0169152D02*
X0136950Y0169152D01*
X0136950Y0164154D02*
X0117250Y0164154D01*
X0117476Y0159155D02*
X0130045Y0159155D01*
X0130082Y0159294D02*
X0129861Y0158471D01*
X0129750Y0157626D01*
X0129750Y0154200D01*
X0136250Y0154200D01*
X0136250Y0154200D01*
X0136250Y0154200D01*
X0136250Y0163700D01*
X0135824Y0163700D01*
X0134979Y0163589D01*
X0134156Y0163368D01*
X0133369Y0163042D01*
X0132631Y0162616D01*
X0131955Y0162097D01*
X0131353Y0161495D01*
X0130834Y0160819D01*
X0130408Y0160081D01*
X0130082Y0159294D01*
X0136250Y0159155D02*
X0136250Y0159155D01*
X0136250Y0154200D02*
X0129750Y0154200D01*
X0129750Y0150774D01*
X0129861Y0149929D01*
X0130082Y0149106D01*
X0130408Y0148319D01*
X0130834Y0147581D01*
X0131353Y0146905D01*
X0131955Y0146303D01*
X0132631Y0145784D01*
X0133369Y0145358D01*
X0134156Y0145032D01*
X0134979Y0144811D01*
X0135824Y0144700D01*
X0136250Y0144700D01*
X0136250Y0154200D01*
X0136250Y0154157D02*
X0136250Y0154157D01*
X0129750Y0154157D02*
X0117750Y0154157D01*
X0117440Y0149158D02*
X0130068Y0149158D01*
X0136250Y0149158D02*
X0136250Y0149158D01*
X0136950Y0144160D02*
X0117250Y0144160D01*
X0117250Y0139161D02*
X0136950Y0139161D01*
X0136250Y0134163D02*
X0136250Y0134163D01*
X0130047Y0134163D02*
X0117473Y0134163D01*
X0117750Y0129164D02*
X0129750Y0129164D01*
X0130066Y0124166D02*
X0117443Y0124166D01*
X0117250Y0119167D02*
X0135136Y0119167D01*
X0130138Y0114169D02*
X0117250Y0114169D01*
X0117469Y0109170D02*
X0125139Y0109170D01*
X0120141Y0104172D02*
X0117750Y0104172D01*
X0127304Y0099173D02*
X0130064Y0099173D01*
X0136250Y0099173D02*
X0136250Y0099173D01*
X0136250Y0094700D02*
X0136250Y0104200D01*
X0136250Y0104200D01*
X0136250Y0094700D01*
X0140250Y0094175D02*
X0122306Y0094175D01*
X0117350Y0089176D02*
X0140250Y0089176D01*
X0136250Y0088700D02*
X0135824Y0088700D01*
X0134979Y0088589D01*
X0134156Y0088368D01*
X0133369Y0088042D01*
X0132631Y0087616D01*
X0131955Y0087097D01*
X0131353Y0086495D01*
X0130834Y0085819D01*
X0130408Y0085081D01*
X0130082Y0084294D01*
X0129861Y0083471D01*
X0129750Y0082626D01*
X0129750Y0079200D01*
X0136250Y0079200D01*
X0136250Y0079200D01*
X0136250Y0079200D01*
X0136250Y0088700D01*
X0136250Y0084178D02*
X0136250Y0084178D01*
X0130051Y0084178D02*
X0117350Y0084178D01*
X0115456Y0079179D02*
X0129750Y0079179D01*
X0129750Y0079200D02*
X0129750Y0075774D01*
X0129861Y0074929D01*
X0130082Y0074106D01*
X0130408Y0073319D01*
X0130834Y0072581D01*
X0131353Y0071905D01*
X0131955Y0071303D01*
X0132631Y0070784D01*
X0133369Y0070358D01*
X0134156Y0070032D01*
X0134979Y0069811D01*
X0135824Y0069700D01*
X0136250Y0069700D01*
X0136250Y0079200D01*
X0129750Y0079200D01*
X0136250Y0079179D02*
X0136250Y0079179D01*
X0136250Y0074181D02*
X0136250Y0074181D01*
X0130062Y0074181D02*
X0110550Y0074181D01*
X0107313Y0069182D02*
X0140250Y0069182D01*
X0140250Y0064184D02*
X0102315Y0064184D01*
X0116865Y0059185D02*
X0130053Y0059185D01*
X0136250Y0059185D02*
X0136250Y0059185D01*
X0129750Y0054187D02*
X0117350Y0054187D01*
X0116854Y0049188D02*
X0130060Y0049188D01*
X0141250Y0039200D02*
X0146250Y0039200D01*
X0146250Y0044200D01*
X0146250Y0054200D01*
X0146250Y0079200D01*
X0146250Y0104200D01*
X0146250Y0129200D01*
X0146250Y0154200D01*
X0146250Y0165200D01*
X0150250Y0169200D01*
X0146250Y0173200D01*
X0146250Y0179200D01*
X0146250Y0169200D01*
X0146250Y0165200D01*
X0147250Y0169200D02*
X0150250Y0169200D01*
X0181250Y0169200D01*
X0216250Y0169200D01*
X0251250Y0169200D01*
X0260127Y0161996D02*
X0263686Y0165555D01*
X0264895Y0166764D01*
X0265550Y0168345D01*
X0265550Y0170055D01*
X0264895Y0171636D01*
X0252395Y0184136D01*
X0251186Y0185345D01*
X0249605Y0186000D01*
X0228739Y0186000D01*
X0228739Y0187692D01*
X0228050Y0189356D01*
X0228050Y0191711D01*
X0229742Y0191711D01*
X0231576Y0192471D01*
X0232979Y0193874D01*
X0233739Y0195708D01*
X0233739Y0197692D01*
X0233050Y0199356D01*
X0233050Y0202732D01*
X0234818Y0202000D01*
X0237682Y0202000D01*
X0240328Y0203096D01*
X0241250Y0204018D01*
X0242172Y0203096D01*
X0244818Y0202000D01*
X0247682Y0202000D01*
X0250328Y0203096D01*
X0251250Y0204018D01*
X0252172Y0203096D01*
X0254818Y0202000D01*
X0257682Y0202000D01*
X0260328Y0203096D01*
X0261250Y0204018D01*
X0262172Y0203096D01*
X0264818Y0202000D01*
X0267682Y0202000D01*
X0270328Y0203096D01*
X0271250Y0204018D01*
X0272172Y0203096D01*
X0274818Y0202000D01*
X0277682Y0202000D01*
X0280328Y0203096D01*
X0282354Y0205122D01*
X0283450Y0207768D01*
X0283450Y0210632D01*
X0282610Y0212661D01*
X0289890Y0212661D01*
X0289050Y0210632D01*
X0289050Y0207768D01*
X0290146Y0205122D01*
X0292172Y0203096D01*
X0294818Y0202000D01*
X0297682Y0202000D01*
X0300328Y0203096D01*
X0301250Y0204018D01*
X0302172Y0203096D01*
X0304818Y0202000D01*
X0307682Y0202000D01*
X0310328Y0203096D01*
X0311250Y0204018D01*
X0312172Y0203096D01*
X0314818Y0202000D01*
X0317682Y0202000D01*
X0320328Y0203096D01*
X0321250Y0204018D01*
X0322172Y0203096D01*
X0323510Y0202542D01*
X0279469Y0158500D01*
X0260714Y0158500D01*
X0260750Y0158774D01*
X0260750Y0159200D01*
X0260750Y0159626D01*
X0260639Y0160471D01*
X0260418Y0161294D01*
X0260127Y0161996D01*
X0260750Y0159200D02*
X0251250Y0159200D01*
X0251250Y0159200D01*
X0251250Y0159200D01*
X0241750Y0159200D01*
X0241750Y0159626D01*
X0241786Y0159900D01*
X0225714Y0159900D01*
X0225750Y0159626D01*
X0225750Y0159200D01*
X0216250Y0159200D01*
X0216250Y0159200D01*
X0216250Y0159200D01*
X0206750Y0159200D01*
X0206750Y0159626D01*
X0206786Y0159900D01*
X0190714Y0159900D01*
X0190750Y0159626D01*
X0190750Y0159200D01*
X0181250Y0159200D01*
X0181250Y0159200D01*
X0190750Y0159200D01*
X0190750Y0158774D01*
X0190639Y0157929D01*
X0190418Y0157106D01*
X0190092Y0156319D01*
X0189666Y0155581D01*
X0189147Y0154905D01*
X0188545Y0154303D01*
X0188429Y0154213D01*
X0189142Y0153500D01*
X0195395Y0153500D01*
X0197105Y0153500D01*
X0198686Y0152845D01*
X0208194Y0143337D01*
X0209058Y0144200D01*
X0207740Y0145518D01*
X0206750Y0147907D01*
X0206750Y0150493D01*
X0207740Y0152882D01*
X0209071Y0154213D01*
X0208955Y0154303D01*
X0208353Y0154905D01*
X0207834Y0155581D01*
X0207408Y0156319D01*
X0207082Y0157106D01*
X0206861Y0157929D01*
X0206750Y0158774D01*
X0206750Y0159200D01*
X0216250Y0159200D01*
X0225750Y0159200D01*
X0225750Y0158774D01*
X0225639Y0157929D01*
X0225418Y0157106D01*
X0225092Y0156319D01*
X0224666Y0155581D01*
X0224147Y0154905D01*
X0223545Y0154303D01*
X0223429Y0154213D01*
X0224142Y0153500D01*
X0239469Y0153500D01*
X0242373Y0156404D01*
X0242082Y0157106D01*
X0241861Y0157929D01*
X0241750Y0158774D01*
X0241750Y0159200D01*
X0251250Y0159200D01*
X0260750Y0159200D01*
X0260750Y0159155D02*
X0280124Y0159155D01*
X0285123Y0164154D02*
X0262285Y0164154D01*
X0265550Y0169152D02*
X0290121Y0169152D01*
X0295120Y0174151D02*
X0262380Y0174151D01*
X0257382Y0179149D02*
X0300118Y0179149D01*
X0305117Y0184148D02*
X0252383Y0184148D01*
X0233092Y0194145D02*
X0315114Y0194145D01*
X0310115Y0189146D02*
X0228137Y0189146D01*
X0233138Y0199143D02*
X0320112Y0199143D01*
X0291126Y0204142D02*
X0281374Y0204142D01*
X0283450Y0209140D02*
X0289050Y0209140D01*
X0241750Y0159155D02*
X0225750Y0159155D01*
X0223486Y0154157D02*
X0240126Y0154157D01*
X0209014Y0154157D02*
X0188486Y0154157D01*
X0190750Y0159155D02*
X0206750Y0159155D01*
X0206750Y0149158D02*
X0202373Y0149158D01*
X0207371Y0144160D02*
X0209017Y0144160D01*
X0136250Y0104172D02*
X0136250Y0104172D01*
X0181250Y0084200D02*
X0190750Y0084200D01*
X0190750Y0084626D01*
X0190639Y0085471D01*
X0190418Y0086294D01*
X0190092Y0087081D01*
X0189666Y0087819D01*
X0189374Y0088200D01*
X0208126Y0088200D01*
X0207834Y0087819D01*
X0207408Y0087081D01*
X0207082Y0086294D01*
X0206861Y0085471D01*
X0206750Y0084626D01*
X0206750Y0084200D01*
X0216250Y0084200D01*
X0225750Y0084200D01*
X0225750Y0084626D01*
X0225639Y0085471D01*
X0225418Y0086294D01*
X0225092Y0087081D01*
X0224666Y0087819D01*
X0224374Y0088200D01*
X0239169Y0088200D01*
X0229469Y0078500D01*
X0224142Y0078500D01*
X0223429Y0079213D01*
X0223545Y0079303D01*
X0224147Y0079905D01*
X0224666Y0080581D01*
X0225092Y0081319D01*
X0225418Y0082106D01*
X0225639Y0082929D01*
X0225750Y0083774D01*
X0225750Y0084200D01*
X0216250Y0084200D01*
X0216250Y0084200D01*
X0216250Y0084200D01*
X0206750Y0084200D01*
X0206750Y0083774D01*
X0206861Y0082929D01*
X0207082Y0082106D01*
X0207408Y0081319D01*
X0207834Y0080581D01*
X0208353Y0079905D01*
X0208955Y0079303D01*
X0209071Y0079213D01*
X0207740Y0077882D01*
X0206750Y0075493D01*
X0206750Y0072907D01*
X0207740Y0070518D01*
X0209058Y0069200D01*
X0207740Y0067882D01*
X0206750Y0065493D01*
X0206750Y0062907D01*
X0207740Y0060518D01*
X0209568Y0058690D01*
X0211957Y0057700D01*
X0220543Y0057700D01*
X0222932Y0058690D01*
X0224142Y0059900D01*
X0239469Y0059900D01*
X0242605Y0056764D01*
X0243814Y0055555D01*
X0245395Y0054900D01*
X0347105Y0054900D01*
X0348686Y0055555D01*
X0353686Y0060555D01*
X0354043Y0060912D01*
X0355037Y0060500D01*
X0357463Y0060500D01*
X0359705Y0061429D01*
X0361421Y0063145D01*
X0362350Y0065387D01*
X0362350Y0065416D01*
X0362686Y0065555D01*
X0363895Y0066764D01*
X0382031Y0084900D01*
X0390368Y0084900D01*
X0391068Y0084200D01*
X0389050Y0082182D01*
X0389050Y0076218D01*
X0391068Y0074200D01*
X0389050Y0072182D01*
X0389050Y0066218D01*
X0391068Y0064200D01*
X0389050Y0062182D01*
X0389050Y0056218D01*
X0391068Y0054200D01*
X0389050Y0052182D01*
X0389050Y0046218D01*
X0391068Y0044200D01*
X0390825Y0043957D01*
X0390251Y0043209D01*
X0389779Y0042391D01*
X0389417Y0041519D01*
X0389173Y0040608D01*
X0389050Y0039672D01*
X0389050Y0039200D01*
X0396250Y0039200D01*
X0406250Y0039200D01*
X0413450Y0039200D01*
X0413450Y0039672D01*
X0413327Y0040608D01*
X0413083Y0041519D01*
X0412721Y0042391D01*
X0412249Y0043209D01*
X0411675Y0043957D01*
X0411432Y0044200D01*
X0413450Y0046218D01*
X0413450Y0052182D01*
X0411432Y0054200D01*
X0413450Y0056218D01*
X0413450Y0062182D01*
X0411432Y0064200D01*
X0413450Y0066218D01*
X0413450Y0072182D01*
X0411432Y0074200D01*
X0413450Y0076218D01*
X0413450Y0082182D01*
X0411432Y0084200D01*
X0413450Y0086218D01*
X0413450Y0092182D01*
X0411432Y0094200D01*
X0413450Y0096218D01*
X0413450Y0102182D01*
X0411432Y0104200D01*
X0413450Y0106218D01*
X0413450Y0112182D01*
X0411432Y0114200D01*
X0413450Y0116218D01*
X0413450Y0122182D01*
X0411432Y0124200D01*
X0413450Y0126218D01*
X0413450Y0132182D01*
X0411432Y0134200D01*
X0413450Y0136218D01*
X0413450Y0142182D01*
X0411432Y0144200D01*
X0413450Y0146218D01*
X0413450Y0152182D01*
X0411432Y0154200D01*
X0413450Y0156218D01*
X0413450Y0162182D01*
X0411432Y0164200D01*
X0413450Y0166218D01*
X0413450Y0172182D01*
X0411432Y0174200D01*
X0413450Y0176218D01*
X0413450Y0182182D01*
X0411432Y0184200D01*
X0413450Y0186218D01*
X0413450Y0192182D01*
X0411432Y0194200D01*
X0413450Y0196218D01*
X0413450Y0202182D01*
X0411432Y0204200D01*
X0412354Y0205122D01*
X0413450Y0207768D01*
X0413450Y0210632D01*
X0412610Y0212661D01*
X0413451Y0212661D01*
X0413451Y0015700D01*
X0392593Y0015700D01*
X0393450Y0017768D01*
X0393450Y0020632D01*
X0392354Y0023278D01*
X0390328Y0025304D01*
X0387682Y0026400D01*
X0384818Y0026400D01*
X0382172Y0025304D01*
X0381250Y0024382D01*
X0380328Y0025304D01*
X0377682Y0026400D01*
X0374818Y0026400D01*
X0372172Y0025304D01*
X0371250Y0024382D01*
X0370328Y0025304D01*
X0367682Y0026400D01*
X0364818Y0026400D01*
X0362172Y0025304D01*
X0361250Y0024382D01*
X0360328Y0025304D01*
X0357682Y0026400D01*
X0354818Y0026400D01*
X0352172Y0025304D01*
X0351250Y0024382D01*
X0350328Y0025304D01*
X0347682Y0026400D01*
X0344818Y0026400D01*
X0342172Y0025304D01*
X0341250Y0024382D01*
X0340328Y0025304D01*
X0337682Y0026400D01*
X0334818Y0026400D01*
X0332172Y0025304D01*
X0331250Y0024382D01*
X0330328Y0025304D01*
X0327682Y0026400D01*
X0324818Y0026400D01*
X0322172Y0025304D01*
X0321250Y0024382D01*
X0320328Y0025304D01*
X0317682Y0026400D01*
X0314818Y0026400D01*
X0312172Y0025304D01*
X0310146Y0023278D01*
X0309050Y0020632D01*
X0309050Y0017768D01*
X0309907Y0015700D01*
X0302593Y0015700D01*
X0303450Y0017768D01*
X0303450Y0020632D01*
X0302354Y0023278D01*
X0300328Y0025304D01*
X0297682Y0026400D01*
X0294818Y0026400D01*
X0292172Y0025304D01*
X0291250Y0024382D01*
X0290328Y0025304D01*
X0287682Y0026400D01*
X0284818Y0026400D01*
X0282172Y0025304D01*
X0281250Y0024382D01*
X0280328Y0025304D01*
X0277682Y0026400D01*
X0274818Y0026400D01*
X0272172Y0025304D01*
X0271250Y0024382D01*
X0270328Y0025304D01*
X0267682Y0026400D01*
X0264818Y0026400D01*
X0262172Y0025304D01*
X0261250Y0024382D01*
X0260328Y0025304D01*
X0257682Y0026400D01*
X0254818Y0026400D01*
X0252172Y0025304D01*
X0251250Y0024382D01*
X0250328Y0025304D01*
X0247682Y0026400D01*
X0244818Y0026400D01*
X0242172Y0025304D01*
X0241250Y0024382D01*
X0240328Y0025304D01*
X0237682Y0026400D01*
X0234818Y0026400D01*
X0232172Y0025304D01*
X0231250Y0024382D01*
X0230328Y0025304D01*
X0227682Y0026400D01*
X0224818Y0026400D01*
X0222172Y0025304D01*
X0220146Y0023278D01*
X0219050Y0020632D01*
X0219050Y0017768D01*
X0219907Y0015700D01*
X0212593Y0015700D01*
X0213450Y0017768D01*
X0213450Y0020632D01*
X0212354Y0023278D01*
X0210328Y0025304D01*
X0207682Y0026400D01*
X0204818Y0026400D01*
X0202172Y0025304D01*
X0201250Y0024382D01*
X0201007Y0024625D01*
X0200259Y0025199D01*
X0199441Y0025671D01*
X0198569Y0026033D01*
X0197658Y0026277D01*
X0196722Y0026400D01*
X0196250Y0026400D01*
X0196250Y0019200D01*
X0196250Y0019200D01*
X0196250Y0019200D01*
X0186250Y0019200D01*
X0186250Y0019200D01*
X0186250Y0019200D01*
X0186250Y0026400D01*
X0186722Y0026400D01*
X0187658Y0026277D01*
X0188569Y0026033D01*
X0189441Y0025671D01*
X0190259Y0025199D01*
X0191007Y0024625D01*
X0191250Y0024382D01*
X0191493Y0024625D01*
X0192241Y0025199D01*
X0193059Y0025671D01*
X0193931Y0026033D01*
X0194842Y0026277D01*
X0195778Y0026400D01*
X0196250Y0026400D01*
X0196250Y0019200D01*
X0189050Y0019200D01*
X0186250Y0019200D01*
X0186250Y0026400D01*
X0185778Y0026400D01*
X0184842Y0026277D01*
X0183931Y0026033D01*
X0183059Y0025671D01*
X0182250Y0025204D01*
X0182250Y0030393D01*
X0181337Y0032599D01*
X0174735Y0039200D01*
X0176337Y0040801D01*
X0177250Y0043007D01*
X0177250Y0057700D01*
X0185543Y0057700D01*
X0187932Y0058690D01*
X0189760Y0060518D01*
X0190750Y0062907D01*
X0190750Y0065493D01*
X0189760Y0067882D01*
X0188442Y0069200D01*
X0189760Y0070518D01*
X0190750Y0072907D01*
X0190750Y0075493D01*
X0189760Y0077882D01*
X0188429Y0079213D01*
X0188545Y0079303D01*
X0189147Y0079905D01*
X0189666Y0080581D01*
X0190092Y0081319D01*
X0190418Y0082106D01*
X0190639Y0082929D01*
X0190750Y0083774D01*
X0190750Y0084200D01*
X0181250Y0084200D01*
X0181250Y0084200D01*
X0188463Y0079179D02*
X0209037Y0079179D01*
X0206750Y0074181D02*
X0190750Y0074181D01*
X0188460Y0069182D02*
X0209040Y0069182D01*
X0206750Y0064184D02*
X0190750Y0064184D01*
X0188427Y0059185D02*
X0209072Y0059185D01*
X0223427Y0059185D02*
X0240184Y0059185D01*
X0260750Y0064184D02*
X0300648Y0064184D01*
X0316250Y0069200D02*
X0316250Y0077900D01*
X0316250Y0069200D01*
X0316250Y0069200D01*
X0316250Y0074181D02*
X0316250Y0074181D01*
X0315770Y0077900D02*
X0314822Y0077750D01*
X0313908Y0077453D01*
X0313053Y0077017D01*
X0312276Y0076453D01*
X0312250Y0076427D01*
X0312250Y0086973D01*
X0312276Y0086947D01*
X0313053Y0086383D01*
X0313908Y0085947D01*
X0314822Y0085650D01*
X0315770Y0085500D01*
X0316250Y0085500D01*
X0316730Y0085500D01*
X0317678Y0085650D01*
X0318592Y0085947D01*
X0319447Y0086383D01*
X0320224Y0086947D01*
X0320250Y0086973D01*
X0320250Y0076427D01*
X0320224Y0076453D01*
X0319447Y0077017D01*
X0318592Y0077453D01*
X0317678Y0077750D01*
X0316730Y0077900D01*
X0316250Y0077900D01*
X0315770Y0077900D01*
X0312250Y0079179D02*
X0320250Y0079179D01*
X0320250Y0084178D02*
X0312250Y0084178D01*
X0316250Y0085500D02*
X0316250Y0094200D01*
X0316250Y0094200D01*
X0316250Y0102900D01*
X0316730Y0102900D01*
X0317678Y0102750D01*
X0318592Y0102453D01*
X0319447Y0102017D01*
X0320224Y0101453D01*
X0320250Y0101427D01*
X0320250Y0111973D01*
X0320224Y0111947D01*
X0319447Y0111383D01*
X0318592Y0110947D01*
X0317678Y0110650D01*
X0316730Y0110500D01*
X0316250Y0110500D01*
X0316250Y0119200D01*
X0316250Y0119200D01*
X0316250Y0127900D01*
X0316730Y0127900D01*
X0317678Y0127750D01*
X0318592Y0127453D01*
X0319447Y0127017D01*
X0320224Y0126453D01*
X0320250Y0126427D01*
X0320250Y0136973D01*
X0320224Y0136947D01*
X0319447Y0136383D01*
X0318592Y0135947D01*
X0317678Y0135650D01*
X0316730Y0135500D01*
X0316250Y0135500D01*
X0316250Y0144200D01*
X0316250Y0144200D01*
X0316250Y0152900D01*
X0316730Y0152900D01*
X0317678Y0152750D01*
X0318592Y0152453D01*
X0319447Y0152017D01*
X0320224Y0151453D01*
X0320903Y0150774D01*
X0321195Y0150372D01*
X0322795Y0151971D01*
X0325037Y0152900D01*
X0327463Y0152900D01*
X0329705Y0151971D01*
X0331250Y0150427D01*
X0332795Y0151971D01*
X0335037Y0152900D01*
X0337463Y0152900D01*
X0339705Y0151971D01*
X0341250Y0150427D01*
X0342795Y0151971D01*
X0345037Y0152900D01*
X0347463Y0152900D01*
X0347768Y0152774D01*
X0348424Y0153429D01*
X0350258Y0154189D01*
X0352242Y0154189D01*
X0354076Y0153429D01*
X0354732Y0152774D01*
X0355037Y0152900D01*
X0357463Y0152900D01*
X0359705Y0151971D01*
X0361421Y0150255D01*
X0362148Y0148500D01*
X0367395Y0148500D01*
X0369105Y0148500D01*
X0370686Y0147845D01*
X0389050Y0129481D01*
X0389050Y0132182D01*
X0391068Y0134200D01*
X0389050Y0136218D01*
X0389050Y0142182D01*
X0391068Y0144200D01*
X0389050Y0146218D01*
X0389050Y0152182D01*
X0391068Y0154200D01*
X0390368Y0154900D01*
X0313031Y0154900D01*
X0309904Y0151773D01*
X0311305Y0150372D01*
X0311597Y0150774D01*
X0312276Y0151453D01*
X0313053Y0152017D01*
X0313908Y0152453D01*
X0314822Y0152750D01*
X0315770Y0152900D01*
X0316250Y0152900D01*
X0316250Y0144200D01*
X0316250Y0144200D01*
X0316250Y0135500D01*
X0315770Y0135500D01*
X0314822Y0135650D01*
X0313908Y0135947D01*
X0313053Y0136383D01*
X0312276Y0136947D01*
X0312250Y0136973D01*
X0312250Y0126427D01*
X0312276Y0126453D01*
X0313053Y0127017D01*
X0313908Y0127453D01*
X0314822Y0127750D01*
X0315770Y0127900D01*
X0316250Y0127900D01*
X0316250Y0119200D01*
X0316250Y0119200D01*
X0316250Y0110500D01*
X0315770Y0110500D01*
X0314822Y0110650D01*
X0313908Y0110947D01*
X0313053Y0111383D01*
X0312276Y0111947D01*
X0312250Y0111973D01*
X0312250Y0101427D01*
X0312276Y0101453D01*
X0313053Y0102017D01*
X0313908Y0102453D01*
X0314822Y0102750D01*
X0315770Y0102900D01*
X0316250Y0102900D01*
X0316250Y0094200D01*
X0316250Y0085500D01*
X0316250Y0089176D02*
X0316250Y0089176D01*
X0316250Y0094175D02*
X0316250Y0094175D01*
X0316250Y0094200D02*
X0316250Y0094200D01*
X0316250Y0099173D02*
X0316250Y0099173D01*
X0312250Y0104172D02*
X0320250Y0104172D01*
X0320250Y0109170D02*
X0312250Y0109170D01*
X0316250Y0114169D02*
X0316250Y0114169D01*
X0316250Y0119167D02*
X0316250Y0119167D01*
X0316250Y0124166D02*
X0316250Y0124166D01*
X0312250Y0129164D02*
X0320250Y0129164D01*
X0320250Y0134163D02*
X0312250Y0134163D01*
X0316250Y0139161D02*
X0316250Y0139161D01*
X0316250Y0144160D02*
X0316250Y0144160D01*
X0316250Y0149158D02*
X0316250Y0149158D01*
X0312288Y0154157D02*
X0350180Y0154157D01*
X0352320Y0154157D02*
X0391025Y0154157D01*
X0389050Y0149158D02*
X0361876Y0149158D01*
X0374371Y0144160D02*
X0391027Y0144160D01*
X0389050Y0139161D02*
X0379370Y0139161D01*
X0384368Y0134163D02*
X0391030Y0134163D01*
X0411470Y0134163D02*
X0413451Y0134163D01*
X0413450Y0139161D02*
X0413451Y0139161D01*
X0413451Y0144160D02*
X0411473Y0144160D01*
X0413450Y0149158D02*
X0413451Y0149158D01*
X0413451Y0154157D02*
X0411475Y0154157D01*
X0413450Y0159155D02*
X0413451Y0159155D01*
X0413451Y0164154D02*
X0411478Y0164154D01*
X0413450Y0169152D02*
X0413451Y0169152D01*
X0413451Y0174151D02*
X0411481Y0174151D01*
X0413450Y0179149D02*
X0413451Y0179149D01*
X0413451Y0184148D02*
X0411484Y0184148D01*
X0413450Y0189146D02*
X0413451Y0189146D01*
X0413451Y0194145D02*
X0411487Y0194145D01*
X0413450Y0199143D02*
X0413451Y0199143D01*
X0413451Y0204142D02*
X0411490Y0204142D01*
X0413450Y0209140D02*
X0413451Y0209140D01*
X0346250Y0144200D02*
X0346250Y0119200D01*
X0346250Y0094200D01*
X0346250Y0069200D01*
X0336250Y0069200D02*
X0336250Y0094200D01*
X0336250Y0119200D01*
X0336250Y0144200D01*
X0326250Y0144200D02*
X0326250Y0119200D01*
X0326250Y0094200D01*
X0326250Y0069200D01*
X0352316Y0059185D02*
X0389050Y0059185D01*
X0391054Y0054187D02*
X0177250Y0054187D01*
X0177250Y0049188D02*
X0389050Y0049188D01*
X0391057Y0044190D02*
X0177250Y0044190D01*
X0174744Y0039191D02*
X0389050Y0039191D01*
X0389050Y0039200D02*
X0389050Y0038728D01*
X0389173Y0037792D01*
X0389417Y0036881D01*
X0389779Y0036009D01*
X0390251Y0035191D01*
X0390825Y0034443D01*
X0391493Y0033775D01*
X0392241Y0033201D01*
X0393059Y0032729D01*
X0393931Y0032367D01*
X0394842Y0032123D01*
X0395778Y0032000D01*
X0396250Y0032000D01*
X0396722Y0032000D01*
X0397658Y0032123D01*
X0398569Y0032367D01*
X0399441Y0032729D01*
X0400259Y0033201D01*
X0401007Y0033775D01*
X0401250Y0034018D01*
X0401493Y0033775D01*
X0402241Y0033201D01*
X0403059Y0032729D01*
X0403931Y0032367D01*
X0404842Y0032123D01*
X0405778Y0032000D01*
X0406250Y0032000D01*
X0406722Y0032000D01*
X0407658Y0032123D01*
X0408569Y0032367D01*
X0409441Y0032729D01*
X0410259Y0033201D01*
X0411007Y0033775D01*
X0411675Y0034443D01*
X0412249Y0035191D01*
X0412721Y0036009D01*
X0413083Y0036881D01*
X0413327Y0037792D01*
X0413450Y0038728D01*
X0413450Y0039200D01*
X0406250Y0039200D01*
X0406250Y0039200D01*
X0406250Y0039200D01*
X0406250Y0032000D01*
X0406250Y0039200D01*
X0406250Y0039200D01*
X0399050Y0039200D01*
X0396250Y0039200D01*
X0396250Y0039200D01*
X0396250Y0032000D01*
X0396250Y0039200D01*
X0396250Y0039200D01*
X0396250Y0039200D01*
X0389050Y0039200D01*
X0396250Y0039191D02*
X0396250Y0039191D01*
X0406250Y0039191D02*
X0406250Y0039191D01*
X0413450Y0039191D02*
X0413451Y0039191D01*
X0413451Y0044190D02*
X0411443Y0044190D01*
X0413450Y0049188D02*
X0413451Y0049188D01*
X0413451Y0054187D02*
X0411446Y0054187D01*
X0413450Y0059185D02*
X0413451Y0059185D01*
X0413451Y0064184D02*
X0411449Y0064184D01*
X0413450Y0069182D02*
X0413451Y0069182D01*
X0413451Y0074181D02*
X0411452Y0074181D01*
X0413450Y0079179D02*
X0413451Y0079179D01*
X0413451Y0084178D02*
X0411455Y0084178D01*
X0413450Y0089176D02*
X0413451Y0089176D01*
X0413451Y0094175D02*
X0411458Y0094175D01*
X0413450Y0099173D02*
X0413451Y0099173D01*
X0413451Y0104172D02*
X0411461Y0104172D01*
X0413450Y0109170D02*
X0413451Y0109170D01*
X0413451Y0114169D02*
X0411464Y0114169D01*
X0413450Y0119167D02*
X0413451Y0119167D01*
X0413451Y0124166D02*
X0411467Y0124166D01*
X0413450Y0129164D02*
X0413451Y0129164D01*
X0391045Y0084178D02*
X0381309Y0084178D01*
X0376310Y0079179D02*
X0389050Y0079179D01*
X0391048Y0074181D02*
X0371312Y0074181D01*
X0366313Y0069182D02*
X0389050Y0069182D01*
X0391051Y0064184D02*
X0361852Y0064184D01*
X0306250Y0094200D02*
X0306250Y0100200D01*
X0260750Y0084200D02*
X0251250Y0084200D01*
X0251250Y0084200D01*
X0260750Y0084200D01*
X0235147Y0084178D02*
X0225750Y0084178D01*
X0223463Y0079179D02*
X0230148Y0079179D01*
X0206750Y0084178D02*
X0190750Y0084178D01*
X0166250Y0039200D02*
X0176250Y0029200D01*
X0176250Y0019200D01*
X0186250Y0024196D02*
X0186250Y0024196D01*
X0182250Y0029194D02*
X0413451Y0029194D01*
X0413451Y0024196D02*
X0391437Y0024196D01*
X0393450Y0019197D02*
X0413451Y0019197D01*
X0413451Y0034193D02*
X0411425Y0034193D01*
X0406250Y0034193D02*
X0406250Y0034193D01*
X0396250Y0034193D02*
X0396250Y0034193D01*
X0391075Y0034193D02*
X0179743Y0034193D01*
X0167771Y0029194D02*
X0032750Y0029194D01*
X0032750Y0024196D02*
X0131063Y0024196D01*
X0129050Y0019197D02*
X0032750Y0019197D01*
X0146250Y0039200D02*
X0151250Y0039200D01*
X0196250Y0024196D02*
X0196250Y0024196D01*
X0211437Y0024196D02*
X0221063Y0024196D01*
X0219050Y0019197D02*
X0213450Y0019197D01*
X0301437Y0024196D02*
X0311063Y0024196D01*
X0309050Y0019197D02*
X0303450Y0019197D01*
D16*
X0346250Y0059200D02*
X0246250Y0059200D01*
X0241250Y0064200D01*
X0216250Y0064200D01*
X0216250Y0074200D02*
X0231250Y0074200D01*
X0246250Y0089200D01*
X0258750Y0089200D01*
X0276250Y0124200D02*
X0216250Y0124200D01*
X0201250Y0139200D01*
X0181250Y0139200D01*
X0171250Y0134200D02*
X0171250Y0159200D01*
X0176250Y0164200D01*
X0256250Y0164200D01*
X0261250Y0169200D01*
X0248750Y0181700D01*
X0223750Y0181700D01*
X0206250Y0199200D01*
X0206250Y0209200D01*
X0216250Y0209200D02*
X0223750Y0201700D01*
X0223750Y0186700D01*
X0228750Y0196700D02*
X0228750Y0206700D01*
X0226250Y0209200D01*
X0191250Y0209200D02*
X0226250Y0174200D01*
X0246250Y0154200D02*
X0281250Y0154200D01*
X0336250Y0209200D01*
X0336250Y0199200D02*
X0396250Y0199200D01*
X0383750Y0191700D02*
X0396250Y0179200D01*
X0383750Y0191700D02*
X0333750Y0191700D01*
X0276250Y0134200D01*
X0246250Y0134200D01*
X0241250Y0139200D01*
X0216250Y0139200D01*
X0216250Y0129200D02*
X0276250Y0129200D01*
X0333750Y0186700D01*
X0336250Y0199200D02*
X0276250Y0139200D01*
X0251250Y0139200D01*
X0241250Y0149200D02*
X0246250Y0154200D01*
X0241250Y0149200D02*
X0216250Y0149200D01*
X0216250Y0129200D02*
X0196250Y0149200D01*
X0181250Y0149200D01*
X0171250Y0134200D02*
X0156250Y0119200D01*
X0156250Y0104200D01*
X0141250Y0119200D02*
X0117250Y0095200D01*
X0110250Y0095200D01*
X0106250Y0091200D01*
X0106250Y0074200D01*
X0091250Y0059200D01*
X0091250Y0054200D01*
X0081250Y0086200D02*
X0091250Y0096200D01*
X0091250Y0104200D01*
X0141250Y0119200D02*
X0141250Y0199200D01*
X0151250Y0209200D01*
X0161250Y0209200D02*
X0161250Y0206700D01*
X0146250Y0191700D01*
X0146250Y0169200D02*
X0147250Y0169200D01*
X0276250Y0124200D02*
X0311250Y0159200D01*
X0396250Y0159200D01*
X0368250Y0144200D02*
X0393250Y0119200D01*
X0396250Y0119200D01*
X0395250Y0110200D02*
X0380250Y0110200D01*
X0371250Y0119200D01*
X0356250Y0119200D01*
X0379250Y0099200D02*
X0374250Y0094200D01*
X0356250Y0094200D01*
X0379250Y0099200D02*
X0396250Y0099200D01*
X0396250Y0109200D02*
X0395250Y0110200D01*
X0396250Y0089200D02*
X0380250Y0089200D01*
X0360250Y0069200D01*
X0356250Y0069200D01*
X0351250Y0064200D02*
X0351250Y0149200D01*
X0356250Y0144200D02*
X0368250Y0144200D01*
X0351250Y0064200D02*
X0346250Y0059200D01*
D17*
X0298250Y0063200D03*
X0258750Y0089200D03*
X0224250Y0089200D03*
X0208250Y0089200D03*
X0189250Y0089200D03*
X0130250Y0121200D03*
X0130250Y0142200D03*
X0130250Y0167200D03*
X0146250Y0191700D03*
X0223750Y0186700D03*
X0228750Y0196700D03*
X0226250Y0174200D03*
X0234250Y0154200D03*
X0333750Y0186700D03*
X0351250Y0149200D03*
X0077250Y0071200D03*
M02*
