%
M48
M72
T01C0.01378
T02C0.02756
T03C0.04000
T04C0.08000
%
T01
X52000Y52200
X56200Y48200
X63000Y52800
X59900Y56000
X59300Y61300
X64200Y66100
X61000Y69300
X54700Y70200
X48800Y64300
X44700Y76400
X44400Y85100
X51000Y87000
X57500Y80600
X60600Y85500
X69500Y79000
X75100Y79100
X79300Y66700
X79400Y57300
X79600Y48700
X70100Y38700
X67200Y32800
X69300Y53900
X33000Y83400
X29100Y83400
X25000Y83400
X28800Y76000
X17900Y92400
X26200Y101200
X31800Y101100
X45200Y100200
T02
X38449Y100865
X43764Y92400
X38449Y83935
X19551Y83935
X14236Y92400
X19551Y100865
T03
X14700Y14800
X14700Y24800
X14700Y34800
X24700Y34800
X24700Y24800
X24700Y14800
X35400Y14800
X35400Y24800
X35400Y34800
X24700Y44800
X24700Y54800
X24700Y64800
X14700Y64800
X14700Y54800
X14700Y44800
X66600Y24700
X66600Y14700
X76600Y14700
X76600Y24700
X86600Y24700
X86600Y14700
X96600Y14700
X96600Y24700
X98500Y49500
X98500Y59500
X98500Y69500
X98500Y79500
X98500Y89500
X98500Y99500
T04
X85100Y97600
X53300Y16700
M30
