G75*
%MOIN*%
%OFA0B0*%
%FSLAX25Y25*%
%IPPOS*%
%LPD*%
%AMOC8*
5,1,8,0,0,1.08239X$1,22.5*
%
%ADD10C,0.00300*%
D10*
X0042611Y0042801D02*
X0045227Y0045418D01*
X0045373Y0044109D01*
X0047191Y0040837D02*
X0047114Y0040763D01*
X0047035Y0040692D01*
X0046954Y0040624D01*
X0046870Y0040558D01*
X0046784Y0040496D01*
X0046696Y0040436D01*
X0046606Y0040380D01*
X0046514Y0040326D01*
X0046420Y0040277D01*
X0046324Y0040230D01*
X0046227Y0040187D01*
X0046128Y0040147D01*
X0046028Y0040110D01*
X0046319Y0040256D02*
X0046610Y0042872D01*
X0046901Y0043018D02*
X0046948Y0043039D01*
X0046998Y0043057D01*
X0047048Y0043072D01*
X0047099Y0043083D01*
X0047151Y0043090D01*
X0047203Y0043094D01*
X0047256Y0043095D01*
X0047308Y0043091D01*
X0047360Y0043085D01*
X0047412Y0043074D01*
X0047462Y0043060D01*
X0047512Y0043043D01*
X0047560Y0043022D01*
X0047606Y0042998D01*
X0047651Y0042971D01*
X0047694Y0042941D01*
X0047735Y0042908D01*
X0047773Y0042872D01*
X0047809Y0042834D01*
X0047842Y0042793D01*
X0047872Y0042750D01*
X0047899Y0042705D01*
X0047923Y0042659D01*
X0047944Y0042611D01*
X0047961Y0042561D01*
X0047975Y0042511D01*
X0047986Y0042459D01*
X0047992Y0042407D01*
X0047996Y0042355D01*
X0047995Y0042302D01*
X0047991Y0042250D01*
X0047984Y0042198D01*
X0047973Y0042147D01*
X0047958Y0042097D01*
X0047940Y0042047D01*
X0047919Y0042000D01*
X0046901Y0043017D02*
X0046801Y0042980D01*
X0046703Y0042941D01*
X0046606Y0042897D01*
X0046510Y0042851D01*
X0046416Y0042801D01*
X0046324Y0042747D01*
X0046234Y0042691D01*
X0046146Y0042632D01*
X0046059Y0042569D01*
X0045976Y0042504D01*
X0045894Y0042435D01*
X0045815Y0042364D01*
X0045739Y0042290D01*
X0047191Y0040837D02*
X0047265Y0040914D01*
X0047336Y0040993D01*
X0047404Y0041074D01*
X0047470Y0041158D01*
X0047532Y0041244D01*
X0047592Y0041332D01*
X0047648Y0041422D01*
X0047702Y0041515D01*
X0047751Y0041608D01*
X0047798Y0041704D01*
X0047841Y0041801D01*
X0047881Y0041900D01*
X0047918Y0042000D01*
X0045738Y0042290D02*
X0045664Y0042213D01*
X0045593Y0042134D01*
X0045525Y0042053D01*
X0045459Y0041969D01*
X0045397Y0041883D01*
X0045337Y0041795D01*
X0045281Y0041705D01*
X0045227Y0041613D01*
X0045178Y0041519D01*
X0045131Y0041423D01*
X0045088Y0041326D01*
X0045048Y0041227D01*
X0045011Y0041127D01*
X0045156Y0040255D02*
X0045194Y0040219D01*
X0045235Y0040186D01*
X0045278Y0040156D01*
X0045323Y0040129D01*
X0045369Y0040105D01*
X0045417Y0040084D01*
X0045467Y0040067D01*
X0045517Y0040053D01*
X0045569Y0040042D01*
X0045621Y0040036D01*
X0045673Y0040032D01*
X0045726Y0040033D01*
X0045778Y0040037D01*
X0045830Y0040044D01*
X0045881Y0040055D01*
X0045931Y0040070D01*
X0045981Y0040088D01*
X0046029Y0040109D01*
X0045156Y0040255D02*
X0045120Y0040293D01*
X0045087Y0040334D01*
X0045057Y0040377D01*
X0045030Y0040422D01*
X0045006Y0040468D01*
X0044985Y0040516D01*
X0044968Y0040566D01*
X0044954Y0040616D01*
X0044943Y0040668D01*
X0044937Y0040720D01*
X0044933Y0040772D01*
X0044934Y0040825D01*
X0044938Y0040877D01*
X0044945Y0040929D01*
X0044956Y0040980D01*
X0044971Y0041030D01*
X0044989Y0041080D01*
X0045010Y0041127D01*
X0043338Y0042074D02*
X0041884Y0043528D01*
X0040502Y0044912D02*
X0040446Y0044970D01*
X0040393Y0045031D01*
X0040344Y0045095D01*
X0040297Y0045161D01*
X0040254Y0045229D01*
X0040214Y0045299D01*
X0040178Y0045371D01*
X0040145Y0045445D01*
X0040116Y0045520D01*
X0040091Y0045597D01*
X0040069Y0045675D01*
X0040052Y0045753D01*
X0040038Y0045833D01*
X0040028Y0045913D01*
X0040022Y0045993D01*
X0040020Y0046074D01*
X0040022Y0046155D01*
X0040028Y0046235D01*
X0040038Y0046315D01*
X0040052Y0046395D01*
X0040069Y0046473D01*
X0040091Y0046551D01*
X0040116Y0046628D01*
X0040145Y0046703D01*
X0040178Y0046777D01*
X0040214Y0046849D01*
X0040254Y0046919D01*
X0040297Y0046987D01*
X0040344Y0047053D01*
X0040393Y0047117D01*
X0040446Y0047178D01*
X0040502Y0047236D01*
X0040501Y0047236D02*
X0041228Y0047963D01*
X0040501Y0047236D02*
X0041373Y0046364D01*
X0041374Y0046365D02*
X0041415Y0046326D01*
X0041458Y0046291D01*
X0041504Y0046259D01*
X0041552Y0046229D01*
X0041602Y0046204D01*
X0041653Y0046181D01*
X0041706Y0046163D01*
X0041760Y0046147D01*
X0041815Y0046136D01*
X0041871Y0046128D01*
X0041927Y0046124D01*
X0041983Y0046124D01*
X0042039Y0046128D01*
X0042095Y0046136D01*
X0042150Y0046147D01*
X0042204Y0046163D01*
X0042257Y0046181D01*
X0042308Y0046204D01*
X0042358Y0046229D01*
X0042406Y0046259D01*
X0042452Y0046291D01*
X0042495Y0046326D01*
X0042536Y0046365D01*
X0042536Y0046364D02*
X0042682Y0046510D01*
X0042682Y0046509D02*
X0042725Y0046555D01*
X0042766Y0046604D01*
X0042803Y0046655D01*
X0042837Y0046708D01*
X0042868Y0046764D01*
X0042895Y0046821D01*
X0042919Y0046879D01*
X0042939Y0046939D01*
X0042956Y0047001D01*
X0042968Y0047063D01*
X0042977Y0047125D01*
X0042982Y0047189D01*
X0042983Y0047252D01*
X0042980Y0047315D01*
X0042973Y0047378D01*
X0042962Y0047440D01*
X0042948Y0047502D01*
X0042930Y0047563D01*
X0042908Y0047622D01*
X0042882Y0047680D01*
X0042853Y0047736D01*
X0042821Y0047791D01*
X0042785Y0047843D01*
X0042746Y0047893D01*
X0042704Y0047940D01*
X0042659Y0047985D01*
X0042612Y0048027D01*
X0042562Y0048066D01*
X0042510Y0048102D01*
X0042455Y0048134D01*
X0042399Y0048163D01*
X0042341Y0048189D01*
X0042282Y0048211D01*
X0042221Y0048229D01*
X0042159Y0048243D01*
X0042097Y0048254D01*
X0042034Y0048261D01*
X0041971Y0048264D01*
X0041908Y0048263D01*
X0041844Y0048258D01*
X0041782Y0048249D01*
X0041720Y0048237D01*
X0041658Y0048220D01*
X0041598Y0048200D01*
X0041540Y0048176D01*
X0041483Y0048149D01*
X0041427Y0048118D01*
X0041374Y0048084D01*
X0041323Y0048047D01*
X0041274Y0048006D01*
X0041228Y0047963D01*
X0043651Y0051361D02*
X0042924Y0052088D01*
X0042882Y0052133D01*
X0042842Y0052181D01*
X0042805Y0052231D01*
X0042771Y0052283D01*
X0042741Y0052337D01*
X0042714Y0052393D01*
X0042690Y0052450D01*
X0042670Y0052509D01*
X0042653Y0052569D01*
X0042640Y0052630D01*
X0042630Y0052691D01*
X0042625Y0052753D01*
X0042623Y0052815D01*
X0042625Y0052877D01*
X0042630Y0052939D01*
X0042640Y0053000D01*
X0042653Y0053061D01*
X0042670Y0053121D01*
X0042690Y0053180D01*
X0042714Y0053237D01*
X0042741Y0053293D01*
X0042771Y0053347D01*
X0042805Y0053399D01*
X0042842Y0053449D01*
X0042882Y0053497D01*
X0042924Y0053542D01*
X0042924Y0053541D02*
X0044087Y0054704D01*
X0044132Y0054746D01*
X0044180Y0054786D01*
X0044230Y0054823D01*
X0044282Y0054857D01*
X0044336Y0054887D01*
X0044392Y0054914D01*
X0044449Y0054938D01*
X0044508Y0054958D01*
X0044568Y0054975D01*
X0044629Y0054988D01*
X0044690Y0054998D01*
X0044752Y0055003D01*
X0044814Y0055005D01*
X0044876Y0055003D01*
X0044938Y0054998D01*
X0044999Y0054988D01*
X0045060Y0054975D01*
X0045120Y0054958D01*
X0045179Y0054938D01*
X0045236Y0054914D01*
X0045292Y0054887D01*
X0045346Y0054857D01*
X0045398Y0054823D01*
X0045448Y0054786D01*
X0045496Y0054746D01*
X0045541Y0054704D01*
X0046267Y0053977D01*
X0043651Y0051361D01*
X0046246Y0048766D02*
X0047554Y0050074D01*
X0047589Y0050107D01*
X0047627Y0050137D01*
X0047668Y0050164D01*
X0047710Y0050188D01*
X0047754Y0050208D01*
X0047799Y0050225D01*
X0047846Y0050238D01*
X0047893Y0050247D01*
X0047942Y0050253D01*
X0047990Y0050255D01*
X0048038Y0050253D01*
X0048087Y0050247D01*
X0048134Y0050238D01*
X0048181Y0050225D01*
X0048226Y0050208D01*
X0048270Y0050188D01*
X0048312Y0050164D01*
X0048353Y0050137D01*
X0048391Y0050107D01*
X0048426Y0050074D01*
X0049153Y0049347D01*
X0047409Y0047603D01*
X0048537Y0046475D02*
X0049264Y0045748D01*
X0049299Y0045715D01*
X0049337Y0045685D01*
X0049378Y0045658D01*
X0049420Y0045634D01*
X0049464Y0045614D01*
X0049509Y0045597D01*
X0049556Y0045584D01*
X0049603Y0045575D01*
X0049652Y0045569D01*
X0049700Y0045567D01*
X0049748Y0045569D01*
X0049797Y0045575D01*
X0049844Y0045584D01*
X0049891Y0045597D01*
X0049936Y0045614D01*
X0049980Y0045634D01*
X0050022Y0045658D01*
X0050063Y0045685D01*
X0050101Y0045715D01*
X0050136Y0045748D01*
X0050863Y0046475D01*
X0050572Y0046184D02*
X0049409Y0047347D01*
X0049700Y0047638D01*
X0049700Y0047637D02*
X0049741Y0047676D01*
X0049784Y0047711D01*
X0049830Y0047743D01*
X0049878Y0047773D01*
X0049928Y0047798D01*
X0049979Y0047821D01*
X0050032Y0047839D01*
X0050086Y0047855D01*
X0050141Y0047866D01*
X0050197Y0047874D01*
X0050253Y0047878D01*
X0050309Y0047878D01*
X0050365Y0047874D01*
X0050421Y0047866D01*
X0050476Y0047855D01*
X0050530Y0047839D01*
X0050583Y0047821D01*
X0050634Y0047798D01*
X0050684Y0047773D01*
X0050732Y0047743D01*
X0050778Y0047711D01*
X0050821Y0047676D01*
X0050862Y0047637D01*
X0050901Y0047596D01*
X0050936Y0047553D01*
X0050968Y0047507D01*
X0050998Y0047459D01*
X0051023Y0047409D01*
X0051046Y0047358D01*
X0051064Y0047305D01*
X0051080Y0047251D01*
X0051091Y0047196D01*
X0051099Y0047140D01*
X0051103Y0047084D01*
X0051103Y0047028D01*
X0051099Y0046972D01*
X0051091Y0046916D01*
X0051080Y0046861D01*
X0051064Y0046807D01*
X0051046Y0046754D01*
X0051023Y0046703D01*
X0050998Y0046653D01*
X0050968Y0046605D01*
X0050936Y0046559D01*
X0050901Y0046516D01*
X0050862Y0046475D01*
X0052585Y0045916D02*
X0053312Y0045189D01*
X0053345Y0045154D01*
X0053375Y0045116D01*
X0053402Y0045075D01*
X0053426Y0045033D01*
X0053446Y0044989D01*
X0053463Y0044944D01*
X0053476Y0044897D01*
X0053485Y0044850D01*
X0053491Y0044801D01*
X0053493Y0044753D01*
X0053491Y0044705D01*
X0053485Y0044656D01*
X0053476Y0044609D01*
X0053463Y0044562D01*
X0053446Y0044517D01*
X0053426Y0044473D01*
X0053402Y0044431D01*
X0053375Y0044390D01*
X0053345Y0044352D01*
X0053312Y0044317D01*
X0052440Y0043445D01*
X0052405Y0043412D01*
X0052367Y0043382D01*
X0052326Y0043355D01*
X0052284Y0043331D01*
X0052240Y0043311D01*
X0052195Y0043294D01*
X0052148Y0043281D01*
X0052101Y0043272D01*
X0052052Y0043266D01*
X0052004Y0043264D01*
X0051956Y0043266D01*
X0051907Y0043272D01*
X0051860Y0043281D01*
X0051813Y0043294D01*
X0051768Y0043311D01*
X0051724Y0043331D01*
X0051682Y0043355D01*
X0051641Y0043382D01*
X0051603Y0043412D01*
X0051568Y0043445D01*
X0050841Y0044171D01*
X0053457Y0046788D01*
X0054694Y0043807D02*
X0052949Y0040319D01*
X0053240Y0040028D01*
X0053531Y0041481D02*
X0055856Y0042644D01*
X0056476Y0041152D02*
X0055168Y0039844D01*
X0055822Y0039190D01*
X0055823Y0039191D02*
X0055861Y0039155D01*
X0055902Y0039122D01*
X0055945Y0039092D01*
X0055991Y0039066D01*
X0056038Y0039043D01*
X0056086Y0039023D01*
X0056136Y0039007D01*
X0056188Y0038994D01*
X0056239Y0038986D01*
X0056292Y0038981D01*
X0056344Y0038980D01*
X0056397Y0038983D01*
X0056449Y0038990D01*
X0056500Y0039000D01*
X0056551Y0039014D01*
X0056600Y0039032D01*
X0056648Y0039054D01*
X0056694Y0039079D01*
X0056739Y0039107D01*
X0056781Y0039138D01*
X0056821Y0039172D01*
X0056858Y0039210D01*
X0056892Y0039249D01*
X0056923Y0039291D01*
X0056951Y0039336D01*
X0056976Y0039382D01*
X0056998Y0039430D01*
X0057016Y0039479D01*
X0057030Y0039530D01*
X0057040Y0039581D01*
X0057047Y0039633D01*
X0057050Y0039686D01*
X0057049Y0039738D01*
X0057044Y0039791D01*
X0057036Y0039842D01*
X0057023Y0039894D01*
X0057007Y0039944D01*
X0056987Y0039992D01*
X0056964Y0040039D01*
X0056938Y0040085D01*
X0056908Y0040128D01*
X0056875Y0040169D01*
X0056839Y0040207D01*
X0056840Y0040207D02*
X0056186Y0040861D01*
X0056476Y0041152D02*
X0056511Y0041185D01*
X0056549Y0041215D01*
X0056590Y0041242D01*
X0056632Y0041266D01*
X0056676Y0041286D01*
X0056721Y0041303D01*
X0056768Y0041316D01*
X0056815Y0041325D01*
X0056864Y0041331D01*
X0056912Y0041333D01*
X0056960Y0041331D01*
X0057009Y0041325D01*
X0057056Y0041316D01*
X0057103Y0041303D01*
X0057148Y0041286D01*
X0057192Y0041266D01*
X0057234Y0041242D01*
X0057275Y0041215D01*
X0057313Y0041185D01*
X0057348Y0041152D01*
X0057930Y0040571D01*
X0058873Y0039627D02*
X0058582Y0039337D01*
X0058873Y0039627D02*
X0059745Y0038755D01*
X0058001Y0037011D01*
X0059773Y0035239D02*
X0060500Y0034512D01*
X0063116Y0037128D01*
X0062390Y0037855D01*
X0062389Y0037855D02*
X0062348Y0037894D01*
X0062305Y0037929D01*
X0062259Y0037961D01*
X0062211Y0037991D01*
X0062161Y0038016D01*
X0062110Y0038039D01*
X0062057Y0038057D01*
X0062003Y0038073D01*
X0061948Y0038084D01*
X0061892Y0038092D01*
X0061836Y0038096D01*
X0061780Y0038096D01*
X0061724Y0038092D01*
X0061668Y0038084D01*
X0061613Y0038073D01*
X0061559Y0038057D01*
X0061506Y0038039D01*
X0061455Y0038016D01*
X0061405Y0037991D01*
X0061357Y0037961D01*
X0061311Y0037929D01*
X0061268Y0037894D01*
X0061227Y0037855D01*
X0061188Y0037814D01*
X0061153Y0037771D01*
X0061121Y0037725D01*
X0061091Y0037677D01*
X0061066Y0037627D01*
X0061043Y0037576D01*
X0061025Y0037523D01*
X0061009Y0037469D01*
X0060998Y0037414D01*
X0060990Y0037358D01*
X0060986Y0037302D01*
X0060986Y0037246D01*
X0060990Y0037190D01*
X0060998Y0037134D01*
X0061009Y0037079D01*
X0061025Y0037025D01*
X0061043Y0036972D01*
X0061066Y0036921D01*
X0061091Y0036871D01*
X0061121Y0036823D01*
X0061153Y0036777D01*
X0061188Y0036734D01*
X0061227Y0036693D01*
X0061227Y0036692D02*
X0061954Y0035966D01*
X0061227Y0036693D02*
X0061181Y0036736D01*
X0061132Y0036777D01*
X0061081Y0036814D01*
X0061028Y0036848D01*
X0060972Y0036879D01*
X0060915Y0036906D01*
X0060857Y0036930D01*
X0060797Y0036950D01*
X0060735Y0036967D01*
X0060673Y0036979D01*
X0060611Y0036988D01*
X0060547Y0036993D01*
X0060484Y0036994D01*
X0060421Y0036991D01*
X0060358Y0036984D01*
X0060296Y0036973D01*
X0060234Y0036959D01*
X0060173Y0036941D01*
X0060114Y0036919D01*
X0060056Y0036893D01*
X0060000Y0036864D01*
X0059945Y0036832D01*
X0059893Y0036796D01*
X0059843Y0036757D01*
X0059796Y0036715D01*
X0059751Y0036670D01*
X0059709Y0036623D01*
X0059670Y0036573D01*
X0059634Y0036521D01*
X0059602Y0036466D01*
X0059573Y0036410D01*
X0059547Y0036352D01*
X0059525Y0036293D01*
X0059507Y0036232D01*
X0059493Y0036170D01*
X0059482Y0036108D01*
X0059475Y0036045D01*
X0059472Y0035982D01*
X0059473Y0035919D01*
X0059478Y0035855D01*
X0059487Y0035793D01*
X0059499Y0035731D01*
X0059516Y0035669D01*
X0059536Y0035609D01*
X0059560Y0035551D01*
X0059587Y0035494D01*
X0059618Y0035438D01*
X0059652Y0035385D01*
X0059689Y0035334D01*
X0059730Y0035285D01*
X0059773Y0035239D01*
X0057854Y0032791D02*
X0059016Y0031628D01*
X0056400Y0029012D01*
X0057854Y0030466D02*
X0056691Y0031628D01*
X0055471Y0032267D02*
X0054744Y0031540D01*
X0054709Y0031507D01*
X0054671Y0031477D01*
X0054630Y0031450D01*
X0054588Y0031426D01*
X0054544Y0031406D01*
X0054499Y0031389D01*
X0054452Y0031376D01*
X0054405Y0031367D01*
X0054356Y0031361D01*
X0054308Y0031359D01*
X0054260Y0031361D01*
X0054211Y0031367D01*
X0054164Y0031376D01*
X0054117Y0031389D01*
X0054072Y0031406D01*
X0054028Y0031426D01*
X0053986Y0031450D01*
X0053945Y0031477D01*
X0053907Y0031507D01*
X0053872Y0031540D01*
X0053145Y0032267D01*
X0054017Y0033139D02*
X0055180Y0031976D01*
X0055470Y0032267D02*
X0055509Y0032308D01*
X0055544Y0032351D01*
X0055576Y0032397D01*
X0055606Y0032445D01*
X0055631Y0032495D01*
X0055654Y0032546D01*
X0055672Y0032599D01*
X0055688Y0032653D01*
X0055699Y0032708D01*
X0055707Y0032764D01*
X0055711Y0032820D01*
X0055711Y0032876D01*
X0055707Y0032932D01*
X0055699Y0032988D01*
X0055688Y0033043D01*
X0055672Y0033097D01*
X0055654Y0033150D01*
X0055631Y0033201D01*
X0055606Y0033251D01*
X0055576Y0033299D01*
X0055544Y0033345D01*
X0055509Y0033388D01*
X0055470Y0033429D01*
X0055429Y0033468D01*
X0055386Y0033503D01*
X0055340Y0033535D01*
X0055292Y0033565D01*
X0055242Y0033590D01*
X0055191Y0033613D01*
X0055138Y0033631D01*
X0055084Y0033647D01*
X0055029Y0033658D01*
X0054973Y0033666D01*
X0054917Y0033670D01*
X0054861Y0033670D01*
X0054805Y0033666D01*
X0054749Y0033658D01*
X0054694Y0033647D01*
X0054640Y0033631D01*
X0054587Y0033613D01*
X0054536Y0033590D01*
X0054486Y0033565D01*
X0054438Y0033535D01*
X0054392Y0033503D01*
X0054349Y0033468D01*
X0054308Y0033429D01*
X0054308Y0033430D02*
X0054017Y0033139D01*
X0052004Y0033408D02*
X0051278Y0034135D01*
X0051245Y0034170D01*
X0051215Y0034208D01*
X0051188Y0034249D01*
X0051164Y0034291D01*
X0051144Y0034335D01*
X0051127Y0034380D01*
X0051114Y0034427D01*
X0051105Y0034474D01*
X0051099Y0034523D01*
X0051097Y0034571D01*
X0051099Y0034619D01*
X0051105Y0034668D01*
X0051114Y0034715D01*
X0051127Y0034762D01*
X0051144Y0034807D01*
X0051164Y0034851D01*
X0051188Y0034893D01*
X0051215Y0034934D01*
X0051245Y0034972D01*
X0051278Y0035007D01*
X0051277Y0035007D02*
X0052150Y0035879D01*
X0052185Y0035912D01*
X0052223Y0035942D01*
X0052264Y0035969D01*
X0052306Y0035993D01*
X0052350Y0036013D01*
X0052395Y0036030D01*
X0052442Y0036043D01*
X0052489Y0036052D01*
X0052538Y0036058D01*
X0052586Y0036060D01*
X0052634Y0036058D01*
X0052683Y0036052D01*
X0052730Y0036043D01*
X0052777Y0036030D01*
X0052822Y0036013D01*
X0052866Y0035993D01*
X0052908Y0035969D01*
X0052949Y0035942D01*
X0052987Y0035912D01*
X0053022Y0035879D01*
X0053748Y0035152D01*
X0054621Y0036024D02*
X0052004Y0033408D01*
X0048429Y0036983D02*
X0046975Y0038437D01*
X0048429Y0036983D02*
X0048647Y0039672D01*
X0050245Y0040399D02*
X0050292Y0040350D01*
X0050335Y0040298D01*
X0050376Y0040243D01*
X0050414Y0040187D01*
X0050448Y0040128D01*
X0050479Y0040068D01*
X0050506Y0040005D01*
X0050530Y0039942D01*
X0050550Y0039877D01*
X0050566Y0039811D01*
X0050578Y0039744D01*
X0050587Y0039677D01*
X0050592Y0039609D01*
X0050593Y0039541D01*
X0050590Y0039473D01*
X0050583Y0039406D01*
X0050572Y0039339D01*
X0050558Y0039273D01*
X0050540Y0039207D01*
X0050518Y0039143D01*
X0050492Y0039080D01*
X0050463Y0039019D01*
X0048647Y0039673D02*
X0048648Y0039735D01*
X0048652Y0039796D01*
X0048660Y0039858D01*
X0048672Y0039918D01*
X0048688Y0039978D01*
X0048707Y0040037D01*
X0048730Y0040094D01*
X0048756Y0040150D01*
X0048786Y0040204D01*
X0048820Y0040257D01*
X0048856Y0040306D01*
X0048896Y0040354D01*
X0048938Y0040399D01*
X0048980Y0040439D01*
X0049025Y0040476D01*
X0049072Y0040510D01*
X0049121Y0040541D01*
X0049172Y0040569D01*
X0049225Y0040594D01*
X0049279Y0040615D01*
X0049334Y0040633D01*
X0049390Y0040648D01*
X0049447Y0040659D01*
X0049505Y0040666D01*
X0049563Y0040670D01*
X0049621Y0040670D01*
X0049679Y0040666D01*
X0049737Y0040659D01*
X0049794Y0040648D01*
X0049850Y0040633D01*
X0049905Y0040615D01*
X0049959Y0040594D01*
X0050012Y0040569D01*
X0050063Y0040541D01*
X0050112Y0040510D01*
X0050159Y0040476D01*
X0050204Y0040439D01*
X0050246Y0040399D01*
X0041481Y0054403D02*
X0042208Y0055130D01*
X0041917Y0054839D02*
X0040754Y0056002D01*
X0041045Y0056293D01*
X0041045Y0056292D02*
X0041086Y0056331D01*
X0041129Y0056366D01*
X0041175Y0056398D01*
X0041223Y0056428D01*
X0041273Y0056453D01*
X0041324Y0056476D01*
X0041377Y0056494D01*
X0041431Y0056510D01*
X0041486Y0056521D01*
X0041542Y0056529D01*
X0041598Y0056533D01*
X0041654Y0056533D01*
X0041710Y0056529D01*
X0041766Y0056521D01*
X0041821Y0056510D01*
X0041875Y0056494D01*
X0041928Y0056476D01*
X0041979Y0056453D01*
X0042029Y0056428D01*
X0042077Y0056398D01*
X0042123Y0056366D01*
X0042166Y0056331D01*
X0042207Y0056292D01*
X0042246Y0056251D01*
X0042281Y0056208D01*
X0042313Y0056162D01*
X0042343Y0056114D01*
X0042368Y0056064D01*
X0042391Y0056013D01*
X0042409Y0055960D01*
X0042425Y0055906D01*
X0042436Y0055851D01*
X0042444Y0055795D01*
X0042448Y0055739D01*
X0042448Y0055683D01*
X0042444Y0055627D01*
X0042436Y0055571D01*
X0042425Y0055516D01*
X0042409Y0055462D01*
X0042391Y0055409D01*
X0042368Y0055358D01*
X0042343Y0055308D01*
X0042313Y0055260D01*
X0042281Y0055214D01*
X0042246Y0055171D01*
X0042207Y0055130D01*
X0041481Y0054403D02*
X0041446Y0054370D01*
X0041408Y0054340D01*
X0041367Y0054313D01*
X0041325Y0054289D01*
X0041281Y0054269D01*
X0041236Y0054252D01*
X0041189Y0054239D01*
X0041142Y0054230D01*
X0041093Y0054224D01*
X0041045Y0054222D01*
X0040997Y0054224D01*
X0040948Y0054230D01*
X0040901Y0054239D01*
X0040854Y0054252D01*
X0040809Y0054269D01*
X0040765Y0054289D01*
X0040723Y0054313D01*
X0040682Y0054340D01*
X0040644Y0054370D01*
X0040609Y0054403D01*
X0039882Y0055130D01*
X0038693Y0056319D02*
X0037966Y0057046D01*
X0037923Y0057092D01*
X0037882Y0057141D01*
X0037845Y0057192D01*
X0037811Y0057245D01*
X0037780Y0057301D01*
X0037753Y0057358D01*
X0037729Y0057416D01*
X0037709Y0057476D01*
X0037692Y0057538D01*
X0037680Y0057600D01*
X0037671Y0057662D01*
X0037666Y0057726D01*
X0037665Y0057789D01*
X0037668Y0057852D01*
X0037675Y0057915D01*
X0037686Y0057977D01*
X0037700Y0058039D01*
X0037718Y0058100D01*
X0037740Y0058159D01*
X0037766Y0058217D01*
X0037795Y0058273D01*
X0037827Y0058328D01*
X0037863Y0058380D01*
X0037902Y0058430D01*
X0037944Y0058477D01*
X0037989Y0058522D01*
X0038036Y0058564D01*
X0038086Y0058603D01*
X0038138Y0058639D01*
X0038193Y0058671D01*
X0038249Y0058700D01*
X0038307Y0058726D01*
X0038366Y0058748D01*
X0038427Y0058766D01*
X0038489Y0058780D01*
X0038551Y0058791D01*
X0038614Y0058798D01*
X0038677Y0058801D01*
X0038740Y0058800D01*
X0038804Y0058795D01*
X0038866Y0058786D01*
X0038928Y0058774D01*
X0038990Y0058757D01*
X0039050Y0058737D01*
X0039108Y0058713D01*
X0039165Y0058686D01*
X0039221Y0058655D01*
X0039274Y0058621D01*
X0039325Y0058584D01*
X0039374Y0058543D01*
X0039420Y0058500D01*
X0039420Y0058499D02*
X0040147Y0057773D01*
X0039420Y0058500D02*
X0039381Y0058541D01*
X0039346Y0058584D01*
X0039314Y0058630D01*
X0039284Y0058678D01*
X0039259Y0058728D01*
X0039236Y0058779D01*
X0039218Y0058832D01*
X0039202Y0058886D01*
X0039191Y0058941D01*
X0039183Y0058997D01*
X0039179Y0059053D01*
X0039179Y0059109D01*
X0039183Y0059165D01*
X0039191Y0059221D01*
X0039202Y0059276D01*
X0039218Y0059330D01*
X0039236Y0059383D01*
X0039259Y0059434D01*
X0039284Y0059484D01*
X0039314Y0059532D01*
X0039346Y0059578D01*
X0039381Y0059621D01*
X0039420Y0059662D01*
X0039461Y0059701D01*
X0039504Y0059736D01*
X0039550Y0059768D01*
X0039598Y0059798D01*
X0039648Y0059823D01*
X0039699Y0059846D01*
X0039752Y0059864D01*
X0039806Y0059880D01*
X0039861Y0059891D01*
X0039917Y0059899D01*
X0039973Y0059903D01*
X0040029Y0059903D01*
X0040085Y0059899D01*
X0040141Y0059891D01*
X0040196Y0059880D01*
X0040250Y0059864D01*
X0040303Y0059846D01*
X0040354Y0059823D01*
X0040404Y0059798D01*
X0040452Y0059768D01*
X0040498Y0059736D01*
X0040541Y0059701D01*
X0040582Y0059662D01*
X0040583Y0059662D02*
X0041309Y0058935D01*
X0038693Y0056319D01*
X0036875Y0059300D02*
X0037456Y0059882D01*
X0037495Y0059923D01*
X0037530Y0059966D01*
X0037562Y0060012D01*
X0037592Y0060060D01*
X0037617Y0060110D01*
X0037640Y0060161D01*
X0037658Y0060214D01*
X0037674Y0060268D01*
X0037685Y0060323D01*
X0037693Y0060379D01*
X0037697Y0060435D01*
X0037697Y0060491D01*
X0037693Y0060547D01*
X0037685Y0060603D01*
X0037674Y0060658D01*
X0037658Y0060712D01*
X0037640Y0060765D01*
X0037617Y0060816D01*
X0037592Y0060866D01*
X0037562Y0060914D01*
X0037530Y0060960D01*
X0037495Y0061003D01*
X0037456Y0061044D01*
X0037415Y0061083D01*
X0037372Y0061118D01*
X0037326Y0061150D01*
X0037278Y0061180D01*
X0037228Y0061205D01*
X0037177Y0061228D01*
X0037124Y0061246D01*
X0037070Y0061262D01*
X0037015Y0061273D01*
X0036959Y0061281D01*
X0036903Y0061285D01*
X0036847Y0061285D01*
X0036791Y0061281D01*
X0036735Y0061273D01*
X0036680Y0061262D01*
X0036626Y0061246D01*
X0036573Y0061228D01*
X0036522Y0061205D01*
X0036472Y0061180D01*
X0036424Y0061150D01*
X0036378Y0061118D01*
X0036335Y0061083D01*
X0036294Y0061044D01*
X0036293Y0061044D02*
X0035712Y0060463D01*
X0035673Y0060422D01*
X0035638Y0060379D01*
X0035606Y0060333D01*
X0035576Y0060285D01*
X0035551Y0060235D01*
X0035528Y0060184D01*
X0035510Y0060131D01*
X0035494Y0060077D01*
X0035483Y0060022D01*
X0035475Y0059966D01*
X0035471Y0059910D01*
X0035471Y0059854D01*
X0035475Y0059798D01*
X0035483Y0059742D01*
X0035494Y0059687D01*
X0035510Y0059633D01*
X0035528Y0059580D01*
X0035551Y0059529D01*
X0035576Y0059479D01*
X0035606Y0059431D01*
X0035638Y0059385D01*
X0035673Y0059342D01*
X0035712Y0059301D01*
X0035753Y0059262D01*
X0035796Y0059227D01*
X0035842Y0059195D01*
X0035890Y0059165D01*
X0035940Y0059140D01*
X0035991Y0059117D01*
X0036044Y0059099D01*
X0036098Y0059083D01*
X0036153Y0059072D01*
X0036209Y0059064D01*
X0036265Y0059060D01*
X0036321Y0059060D01*
X0036377Y0059064D01*
X0036433Y0059072D01*
X0036488Y0059083D01*
X0036542Y0059099D01*
X0036595Y0059117D01*
X0036646Y0059140D01*
X0036696Y0059165D01*
X0036744Y0059195D01*
X0036790Y0059227D01*
X0036833Y0059262D01*
X0036874Y0059301D01*
X0034668Y0061506D02*
X0035250Y0062088D01*
X0035249Y0062088D02*
X0035288Y0062129D01*
X0035323Y0062172D01*
X0035355Y0062218D01*
X0035385Y0062266D01*
X0035410Y0062316D01*
X0035433Y0062367D01*
X0035451Y0062420D01*
X0035467Y0062474D01*
X0035478Y0062529D01*
X0035486Y0062585D01*
X0035490Y0062641D01*
X0035490Y0062697D01*
X0035486Y0062753D01*
X0035478Y0062809D01*
X0035467Y0062864D01*
X0035451Y0062918D01*
X0035433Y0062971D01*
X0035410Y0063022D01*
X0035385Y0063072D01*
X0035355Y0063120D01*
X0035323Y0063166D01*
X0035288Y0063209D01*
X0035249Y0063250D01*
X0035208Y0063289D01*
X0035165Y0063324D01*
X0035119Y0063356D01*
X0035071Y0063386D01*
X0035021Y0063411D01*
X0034970Y0063434D01*
X0034917Y0063452D01*
X0034863Y0063468D01*
X0034808Y0063479D01*
X0034752Y0063487D01*
X0034696Y0063491D01*
X0034640Y0063491D01*
X0034584Y0063487D01*
X0034528Y0063479D01*
X0034473Y0063468D01*
X0034419Y0063452D01*
X0034366Y0063434D01*
X0034315Y0063411D01*
X0034265Y0063386D01*
X0034217Y0063356D01*
X0034171Y0063324D01*
X0034128Y0063289D01*
X0034087Y0063250D01*
X0034087Y0063251D02*
X0033506Y0062669D01*
X0033467Y0062628D01*
X0033432Y0062585D01*
X0033400Y0062539D01*
X0033370Y0062491D01*
X0033345Y0062441D01*
X0033322Y0062390D01*
X0033304Y0062337D01*
X0033288Y0062283D01*
X0033277Y0062228D01*
X0033269Y0062172D01*
X0033265Y0062116D01*
X0033265Y0062060D01*
X0033269Y0062004D01*
X0033277Y0061948D01*
X0033288Y0061893D01*
X0033304Y0061839D01*
X0033322Y0061786D01*
X0033345Y0061735D01*
X0033370Y0061685D01*
X0033400Y0061637D01*
X0033432Y0061591D01*
X0033467Y0061548D01*
X0033506Y0061507D01*
X0033547Y0061468D01*
X0033590Y0061433D01*
X0033636Y0061401D01*
X0033684Y0061371D01*
X0033734Y0061346D01*
X0033785Y0061323D01*
X0033838Y0061305D01*
X0033892Y0061289D01*
X0033947Y0061278D01*
X0034003Y0061270D01*
X0034059Y0061266D01*
X0034115Y0061266D01*
X0034171Y0061270D01*
X0034227Y0061278D01*
X0034282Y0061289D01*
X0034336Y0061305D01*
X0034389Y0061323D01*
X0034440Y0061346D01*
X0034490Y0061371D01*
X0034538Y0061401D01*
X0034584Y0061433D01*
X0034627Y0061468D01*
X0034668Y0061507D01*
X0031796Y0063216D02*
X0033540Y0064960D01*
X0032814Y0065687D01*
X0032813Y0065687D02*
X0032778Y0065720D01*
X0032740Y0065750D01*
X0032699Y0065777D01*
X0032657Y0065801D01*
X0032613Y0065821D01*
X0032568Y0065838D01*
X0032521Y0065851D01*
X0032474Y0065860D01*
X0032425Y0065866D01*
X0032377Y0065868D01*
X0032329Y0065866D01*
X0032280Y0065860D01*
X0032233Y0065851D01*
X0032186Y0065838D01*
X0032141Y0065821D01*
X0032097Y0065801D01*
X0032055Y0065777D01*
X0032014Y0065750D01*
X0031976Y0065720D01*
X0031941Y0065687D01*
X0030633Y0064379D01*
M02*
