G75*
%MOIN*%
%OFA0B0*%
%FSLAX25Y25*%
%IPPOS*%
%LPD*%
%AMOC8*
5,1,8,0,0,1.08239X$1,22.5*
%
%ADD10C,0.08800*%
%ADD11R,0.05131X0.04737*%
%ADD12R,0.04737X0.05131*%
%ADD13R,0.07099X0.05918*%
%ADD14R,0.05918X0.07099*%
%ADD15R,0.05524X0.02965*%
%ADD16C,0.08200*%
%ADD17R,0.04737X0.04737*%
%ADD18C,0.02572*%
%ADD19R,0.13760X0.06040*%
%ADD20R,0.05800X0.03300*%
%ADD21OC8,0.06800*%
%ADD22R,0.05800X0.03000*%
%ADD23R,0.03000X0.05800*%
%ADD24C,0.01421*%
%ADD25R,0.05556X0.05556*%
%ADD26C,0.03556*%
%ADD27R,0.06800X0.06800*%
%ADD28C,0.03778*%
D10*
X0053300Y0016700D03*
X0085100Y0097600D03*
D11*
X0074746Y0085100D03*
X0068054Y0085100D03*
X0083754Y0063600D03*
X0090446Y0063600D03*
X0090446Y0052700D03*
X0083754Y0052700D03*
X0083754Y0044800D03*
X0090446Y0044800D03*
D12*
X0089200Y0073754D03*
X0089200Y0080446D03*
X0081200Y0080446D03*
X0081200Y0073754D03*
X0066600Y0092254D03*
X0066600Y0098946D03*
X0058800Y0098946D03*
X0058800Y0092254D03*
D13*
X0073800Y0091663D03*
X0073800Y0099537D03*
D14*
X0023837Y0076100D03*
X0015963Y0076100D03*
D15*
X0023881Y0088660D03*
X0023881Y0092400D03*
X0023881Y0096140D03*
X0034119Y0096140D03*
X0034119Y0088660D03*
D16*
X0098500Y0089500D03*
X0098500Y0079500D03*
X0098500Y0069500D03*
X0098500Y0059500D03*
X0098500Y0049500D03*
X0098500Y0099500D03*
D17*
X0051100Y0099537D03*
X0051100Y0091663D03*
D18*
X0035916Y0078866D02*
X0039966Y0074816D01*
X0036625Y0071475D02*
X0032575Y0075525D01*
X0029234Y0072184D02*
X0033284Y0068134D01*
D19*
G36*
X0027600Y0070785D02*
X0037329Y0080514D01*
X0041600Y0076243D01*
X0031871Y0066514D01*
X0027600Y0070785D01*
G37*
D20*
X0075900Y0036722D03*
X0075900Y0033478D03*
X0084400Y0033478D03*
X0084400Y0036722D03*
D21*
X0014700Y0014800D03*
X0014700Y0024800D03*
X0014700Y0034800D03*
X0024700Y0034800D03*
X0024700Y0024800D03*
X0024700Y0014800D03*
X0035400Y0024800D03*
X0035400Y0034800D03*
X0024700Y0044800D03*
X0024700Y0054800D03*
X0024700Y0064800D03*
X0014700Y0064800D03*
X0014700Y0054800D03*
X0014700Y0044800D03*
X0066600Y0024700D03*
X0066600Y0014700D03*
X0076600Y0014700D03*
X0076600Y0024700D03*
X0086600Y0024700D03*
X0086600Y0014700D03*
X0096600Y0014700D03*
X0096600Y0024700D03*
D22*
G36*
X0073880Y0045880D02*
X0069780Y0049980D01*
X0071902Y0052102D01*
X0076002Y0048002D01*
X0073880Y0045880D01*
G37*
G36*
X0071653Y0043652D02*
X0067553Y0047752D01*
X0069675Y0049874D01*
X0073775Y0045774D01*
X0071653Y0043652D01*
G37*
G36*
X0069426Y0041425D02*
X0065326Y0045525D01*
X0067448Y0047647D01*
X0071548Y0043547D01*
X0069426Y0041425D01*
G37*
G36*
X0067198Y0039198D02*
X0063098Y0043298D01*
X0065220Y0045420D01*
X0069320Y0041320D01*
X0067198Y0039198D01*
G37*
G36*
X0064971Y0036971D02*
X0060871Y0041071D01*
X0062993Y0043193D01*
X0067093Y0039093D01*
X0064971Y0036971D01*
G37*
G36*
X0062744Y0034744D02*
X0058644Y0038844D01*
X0060766Y0040966D01*
X0064866Y0036866D01*
X0062744Y0034744D01*
G37*
G36*
X0076107Y0048107D02*
X0072007Y0052207D01*
X0074129Y0054329D01*
X0078229Y0050229D01*
X0076107Y0048107D01*
G37*
G36*
X0078334Y0050334D02*
X0074234Y0054434D01*
X0076356Y0056556D01*
X0080456Y0052456D01*
X0078334Y0050334D01*
G37*
G36*
X0054434Y0074234D02*
X0050334Y0078334D01*
X0052456Y0080456D01*
X0056556Y0076356D01*
X0054434Y0074234D01*
G37*
G36*
X0052207Y0072007D02*
X0048107Y0076107D01*
X0050229Y0078229D01*
X0054329Y0074129D01*
X0052207Y0072007D01*
G37*
G36*
X0049980Y0069780D02*
X0045880Y0073880D01*
X0048002Y0076002D01*
X0052102Y0071902D01*
X0049980Y0069780D01*
G37*
G36*
X0047752Y0067553D02*
X0043652Y0071653D01*
X0045774Y0073775D01*
X0049874Y0069675D01*
X0047752Y0067553D01*
G37*
G36*
X0045525Y0065326D02*
X0041425Y0069426D01*
X0043547Y0071548D01*
X0047647Y0067448D01*
X0045525Y0065326D01*
G37*
G36*
X0043298Y0063098D02*
X0039198Y0067198D01*
X0041320Y0069320D01*
X0045420Y0065220D01*
X0043298Y0063098D01*
G37*
G36*
X0041071Y0060871D02*
X0036971Y0064971D01*
X0039093Y0067093D01*
X0043193Y0062993D01*
X0041071Y0060871D01*
G37*
G36*
X0038844Y0058644D02*
X0034744Y0062744D01*
X0036866Y0064866D01*
X0040966Y0060766D01*
X0038844Y0058644D01*
G37*
D23*
G36*
X0036866Y0050334D02*
X0034744Y0052456D01*
X0038844Y0056556D01*
X0040966Y0054434D01*
X0036866Y0050334D01*
G37*
G36*
X0039093Y0048107D02*
X0036971Y0050229D01*
X0041071Y0054329D01*
X0043193Y0052207D01*
X0039093Y0048107D01*
G37*
G36*
X0041320Y0045880D02*
X0039198Y0048002D01*
X0043298Y0052102D01*
X0045420Y0049980D01*
X0041320Y0045880D01*
G37*
G36*
X0043547Y0043652D02*
X0041425Y0045774D01*
X0045525Y0049874D01*
X0047647Y0047752D01*
X0043547Y0043652D01*
G37*
G36*
X0045774Y0041425D02*
X0043652Y0043547D01*
X0047752Y0047647D01*
X0049874Y0045525D01*
X0045774Y0041425D01*
G37*
G36*
X0048002Y0039198D02*
X0045880Y0041320D01*
X0049980Y0045420D01*
X0052102Y0043298D01*
X0048002Y0039198D01*
G37*
G36*
X0050229Y0036971D02*
X0048107Y0039093D01*
X0052207Y0043193D01*
X0054329Y0041071D01*
X0050229Y0036971D01*
G37*
G36*
X0052456Y0034744D02*
X0050334Y0036866D01*
X0054434Y0040966D01*
X0056556Y0038844D01*
X0052456Y0034744D01*
G37*
G36*
X0076356Y0058644D02*
X0074234Y0060766D01*
X0078334Y0064866D01*
X0080456Y0062744D01*
X0076356Y0058644D01*
G37*
G36*
X0074129Y0060871D02*
X0072007Y0062993D01*
X0076107Y0067093D01*
X0078229Y0064971D01*
X0074129Y0060871D01*
G37*
G36*
X0071902Y0063098D02*
X0069780Y0065220D01*
X0073880Y0069320D01*
X0076002Y0067198D01*
X0071902Y0063098D01*
G37*
G36*
X0069675Y0065326D02*
X0067553Y0067448D01*
X0071653Y0071548D01*
X0073775Y0069426D01*
X0069675Y0065326D01*
G37*
G36*
X0067448Y0067553D02*
X0065326Y0069675D01*
X0069426Y0073775D01*
X0071548Y0071653D01*
X0067448Y0067553D01*
G37*
G36*
X0065220Y0069780D02*
X0063098Y0071902D01*
X0067198Y0076002D01*
X0069320Y0073880D01*
X0065220Y0069780D01*
G37*
G36*
X0062993Y0072007D02*
X0060871Y0074129D01*
X0064971Y0078229D01*
X0067093Y0076107D01*
X0062993Y0072007D01*
G37*
G36*
X0060766Y0074234D02*
X0058644Y0076356D01*
X0062744Y0080456D01*
X0064866Y0078334D01*
X0060766Y0074234D01*
G37*
D24*
X0083305Y0083742D02*
X0083305Y0087058D01*
X0083305Y0083742D02*
X0079989Y0083742D01*
X0079989Y0087058D01*
X0083305Y0087058D01*
X0083305Y0085162D02*
X0079989Y0085162D01*
X0079989Y0086582D02*
X0083305Y0086582D01*
X0090211Y0087058D02*
X0090211Y0083742D01*
X0086895Y0083742D01*
X0086895Y0087058D01*
X0090211Y0087058D01*
X0090211Y0085162D02*
X0086895Y0085162D01*
X0086895Y0086582D02*
X0090211Y0086582D01*
D25*
X0038449Y0083935D03*
X0038449Y0100865D03*
X0019551Y0100865D03*
X0019551Y0083935D03*
D26*
X0014236Y0092400D03*
X0043764Y0092400D03*
D27*
X0035400Y0014800D03*
D28*
X0067200Y0032800D03*
X0070100Y0038700D03*
X0079600Y0048700D03*
X0079400Y0057300D03*
X0079300Y0066700D03*
X0075100Y0079100D03*
X0069500Y0079000D03*
X0060600Y0085500D03*
X0057500Y0080600D03*
X0051000Y0087000D03*
X0044400Y0085100D03*
X0044700Y0076400D03*
X0054700Y0070200D03*
X0048800Y0064300D03*
X0059300Y0061300D03*
X0064200Y0066100D03*
X0061000Y0069300D03*
X0059900Y0056000D03*
X0063000Y0052800D03*
X0069300Y0053900D03*
X0056200Y0048200D03*
X0052000Y0052200D03*
X0028800Y0076000D03*
X0029100Y0083400D03*
X0033000Y0083400D03*
X0025000Y0083400D03*
X0017900Y0092400D03*
X0026200Y0101200D03*
X0031800Y0101100D03*
X0045200Y0100200D03*
M02*
