G75*
%MOIN*%
%OFA0B0*%
%FSLAX25Y25*%
%IPPOS*%
%LPD*%
%AMOC8*
5,1,8,0,0,1.08239X$1,22.5*
%
%ADD10R,0.04331X0.03937*%
%ADD11R,0.03937X0.04331*%
%ADD12R,0.06299X0.05118*%
%ADD13R,0.05118X0.06299*%
%ADD14R,0.04724X0.02165*%
%ADD15R,0.03937X0.03937*%
%ADD16C,0.01772*%
%ADD17R,0.05000X0.02500*%
%ADD18R,0.09000X0.09600*%
%ADD19R,0.05000X0.02200*%
%ADD20R,0.02200X0.05000*%
%ADD21C,0.01181*%
D10*
X0083754Y0044800D03*
X0090446Y0044800D03*
X0090446Y0052700D03*
X0083754Y0052700D03*
X0083754Y0063600D03*
X0090446Y0063600D03*
X0074746Y0085100D03*
X0068054Y0085100D03*
D11*
X0066600Y0092254D03*
X0066600Y0098946D03*
X0058800Y0098946D03*
X0058800Y0092254D03*
X0081200Y0080446D03*
X0081200Y0073754D03*
X0089200Y0073754D03*
X0089200Y0080446D03*
D12*
X0073800Y0091663D03*
X0073800Y0099537D03*
D13*
X0023837Y0076100D03*
X0015963Y0076100D03*
D14*
X0023881Y0088660D03*
X0023881Y0092400D03*
X0023881Y0096140D03*
X0034119Y0096140D03*
X0034119Y0088660D03*
D15*
X0051100Y0091663D03*
X0051100Y0099537D03*
D16*
X0035916Y0078866D02*
X0039966Y0074816D01*
X0036625Y0071475D02*
X0032575Y0075525D01*
X0029234Y0072184D02*
X0033284Y0068134D01*
D17*
X0075900Y0036722D03*
X0075900Y0033478D03*
X0084400Y0033478D03*
X0084400Y0036722D03*
D18*
X0084400Y0035100D03*
X0075900Y0035100D03*
D19*
G36*
X0069426Y0041991D02*
X0065892Y0045525D01*
X0067448Y0047081D01*
X0070982Y0043547D01*
X0069426Y0041991D01*
G37*
G36*
X0067198Y0039764D02*
X0063664Y0043298D01*
X0065220Y0044854D01*
X0068754Y0041320D01*
X0067198Y0039764D01*
G37*
G36*
X0064971Y0037537D02*
X0061437Y0041071D01*
X0062993Y0042627D01*
X0066527Y0039093D01*
X0064971Y0037537D01*
G37*
G36*
X0062744Y0035310D02*
X0059210Y0038844D01*
X0060766Y0040400D01*
X0064300Y0036866D01*
X0062744Y0035310D01*
G37*
G36*
X0071653Y0044218D02*
X0068119Y0047752D01*
X0069675Y0049308D01*
X0073209Y0045774D01*
X0071653Y0044218D01*
G37*
G36*
X0073880Y0046446D02*
X0070346Y0049980D01*
X0071902Y0051536D01*
X0075436Y0048002D01*
X0073880Y0046446D01*
G37*
G36*
X0076107Y0048673D02*
X0072573Y0052207D01*
X0074129Y0053763D01*
X0077663Y0050229D01*
X0076107Y0048673D01*
G37*
G36*
X0078334Y0050900D02*
X0074800Y0054434D01*
X0076356Y0055990D01*
X0079890Y0052456D01*
X0078334Y0050900D01*
G37*
G36*
X0054434Y0074800D02*
X0050900Y0078334D01*
X0052456Y0079890D01*
X0055990Y0076356D01*
X0054434Y0074800D01*
G37*
G36*
X0052207Y0072573D02*
X0048673Y0076107D01*
X0050229Y0077663D01*
X0053763Y0074129D01*
X0052207Y0072573D01*
G37*
G36*
X0049980Y0070346D02*
X0046446Y0073880D01*
X0048002Y0075436D01*
X0051536Y0071902D01*
X0049980Y0070346D01*
G37*
G36*
X0047752Y0068119D02*
X0044218Y0071653D01*
X0045774Y0073209D01*
X0049308Y0069675D01*
X0047752Y0068119D01*
G37*
G36*
X0045525Y0065892D02*
X0041991Y0069426D01*
X0043547Y0070982D01*
X0047081Y0067448D01*
X0045525Y0065892D01*
G37*
G36*
X0043298Y0063664D02*
X0039764Y0067198D01*
X0041320Y0068754D01*
X0044854Y0065220D01*
X0043298Y0063664D01*
G37*
G36*
X0041071Y0061437D02*
X0037537Y0064971D01*
X0039093Y0066527D01*
X0042627Y0062993D01*
X0041071Y0061437D01*
G37*
G36*
X0038844Y0059210D02*
X0035310Y0062744D01*
X0036866Y0064300D01*
X0040400Y0060766D01*
X0038844Y0059210D01*
G37*
D20*
G36*
X0043547Y0044218D02*
X0041991Y0045774D01*
X0045525Y0049308D01*
X0047081Y0047752D01*
X0043547Y0044218D01*
G37*
G36*
X0045774Y0041991D02*
X0044218Y0043547D01*
X0047752Y0047081D01*
X0049308Y0045525D01*
X0045774Y0041991D01*
G37*
G36*
X0048002Y0039764D02*
X0046446Y0041320D01*
X0049980Y0044854D01*
X0051536Y0043298D01*
X0048002Y0039764D01*
G37*
G36*
X0050229Y0037537D02*
X0048673Y0039093D01*
X0052207Y0042627D01*
X0053763Y0041071D01*
X0050229Y0037537D01*
G37*
G36*
X0052456Y0035310D02*
X0050900Y0036866D01*
X0054434Y0040400D01*
X0055990Y0038844D01*
X0052456Y0035310D01*
G37*
G36*
X0041320Y0046446D02*
X0039764Y0048002D01*
X0043298Y0051536D01*
X0044854Y0049980D01*
X0041320Y0046446D01*
G37*
G36*
X0039093Y0048673D02*
X0037537Y0050229D01*
X0041071Y0053763D01*
X0042627Y0052207D01*
X0039093Y0048673D01*
G37*
G36*
X0036866Y0050900D02*
X0035310Y0052456D01*
X0038844Y0055990D01*
X0040400Y0054434D01*
X0036866Y0050900D01*
G37*
G36*
X0060766Y0074800D02*
X0059210Y0076356D01*
X0062744Y0079890D01*
X0064300Y0078334D01*
X0060766Y0074800D01*
G37*
G36*
X0062993Y0072573D02*
X0061437Y0074129D01*
X0064971Y0077663D01*
X0066527Y0076107D01*
X0062993Y0072573D01*
G37*
G36*
X0065220Y0070346D02*
X0063664Y0071902D01*
X0067198Y0075436D01*
X0068754Y0073880D01*
X0065220Y0070346D01*
G37*
G36*
X0067448Y0068119D02*
X0065892Y0069675D01*
X0069426Y0073209D01*
X0070982Y0071653D01*
X0067448Y0068119D01*
G37*
G36*
X0069675Y0065892D02*
X0068119Y0067448D01*
X0071653Y0070982D01*
X0073209Y0069426D01*
X0069675Y0065892D01*
G37*
G36*
X0071902Y0063664D02*
X0070346Y0065220D01*
X0073880Y0068754D01*
X0075436Y0067198D01*
X0071902Y0063664D01*
G37*
G36*
X0074129Y0061437D02*
X0072573Y0062993D01*
X0076107Y0066527D01*
X0077663Y0064971D01*
X0074129Y0061437D01*
G37*
G36*
X0076356Y0059210D02*
X0074800Y0060766D01*
X0078334Y0064300D01*
X0079890Y0062744D01*
X0076356Y0059210D01*
G37*
D21*
X0083025Y0084022D02*
X0083025Y0086778D01*
X0083025Y0084022D02*
X0080269Y0084022D01*
X0080269Y0086778D01*
X0083025Y0086778D01*
X0083025Y0085202D02*
X0080269Y0085202D01*
X0080269Y0086382D02*
X0083025Y0086382D01*
X0089931Y0086778D02*
X0089931Y0084022D01*
X0087175Y0084022D01*
X0087175Y0086778D01*
X0089931Y0086778D01*
X0089931Y0085202D02*
X0087175Y0085202D01*
X0087175Y0086382D02*
X0089931Y0086382D01*
M02*
