G75*
%MOIN*%
%OFA0B0*%
%FSLAX25Y25*%
%IPPOS*%
%LPD*%
%AMOC8*
5,1,8,0,0,1.08239X$1,22.5*
%
%ADD10C,0.07400*%
%ADD11OC8,0.06000*%
%ADD12R,0.01181X0.03346*%
%ADD13R,0.04055X0.01969*%
%ADD14R,0.04756X0.04756*%
%ADD15R,0.06000X0.06000*%
%ADD16C,0.00400*%
%ADD17C,0.01200*%
%ADD18C,0.02978*%
%ADD19C,0.02000*%
%ADD20C,0.00800*%
%ADD21C,0.01600*%
%ADD22C,0.02400*%
D10*
X0098500Y0049500D03*
X0098500Y0059500D03*
X0098500Y0069500D03*
X0098500Y0079500D03*
X0098500Y0089500D03*
X0098500Y0099500D03*
D11*
X0014700Y0014800D03*
X0014700Y0024800D03*
X0014700Y0034800D03*
X0024700Y0034800D03*
X0024700Y0024800D03*
X0024700Y0014800D03*
X0035400Y0024800D03*
X0035400Y0034800D03*
X0024700Y0044800D03*
X0024700Y0054800D03*
X0024700Y0064800D03*
X0014700Y0064800D03*
X0014700Y0054800D03*
X0014700Y0044800D03*
X0066600Y0024700D03*
X0066600Y0014700D03*
X0076600Y0014700D03*
X0076600Y0024700D03*
X0086600Y0024700D03*
X0086600Y0014700D03*
X0096600Y0014700D03*
X0096600Y0024700D03*
D12*
X0039827Y0089132D03*
X0037858Y0089132D03*
X0035890Y0089132D03*
X0033921Y0089132D03*
X0031953Y0089132D03*
X0029984Y0089132D03*
X0028016Y0089132D03*
X0026047Y0089132D03*
X0024079Y0089132D03*
X0022110Y0089132D03*
X0020142Y0089132D03*
X0018173Y0089132D03*
X0018173Y0095668D03*
X0020142Y0095668D03*
X0022110Y0095668D03*
X0024079Y0095668D03*
X0026047Y0095668D03*
X0028016Y0095668D03*
X0029984Y0095668D03*
X0031953Y0095668D03*
X0033921Y0095668D03*
X0035890Y0095668D03*
X0037858Y0095668D03*
X0039827Y0095668D03*
D13*
G36*
X0042887Y0098377D02*
X0046037Y0095827D01*
X0044799Y0094297D01*
X0041649Y0096847D01*
X0042887Y0098377D01*
G37*
G36*
X0046037Y0088973D02*
X0042887Y0086423D01*
X0041649Y0087953D01*
X0044799Y0090503D01*
X0046037Y0088973D01*
G37*
G36*
X0013201Y0090503D02*
X0016351Y0087953D01*
X0015113Y0086423D01*
X0011963Y0088973D01*
X0013201Y0090503D01*
G37*
G36*
X0016391Y0096808D02*
X0013241Y0094258D01*
X0012003Y0095788D01*
X0015153Y0098338D01*
X0016391Y0096808D01*
G37*
D14*
X0019551Y0100865D03*
X0019551Y0083935D03*
X0038449Y0083935D03*
X0038449Y0100865D03*
D15*
X0035400Y0014800D03*
D16*
X0028500Y0026657D02*
X0026357Y0028800D01*
X0023043Y0028800D01*
X0020700Y0026457D01*
X0020700Y0023143D01*
X0022143Y0021700D01*
X0018772Y0021700D01*
X0017600Y0020528D01*
X0015872Y0018800D01*
X0013043Y0018800D01*
X0011800Y0017557D01*
X0011800Y0022043D01*
X0013043Y0020800D01*
X0016357Y0020800D01*
X0018700Y0023143D01*
X0018700Y0026457D01*
X0016357Y0028800D01*
X0013043Y0028800D01*
X0011800Y0027557D01*
X0011800Y0032043D01*
X0013043Y0030800D01*
X0016357Y0030800D01*
X0018700Y0033143D01*
X0018700Y0035972D01*
X0021700Y0038972D01*
X0021700Y0042143D01*
X0023043Y0040800D01*
X0026357Y0040800D01*
X0028700Y0043143D01*
X0028700Y0046457D01*
X0027443Y0047714D01*
X0028500Y0048772D01*
X0057839Y0078111D01*
X0057995Y0078111D01*
X0058910Y0078490D01*
X0059610Y0079190D01*
X0059989Y0080105D01*
X0059989Y0081095D01*
X0059610Y0082010D01*
X0058910Y0082710D01*
X0057995Y0083089D01*
X0057005Y0083089D01*
X0056090Y0082710D01*
X0055390Y0082010D01*
X0055011Y0081095D01*
X0055011Y0080939D01*
X0028672Y0054600D01*
X0024900Y0054600D01*
X0024900Y0055000D01*
X0024500Y0055000D01*
X0024500Y0059000D01*
X0022960Y0059000D01*
X0020500Y0056540D01*
X0020500Y0055000D01*
X0024500Y0055000D01*
X0024500Y0054600D01*
X0020500Y0054600D01*
X0020500Y0053060D01*
X0021960Y0051600D01*
X0021883Y0051600D01*
X0020712Y0050428D01*
X0018872Y0048588D01*
X0018872Y0048588D01*
X0017720Y0047437D01*
X0016357Y0048800D01*
X0013043Y0048800D01*
X0011800Y0047557D01*
X0011800Y0051760D01*
X0012960Y0050600D01*
X0014500Y0050600D01*
X0014500Y0054600D01*
X0014900Y0054600D01*
X0014900Y0055000D01*
X0014500Y0055000D01*
X0014500Y0059000D01*
X0012960Y0059000D01*
X0011800Y0057840D01*
X0011800Y0062043D01*
X0013043Y0060800D01*
X0016357Y0060800D01*
X0018557Y0063000D01*
X0020843Y0063000D01*
X0023043Y0060800D01*
X0026357Y0060800D01*
X0028700Y0063143D01*
X0028700Y0066457D01*
X0027821Y0067336D01*
X0034486Y0074000D01*
X0043990Y0074000D01*
X0044205Y0073911D01*
X0045195Y0073911D01*
X0045410Y0074000D01*
X0045480Y0074000D01*
X0045529Y0074049D01*
X0046110Y0074290D01*
X0046810Y0074990D01*
X0047051Y0075571D01*
X0056289Y0084809D01*
X0056289Y0088695D01*
X0077883Y0088695D01*
X0080378Y0086200D01*
X0084489Y0086200D01*
X0093389Y0077300D01*
X0094324Y0077300D01*
X0094516Y0076838D01*
X0095838Y0075516D01*
X0097565Y0074800D01*
X0099435Y0074800D01*
X0101162Y0075516D01*
X0102101Y0076454D01*
X0102101Y0072546D01*
X0101162Y0073484D01*
X0099435Y0074200D01*
X0097565Y0074200D01*
X0096703Y0073843D01*
X0090700Y0079846D01*
X0089646Y0080900D01*
X0076820Y0080900D01*
X0076510Y0081210D01*
X0075595Y0081589D01*
X0074605Y0081589D01*
X0073690Y0081210D01*
X0072990Y0080510D01*
X0072611Y0079595D01*
X0072611Y0078605D01*
X0072731Y0078314D01*
X0071989Y0079057D01*
X0071989Y0079495D01*
X0071610Y0080410D01*
X0070910Y0081110D01*
X0069995Y0081489D01*
X0069005Y0081489D01*
X0068090Y0081110D01*
X0067390Y0080410D01*
X0067011Y0079495D01*
X0067011Y0078505D01*
X0067390Y0077590D01*
X0068090Y0076890D01*
X0069005Y0076511D01*
X0069443Y0076511D01*
X0071100Y0074854D01*
X0072154Y0073800D01*
X0086454Y0073800D01*
X0090400Y0069854D01*
X0090400Y0065054D01*
X0091454Y0064000D01*
X0094157Y0061297D01*
X0093800Y0060435D01*
X0093800Y0058565D01*
X0094157Y0057703D01*
X0090641Y0054187D01*
X0089928Y0054900D01*
X0080377Y0064452D01*
X0080710Y0064590D01*
X0081410Y0065290D01*
X0081789Y0066205D01*
X0081789Y0067195D01*
X0081410Y0068110D01*
X0080710Y0068810D01*
X0079795Y0069189D01*
X0078805Y0069189D01*
X0077890Y0068810D01*
X0077780Y0068700D01*
X0063972Y0068700D01*
X0063861Y0068589D01*
X0063705Y0068589D01*
X0063336Y0068436D01*
X0063489Y0068805D01*
X0063489Y0069795D01*
X0063110Y0070710D01*
X0062410Y0071410D01*
X0061495Y0071789D01*
X0060505Y0071789D01*
X0059590Y0071410D01*
X0058890Y0070710D01*
X0058511Y0069795D01*
X0058511Y0068805D01*
X0058890Y0067890D01*
X0058911Y0067869D01*
X0058911Y0063909D01*
X0059031Y0063789D01*
X0058805Y0063789D01*
X0057890Y0063410D01*
X0057190Y0062710D01*
X0056811Y0061795D01*
X0056811Y0060805D01*
X0057190Y0059890D01*
X0057890Y0059190D01*
X0058805Y0058811D01*
X0058961Y0058811D01*
X0059318Y0058453D01*
X0058490Y0058110D01*
X0057790Y0057410D01*
X0057411Y0056495D01*
X0057411Y0055505D01*
X0057700Y0054807D01*
X0057700Y0035828D01*
X0055172Y0033300D01*
X0045412Y0033300D01*
X0043712Y0031600D01*
X0037857Y0031600D01*
X0039400Y0033143D01*
X0039400Y0036457D01*
X0037057Y0038800D01*
X0033743Y0038800D01*
X0031400Y0036457D01*
X0031400Y0033143D01*
X0032943Y0031600D01*
X0031672Y0031600D01*
X0029672Y0029600D01*
X0028500Y0028428D01*
X0028500Y0026657D01*
X0028500Y0026729D02*
X0028428Y0026729D01*
X0028500Y0027127D02*
X0028030Y0027127D01*
X0027631Y0027526D02*
X0028500Y0027526D01*
X0028500Y0027924D02*
X0027233Y0027924D01*
X0026834Y0028323D02*
X0028500Y0028323D01*
X0028793Y0028721D02*
X0026436Y0028721D01*
X0026357Y0030800D02*
X0028700Y0033143D01*
X0028700Y0036457D01*
X0028568Y0036589D01*
X0054089Y0062109D01*
X0054089Y0066761D01*
X0055039Y0067711D01*
X0055195Y0067711D01*
X0056110Y0068090D01*
X0056810Y0068790D01*
X0057189Y0069705D01*
X0057189Y0070695D01*
X0056810Y0071610D01*
X0056110Y0072310D01*
X0055195Y0072689D01*
X0054205Y0072689D01*
X0053290Y0072310D01*
X0052590Y0071610D01*
X0052211Y0070695D01*
X0052211Y0070539D01*
X0051261Y0069589D01*
X0050089Y0068417D01*
X0050089Y0063766D01*
X0025123Y0038800D01*
X0023043Y0038800D01*
X0020700Y0036457D01*
X0020700Y0033143D01*
X0023043Y0030800D01*
X0026357Y0030800D01*
X0026669Y0031112D02*
X0031184Y0031112D01*
X0031582Y0031511D02*
X0027068Y0031511D01*
X0027466Y0031909D02*
X0032634Y0031909D01*
X0032235Y0032308D02*
X0027865Y0032308D01*
X0028263Y0032706D02*
X0031837Y0032706D01*
X0031438Y0033105D02*
X0028662Y0033105D01*
X0028700Y0033503D02*
X0031400Y0033503D01*
X0031400Y0033902D02*
X0028700Y0033902D01*
X0028700Y0034300D02*
X0031400Y0034300D01*
X0031400Y0034699D02*
X0028700Y0034699D01*
X0028700Y0035097D02*
X0031400Y0035097D01*
X0031400Y0035496D02*
X0028700Y0035496D01*
X0028700Y0035894D02*
X0031400Y0035894D01*
X0031400Y0036293D02*
X0028700Y0036293D01*
X0028671Y0036691D02*
X0031634Y0036691D01*
X0032033Y0037090D02*
X0029070Y0037090D01*
X0029468Y0037488D02*
X0032432Y0037488D01*
X0032830Y0037887D02*
X0029867Y0037887D01*
X0030265Y0038285D02*
X0033229Y0038285D01*
X0033627Y0038684D02*
X0030664Y0038684D01*
X0031062Y0039082D02*
X0057700Y0039082D01*
X0057700Y0038684D02*
X0037173Y0038684D01*
X0037571Y0038285D02*
X0057700Y0038285D01*
X0057700Y0037887D02*
X0037970Y0037887D01*
X0038368Y0037488D02*
X0057700Y0037488D01*
X0057700Y0037090D02*
X0038767Y0037090D01*
X0039166Y0036691D02*
X0057700Y0036691D01*
X0057700Y0036293D02*
X0039400Y0036293D01*
X0039400Y0035894D02*
X0057700Y0035894D01*
X0057367Y0035496D02*
X0039400Y0035496D01*
X0039400Y0035097D02*
X0056969Y0035097D01*
X0056570Y0034699D02*
X0039400Y0034699D01*
X0039400Y0034300D02*
X0056172Y0034300D01*
X0055773Y0033902D02*
X0039400Y0033902D01*
X0039400Y0033503D02*
X0055375Y0033503D01*
X0057700Y0039481D02*
X0031461Y0039481D01*
X0031859Y0039879D02*
X0057700Y0039879D01*
X0057700Y0040278D02*
X0032258Y0040278D01*
X0032656Y0040676D02*
X0057700Y0040676D01*
X0057700Y0041075D02*
X0033055Y0041075D01*
X0033453Y0041473D02*
X0057700Y0041473D01*
X0057700Y0041872D02*
X0033852Y0041872D01*
X0034250Y0042270D02*
X0057700Y0042270D01*
X0057700Y0042669D02*
X0034649Y0042669D01*
X0035047Y0043068D02*
X0057700Y0043068D01*
X0057700Y0043466D02*
X0035446Y0043466D01*
X0035844Y0043865D02*
X0057700Y0043865D01*
X0057700Y0044263D02*
X0036243Y0044263D01*
X0036641Y0044662D02*
X0057700Y0044662D01*
X0057700Y0045060D02*
X0037040Y0045060D01*
X0037438Y0045459D02*
X0057700Y0045459D01*
X0057700Y0045857D02*
X0037837Y0045857D01*
X0038235Y0046256D02*
X0057700Y0046256D01*
X0057700Y0046654D02*
X0038634Y0046654D01*
X0039032Y0047053D02*
X0057700Y0047053D01*
X0057700Y0047451D02*
X0039431Y0047451D01*
X0039829Y0047850D02*
X0057700Y0047850D01*
X0057700Y0048248D02*
X0040228Y0048248D01*
X0040626Y0048647D02*
X0057700Y0048647D01*
X0057700Y0049045D02*
X0041025Y0049045D01*
X0041423Y0049444D02*
X0057700Y0049444D01*
X0057700Y0049842D02*
X0041822Y0049842D01*
X0042220Y0050241D02*
X0057700Y0050241D01*
X0057700Y0050639D02*
X0042619Y0050639D01*
X0043017Y0051038D02*
X0057700Y0051038D01*
X0057700Y0051436D02*
X0043416Y0051436D01*
X0043815Y0051835D02*
X0057700Y0051835D01*
X0057700Y0052233D02*
X0044213Y0052233D01*
X0044612Y0052632D02*
X0057700Y0052632D01*
X0057700Y0053030D02*
X0045010Y0053030D01*
X0045409Y0053429D02*
X0057700Y0053429D01*
X0057700Y0053827D02*
X0045807Y0053827D01*
X0046206Y0054226D02*
X0057700Y0054226D01*
X0057700Y0054624D02*
X0046604Y0054624D01*
X0047003Y0055023D02*
X0057611Y0055023D01*
X0057446Y0055421D02*
X0047401Y0055421D01*
X0047800Y0055820D02*
X0057411Y0055820D01*
X0057411Y0056218D02*
X0048198Y0056218D01*
X0048597Y0056617D02*
X0057461Y0056617D01*
X0057627Y0057015D02*
X0048995Y0057015D01*
X0049394Y0057414D02*
X0057794Y0057414D01*
X0058192Y0057812D02*
X0049792Y0057812D01*
X0050191Y0058211D02*
X0058734Y0058211D01*
X0059162Y0058609D02*
X0050589Y0058609D01*
X0050988Y0059008D02*
X0058329Y0059008D01*
X0057674Y0059406D02*
X0051386Y0059406D01*
X0051785Y0059805D02*
X0057275Y0059805D01*
X0057060Y0060203D02*
X0052183Y0060203D01*
X0052582Y0060602D02*
X0056895Y0060602D01*
X0056811Y0061001D02*
X0052980Y0061001D01*
X0053379Y0061399D02*
X0056811Y0061399D01*
X0056812Y0061798D02*
X0053777Y0061798D01*
X0054089Y0062196D02*
X0056977Y0062196D01*
X0057142Y0062595D02*
X0054089Y0062595D01*
X0054089Y0062993D02*
X0057473Y0062993D01*
X0057872Y0063392D02*
X0054089Y0063392D01*
X0054089Y0063790D02*
X0059030Y0063790D01*
X0058911Y0064189D02*
X0054089Y0064189D01*
X0054089Y0064587D02*
X0058911Y0064587D01*
X0058911Y0064986D02*
X0054089Y0064986D01*
X0054089Y0065384D02*
X0058911Y0065384D01*
X0058911Y0065783D02*
X0054089Y0065783D01*
X0054089Y0066181D02*
X0058911Y0066181D01*
X0058911Y0066580D02*
X0054089Y0066580D01*
X0054307Y0066978D02*
X0058911Y0066978D01*
X0058911Y0067377D02*
X0054705Y0067377D01*
X0055350Y0067775D02*
X0058911Y0067775D01*
X0058772Y0068174D02*
X0056194Y0068174D01*
X0056592Y0068572D02*
X0058607Y0068572D01*
X0058511Y0068971D02*
X0056885Y0068971D01*
X0057050Y0069369D02*
X0058511Y0069369D01*
X0058511Y0069768D02*
X0057189Y0069768D01*
X0057189Y0070166D02*
X0058665Y0070166D01*
X0058830Y0070565D02*
X0057189Y0070565D01*
X0057078Y0070963D02*
X0059143Y0070963D01*
X0059542Y0071362D02*
X0056913Y0071362D01*
X0056660Y0071760D02*
X0060436Y0071760D01*
X0061564Y0071760D02*
X0088494Y0071760D01*
X0088893Y0071362D02*
X0062458Y0071362D01*
X0062857Y0070963D02*
X0089291Y0070963D01*
X0089690Y0070565D02*
X0063170Y0070565D01*
X0063335Y0070166D02*
X0090088Y0070166D01*
X0090400Y0069768D02*
X0063489Y0069768D01*
X0063489Y0069369D02*
X0090400Y0069369D01*
X0090400Y0068971D02*
X0080322Y0068971D01*
X0080948Y0068572D02*
X0090400Y0068572D01*
X0090400Y0068174D02*
X0081346Y0068174D01*
X0081549Y0067775D02*
X0090400Y0067775D01*
X0090400Y0067377D02*
X0081714Y0067377D01*
X0081789Y0066978D02*
X0090400Y0066978D01*
X0090400Y0066580D02*
X0081789Y0066580D01*
X0081779Y0066181D02*
X0090400Y0066181D01*
X0090400Y0065783D02*
X0081614Y0065783D01*
X0081449Y0065384D02*
X0090400Y0065384D01*
X0090469Y0064986D02*
X0081106Y0064986D01*
X0080703Y0064587D02*
X0090867Y0064587D01*
X0091266Y0064189D02*
X0080640Y0064189D01*
X0081038Y0063790D02*
X0091664Y0063790D01*
X0092063Y0063392D02*
X0081437Y0063392D01*
X0081835Y0062993D02*
X0092461Y0062993D01*
X0092860Y0062595D02*
X0082234Y0062595D01*
X0082632Y0062196D02*
X0093258Y0062196D01*
X0093657Y0061798D02*
X0083031Y0061798D01*
X0083429Y0061399D02*
X0094055Y0061399D01*
X0094034Y0061001D02*
X0083828Y0061001D01*
X0084226Y0060602D02*
X0093869Y0060602D01*
X0093800Y0060203D02*
X0084625Y0060203D01*
X0085023Y0059805D02*
X0093800Y0059805D01*
X0093800Y0059406D02*
X0085422Y0059406D01*
X0085820Y0059008D02*
X0093800Y0059008D01*
X0093800Y0058609D02*
X0086219Y0058609D01*
X0086617Y0058211D02*
X0093947Y0058211D01*
X0094112Y0057812D02*
X0087016Y0057812D01*
X0087414Y0057414D02*
X0093868Y0057414D01*
X0093470Y0057015D02*
X0087813Y0057015D01*
X0088212Y0056617D02*
X0093071Y0056617D01*
X0092673Y0056218D02*
X0088610Y0056218D01*
X0089009Y0055820D02*
X0092274Y0055820D01*
X0091876Y0055421D02*
X0089407Y0055421D01*
X0089806Y0055023D02*
X0091477Y0055023D01*
X0091079Y0054624D02*
X0090204Y0054624D01*
X0090603Y0054226D02*
X0090680Y0054226D01*
X0093500Y0051954D02*
X0096703Y0055157D01*
X0097565Y0054800D01*
X0099435Y0054800D01*
X0101162Y0055516D01*
X0102101Y0056454D01*
X0102101Y0052546D01*
X0101162Y0053484D01*
X0099435Y0054200D01*
X0097565Y0054200D01*
X0095838Y0053484D01*
X0094516Y0052162D01*
X0093800Y0050435D01*
X0093800Y0048565D01*
X0094516Y0046838D01*
X0095838Y0045516D01*
X0097565Y0044800D01*
X0099435Y0044800D01*
X0101162Y0045516D01*
X0102101Y0046454D01*
X0102101Y0011800D01*
X0099357Y0011800D01*
X0100600Y0013043D01*
X0100600Y0016357D01*
X0098257Y0018700D01*
X0096446Y0018700D01*
X0093500Y0021646D01*
X0093500Y0021860D01*
X0094860Y0020500D01*
X0096400Y0020500D01*
X0096400Y0024500D01*
X0096800Y0024500D01*
X0096800Y0024900D01*
X0100800Y0024900D01*
X0100800Y0026440D01*
X0098340Y0028900D01*
X0096800Y0028900D01*
X0096800Y0024900D01*
X0096400Y0024900D01*
X0096400Y0028900D01*
X0094860Y0028900D01*
X0093500Y0027540D01*
X0093500Y0051954D01*
X0093500Y0051835D02*
X0094380Y0051835D01*
X0094215Y0051436D02*
X0093500Y0051436D01*
X0093500Y0051038D02*
X0094050Y0051038D01*
X0093885Y0050639D02*
X0093500Y0050639D01*
X0093500Y0050241D02*
X0093800Y0050241D01*
X0093800Y0049842D02*
X0093500Y0049842D01*
X0093500Y0049444D02*
X0093800Y0049444D01*
X0093800Y0049045D02*
X0093500Y0049045D01*
X0093500Y0048647D02*
X0093800Y0048647D01*
X0093931Y0048248D02*
X0093500Y0048248D01*
X0093500Y0047850D02*
X0094096Y0047850D01*
X0094261Y0047451D02*
X0093500Y0047451D01*
X0093500Y0047053D02*
X0094426Y0047053D01*
X0094699Y0046654D02*
X0093500Y0046654D01*
X0093500Y0046256D02*
X0095098Y0046256D01*
X0095496Y0045857D02*
X0093500Y0045857D01*
X0093500Y0045459D02*
X0095975Y0045459D01*
X0096937Y0045060D02*
X0093500Y0045060D01*
X0093500Y0044662D02*
X0102101Y0044662D01*
X0102101Y0045060D02*
X0100063Y0045060D01*
X0101025Y0045459D02*
X0102101Y0045459D01*
X0102101Y0045857D02*
X0101504Y0045857D01*
X0101902Y0046256D02*
X0102101Y0046256D01*
X0102101Y0044263D02*
X0093500Y0044263D01*
X0093500Y0043865D02*
X0102101Y0043865D01*
X0102101Y0043466D02*
X0093500Y0043466D01*
X0093500Y0043068D02*
X0102101Y0043068D01*
X0102101Y0042669D02*
X0093500Y0042669D01*
X0093500Y0042270D02*
X0102101Y0042270D01*
X0102101Y0041872D02*
X0093500Y0041872D01*
X0093500Y0041473D02*
X0102101Y0041473D01*
X0102101Y0041075D02*
X0093500Y0041075D01*
X0093500Y0040676D02*
X0102101Y0040676D01*
X0102101Y0040278D02*
X0093500Y0040278D01*
X0093500Y0039879D02*
X0102101Y0039879D01*
X0102101Y0039481D02*
X0093500Y0039481D01*
X0093500Y0039082D02*
X0102101Y0039082D01*
X0102101Y0038684D02*
X0093500Y0038684D01*
X0093500Y0038285D02*
X0102101Y0038285D01*
X0102101Y0037887D02*
X0093500Y0037887D01*
X0093500Y0037488D02*
X0102101Y0037488D01*
X0102101Y0037090D02*
X0093500Y0037090D01*
X0093500Y0036691D02*
X0102101Y0036691D01*
X0102101Y0036293D02*
X0093500Y0036293D01*
X0093500Y0035894D02*
X0102101Y0035894D01*
X0102101Y0035496D02*
X0093500Y0035496D01*
X0093500Y0035097D02*
X0102101Y0035097D01*
X0102101Y0034699D02*
X0093500Y0034699D01*
X0093500Y0034300D02*
X0102101Y0034300D01*
X0102101Y0033902D02*
X0093500Y0033902D01*
X0093500Y0033503D02*
X0102101Y0033503D01*
X0102101Y0033105D02*
X0093500Y0033105D01*
X0093500Y0032706D02*
X0102101Y0032706D01*
X0102101Y0032308D02*
X0093500Y0032308D01*
X0093500Y0031909D02*
X0102101Y0031909D01*
X0102101Y0031511D02*
X0093500Y0031511D01*
X0093500Y0031112D02*
X0102101Y0031112D01*
X0102101Y0030714D02*
X0093500Y0030714D01*
X0093500Y0030315D02*
X0102101Y0030315D01*
X0102101Y0029917D02*
X0093500Y0029917D01*
X0093500Y0029518D02*
X0102101Y0029518D01*
X0102101Y0029120D02*
X0093500Y0029120D01*
X0093500Y0028721D02*
X0094681Y0028721D01*
X0094283Y0028323D02*
X0093500Y0028323D01*
X0093500Y0027924D02*
X0093884Y0027924D01*
X0096400Y0027924D02*
X0096800Y0027924D01*
X0096800Y0027526D02*
X0096400Y0027526D01*
X0096400Y0027127D02*
X0096800Y0027127D01*
X0096800Y0026729D02*
X0096400Y0026729D01*
X0096400Y0026330D02*
X0096800Y0026330D01*
X0096800Y0025932D02*
X0096400Y0025932D01*
X0096400Y0025533D02*
X0096800Y0025533D01*
X0096800Y0025134D02*
X0096400Y0025134D01*
X0096800Y0024736D02*
X0102101Y0024736D01*
X0102101Y0025134D02*
X0100800Y0025134D01*
X0100800Y0025533D02*
X0102101Y0025533D01*
X0102101Y0025932D02*
X0100800Y0025932D01*
X0100800Y0026330D02*
X0102101Y0026330D01*
X0102101Y0026729D02*
X0100511Y0026729D01*
X0100113Y0027127D02*
X0102101Y0027127D01*
X0102101Y0027526D02*
X0099714Y0027526D01*
X0099316Y0027924D02*
X0102101Y0027924D01*
X0102101Y0028323D02*
X0098917Y0028323D01*
X0098519Y0028721D02*
X0102101Y0028721D01*
X0102101Y0024337D02*
X0100800Y0024337D01*
X0100800Y0024500D02*
X0096800Y0024500D01*
X0096800Y0020500D01*
X0098340Y0020500D01*
X0100800Y0022960D01*
X0100800Y0024500D01*
X0100800Y0023939D02*
X0102101Y0023939D01*
X0102101Y0023540D02*
X0100800Y0023540D01*
X0100800Y0023142D02*
X0102101Y0023142D01*
X0102101Y0022743D02*
X0100583Y0022743D01*
X0100185Y0022345D02*
X0102101Y0022345D01*
X0102101Y0021946D02*
X0099786Y0021946D01*
X0099388Y0021548D02*
X0102101Y0021548D01*
X0102101Y0021149D02*
X0098989Y0021149D01*
X0098591Y0020751D02*
X0102101Y0020751D01*
X0102101Y0020352D02*
X0094793Y0020352D01*
X0094609Y0020751D02*
X0094395Y0020751D01*
X0094211Y0021149D02*
X0093996Y0021149D01*
X0093812Y0021548D02*
X0093598Y0021548D01*
X0095192Y0019954D02*
X0102101Y0019954D01*
X0102101Y0019555D02*
X0095590Y0019555D01*
X0095989Y0019157D02*
X0102101Y0019157D01*
X0102101Y0018758D02*
X0096387Y0018758D01*
X0096400Y0020751D02*
X0096800Y0020751D01*
X0096800Y0021149D02*
X0096400Y0021149D01*
X0096400Y0021548D02*
X0096800Y0021548D01*
X0096800Y0021946D02*
X0096400Y0021946D01*
X0096400Y0022345D02*
X0096800Y0022345D01*
X0096800Y0022743D02*
X0096400Y0022743D01*
X0096400Y0023142D02*
X0096800Y0023142D01*
X0096800Y0023540D02*
X0096400Y0023540D01*
X0096400Y0023939D02*
X0096800Y0023939D01*
X0096800Y0024337D02*
X0096400Y0024337D01*
X0096400Y0028323D02*
X0096800Y0028323D01*
X0096800Y0028721D02*
X0096400Y0028721D01*
X0098597Y0018360D02*
X0102101Y0018360D01*
X0102101Y0017961D02*
X0098996Y0017961D01*
X0099394Y0017563D02*
X0102101Y0017563D01*
X0102101Y0017164D02*
X0099793Y0017164D01*
X0100191Y0016766D02*
X0102101Y0016766D01*
X0102101Y0016367D02*
X0100590Y0016367D01*
X0100600Y0015969D02*
X0102101Y0015969D01*
X0102101Y0015570D02*
X0100600Y0015570D01*
X0100600Y0015172D02*
X0102101Y0015172D01*
X0102101Y0014773D02*
X0100600Y0014773D01*
X0100600Y0014375D02*
X0102101Y0014375D01*
X0102101Y0013976D02*
X0100600Y0013976D01*
X0100600Y0013578D02*
X0102101Y0013578D01*
X0102101Y0013179D02*
X0100600Y0013179D01*
X0100337Y0012781D02*
X0102101Y0012781D01*
X0102101Y0012382D02*
X0099939Y0012382D01*
X0099540Y0011984D02*
X0102101Y0011984D01*
X0081572Y0034700D02*
X0072046Y0034700D01*
X0071035Y0034719D01*
X0070103Y0034737D01*
X0070103Y0034737D01*
X0070103Y0034737D01*
X0070065Y0034700D01*
X0068820Y0034700D01*
X0068610Y0034910D01*
X0067695Y0035289D01*
X0066705Y0035289D01*
X0065790Y0034910D01*
X0065090Y0034210D01*
X0065000Y0033993D01*
X0065000Y0051280D01*
X0065110Y0051390D01*
X0065489Y0052305D01*
X0065489Y0053295D01*
X0065110Y0054210D01*
X0064410Y0054910D01*
X0063495Y0055289D01*
X0062505Y0055289D01*
X0062257Y0055186D01*
X0062389Y0055505D01*
X0062389Y0056495D01*
X0062010Y0057410D01*
X0061409Y0058011D01*
X0070361Y0058011D01*
X0072000Y0056372D01*
X0072000Y0053472D01*
X0073172Y0052300D01*
X0077111Y0048361D01*
X0077111Y0048205D01*
X0077490Y0047290D01*
X0078190Y0046590D01*
X0079105Y0046211D01*
X0080095Y0046211D01*
X0081010Y0046590D01*
X0081710Y0047290D01*
X0082089Y0048205D01*
X0082089Y0049195D01*
X0081710Y0050110D01*
X0081010Y0050810D01*
X0080095Y0051189D01*
X0079939Y0051189D01*
X0076000Y0055128D01*
X0076000Y0058028D01*
X0073189Y0060839D01*
X0073028Y0061000D01*
X0078172Y0061000D01*
X0079383Y0059789D01*
X0078905Y0059789D01*
X0077990Y0059410D01*
X0077290Y0058710D01*
X0076911Y0057795D01*
X0076911Y0056805D01*
X0077290Y0055890D01*
X0077990Y0055190D01*
X0078905Y0054811D01*
X0079061Y0054811D01*
X0084000Y0049872D01*
X0084000Y0037128D01*
X0081572Y0034700D01*
X0081969Y0035097D02*
X0068158Y0035097D01*
X0066242Y0035097D02*
X0065000Y0035097D01*
X0065000Y0034699D02*
X0065579Y0034699D01*
X0065180Y0034300D02*
X0065000Y0034300D01*
X0065000Y0035496D02*
X0082367Y0035496D01*
X0082766Y0035894D02*
X0065000Y0035894D01*
X0065000Y0036293D02*
X0083164Y0036293D01*
X0083563Y0036691D02*
X0065000Y0036691D01*
X0065000Y0037090D02*
X0083961Y0037090D01*
X0084000Y0037488D02*
X0065000Y0037488D01*
X0065000Y0037887D02*
X0084000Y0037887D01*
X0084000Y0038285D02*
X0065000Y0038285D01*
X0065000Y0038684D02*
X0084000Y0038684D01*
X0084000Y0039082D02*
X0065000Y0039082D01*
X0065000Y0039481D02*
X0084000Y0039481D01*
X0084000Y0039879D02*
X0065000Y0039879D01*
X0065000Y0040278D02*
X0084000Y0040278D01*
X0084000Y0040676D02*
X0065000Y0040676D01*
X0065000Y0041075D02*
X0084000Y0041075D01*
X0084000Y0041473D02*
X0065000Y0041473D01*
X0065000Y0041872D02*
X0084000Y0041872D01*
X0084000Y0042270D02*
X0065000Y0042270D01*
X0065000Y0042669D02*
X0084000Y0042669D01*
X0084000Y0043068D02*
X0065000Y0043068D01*
X0065000Y0043466D02*
X0084000Y0043466D01*
X0084000Y0043865D02*
X0065000Y0043865D01*
X0065000Y0044263D02*
X0084000Y0044263D01*
X0084000Y0044662D02*
X0065000Y0044662D01*
X0065000Y0045060D02*
X0084000Y0045060D01*
X0084000Y0045459D02*
X0065000Y0045459D01*
X0065000Y0045857D02*
X0084000Y0045857D01*
X0084000Y0046256D02*
X0080203Y0046256D01*
X0081074Y0046654D02*
X0084000Y0046654D01*
X0084000Y0047053D02*
X0081473Y0047053D01*
X0081777Y0047451D02*
X0084000Y0047451D01*
X0084000Y0047850D02*
X0081942Y0047850D01*
X0082089Y0048248D02*
X0084000Y0048248D01*
X0084000Y0048647D02*
X0082089Y0048647D01*
X0082089Y0049045D02*
X0084000Y0049045D01*
X0084000Y0049444D02*
X0081986Y0049444D01*
X0081821Y0049842D02*
X0084000Y0049842D01*
X0083631Y0050241D02*
X0081579Y0050241D01*
X0081181Y0050639D02*
X0083232Y0050639D01*
X0082834Y0051038D02*
X0080460Y0051038D01*
X0079692Y0051436D02*
X0082435Y0051436D01*
X0082037Y0051835D02*
X0079294Y0051835D01*
X0078895Y0052233D02*
X0081638Y0052233D01*
X0081240Y0052632D02*
X0078497Y0052632D01*
X0078098Y0053030D02*
X0080841Y0053030D01*
X0080443Y0053429D02*
X0077700Y0053429D01*
X0077301Y0053827D02*
X0080044Y0053827D01*
X0079646Y0054226D02*
X0076903Y0054226D01*
X0076504Y0054624D02*
X0079247Y0054624D01*
X0078394Y0055023D02*
X0076106Y0055023D01*
X0076000Y0055421D02*
X0077759Y0055421D01*
X0077360Y0055820D02*
X0076000Y0055820D01*
X0076000Y0056218D02*
X0077154Y0056218D01*
X0076989Y0056617D02*
X0076000Y0056617D01*
X0076000Y0057015D02*
X0076911Y0057015D01*
X0076911Y0057414D02*
X0076000Y0057414D01*
X0076000Y0057812D02*
X0076918Y0057812D01*
X0077083Y0058211D02*
X0075817Y0058211D01*
X0075419Y0058609D02*
X0077248Y0058609D01*
X0077588Y0059008D02*
X0075020Y0059008D01*
X0074622Y0059406D02*
X0077987Y0059406D01*
X0078968Y0060203D02*
X0073825Y0060203D01*
X0074223Y0059805D02*
X0079367Y0059805D01*
X0078570Y0060602D02*
X0073426Y0060602D01*
X0070559Y0057812D02*
X0061607Y0057812D01*
X0062006Y0057414D02*
X0070958Y0057414D01*
X0071356Y0057015D02*
X0062173Y0057015D01*
X0062339Y0056617D02*
X0071755Y0056617D01*
X0072000Y0056218D02*
X0062389Y0056218D01*
X0062389Y0055820D02*
X0072000Y0055820D01*
X0072000Y0055421D02*
X0062354Y0055421D01*
X0064138Y0055023D02*
X0072000Y0055023D01*
X0072000Y0054624D02*
X0064696Y0054624D01*
X0065094Y0054226D02*
X0072000Y0054226D01*
X0072000Y0053827D02*
X0065269Y0053827D01*
X0065434Y0053429D02*
X0072043Y0053429D01*
X0072441Y0053030D02*
X0065489Y0053030D01*
X0065489Y0052632D02*
X0072840Y0052632D01*
X0073238Y0052233D02*
X0065459Y0052233D01*
X0065294Y0051835D02*
X0073637Y0051835D01*
X0074035Y0051436D02*
X0065129Y0051436D01*
X0065000Y0051038D02*
X0074434Y0051038D01*
X0074832Y0050639D02*
X0065000Y0050639D01*
X0065000Y0050241D02*
X0075231Y0050241D01*
X0075629Y0049842D02*
X0065000Y0049842D01*
X0065000Y0049444D02*
X0076028Y0049444D01*
X0076426Y0049045D02*
X0065000Y0049045D01*
X0065000Y0048647D02*
X0076825Y0048647D01*
X0077111Y0048248D02*
X0065000Y0048248D01*
X0065000Y0047850D02*
X0077258Y0047850D01*
X0077423Y0047451D02*
X0065000Y0047451D01*
X0065000Y0047053D02*
X0077727Y0047053D01*
X0078126Y0046654D02*
X0065000Y0046654D01*
X0065000Y0046256D02*
X0078997Y0046256D01*
X0093779Y0052233D02*
X0094586Y0052233D01*
X0094985Y0052632D02*
X0094177Y0052632D01*
X0094576Y0053030D02*
X0095383Y0053030D01*
X0095782Y0053429D02*
X0094974Y0053429D01*
X0095373Y0053827D02*
X0096665Y0053827D01*
X0096170Y0054624D02*
X0102101Y0054624D01*
X0102101Y0054226D02*
X0095771Y0054226D01*
X0096568Y0055023D02*
X0097027Y0055023D01*
X0099973Y0055023D02*
X0102101Y0055023D01*
X0102101Y0055421D02*
X0100935Y0055421D01*
X0101467Y0055820D02*
X0102101Y0055820D01*
X0102101Y0056218D02*
X0101865Y0056218D01*
X0102101Y0053827D02*
X0100335Y0053827D01*
X0101218Y0053429D02*
X0102101Y0053429D01*
X0102101Y0053030D02*
X0101616Y0053030D01*
X0102015Y0052632D02*
X0102101Y0052632D01*
X0102089Y0072557D02*
X0102101Y0072557D01*
X0102101Y0072956D02*
X0101691Y0072956D01*
X0101292Y0073354D02*
X0102101Y0073354D01*
X0102101Y0073753D02*
X0100514Y0073753D01*
X0099552Y0074151D02*
X0102101Y0074151D01*
X0102101Y0074550D02*
X0095996Y0074550D01*
X0096394Y0074151D02*
X0097448Y0074151D01*
X0097207Y0074948D02*
X0095597Y0074948D01*
X0095199Y0075347D02*
X0096245Y0075347D01*
X0095608Y0075745D02*
X0094800Y0075745D01*
X0094402Y0076144D02*
X0095209Y0076144D01*
X0094811Y0076542D02*
X0094003Y0076542D01*
X0093605Y0076941D02*
X0094473Y0076941D01*
X0093349Y0077339D02*
X0093206Y0077339D01*
X0092951Y0077738D02*
X0092808Y0077738D01*
X0092552Y0078137D02*
X0092409Y0078137D01*
X0092154Y0078535D02*
X0092011Y0078535D01*
X0091755Y0078934D02*
X0091612Y0078934D01*
X0091357Y0079332D02*
X0091214Y0079332D01*
X0090958Y0079731D02*
X0090815Y0079731D01*
X0090560Y0080129D02*
X0090417Y0080129D01*
X0090161Y0080528D02*
X0090018Y0080528D01*
X0089763Y0080926D02*
X0076794Y0080926D01*
X0076233Y0081325D02*
X0089364Y0081325D01*
X0088966Y0081723D02*
X0059729Y0081723D01*
X0059894Y0081325D02*
X0068608Y0081325D01*
X0067906Y0080926D02*
X0059989Y0080926D01*
X0059989Y0080528D02*
X0067508Y0080528D01*
X0067274Y0080129D02*
X0059989Y0080129D01*
X0059834Y0079731D02*
X0067109Y0079731D01*
X0067011Y0079332D02*
X0059669Y0079332D01*
X0059353Y0078934D02*
X0067011Y0078934D01*
X0067011Y0078535D02*
X0058955Y0078535D01*
X0058057Y0078137D02*
X0067164Y0078137D01*
X0067329Y0077738D02*
X0057466Y0077738D01*
X0057068Y0077339D02*
X0067641Y0077339D01*
X0068039Y0076941D02*
X0056669Y0076941D01*
X0056271Y0076542D02*
X0068929Y0076542D01*
X0069810Y0076144D02*
X0055872Y0076144D01*
X0055474Y0075745D02*
X0070209Y0075745D01*
X0070607Y0075347D02*
X0055075Y0075347D01*
X0054677Y0074948D02*
X0071006Y0074948D01*
X0071405Y0074550D02*
X0054278Y0074550D01*
X0053880Y0074151D02*
X0071803Y0074151D01*
X0072511Y0078535D02*
X0072640Y0078535D01*
X0072611Y0078934D02*
X0072112Y0078934D01*
X0071989Y0079332D02*
X0072611Y0079332D01*
X0072667Y0079731D02*
X0071891Y0079731D01*
X0071726Y0080129D02*
X0072832Y0080129D01*
X0073008Y0080528D02*
X0071492Y0080528D01*
X0071094Y0080926D02*
X0073406Y0080926D01*
X0073967Y0081325D02*
X0070392Y0081325D01*
X0078080Y0088498D02*
X0056289Y0088498D01*
X0056289Y0088099D02*
X0078479Y0088099D01*
X0078877Y0087701D02*
X0056289Y0087701D01*
X0056289Y0087302D02*
X0079276Y0087302D01*
X0079674Y0086904D02*
X0056289Y0086904D01*
X0056289Y0086505D02*
X0080073Y0086505D01*
X0084582Y0086107D02*
X0056289Y0086107D01*
X0056289Y0085708D02*
X0084980Y0085708D01*
X0085379Y0085310D02*
X0056289Y0085310D01*
X0056289Y0084911D02*
X0085778Y0084911D01*
X0086176Y0084513D02*
X0055992Y0084513D01*
X0055594Y0084114D02*
X0086575Y0084114D01*
X0086973Y0083716D02*
X0055195Y0083716D01*
X0054797Y0083317D02*
X0087372Y0083317D01*
X0087770Y0082919D02*
X0058406Y0082919D01*
X0059100Y0082520D02*
X0088169Y0082520D01*
X0088567Y0082122D02*
X0059498Y0082122D01*
X0056594Y0082919D02*
X0054398Y0082919D01*
X0054000Y0082520D02*
X0055900Y0082520D01*
X0055502Y0082122D02*
X0053601Y0082122D01*
X0053203Y0081723D02*
X0055271Y0081723D01*
X0055106Y0081325D02*
X0052804Y0081325D01*
X0052406Y0080926D02*
X0054998Y0080926D01*
X0054599Y0080528D02*
X0052007Y0080528D01*
X0051609Y0080129D02*
X0054201Y0080129D01*
X0053802Y0079731D02*
X0051210Y0079731D01*
X0050812Y0079332D02*
X0053404Y0079332D01*
X0053005Y0078934D02*
X0050413Y0078934D01*
X0050015Y0078535D02*
X0052607Y0078535D01*
X0052208Y0078137D02*
X0049616Y0078137D01*
X0049218Y0077738D02*
X0051810Y0077738D01*
X0051411Y0077339D02*
X0048819Y0077339D01*
X0048421Y0076941D02*
X0051013Y0076941D01*
X0050614Y0076542D02*
X0048022Y0076542D01*
X0047624Y0076144D02*
X0050216Y0076144D01*
X0049817Y0075745D02*
X0047225Y0075745D01*
X0046958Y0075347D02*
X0049419Y0075347D01*
X0049020Y0074948D02*
X0046768Y0074948D01*
X0046370Y0074550D02*
X0048621Y0074550D01*
X0048223Y0074151D02*
X0045775Y0074151D01*
X0047027Y0072956D02*
X0033442Y0072956D01*
X0033840Y0073354D02*
X0047426Y0073354D01*
X0047824Y0073753D02*
X0034239Y0073753D01*
X0033043Y0072557D02*
X0046629Y0072557D01*
X0046230Y0072159D02*
X0032645Y0072159D01*
X0032246Y0071760D02*
X0045832Y0071760D01*
X0045433Y0071362D02*
X0031848Y0071362D01*
X0031449Y0070963D02*
X0045035Y0070963D01*
X0044636Y0070565D02*
X0031051Y0070565D01*
X0030652Y0070166D02*
X0044238Y0070166D01*
X0043839Y0069768D02*
X0030254Y0069768D01*
X0029855Y0069369D02*
X0043441Y0069369D01*
X0043042Y0068971D02*
X0029456Y0068971D01*
X0029058Y0068572D02*
X0042644Y0068572D01*
X0042245Y0068174D02*
X0028659Y0068174D01*
X0028261Y0067775D02*
X0041847Y0067775D01*
X0041448Y0067377D02*
X0027862Y0067377D01*
X0028179Y0066978D02*
X0041050Y0066978D01*
X0040651Y0066580D02*
X0028577Y0066580D01*
X0028700Y0066181D02*
X0040253Y0066181D01*
X0039854Y0065783D02*
X0028700Y0065783D01*
X0028700Y0065384D02*
X0039456Y0065384D01*
X0039057Y0064986D02*
X0028700Y0064986D01*
X0028700Y0064587D02*
X0038659Y0064587D01*
X0038260Y0064189D02*
X0028700Y0064189D01*
X0028700Y0063790D02*
X0037862Y0063790D01*
X0037463Y0063392D02*
X0028700Y0063392D01*
X0028550Y0062993D02*
X0037065Y0062993D01*
X0036666Y0062595D02*
X0028151Y0062595D01*
X0027753Y0062196D02*
X0036268Y0062196D01*
X0035869Y0061798D02*
X0027354Y0061798D01*
X0026956Y0061399D02*
X0035471Y0061399D01*
X0035072Y0061001D02*
X0026557Y0061001D01*
X0026440Y0059000D02*
X0024900Y0059000D01*
X0024900Y0055000D01*
X0028900Y0055000D01*
X0028900Y0056540D01*
X0026440Y0059000D01*
X0026830Y0058609D02*
X0032681Y0058609D01*
X0032283Y0058211D02*
X0027229Y0058211D01*
X0027627Y0057812D02*
X0031884Y0057812D01*
X0031485Y0057414D02*
X0028026Y0057414D01*
X0028424Y0057015D02*
X0031087Y0057015D01*
X0030688Y0056617D02*
X0028823Y0056617D01*
X0028900Y0056218D02*
X0030290Y0056218D01*
X0029891Y0055820D02*
X0028900Y0055820D01*
X0028900Y0055421D02*
X0029493Y0055421D01*
X0029094Y0055023D02*
X0028900Y0055023D01*
X0028696Y0054624D02*
X0024900Y0054624D01*
X0024900Y0055023D02*
X0024500Y0055023D01*
X0024500Y0055421D02*
X0024900Y0055421D01*
X0024900Y0055820D02*
X0024500Y0055820D01*
X0024500Y0056218D02*
X0024900Y0056218D01*
X0024900Y0056617D02*
X0024500Y0056617D01*
X0024500Y0057015D02*
X0024900Y0057015D01*
X0024900Y0057414D02*
X0024500Y0057414D01*
X0024500Y0057812D02*
X0024900Y0057812D01*
X0024900Y0058211D02*
X0024500Y0058211D01*
X0024500Y0058609D02*
X0024900Y0058609D01*
X0022570Y0058609D02*
X0016830Y0058609D01*
X0016440Y0059000D02*
X0014900Y0059000D01*
X0014900Y0055000D01*
X0018900Y0055000D01*
X0018900Y0056540D01*
X0016440Y0059000D01*
X0017229Y0058211D02*
X0022171Y0058211D01*
X0021773Y0057812D02*
X0017627Y0057812D01*
X0018026Y0057414D02*
X0021374Y0057414D01*
X0020976Y0057015D02*
X0018424Y0057015D01*
X0018823Y0056617D02*
X0020577Y0056617D01*
X0020500Y0056218D02*
X0018900Y0056218D01*
X0018900Y0055820D02*
X0020500Y0055820D01*
X0020500Y0055421D02*
X0018900Y0055421D01*
X0018900Y0055023D02*
X0020500Y0055023D01*
X0020500Y0054226D02*
X0018900Y0054226D01*
X0018900Y0054600D02*
X0018900Y0053060D01*
X0016440Y0050600D01*
X0014900Y0050600D01*
X0014900Y0054600D01*
X0018900Y0054600D01*
X0018900Y0053827D02*
X0020500Y0053827D01*
X0020500Y0053429D02*
X0018900Y0053429D01*
X0018870Y0053030D02*
X0020530Y0053030D01*
X0020929Y0052632D02*
X0018471Y0052632D01*
X0018073Y0052233D02*
X0021327Y0052233D01*
X0021726Y0051835D02*
X0017674Y0051835D01*
X0017276Y0051436D02*
X0021720Y0051436D01*
X0021321Y0051038D02*
X0016877Y0051038D01*
X0016479Y0050639D02*
X0020923Y0050639D01*
X0020712Y0050428D02*
X0020712Y0050428D01*
X0020524Y0050241D02*
X0011800Y0050241D01*
X0011800Y0050639D02*
X0012921Y0050639D01*
X0012523Y0051038D02*
X0011800Y0051038D01*
X0011800Y0051436D02*
X0012124Y0051436D01*
X0011800Y0049842D02*
X0020126Y0049842D01*
X0019727Y0049444D02*
X0011800Y0049444D01*
X0011800Y0049045D02*
X0019329Y0049045D01*
X0018930Y0048647D02*
X0016510Y0048647D01*
X0016909Y0048248D02*
X0018532Y0048248D01*
X0018133Y0047850D02*
X0017307Y0047850D01*
X0017706Y0047451D02*
X0017734Y0047451D01*
X0014900Y0050639D02*
X0014500Y0050639D01*
X0014500Y0051038D02*
X0014900Y0051038D01*
X0014900Y0051436D02*
X0014500Y0051436D01*
X0014500Y0051835D02*
X0014900Y0051835D01*
X0014900Y0052233D02*
X0014500Y0052233D01*
X0014500Y0052632D02*
X0014900Y0052632D01*
X0014900Y0053030D02*
X0014500Y0053030D01*
X0014500Y0053429D02*
X0014900Y0053429D01*
X0014900Y0053827D02*
X0014500Y0053827D01*
X0014500Y0054226D02*
X0014900Y0054226D01*
X0014900Y0054624D02*
X0024500Y0054624D01*
X0029571Y0049842D02*
X0036165Y0049842D01*
X0035767Y0049444D02*
X0029172Y0049444D01*
X0028774Y0049045D02*
X0035368Y0049045D01*
X0034970Y0048647D02*
X0028375Y0048647D01*
X0027977Y0048248D02*
X0034571Y0048248D01*
X0034173Y0047850D02*
X0027578Y0047850D01*
X0027706Y0047451D02*
X0033774Y0047451D01*
X0033376Y0047053D02*
X0028104Y0047053D01*
X0028503Y0046654D02*
X0032977Y0046654D01*
X0032579Y0046256D02*
X0028700Y0046256D01*
X0028700Y0045857D02*
X0032180Y0045857D01*
X0031781Y0045459D02*
X0028700Y0045459D01*
X0028700Y0045060D02*
X0031383Y0045060D01*
X0030984Y0044662D02*
X0028700Y0044662D01*
X0028700Y0044263D02*
X0030586Y0044263D01*
X0030187Y0043865D02*
X0028700Y0043865D01*
X0028700Y0043466D02*
X0029789Y0043466D01*
X0029390Y0043068D02*
X0028624Y0043068D01*
X0028992Y0042669D02*
X0028226Y0042669D01*
X0028593Y0042270D02*
X0027827Y0042270D01*
X0028195Y0041872D02*
X0027429Y0041872D01*
X0027796Y0041473D02*
X0027030Y0041473D01*
X0027398Y0041075D02*
X0026632Y0041075D01*
X0026999Y0040676D02*
X0021700Y0040676D01*
X0021700Y0040278D02*
X0026601Y0040278D01*
X0026202Y0039879D02*
X0021700Y0039879D01*
X0021700Y0039481D02*
X0025804Y0039481D01*
X0025405Y0039082D02*
X0021700Y0039082D01*
X0021412Y0038684D02*
X0022927Y0038684D01*
X0022529Y0038285D02*
X0021014Y0038285D01*
X0020615Y0037887D02*
X0022130Y0037887D01*
X0021732Y0037488D02*
X0020217Y0037488D01*
X0019818Y0037090D02*
X0021333Y0037090D01*
X0020934Y0036691D02*
X0019420Y0036691D01*
X0019021Y0036293D02*
X0020700Y0036293D01*
X0020700Y0035894D02*
X0018700Y0035894D01*
X0018700Y0035496D02*
X0020700Y0035496D01*
X0020700Y0035097D02*
X0018700Y0035097D01*
X0018700Y0034699D02*
X0020700Y0034699D01*
X0020700Y0034300D02*
X0018700Y0034300D01*
X0018700Y0033902D02*
X0020700Y0033902D01*
X0020700Y0033503D02*
X0018700Y0033503D01*
X0018662Y0033105D02*
X0020738Y0033105D01*
X0021137Y0032706D02*
X0018263Y0032706D01*
X0017865Y0032308D02*
X0021535Y0032308D01*
X0021934Y0031909D02*
X0017466Y0031909D01*
X0017068Y0031511D02*
X0022332Y0031511D01*
X0022731Y0031112D02*
X0016669Y0031112D01*
X0016436Y0028721D02*
X0022964Y0028721D01*
X0022566Y0028323D02*
X0016834Y0028323D01*
X0017233Y0027924D02*
X0022167Y0027924D01*
X0021769Y0027526D02*
X0017631Y0027526D01*
X0018030Y0027127D02*
X0021370Y0027127D01*
X0020972Y0026729D02*
X0018428Y0026729D01*
X0018700Y0026330D02*
X0020700Y0026330D01*
X0020700Y0025932D02*
X0018700Y0025932D01*
X0018700Y0025533D02*
X0020700Y0025533D01*
X0020700Y0025134D02*
X0018700Y0025134D01*
X0018700Y0024736D02*
X0020700Y0024736D01*
X0020700Y0024337D02*
X0018700Y0024337D01*
X0018700Y0023939D02*
X0020700Y0023939D01*
X0020700Y0023540D02*
X0018700Y0023540D01*
X0018699Y0023142D02*
X0020701Y0023142D01*
X0021100Y0022743D02*
X0018300Y0022743D01*
X0017902Y0022345D02*
X0021498Y0022345D01*
X0021897Y0021946D02*
X0017503Y0021946D01*
X0017105Y0021548D02*
X0018619Y0021548D01*
X0018221Y0021149D02*
X0016706Y0021149D01*
X0017424Y0020352D02*
X0011800Y0020352D01*
X0011800Y0019954D02*
X0017025Y0019954D01*
X0016627Y0019555D02*
X0011800Y0019555D01*
X0011800Y0019157D02*
X0016228Y0019157D01*
X0017600Y0020528D02*
X0017600Y0020528D01*
X0017822Y0020751D02*
X0011800Y0020751D01*
X0011800Y0021149D02*
X0012694Y0021149D01*
X0012295Y0021548D02*
X0011800Y0021548D01*
X0011800Y0021946D02*
X0011897Y0021946D01*
X0011800Y0018758D02*
X0013001Y0018758D01*
X0012603Y0018360D02*
X0011800Y0018360D01*
X0011800Y0017961D02*
X0012204Y0017961D01*
X0011806Y0017563D02*
X0011800Y0017563D01*
X0011800Y0027924D02*
X0012167Y0027924D01*
X0011800Y0028323D02*
X0012566Y0028323D01*
X0012964Y0028721D02*
X0011800Y0028721D01*
X0011800Y0029120D02*
X0029191Y0029120D01*
X0029590Y0029518D02*
X0011800Y0029518D01*
X0011800Y0029917D02*
X0029988Y0029917D01*
X0030387Y0030315D02*
X0011800Y0030315D01*
X0011800Y0030714D02*
X0030785Y0030714D01*
X0038166Y0031909D02*
X0044021Y0031909D01*
X0044419Y0032308D02*
X0038565Y0032308D01*
X0038963Y0032706D02*
X0044818Y0032706D01*
X0045216Y0033105D02*
X0039362Y0033105D01*
X0022768Y0041075D02*
X0021700Y0041075D01*
X0021700Y0041473D02*
X0022370Y0041473D01*
X0021971Y0041872D02*
X0021700Y0041872D01*
X0029969Y0050241D02*
X0036564Y0050241D01*
X0036962Y0050639D02*
X0030368Y0050639D01*
X0030766Y0051038D02*
X0037361Y0051038D01*
X0037759Y0051436D02*
X0031165Y0051436D01*
X0031563Y0051835D02*
X0038158Y0051835D01*
X0038556Y0052233D02*
X0031962Y0052233D01*
X0032360Y0052632D02*
X0038955Y0052632D01*
X0039353Y0053030D02*
X0032759Y0053030D01*
X0033157Y0053429D02*
X0039752Y0053429D01*
X0040150Y0053827D02*
X0033556Y0053827D01*
X0033954Y0054226D02*
X0040549Y0054226D01*
X0040947Y0054624D02*
X0034353Y0054624D01*
X0034751Y0055023D02*
X0041346Y0055023D01*
X0041744Y0055421D02*
X0035150Y0055421D01*
X0035548Y0055820D02*
X0042143Y0055820D01*
X0042541Y0056218D02*
X0035947Y0056218D01*
X0036345Y0056617D02*
X0042940Y0056617D01*
X0043338Y0057015D02*
X0036744Y0057015D01*
X0037142Y0057414D02*
X0043737Y0057414D01*
X0044135Y0057812D02*
X0037541Y0057812D01*
X0037939Y0058211D02*
X0044534Y0058211D01*
X0044932Y0058609D02*
X0038338Y0058609D01*
X0038736Y0059008D02*
X0045331Y0059008D01*
X0045729Y0059406D02*
X0039135Y0059406D01*
X0039533Y0059805D02*
X0046128Y0059805D01*
X0046526Y0060203D02*
X0039932Y0060203D01*
X0040330Y0060602D02*
X0046925Y0060602D01*
X0047323Y0061001D02*
X0040729Y0061001D01*
X0041127Y0061399D02*
X0047722Y0061399D01*
X0048120Y0061798D02*
X0041526Y0061798D01*
X0041924Y0062196D02*
X0048519Y0062196D01*
X0048917Y0062595D02*
X0042323Y0062595D01*
X0042721Y0062993D02*
X0049316Y0062993D01*
X0049714Y0063392D02*
X0043120Y0063392D01*
X0043519Y0063790D02*
X0050089Y0063790D01*
X0050089Y0064189D02*
X0043917Y0064189D01*
X0044316Y0064587D02*
X0050089Y0064587D01*
X0050089Y0064986D02*
X0044714Y0064986D01*
X0045113Y0065384D02*
X0050089Y0065384D01*
X0050089Y0065783D02*
X0045511Y0065783D01*
X0045910Y0066181D02*
X0050089Y0066181D01*
X0050089Y0066580D02*
X0046308Y0066580D01*
X0046707Y0066978D02*
X0050089Y0066978D01*
X0050089Y0067377D02*
X0047105Y0067377D01*
X0047504Y0067775D02*
X0050089Y0067775D01*
X0050089Y0068174D02*
X0047902Y0068174D01*
X0048301Y0068572D02*
X0050244Y0068572D01*
X0050642Y0068971D02*
X0048699Y0068971D01*
X0049098Y0069369D02*
X0051041Y0069369D01*
X0051439Y0069768D02*
X0049496Y0069768D01*
X0049895Y0070166D02*
X0051838Y0070166D01*
X0052211Y0070565D02*
X0050293Y0070565D01*
X0050692Y0070963D02*
X0052322Y0070963D01*
X0052487Y0071362D02*
X0051090Y0071362D01*
X0051489Y0071760D02*
X0052740Y0071760D01*
X0053139Y0072159D02*
X0051887Y0072159D01*
X0052286Y0072557D02*
X0053887Y0072557D01*
X0053083Y0073354D02*
X0086900Y0073354D01*
X0087299Y0072956D02*
X0052684Y0072956D01*
X0053481Y0073753D02*
X0086502Y0073753D01*
X0087697Y0072557D02*
X0055513Y0072557D01*
X0056261Y0072159D02*
X0088096Y0072159D01*
X0078278Y0068971D02*
X0063489Y0068971D01*
X0063393Y0068572D02*
X0063665Y0068572D01*
X0046880Y0085708D02*
X0043911Y0085708D01*
X0043519Y0085390D02*
X0045062Y0086640D01*
X0044904Y0086835D01*
X0045289Y0086994D01*
X0045373Y0086891D01*
X0045720Y0087173D01*
X0046923Y0087671D01*
X0048493Y0089240D01*
X0049342Y0091290D01*
X0049342Y0093013D01*
X0052089Y0090266D01*
X0052089Y0089983D01*
X0052289Y0089783D01*
X0052289Y0089160D01*
X0051495Y0089489D01*
X0050505Y0089489D01*
X0049590Y0089110D01*
X0048890Y0088410D01*
X0048511Y0087495D01*
X0048511Y0087339D01*
X0044572Y0083400D01*
X0042872Y0083400D01*
X0041827Y0082355D01*
X0041827Y0085824D01*
X0042053Y0085544D01*
X0042309Y0085358D01*
X0042604Y0085245D01*
X0042918Y0085212D01*
X0043230Y0085262D01*
X0043519Y0085390D01*
X0043338Y0085310D02*
X0046481Y0085310D01*
X0046083Y0084911D02*
X0041827Y0084911D01*
X0041827Y0084513D02*
X0045684Y0084513D01*
X0045286Y0084114D02*
X0041827Y0084114D01*
X0041827Y0083716D02*
X0044887Y0083716D01*
X0042789Y0083317D02*
X0041827Y0083317D01*
X0041827Y0082919D02*
X0042390Y0082919D01*
X0041992Y0082520D02*
X0041827Y0082520D01*
X0041827Y0085310D02*
X0042436Y0085310D01*
X0041920Y0085708D02*
X0041827Y0085708D01*
X0044404Y0086107D02*
X0047278Y0086107D01*
X0047677Y0086505D02*
X0044896Y0086505D01*
X0045071Y0086904D02*
X0045362Y0086904D01*
X0045388Y0086904D02*
X0048075Y0086904D01*
X0048474Y0087302D02*
X0046033Y0087302D01*
X0046953Y0087701D02*
X0048596Y0087701D01*
X0048761Y0088099D02*
X0047351Y0088099D01*
X0047750Y0088498D02*
X0048978Y0088498D01*
X0049376Y0088896D02*
X0048148Y0088896D01*
X0048515Y0089295D02*
X0050036Y0089295D01*
X0048680Y0089693D02*
X0052289Y0089693D01*
X0052289Y0089295D02*
X0051964Y0089295D01*
X0052089Y0090092D02*
X0048845Y0090092D01*
X0049010Y0090490D02*
X0051865Y0090490D01*
X0051466Y0090889D02*
X0049175Y0090889D01*
X0049340Y0091287D02*
X0051068Y0091287D01*
X0050669Y0091686D02*
X0049342Y0091686D01*
X0049342Y0092084D02*
X0050271Y0092084D01*
X0049872Y0092483D02*
X0049342Y0092483D01*
X0049342Y0092881D02*
X0049474Y0092881D01*
X0052341Y0095671D02*
X0077023Y0095671D01*
X0076900Y0095969D02*
X0078091Y0093095D01*
X0054917Y0093095D01*
X0047689Y0100323D01*
X0047689Y0100695D01*
X0047310Y0101610D01*
X0046610Y0102310D01*
X0045695Y0102689D01*
X0044705Y0102689D01*
X0043790Y0102310D01*
X0043090Y0101610D01*
X0042711Y0100695D01*
X0042711Y0099705D01*
X0042766Y0099572D01*
X0042604Y0099555D01*
X0042309Y0099442D01*
X0042053Y0099256D01*
X0041827Y0098976D01*
X0041827Y0103361D01*
X0079264Y0103361D01*
X0078148Y0102245D01*
X0076900Y0099231D01*
X0076900Y0095969D01*
X0076900Y0096070D02*
X0051942Y0096070D01*
X0051544Y0096468D02*
X0076900Y0096468D01*
X0076900Y0096867D02*
X0051145Y0096867D01*
X0050747Y0097265D02*
X0076900Y0097265D01*
X0076900Y0097664D02*
X0050348Y0097664D01*
X0049950Y0098062D02*
X0076900Y0098062D01*
X0076900Y0098461D02*
X0049551Y0098461D01*
X0049153Y0098859D02*
X0076900Y0098859D01*
X0076911Y0099258D02*
X0048754Y0099258D01*
X0048356Y0099656D02*
X0077076Y0099656D01*
X0077241Y0100055D02*
X0047957Y0100055D01*
X0047689Y0100453D02*
X0077406Y0100453D01*
X0077571Y0100852D02*
X0047624Y0100852D01*
X0047459Y0101250D02*
X0077736Y0101250D01*
X0077901Y0101649D02*
X0047271Y0101649D01*
X0046873Y0102047D02*
X0078066Y0102047D01*
X0078349Y0102446D02*
X0046282Y0102446D01*
X0044118Y0102446D02*
X0041827Y0102446D01*
X0041827Y0102844D02*
X0078748Y0102844D01*
X0079146Y0103243D02*
X0041827Y0103243D01*
X0041827Y0102047D02*
X0043527Y0102047D01*
X0043129Y0101649D02*
X0041827Y0101649D01*
X0041827Y0101250D02*
X0042941Y0101250D01*
X0042776Y0100852D02*
X0041827Y0100852D01*
X0041827Y0100453D02*
X0042711Y0100453D01*
X0042711Y0100055D02*
X0041827Y0100055D01*
X0041827Y0099656D02*
X0042731Y0099656D01*
X0042055Y0099258D02*
X0041827Y0099258D01*
X0052739Y0095272D02*
X0077188Y0095272D01*
X0077354Y0094874D02*
X0053138Y0094874D01*
X0053537Y0094475D02*
X0077519Y0094475D01*
X0077684Y0094077D02*
X0053935Y0094077D01*
X0054334Y0093678D02*
X0077849Y0093678D01*
X0078014Y0093280D02*
X0054732Y0093280D01*
X0031253Y0075859D02*
X0024195Y0068800D01*
X0023043Y0068800D01*
X0020843Y0066600D01*
X0018557Y0066600D01*
X0016357Y0068800D01*
X0013043Y0068800D01*
X0011800Y0067557D01*
X0011800Y0087372D01*
X0012280Y0087173D01*
X0012627Y0086891D01*
X0012711Y0086994D01*
X0013096Y0086835D01*
X0012938Y0086640D01*
X0014481Y0085390D01*
X0014770Y0085262D01*
X0015082Y0085212D01*
X0015396Y0085245D01*
X0015691Y0085358D01*
X0015947Y0085544D01*
X0016173Y0085824D01*
X0016173Y0081143D01*
X0016759Y0080557D01*
X0022343Y0080557D01*
X0022929Y0081143D01*
X0022929Y0081951D01*
X0023590Y0081290D01*
X0024505Y0080911D01*
X0025495Y0080911D01*
X0026410Y0081290D01*
X0027050Y0081930D01*
X0027690Y0081290D01*
X0027711Y0081281D01*
X0027711Y0081209D01*
X0027900Y0081020D01*
X0027900Y0079372D01*
X0028200Y0079072D01*
X0028200Y0078912D01*
X0031253Y0075859D01*
X0031140Y0075745D02*
X0011800Y0075745D01*
X0011800Y0075347D02*
X0030742Y0075347D01*
X0030343Y0074948D02*
X0011800Y0074948D01*
X0011800Y0074550D02*
X0029945Y0074550D01*
X0029546Y0074151D02*
X0011800Y0074151D01*
X0011800Y0073753D02*
X0029147Y0073753D01*
X0028749Y0073354D02*
X0011800Y0073354D01*
X0011800Y0072956D02*
X0028350Y0072956D01*
X0027952Y0072557D02*
X0011800Y0072557D01*
X0011800Y0072159D02*
X0027553Y0072159D01*
X0027155Y0071760D02*
X0011800Y0071760D01*
X0011800Y0071362D02*
X0026756Y0071362D01*
X0026358Y0070963D02*
X0011800Y0070963D01*
X0011800Y0070565D02*
X0025959Y0070565D01*
X0025561Y0070166D02*
X0011800Y0070166D01*
X0011800Y0069768D02*
X0025162Y0069768D01*
X0024764Y0069369D02*
X0011800Y0069369D01*
X0011800Y0068971D02*
X0024365Y0068971D01*
X0022815Y0068572D02*
X0016585Y0068572D01*
X0016983Y0068174D02*
X0022417Y0068174D01*
X0022018Y0067775D02*
X0017382Y0067775D01*
X0017780Y0067377D02*
X0021620Y0067377D01*
X0021221Y0066978D02*
X0018179Y0066978D01*
X0018550Y0062993D02*
X0020850Y0062993D01*
X0021249Y0062595D02*
X0018151Y0062595D01*
X0017753Y0062196D02*
X0021647Y0062196D01*
X0022046Y0061798D02*
X0017354Y0061798D01*
X0016956Y0061399D02*
X0022444Y0061399D01*
X0022843Y0061001D02*
X0016557Y0061001D01*
X0014900Y0058609D02*
X0014500Y0058609D01*
X0014500Y0058211D02*
X0014900Y0058211D01*
X0014900Y0057812D02*
X0014500Y0057812D01*
X0014500Y0057414D02*
X0014900Y0057414D01*
X0014900Y0057015D02*
X0014500Y0057015D01*
X0014500Y0056617D02*
X0014900Y0056617D01*
X0014900Y0056218D02*
X0014500Y0056218D01*
X0014500Y0055820D02*
X0014900Y0055820D01*
X0014900Y0055421D02*
X0014500Y0055421D01*
X0014500Y0055023D02*
X0014900Y0055023D01*
X0012171Y0058211D02*
X0011800Y0058211D01*
X0011800Y0058609D02*
X0012570Y0058609D01*
X0011800Y0059008D02*
X0033080Y0059008D01*
X0033478Y0059406D02*
X0011800Y0059406D01*
X0011800Y0059805D02*
X0033877Y0059805D01*
X0034275Y0060203D02*
X0011800Y0060203D01*
X0011800Y0060602D02*
X0034674Y0060602D01*
X0030968Y0076144D02*
X0011800Y0076144D01*
X0011800Y0076542D02*
X0030569Y0076542D01*
X0030171Y0076941D02*
X0011800Y0076941D01*
X0011800Y0077339D02*
X0029772Y0077339D01*
X0029374Y0077738D02*
X0011800Y0077738D01*
X0011800Y0078137D02*
X0028975Y0078137D01*
X0028577Y0078535D02*
X0011800Y0078535D01*
X0011800Y0078934D02*
X0028200Y0078934D01*
X0027940Y0079332D02*
X0011800Y0079332D01*
X0011800Y0079731D02*
X0027900Y0079731D01*
X0027900Y0080129D02*
X0011800Y0080129D01*
X0011800Y0080528D02*
X0027900Y0080528D01*
X0027900Y0080926D02*
X0025531Y0080926D01*
X0026445Y0081325D02*
X0027655Y0081325D01*
X0027257Y0081723D02*
X0026843Y0081723D01*
X0024469Y0080926D02*
X0022712Y0080926D01*
X0022929Y0081325D02*
X0023555Y0081325D01*
X0023157Y0081723D02*
X0022929Y0081723D01*
X0016390Y0080926D02*
X0011800Y0080926D01*
X0011800Y0081325D02*
X0016173Y0081325D01*
X0016173Y0081723D02*
X0011800Y0081723D01*
X0011800Y0082122D02*
X0016173Y0082122D01*
X0016173Y0082520D02*
X0011800Y0082520D01*
X0011800Y0082919D02*
X0016173Y0082919D01*
X0016173Y0083317D02*
X0011800Y0083317D01*
X0011800Y0083716D02*
X0016173Y0083716D01*
X0016173Y0084114D02*
X0011800Y0084114D01*
X0011800Y0084513D02*
X0016173Y0084513D01*
X0016173Y0084911D02*
X0011800Y0084911D01*
X0011800Y0085310D02*
X0014662Y0085310D01*
X0014089Y0085708D02*
X0011800Y0085708D01*
X0011800Y0086107D02*
X0013596Y0086107D01*
X0013104Y0086505D02*
X0011800Y0086505D01*
X0011800Y0086904D02*
X0012612Y0086904D01*
X0012638Y0086904D02*
X0012929Y0086904D01*
X0011967Y0087302D02*
X0011800Y0087302D01*
X0015564Y0085310D02*
X0016173Y0085310D01*
X0016173Y0085708D02*
X0016080Y0085708D01*
X0012815Y0068572D02*
X0011800Y0068572D01*
X0011800Y0068174D02*
X0012417Y0068174D01*
X0012018Y0067775D02*
X0011800Y0067775D01*
X0011800Y0061798D02*
X0012046Y0061798D01*
X0011800Y0061399D02*
X0012444Y0061399D01*
X0012843Y0061001D02*
X0011800Y0061001D01*
X0011800Y0048647D02*
X0012890Y0048647D01*
X0012491Y0048248D02*
X0011800Y0048248D01*
X0011800Y0047850D02*
X0012093Y0047850D01*
X0011934Y0031909D02*
X0011800Y0031909D01*
X0011800Y0031511D02*
X0012332Y0031511D01*
X0012731Y0031112D02*
X0011800Y0031112D01*
X0087283Y0089629D02*
X0089745Y0090648D01*
X0092052Y0092955D01*
X0093300Y0095969D01*
X0093300Y0099231D01*
X0092052Y0102245D01*
X0090936Y0103361D01*
X0095477Y0103361D01*
X0095308Y0103237D01*
X0094762Y0102692D01*
X0094309Y0102068D01*
X0093959Y0101381D01*
X0093721Y0100647D01*
X0093600Y0099886D01*
X0093600Y0099700D01*
X0098300Y0099700D01*
X0098300Y0099300D01*
X0098700Y0099300D01*
X0098700Y0094600D01*
X0098886Y0094600D01*
X0099647Y0094721D01*
X0100381Y0094959D01*
X0101068Y0095309D01*
X0101692Y0095762D01*
X0102101Y0096171D01*
X0102101Y0092829D01*
X0101692Y0093237D01*
X0101068Y0093691D01*
X0100381Y0094041D01*
X0099647Y0094279D01*
X0098886Y0094400D01*
X0098700Y0094400D01*
X0098700Y0089700D01*
X0098300Y0089700D01*
X0098300Y0094400D01*
X0098114Y0094400D01*
X0097353Y0094279D01*
X0096619Y0094041D01*
X0095932Y0093691D01*
X0095308Y0093237D01*
X0094762Y0092692D01*
X0094309Y0092068D01*
X0093959Y0091381D01*
X0093721Y0090647D01*
X0093600Y0089886D01*
X0093600Y0089700D01*
X0098300Y0089700D01*
X0098300Y0089300D01*
X0098700Y0089300D01*
X0098700Y0084600D01*
X0098886Y0084600D01*
X0099647Y0084721D01*
X0100381Y0084959D01*
X0101068Y0085309D01*
X0101692Y0085762D01*
X0102101Y0086171D01*
X0102101Y0082546D01*
X0101162Y0083484D01*
X0099435Y0084200D01*
X0097565Y0084200D01*
X0095838Y0083484D01*
X0094632Y0082279D01*
X0087283Y0089629D01*
X0087439Y0089693D02*
X0098300Y0089693D01*
X0098300Y0089300D02*
X0093600Y0089300D01*
X0093600Y0089114D01*
X0093721Y0088353D01*
X0093959Y0087619D01*
X0094309Y0086932D01*
X0094762Y0086308D01*
X0095308Y0085762D01*
X0095932Y0085309D01*
X0096619Y0084959D01*
X0097353Y0084721D01*
X0098114Y0084600D01*
X0098300Y0084600D01*
X0098300Y0089300D01*
X0098300Y0089295D02*
X0098700Y0089295D01*
X0098700Y0088896D02*
X0098300Y0088896D01*
X0098300Y0088498D02*
X0098700Y0088498D01*
X0098700Y0088099D02*
X0098300Y0088099D01*
X0098300Y0087701D02*
X0098700Y0087701D01*
X0098700Y0087302D02*
X0098300Y0087302D01*
X0098300Y0086904D02*
X0098700Y0086904D01*
X0098700Y0086505D02*
X0098300Y0086505D01*
X0098300Y0086107D02*
X0098700Y0086107D01*
X0098700Y0085708D02*
X0098300Y0085708D01*
X0098300Y0085310D02*
X0098700Y0085310D01*
X0098700Y0084911D02*
X0098300Y0084911D01*
X0097358Y0084114D02*
X0092797Y0084114D01*
X0093196Y0083716D02*
X0096396Y0083716D01*
X0095670Y0083317D02*
X0093594Y0083317D01*
X0093993Y0082919D02*
X0095272Y0082919D01*
X0094873Y0082520D02*
X0094391Y0082520D01*
X0092399Y0084513D02*
X0102101Y0084513D01*
X0102101Y0084911D02*
X0100234Y0084911D01*
X0101069Y0085310D02*
X0102101Y0085310D01*
X0102101Y0085708D02*
X0101617Y0085708D01*
X0102036Y0086107D02*
X0102101Y0086107D01*
X0102101Y0084114D02*
X0099642Y0084114D01*
X0100604Y0083716D02*
X0102101Y0083716D01*
X0102101Y0083317D02*
X0101330Y0083317D01*
X0101728Y0082919D02*
X0102101Y0082919D01*
X0096766Y0084911D02*
X0092000Y0084911D01*
X0091602Y0085310D02*
X0095931Y0085310D01*
X0095383Y0085708D02*
X0091203Y0085708D01*
X0090805Y0086107D02*
X0094964Y0086107D01*
X0094619Y0086505D02*
X0090406Y0086505D01*
X0090008Y0086904D02*
X0094330Y0086904D01*
X0094120Y0087302D02*
X0089609Y0087302D01*
X0089210Y0087701D02*
X0093932Y0087701D01*
X0093803Y0088099D02*
X0088812Y0088099D01*
X0088413Y0088498D02*
X0093698Y0088498D01*
X0093635Y0088896D02*
X0088015Y0088896D01*
X0087616Y0089295D02*
X0093600Y0089295D01*
X0093633Y0090092D02*
X0088401Y0090092D01*
X0089363Y0090490D02*
X0093696Y0090490D01*
X0093799Y0090889D02*
X0089985Y0090889D01*
X0090384Y0091287D02*
X0093929Y0091287D01*
X0094114Y0091686D02*
X0090782Y0091686D01*
X0091181Y0092084D02*
X0094321Y0092084D01*
X0094610Y0092483D02*
X0091579Y0092483D01*
X0091978Y0092881D02*
X0094952Y0092881D01*
X0095366Y0093280D02*
X0092186Y0093280D01*
X0092351Y0093678D02*
X0095915Y0093678D01*
X0096730Y0094077D02*
X0092516Y0094077D01*
X0092681Y0094475D02*
X0102101Y0094475D01*
X0102101Y0094077D02*
X0100270Y0094077D01*
X0100119Y0094874D02*
X0102101Y0094874D01*
X0102101Y0095272D02*
X0100996Y0095272D01*
X0101566Y0095671D02*
X0102101Y0095671D01*
X0102101Y0096070D02*
X0101999Y0096070D01*
X0102101Y0093678D02*
X0101085Y0093678D01*
X0101634Y0093280D02*
X0102101Y0093280D01*
X0102101Y0092881D02*
X0102048Y0092881D01*
X0098700Y0092881D02*
X0098300Y0092881D01*
X0098300Y0092483D02*
X0098700Y0092483D01*
X0098700Y0092084D02*
X0098300Y0092084D01*
X0098300Y0091686D02*
X0098700Y0091686D01*
X0098700Y0091287D02*
X0098300Y0091287D01*
X0098300Y0090889D02*
X0098700Y0090889D01*
X0098700Y0090490D02*
X0098300Y0090490D01*
X0098300Y0090092D02*
X0098700Y0090092D01*
X0098700Y0093280D02*
X0098300Y0093280D01*
X0098300Y0093678D02*
X0098700Y0093678D01*
X0098700Y0094077D02*
X0098300Y0094077D01*
X0098300Y0094600D02*
X0098300Y0099300D01*
X0093600Y0099300D01*
X0093600Y0099114D01*
X0093721Y0098353D01*
X0093959Y0097619D01*
X0094309Y0096932D01*
X0094762Y0096308D01*
X0095308Y0095762D01*
X0095932Y0095309D01*
X0096619Y0094959D01*
X0097353Y0094721D01*
X0098114Y0094600D01*
X0098300Y0094600D01*
X0098300Y0094874D02*
X0098700Y0094874D01*
X0098700Y0095272D02*
X0098300Y0095272D01*
X0098300Y0095671D02*
X0098700Y0095671D01*
X0098700Y0096070D02*
X0098300Y0096070D01*
X0098300Y0096468D02*
X0098700Y0096468D01*
X0098700Y0096867D02*
X0098300Y0096867D01*
X0098300Y0097265D02*
X0098700Y0097265D01*
X0098700Y0097664D02*
X0098300Y0097664D01*
X0098300Y0098062D02*
X0098700Y0098062D01*
X0098700Y0098461D02*
X0098300Y0098461D01*
X0098300Y0098859D02*
X0098700Y0098859D01*
X0098700Y0099258D02*
X0098300Y0099258D01*
X0098300Y0099656D02*
X0093124Y0099656D01*
X0093289Y0099258D02*
X0093600Y0099258D01*
X0093640Y0098859D02*
X0093300Y0098859D01*
X0093300Y0098461D02*
X0093704Y0098461D01*
X0093815Y0098062D02*
X0093300Y0098062D01*
X0093300Y0097664D02*
X0093945Y0097664D01*
X0094139Y0097265D02*
X0093300Y0097265D01*
X0093300Y0096867D02*
X0094357Y0096867D01*
X0094646Y0096468D02*
X0093300Y0096468D01*
X0093300Y0096070D02*
X0095001Y0096070D01*
X0095434Y0095671D02*
X0093177Y0095671D01*
X0093012Y0095272D02*
X0096004Y0095272D01*
X0096881Y0094874D02*
X0092846Y0094874D01*
X0092959Y0100055D02*
X0093627Y0100055D01*
X0093690Y0100453D02*
X0092794Y0100453D01*
X0092629Y0100852D02*
X0093787Y0100852D01*
X0093917Y0101250D02*
X0092464Y0101250D01*
X0092299Y0101649D02*
X0094095Y0101649D01*
X0094298Y0102047D02*
X0092134Y0102047D01*
X0091851Y0102446D02*
X0094583Y0102446D01*
X0094915Y0102844D02*
X0091452Y0102844D01*
X0091054Y0103243D02*
X0095315Y0103243D01*
X0101791Y0076144D02*
X0102101Y0076144D01*
X0102101Y0075745D02*
X0101392Y0075745D01*
X0100755Y0075347D02*
X0102101Y0075347D01*
X0102101Y0074948D02*
X0099793Y0074948D01*
D17*
X0067200Y0032800D02*
X0067200Y0032700D01*
X0044651Y0076000D02*
X0044700Y0076049D01*
X0044700Y0076400D01*
X0043843Y0088463D02*
X0040496Y0088463D01*
X0039827Y0089132D01*
X0039827Y0095668D01*
X0040496Y0096337D01*
X0043843Y0096337D01*
X0042300Y0097880D01*
X0042300Y0101386D01*
X0043100Y0102186D01*
X0043100Y0102961D01*
X0033921Y0098979D02*
X0033921Y0095668D01*
X0033921Y0089132D01*
X0025000Y0084700D02*
X0025000Y0083400D01*
X0025000Y0084700D02*
X0024079Y0085621D01*
X0024079Y0089132D01*
X0024079Y0095668D01*
X0024079Y0099079D01*
X0026200Y0101200D01*
X0031800Y0101100D02*
X0033921Y0098979D01*
X0018173Y0095668D02*
X0018173Y0092673D01*
X0017900Y0092400D01*
X0017900Y0089406D01*
X0018173Y0089132D01*
X0016841Y0087800D01*
X0014157Y0087800D01*
X0014157Y0086500D01*
X0014157Y0085100D01*
X0015480Y0086422D01*
X0014157Y0085100D02*
X0014157Y0084100D01*
X0014157Y0078043D01*
X0013400Y0078800D01*
X0013400Y0081200D01*
X0014157Y0087800D02*
X0014157Y0088463D01*
X0017504Y0088463D01*
X0018173Y0089132D01*
X0018173Y0095668D02*
X0017543Y0096298D01*
X0014197Y0096298D01*
D18*
X0017900Y0092400D03*
X0025000Y0083400D03*
X0029100Y0083400D03*
X0033000Y0083400D03*
X0028800Y0076000D03*
X0044700Y0076400D03*
X0044400Y0085100D03*
X0051000Y0087000D03*
X0057500Y0080600D03*
X0060600Y0085500D03*
X0069500Y0079000D03*
X0075100Y0079100D03*
X0079300Y0066700D03*
X0079400Y0057300D03*
X0079600Y0048700D03*
X0070100Y0038700D03*
X0067200Y0032800D03*
X0056200Y0048200D03*
X0052000Y0052200D03*
X0059900Y0056000D03*
X0063000Y0052800D03*
X0069300Y0053900D03*
X0059300Y0061300D03*
X0064200Y0066100D03*
X0061000Y0069300D03*
X0054700Y0070200D03*
X0048800Y0064300D03*
X0045200Y0100200D03*
X0031800Y0101100D03*
X0026200Y0101200D03*
D19*
X0043843Y0088463D02*
X0043843Y0085657D01*
X0044400Y0085100D01*
X0044122Y0085100D01*
X0043200Y0086022D01*
X0043843Y0086022D01*
X0044400Y0085465D01*
X0044400Y0085100D01*
X0043700Y0081400D02*
X0045400Y0081400D01*
X0051000Y0087000D01*
X0054289Y0085638D02*
X0044651Y0076000D01*
X0033940Y0076000D01*
X0030200Y0079740D01*
X0030200Y0079900D01*
X0029900Y0080200D01*
X0029900Y0081849D01*
X0029711Y0082038D01*
X0029711Y0082789D01*
X0029100Y0083400D01*
X0033000Y0083400D02*
X0033000Y0080900D01*
X0035100Y0078800D01*
X0041100Y0078800D01*
X0043700Y0081400D01*
X0054289Y0085638D02*
X0054289Y0090895D01*
X0046406Y0098778D01*
X0046322Y0098778D01*
X0045200Y0099900D01*
X0045200Y0100200D01*
X0057500Y0080600D02*
X0026500Y0049600D01*
X0022712Y0049600D01*
X0019700Y0046588D01*
X0019700Y0039800D01*
X0014700Y0034800D01*
X0024700Y0034800D02*
X0024700Y0035549D01*
X0052089Y0062938D01*
X0052089Y0067589D01*
X0054700Y0070200D01*
X0061000Y0069300D02*
X0061000Y0067551D01*
X0060911Y0067462D01*
X0060911Y0064738D01*
X0062838Y0062811D01*
X0065562Y0062811D01*
X0065751Y0063000D01*
X0079000Y0063000D01*
X0089100Y0052900D01*
X0089100Y0032900D01*
X0086100Y0029900D01*
X0072000Y0029900D01*
X0066600Y0024700D01*
X0062300Y0020428D02*
X0061100Y0021628D01*
X0061100Y0026600D01*
X0067200Y0032700D01*
X0070871Y0032700D01*
X0070893Y0032721D01*
X0072027Y0032700D01*
X0082400Y0032700D01*
X0086000Y0036300D01*
X0086000Y0050700D01*
X0079400Y0057300D01*
X0074000Y0057200D02*
X0074000Y0054300D01*
X0079600Y0048700D01*
X0074000Y0057200D02*
X0071189Y0060011D01*
X0060589Y0060011D01*
X0059300Y0061300D01*
X0064200Y0066100D02*
X0064800Y0066700D01*
X0079300Y0066700D01*
X0063000Y0052800D02*
X0063000Y0033800D01*
X0057700Y0028500D01*
X0047400Y0028500D01*
X0038500Y0019600D01*
X0031654Y0019600D01*
X0026654Y0014600D01*
X0024900Y0014600D01*
X0024700Y0014800D01*
X0026900Y0019700D02*
X0019600Y0019700D01*
X0014700Y0014800D01*
X0026900Y0019700D02*
X0030500Y0023300D01*
X0030500Y0027600D01*
X0032500Y0029600D01*
X0044540Y0029600D01*
X0046240Y0031300D01*
X0056000Y0031300D01*
X0059700Y0035000D01*
X0059700Y0055800D01*
X0059900Y0056000D01*
X0062300Y0020428D02*
X0062300Y0019000D01*
X0066600Y0014700D01*
D20*
X0015800Y0076600D02*
X0015800Y0082457D01*
X0014157Y0084100D01*
X0015800Y0082457D02*
X0015800Y0086820D01*
X0014157Y0088463D01*
X0014157Y0086500D02*
X0015402Y0086500D01*
X0015480Y0086422D01*
X0016841Y0087783D01*
X0016841Y0087800D01*
D21*
X0033940Y0076000D02*
X0024700Y0066760D01*
X0024700Y0064800D01*
X0014700Y0064800D01*
X0066600Y0014700D02*
X0071600Y0019500D01*
X0081600Y0019500D01*
X0086600Y0014700D01*
X0091700Y0020900D02*
X0091700Y0052700D01*
X0098500Y0059500D01*
X0092200Y0065800D01*
X0092200Y0070600D01*
X0087200Y0075600D01*
X0072900Y0075600D01*
X0069500Y0079000D01*
X0075100Y0079100D02*
X0088900Y0079100D01*
X0098500Y0069500D01*
X0091700Y0020900D02*
X0096600Y0016000D01*
X0096600Y0014700D01*
D22*
X0098500Y0079500D02*
X0094300Y0079500D01*
X0085400Y0088400D01*
X0081289Y0088400D01*
X0078795Y0090895D01*
X0054289Y0090895D01*
M02*
