%
M48
M72
T01C0.01378
T02C0.02165
T03C0.02362
T04C0.02756
T05C0.04000
T06C0.04400
T07C0.12992
%
T01
X193139Y56524
X197076Y56524
X222272Y56131
X226209Y56131
X253375Y103769
X244713Y110461
X265580Y123847
X317548Y133690
X350619Y141170
X343926Y121879
T02
X409280Y14792
X415580Y14792
X422272Y14792
T03
X383690Y12036
X336839Y14005
X263611Y32115
X231721Y38414
X258099Y14005
X179359Y14005
X100619Y14005
X252587Y75028
X252587Y81721
X258493Y81721
X264398Y81721
X270304Y81721
X217548Y84871
X208493Y93532
X204950Y97863
X217942Y104162
X221485Y108493
X218729Y119123
X195894Y125422
X189989Y125422
X180934Y117942
X150225Y123454
X139989Y123454
X115580Y131721
X104556Y120304
X104556Y112430
X104556Y104556
X37627Y104556
X37627Y112430
X72272Y126603
X72272Y134083
X87627Y148257
X217154Y127391
X223847Y127391
X230146Y127391
X241170Y128178
X231328Y147469
X372666Y141957
X372666Y135265
X408493Y115580
X441170Y102194
X441170Y96288
X436446Y91170
X456918Y103375
X515186Y98257
X584871Y117548
X595894Y117548
X592548Y125737
X602548Y125737
X612548Y125737
X622548Y125737
X582548Y125737
X572548Y125737
X562548Y125737
X547469Y125422
X520698Y144320
X537627Y157312
X556918Y161643
X473454Y144320
X465580Y146682
X453375Y128965
X399831Y156524
X391957Y156524
X562548Y185737
X572548Y185737
X582548Y185737
X592548Y185737
X602548Y185737
X612548Y185737
X622548Y185737
X368729Y102981
X363611Y102981
X358493Y102981
X353375Y102981
X363611Y92351
X373454Y92351
X378572Y72272
X374241Y65186
X362430Y65186
X435658Y65580
X451406Y70698
X467548Y71485
X467548Y62824
X475816Y62824
X435658Y56918
X562863Y69713
X572863Y69713
X582863Y69713
X592863Y69713
X602863Y69713
X612863Y69713
X622863Y69713
X622863Y9713
X612863Y9713
X602863Y9713
X592863Y9713
X582863Y9713
X572863Y9713
X562863Y9713
X190383Y87233
X37627Y96682
T04
X400816Y33690
X406131Y42154
X425028Y42154
X430343Y33690
X425028Y25225
X406131Y25225
T05
X341052Y82469
X331052Y82469
X331052Y92469
X341052Y92469
X341052Y102469
X331052Y102469
X331052Y112469
X341052Y112469
X17233Y112233
X17233Y102233
X17233Y92233
X17233Y82233
X17233Y72233
X17233Y122233
T06
X254556Y180934
X265973Y180934
X329477Y179280
X340894Y179280
X352194Y179359
T07
X19910Y19910
X19910Y175422
X693139Y97469
M30
