%
M48
M72
T01C0.01600
T02C0.03543
T03C0.03937
T04C0.04000
T05C0.12598
T06C0.12795
T07C0.16535
%
T01
X16354Y37220
X38402Y56118
X25803Y73441
X25803Y77378
X11630Y68717
X45094Y106512
X67142Y90764
X69110Y84071
X82890Y75016
X89583Y81709
X93520Y87614
X97457Y91157
X101394Y87614
X104937Y91157
X108480Y88008
X109268Y93126
X113992Y93126
X113992Y97457
X110843Y113992
X114780Y114780
X118717Y114780
X122654Y114780
X126591Y114780
X144701Y119898
X144701Y124622
X144701Y128953
X149425Y128953
X153756Y128953
X153756Y124622
X149425Y124622
X149425Y119898
X153756Y119898
X152575Y112024
X152575Y103756
X157299Y82890
X152181Y69504
X140370Y70685
X129346Y76984
X128953Y83677
X90764Y111236
X88008Y114386
X83677Y114386
X78953Y114386
X74622Y114386
X75409Y151394
X79346Y151394
X83283Y151394
X87220Y151394
X90764Y153756
X91945Y167929
X89189Y171079
X86827Y167535
X68323Y155724
X66748Y159661
X65567Y165961
X55331Y170291
X54937Y176197
X50606Y180528
X45094Y182890
X39189Y182496
X33283Y182496
X27378Y182890
X21472Y182890
X15567Y184858
X8480Y178953
X7693Y162024
X11630Y147457
X9661Y143520
X13992Y143520
X15961Y147457
X18323Y143520
X22260Y141551
X19504Y122260
X17535Y118717
X15173Y122260
X13205Y118717
X10843Y122260
X21866Y118717
X54937Y150606
X54150Y206512
X48244Y206512
X82102Y206906
X88008Y206906
X93913Y206906
X115961Y169504
X119898Y167929
X123441Y170291
X129740Y168323
X132890Y160843
X138402Y156512
X145094Y147850
X149819Y147850
X154543Y147850
X154543Y142732
X149819Y142732
X149819Y137614
X154543Y137614
X145094Y137614
X145094Y142732
X125409Y151000
X120685Y151000
X116748Y151000
X112811Y151394
X109661Y153756
X115961Y165173
X137220Y206118
X143126Y206512
X149425Y206118
X155724Y206118
X161630Y206118
X167142Y206512
X172260Y184858
X172260Y178953
X177772Y178953
X177772Y184858
X183283Y184465
X188795Y184465
X188795Y178559
X183283Y178559
X176591Y69110
X170685Y69110
X59268Y41945
T02
X58480Y49819
X48480Y49858
X53480Y59819
X63480Y59819
X73480Y59819
X83480Y59819
X78480Y49819
X68480Y49819
X115370Y49661
X125370Y49622
X135370Y49622
X145370Y49622
X140370Y59622
X130370Y59622
X120370Y59622
X150370Y59622
T03
X174071Y127890
X174071Y137890
X184071Y192850
X184071Y202850
X14622Y202929
X14622Y192929
X14937Y137850
X14937Y127850
T04
X14780Y106551
X14780Y96551
X14780Y86551
X14780Y76551
X35646Y192850
X35646Y202850
X184071Y106551
X184071Y96551
X184071Y86551
X184071Y76551
T05
X146669Y85646
X146669Y178165
X52181Y85646
T06
X43480Y24819
X88520Y24819
X110370Y24622
X155409Y24622
T07
X16748Y16748
X182102Y16748
X182102Y225409
X16748Y225409
M30
