G75*
%MOIN*%
%OFA0B0*%
%FSLAX25Y25*%
%IPPOS*%
%LPD*%
%AMOC8*
5,1,8,0,0,1.08239X$1,22.5*
%
%ADD10R,0.09843X0.13780*%
%ADD11R,0.05118X0.05906*%
%ADD12R,0.05906X0.05118*%
%ADD13R,0.06299X0.07098*%
%ADD14R,0.01575X0.04724*%
%ADD15R,0.49606X0.28740*%
%ADD16R,0.06693X0.11417*%
%ADD17R,0.01575X0.02756*%
%ADD18R,0.02756X0.01575*%
%ADD19R,0.24409X0.21260*%
%ADD20R,0.06299X0.03937*%
%ADD21R,0.06299X0.10236*%
D10*
X0069819Y0181315D03*
X0069819Y0206906D03*
X0109307Y0206748D03*
X0109307Y0181157D03*
D11*
X0080803Y0169189D03*
X0073323Y0169189D03*
X0059071Y0106512D03*
X0051591Y0106512D03*
X0029543Y0065488D03*
X0022063Y0065488D03*
X0021709Y0056039D03*
X0029189Y0056039D03*
X0124386Y0070134D03*
X0131866Y0070134D03*
X0136591Y0107142D03*
X0144071Y0107142D03*
D12*
X0164465Y0085370D03*
X0164465Y0077890D03*
X0121866Y0088717D03*
X0121866Y0096197D03*
X0168795Y0161276D03*
X0168795Y0168756D03*
X0176669Y0168559D03*
X0176669Y0161079D03*
X0184465Y0161039D03*
X0184465Y0168520D03*
X0061630Y0158165D03*
X0061630Y0150685D03*
X0060606Y0129976D03*
X0060606Y0122496D03*
X0052260Y0122339D03*
X0052260Y0129819D03*
X0043598Y0129858D03*
X0043598Y0122378D03*
D13*
X0012370Y0046748D03*
X0023567Y0046748D03*
X0176425Y0045094D03*
X0187622Y0045094D03*
X0187386Y0061630D03*
X0176189Y0061630D03*
D14*
X0126413Y0106394D03*
X0123854Y0106394D03*
X0121295Y0106394D03*
X0118736Y0106394D03*
X0116177Y0106394D03*
X0113618Y0106394D03*
X0111059Y0106394D03*
X0108500Y0106394D03*
X0105941Y0106394D03*
X0103382Y0106394D03*
X0100823Y0106394D03*
X0098264Y0106394D03*
X0095705Y0106394D03*
X0093146Y0106394D03*
X0090587Y0106394D03*
X0088028Y0106394D03*
X0085469Y0106394D03*
X0082909Y0106394D03*
X0080350Y0106394D03*
X0077791Y0106394D03*
X0075232Y0106394D03*
X0072673Y0106394D03*
X0072673Y0159543D03*
X0075232Y0159543D03*
X0077791Y0159543D03*
X0080350Y0159543D03*
X0082909Y0159543D03*
X0085469Y0159543D03*
X0088028Y0159543D03*
X0090587Y0159543D03*
X0093146Y0159543D03*
X0095705Y0159543D03*
X0098264Y0159543D03*
X0100823Y0159543D03*
X0103382Y0159543D03*
X0105941Y0159543D03*
X0108500Y0159543D03*
X0111059Y0159543D03*
X0113618Y0159543D03*
X0116177Y0159543D03*
X0118736Y0159543D03*
X0121295Y0159543D03*
X0123854Y0159543D03*
X0126413Y0159543D03*
D15*
X0099543Y0132969D03*
D16*
X0127693Y0132969D03*
X0071394Y0132969D03*
D17*
X0015094Y0062811D03*
X0012535Y0062811D03*
X0009976Y0062811D03*
X0009976Y0056118D03*
X0015094Y0056118D03*
D18*
X0111236Y0072339D03*
X0111236Y0074898D03*
X0111236Y0077457D03*
X0117929Y0077457D03*
X0117929Y0072339D03*
D19*
X0038205Y0165094D03*
D20*
X0009465Y0156118D03*
X0009465Y0174071D03*
D21*
X0164386Y0110055D03*
X0164386Y0095882D03*
M02*
